<?xml version="1.0" encoding="utf-8"?>
<!-- Generator: Adobe Illustrator 19.2.1, SVG Export Plug-In . SVG Version: 6.00 Build 0)  -->
<svg version="1.1" id="图层_1" xmlns="http://www.w3.org/2000/svg" xmlns:xlink="http://www.w3.org/1999/xlink" x="0px" y="0px"
	 viewBox="0 0 70 70" style="enable-background:new 0 0 70 70;" xml:space="preserve">
<style type="text/css">
	.st0{fill:#E0E0E0;}
	.st1{fill:#FFFFFF;}
	.st2{fill:#3697D4;}
</style>
<title>装备制造</title>
<g>
	<path class="st0" d="M70,38.6v-7.1c0-0.9-0.6-1.6-1.4-1.8l-0.2,0c-3-0.6-5-2.9-6.2-5.8c0,0,0-0.1,0-0.1c-1.2-2.9-1.5-5.9,0.2-8.5
		l0.1-0.2c0.5-0.7,0.4-1.7-0.2-2.3l-5-5C56.6,7.1,55.7,7,55,7.5l-0.2,0.1c-2.6,1.7-5.6,1.5-8.5,0.2c0,0-0.1,0-0.1,0
		c-2.9-1.2-5.2-3.1-5.8-6.2l0-0.2C40.2,0.6,39.4,0,38.6,0l-7.1,0c-0.9,0-1.6,0.6-1.8,1.4l0,0.2c-0.6,3-2.9,5-5.8,6.2
		c0,0-0.1,0-0.1,0c-2.9,1.2-5.9,1.5-8.5-0.2L15,7.5c-0.7-0.5-1.7-0.4-2.3,0.2l-5,5C7.1,13.4,7,14.3,7.5,15l0.1,0.2
		c1.7,2.6,1.5,5.6,0.2,8.5c0,0,0,0.1,0,0.1c-1.2,2.9-3.1,5.2-6.2,5.8l-0.2,0C0.6,29.8,0,30.6,0,31.4l0,7.1c0,0.9,0.6,1.6,1.4,1.8
		l0.2,0c3,0.6,5,2.9,6.2,5.8c0,0,0,0.1,0,0.1c1.2,2.9,1.5,5.9-0.2,8.5L7.5,55c-0.5,0.7-0.4,1.7,0.2,2.3l5,5c0.6,0.6,1.6,0.7,2.3,0.2
		l0.2-0.1c2.6-1.7,5.6-1.5,8.5-0.2c0,0,0.1,0,0.1,0c2.9,1.2,5.2,3.1,5.8,6.2l0,0.2c0.2,0.8,0.9,1.4,1.8,1.4h7.1
		c0.9,0,1.6-0.6,1.8-1.4l0-0.2c0.6-3,2.9-5,5.8-6.2c0,0,0.1,0,0.1,0c2.9-1.2,5.9-1.5,8.5,0.2l0.2,0.1c0.7,0.5,1.7,0.4,2.3-0.2l5-5
		c0.6-0.6,0.7-1.6,0.2-2.3l-0.1-0.2c-1.7-2.6-1.5-5.6-0.2-8.5c0,0,0-0.1,0-0.1c1.2-2.9,3.1-5.2,6.2-5.8l0.2,0
		C69.4,40.2,70,39.4,70,38.6z"/>
	<circle class="st1" cx="34.6" cy="35" r="25"/>
	<path class="st2" d="M35.4,37.4c1.9,0.9,4.2,0.7,5.9-0.6c1.7-1.3,2.7-3.4,2.5-5.6l-4.1,3c-0.7,0.5-1.6,0.4-2.1-0.3c0,0,0,0,0,0
		l-0.1-0.1L36,31.6c-0.5-0.7-0.4-1.7,0.3-2.3l4.1-3c-2-1-4.3-0.8-6,0.5c-2.2,1.6-3,4.4-2.2,6.9c-0.1,0.1-0.2,0.2-0.3,0.3L18.2,47.4
		c-0.8,0.8-0.8,2.2,0,3l1,1c0.8,0.8,2.2,0.8,3,0l13.1-13.9C35.4,37.5,35.4,37.5,35.4,37.4z M21.8,47.8c0.5,0.5,0.5,1.4,0,1.9
		c-0.5,0.5-1.3,0.5-1.8,0l0,0c-0.5-0.5-0.5-1.4,0-1.9C20.5,47.3,21.3,47.2,21.8,47.8L21.8,47.8z M39.4,14.8h-5L34,18.3
		c-1.9,0.4-3.6,1.1-5.2,2.2L26,18.3l-3.5,3.5l2.2,2.8c-1.1,1.6-1.8,3.4-2.2,5.3L19,30.3v5l3.5,0.4c0.3,1.3,0.7,2.5,1.3,3.7l3.8-3.5
		c-0.3-1-0.5-2.1-0.5-3.1c0.1-5.5,4.5-9.8,10-9.8s9.8,4.5,9.8,10c-0.1,5.4-4.5,9.8-9.9,9.8c-1.1,0-2.3-0.2-3.3-0.6l-3.1,4
		c1.1,0.5,2.2,0.9,3.4,1.1l0.4,3.5h5l0.4-3.5c1.9-0.4,3.6-1.1,5.2-2.2l2.8,2.4l3.5-3.5l-2.2-2.8c1.1-1.6,1.8-3.4,2.2-5.3l3.5-0.4v-5
		l-3.5-0.4c-0.4-1.9-1.1-3.7-2.2-5.3l2.2-2.8l-3.5-3.5L45,20.7c-1.6-1.1-3.3-1.8-5.2-2.2L39.4,14.8z"/>
</g>
</svg>
