<?xml version="1.0" encoding="utf-8"?>
<!-- Generator: Adobe Illustrator 19.2.1, SVG Export Plug-In . SVG Version: 6.00 Build 0)  -->
<svg version="1.1" id="图层_1" xmlns="http://www.w3.org/2000/svg" xmlns:xlink="http://www.w3.org/1999/xlink" x="0px" y="0px"
	 viewBox="0 0 70 70" style="enable-background:new 0 0 70 70;" xml:space="preserve">
<style type="text/css">
	.st0{fill:#E0E0E0;}
	.st1{fill:#FFFFFF;}
	.st2{fill:#3697D4;}
</style>
<title>智慧城市</title>
<path class="st0" d="M70,38.6v-7.1c0-0.9-0.6-1.6-1.4-1.8l-0.2,0c-3-0.6-5-2.9-6.2-5.8c0,0,0-0.1,0-0.1c-1.2-2.9-1.5-5.9,0.2-8.5
	l0.1-0.2c0.5-0.7,0.4-1.7-0.2-2.3l-5-5C56.6,7.1,55.7,7,55,7.5l-0.2,0.1c-2.6,1.7-5.6,1.5-8.5,0.2c0,0-0.1,0-0.1,0
	c-2.9-1.2-5.2-3.1-5.8-6.2l0-0.2C40.2,0.6,39.4,0,38.6,0l-7.1,0c-0.9,0-1.6,0.6-1.8,1.4l0,0.2c-0.6,3-2.9,5-5.8,6.2c0,0-0.1,0-0.1,0
	c-2.9,1.2-5.9,1.5-8.5-0.2L15,7.5c-0.7-0.5-1.7-0.4-2.3,0.2l-5,5C7.1,13.4,7,14.3,7.5,15l0.1,0.2c1.7,2.6,1.5,5.6,0.2,8.5
	c0,0,0,0.1,0,0.1c-1.2,2.9-3.1,5.2-6.2,5.8l-0.2,0C0.6,29.8,0,30.6,0,31.4l0,7.1c0,0.9,0.6,1.6,1.4,1.8l0.2,0c3,0.6,5,2.9,6.2,5.8
	c0,0,0,0.1,0,0.1c1.2,2.9,1.5,5.9-0.2,8.5L7.5,55c-0.5,0.7-0.4,1.7,0.2,2.3l5,5c0.6,0.6,1.6,0.7,2.3,0.2l0.2-0.1
	c2.6-1.7,5.6-1.5,8.5-0.2c0,0,0.1,0,0.1,0c2.9,1.2,5.2,3.1,5.8,6.2l0,0.2c0.2,0.8,0.9,1.4,1.8,1.4h7.1c0.9,0,1.6-0.6,1.8-1.4l0-0.2
	c0.6-3,2.9-5,5.8-6.2c0,0,0.1,0,0.1,0c2.9-1.2,5.9-1.5,8.5,0.2l0.2,0.1c0.7,0.5,1.7,0.4,2.3-0.2l5-5c0.6-0.6,0.7-1.6,0.2-2.3
	l-0.1-0.2c-1.7-2.6-1.5-5.6-0.2-8.5c0,0,0-0.1,0-0.1c1.2-2.9,3.1-5.2,6.2-5.8l0.2,0C69.4,40.2,70,39.4,70,38.6z"/>
<circle class="st1" cx="35" cy="35" r="25"/>
<g>
	<path class="st2" d="M49.1,29.3h-5.2c-0.8,0-1.5,0.7-1.5,1.5l0,0v20h8.2v-20C50.6,30,49.9,29.3,49.1,29.3
		C49.1,29.3,49.1,29.3,49.1,29.3L49.1,29.3z M47.6,47.1h-2.2v-2.2h2.2L47.6,47.1L47.6,47.1L47.6,47.1z M47.6,41.9h-2.2v-2.2h2.2
		L47.6,41.9L47.6,41.9L47.6,41.9z M47.6,36h-2.2v-2.2h2.2L47.6,36L47.6,36L47.6,36z"/>
	<path class="st2" d="M40.2,35.3h-3.7c-0.8,0-1.5,0.7-1.5,1.5l0,0v14.1h6.7V36.7C41.7,35.9,41,35.3,40.2,35.3L40.2,35.3z M39.5,47.1
		h-2.2v-2.2h2.2V47.1L39.5,47.1z M39.5,41.9h-2.2v-2.2h2.2V41.9L39.5,41.9z"/>
	<path class="st2" d="M32.8,23.4H32v-2.2c0-0.8-0.7-1.5-1.5-1.5H28v-3.3c0-0.6-0.4-1.1-1-1.2s-1.1,0.4-1.2,1c0,0,0,0.1,0,0.1v3.3
		h-2.6c-0.8,0-1.5,0.7-1.5,1.5l0,0v2.2h-0.7c-0.8,0-1.5,0.7-1.5,1.5v26h14.8v-26C34.3,24.1,33.6,23.4,32.8,23.4
		C32.8,23.4,32.8,23.4,32.8,23.4L32.8,23.4L32.8,23.4z M25.4,47.1h-2.2v-2.2h2.2V47.1L25.4,47.1L25.4,47.1z M25.4,41.9h-2.2v-2.2
		h2.2V41.9L25.4,41.9L25.4,41.9z M25.4,36h-2.2v-2.2h2.2V36L25.4,36L25.4,36z M25.4,30.1h-2.2v-2.2h2.2V30.1L25.4,30.1L25.4,30.1z
		 M30.5,47.1h-2.2v-2.2h2.2V47.1L30.5,47.1z M30.5,41.9h-2.2v-2.2h2.2V41.9L30.5,41.9z M30.5,36h-2.2v-2.2h2.2V36L30.5,36z
		 M30.5,30.1h-2.2v-2.2h2.2V30.1L30.5,30.1z"/>
</g>
</svg>
