<?xml version="1.0" encoding="utf-8"?>
<!-- Generator: Adobe Illustrator 19.2.1, SVG Export Plug-In . SVG Version: 6.00 Build 0)  -->
<svg version="1.1" id="图层_1" xmlns="http://www.w3.org/2000/svg" xmlns:xlink="http://www.w3.org/1999/xlink" x="0px" y="0px"
	 viewBox="0 0 70 70" style="enable-background:new 0 0 70 70;" xml:space="preserve">
<style type="text/css">
	.st0{fill:#E0E0E0;}
	.st1{fill:#FFFFFF;}
	.st2{fill:#3697D4;}
</style>
<path class="st0" d="M70,38.6v-7.1c0-0.9-0.6-1.6-1.4-1.8l-0.2,0c-3-0.6-5-2.9-6.2-5.8c0,0,0-0.1,0-0.1c-1.2-2.9-1.5-5.9,0.2-8.5
	l0.1-0.2c0.5-0.7,0.4-1.7-0.2-2.3l-5-5C56.6,7.1,55.7,7,55,7.5l-0.2,0.1c-2.6,1.7-5.6,1.5-8.5,0.2c0,0-0.1,0-0.1,0
	c-2.9-1.2-5.2-3.1-5.8-6.2l0-0.2C40.2,0.6,39.4,0,38.6,0l-7.1,0c-0.9,0-1.6,0.6-1.8,1.4l0,0.2c-0.6,3-2.9,5-5.8,6.2c0,0-0.1,0-0.1,0
	c-2.9,1.2-5.9,1.5-8.5-0.2L15,7.5c-0.7-0.5-1.7-0.4-2.3,0.2l-5,5C7.1,13.4,7,14.3,7.5,15l0.1,0.2c1.7,2.6,1.5,5.6,0.2,8.5
	c0,0,0,0.1,0,0.1c-1.2,2.9-3.1,5.2-6.2,5.8l-0.2,0C0.6,29.8,0,30.6,0,31.4l0,7.1c0,0.9,0.6,1.6,1.4,1.8l0.2,0c3,0.6,5,2.9,6.2,5.8
	c0,0,0,0.1,0,0.1c1.2,2.9,1.5,5.9-0.2,8.5L7.5,55c-0.5,0.7-0.4,1.7,0.2,2.3l5,5c0.6,0.6,1.6,0.7,2.3,0.2l0.2-0.1
	c2.6-1.7,5.6-1.5,8.5-0.2c0,0,0.1,0,0.1,0c2.9,1.2,5.2,3.1,5.8,6.2l0,0.2c0.2,0.8,0.9,1.4,1.8,1.4h7.1c0.9,0,1.6-0.6,1.8-1.4l0-0.2
	c0.6-3,2.9-5,5.8-6.2c0,0,0.1,0,0.1,0c2.9-1.2,5.9-1.5,8.5,0.2l0.2,0.1c0.7,0.5,1.7,0.4,2.3-0.2l5-5c0.6-0.6,0.7-1.6,0.2-2.3
	l-0.1-0.2c-1.7-2.6-1.5-5.6-0.2-8.5c0,0,0-0.1,0-0.1c1.2-2.9,3.1-5.2,6.2-5.8l0.2,0C69.4,40.2,70,39.4,70,38.6z"/>
<circle class="st1" cx="35" cy="35" r="25"/>
<title>新能源</title>
<g>
	<path class="st2" d="M33.4,37.6c-0.1,0-0.2,0-0.4-0.1L32.6,51h1.6l-0.5-13.5C33.6,37.5,33.5,37.6,33.4,37.6z"/>
	<path class="st2" d="M34.1,35.7c0.1-0.1,0.2-0.1,0.3-0.2l-4-3.7L30.2,32l2.8,3.5C33.4,35.4,33.8,35.4,34.1,35.7z"/>
	<ellipse transform="matrix(0.9129 -0.4082 0.4082 0.9129 -11.9853 16.8037)" class="st2" cx="33.4" cy="36.5" rx="0.8" ry="0.8"/>
	<path class="st2" d="M32.5,36c-0.1-0.1-0.2-0.1-0.2-0.2l-3,4.5l0.2,0.1l3-3.3C32.3,36.7,32.3,36.3,32.5,36z"/>
	<path class="st2" d="M38.7,34.9l-4.2,1.5c0,0.4-0.2,0.8-0.5,1c0.1,0.1,0.1,0.2,0.1,0.3l4.8-2.6L38.7,34.9z"/>
	<path class="st2" d="M26.7,29.4c-0.2,0-0.5,0-0.7-0.1l-0.9,21.7h3.3l-0.9-21.7C27.2,29.3,26.9,29.4,26.7,29.4z"/>
	<path class="st2" d="M28.1,25.6c0.2-0.2,0.3-0.3,0.5-0.4l-8-7.3l-0.3,0.3l5.5,7C26.6,25,27.5,25.1,28.1,25.6z"/>
	<ellipse transform="matrix(0.9129 -0.4082 0.4082 0.9129 -8.7936 13.2643)" class="st2" cx="26.7" cy="27.2" rx="1.6" ry="1.6"/>
	<path class="st2" d="M24.9,26.2c-0.2-0.1-0.3-0.3-0.5-0.5l-6,9l0.4,0.3l6-6.6C24.5,27.8,24.5,26.9,24.9,26.2z"/>
	<path class="st2" d="M37.3,24.1l-8.4,3c0,0.8-0.4,1.6-1.1,2c0.1,0.2,0.2,0.4,0.2,0.6l9.5-5.2L37.3,24.1z"/>
	<path class="st2" d="M43.9,34.2c-0.2,0-0.3,0-0.5-0.1l-0.6,16.8H45l-0.6-16.8C44.2,34.2,44.1,34.2,43.9,34.2z"/>
	<path class="st2" d="M44.9,31.6c0.1-0.1,0.2-0.2,0.4-0.3l-5.6-5.2l-0.2,0.2l3.9,4.9C43.8,31.1,44.4,31.2,44.9,31.6z"/>
	<ellipse transform="matrix(0.9129 -0.4082 0.4082 0.9129 -9.5212 20.7615)" class="st2" cx="43.9" cy="32.7" rx="1.1" ry="1.1"/>
	<path class="st2" d="M42.6,32c-0.1-0.1-0.2-0.2-0.3-0.3L38.1,38l0.3,0.2l4.3-4.6C42.3,33.1,42.4,32.4,42.6,32z"/>
	<path class="st2" d="M51.4,30.5l-5.9,2.1c0,0.6-0.3,1.1-0.8,1.4c0.1,0.1,0.1,0.3,0.1,0.5l6.7-3.7L51.4,30.5z"/>
	<rect x="18.6" y="49.9" class="st2" width="32.9" height="1.9"/>
</g>
</svg>
