<?xml version="1.0" encoding="utf-8"?>
<!-- Generator: Adobe Illustrator 19.0.0, SVG Export Plug-In . SVG Version: 6.00 Build 0)  -->
<svg version="1.1" id="图层_1" xmlns="http://www.w3.org/2000/svg" xmlns:xlink="http://www.w3.org/1999/xlink" x="0px" y="0px"
	 viewBox="4 -4 70 70" style="enable-background:new 4 -4 70 70;" xml:space="preserve">
<style type="text/css">
	.st0{fill:#E0E0E0;}
	.st1{fill:#FFFFFF;}
	.st2{fill-rule:evenodd;clip-rule:evenodd;fill:#388DC5;}
</style>
<title>装备制造</title>
<g>
	<path class="st0" d="M74,34.6v-7.1c0-0.9-0.6-1.6-1.4-1.8h-0.2c-3-0.6-5-2.9-6.2-5.8v-0.1c-1.2-2.9-1.5-5.9,0.2-8.5l0.1-0.2
		c0.5-0.7,0.4-1.7-0.2-2.3l-5-5C60.6,3.1,59.7,3,59,3.5l-0.2,0.1c-2.6,1.7-5.6,1.5-8.5,0.2h-0.1c-2.9-1.2-5.2-3.1-5.8-6.2v-0.2
		c-0.2-0.8-1-1.4-1.8-1.4h-7.1c-0.9,0-1.6,0.6-1.8,1.4v0.2c-0.6,3-2.9,5-5.8,6.2h-0.1c-2.9,1.2-5.9,1.5-8.5-0.2L19,3.5
		c-0.7-0.5-1.7-0.4-2.3,0.2l-5,5c-0.6,0.7-0.7,1.6-0.2,2.3l0.1,0.2c1.7,2.6,1.5,5.6,0.2,8.5v0.1c-1.2,2.9-3.1,5.2-6.2,5.8H5.4
		c-0.8,0.2-1.4,1-1.4,1.8v7.1c0,0.9,0.6,1.6,1.4,1.8h0.2c3,0.6,5,2.9,6.2,5.8v0.1c1.2,2.9,1.5,5.9-0.2,8.5L11.5,51
		c-0.5,0.7-0.4,1.7,0.2,2.3l5,5c0.6,0.6,1.6,0.7,2.3,0.2l0.2-0.1c2.6-1.7,5.6-1.5,8.5-0.2h0.1c2.9,1.2,5.2,3.1,5.8,6.2v0.2
		c0.2,0.8,0.9,1.4,1.8,1.4h7.1c0.9,0,1.6-0.6,1.8-1.4v-0.2c0.6-3,2.9-5,5.8-6.2h0.1c2.9-1.2,5.9-1.5,8.5,0.2l0.2,0.1
		c0.7,0.5,1.7,0.4,2.3-0.2l5-5c0.6-0.6,0.7-1.6,0.2-2.3l-0.1-0.2c-1.7-2.6-1.5-5.6-0.2-8.5v-0.1c1.2-2.9,3.1-5.2,6.2-5.8h0.2
		C73.4,36.2,74,35.4,74,34.6z"/>
	<circle class="st1" cx="38.6" cy="31" r="25"/>
</g>
<path class="st2" d="M24.9,19.7H29v8.5c0,0.5,0.4,0.9,1,0.9l0,0c0.5,0,1-0.4,1-0.9v-8.5h10.3h8.3h1.3c1.1,0.1,1.9,0.6,1.8,1.9V41
	c0,1.5-0.3,1.6-1.3,1.6c-8.4,0-16.9,0-25.3,0c-1.5,0-1.5,0.2-1.5-1.2v-2.2h-0.7c-0.8,0-1.4-0.6-1.4-1.4l0,0c0-0.7,0.6-1.4,1.4-1.4
	c6,0,13.1,0,19,0c0-2.4,0-5.5,0-7.8c0-0.8-0.4-1.3-1.1-1.5c-2.5-0.1-5.1-0.3-7.6-0.4c-0.8,0.1-1.3,0.5-1.4,1.5
	c-0.1,1.1-0.2,2.3-0.3,3.4h-1.1v0.5v1h-1.7h-0.6v2.4h-1v-2.4h-1.5v-1h1.5v-0.5H24c-0.8-3.2-1.1-6.5-1.2-9.7
	C22.8,20.3,22.7,19.7,24.9,19.7L24.9,19.7z M29.7,31.6h-0.6v0.5h0.6V31.6L29.7,31.6z M46.9,26.6v1.2h3.8c0.3,0,0.6-0.3,0.6-0.6l0,0
	c0-0.3-0.3-0.6-0.6-0.6H46.9L46.9,26.6z M45.4,27.7v-1.2h-0.5c-0.3,0-0.6,0.3-0.6,0.6l0,0c0,0.3,0.3,0.6,0.6,0.6H45.4L45.4,27.7z
	 M46.3,26.1h-0.4v2.1h0.4V26.1L46.3,26.1z M49.7,23.5v1.2h1c0.3,0,0.6-0.3,0.6-0.6l0,0c0-0.3-0.3-0.6-0.6-0.6H49.7L49.7,23.5z
	 M48.3,24.7v-1.2h-3.4c-0.3,0-0.6,0.3-0.6,0.6l0,0c0,0.3,0.3,0.6,0.6,0.6H48.3L48.3,24.7z M48.8,23.5v1.2v0.5h0.4v-0.5v-1.2v-0.4
	h-0.4V23.5L48.8,23.5z M38.8,20.5c-1.6,0-2.9,1.3-2.9,2.8c0,1.5,1.3,2.8,2.9,2.8c1.6,0,2.9-1.3,2.9-2.8
	C41.8,21.8,40.4,20.5,38.8,20.5L38.8,20.5z M39.6,21.4c-0.4-0.1-0.8,0.1-1,0.4l-1,2.6c-0.1,0.4,0.1,0.8,0.5,0.9l0,0
	c0.4,0.1,0.8-0.1,1-0.4l1-2.6C40.2,22,40,21.5,39.6,21.4L39.6,21.4L39.6,21.4z M26.2,39.3v0.6h24.7v-0.6H26.2L26.2,39.3z M53.6,23.3
	h0.9c0.6,0,1.2,0.5,1.2,1.1v3.8c0,0.6-0.5,1.1-1.2,1.1h-0.9V23.3z"/>
</svg>
