<?xml version="1.0" encoding="utf-8"?>
<!-- Generator: Adobe Illustrator 19.2.1, SVG Export Plug-In . SVG Version: 6.00 Build 0)  -->
<svg version="1.1" id="图层_1" xmlns="http://www.w3.org/2000/svg" xmlns:xlink="http://www.w3.org/1999/xlink" x="0px" y="0px"
	 viewBox="0 0 70 70" style="enable-background:new 0 0 70 70;" xml:space="preserve">
<style type="text/css">
	.st0{fill:#E0E0E0;}
	.st1{fill:#FFFFFF;}
	.st2{fill:#3697D4;}
</style>
<title>医疗健康</title>
<path class="st0" d="M70,38.6v-7.1c0-0.9-0.6-1.6-1.4-1.8l-0.2,0c-3-0.6-5-2.9-6.2-5.8c0,0,0-0.1,0-0.1c-1.2-2.9-1.5-5.9,0.2-8.5
	l0.1-0.2c0.5-0.7,0.4-1.7-0.2-2.3l-5-5C56.6,7.1,55.7,7,55,7.5l-0.2,0.1c-2.6,1.7-5.6,1.5-8.5,0.2c0,0-0.1,0-0.1,0
	c-2.9-1.2-5.2-3.1-5.8-6.2l0-0.2C40.2,0.6,39.4,0,38.6,0l-7.1,0c-0.9,0-1.6,0.6-1.8,1.4l0,0.2c-0.6,3-2.9,5-5.8,6.2c0,0-0.1,0-0.1,0
	c-2.9,1.2-5.9,1.5-8.5-0.2L15,7.5c-0.7-0.5-1.7-0.4-2.3,0.2l-5,5C7.1,13.4,7,14.3,7.5,15l0.1,0.2c1.7,2.6,1.5,5.6,0.2,8.5
	c0,0,0,0.1,0,0.1c-1.2,2.9-3.1,5.2-6.2,5.8l-0.2,0C0.6,29.8,0,30.6,0,31.4l0,7.1c0,0.9,0.6,1.6,1.4,1.8l0.2,0c3,0.6,5,2.9,6.2,5.8
	c0,0,0,0.1,0,0.1c1.2,2.9,1.5,5.9-0.2,8.5L7.5,55c-0.5,0.7-0.4,1.7,0.2,2.3l5,5c0.6,0.6,1.6,0.7,2.3,0.2l0.2-0.1
	c2.6-1.7,5.6-1.5,8.5-0.2c0,0,0.1,0,0.1,0c2.9,1.2,5.2,3.1,5.8,6.2l0,0.2c0.2,0.8,0.9,1.4,1.8,1.4h7.1c0.9,0,1.6-0.6,1.8-1.4l0-0.2
	c0.6-3,2.9-5,5.8-6.2c0,0,0.1,0,0.1,0c2.9-1.2,5.9-1.5,8.5,0.2l0.2,0.1c0.7,0.5,1.7,0.4,2.3-0.2l5-5c0.6-0.6,0.7-1.6,0.2-2.3
	l-0.1-0.2c-1.7-2.6-1.5-5.6-0.2-8.5c0,0,0-0.1,0-0.1c1.2-2.9,3.1-5.2,6.2-5.8l0.2,0C69.4,40.2,70,39.4,70,38.6z"/>
<circle class="st1" cx="35" cy="35" r="25"/>
<g>
	<path class="st2" d="M26.7,34l1.3,1.9l2-6.9c0.1-0.5,0.7-0.8,1.2-0.7c0.2,0.1,0.4,0.2,0.5,0.4l6.4,9.7l2-6.9
		c0.1-0.5,0.7-0.8,1.2-0.7c0.2,0.1,0.4,0.2,0.5,0.4l2.1,3.3H53c0.3-0.9,0.5-1.9,0.5-2.8v-0.7c0.2-6.3-4.6-11.5-10.6-11.5
		c-3,0-5.7,1.4-7.8,3.6c-2-2.3-4.8-3.6-7.8-3.6c-6,0-10.8,5.2-10.8,11.5v0.7c0,0.7,0.1,1.3,0.2,1.9h9.1C26.2,33.5,26.5,33.7,26.7,34
		z"/>
	<path class="st2" d="M42.5,36L41.3,34l-2,6.9c-0.1,0.4-0.4,0.6-0.8,0.7h-0.1c-0.3,0-0.6-0.2-0.8-0.4l-6.4-9.7l-2,6.9
		c-0.1,0.5-0.7,0.8-1.2,0.7c-0.2-0.1-0.4-0.2-0.5-0.4l-2.2-3.3h-8C20.7,43.7,33,52.3,33,52.3c1.2,0.9,2.8,0.9,4,0
		c0,0,10.4-7.3,14.8-14.9l0.4-0.7c0-0.1,0.1-0.1,0.1-0.2v0h-8.9C43,36.4,42.7,36.2,42.5,36z"/>
</g>
</svg>
