<?xml version="1.0" encoding="utf-8"?>
<!-- Generator: Adobe Illustrator 19.2.1, SVG Export Plug-In . SVG Version: 6.00 Build 0)  -->
<svg version="1.1" id="图层_1" xmlns="http://www.w3.org/2000/svg" xmlns:xlink="http://www.w3.org/1999/xlink" x="0px" y="0px"
	 viewBox="0 0 70 70" style="enable-background:new 0 0 70 70;" xml:space="preserve">
<style type="text/css">
	.st0{fill:#E0E0E0;}
	.st1{fill:#FFFFFF;}
	.st2{fill:#3697D4;}
</style>
<path class="st0" d="M70,38.6v-7.1c0-0.9-0.6-1.6-1.4-1.8l-0.2,0c-3-0.6-5-2.9-6.2-5.8c0,0,0-0.1,0-0.1c-1.2-2.9-1.5-5.9,0.2-8.5
	l0.1-0.2c0.5-0.7,0.4-1.7-0.2-2.3l-5-5C56.6,7.1,55.7,7,55,7.5l-0.2,0.1c-2.6,1.7-5.6,1.5-8.5,0.2c0,0-0.1,0-0.1,0
	c-2.9-1.2-5.2-3.1-5.8-6.2l0-0.2C40.2,0.6,39.4,0,38.6,0l-7.1,0c-0.9,0-1.6,0.6-1.8,1.4l0,0.2c-0.6,3-2.9,5-5.8,6.2c0,0-0.1,0-0.1,0
	c-2.9,1.2-5.9,1.5-8.5-0.2L15,7.5c-0.7-0.5-1.7-0.4-2.3,0.2l-5,5C7.1,13.4,7,14.3,7.5,15l0.1,0.2c1.7,2.6,1.5,5.6,0.2,8.5
	c0,0,0,0.1,0,0.1c-1.2,2.9-3.1,5.2-6.2,5.8l-0.2,0C0.6,29.8,0,30.6,0,31.4l0,7.1c0,0.9,0.6,1.6,1.4,1.8l0.2,0c3,0.6,5,2.9,6.2,5.8
	c0,0,0,0.1,0,0.1c1.2,2.9,1.5,5.9-0.2,8.5L7.5,55c-0.5,0.7-0.4,1.7,0.2,2.3l5,5c0.6,0.6,1.6,0.7,2.3,0.2l0.2-0.1
	c2.6-1.7,5.6-1.5,8.5-0.2c0,0,0.1,0,0.1,0c2.9,1.2,5.2,3.1,5.8,6.2l0,0.2c0.2,0.8,0.9,1.4,1.8,1.4h7.1c0.9,0,1.6-0.6,1.8-1.4l0-0.2
	c0.6-3,2.9-5,5.8-6.2c0,0,0.1,0,0.1,0c2.9-1.2,5.9-1.5,8.5,0.2l0.2,0.1c0.7,0.5,1.7,0.4,2.3-0.2l5-5c0.6-0.6,0.7-1.6,0.2-2.3
	l-0.1-0.2c-1.7-2.6-1.5-5.6-0.2-8.5c0,0,0-0.1,0-0.1c1.2-2.9,3.1-5.2,6.2-5.8l0.2,0C69.4,40.2,70,39.4,70,38.6z"/>
<title>交通运输</title>
<circle class="st1" cx="35" cy="35" r="25"/>
<g>
	<path class="st2" d="M47.6,39c-2.4,0-4.3,1.9-4.3,4.3s1.9,4.3,4.3,4.3c2.4,0,4.3-1.9,4.3-4.3S49.9,39,47.6,39
		C47.6,39,47.6,39,47.6,39L47.6,39z M47.6,45.1c-1,0-1.8-0.8-1.8-1.9c0-1,0.8-1.8,1.9-1.8c1,0,1.8,0.8,1.8,1.8
		C49.4,44.3,48.6,45.1,47.6,45.1C47.6,45.1,47.6,45.1,47.6,45.1L47.6,45.1z"/>
	<path class="st2" d="M24.5,39c-2.4,0-4.3,1.9-4.3,4.3c0,2.4,1.9,4.3,4.3,4.3s4.3-1.9,4.3-4.3S26.8,39,24.5,39L24.5,39L24.5,39z
		 M24.5,45.1c-1,0-1.8-0.8-1.8-1.8s0.8-1.8,1.8-1.8c1,0,1.8,0.8,1.8,1.8c0,0,0,0,0,0C26.3,44.3,25.5,45.1,24.5,45.1L24.5,45.1
		L24.5,45.1L24.5,45.1z"/>
	<path class="st2" d="M35.9,22.5H19.1c-1.4,0-2.6,1.2-2.6,2.6v12.8h21.9V25.1C38.5,23.6,37.3,22.5,35.9,22.5
		C35.9,22.5,35.9,22.5,35.9,22.5L35.9,22.5L35.9,22.5z"/>
	<path class="st2" d="M21.2,39.1h-4.7v2.2c0,1.4,1,2.5,2.4,2.7c0-0.3,0-0.7,0.1-1C19.1,41.4,19.9,40,21.2,39.1L21.2,39.1L21.2,39.1z
		"/>
	<path class="st2" d="M27.7,39.1c1.6,1,2.2,2.8,2.2,4.9h8.6v-4.9H27.7z"/>
	<path class="st2" d="M47.9,25.7h-5.7c-1.4,0-2.6,1.1-2.6,2.6c0,0,0,0,0,0l0,0l0,0V44h2.5c0-0.2,0-0.4,0-0.6c0-3,2.4-5.4,5.4-5.4
		c3,0,5.4,2.4,5.4,5.4l0,0V44c1.4-0.1,2.4-1.2,2.4-2.6V34C55.5,33.3,52.5,25.7,47.9,25.7L47.9,25.7L47.9,25.7z M51.4,33
		c-0.7-0.2-1.4-0.3-2.1-0.3h-7.3v-4c0-0.3,0.2-0.6,0.5-0.6c0,0,0,0,0,0h6.3c0.6,0,1.2,0.4,1.5,0.9c0.8,1,2.4,4.6,2.4,4.6
		C52.4,33.3,51.9,33.1,51.4,33L51.4,33L51.4,33z"/>
</g>
</svg>
