<?xml version="1.0" encoding="utf-8"?>
<!-- Generator: Adobe Illustrator 19.2.1, SVG Export Plug-In . SVG Version: 6.00 Build 0)  -->
<svg version="1.1" id="图层_1" xmlns="http://www.w3.org/2000/svg" xmlns:xlink="http://www.w3.org/1999/xlink" x="0px" y="0px"
	 viewBox="0 0 70 70" style="enable-background:new 0 0 70 70;" xml:space="preserve">
<style type="text/css">
	.st0{fill:#E0E0E0;}
	.st1{fill:#FFFFFF;}
	.st2{fill:#3697D4;}
</style>
<path class="st0" d="M70,38.6v-7.1c0-0.9-0.6-1.6-1.4-1.8l-0.2,0c-3-0.6-5-2.9-6.2-5.8c0,0,0-0.1,0-0.1c-1.2-2.9-1.5-5.9,0.2-8.5
	l0.1-0.2c0.5-0.7,0.4-1.7-0.2-2.3l-5-5C56.6,7.1,55.7,7,55,7.5l-0.2,0.1c-2.6,1.7-5.6,1.5-8.5,0.2c0,0-0.1,0-0.1,0
	c-2.9-1.2-5.2-3.1-5.8-6.2l0-0.2C40.2,0.6,39.4,0,38.6,0l-7.1,0c-0.9,0-1.6,0.6-1.8,1.4l0,0.2c-0.6,3-2.9,5-5.8,6.2c0,0-0.1,0-0.1,0
	c-2.9,1.2-5.9,1.5-8.5-0.2L15,7.5c-0.7-0.5-1.7-0.4-2.3,0.2l-5,5C7.1,13.4,7,14.3,7.5,15l0.1,0.2c1.7,2.6,1.5,5.6,0.2,8.5
	c0,0,0,0.1,0,0.1c-1.2,2.9-3.1,5.2-6.2,5.8l-0.2,0C0.6,29.8,0,30.6,0,31.4l0,7.1c0,0.9,0.6,1.6,1.4,1.8l0.2,0c3,0.6,5,2.9,6.2,5.8
	c0,0,0,0.1,0,0.1c1.2,2.9,1.5,5.9-0.2,8.5L7.5,55c-0.5,0.7-0.4,1.7,0.2,2.3l5,5c0.6,0.6,1.6,0.7,2.3,0.2l0.2-0.1
	c2.6-1.7,5.6-1.5,8.5-0.2c0,0,0.1,0,0.1,0c2.9,1.2,5.2,3.1,5.8,6.2l0,0.2c0.2,0.8,0.9,1.4,1.8,1.4h7.1c0.9,0,1.6-0.6,1.8-1.4l0-0.2
	c0.6-3,2.9-5,5.8-6.2c0,0,0.1,0,0.1,0c2.9-1.2,5.9-1.5,8.5,0.2l0.2,0.1c0.7,0.5,1.7,0.4,2.3-0.2l5-5c0.6-0.6,0.7-1.6,0.2-2.3
	l-0.1-0.2c-1.7-2.6-1.5-5.6-0.2-8.5c0,0,0-0.1,0-0.1c1.2-2.9,3.1-5.2,6.2-5.8l0.2,0C69.4,40.2,70,39.4,70,38.6z"/>
<circle class="st1" cx="35" cy="35" r="25"/>
<title>设备租赁</title>
<g>
	<path class="st2" d="M52.8,48c-1.6,0.6-11.7,5.2-13.3,5.2h-0.1c-1.2-0.2-10.9-3.2-12.4-3.2H27c-1.1,0.2-3.3,1.3-5.6,2.2
		c-0.1,0-0.2,0.1-0.3,0.1c-2.2,0-4.4-7.9-2.8-8.7l0.6-0.3c1.4-0.7,2.8-1.3,4.2-1.9l1.6-0.6l1.4-0.6c0.9-0.3,1.7-0.7,2.6-1
		c0.8-0.3,1.7-0.6,2.6-0.8h0.2c0,0,0,0,0,0.1c0,0,0,0.1,0,0.1h0c1.7,0,10.5,2.9,12.6,3.5c1.9,0.5,1,3.2-1,3.2c-0.2,0-0.4,0-0.6-0.1
		c-2.5-0.6-6.3-1.4-8-1.8c-0.1,0-0.2,0-0.4,0c-1.5,0-2.1,2-0.6,2.7c1.1,0.5,6.7,2.1,8.6,2.1c0.7,0,1.4-0.4,2.1-0.6
		c0.8-0.3,1.6-0.6,2.4-0.9c1.6-0.6,3.2-1.3,4.8-1.9c0.3-0.1,0.7-0.2,1-0.2C54.5,44.4,55,47.2,52.8,48L52.8,48L52.8,48z"/>
	<path class="st2" d="M42.6,38c-1,0-1.8-0.8-1.9-1.8c0-1,0.8-1.8,1.8-1.9c1,0,1.8,0.8,1.9,1.8c0,0,0,0,0,0c0,0,0,0,0,0.1
		C44.4,37.1,43.6,37.9,42.6,38z"/>
	<path class="st2" d="M20.9,38.5c-0.6-0.6-1-1.4-1-2.2c0-0.9,0.4-1.7,1-2.4c0.7-0.6,1.5-1,2.5-1h19.6c0.9,0,1.8,0.4,2.5,1
		c0.6,0.6,1,1.5,1,2.4c0,0.8-0.4,1.7-1,2.2c-0.1,0.1-0.2,0.2-0.3,0.3c1.4,0.4,2.5,1.6,2.8,3h1.6l1.1-0.4c0.6-0.3,1.3-0.4,2-0.4
		c0.5,0,1,0.1,1.5,0.3l-3.7-9.3l-0.5-6.7h-3.3v6.7c-0.5-0.5-1.2-1-1.9-1.3v-4h-2.2v-1.2h0.4v-4.8h-0.4v-1.3L42.2,19l-2-2.2l-1.5,1.4
		l1.7,1.9v0.4H40v4.9h0.4v1.2h-1.2l-4.6-8L34,17.5H22.1v9.1h-1.3V31c-0.7,0.4-1.3,0.9-1.7,1.6c-0.8,1-1.3,2.3-1.3,3.7
		c0,1.2,0.4,2.4,1.1,3.4c0.8-0.3,1.5-0.7,2.3-1C21,38.6,21,38.6,20.9,38.5z M26.2,21.8h5.5l2.7,4.7h-8.2
		C26.2,26.5,26.2,21.8,26.2,21.8z"/>
	<path class="st2" d="M25.2,37l0.4-0.2c0.1-0.2,0.1-0.5,0.1-0.7c0-1-0.7-1.8-1.7-1.8c-1,0-1.8,0.7-1.8,1.7c0,0,0,0.1,0,0.1
		c0,0.7,0.4,1.4,1.1,1.7l0.4-0.2C24.2,37.4,24.7,37.2,25.2,37z"/>
	<path class="st2" d="M31,35.1L31,35.1l0.2,0h0.3c0.4,0,0.7,0.1,1.1,0.2c1.5,0.3,3,0.7,4.5,1.1v-2h-7.8v1.1
		C29.9,35.3,30.4,35.2,31,35.1L31,35.1L31,35.1L31,35.1z"/>
	<ellipse class="st2" cx="42.6" cy="36.1" rx="1.8" ry="1.8"/>
</g>
</svg>
