<?xml version="1.0" encoding="utf-8"?>
<!-- Generator: Adobe Illustrator 19.2.1, SVG Export Plug-In . SVG Version: 6.00 Build 0)  -->
<svg version="1.1" id="图层_1" xmlns="http://www.w3.org/2000/svg" xmlns:xlink="http://www.w3.org/1999/xlink" x="0px" y="0px"
	 viewBox="0 0 70 70" style="enable-background:new 0 0 70 70;" xml:space="preserve">
<style type="text/css">
	.st0{fill:#E0E0E0;}
	.st1{fill:#FFFFFF;}
	.st2{fill:#3697D4;}
</style>
<path class="st0" d="M70,38.6v-7.1c0-0.9-0.6-1.6-1.4-1.8l-0.2,0c-3-0.6-5-2.9-6.2-5.8c0,0,0-0.1,0-0.1c-1.2-2.9-1.5-5.9,0.2-8.5
	l0.1-0.2c0.5-0.7,0.4-1.7-0.2-2.3l-5-5C56.6,7.1,55.7,7,55,7.5l-0.2,0.1c-2.6,1.7-5.6,1.5-8.5,0.2c0,0-0.1,0-0.1,0
	c-2.9-1.2-5.2-3.1-5.8-6.2l0-0.2C40.2,0.6,39.4,0,38.6,0l-7.1,0c-0.9,0-1.6,0.6-1.8,1.4l0,0.2c-0.6,3-2.9,5-5.8,6.2c0,0-0.1,0-0.1,0
	c-2.9,1.2-5.9,1.5-8.5-0.2L15,7.5c-0.7-0.5-1.7-0.4-2.3,0.2l-5,5C7.1,13.4,7,14.3,7.5,15l0.1,0.2c1.7,2.6,1.5,5.6,0.2,8.5
	c0,0,0,0.1,0,0.1c-1.2,2.9-3.1,5.2-6.2,5.8l-0.2,0C0.6,29.8,0,30.6,0,31.4l0,7.1c0,0.9,0.6,1.6,1.4,1.8l0.2,0c3,0.6,5,2.9,6.2,5.8
	c0,0,0,0.1,0,0.1c1.2,2.9,1.5,5.9-0.2,8.5L7.5,55c-0.5,0.7-0.4,1.7,0.2,2.3l5,5c0.6,0.6,1.6,0.7,2.3,0.2l0.2-0.1
	c2.6-1.7,5.6-1.5,8.5-0.2c0,0,0.1,0,0.1,0c2.9,1.2,5.2,3.1,5.8,6.2l0,0.2c0.2,0.8,0.9,1.4,1.8,1.4h7.1c0.9,0,1.6-0.6,1.8-1.4l0-0.2
	c0.6-3,2.9-5,5.8-6.2c0,0,0.1,0,0.1,0c2.9-1.2,5.9-1.5,8.5,0.2l0.2,0.1c0.7,0.5,1.7,0.4,2.3-0.2l5-5c0.6-0.6,0.7-1.6,0.2-2.3
	l-0.1-0.2c-1.7-2.6-1.5-5.6-0.2-8.5c0,0,0-0.1,0-0.1c1.2-2.9,3.1-5.2,6.2-5.8l0.2,0C69.4,40.2,70,39.4,70,38.6z"/>
<circle class="st1" cx="35" cy="35" r="25"/>
<title>智慧农业</title>
<g>
	<rect x="18.1" y="23.6" class="st2" width="1.2" height="5"/>
	<rect x="21.9" y="19.8" class="st2" width="1.1" height="5"/>
	<rect x="25.6" y="23.6" class="st2" width="1.2" height="5"/>
	<rect x="30.6" y="19.5" class="st2" width="1.2" height="5"/>
	<rect x="34.3" y="15.6" class="st2" width="1.1" height="5"/>
	<rect x="38.1" y="19.5" class="st2" width="1.1" height="5"/>
	<path class="st2" d="M52.1,35.6c0,0-2.2-0.1-3.5,1.2c-0.2,0.2-0.4,0.5-0.6,0.7v-2c1.1-0.1,2.1-0.5,2.9-1.2c1.3-1.3,1.2-3.5,1.2-3.5
		S50,30.8,48.7,32c-0.2,0.2-0.4,0.5-0.6,0.8v-1c0.6-0.7,0.9-1.7,1-2.6c0-1.8-1.6-3.3-1.6-3.3s-1.6,1.5-1.6,3.3
		c0.1,1,0.4,1.9,1.1,2.7v0.9c-0.2-0.3-0.3-0.5-0.6-0.8c-1.3-1.3-3.5-1.2-3.5-1.2S42.7,33,44,34.3c0.8,0.7,1.8,1.1,2.9,1.2v2.2
		c-0.2-0.3-0.4-0.6-0.6-0.8c-1.3-1.3-3.5-1.2-3.5-1.2s-0.1,2.2,1.2,3.5c0.8,0.7,1.8,1.1,2.9,1.2v2.2c-0.2-0.3-0.4-0.7-0.7-0.9
		c-1.3-1.3-3.5-1.2-3.5-1.2s0,2.2,1.3,3.5c0.8,0.7,1.9,1.1,3,1.2l0,3.3c-3.7-2.2-5.9-3.6-11.3-3.8l0-3.7c1-0.1,2-0.5,2.8-1.2
		c1.3-1.3,1.2-3.5,1.2-3.5s-2.2-0.1-3.5,1.2c-0.2,0.2-0.4,0.4-0.5,0.7v-2c1-0.1,2-0.5,2.8-1.2c1.3-1.3,1.2-3.5,1.2-3.5
		s-2.2-0.1-3.5,1.2c-0.2,0.2-0.4,0.5-0.6,0.7l0-2c1.1-0.1,2.1-0.5,2.9-1.2c1.3-1.3,1.2-3.5,1.2-3.5s-2.2-0.1-3.5,1.2
		c-0.2,0.2-0.5,0.5-0.6,0.8v-1c0.6-0.7,1-1.7,1-2.6c0-1.8-1.6-3.3-1.6-3.3s-1.6,1.5-1.6,3.3c0.1,1,0.4,1.9,1.1,2.7v0.9
		c-0.2-0.3-0.3-0.5-0.6-0.8c-1.3-1.3-3.5-1.2-3.5-1.2s-0.1,2.2,1.2,3.5c0.8,0.7,1.8,1.1,2.9,1.2v2.2c-0.2-0.3-0.4-0.6-0.6-0.8
		c-1.3-1.3-3.5-1.2-3.5-1.2s-0.1,2.2,1.2,3.5c0.8,0.7,1.8,1.1,2.9,1.2l0,2.2c-0.2-0.3-0.4-0.7-0.7-0.9c-1.3-1.3-3.5-1.2-3.5-1.2
		s-0.1,2.2,1.2,3.5c0.8,0.7,1.9,1.1,3,1.2l0,3.7c-5.4,0-7.6,1.3-11.3,3.3l0-2.8c1-0.1,2-0.5,2.8-1.2c1.3-1.3,1.2-3.5,1.2-3.5
		s-2.2-0.1-3.5,1.2c-0.2,0.2-0.4,0.4-0.5,0.7v-2c1-0.1,2-0.5,2.8-1.2c1.3-1.3,1.2-3.5,1.2-3.5s-2.2-0.1-3.5,1.2
		c-0.2,0.2-0.4,0.5-0.6,0.7v-2c1.1-0.1,2.1-0.5,2.9-1.2c1.3-1.3,1.2-3.5,1.2-3.5S25,30.8,23.7,32c-0.2,0.2-0.4,0.5-0.6,0.8v-1
		c0.6-0.7,0.9-1.7,1-2.6c0-1.8-1.6-3.3-1.6-3.3s-1.6,1.5-1.6,3.3c0.1,1,0.4,1.9,1.1,2.7v0.9c-0.2-0.3-0.3-0.5-0.6-0.8
		c-1.3-1.3-3.5-1.2-3.5-1.2s-0.1,2.2,1.2,3.5c0.8,0.7,1.8,1.1,2.9,1.2v2.2c-0.2-0.3-0.4-0.6-0.6-0.8c-1.3-1.3-3.5-1.2-3.5-1.2
		s-0.1,2.2,1.2,3.5c0.8,0.7,1.8,1.1,2.9,1.2l0,2.2c-0.2-0.3-0.4-0.7-0.7-0.9c-1.3-1.3-3.5-1.2-3.5-1.2s-0.1,2.2,1.2,3.5
		c0.8,0.7,1.9,1.1,3,1.2l0.1,3.5c-1.2,0.7-2.4,1.6-3.4,2.7h31.9c-0.8-0.8-1.7-1.5-2.6-2.2h0.1l0-4c1-0.1,2-0.5,2.8-1.2
		c1.3-1.3,1.2-3.5,1.2-3.5s-2.2-0.1-3.5,1.2c-0.2,0.2-0.4,0.4-0.5,0.7v-2c1-0.1,2-0.5,2.8-1.2C52.2,37.8,52.1,35.6,52.1,35.6z"/>
	<rect x="43" y="23.6" class="st2" width="1.1" height="5"/>
	<rect x="46.8" y="19.8" class="st2" width="1.1" height="5"/>
	<rect x="50.6" y="23.6" class="st2" width="1.1" height="5"/>
</g>
</svg>
