<?xml version="1.0" encoding="utf-8"?>
<!-- Generator: Adobe Illustrator 19.2.1, SVG Export Plug-In . SVG Version: 6.00 Build 0)  -->
<svg version="1.1" id="图层_1" xmlns="http://www.w3.org/2000/svg" xmlns:xlink="http://www.w3.org/1999/xlink" x="0px" y="0px"
	 viewBox="0 0 70 70" style="enable-background:new 0 0 70 70;" xml:space="preserve">
<style type="text/css">
	.st0{fill:#E0E0E0;}
	.st1{fill:#FFFFFF;}
	.st2{fill:#3697D4;}
</style>
<path class="st0" d="M70,38.6v-7.1c0-0.9-0.6-1.6-1.4-1.8l-0.2,0c-3-0.6-5-2.9-6.2-5.8c0,0,0-0.1,0-0.1c-1.2-2.9-1.5-5.9,0.2-8.5
	l0.1-0.2c0.5-0.7,0.4-1.7-0.2-2.3l-5-5C56.6,7.1,55.7,7,55,7.5l-0.2,0.1c-2.6,1.7-5.6,1.5-8.5,0.2c0,0-0.1,0-0.1,0
	c-2.9-1.2-5.2-3.1-5.8-6.2l0-0.2C40.2,0.6,39.4,0,38.6,0l-7.1,0c-0.9,0-1.6,0.6-1.8,1.4l0,0.2c-0.6,3-2.9,5-5.8,6.2c0,0-0.1,0-0.1,0
	c-2.9,1.2-5.9,1.5-8.5-0.2L15,7.5c-0.7-0.5-1.7-0.4-2.3,0.2l-5,5C7.1,13.4,7,14.3,7.5,15l0.1,0.2c1.7,2.6,1.5,5.6,0.2,8.5
	c0,0,0,0.1,0,0.1c-1.2,2.9-3.1,5.2-6.2,5.8l-0.2,0C0.6,29.8,0,30.6,0,31.4l0,7.1c0,0.9,0.6,1.6,1.4,1.8l0.2,0c3,0.6,5,2.9,6.2,5.8
	c0,0,0,0.1,0,0.1c1.2,2.9,1.5,5.9-0.2,8.5L7.5,55c-0.5,0.7-0.4,1.7,0.2,2.3l5,5c0.6,0.6,1.6,0.7,2.3,0.2l0.2-0.1
	c2.6-1.7,5.6-1.5,8.5-0.2c0,0,0.1,0,0.1,0c2.9,1.2,5.2,3.1,5.8,6.2l0,0.2c0.2,0.8,0.9,1.4,1.8,1.4h7.1c0.9,0,1.6-0.6,1.8-1.4l0-0.2
	c0.6-3,2.9-5,5.8-6.2c0,0,0.1,0,0.1,0c2.9-1.2,5.9-1.5,8.5,0.2l0.2,0.1c0.7,0.5,1.7,0.4,2.3-0.2l5-5c0.6-0.6,0.7-1.6,0.2-2.3
	l-0.1-0.2c-1.7-2.6-1.5-5.6-0.2-8.5c0,0,0-0.1,0-0.1c1.2-2.9,3.1-5.2,6.2-5.8l0.2,0C69.4,40.2,70,39.4,70,38.6z"/>
<circle class="st1" cx="35" cy="35" r="25"/>
<title>石油行业</title>
<g>
	<path class="st2" d="M50.1,49l-0.2-1l0.3-0.1v-0.6h-0.4l-1.7-8.6h-1.6v-5.4l0.5,0.2l-0.6-2.9l-9.6-3.4v-3.4h-7.7v0.7l-3.8-1.3
		c0.2-0.4,0.2-0.9,0.2-1.3c-0.3-3.3,0.7-5.5-0.2-5.5c-0.9,0-4.5,4.1-5.1,6.4c-0.4,1.7-0.6,5-0.3,6.6v2.5h-0.3v0.6h0.3v15.9h-0.3V49
		H17v1h36v-1H50.1z M23.7,19.2l1,0.3v2.3l-2.1-0.3l-0.4-0.7L23.7,19.2z M21.9,21.9l1.3,0.3l-0.7,2.1l-1.4-0.6L21.9,21.9z M21.5,24.7
		l2,0.9l-1.5,2L21,27.3l-0.1-2.5L21.5,24.7z M20.3,48.4V32.5h0.2v-0.6h-0.2v-1.8c0.1,0.1,0.2,0.2,0.4,0.1c0.6-0.2,2.3-2.5,3.6-4.5
		c0.1-0.2,0.2-0.4,0.3-0.6l4.6,1.7v2.6h7.1l10,3.7v5.5h-0.7l-1.1,7.8l-1.7-0.3L42.8,47l1.5,1l-0.1,1h-5.8l-2.8-19.3h-5.4L27.7,49
		h-7.1v-0.7H20.3z M37.4,48.3l-8.2,0l7-8.4L37.4,48.3z M34.8,30.7l1.2,8.1L30.5,35L34.8,30.7L34.8,30.7L34.8,30.7z M30.5,34.3
		l0.5-3.6h3L30.5,34.3z M30.4,35.5l5.6,3.9l0,0h-6.1L30.4,35.5z M29.8,39.9h5.8l-6.9,8.2L29.8,39.9z"/>
</g>
</svg>
