<?xml version="1.0" encoding="utf-8"?>
<!-- Generator: Adobe Illustrator 19.2.1, SVG Export Plug-In . SVG Version: 6.00 Build 0)  -->
<svg version="1.1" id="图层_1" xmlns="http://www.w3.org/2000/svg" xmlns:xlink="http://www.w3.org/1999/xlink" x="0px" y="0px"
	 viewBox="0 0 70 70" style="enable-background:new 0 0 70 70;" xml:space="preserve">
<style type="text/css">
	.st0{fill:#E0E0E0;}
	.st1{fill:#FFFFFF;}
	.st2{fill:#3697D4;}
</style>
<path class="st0" d="M70,38.6v-7.1c0-0.9-0.6-1.6-1.4-1.8l-0.2,0c-3-0.6-5-2.9-6.2-5.8c0,0,0-0.1,0-0.1c-1.2-2.9-1.5-5.9,0.2-8.5
	l0.1-0.2c0.5-0.7,0.4-1.7-0.2-2.3l-5-5C56.6,7.1,55.7,7,55,7.5l-0.2,0.1c-2.6,1.7-5.6,1.5-8.5,0.2c0,0-0.1,0-0.1,0
	c-2.9-1.2-5.2-3.1-5.8-6.2l0-0.2C40.2,0.6,39.4,0,38.6,0l-7.1,0c-0.9,0-1.6,0.6-1.8,1.4l0,0.2c-0.6,3-2.9,5-5.8,6.2c0,0-0.1,0-0.1,0
	c-2.9,1.2-5.9,1.5-8.5-0.2L15,7.5c-0.7-0.5-1.7-0.4-2.3,0.2l-5,5C7.1,13.4,7,14.3,7.5,15l0.1,0.2c1.7,2.6,1.5,5.6,0.2,8.5
	c0,0,0,0.1,0,0.1c-1.2,2.9-3.1,5.2-6.2,5.8l-0.2,0C0.6,29.8,0,30.6,0,31.4l0,7.1c0,0.9,0.6,1.6,1.4,1.8l0.2,0c3,0.6,5,2.9,6.2,5.8
	c0,0,0,0.1,0,0.1c1.2,2.9,1.5,5.9-0.2,8.5L7.5,55c-0.5,0.7-0.4,1.7,0.2,2.3l5,5c0.6,0.6,1.6,0.7,2.3,0.2l0.2-0.1
	c2.6-1.7,5.6-1.5,8.5-0.2c0,0,0.1,0,0.1,0c2.9,1.2,5.2,3.1,5.8,6.2l0,0.2c0.2,0.8,0.9,1.4,1.8,1.4h7.1c0.9,0,1.6-0.6,1.8-1.4l0-0.2
	c0.6-3,2.9-5,5.8-6.2c0,0,0.1,0,0.1,0c2.9-1.2,5.9-1.5,8.5,0.2l0.2,0.1c0.7,0.5,1.7,0.4,2.3-0.2l5-5c0.6-0.6,0.7-1.6,0.2-2.3
	l-0.1-0.2c-1.7-2.6-1.5-5.6-0.2-8.5c0,0,0-0.1,0-0.1c1.2-2.9,3.1-5.2,6.2-5.8l0.2,0C69.4,40.2,70,39.4,70,38.6z"/>
<circle class="st1" cx="35" cy="35" r="25"/>
<title>节能环保</title>
<g>
	<path class="st2" d="M25,24.3c0.5-0.6,1.1-1.2,1.7-1.8l-3.1-3.1c-0.5-0.5-1.3-0.5-1.8,0c-0.5,0.5-0.5,1.3,0,1.8l0,0L25,24.3z"/>
	<path class="st2" d="M35,19.3L35,19.3c0.4,0,0.8,0,1.2,0.1v-4.2c0-0.7-0.6-1.2-1.2-1.2s-1.2,0.6-1.2,1.2c0,0,0,0,0,0v4.2
		C34.2,19.4,34.6,19.3,35,19.3L35,19.3z"/>
	<path class="st2" d="M45,24.3l3.1-3.1c0.5-0.5,0.5-1.3,0-1.8c-0.5-0.5-1.3-0.5-1.8,0l0,0l-3.1,3.1C43.9,23,44.5,23.6,45,24.3z"/>
	<path class="st2" d="M22,33.1c0-0.6,0-1.2,0.1-1.8h-4.4c-0.7,0-1.2,0.6-1.2,1.2c0,0.7,0.6,1.2,1.2,1.2H22C22,33.5,22,33.3,22,33.1z
		"/>
	<path class="st2" d="M52.3,31.3h-4.4c0.1,0.6,0.1,1.2,0.1,1.8v0.7h4.3c0.7,0,1.2-0.6,1.2-1.2C53.5,31.9,53,31.3,52.3,31.3
		L52.3,31.3z"/>
	<path class="st2" d="M45.6,41.4c-0.5,0.7-1,1.3-1.5,2l2.3,2.3c0.5,0.5,1.2,0.6,1.7,0.1s0.6-1.2,0.1-1.7l-0.1-0.1L45.6,41.4z"/>
	<path class="st2" d="M21.9,43.9c-0.5,0.5-0.5,1.3,0,1.8c0.5,0.5,1.3,0.5,1.8,0l2.2-2.3c-0.6-0.6-1.1-1.3-1.5-1.9L21.9,43.9z"/>
	<path class="st2" d="M46.3,33.1c0-4.7-2.9-8.9-7.2-10.6v-0.1l-0.8-0.2c-0.7-0.2-1.3-0.3-2-0.4h-0.1c-0.3,0-0.7-0.1-1.1-0.1h0
		c-0.4,0-0.7,0-1.1,0.1h-0.1c-0.7,0.1-1.4,0.2-2,0.4L31,22.4v0.1c-4.4,1.7-7.3,5.9-7.3,10.6c0,1.6,0.3,3.1,0.8,4.6
		c0.6,1.5,1.6,2.9,2.8,4.1c0.5,0.5,0.9,0.9,1.1,1.2c0.2,0.2,0.4,0.5,0.5,0.8c0.1,0.5,0.2,1,0.2,1.4v0.1c0,1.5,1.2,2.7,2.7,2.7
		c0,0,0,0,0,0h6.4c1.5,0,2.7-1.2,2.8-2.7l0,0v-0.1c0-0.5,0.1-1,0.2-1.4c0-0.2,0.1-0.4,0.2-0.5c0.3-0.5,0.7-0.9,1.1-1.3
		c1-1,1.8-2.1,2.5-3.2C45.9,37,46.4,35,46.3,33.1z M32.4,38.3c0,0.1-1.4-0.9-2.6-1.9c-1.4-1.2-2.6-2.5-2.6-2.5c0.7,1,1.5,2,2.3,2.9
		c1.1,1.1,2.5,2.1,2.4,2.1c-0.7,0.3-1.5,0.3-2.3,0.2c-1.6-0.3-2.4-2.3-2.5-3.6c-0.1-0.9-0.4-1.7-0.8-2.4c0,0,1.4,1,2.6,1
		c1.9,0,3,1,3.4,2.5C32.5,37.1,32.5,37.7,32.4,38.3L32.4,38.3z M41.6,33.4c0,3.4-1.7,5.3-4.3,5.8c-1,0.2-2.1,0.3-3.1,0.1
		c-0.2,0,1.5-2.4,3.3-4.5c2.1-2.4,4.3-4.6,4.3-4.6c-1.8,1.2-3.4,2.5-4.9,4c-1.9,1.9-3.5,4.4-3.5,4.3c-0.4-1.3-0.5-2.7-0.3-4
		c0.6-2.7,4-4.1,6.1-4.3c1.5-0.2,2.9-0.6,4.1-1.4C43.3,28.8,41.6,31.2,41.6,33.4z"/>
	<path class="st2" d="M38.1,48.9h-6.3c-0.7,0-1.2,0.5-1.2,1.2c0,0.7,0.5,1.2,1.2,1.2h6.3c0.7,0,1.2-0.5,1.2-1.2
		C39.3,49.4,38.8,48.9,38.1,48.9L38.1,48.9z"/>
	<path class="st2" d="M37.4,52h-4.8c-0.6,0.1-1,0.6-0.9,1.2c0.1,0.5,0.4,0.8,0.9,0.9h4.8c0.6-0.1,1-0.6,0.9-1.2
		C38.2,52.4,37.8,52,37.4,52z"/>
	<path class="st2" d="M35.6,54.9h-3.2V55c0,0.7,1,1.2,1.9,1.2h1.5c0.9,0,1.9-0.5,1.9-1.2v-0.1H35.6L35.6,54.9z"/>
</g>
</svg>
