<?xml version="1.0" encoding="utf-8"?>
<!-- Generator: Adobe Illustrator 19.2.1, SVG Export Plug-In . SVG Version: 6.00 Build 0)  -->
<svg version="1.1" id="图层_1" xmlns="http://www.w3.org/2000/svg" xmlns:xlink="http://www.w3.org/1999/xlink" x="0px" y="0px"
	 viewBox="0 0 64 64" style="enable-background:new 0 0 64 64;" xml:space="preserve">
<style type="text/css">
	.st0{fill:#E9665A;}
	.st1{fill:#FFFFFF;}
</style>
<g>
	<path class="st0" d="M32,0C14.3,0,0,14.3,0,32s14.3,32,32,32s32-14.3,32-32S49.7,0,32,0z"/>
</g>
<g>
	<g>
		<path class="st1" d="M32,60.4C16.3,60.4,3.6,47.7,3.6,32S16.3,3.6,32,3.6S60.4,16.3,60.4,32S47.7,60.4,32,60.4z M32,6.6
			C18,6.6,6.6,18,6.6,32S18,57.4,32,57.4S57.4,46,57.4,32S46,6.6,32,6.6z"/>
	</g>
</g>
<g>
	<g>
		<path class="st1" d="M23.1,29c-3.3,0-6-2.7-6-6s2.7-6,6-6s6,2.7,6,6S26.4,29,23.1,29z M23.1,17.9c-2.8,0-5.1,2.3-5.1,5.1
			s2.3,5.1,5.1,5.1s5.1-2.3,5.1-5.1S25.9,17.9,23.1,17.9z"/>
	</g>
	<g>
		<path class="st1" d="M23.1,26.7c-2,0-3.7-1.7-3.7-3.7s1.7-3.7,3.7-3.7s3.7,1.7,3.7,3.7C26.8,25.1,25.1,26.7,23.1,26.7z"/>
	</g>
	<g>
		<path class="st1" d="M45.3,47H18.7c-0.9,0-1.7-0.8-1.7-1.7v-2.8c0-0.9,0.8-1.7,1.7-1.7h26.5c0.9,0,1.7,0.8,1.7,1.7v2.8
			C47,46.2,46.2,47,45.3,47z"/>
	</g>
	<g>
		<rect x="28.2" y="19.9" class="st1" width="8.6" height="6.2"/>
	</g>
	<g>
		<path class="st1" d="M38.7,28.5h-2.9v-11h2.9V28.5z M36.7,27.6h1v-9.1h-1V27.6z"/>
	</g>
	<g>
		<polygon class="st1" points="36.6,41.7 26.1,41.7 20.9,28.5 21.8,28.1 26.8,40.7 35,40.7 26.9,26.9 27.7,26.4 		"/>
	</g>
	<g>
		<g>
			<polygon class="st1" points="46.1,21.5 41.1,20 38.5,21.4 37.9,20.7 40.9,17.9 46.5,20.6 			"/>
		</g>
		<g>
			<polygon class="st1" points="40.9,28.2 37.9,25.3 38.5,24.7 41.1,26.1 46.1,24.6 46.5,25.4 			"/>
		</g>
	</g>
</g>
</svg>
