<?xml version="1.0" encoding="utf-8"?>
<!-- Generator: Adobe Illustrator 15.0.0, SVG Export Plug-In . SVG Version: 6.00 Build 0)  -->
<!DOCTYPE svg PUBLIC "-//W3C//DTD SVG 1.1//EN" "http://www.w3.org/Graphics/SVG/1.1/DTD/svg11.dtd">
<svg version="1.1" id="图层_1" xmlns="http://www.w3.org/2000/svg" xmlns:xlink="http://www.w3.org/1999/xlink" x="0px" y="0px"
	 width="277.8px" height="277.8px" viewBox="144.565 0 277.8 277.8" enable-background="new 144.565 0 277.8 277.8"
	 xml:space="preserve">
<g>
	<path fill="#E7675D" d="M283.465,0c-76.829,0-138.9,62.071-138.9,138.9s62.071,138.9,138.9,138.9s138.9-62.071,138.9-138.9
		S360.294,0,283.465,0z"/>
</g>
<g>
	<g>
		<path fill="#FFFFFF" d="M283.465,262.173c-68.148,0-123.273-55.125-123.273-123.273c0-68.148,55.125-123.273,123.273-123.273
			c68.148,0,123.273,55.125,123.273,123.273C406.738,207.048,351.613,262.173,283.465,262.173z M283.465,28.648
			c-60.769,0-110.252,49.483-110.252,110.252s49.483,110.252,110.252,110.252S393.717,199.668,393.717,138.9
			S344.233,28.648,283.465,28.648z"/>
	</g>
</g>
<g>
	<path fill="#FFFFFF" d="M345.535,151.054l-6.944,6.944h-69.016l-10.417-10.417h-62.071L218.79,178.4l-9.549,4.34l1.736,6.512
		h150.186v-11.721l9.115-26.477H345.535z M246.569,172.323h-11.285v-6.945h11.285V172.323z M265.234,172.323h-11.286v-6.945h11.286
		V172.323z M283.031,172.323h-11.286v-6.945h11.286V172.323z M301.262,172.323h-11.286v-6.945h11.286V172.323z M319.059,172.323
		h-11.286v-6.945h11.286V172.323z M338.156,172.323h-11.285v-6.945h11.285V172.323z"/>
	<rect x="205.768" y="88.549" fill="#FFFFFF" width="24.742" height="16.928"/>
	<rect x="205.768" y="107.213" fill="#FFFFFF" width="24.742" height="16.928"/>
	<path fill="#FFFFFF" d="M205.768,142.806h24.742v-16.928h-24.742l0,0l0,0v8.681l0,0C205.768,138.9,205.768,142.806,205.768,142.806
		z"/>
	<path fill="#FFFFFF" d="M258.289,134.993v-8.681l0,0h-24.741l0,0c0,0,0,4.341,0,8.681c0,4.341,0,8.248,0,8.248h24.741V134.993z"/>
	<rect x="271.745" y="141.504" fill="#FFFFFF" width="18.665" height="13.021"/>
	<rect x="298.657" y="135.861" fill="#FFFFFF" width="8.681" height="18.231"/>
	<path fill="#FFFFFF" d="M243.965,100.269v26.043h3.472v-24.308l46.445,28.214c0,2.17,0,5.643,0,5.643h21.269v-20.835h-6.944l0,0
		l-62.939-26.912l-3.907,9.983L243.965,100.269L243.965,100.269z M293.014,117.197v6.077l-3.906-2.604L293.014,117.197
		L293.014,117.197z M290.844,113.724v1.302l-2.17,2.17l-0.434-4.341L290.844,113.724z M284.768,112.856v5.209l-3.473-2.17v-1.302
		L284.768,112.856L284.768,112.856z M279.992,109.384l3.039,2.17l-5.208,1.302v-3.906L279.992,109.384z M273.916,107.647
		l0.868,3.473h-1.736l-1.736-1.736L273.916,107.647z M269.141,105.043l1.736,0.868l-1.736,1.736h-2.604l-0.434-3.907
		L269.141,105.043z M262.63,104.175l-1.302,0.434v-1.302L262.63,104.175z M256.119,99.4l2.17,0.434l0.868,0.868l0.434,0.868h-2.17
		l-0.434-1.302l-1.736-0.434L256.119,99.4z M253.515,98.532l-0.868,0.868l-2.17-2.17L253.515,98.532z"/>
	<path fill="#FFFFFF" d="M314.283,154.526h20.4l10.852-10.852l0,0h7.813v-17.796h7.38V111.12h-17.363v-3.907l-13.455-6.077h-2.605
		v13.89h3.907v4.341h-4.774v23.874H313.85v11.285H314.283z M352.047,114.592h6.076v3.907h-6.076V114.592z M343.365,114.592h6.077
		v3.907h-6.077V114.592z M334.25,114.592h6.077v3.907h-6.077V114.592z"/>
</g>
</svg>
