<?xml version="1.0" encoding="utf-8"?>
<!-- Generator: Adobe Illustrator 19.2.1, SVG Export Plug-In . SVG Version: 6.00 Build 0)  -->
<svg version="1.1" id="图层_1" xmlns="http://www.w3.org/2000/svg" xmlns:xlink="http://www.w3.org/1999/xlink" x="0px" y="0px"
	 viewBox="0 0 64 64" style="enable-background:new 0 0 64 64;" xml:space="preserve">
<style type="text/css">
	.st0{fill:#0AADED;}
	.st1{fill:#FFFFFF;}
</style>
<g>
	<path class="st0" d="M32,0C14.3,0,0,14.3,0,32s14.3,32,32,32s32-14.3,32-32S49.7,0,32,0z"/>
</g>
<g>
	<g>
		<path class="st1" d="M32,60.4C16.3,60.4,3.6,47.7,3.6,32S16.3,3.6,32,3.6S60.4,16.3,60.4,32S47.7,60.4,32,60.4z M32,6.6
			C18,6.6,6.6,18,6.6,32S18,57.4,32,57.4S57.4,46,57.4,32S46,6.6,32,6.6z"/>
	</g>
</g>
<g>
	<path class="st1" d="M46.3,34.8l-1.6,1.6H28.8L26.4,34H12.1l5,7.1l-2.2,1l0.4,1.5h34.6v-2.7l2.1-6.1H46.3z M23.5,39.7h-2.6v-1.6
		h2.6V39.7z M27.8,39.7h-2.6v-1.6h2.6V39.7z M31.9,39.7h-2.6v-1.6h2.6V39.7z M36.1,39.7h-2.6v-1.6h2.6V39.7z M40.2,39.7h-2.6v-1.6
		h2.6V39.7z M44.6,39.7H42v-1.6h2.6V39.7z"/>
	<rect x="14.1" y="20.4" class="st1" width="5.7" height="3.9"/>
	<rect x="14.1" y="24.7" class="st1" width="5.7" height="3.9"/>
	<path class="st1" d="M14.1,32.9h5.7V29h-5.7c0,0,0,0,0,0h0v2h0C14.1,32,14.1,32.9,14.1,32.9z"/>
	<path class="st1" d="M26.2,31.1v-2v0h-5.7c0,0,0,0,0,0c0,0,0,1,0,2c0,1,0,1.9,0,1.9h5.7V31.1z"/>
	<rect x="29.3" y="32.6" class="st1" width="4.3" height="3"/>
	<rect x="35.5" y="31.3" class="st1" width="2" height="4.2"/>
	<path class="st1" d="M22.9,23.1v6h0.8v-5.6L34.4,30c0,0.5,0,1.3,0,1.3h4.9v-4.8h-1.6l0,0l-14.5-6.2l-0.9,2.3L22.9,23.1L22.9,23.1z
		 M34.2,27v1.4l-0.9-0.6L34.2,27L34.2,27z M33.7,26.2v0.3L33.2,27l-0.1-1L33.7,26.2z M32.3,26l0,1.2l-0.8-0.5v-0.3L32.3,26L32.3,26z
		 M31.2,25.2l0.7,0.5L30.7,26l0-0.9L31.2,25.2z M29.8,24.8l0.2,0.8h-0.4l-0.4-0.4L29.8,24.8z M28.7,24.2l0.4,0.2l-0.4,0.4h-0.6
		L28,23.9L28.7,24.2z M27.2,24l-0.3,0.1l0-0.3L27.2,24z M25.7,22.9l0.5,0.1l0.2,0.2l0.1,0.2H26l-0.1-0.3l-0.4-0.1L25.7,22.9z
		 M25.1,22.7l-0.2,0.2l-0.5-0.5L25.1,22.7z"/>
	<path class="st1" d="M39.1,35.6h4.7l2.5-2.5l0,0h1.8v-4.1h1.7v-3.4h-4v-0.9l-3.1-1.4h-0.6v3.2l0.9,0v1l-1.1,0L41.9,33l-2.9,0V35.6z
		 M47.8,26.4h1.4v0.9h-1.4V26.4z M45.8,26.4h1.4v0.9h-1.4V26.4z M43.7,26.4h1.4v0.9h-1.4V26.4z"/>
</g>
</svg>
