<?xml version="1.0" encoding="utf-8"?>
<!-- Generator: Adobe Illustrator 19.0.0, SVG Export Plug-In . SVG Version: 6.00 Build 0)  -->
<svg version="1.1" id="图层_1" xmlns="http://www.w3.org/2000/svg" xmlns:xlink="http://www.w3.org/1999/xlink" x="0px" y="0px"
	 viewBox="0 0 24 24" style="enable-background:new 0 0 24 24;" xml:space="preserve">
<style type="text/css">
	.st0{fill:#FFFFFF;}
</style>
<g id="XMLID_9_">
	<polygon id="XMLID_10_" class="st0" points="15.6,7 15.6,7 15.7,7 	"/>
	<path id="XMLID_15_" class="st0" d="M24,15.7h-7.1v-2c0-0.3-0.2-0.5-0.5-0.5H7.6c-0.3,0-0.5,0.2-0.5,0.5v2.1H0v2h7.1v2.1
		c0,0.3,0.2,0.5,0.5,0.5h8.9c0.3,0,0.5-0.2,0.5-0.5v-2.2H24V15.7z"/>
	<polygon id="XMLID_16_" class="st0" points="12.2,12.3 13.5,9.2 10.8,9.2 	"/>
	<polygon id="XMLID_17_" class="st0" points="9.8,12.5 9.4,9.2 7.1,10.5 	"/>
	<polygon id="XMLID_18_" class="st0" points="14.6,9.2 14.2,12.5 16.9,10.5 	"/>
	<polygon id="XMLID_19_" class="st0" points="13.8,3.3 10,3.3 11.9,7.8 	"/>
	<polygon id="XMLID_20_" class="st0" points="7.5,3.3 4.2,5.2 8,8.1 	"/>
	<polygon id="XMLID_21_" class="st0" points="16.5,3.3 16,8.1 19.8,5.2 	"/>
</g>
</svg>
