<svg id="图层_1" data-name="图层 1" xmlns="http://www.w3.org/2000/svg" viewBox="0 0 13.53 24"><defs><style>.cls-1{fill:#fff;}</style></defs><title>空温</title><path class="cls-1" d="M13.21,14.3V6.1a1.23,1.23,0,0,0-1.36-1,1.23,1.23,0,0,0-1.36,1V14.3a3.38,3.38,0,1,0,2.73,0h0Zm0,0" transform="translate(-5.23)"/><path class="cls-1" d="M16.39,12.57V3.65A3.37,3.37,0,0,0,15,1a5.18,5.18,0,0,0-3.12-1A5.18,5.18,0,0,0,8.73,1,3.37,3.37,0,0,0,7.31,3.65v8.92a6.62,6.62,0,1,0,9.08,0h0Zm-4.54,9.65a4.84,4.84,0,0,1-3.08-8.56l0.32-.27V3.65c0-1,1.26-1.87,2.76-1.87s2.76,0.86,2.76,1.87v9.74l0.32,0.27a4.84,4.84,0,0,1-3.08,8.56h0Zm0,0" transform="translate(-5.23)"/><path class="cls-1" d="M17.26,4.6h1.07a0.44,0.44,0,1,0,0-.88H17.26a0.44,0.44,0,1,0,0,.88h0Zm0,0" transform="translate(-5.23)"/><path class="cls-1" d="M18.33,5.07H17.26a0.44,0.44,0,1,0,0,.88h1.07a0.44,0.44,0,1,0,0-.88h0Zm0,0" transform="translate(-5.23)"/><path class="cls-1" d="M18.33,6.41H17.26a0.44,0.44,0,0,0,0,.88h1.07a0.44,0.44,0,0,0,0-.88h0Zm0,0" transform="translate(-5.23)"/><path class="cls-1" d="M18.33,7.76H17.26a0.44,0.44,0,0,0,0,.88h1.07a0.44,0.44,0,0,0,0-.88h0Zm0,0" transform="translate(-5.23)"/><path class="cls-1" d="M18.33,9.11H17.26a0.44,0.44,0,1,0,0,.88h1.07a0.44,0.44,0,1,0,0-.88h0Zm0,0" transform="translate(-5.23)"/><path class="cls-1" d="M18.33,10.45H17.26a0.44,0.44,0,1,0,0,.88h1.07a0.44,0.44,0,1,0,0-.88h0Zm0,0" transform="translate(-5.23)"/></svg>