<svg id="图层_1" data-name="图层 1" xmlns="http://www.w3.org/2000/svg" viewBox="0 0 15.31 24"><defs><style>.cls-1{fill:#fff;}</style></defs><title>空湿</title><path class="cls-1" d="M19.62,15.57h0a2.84,2.84,0,0,0-.05-0.34c0-.08,0-0.15,0-0.23v0a8.06,8.06,0,0,0-.44-1.21L12.75,0.73A0.92,0.92,0,0,0,11,.73L4.74,14a6,6,0,0,0-.32,1.27,7.66,7.66,0,1,0,15.24,1,7.63,7.63,0,0,0,0-.78h0ZM12,15.74a5.52,5.52,0,0,0-6-1.32L12,1.94l5.77,12.23a5.7,5.7,0,0,1,.54,2.15C16.8,17.45,14.52,18,12,15.74h0Zm0,0" transform="translate(-4.34 0)"/></svg>