<?xml version="1.0" encoding="utf-8"?>
<!-- Generator: Adobe Illustrator 19.0.0, SVG Export Plug-In . SVG Version: 6.00 Build 0)  -->
<svg version="1.1" id="图层_1" xmlns="http://www.w3.org/2000/svg" xmlns:xlink="http://www.w3.org/1999/xlink" x="0px" y="0px"
	 viewBox="0 0 24 24" style="enable-background:new 0 0 24 24;" xml:space="preserve">
<style type="text/css">
	.st0{fill:#FFFFFF;}
</style>
<g id="XMLID_1_">
	<path id="XMLID_10_" class="st0" d="M18.9,8.3c2.3-0.1,2.6-0.3,4,1c2.2-1,0.9-4.7-1.6-4c0.1-1.7-3.2-4.8-5.6-0.9
		C15.8,4.5,18.8,5.6,18.9,8.3z"/>
	<polygon id="XMLID_11_" class="st0" points="15.7,3.4 15.7,3.4 15.7,3.4 	"/>
	<path id="XMLID_12_" class="st0" d="M13.7,12.7c-0.6,0-1.1,0.2-1.4,0.6c-0.3,0.4-0.5,1-0.5,1.7h0c0,0.7,0.2,1.2,0.5,1.6
		c0.4,0.4,0.8,0.6,1.4,0.6c0.6,0,1.1-0.2,1.4-0.6c0.3-0.4,0.5-1,0.5-1.7c0-0.7-0.2-1.3-0.5-1.7C14.8,12.9,14.3,12.7,13.7,12.7z"/>
	<path id="XMLID_15_" class="st0" d="M20.1,9.8l-2.6-0.1c-1-7.2-10.9-8.4-13,1.2l-1,0.1c-5.4,2.6-3.3,8.5-0.8,9.3v0
		c5.9,0,11.8,0,17.6,0C24.4,19.2,25.3,12.1,20.1,9.8z M9,13.2c-0.4-0.3-0.9-0.5-1.4-0.5c-0.6,0-1.1,0.2-1.5,0.6
		c-0.4,0.4-0.6,1-0.6,1.7s0.2,1.2,0.5,1.6c0.4,0.4,0.8,0.6,1.5,0.6c0.5,0,1-0.2,1.5-0.5v1v0c-0.5,0.3-1,0.4-1.7,0.4
		c-0.9,0-1.6-0.3-2.1-0.8c-0.5-0.6-0.8-1.3-0.8-2.2c0-1,0.3-1.8,0.9-2.4c0.6-0.6,1.3-0.9,2.3-0.9c0.6,0,1,0.1,1.4,0.3V13.2z
		 M15.8,17.3c-0.6,0.6-1.3,0.9-2.2,0.9c-0.9,0-1.6-0.3-2.2-0.8c-0.5-0.6-0.8-1.3-0.8-2.2v0c0-1,0.3-1.8,0.8-2.4
		c0.6-0.6,1.3-0.9,2.3-0.9c0.9,0,1.6,0.3,2.1,0.8c0.5,0.6,0.8,1.3,0.8,2.3C16.7,15.9,16.4,16.7,15.8,17.3z M20.2,17.6V18h-2.1v-0.4
		l1-1c0.3-0.3,0.5-0.5,0.6-0.7c0.1-0.2,0.1-0.3,0.1-0.5c0-0.2-0.1-0.4-0.2-0.5c-0.1-0.1-0.3-0.2-0.5-0.2c-0.3,0-0.6,0.1-0.9,0.4
		v-0.5c0.3-0.2,0.6-0.3,1-0.3c0.3,0,0.6,0.1,0.8,0.3c0.2,0.2,0.3,0.4,0.3,0.7c0,0.2-0.1,0.4-0.2,0.6c-0.1,0.2-0.3,0.5-0.7,0.8
		l-0.8,0.8v0H20.2z"/>
</g>
</svg>
