<svg id="图层_1" data-name="图层 1" xmlns="http://www.w3.org/2000/svg" viewBox="0 0 20.25 20.86"><defs><style>.cls-1{fill:#fff;}</style></defs><title>土壤温度</title><path class="cls-1" d="M8.9,10.86V5.65A0.78,0.78,0,0,0,8,5a0.78,0.78,0,0,0-.87.66v5.21a2.15,2.15,0,1,0,1.74,0h0Zm0,0" transform="translate(-1.88 -1.77)"/><path class="cls-1" d="M10.92,9.76V4.09A2.15,2.15,0,0,0,10,2.4a3.29,3.29,0,0,0-2-.63A3.29,3.29,0,0,0,6,2.4a2.15,2.15,0,0,0-.9,1.69V9.76a4.21,4.21,0,1,0,5.77,0h0ZM8,15.9a3.08,3.08,0,0,1-2-5.45l0.2-.17V4.09A1.58,1.58,0,0,1,8,2.9,1.58,1.58,0,0,1,9.79,4.09v6.19L10,10.45A3.08,3.08,0,0,1,8,15.9H8Zm0,0" transform="translate(-1.88 -1.77)"/><path class="cls-1" d="M11.47,4.69h0.68a0.28,0.28,0,1,0,0-.56H11.47a0.28,0.28,0,1,0,0,.56h0Zm0,0" transform="translate(-1.88 -1.77)"/><path class="cls-1" d="M12.15,5H11.47a0.28,0.28,0,0,0,0,.56h0.68a0.28,0.28,0,0,0,0-.56h0Zm0,0" transform="translate(-1.88 -1.77)"/><path class="cls-1" d="M12.15,5.85H11.47a0.28,0.28,0,0,0,0,.56h0.68a0.28,0.28,0,0,0,0-.56h0Zm0,0" transform="translate(-1.88 -1.77)"/><path class="cls-1" d="M12.15,6.7H11.47a0.28,0.28,0,0,0,0,.56h0.68a0.28,0.28,0,0,0,0-.56h0Zm0,0" transform="translate(-1.88 -1.77)"/><path class="cls-1" d="M12.15,7.56H11.47a0.28,0.28,0,0,0,0,.56h0.68a0.28,0.28,0,0,0,0-.56h0Zm0,0" transform="translate(-1.88 -1.77)"/><path class="cls-1" d="M12.15,8.41H11.47a0.28,0.28,0,1,0,0,.56h0.68a0.28,0.28,0,1,0,0-.56h0Zm0,0" transform="translate(-1.88 -1.77)"/><path class="cls-1" d="M13.69,13.31a5.66,5.66,0,0,1-9.07,4L1.88,19.29A19.08,19.08,0,0,0,12,22.63a19.08,19.08,0,0,0,10.13-3.33Z" transform="translate(-1.88 -1.77)"/></svg>