<?xml version="1.0" encoding="utf-8"?>
<!-- Generator: Adobe Illustrator 19.0.0, SVG Export Plug-In . SVG Version: 6.00 Build 0)  -->
<svg version="1.1" id="图层_1" xmlns="http://www.w3.org/2000/svg" xmlns:xlink="http://www.w3.org/1999/xlink" x="0px" y="0px"
	 viewBox="0 0 24 24" style="enable-background:new 0 0 24 24;" xml:space="preserve">
<style type="text/css">
	.st0{fill:#FFFFFF;}
</style>
<path id="XMLID_7_" class="st0" d="M22.3,5.4h-4.9c0,0-0.1-0.1-0.1-1.2s-0.9-2-2.1-2H8.7c-1.1,0-2.1,0.9-2.1,2
	c0,1.1,0.1,1.2,0.1,1.2h-5C0.7,5.4,0,6.2,0,7.1v13.1c0,0.9,0.7,1.6,1.7,1.6h20.7c0.9,0,1.7-0.7,1.7-1.6V7.1
	C24,6.2,23.3,5.4,22.3,5.4z M12,18.5c-2.7,0-5-2.2-5-4.9c0-2.7,2.2-4.9,5-4.9c2.7,0,5,2.2,5,4.9C17,16.3,14.8,18.5,12,18.5z"/>
</svg>
