<?xml version="1.0" encoding="utf-8"?>
<!-- Generator: Adobe Illustrator 19.0.0, SVG Export Plug-In . SVG Version: 6.00 Build 0)  -->
<svg version="1.1" id="图层_1" xmlns="http://www.w3.org/2000/svg" xmlns:xlink="http://www.w3.org/1999/xlink" x="0px" y="0px"
	 viewBox="0 0 24 24" style="enable-background:new 0 0 24 24;" xml:space="preserve">
<style type="text/css">
	.st0{fill:#272635;}
	.st1{fill:#FFFFFF;}
</style>
<path class="st0" d="M617.6,398.5c-1.7-12.9-12.7-22.9-25.9-22.9c-13.2,0-24.1,9.9-25.9,22.9h-29.7c-1.9-8.5-9.5-15.2-18.4-15.2
	h-7.3c-9,0-16.5,6.5-18.2,15.2h-38c-1.7-12.9-12.7-22.9-25.9-22.9c-14.4,0-26.1,11.9-26.1,26.5c0,1.5,0.1,3,0.4,4.4v29.7H492V470
	h44.6v-33.7h81.3v-37.7L617.6,398.5L617.6,398.5z"/>
<path class="st0" d="M677,511.3c-23.9,0-44.9,12.1-56.6,30.1h-42.2c-5-8.7-11.8-16.4-19.9-22.5v-30.1h-88.9v30.1
	c-8,6.1-14.8,13.7-19.8,22.5h-49.3c-11.2-18.1-31-30.1-53.6-30.1c1.5,0.7-0.4,129.1,0,127.7c15.4,0,29.5-5.6,40.5-14.9h67.5
	c13.6,18.1,35,29.7,58.9,29.7c24.2,0,45.7-11.6,59.3-29.7h63c11.3,8.4,25.5,13.4,40.9,13.4C677,636.4,675.6,512,677,511.3z"/>
<path class="st0" d="M617.6,398.5c-1.7-12.9-12.7-22.9-25.9-22.9c-13.2,0-24.1,9.9-25.9,22.9h-29.7c-1.9-8.5-9.5-15.2-18.4-15.2
	h-7.3c-9,0-16.5,6.5-18.2,15.2h-38c-1.7-12.9-12.7-22.9-25.9-22.9c-14.4,0-26.1,11.9-26.1,26.5c0,1.5,0.1,3,0.4,4.4v29.7H492V470
	h44.6v-33.7h81.3v-37.7L617.6,398.5L617.6,398.5z"/>
<path class="st0" d="M677,511.3c-23.9,0-44.9,12.1-56.6,30.1h-42.2c-5-8.7-11.8-16.4-19.9-22.5v-30.1h-88.9v30.1
	c-8,6.1-14.8,13.7-19.8,22.5h-49.3c-11.2-18.1-31-30.1-53.6-30.1c1.5,0.7-0.4,129.1,0,127.7c15.4,0,29.5-5.6,40.5-14.9h67.5
	c13.6,18.1,35,29.7,58.9,29.7c24.2,0,45.7-11.6,59.3-29.7h63c11.3,8.4,25.5,13.4,40.9,13.4C677,636.4,675.6,512,677,511.3z"/>
<g id="XMLID_7_">
	<circle id="XMLID_16_" class="st1" cx="12" cy="12" r="4.4"/>
	<path id="XMLID_28_" class="st1" d="M11.6,6h0.7c0.2,0,0.4-0.2,0.4-0.4V0.4c0-0.2-0.2-0.4-0.4-0.4h-0.7c-0.2,0-0.4,0.2-0.4,0.4v5.3
		C11.3,5.9,11.4,6,11.6,6z"/>
	<path id="XMLID_29_" class="st1" d="M12.4,18h-0.7c-0.2,0-0.4,0.2-0.4,0.4v5.3c0,0.2,0.2,0.4,0.4,0.4h0.7c0.2,0,0.4-0.2,0.4-0.4
		v-5.3C12.7,18.2,12.6,18,12.4,18z"/>
	<path id="XMLID_30_" class="st1" d="M8.2,6.9C8.3,7,8.5,7.1,8.7,7l0.6-0.4c0.2-0.1,0.2-0.3,0.1-0.5L6.8,1.6
		C6.7,1.4,6.5,1.3,6.3,1.4L5.7,1.8C5.5,1.9,5.4,2.1,5.5,2.3L8.2,6.9z"/>
	<path id="XMLID_31_" class="st1" d="M15.8,17.2c-0.1-0.2-0.3-0.2-0.5-0.1l-0.6,0.4c-0.2,0.1-0.2,0.3-0.1,0.5l2.6,4.6
		c0.1,0.2,0.3,0.2,0.5,0.1l0.6-0.4c0.2-0.1,0.2-0.3,0.1-0.5L15.8,17.2z"/>
	<path id="XMLID_32_" class="st1" d="M1.6,6.8l4.6,2.6c0.2,0.1,0.4,0,0.5-0.1L7,8.7c0.1-0.2,0-0.4-0.1-0.5L2.3,5.6
		c-0.2-0.1-0.4,0-0.5,0.1L1.4,6.3C1.3,6.5,1.4,6.7,1.6,6.8z"/>
	<path id="XMLID_33_" class="st1" d="M22.4,17.2l-4.6-2.6c-0.2-0.1-0.4,0-0.5,0.1L17,15.3c-0.1,0.2,0,0.4,0.1,0.5l4.6,2.6
		c0.2,0.1,0.4,0,0.5-0.1l0.4-0.6C22.7,17.5,22.6,17.3,22.4,17.2z"/>
	<path id="XMLID_34_" class="st1" d="M6,12.4v-0.7c0-0.2-0.2-0.4-0.4-0.4H0.4c-0.2,0-0.4,0.2-0.4,0.4v0.7c0,0.2,0.2,0.4,0.4,0.4h5.3
		C5.8,12.7,6,12.6,6,12.4z"/>
	<path id="XMLID_35_" class="st1" d="M23.6,11.3h-5.3c-0.2,0-0.4,0.2-0.4,0.4v0.7c0,0.2,0.2,0.4,0.4,0.4h5.3c0.2,0,0.4-0.2,0.4-0.4
		v-0.7C24,11.4,23.8,11.3,23.6,11.3z"/>
	<path id="XMLID_36_" class="st1" d="M7,15.3l-0.4-0.6c-0.1-0.2-0.3-0.2-0.5-0.1l-4.6,2.6c-0.2,0.1-0.2,0.3-0.1,0.5l0.4,0.6
		c0.1,0.2,0.3,0.2,0.5,0.1l4.6-2.6C7,15.7,7.1,15.5,7,15.3z"/>
	<path id="XMLID_37_" class="st1" d="M17,8.7l0.4,0.6c0.1,0.2,0.3,0.2,0.5,0.1l4.6-2.6c0.2-0.1,0.2-0.3,0.1-0.5l-0.4-0.6
		c-0.1-0.2-0.3-0.2-0.5-0.1l-4.6,2.6C17,8.3,16.9,8.5,17,8.7z"/>
	<path id="XMLID_38_" class="st1" d="M9.3,17.4L8.7,17c-0.2-0.1-0.4,0-0.5,0.1l-2.6,4.6c-0.1,0.2,0,0.4,0.1,0.5l0.6,0.4
		c0.2,0.1,0.4,0,0.5-0.1l2.6-4.6C9.6,17.7,9.5,17.5,9.3,17.4z"/>
	<path id="XMLID_39_" class="st1" d="M14.7,6.6L15.3,7c0.2,0.1,0.4,0,0.5-0.1l2.6-4.6c0.1-0.2,0-0.4-0.1-0.5l-0.6-0.4
		c-0.2-0.1-0.4,0-0.5,0.1l-2.6,4.6C14.4,6.3,14.5,6.5,14.7,6.6z"/>
</g>
<path id="XMLID_11_" class="st0" d="M617.6,398.5c-1.7-12.9-12.7-22.9-25.9-22.9c-13.2,0-24.1,9.9-25.9,22.9h-29.7
	c-1.9-8.5-9.5-15.2-18.4-15.2h-7.3c-9,0-16.5,6.5-18.2,15.2h-38c-1.7-12.9-12.7-22.9-25.9-22.9c-14.4,0-26.1,11.9-26.1,26.5
	c0,1.5,0.1,3,0.4,4.4v29.7H492V470h44.6v-33.7h81.3v-37.7L617.6,398.5L617.6,398.5z"/>
<path id="XMLID_10_" class="st0" d="M677,511.3c-23.9,0-44.9,12.1-56.6,30.1h-42.2c-5-8.7-11.8-16.4-19.9-22.5v-30.1h-88.9v30.1
	c-8,6.1-14.8,13.7-19.8,22.5h-49.3c-11.2-18.1-31-30.1-53.6-30.1c1.5,0.7-0.4,129.1,0,127.7c15.4,0,29.5-5.6,40.5-14.9h67.5
	c13.6,18.1,35,29.7,58.9,29.7c24.2,0,45.7-11.6,59.3-29.7h63c11.3,8.4,25.5,13.4,40.9,13.4C677,636.4,675.6,512,677,511.3z"/>
<path id="XMLID_13_" class="st0" d="M617.6,398.5c-1.7-12.9-12.7-22.9-25.9-22.9c-13.2,0-24.1,9.9-25.9,22.9h-29.7
	c-1.9-8.5-9.5-15.2-18.4-15.2h-7.3c-9,0-16.5,6.5-18.2,15.2h-38c-1.7-12.9-12.7-22.9-25.9-22.9c-14.4,0-26.1,11.9-26.1,26.5
	c0,1.5,0.1,3,0.4,4.4v29.7H492V470h44.6v-33.7h81.3v-37.7L617.6,398.5L617.6,398.5z"/>
<path id="XMLID_12_" class="st0" d="M677,511.3c-23.9,0-44.9,12.1-56.6,30.1h-42.2c-5-8.7-11.8-16.4-19.9-22.5v-30.1h-88.9v30.1
	c-8,6.1-14.8,13.7-19.8,22.5h-49.3c-11.2-18.1-31-30.1-53.6-30.1c1.5,0.7-0.4,129.1,0,127.7c15.4,0,29.5-5.6,40.5-14.9h67.5
	c13.6,18.1,35,29.7,58.9,29.7c24.2,0,45.7-11.6,59.3-29.7h63c11.3,8.4,25.5,13.4,40.9,13.4C677,636.4,675.6,512,677,511.3z"/>
<path id="XMLID_15_" class="st0" d="M617.6,398.5c-1.7-12.9-12.7-22.9-25.9-22.9c-13.2,0-24.1,9.9-25.9,22.9h-29.7
	c-1.9-8.5-9.5-15.2-18.4-15.2h-7.3c-9,0-16.5,6.5-18.2,15.2h-38c-1.7-12.9-12.7-22.9-25.9-22.9c-14.4,0-26.1,11.9-26.1,26.5
	c0,1.5,0.1,3,0.4,4.4v29.7H492V470h44.6v-33.7h81.3v-37.7L617.6,398.5L617.6,398.5z"/>
<path id="XMLID_14_" class="st0" d="M677,511.3c-23.9,0-44.9,12.1-56.6,30.1h-42.2c-5-8.7-11.8-16.4-19.9-22.5v-30.1h-88.9v30.1
	c-8,6.1-14.8,13.7-19.8,22.5h-49.3c-11.2-18.1-31-30.1-53.6-30.1c1.5,0.7-0.4,129.1,0,127.7c15.4,0,29.5-5.6,40.5-14.9h67.5
	c13.6,18.1,35,29.7,58.9,29.7c24.2,0,45.7-11.6,59.3-29.7h63c11.3,8.4,25.5,13.4,40.9,13.4C677,636.4,675.6,512,677,511.3z"/>
<path id="XMLID_18_" class="st0" d="M545.4,361.2c-8-10.3-22.4-13.5-33.8-6.9c-11.4,6.6-15.9,20.7-11,32.7L474.8,402
	c-5.9-6.4-15.8-8.5-23.5-4l-6.3,3.6c-7.8,4.5-11,13.9-8.1,22.3l-32.9,19c-8-10.3-22.4-13.5-33.8-6.9c-12.5,7.2-16.7,23.3-9.4,36
	c0.7,1.3,1.6,2.5,2.5,3.6l14.9,25.7l77.3-44.6l16.9,29.2l38.6-22.3l-16.9-29.2l70.4-40.6l-18.9-32.7L545.4,361.2L545.4,361.2z"/>
<path id="XMLID_17_" class="st0" d="M653.2,429.2c-20.7,12-32.8,32.9-33.9,54.4l-36.5,21.1c-8.7-5.1-18.4-8.3-28.4-9.6l-15.1-26.1
	l-77,44.4l15.1,26.1c-3.9,9.3-5.9,19.3-5.9,29.4l-42.7,24.6c-18.7-10.1-41.9-10.6-61.4,0.7c1.6-0.1,64.3,112,63.8,110.6
	c13.3-7.7,22.7-19.6,27.6-33.1l58.5-33.8c20.8,8.9,45.1,8.3,65.9-3.7c21-12.1,33.8-32.9,36.5-55.4l54.6-31.5
	c14,1.6,28.8-1.1,42.1-8.8C715.7,537.6,652.3,430.6,653.2,429.2z"/>
<path class="st0" d="M617.6,398.5c-1.7-12.9-12.7-22.9-25.9-22.9c-13.2,0-24.1,9.9-25.9,22.9h-29.7c-1.9-8.5-9.5-15.2-18.4-15.2
	h-7.3c-9,0-16.5,6.5-18.2,15.2h-38c-1.7-12.9-12.7-22.9-25.9-22.9c-14.4,0-26.1,11.9-26.1,26.5c0,1.5,0.1,3,0.4,4.4v29.7H492V470
	h44.6v-33.7h81.3v-37.7L617.6,398.5L617.6,398.5z"/>
<path class="st0" d="M677,511.3c-23.9,0-44.9,12.1-56.6,30.1h-42.2c-5-8.7-11.8-16.4-19.9-22.5v-30.1h-88.9v30.1
	c-8,6.1-14.8,13.7-19.8,22.5h-49.3c-11.2-18.1-31-30.1-53.6-30.1c1.5,0.7-0.4,129.1,0,127.7c15.4,0,29.5-5.6,40.5-14.9h67.5
	c13.6,18.1,35,29.7,58.9,29.7c24.2,0,45.7-11.6,59.3-29.7h63c11.3,8.4,25.5,13.4,40.9,13.4C677,636.4,675.6,512,677,511.3z"/>
<path class="st0" d="M617.6,398.5c-1.7-12.9-12.7-22.9-25.9-22.9c-13.2,0-24.1,9.9-25.9,22.9h-29.7c-1.9-8.5-9.5-15.2-18.4-15.2
	h-7.3c-9,0-16.5,6.5-18.2,15.2h-38c-1.7-12.9-12.7-22.9-25.9-22.9c-14.4,0-26.1,11.9-26.1,26.5c0,1.5,0.1,3,0.4,4.4v29.7H492V470
	h44.6v-33.7h81.3v-37.7L617.6,398.5L617.6,398.5z"/>
<path class="st0" d="M677,511.3c-23.9,0-44.9,12.1-56.6,30.1h-42.2c-5-8.7-11.8-16.4-19.9-22.5v-30.1h-88.9v30.1
	c-8,6.1-14.8,13.7-19.8,22.5h-49.3c-11.2-18.1-31-30.1-53.6-30.1c1.5,0.7-0.4,129.1,0,127.7c15.4,0,29.5-5.6,40.5-14.9h67.5
	c13.6,18.1,35,29.7,58.9,29.7c24.2,0,45.7-11.6,59.3-29.7h63c11.3,8.4,25.5,13.4,40.9,13.4C677,636.4,675.6,512,677,511.3z"/>
<path class="st0" d="M617.6,398.5c-1.7-12.9-12.7-22.9-25.9-22.9c-13.2,0-24.1,9.9-25.9,22.9h-29.7c-1.9-8.5-9.5-15.2-18.4-15.2
	h-7.3c-9,0-16.5,6.5-18.2,15.2h-38c-1.7-12.9-12.7-22.9-25.9-22.9c-14.4,0-26.1,11.9-26.1,26.5c0,1.5,0.1,3,0.4,4.4v29.7H492V470
	h44.6v-33.7h81.3v-37.7L617.6,398.5L617.6,398.5z"/>
<path class="st0" d="M677,511.3c-23.9,0-44.9,12.1-56.6,30.1h-42.2c-5-8.7-11.8-16.4-19.9-22.5v-30.1h-88.9v30.1
	c-8,6.1-14.8,13.7-19.8,22.5h-49.3c-11.2-18.1-31-30.1-53.6-30.1c1.5,0.7-0.4,129.1,0,127.7c15.4,0,29.5-5.6,40.5-14.9h67.5
	c13.6,18.1,35,29.7,58.9,29.7c24.2,0,45.7-11.6,59.3-29.7h63c11.3,8.4,25.5,13.4,40.9,13.4C677,636.4,675.6,512,677,511.3z"/>
</svg>
