<svg id="图层_1" data-name="图层 1" xmlns="http://www.w3.org/2000/svg" viewBox="0 0 20.87 20.71"><defs><style>.cls-1{fill:#fff;}</style></defs><title>土壤湿度</title><path class="cls-1" d="M11.22,11.48h0a1.79,1.79,0,0,0,0-.22l0-.14h0a5.1,5.1,0,0,0-.27-0.76l-4-8.26a0.58,0.58,0,0,0-1.13,0l-3.94,8.4a3.77,3.77,0,0,0-.2.8,4.84,4.84,0,1,0,9.63.66,4.82,4.82,0,0,0,0-.49h0Zm-4.81.11a3.49,3.49,0,0,0-3.8-.83L6.38,2.87,10,10.6A3.6,3.6,0,0,1,10.37,12a2.88,2.88,0,0,1-4-.37h0Zm0,0" transform="translate(-1.56 -1.64)"/><path class="cls-1" d="M13.22,12.49a6.82,6.82,0,0,1-9.77,5.64L2.19,19a19.08,19.08,0,0,0,10.12,3.33A19.08,19.08,0,0,0,22.44,19Z" transform="translate(-1.56 -1.64)"/></svg>