<?xml version="1.0" encoding="utf-8"?>
<!-- Generator: Adobe Illustrator 19.2.1, SVG Export Plug-In . SVG Version: 6.00 Build 0)  -->
<svg version="1.1" id="图层_1" xmlns="http://www.w3.org/2000/svg" xmlns:xlink="http://www.w3.org/1999/xlink" x="0px" y="0px"
	 viewBox="0 0 800 333.3" style="enable-background:new 0 0 800 333.3;" xml:space="preserve">
<style type="text/css">
	.st0{fill:#FFFFFF;}
</style>
<g>
	<path class="st0" d="M332.3,109.5c-1.6-5-3.1-11.8-11-13c-43.9-6.7-26.3-0.8-47.6-25c-9.7-11-8.4-4.3-5.7-41.7
		c0.3-4.2-1.7-8.2-5.2-10.5c-11.7-7.6-24.6-14-38.7-18.7c-4-1.3-8.4-0.4-11.5,2.4C182.4,31,193.6,24.4,170,24.4c10,0-10,0,0,0
		c-23.5,0-12.5,6.5-42.7-21.4c-3.1-2.8-7.5-3.8-11.5-2.4C102.6,5,89.5,11.2,77.1,19.3c-3.5,2.3-5.5,6.3-5.2,10.5l2,28
		c0.2,3.3-0.9,6.5-3.3,8.9C53.4,84.5,55,90.9,46.4,92.2c-30.2,4.6-29,4.2-31.4,5.5c-2.6,1.4-4.4,3.6-5.4,6.2
		c-4.9,13.5-8.1,27.6-9.5,41.9c-0.4,4.2,1.5,8.3,4.9,10.6C44.9,183.8,26,167.3,38.8,206c1.1,3.3,0.6,6.8-0.9,9.4
		c-6.5,11.3-3.4,5.9-14,24.3c-2.1,3.6-2,8.1,0.2,11.7c4.7,7.7,10,15,15.8,21.8c11.3,13.3,14.4,15.2,19.4,15.1
		c2.1-0.1,0.4,0.3,29.8-8.7c3.2-1,6.6-0.5,9.4,1.2c34.8,21.1,22.9-1,40.7,44c1.5,3.9,5.1,6.6,9.3,7.2c14.3,1.8,28.7,1.8,43,0
		c4.2-0.5,7.7-3.3,9.3-7.2c17.8-45,5.9-22.9,40.7-44c2.8-1.7,6.2-2.2,9.4-1.2l26.8,8.2c4,1.2,8.4,0.1,11.4-2.8
		c10.3-10,19.3-21.3,26.8-33.6c2.2-3.6,2.3-8.1,0.2-11.7l-10.1-17.6c-1.6,3.1-3.5,6.1-6,9c-42.1,48.8-143.1,64.3-201.5,15.2
		c0,0,0,0,0,0c-59.5-50-46.8-149.4-4.2-149.4c0-44,63.2-68.1,111.5-47.7c20.6,8.7,37,25.2,37,47.7c19.3,0,31.6,18.4,35,37.4l0,0
		c6.8,37.4-22.2,82.2-78.4,82.2c-24.6,0-42.8-8.9-54.6-20.6c0,0,0,0,0,0c-7.7-7.6-13.9-17.7-15.5-28.2c-4.3-26.8,12.4-59,47.8-57.5
		c20,0.9,32.6,27.9,8.8,42.9c-13.7,8.7-24.1,4.3-27.6,12.6c-2.3,5.3-0.1,11.7,10.5,12.2c0,0,0,0,0,0c17.1,0.6,42.8-6.9,52.6-27.6
		c0,0,0,0,0,0c8.4-17.8,3.2-40.8-13.2-53.9c-39.2-31.4-118.7,6-106.2,79.4c7.9,46.4,52.5,73.3,100.9,72.6
		c31.4-0.5,64.9-7.5,96.6-41.9c4.1-4.5,6.9-19.6,7.7-25.9c0.4-3.3,2.2-6.2,4.9-8.1l23.1-15.8c3.5-2.4,5.3-6.5,4.9-10.6
		C338.7,133.3,336.1,121.1,332.3,109.5z"/>
	<rect x="723.6" y="143.9" class="st0" width="22.6" height="21.6"/>
	<rect x="644.4" y="143.9" class="st0" width="22.6" height="21.6"/>
	<path class="st0" d="M746.2,95.6L746.2,95.6V78.2l0,0h-22.6v21.5c27.1,0-4.4,0,22.6,0V95.6z"/>
	<path class="st0" d="M750.6,111.9h-38.5v-9h0V75.8c-3.1,0-27.4,0-33.6,0l0,0v36.1H640v19.7c3.9,0,34.8,0,38.5,0v36.1h33.6v-36.1
		h38.5V111.9z"/>
	<path class="st0" d="M632.8,170.3c0-10.1,0-94.7,0-104.4h124.9c0,11.9,0,91.5,0,104.4h33.6l0-96.2l-27.9-27.9h-94.1l9.8-10.8h-39
		l-9.8,10.8h-31v124.1C611.8,170.3,620.2,170.3,632.8,170.3z"/>
	<path class="st0" d="M800,180.1h-87.9v-4.9h-33.6v4.9c-10.7,0-78.2,0-88,0v19.7c9.7,0,58.5,0,67.6,0l-31.4,17.8h-53.8v-75H417.5h0
		h-40.6l0,0c0,6.9,0,57.6,0,66.8l27.9,27.9h116l0.1-57.3h-92.1v19.7h58.5v17.8h-76.8v-55.3h128.7v75h108.4l47.8-27.1l47.8,27.1
		c6.8,0,50,0,56.7,0v-19.7h-35.7l-31.4-17.8H800V180.1z"/>
	<path class="st0" d="M579.6,128.9v-19.7H557l2.7-15.1l0,0l3.2-18.3l0,0v0h-24.4l-5.9,33.4h-14.1c0-15.4,0-28,0-43.2h56.2
		c0-2.1,0-18.2,0-19.7H551l9.8-10.8c10,0-10,0,0,0h-39L512,46.2h-74.1l-9.8-10.8c10,0-10,0,0,0h-39c1.5,1.7,8.3,9.2,9.8,10.8h-24.1
		c0,2.1,0,18.2,0,19.7h56.6v43.2h-14.1c-2.2-12.4-0.9-5.3-5.9-33.4l0,0v0h-24.4v0l0,0l5.9,33.4h-22.6v19.7
		C382,128.9,568,128.9,579.6,128.9z M484.9,109.2h-20V66h20C484.9,70.6,484.9,104.5,484.9,109.2z"/>
	<path class="st0" d="M667,78.2c-2.8,0-19.8,0-22.6,0v21.5c2.4,0,19.7,0,22.6,0V78.2z"/>
	<path class="st0" d="M484.3,263.2c-33.5,0-33.1-0.6-35.7,1.9c-7.3,7.3-5.6,2.6-5.6,30.7c0,1.2,1,2.1,2.1,2.1h31.1
		c3.3,0,4.5-1.9,8.3-5.6c2.5-2.5,1.9-3,1.9-27C486.5,264.1,485.5,263.2,484.3,263.2z M473.3,291.4c0,1.2-1,2.1-2.1,2.1h-12.8
		c-1.2,0-2.1-1-2.1-2.1v-21.7c0-1.2,1-2.1,2.1-2.1h12.8c1.2,0,2.1,1,2.1,2.1V291.4z"/>
	<path class="st0" d="M437.6,263.2c-14.6,0-12-1.1-18.7,5.6c-2.5,2.5-1.9,3-1.9,27c0,1.2,1,2.1,2.1,2.1h8.9c1.2,0,2.1-1,2.1-2.1
		v-26.1c0-1.2,1-2.1,2.1-2.1h5.3C440.5,267.5,440.5,263.2,437.6,263.2z"/>
	<path class="st0" d="M770.7,263.2c-14.6,0-12-1.1-18.7,5.6c-2.5,2.5-1.9,3-1.9,27c0,1.2,1,2.1,2.1,2.1h8.9c1.2,0,2.1-1,2.1-2.1
		v-26.1c0-1.2,1-2.1,2.1-2.1h5.3C773.5,267.5,773.6,263.2,770.7,263.2z"/>
	<path class="st0" d="M533,263.2h-8.8c-1.2,0-2.1,1-2.1,2.1l0,26.1c0,1.2-1,2.1-2.1,2.1h-12.8c-1.2,0-2.1-1-2.1-2.1v-26.1
		c0-1.2-1-2.1-2.1-2.1h-8.8c-1.2,0-2.1,1-2.1,2.1v22.4c0,3.3,1.9,4.5,5.6,8.3c2.6,2.6,2.3,1.9,35.5,1.9c1.2,0,2.1-1,2.1-2.1v-30.5
		C535.2,264.1,534.2,263.2,533,263.2z"/>
	<path class="st0" d="M687.9,263.2h-47.5c-1.2,0-2.2,1-2.1,2.2l0.1,30.5c0,1.2,1,2.1,2.1,2.1h8.8c1.2,0,2.1-1,2.1-2.1l0-26.1
		c0-1.2,1-2.1,2.1-2.1l5.9,0c1.2,0,2.1,1,2.1,2.1c0,8.9,0.1,21.2,0.1,26.1c0,1.2,1,2.1,2.1,2.1h8.8c1.2,0,2.1-1,2.1-2.1l0-26.1
		c0-1.2,1-2.1,2.1-2.1h5.9c1.2,0,2.1,1,2.1,2.1v26.1c0,1.2,1,2.1,2.1,2.1h8.9c1.2,0,2.1-1,2.1-2.1c0-24,0.6-24.5-1.9-27
		C692.4,265.1,691.1,263.2,687.9,263.2z"/>
	<path class="st0" d="M581.9,253.1h-8.9c-1.2,0-2.1,1-2.1,2.1v36.2c0,1.2-1,2.1-2.1,2.1h-12.8c-1.2,0-2.1-1-2.1-2.1v-21.7
		c0-1.2,1-2.1,2.1-2.1h9.7c2.8,0,2.9-4.4,0-4.4h-22.8c-1.2,0-2.1,1-2.1,2.1v22.4c0,3.3,1.9,4.5,5.6,8.3c2.5,2.5,2.2,1.9,35.7,1.9
		c1.2,0,2.1-1,2.1-2.1v-40.6C584.1,254,583.1,253.1,581.9,253.1z"/>
	<path class="st0" d="M630.7,278.7h-26c-1.2,0-2.1-1-2.1-2.1v-6.8c0-1.2,1-2.1,2.1-2.1h21.7c2.8,0,2.9-4.4,0-4.4
		c-28.9,0-28.8-0.6-31.4,1.9c-6.5,6.5-5.6,4.5-5.6,15.9c0,1.2,1,2.1,2.1,2.1h26c1.2,0,2.1,1,2.1,2.1v6.2c0,1.2-1,2.1-2.1,2.1h-23.8
		c-2.9,0-2.8,4.4,0,4.4c31,0,31,0.7,33.5-1.9c6.5-6.5,5.6-4.6,5.6-15.2C632.9,279.6,631.9,278.7,630.7,278.7z"/>
	<path class="st0" d="M411.5,253.1h-39.1c-1.2,0-2.1,1-2.1,2.1v40.6c0,1.2,1,2.1,2.1,2.1h8.9c1.2,0,2.1-1,2.1-2.1v-36.2
		c0-1.2,1-2.1,2.1-2.1h12.8c1.2,0,2.1,1,2.1,2.1v14.2c0,1.2-1,2.1-2.1,2.1h-9.7c-2.9,0-2.8,4.4,0,4.4c16.6,0,17.7,0.6,20.2-1.9
		c6-6,4.8-2.9,4.8-23.2C413.6,254,412.7,253.1,411.5,253.1z"/>
	<path class="st0" d="M742.6,263.2h-30.4c-2.9,0-2.8,4.4,0,4.4h17.2c1.2,0,2.1,1,2.1,2.1v21.7c0,1.2-1,2.1-2.1,2.1h-12.8
		c-1.2,0-2.1-1-2.1-2.1v-10.5c0-1.2,1-2.1,2.1-2.1h9.7c2.9,0,2.8-4.4,0-4.4h-22.8c-1.2,0-2.1,1-2.1,2.1c0,11.6-0.5,13.3,1.9,15.8
		c3.8,3.8,5,5.6,8.3,5.6h31.1c1.2,0,2.1-1,2.1-2.1v-30.5C744.7,264.1,743.8,263.2,742.6,263.2z"/>
	<path class="st0" d="M797.9,263.2h-6.5c-1.2,0-2.1-1-2.1-2.1v-5.8c0-1.2-1-2.1-2.1-2.1h-8.9c-1.2,0-2.1,1-2.1,2.1v32.5
		c0,3.3,1.9,4.5,5.6,8.3c2.4,2.4,4.3,1.9,15,1.9c2.8,0,2.9-4.4,0-4.4h-5.3c-1.2,0-2.1-1-2.1-2.1v-21.7c0-1.2,1-2.1,2.1-2.1h6.5
		c1.1,0,2.1-0.9,2.1-2.2C800,264.1,799,263.2,797.9,263.2z"/>
</g>
</svg>
