<?xml version="1.0" encoding="utf-8"?>
<!-- Generator: Adobe Illustrator 19.2.1, SVG Export Plug-In . SVG Version: 6.00 Build 0)  -->
<svg version="1.1" id="图层_1" xmlns="http://www.w3.org/2000/svg" xmlns:xlink="http://www.w3.org/1999/xlink" x="0px" y="0px"
	 viewBox="0 0 24 24" style="enable-background:new 0 0 24 24;" xml:space="preserve">
<style type="text/css">
	.st0{fill:#FFFFFF;}
</style>
<g>
	<path class="st0" d="M15.6,4.1v15.1l5.3,2.5V1.6L15.6,4.1z M19.7,11.4c-0.3,0-0.6-0.4-0.6-0.8c0-0.4,0.3-0.8,0.6-0.8
		s0.6,0.4,0.6,0.8C20.3,11.1,20,11.4,19.7,11.4z"/>
	<polygon class="st0" points="17.4,21.5 15.6,20.6 15.6,21.3 5.9,21.3 5.9,1.9 15.6,1.9 15.6,2.6 17.4,1.7 17.4,0 4.1,0 4.1,22.5 
		3,22.5 3,24 18.5,24 18.5,22.5 17.4,22.5 	"/>
</g>
</svg>
