<?xml version="1.0" encoding="utf-8"?>
<!-- Generator: Adobe Illustrator 19.2.1, SVG Export Plug-In . SVG Version: 6.00 Build 0)  -->
<svg version="1.1" id="图层_1" xmlns="http://www.w3.org/2000/svg" xmlns:xlink="http://www.w3.org/1999/xlink" x="0px" y="0px"
	 viewBox="0 0 1920 1080" style="enable-background:new 0 0 1920 1080;" xml:space="preserve">
<style type="text/css">
	.st0{fill:#EFEFEF;}
	.st1{fill:#DDDDDD;}
	.st2{fill:#FFFFFF;}
	.st3{enable-background:new    ;}
	.st4{fill:#565656;}
	.st5{fill:#EAEAEA;stroke:#7D7D7D;stroke-width:0.25;stroke-miterlimit:10;}
	.st6{opacity:0.3;}
	.st7{fill:#7D7D7D;}
	.st8{fill:#B3B3B3;}
	.st9{fill:#E5E5E5;stroke:#B7B3AB;stroke-linejoin:round;stroke-miterlimit:10;}
	.st10{fill:#D8D8D8;stroke:#7D7D7D;stroke-miterlimit:10;}
	.st11{opacity:0.7;}
	.st12{fill:#C5C4C0;}
	.st13{fill:#2D2D2D;}
	.st14{fill:#13310A;}
	.st15{fill:#66000C;}
</style>
<g id="图层_1_1_">
	<g>
		<rect class="st0" width="1920" height="1080"/>
		<g>
			<g>
				<rect x="35.3" y="44" class="st1" width="1849.3" height="992"/>
				<path class="st2" d="M1883.2,45.5v989H36.8v-989H1883.2 M1886.2,42.5H33.8v995h1852.3L1886.2,42.5L1886.2,42.5z"/>
			</g>
			<g class="st3">
				<path d="M64,79.4c1.2-2,2.1-4,2.8-6h-2.4v-2.7h2.7v-3.9H70v3.9h2.2v2.7H70v1.7c1,0.5,1.9,1,2.7,1.5V68h12.7v2.7h-9.7v2.5h8.9
					v8.9h-8.9v2.5h10v2.7h-13V77l-1.2,2.5c-0.5-0.4-1-0.9-1.6-1.3v10.2h-2.9v-9.5c-0.6,1.5-1.4,3-2.3,4.5
					C64.6,82.4,64.4,81.1,64,79.4z M81.7,79.5v-3.6h-5.9v3.6H81.7z"/>
				<path d="M88,70.1h8.2c0-1.3,0.1-2.4,0.1-3.5h2.9c0,1.3,0,2.5,0,3.5h8.1v14.3c0,1.1-0.3,1.9-0.8,2.5c-0.5,0.6-1.2,0.9-2.2,1
					c-1,0.1-2.3,0.1-4,0.1c-0.2-0.8-0.4-1.8-0.7-2.9c1,0.1,1.9,0.1,2.9,0.1c0.5,0,0.9,0,1.1-0.1s0.4-0.2,0.5-0.4
					c0.1-0.2,0.2-0.5,0.2-0.9V73H99c-0.1,1.2-0.2,2.2-0.4,3c1.5,1.1,3.3,2.5,5.4,4.2l-2.2,2.2c-1-1-2.4-2.3-4.2-3.9
					c-0.9,1.6-2.3,3-4.2,4.2c-0.7-0.9-1.5-1.6-2.3-2.3c3.1-1.9,4.8-4.4,5-7.4H91v15.2h-3V70.1z"/>
				<path d="M110.9,72.7c1.4,1,2.5,1.9,3.5,2.8l-2,2.4c-1.2-1.1-2.3-2.1-3.3-3.1L110.9,72.7z M111.2,78.8c1,0.4,1.9,0.7,2.8,1
					l-1.8,8.6c-1-0.4-2-0.6-2.9-0.8C110,84.8,110.7,81.9,111.2,78.8z M111.5,66.9c1.2,0.9,2.4,1.8,3.6,2.7l-2,2.2
					c-1.1-1-2.2-2-3.4-3L111.5,66.9z M113.4,85.1h1.7v-6.7h14.6v6.7h1.3v2.3h-17.6V85.1z M116,67.6h12.7v9.5H116V67.6z M117.8,85.1
					h1.6v-4.4h-1.6V85.1z M126.1,69.9h-7.3v1.5h7.3V69.9z M126.1,74.9v-1.5h-7.3v1.5H126.1z M121.6,85.1h1.6v-4.4h-1.6V85.1z
					 M127,80.7h-1.6v4.4h1.6V80.7z"/>
				<path d="M133.5,72.8c1.3,1,2.5,1.9,3.6,2.8l-2.1,2.3c-0.9-0.9-2.1-1.9-3.4-3.1L133.5,72.8z M133.8,78.7c1.1,0.4,2.1,0.8,2.9,1
					l-1.9,8.5c-1.1-0.4-2.1-0.6-3-0.9C132.5,84.8,133.2,81.9,133.8,78.7z M133.7,66.9c1.1,0.8,2.3,1.8,3.6,2.8l-2,2.2
					c-1.3-1.3-2.4-2.3-3.4-3.1L133.7,66.9z M136.8,85h4.5v-1.8l-1.8,0.9l-2.6-4.8l2.1-1.1l2.3,3.9v-4.5h2.8V85h1.7v-7.5h2.8v4.7
					c0.6-1,1.4-2.3,2.3-4l2.2,1.1c-1,1.8-1.9,3.4-2.9,4.9l-1.6-0.9V85h4.7v2.5h-16.5V85z M137.9,67.6h14v9.5h-14V67.6z M149.1,70
					h-8.3v1.4h8.3V70z M149.1,74.7v-1.4h-8.3v1.4H149.1z"/>
				<path d="M158.4,76.7c0,5.5-0.7,9.4-2.2,11.8c-0.8-0.8-1.6-1.5-2.4-2.1c1.2-2.3,1.8-5.7,1.8-10.2v-7.7h8.7
					c-0.2-0.4-0.4-0.9-0.6-1.5l3.6-0.5c0.3,0.7,0.5,1.4,0.8,2.1h7.6v2.5h-17.3V76.7z M173.6,79.4v2.4c-1.2,1.3-2.3,2.4-3.5,3.3
					c1.6,0.3,3.5,0.5,5.8,0.6c-0.4,0.8-0.9,1.7-1.3,2.7c-3.2-0.4-5.8-0.9-7.8-1.6c-2.1,0.7-4.7,1.3-7.8,1.8
					c-0.4-0.8-0.8-1.6-1.4-2.4c2.4-0.1,4.5-0.4,6.3-0.9c-1.2-0.9-2.3-2-3.3-3.3h-1.4v-2.4H173.6z M158.9,72.4h2.4v-0.9h2.8v0.9h5.4
					v-0.9h2.8v0.9h3v2.4h-3v3.6h-11.1v-3.6h-2.4V72.4z M167,84.1c1.3-0.6,2.5-1.4,3.4-2.3h-6.7C164.6,82.7,165.7,83.5,167,84.1z
					 M169.5,76.1v-1.3h-5.4v1.3H169.5z"/>
			</g>
			<g class="st3">
				<path d="M71.2,1003.4c0.1,1.1,0.3,2.2,0.6,3.4c-2.1,1.8-3.6,3.3-4.5,4.4l-1.6-2.4c0.3-0.4,0.5-1,0.5-1.7v-6.6h-2.1v-3h5.1v8
					C69.6,1005,70.3,1004.3,71.2,1003.4z M67.6,990.1c1.2,1.4,2.2,2.7,3.1,3.9l-2.7,1.8c-1.1-1.7-2-3.1-2.9-4.2L67.6,990.1z
					 M85.8,995.4c-0.3,1.2-0.5,2.1-0.5,2.7c-1.4,0-2.4,0-3,0c-1.7,0-2.5-0.8-2.5-2.4v-2.2h-3.8c0,2.1-1,4-3,5.6h11.1v2.6
					c-1,2-2.3,3.8-3.8,5.2c1.6,0.8,3.5,1.3,5.5,1.6c-0.6,0.9-1.2,1.9-1.7,3.1c-2.4-0.6-4.5-1.4-6.4-2.6c-1.9,1.3-4.1,2.2-6.5,2.8
					c-0.4-0.9-1-1.9-1.7-2.9c2.1-0.5,4-1.1,5.6-1.9c-1.2-1.1-2.3-2.5-3.3-3.9l1.9-1.3h-2.4v-2.7h1.5c-0.6-0.7-1.3-1.4-2.3-2.3
					c1.6-1.1,2.4-2.6,2.4-4.5v-1.4h9.7v3.5c0,0.6,0.2,0.9,0.5,0.9C83.6,995.4,84.5,995.4,85.8,995.4z M77.8,1005.4
					c1.3-1,2.3-2.2,3-3.5h-6.3C75.4,1003.3,76.5,1004.5,77.8,1005.4z"/>
				<path d="M106.2,991.8v2.3c-1.3,1.3-2.9,2.5-4.9,3.5c2.1,0.5,4.5,0.7,7.1,0.8c-0.5,1-0.9,2-1.3,2.8c-3.8-0.4-7-1-9.7-2
					c-2.4,0.8-5.1,1.5-8.1,2.1h16.6v10.5h-3v-0.9H92.1v0.9h-3v-10.4c-0.4,0.1-0.9,0.2-1.4,0.2c-0.3-0.8-0.7-1.7-1.1-2.6
					c2.8-0.4,5.3-0.9,7.5-1.4c-1-0.6-1.8-1.3-2.6-2c-0.9,0.8-1.9,1.5-2.9,2.1c-0.4-0.5-1.1-1.1-1.9-1.9c2.4-1.5,4.5-3.3,6.3-5.6
					l3.1,0.4c-0.3,0.5-0.7,1-1.1,1.4H106.2z M92.1,1005.1h4v-1.6h-4V1005.1z M92.1,1008.7h4v-1.6h-4V1008.7z M97.5,996.4
					c1.8-0.7,3.2-1.5,4.3-2.3h-8.1C94.7,995,96,995.8,97.5,996.4z M102.9,1003.5h-4v1.6h4V1003.5z M98.9,1008.7h4v-1.6h-4V1008.7z"
					/>
				<path d="M110.9,996.1c1.4,1,2.5,1.9,3.5,2.8l-2,2.4c-1.2-1.1-2.3-2.1-3.3-3.1L110.9,996.1z M111.2,1002.3c1,0.4,1.9,0.7,2.8,1
					l-1.8,8.6c-1-0.4-2-0.6-2.9-0.8C110,1008.3,110.7,1005.3,111.2,1002.3z M111.5,990.4c1.2,0.9,2.4,1.8,3.6,2.7l-2,2.2
					c-1.1-1-2.2-2-3.4-3L111.5,990.4z M113.4,1008.6h1.7v-6.7h14.6v6.7h1.3v2.3h-17.6V1008.6z M116,991.1h12.7v9.5H116V991.1z
					 M117.8,1008.6h1.6v-4.4h-1.6V1008.6z M126.1,993.3h-7.3v1.5h7.3V993.3z M126.1,998.4v-1.5h-7.3v1.5H126.1z M121.6,1008.6h1.6
					v-4.4h-1.6V1008.6z M127,1004.2h-1.6v4.4h1.6V1004.2z"/>
				<path d="M135.9,1000.2c0,5.5-0.7,9.4-2.2,11.8c-0.8-0.8-1.6-1.5-2.4-2.1c1.2-2.3,1.8-5.7,1.8-10.2v-7.7h8.7
					c-0.2-0.4-0.4-0.9-0.6-1.5l3.6-0.5c0.3,0.7,0.5,1.4,0.8,2.1h7.6v2.5h-17.3V1000.2z M151.1,1002.9v2.4c-1.2,1.3-2.3,2.4-3.5,3.3
					c1.6,0.3,3.5,0.5,5.8,0.6c-0.4,0.8-0.9,1.7-1.3,2.7c-3.2-0.4-5.8-0.9-7.8-1.6c-2.1,0.7-4.7,1.3-7.8,1.8
					c-0.4-0.8-0.8-1.6-1.4-2.4c2.4-0.1,4.5-0.4,6.3-0.9c-1.2-0.9-2.3-2-3.3-3.3h-1.4v-2.4H151.1z M136.4,995.9h2.4V995h2.8v0.9h5.4
					V995h2.8v0.9h3v2.4h-3v3.6h-11.1v-3.6h-2.4V995.9z M144.5,1007.5c1.3-0.6,2.5-1.4,3.4-2.3h-6.7
					C142.1,1006.2,143.2,1007,144.5,1007.5z M147,999.6v-1.3h-5.4v1.3H147z"/>
			</g>
			<g class="st3">
				<path d="M189.9,1012.7c-2.7-3-4-6.5-4-10.4c0-4.1,1.3-7.5,4-10.4h2.9c-2.6,3.1-3.9,6.6-3.9,10.4c0,3.8,1.3,7.3,3.9,10.5H189.9z"
					/>
				<path d="M201.9,993.4h4c-0.5-0.7-1-1.4-1.6-2.1l2.6-1.2l2.3,2.7l-1.4,0.6h4.4c0.9-1.1,1.7-2.2,2.4-3.3l3.3,1.2
					c-0.5,0.5-1.2,1.3-2,2.2h4.1v10.9h-7.6v1.5h9.3v2.7h-9.3v3.3h-3.1v-3.3h-9.3v-2.7h9.3v-1.5h-7.6V993.4z M204.8,997.7h4.7v-1.8
					h-4.7V997.7z M204.8,1001.8h4.7v-1.8h-4.7V1001.8z M217.3,995.9h-4.7v1.8h4.7V995.9z M217.3,1001.8v-1.8h-4.7v1.8H217.3z"/>
				<path d="M227,990.2l2.8,0.9c-0.6,1.6-1.1,3-1.7,4.4v16.4h-2.9v-10.2c-0.5,1-1.1,1.9-1.7,2.8c-0.2-1.1-0.5-2.3-1-3.8
					C224,998.2,225.5,994.7,227,990.2z M229.1,1008h7.4c1.2-3.4,2.2-6.9,3.1-10.7l3.4,1c-0.4,1-1.5,4.2-3.4,9.7h4.9v2.8h-15.4V1008z
					 M229.5,993.8h5.8c-0.3-0.9-0.7-1.8-1.2-2.8l3.2-0.9c0.5,1.1,1,2.2,1.5,3.2l-1.7,0.5h6.7v2.8h-14.2V993.8z M233.1,997.5
					c0.6,1.5,1.5,4.3,2.9,8.4l-3,1c-1-3.5-1.9-6.4-2.7-8.5L233.1,997.5z"/>
				<path d="M256,996.5c0.6,0,1,0.2,1.4,0.5s0.6,0.8,0.6,1.3c0,0.5-0.2,0.9-0.6,1.3c-0.4,0.4-0.9,0.5-1.4,0.5c-0.6,0-1-0.2-1.4-0.5
					c-0.4-0.4-0.6-0.8-0.6-1.3c0-0.5,0.2-0.9,0.6-1.3C255,996.7,255.4,996.5,256,996.5z M256,1005.5c0.6,0,1,0.2,1.4,0.5
					c0.4,0.4,0.6,0.8,0.6,1.3c0,0.5-0.2,0.9-0.6,1.3c-0.4,0.4-0.9,0.5-1.4,0.5s-1-0.2-1.4-0.5c-0.4-0.4-0.6-0.8-0.6-1.3
					c0-0.5,0.2-0.9,0.6-1.3C255,1005.7,255.4,1005.5,256,1005.5z"/>
				<path d="M271.3,998.4c-0.9,0-1.7-0.3-2.4-1c-0.7-0.7-1-1.5-1-2.4c0-0.9,0.3-1.7,1-2.4c0.7-0.7,1.5-1,2.4-1c0.9,0,1.7,0.3,2.4,1
					c0.7,0.7,1,1.5,1,2.4c0,0.9-0.3,1.7-1,2.4C273,998,272.2,998.4,271.3,998.4z M271.3,993.4c-0.4,0-0.8,0.2-1.1,0.5
					c-0.3,0.3-0.5,0.7-0.5,1.1c0,0.4,0.2,0.8,0.5,1.1c0.3,0.3,0.7,0.5,1.1,0.5c0.5,0,0.8-0.2,1.1-0.5c0.3-0.3,0.5-0.7,0.5-1.1
					c0-0.4-0.2-0.8-0.5-1.1C272.1,993.5,271.7,993.4,271.3,993.4z M288.5,1008.2c-1.3,0.6-3,0.9-5,0.9c-2.7,0-4.8-0.8-6.3-2.3
					c-1.5-1.6-2.3-3.6-2.3-6.1c0-2.7,0.9-4.9,2.6-6.6c1.7-1.7,4-2.5,6.7-2.5c1.7,0,3.1,0.2,4.3,0.7v3.5c-1.2-0.6-2.6-1-4.1-1
					c-1.8,0-3.2,0.5-4.2,1.6c-1.1,1-1.6,2.4-1.6,4.2c0,1.7,0.5,3,1.5,4c1,1,2.4,1.5,4.1,1.5c1.6,0,3-0.4,4.4-1.1V1008.2z"/>
				<path d="M299.6,1012.7h-2.9c2.6-3.1,3.9-6.6,3.9-10.4c0-3.8-1.3-7.3-3.9-10.5h2.9c2.7,3,4,6.5,4,10.5
					C303.6,1006.4,302.3,1009.8,299.6,1012.7z"/>
			</g>
			<g class="st3">
				<path class="st4" d="M131,694.9c0.6,0.5,1.1,0.9,1.5,1.2l-0.9,1.1c-0.5-0.5-1-0.9-1.5-1.4L131,694.9z M131.2,697.6
					c0.4,0.2,0.8,0.3,1.2,0.4l-0.8,3.8c-0.4-0.2-0.9-0.3-1.3-0.4C130.6,700.3,130.9,699,131.2,697.6z M131.3,692.3
					c0.5,0.4,1.1,0.8,1.6,1.2l-0.9,1c-0.5-0.5-1-0.9-1.5-1.3L131.3,692.3z M132.1,700.4h0.7v-3h6.5v3h0.6v1h-7.8V700.4z
					 M133.3,692.6h5.7v4.2h-5.7V692.6z M134.1,700.4h0.7v-2h-0.7V700.4z M137.8,693.6h-3.3v0.6h3.3V693.6z M137.8,695.9v-0.6h-3.3
					v0.6H137.8z M135.8,700.4h0.7v-2h-0.7V700.4z M138.2,698.4h-0.7v2h0.7V698.4z"/>
				<path class="st4" d="M132.1,706.7c0,2.4-0.3,4.2-1,5.3c-0.4-0.3-0.7-0.7-1.1-0.9c0.6-1,0.8-2.5,0.8-4.5v-3.4h3.9
					c-0.1-0.2-0.2-0.4-0.3-0.7l1.6-0.2c0.1,0.3,0.2,0.6,0.4,0.9h3.4v1.1h-7.7V706.7z M138.9,707.9v1.1c-0.5,0.6-1,1.1-1.6,1.4
					c0.7,0.1,1.6,0.2,2.6,0.3c-0.2,0.4-0.4,0.8-0.6,1.2c-1.4-0.2-2.6-0.4-3.5-0.7c-0.9,0.3-2.1,0.6-3.5,0.8
					c-0.2-0.4-0.4-0.7-0.6-1.1c1.1-0.1,2-0.2,2.8-0.4c-0.5-0.4-1-0.9-1.5-1.5h-0.6v-1.1H138.9z M132.4,704.8h1.1v-0.4h1.2v0.4h2.4
					v-0.4h1.2v0.4h1.3v1.1h-1.3v1.6h-4.9v-1.6h-1.1V704.8z M135.9,709.9c0.6-0.3,1.1-0.6,1.5-1h-3
					C134.9,709.3,135.4,709.7,135.9,709.9z M137.1,706.4v-0.6h-2.4v0.6H137.1z"/>
			</g>
			<g class="st3">
				<path class="st4" d="M141.5,728.2h-3.1l-1-3h-4.8l-1,3h-3.1l4.8-13.2h3.3L141.5,728.2z M136.8,723l-1.5-4.6
					c-0.1-0.3-0.2-0.7-0.2-1.2H135c0,0.4-0.1,0.8-0.2,1.1l-1.5,4.6H136.8z"/>
			</g>
			<g class="st3">
				<path class="st4" d="M131,765.5c0.6,0.5,1.1,0.9,1.5,1.2l-0.9,1.1c-0.5-0.5-1-0.9-1.5-1.4L131,765.5z M131.2,768.2
					c0.4,0.2,0.8,0.3,1.2,0.4l-0.8,3.8c-0.4-0.2-0.9-0.3-1.3-0.4C130.6,770.9,130.9,769.6,131.2,768.2z M131.3,762.9
					c0.5,0.4,1.1,0.8,1.6,1.2l-0.9,1c-0.5-0.5-1-0.9-1.5-1.3L131.3,762.9z M132.1,771h0.7v-3h6.5v3h0.6v1h-7.8V771z M133.3,763.2
					h5.7v4.2h-5.7V763.2z M134.1,771h0.7v-2h-0.7V771z M137.8,764.2h-3.3v0.6h3.3V764.2z M137.8,766.5v-0.6h-3.3v0.6H137.8z
					 M135.8,771h0.7v-2h-0.7V771z M138.2,769.1h-0.7v2h0.7V769.1z"/>
				<path class="st4" d="M132.1,777.3c0,2.4-0.3,4.2-1,5.3c-0.4-0.3-0.7-0.7-1.1-0.9c0.6-1,0.8-2.5,0.8-4.5v-3.4h3.9
					c-0.1-0.2-0.2-0.4-0.3-0.7l1.6-0.2c0.1,0.3,0.2,0.6,0.4,0.9h3.4v1.1h-7.7V777.3z M138.9,778.5v1.1c-0.5,0.6-1,1.1-1.6,1.4
					c0.7,0.1,1.6,0.2,2.6,0.3c-0.2,0.4-0.4,0.8-0.6,1.2c-1.4-0.2-2.6-0.4-3.5-0.7c-0.9,0.3-2.1,0.6-3.5,0.8
					c-0.2-0.4-0.4-0.7-0.6-1.1c1.1-0.1,2-0.2,2.8-0.4c-0.5-0.4-1-0.9-1.5-1.5h-0.6v-1.1H138.9z M132.4,775.4h1.1V775h1.2v0.4h2.4
					V775h1.2v0.4h1.3v1.1h-1.3v1.6h-4.9v-1.6h-1.1V775.4z M135.9,780.6c0.6-0.3,1.1-0.6,1.5-1h-3C134.9,780,135.4,780.3,135.9,780.6
					z M137.1,777v-0.6h-2.4v0.6H137.1z"/>
			</g>
			<g class="st3">
				<path class="st4" d="M130.2,798.7v-13.2h4.7c1.4,0,2.6,0.3,3.3,0.8s1.2,1.3,1.2,2.3c0,0.7-0.2,1.3-0.7,1.9
					c-0.5,0.5-1.1,0.9-1.8,1.1v0c0.9,0.1,1.7,0.5,2.2,1c0.6,0.6,0.8,1.3,0.8,2.1c0,1.2-0.4,2.2-1.3,2.9c-0.9,0.7-2,1.1-3.5,1.1
					H130.2z M133,792.9v3.6h1.7c0.7,0,1.3-0.2,1.7-0.5c0.4-0.3,0.6-0.8,0.6-1.4c0-0.6-0.2-1-0.6-1.3c-0.4-0.3-1-0.5-1.7-0.5H133z
					 M133,787.5v3.3h1.3c0.6,0,1.2-0.2,1.5-0.5s0.6-0.7,0.6-1.3c0-1-0.7-1.5-2.2-1.5H133z"/>
			</g>
			<g class="st3">
				<path class="st4" d="M131,836.1c0.6,0.5,1.1,0.9,1.5,1.2l-0.9,1.1c-0.5-0.5-1-0.9-1.5-1.4L131,836.1z M131.2,838.9
					c0.4,0.2,0.8,0.3,1.2,0.4l-0.8,3.8c-0.4-0.2-0.9-0.3-1.3-0.4C130.6,841.5,130.9,840.2,131.2,838.9z M131.3,833.6
					c0.5,0.4,1.1,0.8,1.6,1.2l-0.9,1c-0.5-0.5-1-0.9-1.5-1.3L131.3,833.6z M132.1,841.7h0.7v-3h6.5v3h0.6v1h-7.8V841.7z
					 M133.3,833.9h5.7v4.2h-5.7V833.9z M134.1,841.7h0.7v-2h-0.7V841.7z M137.8,834.9h-3.3v0.6h3.3V834.9z M137.8,837.1v-0.6h-3.3
					v0.6H137.8z M135.8,841.7h0.7v-2h-0.7V841.7z M138.2,839.7h-0.7v2h0.7V839.7z"/>
				<path class="st4" d="M132.1,847.9c0,2.4-0.3,4.2-1,5.3c-0.4-0.3-0.7-0.7-1.1-0.9c0.6-1,0.8-2.5,0.8-4.5v-3.4h3.9
					c-0.1-0.2-0.2-0.4-0.3-0.7l1.6-0.2c0.1,0.3,0.2,0.6,0.4,0.9h3.4v1.1h-7.7V847.9z M138.9,849.1v1.1c-0.5,0.6-1,1.1-1.6,1.4
					c0.7,0.1,1.6,0.2,2.6,0.3c-0.2,0.4-0.4,0.8-0.6,1.2c-1.4-0.2-2.6-0.4-3.5-0.7c-0.9,0.3-2.1,0.6-3.5,0.8
					c-0.2-0.4-0.4-0.7-0.6-1.1c1.1-0.1,2-0.2,2.8-0.4c-0.5-0.4-1-0.9-1.5-1.5h-0.6v-1.1H138.9z M132.4,846h1.1v-0.4h1.2v0.4h2.4
					v-0.4h1.2v0.4h1.3v1.1h-1.3v1.6h-4.9v-1.6h-1.1V846z M135.9,851.2c0.6-0.3,1.1-0.6,1.5-1h-3
					C134.9,850.6,135.4,850.9,135.9,851.2z M137.1,847.7v-0.6h-2.4v0.6H137.1z"/>
			</g>
			<g class="st3">
				<path class="st4" d="M140.2,868.2c-1,0.5-2.2,0.7-3.8,0.7c-2,0-3.6-0.6-4.7-1.8c-1.2-1.2-1.8-2.8-1.8-4.8c0-2.1,0.7-3.8,2-5.1
					c1.3-1.3,3-2,5.1-2c1.3,0,2.4,0.2,3.2,0.5v2.7c-0.9-0.5-1.9-0.8-3-0.8c-1.3,0-2.3,0.4-3.1,1.2c-0.8,0.8-1.2,1.9-1.2,3.2
					c0,1.3,0.4,2.3,1.1,3.1c0.7,0.8,1.7,1.2,3,1.2c1.2,0,2.3-0.3,3.2-0.9V868.2z"/>
			</g>
			<g class="st3">
				<path class="st4" d="M128.7,157.9c1,0.7,1.8,1.4,2.4,1.9l-1.4,1.7c-0.8-0.8-1.6-1.5-2.3-2.1L128.7,157.9z M128.9,162.2
					c0.7,0.3,1.3,0.5,1.9,0.7l-1.2,6c-0.7-0.2-1.4-0.4-2.1-0.6C128.1,166.4,128.5,164.3,128.9,162.2z M129.1,153.9
					c0.8,0.6,1.7,1.2,2.5,1.9l-1.4,1.5c-0.7-0.7-1.5-1.4-2.4-2.1L129.1,153.9z M130.5,166.6h1.2v-4.7h10.2v4.7h0.9v1.6h-12.3V166.6z
					 M132.3,154.3h8.9v6.7h-8.9V154.3z M133.5,166.6h1.1v-3.1h-1.1V166.6z M139.3,155.9h-5.1v1h5.1V155.9z M139.3,159.4v-1h-5.1v1
					H139.3z M136.2,166.6h1.1v-3.1h-1.1V166.6z M139.9,163.5h-1.1v3.1h1.1V163.5z"/>
			</g>
			<g class="st3">
				<path class="st4" d="M130.5,185.8c0,3.8-0.5,6.6-1.5,8.3c-0.6-0.5-1.1-1-1.7-1.4c0.9-1.6,1.3-4,1.2-7.1v-5.4h6.1
					c-0.1-0.3-0.3-0.7-0.4-1.1l2.5-0.4c0.2,0.5,0.4,1,0.6,1.4h5.3v1.7h-12.1V185.8z M141.1,187.7v1.7c-0.8,0.9-1.6,1.7-2.5,2.3
					c1.1,0.2,2.5,0.3,4.1,0.4c-0.3,0.6-0.6,1.2-0.9,1.9c-2.3-0.3-4.1-0.7-5.4-1.2c-1.5,0.5-3.3,0.9-5.5,1.3c-0.3-0.6-0.6-1.1-1-1.7
					c1.7-0.1,3.1-0.3,4.4-0.6c-0.8-0.6-1.6-1.4-2.3-2.3h-1v-1.7H141.1z M130.8,182.8h1.7v-0.6h2v0.6h3.8v-0.6h2v0.6h2.1v1.7h-2.1
					v2.5h-7.7v-2.5h-1.7V182.8z M136.4,191c0.9-0.4,1.7-1,2.4-1.6h-4.7C134.8,190,135.6,190.6,136.4,191z M138.2,185.4v-0.9h-3.8
					v0.9H138.2z"/>
			</g>
			<g class="st3">
				<path class="st4" d="M128.8,240.3c0.9,0.7,1.8,1.3,2.5,2l-1.4,1.6c-0.6-0.6-1.4-1.3-2.4-2.1L128.8,240.3z M129,244.4
					c0.8,0.3,1.5,0.5,2.1,0.7l-1.3,6c-0.7-0.2-1.5-0.5-2.1-0.6C128.1,248.7,128.6,246.7,129,244.4z M128.9,236.2
					c0.8,0.6,1.6,1.2,2.5,2l-1.4,1.6c-0.9-0.9-1.7-1.6-2.4-2.2L128.9,236.2z M131.1,248.9h3.1v-1.3l-1.3,0.7l-1.8-3.4l1.5-0.8
					l1.6,2.7v-3.2h1.9v5.2h1.2v-5.2h1.9v3.3c0.4-0.7,1-1.6,1.6-2.8l1.5,0.8c-0.7,1.2-1.3,2.4-2,3.5l-1.1-0.7v1.2h3.3v1.8h-11.5
					V248.9z M131.9,236.7h9.8v6.7h-9.8V236.7z M139.7,238.4h-5.8v1h5.8V238.4z M139.7,241.7v-1h-5.8v1H139.7z"/>
			</g>
			<g class="st3">
				<path class="st4" d="M130.5,268.2c0,3.8-0.5,6.6-1.5,8.3c-0.6-0.5-1.1-1-1.7-1.4c0.9-1.6,1.3-4,1.2-7.1v-5.4h6.1
					c-0.1-0.3-0.3-0.7-0.4-1.1l2.5-0.4c0.2,0.5,0.4,1,0.6,1.4h5.3v1.7h-12.1V268.2z M141.1,270.1v1.7c-0.8,0.9-1.6,1.7-2.5,2.3
					c1.1,0.2,2.5,0.3,4.1,0.4c-0.3,0.6-0.6,1.2-0.9,1.9c-2.3-0.3-4.1-0.7-5.4-1.2c-1.5,0.5-3.3,0.9-5.5,1.3c-0.3-0.6-0.6-1.1-1-1.7
					c1.7-0.1,3.1-0.3,4.4-0.6c-0.8-0.6-1.6-1.4-2.3-2.3h-1v-1.7H141.1z M130.8,265.2h1.7v-0.6h2v0.6h3.8v-0.6h2v0.6h2.1v1.7h-2.1
					v2.5h-7.7v-2.5h-1.7V265.2z M136.4,273.3c0.9-0.4,1.7-1,2.4-1.6h-4.7C134.8,272.4,135.6,272.9,136.4,273.3z M138.2,267.8v-0.9
					h-3.8v0.9H138.2z"/>
			</g>
			<g>
				<g>
					<rect x="178.4" y="128.7" class="st5" width="100.1" height="174.1"/>
					<rect x="340.9" y="128.7" class="st5" width="100.1" height="174.1"/>
					<rect x="503.4" y="128.7" class="st5" width="100.1" height="174.1"/>
					<rect x="665.9" y="128.7" class="st5" width="100.1" height="174.1"/>
					<rect x="828.4" y="128.7" class="st5" width="100.1" height="174.1"/>
					<rect x="991" y="128.7" class="st5" width="100.1" height="174.1"/>
					<rect x="1153.5" y="128.7" class="st5" width="100.1" height="174.1"/>
					<rect x="1316" y="128.7" class="st5" width="100.1" height="174.1"/>
					<rect x="1478.5" y="128.7" class="st5" width="100.1" height="174.1"/>
					<rect x="1641" y="128.7" class="st5" width="100.1" height="174.1"/>
				</g>
				<g class="st6">
					<polygon class="st7" points="261.4,371.7 195.9,371.7 178.7,302.8 278.4,302.8 					"/>
					<polygon class="st7" points="586.3,371.7 520.9,371.7 503.7,302.8 603.3,302.8 					"/>
					<polygon class="st7" points="911.2,371.7 845.8,371.7 828.6,302.8 928.3,302.8 					"/>
					<polygon class="st7" points="1236.2,371.7 1170.7,371.7 1153.5,302.8 1253.2,302.8 					"/>
					<polygon class="st7" points="1561.1,371.7 1495.6,371.7 1478.4,302.8 1578.1,302.8 					"/>
					<polygon class="st8" points="423.7,371.7 358.3,371.7 341.1,302.8 440.7,302.8 					"/>
					<polygon class="st8" points="748.9,371.7 683.4,371.7 666.2,302.8 765.9,302.8 					"/>
					<polygon class="st8" points="1074,371.7 1008.6,371.7 991.4,302.8 1091.1,302.8 					"/>
					<polygon class="st8" points="1399.2,371.7 1333.7,371.7 1316.5,302.8 1416.2,302.8 					"/>
					<polygon class="st8" points="1724.3,371.7 1658.9,371.7 1641.7,302.8 1741.4,302.8 					"/>
				</g>
				<g class="st6">
					<polygon class="st7" points="261.4,622.1 195.9,622.1 178.7,674.6 278.4,674.6 					"/>
					<polygon class="st7" points="586.3,622.1 520.9,622.1 503.7,674.6 603.3,674.6 					"/>
					<polygon class="st7" points="911.2,622.1 845.8,622.1 828.6,674.6 928.3,674.6 					"/>
					<polygon class="st7" points="1236.2,622.1 1170.7,622.1 1153.5,674.6 1253.2,674.6 					"/>
					<polygon class="st7" points="1561.1,622.1 1495.6,622.1 1478.4,674.6 1578.1,674.6 					"/>
					<polygon class="st8" points="423.7,622.1 358.3,622.1 341.1,674.6 440.7,674.6 					"/>
					<polygon class="st8" points="748.9,622.1 683.4,622.1 666.2,674.6 765.9,674.6 					"/>
					<polygon class="st8" points="1074,622.1 1008.6,622.1 991.4,674.6 1091.1,674.6 					"/>
					<polygon class="st8" points="1399.2,622.1 1333.7,622.1 1316.5,674.6 1416.2,674.6 					"/>
					<polygon class="st8" points="1724.3,622.1 1658.9,622.1 1641.7,674.6 1741.4,674.6 					"/>
				</g>
				<g>
					<g>
						<rect x="178.4" y="674.6" class="st5" width="100.1" height="70.2"/>
						<rect x="341" y="674.6" class="st5" width="100.1" height="70.2"/>
						<rect x="503.5" y="674.6" class="st5" width="100.1" height="70.2"/>
						<rect x="666.1" y="674.6" class="st5" width="100.1" height="70.2"/>
						<rect x="828.7" y="674.6" class="st5" width="100.1" height="70.2"/>
						<rect x="991.2" y="674.6" class="st5" width="100.1" height="70.2"/>
						<rect x="1153.8" y="674.6" class="st5" width="100.1" height="70.2"/>
						<rect x="1316.3" y="674.6" class="st5" width="100.1" height="70.2"/>
						<rect x="1478.9" y="674.6" class="st5" width="100.1" height="70.2"/>
						<rect x="1641.5" y="674.6" class="st5" width="100.1" height="70.2"/>
					</g>
				</g>
				<g>
					<g>
						<rect x="178.4" y="744.9" class="st5" width="100.1" height="70.2"/>
						<rect x="341" y="744.9" class="st5" width="100.1" height="70.2"/>
						<rect x="503.5" y="744.9" class="st5" width="100.1" height="70.2"/>
						<rect x="666.1" y="744.9" class="st5" width="100.1" height="70.2"/>
						<rect x="828.7" y="744.9" class="st5" width="100.1" height="70.2"/>
						<rect x="991.2" y="744.9" class="st5" width="100.1" height="70.2"/>
						<rect x="1153.8" y="744.9" class="st5" width="100.1" height="70.2"/>
						<rect x="1316.3" y="744.9" class="st5" width="100.1" height="70.2"/>
						<rect x="1478.9" y="744.9" class="st5" width="100.1" height="70.2"/>
						<rect x="1641.5" y="744.9" class="st5" width="100.1" height="70.2"/>
					</g>
				</g>
				<g>
					<g>
						<rect x="178.4" y="815.1" class="st5" width="100.1" height="70.2"/>
						<rect x="341" y="815.1" class="st5" width="100.1" height="70.2"/>
						<rect x="503.5" y="815.1" class="st5" width="100.1" height="70.2"/>
						<rect x="666.1" y="815.1" class="st5" width="100.1" height="70.2"/>
						<rect x="828.7" y="815.1" class="st5" width="100.1" height="70.2"/>
						<rect x="991.2" y="815.1" class="st5" width="100.1" height="70.2"/>
						<rect x="1153.8" y="815.1" class="st5" width="100.1" height="70.2"/>
						<rect x="1316.3" y="815.1" class="st5" width="100.1" height="70.2"/>
						<rect x="1478.9" y="815.1" class="st5" width="100.1" height="70.2"/>
						<rect x="1641.5" y="815.1" class="st5" width="100.1" height="70.2"/>
					</g>
				</g>
				<g>
					<g>
						<rect x="1658.4" y="371.7" class="st9" width="65.3" height="22.3"/>
						<g>
							<rect x="1658.5" y="394" class="st10" width="65.2" height="228.1"/>
						</g>
						<g class="st11">
							<rect x="1659.6" y="395.1" class="st12" width="62.8" height="225.8"/>
							<g>
								<rect x="1659.6" y="416" width="2.8" height="4.8"/>
								<rect x="1659.6" y="466.8" width="2.8" height="4.8"/>
								<rect x="1659.6" y="517.7" width="2.8" height="4.8"/>
							</g>
							<rect x="1659.6" y="536.8" class="st13" width="62.8" height="1.8"/>
							<path d="M1700.8,558.4h-19.5c-0.2,0-0.3-0.1-0.3-0.3v-7.4c0-0.2,0.1-0.3,0.3-0.3h19.5c0.2,0,0.3,0.1,0.3,0.3v7.4
								C1701.1,558.2,1701,558.4,1700.8,558.4z"/>
							<rect x="1674.3" y="466.9" width="19.8" height="4.7"/>
							<path d="M1712.7,499.2V482c0-0.5,0.4-0.9,0.9-0.9h2.9c0.5,0,0.9,0.4,0.9,0.9v17.2c0,0.5-0.4,0.9-0.9,0.9h-2.9
								C1713.1,500.1,1712.7,499.7,1712.7,499.2z"/>
							<path d="M1705.3,435.5h-28.4c-0.2,0-0.3-0.1-0.3-0.3v-14.8c0-0.2,0.1-0.3,0.3-0.3h28.4c0.2,0,0.3,0.1,0.3,0.3v14.8
								C1705.6,435.3,1705.4,435.5,1705.3,435.5z"/>
							<path class="st14" d="M1698.6,431.1h-15.1c-0.1,0-0.2-0.1-0.2-0.2v-8.2c0-0.1,0.1-0.2,0.2-0.2h15.1c0.1,0,0.2,0.1,0.2,0.2
								v8.2C1698.8,431,1698.7,431.1,1698.6,431.1z"/>
							<path class="st15" d="M1704.9,421.6h-27.6c-0.1,0-0.2-0.1-0.2-0.2v-0.6c0-0.1,0.1-0.2,0.2-0.2h27.6c0.1,0,0.2,0.1,0.2,0.2
								v0.6C1705,421.5,1705,421.6,1704.9,421.6z"/>
							<ellipse cx="1691.1" cy="444.7" rx="9.5" ry="4.3"/>
							<g>
								<circle class="st15" cx="1676.1" cy="469.8" r="0.8"/>
								<circle class="st15" cx="1684.3" cy="469.8" r="0.8"/>
								<circle class="st15" cx="1692.4" cy="469.8" r="0.8"/>
							</g>
							<g>
								<circle cx="1670.3" cy="543.4" r="2.1"/>
								<circle cx="1711.8" cy="543.4" r="2.1"/>
							</g>
						</g>
					</g>
					<g>
						<rect x="1495.9" y="371.7" class="st9" width="65.3" height="22.3"/>
						<g>
							<rect x="1496" y="394" class="st10" width="65.2" height="228.1"/>
						</g>
						<g class="st11">
							<rect x="1497.1" y="395.1" class="st12" width="62.8" height="225.8"/>
							<g>
								<rect x="1497.1" y="416" width="2.8" height="4.8"/>
								<rect x="1497.1" y="466.8" width="2.8" height="4.8"/>
								<rect x="1497.1" y="517.7" width="2.8" height="4.8"/>
							</g>
							<rect x="1497.1" y="536.8" class="st13" width="62.8" height="1.8"/>
							<path d="M1538.3,558.4h-19.5c-0.2,0-0.3-0.1-0.3-0.3v-7.4c0-0.2,0.1-0.3,0.3-0.3h19.5c0.2,0,0.3,0.1,0.3,0.3v7.4
								C1538.6,558.2,1538.5,558.4,1538.3,558.4z"/>
							<rect x="1511.8" y="466.9" width="19.8" height="4.7"/>
							<path d="M1550.2,499.2V482c0-0.5,0.4-0.9,0.9-0.9h2.9c0.5,0,0.9,0.4,0.9,0.9v17.2c0,0.5-0.4,0.9-0.9,0.9h-2.9
								C1550.6,500.1,1550.2,499.7,1550.2,499.2z"/>
							<path d="M1542.7,435.5h-28.4c-0.2,0-0.3-0.1-0.3-0.3v-14.8c0-0.2,0.1-0.3,0.3-0.3h28.4c0.2,0,0.3,0.1,0.3,0.3v14.8
								C1543.1,435.3,1542.9,435.5,1542.7,435.5z"/>
							<path class="st14" d="M1536.1,431.1H1521c-0.1,0-0.2-0.1-0.2-0.2v-8.2c0-0.1,0.1-0.2,0.2-0.2h15.1c0.1,0,0.2,0.1,0.2,0.2v8.2
								C1536.3,431,1536.2,431.1,1536.1,431.1z"/>
							<path class="st15" d="M1542.3,421.6h-27.6c-0.1,0-0.2-0.1-0.2-0.2v-0.6c0-0.1,0.1-0.2,0.2-0.2h27.6c0.1,0,0.2,0.1,0.2,0.2
								v0.6C1542.5,421.5,1542.5,421.6,1542.3,421.6z"/>
							<ellipse cx="1528.5" cy="444.7" rx="9.5" ry="4.3"/>
							<g>
								<circle class="st15" cx="1513.6" cy="469.8" r="0.8"/>
								<circle class="st15" cx="1521.8" cy="469.8" r="0.8"/>
								<circle class="st15" cx="1529.9" cy="469.8" r="0.8"/>
							</g>
							<g>
								<circle cx="1507.8" cy="543.4" r="2.1"/>
								<circle cx="1549.3" cy="543.4" r="2.1"/>
							</g>
						</g>
					</g>
					<g>
						<rect x="1333.4" y="371.7" class="st9" width="65.3" height="22.3"/>
						<g>
							<rect x="1333.4" y="394" class="st10" width="65.2" height="228.1"/>
						</g>
						<g class="st11">
							<rect x="1334.6" y="395.1" class="st12" width="62.8" height="225.8"/>
							<g>
								<rect x="1334.6" y="416" width="2.8" height="4.8"/>
								<rect x="1334.6" y="466.8" width="2.8" height="4.8"/>
								<rect x="1334.6" y="517.7" width="2.8" height="4.8"/>
							</g>
							<rect x="1334.6" y="536.8" class="st13" width="62.8" height="1.8"/>
							<path d="M1375.8,558.4h-19.5c-0.2,0-0.3-0.1-0.3-0.3v-7.4c0-0.2,0.1-0.3,0.3-0.3h19.5c0.2,0,0.3,0.1,0.3,0.3v7.4
								C1376.1,558.2,1376,558.4,1375.8,558.4z"/>
							<rect x="1349.3" y="466.9" width="19.8" height="4.7"/>
							<path d="M1387.7,499.2V482c0-0.5,0.4-0.9,0.9-0.9h2.9c0.5,0,0.9,0.4,0.9,0.9v17.2c0,0.5-0.4,0.9-0.9,0.9h-2.9
								C1388.1,500.1,1387.7,499.7,1387.7,499.2z"/>
							<path d="M1380.2,435.5h-28.4c-0.2,0-0.3-0.1-0.3-0.3v-14.8c0-0.2,0.1-0.3,0.3-0.3h28.4c0.2,0,0.3,0.1,0.3,0.3v14.8
								C1380.6,435.3,1380.4,435.5,1380.2,435.5z"/>
							<path class="st14" d="M1373.6,431.1h-15.1c-0.1,0-0.2-0.1-0.2-0.2v-8.2c0-0.1,0.1-0.2,0.2-0.2h15.1c0.1,0,0.2,0.1,0.2,0.2
								v8.2C1373.8,431,1373.7,431.1,1373.6,431.1z"/>
							<path class="st15" d="M1379.8,421.6h-27.6c-0.1,0-0.2-0.1-0.2-0.2v-0.6c0-0.1,0.1-0.2,0.2-0.2h27.6c0.1,0,0.2,0.1,0.2,0.2
								v0.6C1380,421.5,1379.9,421.6,1379.8,421.6z"/>
							<ellipse cx="1366" cy="444.7" rx="9.5" ry="4.3"/>
							<g>
								<circle class="st15" cx="1351.1" cy="469.8" r="0.8"/>
								<circle class="st15" cx="1359.3" cy="469.8" r="0.8"/>
								<circle class="st15" cx="1367.4" cy="469.8" r="0.8"/>
							</g>
							<g>
								<circle cx="1345.3" cy="543.4" r="2.1"/>
								<circle cx="1386.8" cy="543.4" r="2.1"/>
							</g>
						</g>
					</g>
					<g>
						<rect x="1170.9" y="371.7" class="st9" width="65.3" height="22.3"/>
						<g>
							<rect x="1170.9" y="394" class="st10" width="65.2" height="228.1"/>
						</g>
						<g class="st11">
							<rect x="1172.1" y="395.1" class="st12" width="62.8" height="225.8"/>
							<g>
								<rect x="1172.1" y="416" width="2.8" height="4.8"/>
								<rect x="1172.1" y="466.8" width="2.8" height="4.8"/>
								<rect x="1172.1" y="517.7" width="2.8" height="4.8"/>
							</g>
							<rect x="1172.1" y="536.8" class="st13" width="62.8" height="1.8"/>
							<path d="M1213.3,558.4h-19.5c-0.2,0-0.3-0.1-0.3-0.3v-7.4c0-0.2,0.1-0.3,0.3-0.3h19.5c0.2,0,0.3,0.1,0.3,0.3v7.4
								C1213.6,558.2,1213.5,558.4,1213.3,558.4z"/>
							<rect x="1186.8" y="466.9" width="19.8" height="4.7"/>
							<path d="M1225.2,499.2V482c0-0.5,0.4-0.9,0.9-0.9h2.9c0.5,0,0.9,0.4,0.9,0.9v17.2c0,0.5-0.4,0.9-0.9,0.9h-2.9
								C1225.6,500.1,1225.2,499.7,1225.2,499.2z"/>
							<path d="M1217.7,435.5h-28.4c-0.2,0-0.3-0.1-0.3-0.3v-14.8c0-0.2,0.1-0.3,0.3-0.3h28.4c0.2,0,0.3,0.1,0.3,0.3v14.8
								C1218.1,435.3,1217.9,435.5,1217.7,435.5z"/>
							<path class="st14" d="M1211.1,431.1H1196c-0.1,0-0.2-0.1-0.2-0.2v-8.2c0-0.1,0.1-0.2,0.2-0.2h15.1c0.1,0,0.2,0.1,0.2,0.2v8.2
								C1211.3,431,1211.2,431.1,1211.1,431.1z"/>
							<path class="st15" d="M1217.3,421.6h-27.6c-0.1,0-0.2-0.1-0.2-0.2v-0.6c0-0.1,0.1-0.2,0.2-0.2h27.6c0.1,0,0.2,0.1,0.2,0.2
								v0.6C1217.5,421.5,1217.4,421.6,1217.3,421.6z"/>
							<ellipse cx="1203.5" cy="444.7" rx="9.5" ry="4.3"/>
							<g>
								<circle class="st15" cx="1188.6" cy="469.8" r="0.8"/>
								<circle class="st15" cx="1196.8" cy="469.8" r="0.8"/>
								<circle class="st15" cx="1204.9" cy="469.8" r="0.8"/>
							</g>
							<g>
								<circle cx="1182.8" cy="543.4" r="2.1"/>
								<circle cx="1224.3" cy="543.4" r="2.1"/>
							</g>
						</g>
					</g>
					<g>
						<rect x="1008.4" y="371.7" class="st9" width="65.3" height="22.3"/>
						<g>
							<rect x="1008.4" y="394" class="st10" width="65.2" height="228.1"/>
						</g>
						<g class="st11">
							<rect x="1009.6" y="395.1" class="st12" width="62.8" height="225.8"/>
							<g>
								<rect x="1009.6" y="416" width="2.8" height="4.8"/>
								<rect x="1009.6" y="466.8" width="2.8" height="4.8"/>
								<rect x="1009.6" y="517.7" width="2.8" height="4.8"/>
							</g>
							<rect x="1009.6" y="536.8" class="st13" width="62.8" height="1.8"/>
							<path d="M1050.8,558.4h-19.5c-0.2,0-0.3-0.1-0.3-0.3v-7.4c0-0.2,0.1-0.3,0.3-0.3h19.5c0.2,0,0.3,0.1,0.3,0.3v7.4
								C1051.1,558.2,1051,558.4,1050.8,558.4z"/>
							<rect x="1024.3" y="466.9" width="19.8" height="4.7"/>
							<path d="M1062.7,499.2V482c0-0.5,0.4-0.9,0.9-0.9h2.9c0.5,0,0.9,0.4,0.9,0.9v17.2c0,0.5-0.4,0.9-0.9,0.9h-2.9
								C1063.1,500.1,1062.7,499.7,1062.7,499.2z"/>
							<path d="M1055.2,435.5h-28.4c-0.2,0-0.3-0.1-0.3-0.3v-14.8c0-0.2,0.1-0.3,0.3-0.3h28.4c0.2,0,0.3,0.1,0.3,0.3v14.8
								C1055.5,435.3,1055.4,435.5,1055.2,435.5z"/>
							<path class="st14" d="M1048.6,431.1h-15.1c-0.1,0-0.2-0.1-0.2-0.2v-8.2c0-0.1,0.1-0.2,0.2-0.2h15.1c0.1,0,0.2,0.1,0.2,0.2
								v8.2C1048.8,431,1048.7,431.1,1048.6,431.1z"/>
							<path class="st15" d="M1054.8,421.6h-27.6c-0.1,0-0.2-0.1-0.2-0.2v-0.6c0-0.1,0.1-0.2,0.2-0.2h27.6c0.1,0,0.2,0.1,0.2,0.2
								v0.6C1055,421.5,1054.9,421.6,1054.8,421.6z"/>
							<ellipse cx="1041" cy="444.7" rx="9.5" ry="4.3"/>
							<g>
								<circle class="st15" cx="1026.1" cy="469.8" r="0.8"/>
								<circle class="st15" cx="1034.3" cy="469.8" r="0.8"/>
								<circle class="st15" cx="1042.4" cy="469.8" r="0.8"/>
							</g>
							<g>
								<circle cx="1020.3" cy="543.4" r="2.1"/>
								<circle cx="1061.8" cy="543.4" r="2.1"/>
							</g>
						</g>
					</g>
					<g>
						<rect x="683.4" y="371.7" class="st9" width="65.3" height="22.3"/>
						<g>
							<rect x="683.4" y="394" class="st10" width="65.2" height="228.1"/>
						</g>
						<g class="st11">
							<rect x="684.6" y="395.1" class="st12" width="62.8" height="225.8"/>
							<g>
								<rect x="684.6" y="416" width="2.8" height="4.8"/>
								<rect x="684.6" y="466.8" width="2.8" height="4.8"/>
								<rect x="684.6" y="517.7" width="2.8" height="4.8"/>
							</g>
							<rect x="684.6" y="536.8" class="st13" width="62.8" height="1.8"/>
							<path d="M725.8,558.4h-19.5c-0.2,0-0.3-0.1-0.3-0.3v-7.4c0-0.2,0.1-0.3,0.3-0.3h19.5c0.2,0,0.3,0.1,0.3,0.3v7.4
								C726.1,558.2,725.9,558.4,725.8,558.4z"/>
							<rect x="699.3" y="466.9" width="19.8" height="4.7"/>
							<path d="M737.6,499.2V482c0-0.5,0.4-0.9,0.9-0.9h2.9c0.5,0,0.9,0.4,0.9,0.9v17.2c0,0.5-0.4,0.9-0.9,0.9h-2.9
								C738.1,500.1,737.6,499.7,737.6,499.2z"/>
							<path d="M730.2,435.5h-28.4c-0.2,0-0.3-0.1-0.3-0.3v-14.8c0-0.2,0.1-0.3,0.3-0.3h28.4c0.2,0,0.3,0.1,0.3,0.3v14.8
								C730.5,435.3,730.4,435.5,730.2,435.5z"/>
							<path class="st14" d="M723.5,431.1h-15.1c-0.1,0-0.2-0.1-0.2-0.2v-8.2c0-0.1,0.1-0.2,0.2-0.2h15.1c0.1,0,0.2,0.1,0.2,0.2v8.2
								C723.8,431,723.7,431.1,723.5,431.1z"/>
							<path class="st15" d="M729.8,421.6h-27.6c-0.1,0-0.2-0.1-0.2-0.2v-0.6c0-0.1,0.1-0.2,0.2-0.2h27.6c0.1,0,0.2,0.1,0.2,0.2v0.6
								C730,421.5,729.9,421.6,729.8,421.6z"/>
							<ellipse cx="716" cy="444.7" rx="9.5" ry="4.3"/>
							<g>
								<circle class="st15" cx="701.1" cy="469.8" r="0.8"/>
								<circle class="st15" cx="709.2" cy="469.8" r="0.8"/>
								<circle class="st15" cx="717.4" cy="469.8" r="0.8"/>
							</g>
							<g>
								<circle cx="695.2" cy="543.4" r="2.1"/>
								<circle cx="736.8" cy="543.4" r="2.1"/>
							</g>
						</g>
					</g>
					<g>
						<rect x="520.9" y="371.7" class="st9" width="65.3" height="22.3"/>
						<g>
							<rect x="520.9" y="394" class="st10" width="65.2" height="228.1"/>
						</g>
						<g class="st11">
							<rect x="522.1" y="395.1" class="st12" width="62.8" height="225.8"/>
							<g>
								<rect x="522.1" y="416" width="2.8" height="4.8"/>
								<rect x="522.1" y="466.8" width="2.8" height="4.8"/>
								<rect x="522.1" y="517.7" width="2.8" height="4.8"/>
							</g>
							<rect x="522.1" y="536.8" class="st13" width="62.8" height="1.8"/>
							<path d="M563.3,558.4h-19.5c-0.2,0-0.3-0.1-0.3-0.3v-7.4c0-0.2,0.1-0.3,0.3-0.3h19.5c0.2,0,0.3,0.1,0.3,0.3v7.4
								C563.6,558.2,563.4,558.4,563.3,558.4z"/>
							<rect x="536.8" y="466.9" width="19.8" height="4.7"/>
							<path d="M575.1,499.2V482c0-0.5,0.4-0.9,0.9-0.9h2.9c0.5,0,0.9,0.4,0.9,0.9v17.2c0,0.5-0.4,0.9-0.9,0.9H576
								C575.5,500.1,575.1,499.7,575.1,499.2z"/>
							<path d="M567.7,435.5h-28.4c-0.2,0-0.3-0.1-0.3-0.3v-14.8c0-0.2,0.1-0.3,0.3-0.3h28.4c0.2,0,0.3,0.1,0.3,0.3v14.8
								C568,435.3,567.9,435.5,567.7,435.5z"/>
							<path class="st14" d="M561,431.1h-15c-0.1,0-0.2-0.1-0.2-0.2v-8.2c0-0.1,0.1-0.2,0.2-0.2h15c0.1,0,0.2,0.1,0.2,0.2v8.2
								C561.2,431,561.1,431.1,561,431.1z"/>
							<path class="st15" d="M567.3,421.6h-27.6c-0.1,0-0.2-0.1-0.2-0.2v-0.6c0-0.1,0.1-0.2,0.2-0.2h27.6c0.1,0,0.2,0.1,0.2,0.2v0.6
								C567.5,421.5,567.4,421.6,567.3,421.6z"/>
							<ellipse cx="553.5" cy="444.7" rx="9.5" ry="4.3"/>
							<g>
								<circle class="st15" cx="538.6" cy="469.8" r="0.8"/>
								<circle class="st15" cx="546.7" cy="469.8" r="0.8"/>
								<circle class="st15" cx="554.9" cy="469.8" r="0.8"/>
							</g>
							<g>
								<circle cx="532.7" cy="543.4" r="2.1"/>
								<circle cx="574.3" cy="543.4" r="2.1"/>
							</g>
						</g>
					</g>
					<g>
						<rect x="195.8" y="371.7" class="st9" width="65.3" height="22.3"/>
						<g>
							<rect x="195.9" y="394" class="st10" width="65.2" height="228.1"/>
						</g>
						<g class="st11">
							<rect x="197.1" y="395.1" class="st12" width="62.8" height="225.8"/>
							<g>
								<rect x="197.1" y="416" width="2.8" height="4.8"/>
								<rect x="197.1" y="466.8" width="2.8" height="4.8"/>
								<rect x="197.1" y="517.7" width="2.8" height="4.8"/>
							</g>
							<rect x="197.1" y="536.8" class="st13" width="62.8" height="1.8"/>
							<path d="M238.2,558.4h-19.5c-0.2,0-0.3-0.1-0.3-0.3v-7.4c0-0.2,0.1-0.3,0.3-0.3h19.5c0.2,0,0.3,0.1,0.3,0.3v7.4
								C238.5,558.2,238.4,558.4,238.2,558.4z"/>
							<rect x="211.7" y="466.9" width="19.8" height="4.7"/>
							<path d="M250.1,499.2V482c0-0.5,0.4-0.9,0.9-0.9h2.9c0.5,0,0.9,0.4,0.9,0.9v17.2c0,0.5-0.4,0.9-0.9,0.9H251
								C250.5,500.1,250.1,499.7,250.1,499.2z"/>
							<path d="M242.7,435.5h-28.4c-0.2,0-0.3-0.1-0.3-0.3v-14.8c0-0.2,0.1-0.3,0.3-0.3h28.4c0.2,0,0.3,0.1,0.3,0.3v14.8
								C243,435.3,242.9,435.5,242.7,435.5z"/>
							<path class="st14" d="M236,431.1h-15c-0.1,0-0.2-0.1-0.2-0.2v-8.2c0-0.1,0.1-0.2,0.2-0.2h15c0.1,0,0.2,0.1,0.2,0.2v8.2
								C236.2,431,236.1,431.1,236,431.1z"/>
							<path class="st15" d="M242.3,421.6h-27.6c-0.1,0-0.2-0.1-0.2-0.2v-0.6c0-0.1,0.1-0.2,0.2-0.2h27.6c0.1,0,0.2,0.1,0.2,0.2v0.6
								C242.5,421.5,242.4,421.6,242.3,421.6z"/>
							<ellipse cx="228.5" cy="444.7" rx="9.5" ry="4.3"/>
							<g>
								<circle class="st15" cx="213.6" cy="469.8" r="0.8"/>
								<circle class="st15" cx="221.7" cy="469.8" r="0.8"/>
								<circle class="st15" cx="229.9" cy="469.8" r="0.8"/>
							</g>
							<g>
								<circle cx="207.7" cy="543.4" r="2.1"/>
								<circle cx="249.2" cy="543.4" r="2.1"/>
							</g>
						</g>
					</g>
					<g>
						<rect x="358.3" y="371.7" class="st9" width="65.3" height="22.3"/>
						<g>
							<rect x="358.4" y="394" class="st10" width="65.2" height="228.1"/>
						</g>
						<g class="st11">
							<rect x="359.6" y="395.1" class="st12" width="62.8" height="225.8"/>
							<g>
								<rect x="359.6" y="416" width="2.8" height="4.8"/>
								<rect x="359.6" y="466.8" width="2.8" height="4.8"/>
								<rect x="359.6" y="517.7" width="2.8" height="4.8"/>
							</g>
							<rect x="359.6" y="536.8" class="st13" width="62.8" height="1.8"/>
							<path d="M400.8,558.4h-19.5c-0.2,0-0.3-0.1-0.3-0.3v-7.4c0-0.2,0.1-0.3,0.3-0.3h19.5c0.2,0,0.3,0.1,0.3,0.3v7.4
								C401.1,558.2,400.9,558.4,400.8,558.4z"/>
							<rect x="374.2" y="466.9" width="19.8" height="4.7"/>
							<path d="M412.6,499.2V482c0-0.5,0.4-0.9,0.9-0.9h2.9c0.5,0,0.9,0.4,0.9,0.9v17.2c0,0.5-0.4,0.9-0.9,0.9h-2.9
								C413,500.1,412.6,499.7,412.6,499.2z"/>
							<path d="M405.2,435.5h-28.4c-0.2,0-0.3-0.1-0.3-0.3v-14.8c0-0.2,0.1-0.3,0.3-0.3h28.4c0.2,0,0.3,0.1,0.3,0.3v14.8
								C405.5,435.3,405.4,435.5,405.2,435.5z"/>
							<path class="st14" d="M398.5,431.1h-15.1c-0.1,0-0.2-0.1-0.2-0.2v-8.2c0-0.1,0.1-0.2,0.2-0.2h15.1c0.1,0,0.2,0.1,0.2,0.2v8.2
								C398.7,431,398.6,431.1,398.5,431.1z"/>
							<path class="st15" d="M404.8,421.6h-27.6c-0.1,0-0.2-0.1-0.2-0.2v-0.6c0-0.1,0.1-0.2,0.2-0.2h27.6c0.1,0,0.2,0.1,0.2,0.2v0.6
								C405,421.5,404.9,421.6,404.8,421.6z"/>
							<ellipse cx="391" cy="444.7" rx="9.5" ry="4.3"/>
							<g>
								<circle class="st15" cx="376.1" cy="469.8" r="0.8"/>
								<circle class="st15" cx="384.2" cy="469.8" r="0.8"/>
								<circle class="st15" cx="392.4" cy="469.8" r="0.8"/>
							</g>
							<g>
								<circle cx="370.2" cy="543.4" r="2.1"/>
								<circle cx="411.8" cy="543.4" r="2.1"/>
							</g>
						</g>
					</g>
					<g>
						<rect x="845.9" y="371.7" class="st9" width="65.3" height="22.3"/>
						<g>
							<rect x="845.9" y="394" class="st10" width="65.2" height="228.1"/>
						</g>
						<g class="st11">
							<rect x="847.1" y="395.1" class="st12" width="62.8" height="225.8"/>
							<g>
								<rect x="847.1" y="416" width="2.8" height="4.8"/>
								<rect x="847.1" y="466.8" width="2.8" height="4.8"/>
								<rect x="847.1" y="517.7" width="2.8" height="4.8"/>
							</g>
							<rect x="847.1" y="536.8" class="st13" width="62.8" height="1.8"/>
							<path d="M888.3,558.4h-19.5c-0.2,0-0.3-0.1-0.3-0.3v-7.4c0-0.2,0.1-0.3,0.3-0.3h19.5c0.2,0,0.3,0.1,0.3,0.3v7.4
								C888.6,558.2,888.4,558.4,888.3,558.4z"/>
							<rect x="861.8" y="466.9" width="19.8" height="4.7"/>
							<path d="M900.2,499.2V482c0-0.5,0.4-0.9,0.9-0.9h2.9c0.5,0,0.9,0.4,0.9,0.9v17.2c0,0.5-0.4,0.9-0.9,0.9h-2.9
								C900.6,500.1,900.2,499.7,900.2,499.2z"/>
							<path d="M892.7,435.5h-28.4c-0.2,0-0.3-0.1-0.3-0.3v-14.8c0-0.2,0.1-0.3,0.3-0.3h28.4c0.2,0,0.3,0.1,0.3,0.3v14.8
								C893,435.3,892.9,435.5,892.7,435.5z"/>
							<path class="st14" d="M886,431.1h-15c-0.1,0-0.2-0.1-0.2-0.2v-8.2c0-0.1,0.1-0.2,0.2-0.2h15c0.1,0,0.2,0.1,0.2,0.2v8.2
								C886.3,431,886.2,431.1,886,431.1z"/>
							<path class="st15" d="M892.3,421.6h-27.6c-0.1,0-0.2-0.1-0.2-0.2v-0.6c0-0.1,0.1-0.2,0.2-0.2h27.6c0.1,0,0.2,0.1,0.2,0.2v0.6
								C892.5,421.5,892.4,421.6,892.3,421.6z"/>
							<ellipse cx="878.5" cy="444.7" rx="9.5" ry="4.3"/>
							<g>
								<circle class="st15" cx="863.6" cy="469.8" r="0.8"/>
								<circle class="st15" cx="871.7" cy="469.8" r="0.8"/>
								<circle class="st15" cx="879.9" cy="469.8" r="0.8"/>
							</g>
							<g>
								<circle cx="857.7" cy="543.4" r="2.1"/>
								<circle cx="899.3" cy="543.4" r="2.1"/>
							</g>
						</g>
					</g>
				</g>
				<g>
					<g>
						<g>
							<g>
								<g>
									<path class="st4" d="M243.2,896.9L243,898h-1.3l-0.4,1.7h1.4l-0.3,1.1H241l-0.5,2.4h-1.3l0.5-2.4h-1.5l-0.5,2.4h-1.3
										l0.5-2.4h-1.3l0.2-1.1h1.3l0.4-1.7h-1.4l0.2-1.1h1.4l0.5-2.4h1.3l-0.5,2.4h1.5l0.5-2.4h1.3l-0.5,2.4H243.2z M240.4,898.1
										h-1.6l-0.4,1.7h1.6L240.4,898.1z"/>
								</g>
							</g>
							<g class="st3">
								<path class="st4" d="M233.3,912.3h-7.7v-2h2.6v-7.9l-2.6,0.6v-2.1l5.2-1.1v10.5h2.5V912.3z"/>
							</g>
							<g class="st3">
								<path class="st4" d="M221.4,934.1c0.9-1.4,1.5-2.9,1.9-4.5h-1.8v-2.1h1.8v-2.8h2.1v2.8h1.8v2.1h-1.8v1.5
									c0.7,0.4,1.4,0.8,2.2,1.3l-1,1.8l-1.2-0.8v6.8h-2.1v-5.6c-0.4,0.8-0.8,1.6-1.2,2.3C222,936.2,221.7,935.2,221.4,934.1z
									 M235.7,934c0.5,0.2,1,0.4,1.6,0.6c-0.1,2.2-0.2,3.5-0.3,4c-0.1,0.5-0.3,0.8-0.6,1s-0.6,0.3-1.1,0.3H234
									c-1,0-1.5-0.6-1.5-1.9v-10.4h-2.3v4.4c0,2.3-0.2,4-0.6,5.1c-0.4,1-1,2.1-2,3.1c-0.5-0.6-1.1-1.2-1.7-1.9
									c0.9-0.9,1.4-1.9,1.7-2.8s0.4-2.6,0.4-4.9v-5.3h6.7v12c0,0.4,0.1,0.5,0.3,0.5c0.1,0,0.2,0,0.3-0.1c0.1-0.1,0.1-0.4,0.2-1
									C235.6,936.1,235.6,935.2,235.7,934z"/>
								<path class="st4" d="M236.9,951.6c-1,0.5-2,1.1-3.2,1.6c1.1,0.7,2.3,1.3,3.6,1.6c-0.3,0.4-0.8,1.1-1.4,2.1
									c-2.2-0.8-3.9-2.2-5.3-3.9v2.2c0,1.4-0.7,2.2-2,2.3c-0.8,0-1.6,0.1-2.4,0.1c-0.1-0.6-0.3-1.3-0.5-2c0.7,0.1,1.3,0.1,1.7,0.1
									c0.6,0,1-0.3,1-0.9v-4.9h-2.3v0.3H224v-2.6c-0.5,0.4-1.1,0.7-1.6,1c-0.4-0.8-0.7-1.5-1.1-2.1c1.4-0.6,2.7-1.4,3.8-2.4h-3.4
									v-1.7h15.1v1.7h-9.1c-0.3,0.4-0.7,0.7-1,1.1h8.6v4.6h-4.7v0.3c0.5,0.7,1,1.3,1.5,1.9c1.3-0.7,2.4-1.3,3.4-2.1L236.9,951.6z
									 M222,952.4v-1.7h5.7v1.6c-1,2-2.7,3.6-5,4.7c-0.3-0.5-0.7-1.1-1.4-2c1.8-0.7,3.1-1.5,4.1-2.6H222z M233.3,948.2v-1.5h-7.1
									v1.5H233.3z"/>
							</g>
						</g>
					</g>
				</g>
				<g>
					<g>
						<g>
							<g>
								<g>
									<path class="st4" d="M405.8,896.9l-0.2,1.1h-1.3l-0.4,1.7h1.4l-0.3,1.1h-1.4l-0.5,2.4h-1.3l0.5-2.4h-1.5l-0.5,2.4H399
										l0.5-2.4h-1.3l0.2-1.1h1.3l0.4-1.7h-1.4l0.2-1.1h1.4l0.5-2.4h1.3l-0.5,2.4h1.5l0.5-2.4h1.3l-0.5,2.4H405.8z M403,898.1
										h-1.6l-0.4,1.7h1.6L403,898.1z"/>
								</g>
							</g>
							<g class="st3">
								<path class="st4" d="M396,912h-8v-2l3.5-3.4c0.7-0.7,1.3-1.3,1.6-1.8c0.3-0.5,0.4-1,0.4-1.5c0-1.2-0.6-1.8-1.9-1.8
									c-1.1,0-2.1,0.4-3.1,1.3v-2.3c1.1-0.7,2.2-1,3.6-1c1.2,0,2.2,0.3,2.9,0.9c0.7,0.6,1.1,1.5,1.1,2.6c0,1.4-0.9,2.9-2.6,4.5
									l-2.6,2.3v0h5.1V912z"/>
							</g>
							<g class="st3">
								<path class="st4" d="M384,934.1c0.9-1.4,1.5-2.9,1.9-4.5h-1.8v-2.1h1.8v-2.8h2.1v2.8h1.8v2.1H388v1.5
									c0.7,0.4,1.4,0.8,2.2,1.3l-1,1.8l-1.2-0.8v6.8h-2.1v-5.6c-0.4,0.8-0.8,1.6-1.2,2.3C384.5,936.2,384.3,935.2,384,934.1z
									 M398.2,934c0.5,0.2,1,0.4,1.6,0.6c-0.1,2.2-0.2,3.5-0.3,4c-0.1,0.5-0.3,0.8-0.6,1s-0.6,0.3-1.1,0.3h-1.2
									c-1,0-1.5-0.6-1.5-1.9v-10.4h-2.3v4.4c0,2.3-0.2,4-0.6,5.1c-0.4,1-1,2.1-2,3.1c-0.5-0.6-1.1-1.2-1.7-1.9
									c0.9-0.9,1.4-1.9,1.7-2.8s0.4-2.6,0.4-4.9v-5.3h6.7v12c0,0.4,0.1,0.5,0.3,0.5c0.1,0,0.2,0,0.3-0.1c0.1-0.1,0.1-0.4,0.2-1
									C398.2,936.1,398.2,935.2,398.2,934z"/>
								<path class="st4" d="M399.4,951.6c-1,0.5-2,1.1-3.2,1.6c1.1,0.7,2.3,1.3,3.6,1.6c-0.3,0.4-0.8,1.1-1.4,2.1
									c-2.2-0.8-3.9-2.2-5.3-3.9v2.2c0,1.4-0.7,2.2-2,2.3c-0.8,0-1.6,0.1-2.4,0.1c-0.1-0.6-0.3-1.3-0.5-2c0.7,0.1,1.3,0.1,1.7,0.1
									c0.6,0,1-0.3,1-0.9v-4.9h-2.3v0.3h-2.1v-2.6c-0.5,0.4-1.1,0.7-1.6,1c-0.4-0.8-0.7-1.5-1.1-2.1c1.4-0.6,2.7-1.4,3.8-2.4h-3.4
									v-1.7h15.1v1.7h-9.1c-0.3,0.4-0.7,0.7-1,1.1h8.6v4.6h-4.7v0.3c0.5,0.7,1,1.3,1.5,1.9c1.3-0.7,2.4-1.3,3.4-2.1L399.4,951.6z
									 M384.6,952.4v-1.7h5.7v1.6c-1,2-2.7,3.6-5,4.7c-0.3-0.5-0.7-1.1-1.4-2c1.8-0.7,3.1-1.5,4.1-2.6H384.6z M395.8,948.2v-1.5
									h-7.1v1.5H395.8z"/>
							</g>
						</g>
					</g>
				</g>
				<g>
					<g>
						<g>
							<g>
								<g>
									<path class="st4" d="M568.4,896.9l-0.2,1.1h-1.3l-0.4,1.7h1.4l-0.3,1.1h-1.4l-0.5,2.4h-1.3l0.5-2.4h-1.5l-0.5,2.4h-1.3
										l0.5-2.4h-1.3l0.2-1.1h1.3l0.4-1.7h-1.4l0.2-1.1h1.4l0.5-2.4h1.3l-0.5,2.4h1.5l0.5-2.4h1.3l-0.5,2.4H568.4z M565.5,898.1
										h-1.6l-0.4,1.7h1.6L565.5,898.1z"/>
								</g>
							</g>
							<g class="st3">
								<path class="st4" d="M550.6,909.4c0.8,0.6,1.8,0.9,2.9,0.9c0.7,0,1.2-0.2,1.7-0.5c0.4-0.3,0.6-0.7,0.6-1.3
									c0-0.6-0.2-1-0.7-1.3c-0.5-0.3-1.2-0.5-2-0.5h-1.1v-2h1c1.7,0,2.5-0.6,2.5-1.7c0-1-0.6-1.6-1.9-1.6c-0.8,0-1.6,0.3-2.4,0.8
									v-2.1c0.8-0.4,1.8-0.7,3-0.7c1.2,0,2.1,0.3,2.8,0.8c0.7,0.5,1.1,1.3,1.1,2.2c0,1.6-0.8,2.6-2.4,3v0c0.9,0.1,1.5,0.4,2.1,0.9
									c0.5,0.5,0.8,1.2,0.8,1.9c0,1.2-0.4,2.1-1.3,2.7c-0.9,0.7-2,1-3.4,1c-1.3,0-2.3-0.2-3.1-0.6V909.4z"/>
							</g>
							<g class="st3">
								<path class="st4" d="M546.5,934.1c0.9-1.4,1.5-2.9,1.9-4.5h-1.8v-2.1h1.8v-2.8h2.1v2.8h1.8v2.1h-1.8v1.5
									c0.7,0.4,1.4,0.8,2.2,1.3l-1,1.8l-1.2-0.8v6.8h-2.1v-5.6c-0.4,0.8-0.8,1.6-1.2,2.3C547.1,936.2,546.9,935.2,546.5,934.1z
									 M560.8,934c0.5,0.2,1,0.4,1.6,0.6c-0.1,2.2-0.2,3.5-0.3,4c-0.1,0.5-0.3,0.8-0.6,1s-0.6,0.3-1.1,0.3h-1.2
									c-1,0-1.5-0.6-1.5-1.9v-10.4h-2.3v4.4c0,2.3-0.2,4-0.6,5.1c-0.4,1-1,2.1-2,3.1c-0.5-0.6-1.1-1.2-1.7-1.9
									c0.9-0.9,1.4-1.9,1.7-2.8s0.4-2.6,0.4-4.9v-5.3h6.7v12c0,0.4,0.1,0.5,0.3,0.5c0.1,0,0.2,0,0.3-0.1c0.1-0.1,0.1-0.4,0.2-1
									C560.7,936.1,560.8,935.2,560.8,934z"/>
								<path class="st4" d="M562,951.6c-1,0.5-2,1.1-3.2,1.6c1.1,0.7,2.3,1.3,3.6,1.6c-0.3,0.4-0.8,1.1-1.4,2.1
									c-2.2-0.8-3.9-2.2-5.3-3.9v2.2c0,1.4-0.7,2.2-2,2.3c-0.8,0-1.6,0.1-2.4,0.1c-0.1-0.6-0.3-1.3-0.5-2c0.7,0.1,1.3,0.1,1.7,0.1
									c0.6,0,1-0.3,1-0.9v-4.9h-2.3v0.3h-2.1v-2.6c-0.5,0.4-1.1,0.7-1.6,1c-0.4-0.8-0.7-1.5-1.1-2.1c1.4-0.6,2.7-1.4,3.8-2.4h-3.4
									v-1.7H562v1.7h-9.1c-0.3,0.4-0.7,0.7-1,1.1h8.6v4.6h-4.7v0.3c0.5,0.7,1,1.3,1.5,1.9c1.3-0.7,2.4-1.3,3.4-2.1L562,951.6z
									 M547.1,952.4v-1.7h5.7v1.6c-1,2-2.7,3.6-5,4.7c-0.3-0.5-0.7-1.1-1.4-2c1.8-0.7,3.1-1.5,4.1-2.6H547.1z M558.4,948.2v-1.5
									h-7.1v1.5H558.4z"/>
							</g>
						</g>
					</g>
				</g>
				<g>
					<g>
						<g>
							<g>
								<g>
									<path class="st4" d="M730.9,896.9l-0.2,1.1h-1.3l-0.4,1.7h1.4l-0.3,1.1h-1.4l-0.5,2.4H727l0.5-2.4H726l-0.5,2.4h-1.3
										l0.5-2.4h-1.3l0.2-1.1h1.3l0.4-1.7h-1.4l0.2-1.1h1.4l0.5-2.4h1.3l-0.5,2.4h1.5l0.5-2.4h1.3l-0.5,2.4H730.9z M728.1,898.1
										h-1.6l-0.4,1.7h1.6L728.1,898.1z"/>
								</g>
							</g>
							<g class="st3">
								<path class="st4" d="M721.6,909.2h-1.5v2.7h-2.3v-2.7h-5.4v-1.6l5.2-8h2.6v7.8h1.5V909.2z M717.8,907.4v-4
									c0-0.3,0-0.7,0-1.2h0c0,0.1-0.1,0.2-0.2,0.4c-0.1,0.2-0.2,0.4-0.3,0.6l-2.8,4.3H717.8z"/>
							</g>
							<g class="st3">
								<path class="st4" d="M709.1,934.1c0.9-1.4,1.5-2.9,1.9-4.5h-1.8v-2.1h1.8v-2.8h2.1v2.8h1.8v2.1h-1.8v1.5
									c0.7,0.4,1.4,0.8,2.2,1.3l-1,1.8l-1.2-0.8v6.8h-2.1v-5.6c-0.4,0.8-0.8,1.6-1.2,2.3C709.7,936.2,709.4,935.2,709.1,934.1z
									 M723.3,934c0.5,0.2,1,0.4,1.6,0.6c-0.1,2.2-0.2,3.5-0.3,4c-0.1,0.5-0.3,0.8-0.6,1s-0.6,0.3-1.1,0.3h-1.2
									c-1,0-1.5-0.6-1.5-1.9v-10.4h-2.3v4.4c0,2.3-0.2,4-0.6,5.1c-0.4,1-1,2.1-2,3.1c-0.5-0.6-1.1-1.2-1.7-1.9
									c0.9-0.9,1.4-1.9,1.7-2.8s0.4-2.6,0.4-4.9v-5.3h6.7v12c0,0.4,0.1,0.5,0.3,0.5c0.1,0,0.2,0,0.3-0.1c0.1-0.1,0.1-0.4,0.2-1
									C723.3,936.1,723.3,935.2,723.3,934z"/>
								<path class="st4" d="M724.6,951.6c-1,0.5-2,1.1-3.2,1.6c1.1,0.7,2.3,1.3,3.6,1.6c-0.3,0.4-0.8,1.1-1.4,2.1
									c-2.2-0.8-3.9-2.2-5.3-3.9v2.2c0,1.4-0.7,2.2-2,2.3c-0.8,0-1.6,0.1-2.4,0.1c-0.1-0.6-0.3-1.3-0.5-2c0.7,0.1,1.3,0.1,1.7,0.1
									c0.6,0,1-0.3,1-0.9v-4.9h-2.3v0.3h-2.1v-2.6c-0.5,0.4-1.1,0.7-1.6,1c-0.4-0.8-0.7-1.5-1.1-2.1c1.4-0.6,2.7-1.4,3.8-2.4h-3.4
									v-1.7h15.1v1.7h-9.1c-0.3,0.4-0.7,0.7-1,1.1h8.6v4.6h-4.7v0.3c0.5,0.7,1,1.3,1.5,1.9c1.3-0.7,2.4-1.3,3.4-2.1L724.6,951.6z
									 M709.7,952.4v-1.7h5.7v1.6c-1,2-2.7,3.6-5,4.7c-0.3-0.5-0.7-1.1-1.4-2c1.8-0.7,3.1-1.5,4.1-2.6H709.7z M721,948.2v-1.5
									h-7.1v1.5H721z"/>
							</g>
						</g>
					</g>
				</g>
				<g>
					<g>
						<g>
							<g>
								<g>
									<path class="st4" d="M893.5,896.9l-0.2,1.1H892l-0.4,1.7h1.4l-0.3,1.1h-1.4l-0.5,2.4h-1.3l0.5-2.4h-1.5l-0.5,2.4h-1.3
										l0.5-2.4h-1.3l0.2-1.1h1.3l0.4-1.7h-1.4l0.2-1.1h1.4l0.5-2.4h1.3l-0.5,2.4h1.5l0.5-2.4h1.3l-0.5,2.4H893.5z M890.6,898.1
										H889l-0.4,1.7h1.6L890.6,898.1z"/>
								</g>
							</g>
							<g class="st3">
								<path class="st4" d="M875.7,909.5c0.9,0.5,1.7,0.8,2.7,0.8c0.7,0,1.3-0.2,1.7-0.5s0.6-0.8,0.6-1.5c0-1.3-0.9-1.9-2.6-1.9
									c-0.5,0-1.2,0-2,0.1v-6.8h6.7v2.1h-4.5v2.6c0.3,0,0.6-0.1,1-0.1c1.2,0,2.2,0.3,2.9,1c0.7,0.7,1.1,1.6,1.1,2.7
									c0,1.3-0.4,2.3-1.3,3.1s-2,1.1-3.4,1.1c-1.2,0-2.2-0.2-2.9-0.5V909.5z"/>
							</g>
							<g class="st3">
								<path class="st4" d="M871.7,934.1c0.9-1.4,1.5-2.9,1.9-4.5h-1.8v-2.1h1.8v-2.8h2.1v2.8h1.8v2.1h-1.8v1.5
									c0.7,0.4,1.4,0.8,2.2,1.3l-1,1.8l-1.2-0.8v6.8h-2.1v-5.6c-0.4,0.8-0.8,1.6-1.2,2.3C872.2,936.2,872,935.2,871.7,934.1z
									 M885.9,934c0.5,0.2,1,0.4,1.6,0.6c-0.1,2.2-0.2,3.5-0.3,4c-0.1,0.5-0.3,0.8-0.6,1s-0.6,0.3-1.1,0.3h-1.2
									c-1,0-1.5-0.6-1.5-1.9v-10.4h-2.3v4.4c0,2.3-0.2,4-0.6,5.1c-0.4,1-1,2.1-2,3.1c-0.5-0.6-1.1-1.2-1.7-1.9
									c0.9-0.9,1.4-1.9,1.7-2.8s0.4-2.6,0.4-4.9v-5.3h6.7v12c0,0.4,0.1,0.5,0.3,0.5c0.1,0,0.2,0,0.3-0.1c0.1-0.1,0.1-0.4,0.2-1
									C885.8,936.1,885.9,935.2,885.9,934z"/>
								<path class="st4" d="M887.1,951.6c-1,0.5-2,1.1-3.2,1.6c1.1,0.7,2.3,1.3,3.6,1.6c-0.3,0.4-0.8,1.1-1.4,2.1
									c-2.2-0.8-3.9-2.2-5.3-3.9v2.2c0,1.4-0.7,2.2-2,2.3c-0.8,0-1.6,0.1-2.4,0.1c-0.1-0.6-0.3-1.3-0.5-2c0.7,0.1,1.3,0.1,1.7,0.1
									c0.6,0,1-0.3,1-0.9v-4.9h-2.3v0.3h-2.1v-2.6c-0.5,0.4-1.1,0.7-1.6,1c-0.4-0.8-0.7-1.5-1.1-2.1c1.4-0.6,2.7-1.4,3.8-2.4H872
									v-1.7h15.1v1.7h-9.1c-0.3,0.4-0.7,0.7-1,1.1h8.6v4.6h-4.7v0.3c0.5,0.7,1,1.3,1.5,1.9c1.3-0.7,2.4-1.3,3.4-2.1L887.1,951.6z
									 M872.2,952.4v-1.7h5.7v1.6c-1,2-2.7,3.6-5,4.7c-0.3-0.5-0.7-1.1-1.4-2c1.8-0.7,3.1-1.5,4.1-2.6H872.2z M883.5,948.2v-1.5
									h-7.1v1.5H883.5z"/>
							</g>
						</g>
					</g>
				</g>
				<g>
					<g>
						<g>
							<g>
								<g>
									<path class="st4" d="M1056,896.9l-0.2,1.1h-1.3l-0.4,1.7h1.4l-0.3,1.1h-1.4l-0.5,2.4h-1.3l0.5-2.4h-1.5l-0.5,2.4h-1.3
										l0.5-2.4h-1.3l0.2-1.1h1.3l0.4-1.7h-1.4l0.2-1.1h1.4l0.5-2.4h1.3l-0.5,2.4h1.5l0.5-2.4h1.3l-0.5,2.4H1056z M1053.2,898.1
										h-1.6l-0.4,1.7h1.6L1053.2,898.1z"/>
								</g>
							</g>
							<g class="st3">
								<path class="st4" d="M1045.6,902.1c-0.6-0.4-1.3-0.5-2-0.5c-0.9,0-1.7,0.4-2.3,1.1s-0.9,1.7-0.9,2.9h0
									c0.6-0.9,1.5-1.3,2.6-1.3c1,0,1.8,0.4,2.5,1.1s0.9,1.6,0.9,2.8c0,1.2-0.4,2.3-1.2,3.1s-1.8,1.2-3,1.2
									c-1.4,0-2.5-0.5-3.2-1.5c-0.7-1-1.1-2.4-1.1-4.2c0-2.1,0.5-3.8,1.5-5.1c1-1.3,2.3-1.9,4.1-1.9c0.9,0,1.7,0.1,2.2,0.3V902.1z
									 M1040.5,908.1c0,0.6,0.2,1.2,0.5,1.6c0.3,0.4,0.7,0.7,1.3,0.7c0.5,0,0.9-0.2,1.2-0.6c0.3-0.4,0.5-0.9,0.5-1.5
									c0-1.4-0.6-2.1-1.7-2.1c-0.5,0-0.9,0.2-1.2,0.5C1040.6,907,1040.5,907.5,1040.5,908.1z"/>
							</g>
							<g class="st3">
								<path class="st4" d="M1034.2,934.1c0.9-1.4,1.5-2.9,1.9-4.5h-1.8v-2.1h1.8v-2.8h2.1v2.8h1.8v2.1h-1.8v1.5
									c0.7,0.4,1.4,0.8,2.2,1.3l-1,1.8l-1.2-0.8v6.8h-2.1v-5.6c-0.4,0.8-0.8,1.6-1.2,2.3C1034.8,936.2,1034.5,935.2,1034.2,934.1z
									 M1048.5,934c0.5,0.2,1,0.4,1.6,0.6c-0.1,2.2-0.2,3.5-0.3,4c-0.1,0.5-0.3,0.8-0.6,1c-0.3,0.2-0.6,0.3-1.1,0.3h-1.2
									c-1,0-1.5-0.6-1.5-1.9v-10.4h-2.3v4.4c0,2.3-0.2,4-0.6,5.1c-0.4,1-1,2.1-2,3.1c-0.5-0.6-1.1-1.2-1.7-1.9
									c0.9-0.9,1.4-1.9,1.7-2.8s0.4-2.6,0.4-4.9v-5.3h6.7v12c0,0.4,0.1,0.5,0.3,0.5c0.1,0,0.2,0,0.3-0.1s0.1-0.4,0.2-1
									C1048.4,936.1,1048.4,935.2,1048.5,934z"/>
								<path class="st4" d="M1049.7,951.6c-1,0.5-2,1.1-3.2,1.6c1.1,0.7,2.3,1.3,3.6,1.6c-0.3,0.4-0.8,1.1-1.4,2.1
									c-2.2-0.8-3.9-2.2-5.3-3.9v2.2c0,1.4-0.7,2.2-2,2.3c-0.8,0-1.6,0.1-2.4,0.1c-0.1-0.6-0.3-1.3-0.5-2c0.7,0.1,1.3,0.1,1.7,0.1
									c0.6,0,1-0.3,1-0.9v-4.9h-2.3v0.3h-2.1v-2.6c-0.5,0.4-1.1,0.7-1.6,1c-0.4-0.8-0.7-1.5-1.1-2.1c1.4-0.6,2.7-1.4,3.8-2.4h-3.4
									v-1.7h15.1v1.7h-9.1c-0.3,0.4-0.7,0.7-1,1.1h8.6v4.6h-4.7v0.3c0.5,0.7,1,1.3,1.5,1.9c1.3-0.7,2.4-1.3,3.4-2.1L1049.7,951.6z
									 M1034.8,952.4v-1.7h5.7v1.6c-1,2-2.7,3.6-5,4.7c-0.3-0.5-0.7-1.1-1.4-2c1.8-0.7,3.1-1.5,4.1-2.6H1034.8z M1046.1,948.2
									v-1.5h-7.1v1.5H1046.1z"/>
							</g>
						</g>
					</g>
				</g>
				<g>
					<g>
						<g>
							<g>
								<g>
									<path class="st4" d="M1218.6,896.9l-0.2,1.1h-1.3l-0.4,1.7h1.4l-0.3,1.1h-1.4l-0.5,2.4h-1.3l0.5-2.4h-1.5l-0.5,2.4h-1.3
										l0.5-2.4h-1.3l0.2-1.1h1.3l0.4-1.7h-1.4l0.2-1.1h1.4l0.5-2.4h1.3l-0.5,2.4h1.5l0.5-2.4h1.3l-0.5,2.4H1218.6z M1215.8,898.1
										h-1.6l-0.4,1.7h1.6L1215.8,898.1z"/>
								</g>
							</g>
							<g class="st3">
								<path class="st4" d="M1208.9,900.9l-4.4,11.1h-2.7l4.4-10.2h-5.8v-2.1h8.5V900.9z"/>
							</g>
							<g class="st3">
								<path class="st4" d="M1196.8,934.1c0.9-1.4,1.5-2.9,1.9-4.5h-1.8v-2.1h1.8v-2.8h2.1v2.8h1.8v2.1h-1.8v1.5
									c0.7,0.4,1.4,0.8,2.2,1.3l-1,1.8l-1.2-0.8v6.8h-2.1v-5.6c-0.4,0.8-0.8,1.6-1.2,2.3C1197.3,936.2,1197.1,935.2,1196.8,934.1z
									 M1211,934c0.5,0.2,1,0.4,1.6,0.6c-0.1,2.2-0.2,3.5-0.3,4c-0.1,0.5-0.3,0.8-0.6,1c-0.3,0.2-0.6,0.3-1.1,0.3h-1.2
									c-1,0-1.5-0.6-1.5-1.9v-10.4h-2.3v4.4c0,2.3-0.2,4-0.6,5.1c-0.4,1-1,2.1-2,3.1c-0.5-0.6-1.1-1.2-1.7-1.9
									c0.9-0.9,1.4-1.9,1.7-2.8s0.4-2.6,0.4-4.9v-5.3h6.7v12c0,0.4,0.1,0.5,0.3,0.5c0.1,0,0.2,0,0.3-0.1c0.1-0.1,0.1-0.4,0.2-1
									C1211,936.1,1211,935.2,1211,934z"/>
								<path class="st4" d="M1212.2,951.6c-1,0.5-2,1.1-3.2,1.6c1.1,0.7,2.3,1.3,3.6,1.6c-0.3,0.4-0.8,1.1-1.4,2.1
									c-2.2-0.8-3.9-2.2-5.3-3.9v2.2c0,1.4-0.7,2.2-2,2.3c-0.8,0-1.6,0.1-2.4,0.1c-0.1-0.6-0.3-1.3-0.5-2c0.7,0.1,1.3,0.1,1.7,0.1
									c0.6,0,1-0.3,1-0.9v-4.9h-2.3v0.3h-2.1v-2.6c-0.5,0.4-1.1,0.7-1.6,1c-0.4-0.8-0.7-1.5-1.1-2.1c1.4-0.6,2.7-1.4,3.8-2.4h-3.4
									v-1.7h15.1v1.7h-9.1c-0.3,0.4-0.7,0.7-1,1.1h8.6v4.6h-4.7v0.3c0.5,0.7,1,1.3,1.5,1.9c1.3-0.7,2.4-1.3,3.4-2.1L1212.2,951.6z
									 M1197.4,952.4v-1.7h5.7v1.6c-1,2-2.7,3.6-5,4.7c-0.3-0.5-0.7-1.1-1.4-2c1.8-0.7,3.1-1.5,4.1-2.6H1197.4z M1208.6,948.2
									v-1.5h-7.1v1.5H1208.6z"/>
							</g>
						</g>
					</g>
				</g>
				<g>
					<g>
						<g>
							<g>
								<g>
									<path class="st4" d="M1381.2,896.9l-0.2,1.1h-1.3l-0.4,1.7h1.4l-0.3,1.1h-1.4l-0.5,2.4h-1.3l0.5-2.4h-1.5l-0.5,2.4h-1.3
										l0.5-2.4h-1.3l0.2-1.1h1.3l0.4-1.7h-1.4l0.2-1.1h1.4l0.5-2.4h1.3l-0.5,2.4h1.5l0.5-2.4h1.3l-0.5,2.4H1381.2z M1378.3,898.1
										h-1.6l-0.4,1.7h1.6L1378.3,898.1z"/>
								</g>
							</g>
							<g class="st3">
								<path class="st4" d="M1365.4,905.5c-1.4-0.6-2.1-1.5-2.1-2.8c0-1,0.4-1.8,1.2-2.4c0.8-0.6,1.7-0.9,2.9-0.9
									c1.1,0,2.1,0.3,2.8,0.8c0.7,0.6,1.1,1.3,1.1,2.2c0,1.3-0.8,2.3-2.3,3v0c0.8,0.2,1.5,0.7,1.9,1.2c0.5,0.6,0.7,1.2,0.7,1.9
									c0,1.1-0.4,2-1.2,2.6s-1.9,0.9-3.3,0.9c-1.2,0-2.2-0.3-2.9-0.9c-0.8-0.6-1.2-1.4-1.2-2.4
									C1362.9,907.4,1363.8,906.3,1365.4,905.5L1365.4,905.5z M1367.2,906.6c-1.2,0.5-1.8,1.2-1.8,2.1c0,0.5,0.2,0.9,0.6,1.2
									c0.4,0.3,0.8,0.5,1.3,0.5c0.5,0,1-0.1,1.3-0.4c0.4-0.3,0.5-0.7,0.5-1.2C1369.1,907.7,1368.5,907,1367.2,906.6z
									 M1368.8,902.8c0-0.4-0.1-0.8-0.4-1c-0.3-0.3-0.6-0.4-1.1-0.4c-0.4,0-0.8,0.1-1.1,0.4c-0.3,0.3-0.5,0.6-0.5,1
									c0,0.8,0.5,1.4,1.5,1.8C1368.3,904.2,1368.8,903.6,1368.8,902.8z"/>
							</g>
							<g class="st3">
								<path class="st4" d="M1359.3,934.1c0.9-1.4,1.5-2.9,1.9-4.5h-1.8v-2.1h1.8v-2.8h2.1v2.8h1.8v2.1h-1.8v1.5
									c0.7,0.4,1.4,0.8,2.2,1.3l-1,1.8l-1.2-0.8v6.8h-2.1v-5.6c-0.4,0.8-0.8,1.6-1.2,2.3C1359.9,936.2,1359.7,935.2,1359.3,934.1z
									 M1373.6,934c0.5,0.2,1,0.4,1.6,0.6c-0.1,2.2-0.2,3.5-0.3,4c-0.1,0.5-0.3,0.8-0.6,1c-0.3,0.2-0.6,0.3-1.1,0.3h-1.2
									c-1,0-1.5-0.6-1.5-1.9v-10.4h-2.3v4.4c0,2.3-0.2,4-0.6,5.1c-0.4,1-1,2.1-2,3.1c-0.5-0.6-1.1-1.2-1.7-1.9
									c0.9-0.9,1.4-1.9,1.7-2.8s0.4-2.6,0.4-4.9v-5.3h6.7v12c0,0.4,0.1,0.5,0.3,0.5c0.1,0,0.2,0,0.3-0.1c0.1-0.1,0.1-0.4,0.2-1
									C1373.5,936.1,1373.6,935.2,1373.6,934z"/>
								<path class="st4" d="M1374.8,951.6c-1,0.5-2,1.1-3.2,1.6c1.1,0.7,2.3,1.3,3.6,1.6c-0.3,0.4-0.8,1.1-1.4,2.1
									c-2.2-0.8-3.9-2.2-5.3-3.9v2.2c0,1.4-0.7,2.2-2,2.3c-0.8,0-1.6,0.1-2.4,0.1c-0.1-0.6-0.3-1.3-0.5-2c0.7,0.1,1.3,0.1,1.7,0.1
									c0.6,0,1-0.3,1-0.9v-4.9h-2.3v0.3h-2.1v-2.6c-0.5,0.4-1.1,0.7-1.6,1c-0.4-0.8-0.7-1.5-1.1-2.1c1.4-0.6,2.7-1.4,3.8-2.4h-3.4
									v-1.7h15.1v1.7h-9.1c-0.3,0.4-0.7,0.7-1,1.1h8.6v4.6h-4.7v0.3c0.5,0.7,1,1.3,1.5,1.9c1.3-0.7,2.4-1.3,3.4-2.1L1374.8,951.6z
									 M1359.9,952.4v-1.7h5.7v1.6c-1,2-2.7,3.6-5,4.7c-0.3-0.5-0.7-1.1-1.4-2c1.8-0.7,3.1-1.5,4.1-2.6H1359.9z M1371.2,948.2
									v-1.5h-7.1v1.5H1371.2z"/>
							</g>
						</g>
					</g>
				</g>
				<g>
					<g>
						<g>
							<g>
								<g>
									<path class="st4" d="M1543.7,896.9l-0.2,1.1h-1.3l-0.4,1.7h1.4l-0.3,1.1h-1.4l-0.5,2.4h-1.3l0.5-2.4h-1.5l-0.5,2.4h-1.3
										l0.5-2.4h-1.3l0.2-1.1h1.3l0.4-1.7h-1.4l0.2-1.1h1.4l0.5-2.4h1.3l-0.5,2.4h1.5l0.5-2.4h1.3l-0.5,2.4H1543.7z M1540.9,898.1
										h-1.6l-0.4,1.7h1.6L1540.9,898.1z"/>
								</g>
							</g>
							<g class="st3">
								<path class="st4" d="M1526.2,909.5c0.7,0.4,1.4,0.6,2.3,0.6c2,0,3-1.3,3-3.9l0,0c-0.5,0.8-1.4,1.2-2.5,1.2
									c-1,0-1.9-0.4-2.5-1.1c-0.7-0.7-1-1.6-1-2.7c0-1.3,0.4-2.3,1.2-3.1c0.8-0.8,1.8-1.2,3.1-1.2c1.3,0,2.4,0.5,3.1,1.5
									c0.8,1,1.1,2.4,1.1,4.2c0,2.1-0.5,3.8-1.4,5.1c-0.9,1.2-2.2,1.9-3.9,1.9c-1,0-1.8-0.2-2.5-0.5V909.5z M1528,903.5
									c0,0.7,0.2,1.2,0.5,1.5c0.3,0.4,0.7,0.6,1.3,0.6c0.5,0,0.9-0.2,1.2-0.5c0.3-0.4,0.5-0.8,0.5-1.3c0-0.6-0.2-1.2-0.5-1.7
									c-0.3-0.5-0.7-0.7-1.3-0.7c-0.5,0-0.9,0.2-1.2,0.6C1528.2,902.4,1528,902.9,1528,903.5z"/>
							</g>
							<g class="st3">
								<path class="st4" d="M1521.9,934.1c0.9-1.4,1.5-2.9,1.9-4.5h-1.8v-2.1h1.8v-2.8h2.1v2.8h1.8v2.1h-1.8v1.5
									c0.7,0.4,1.4,0.8,2.2,1.3l-1,1.8l-1.2-0.8v6.8h-2.1v-5.6c-0.4,0.8-0.8,1.6-1.2,2.3C1522.5,936.2,1522.2,935.2,1521.9,934.1z
									 M1536.1,934c0.5,0.2,1,0.4,1.6,0.6c-0.1,2.2-0.2,3.5-0.3,4c-0.1,0.5-0.3,0.8-0.6,1c-0.3,0.2-0.6,0.3-1.1,0.3h-1.2
									c-1,0-1.5-0.6-1.5-1.9v-10.4h-2.3v4.4c0,2.3-0.2,4-0.6,5.1c-0.4,1-1,2.1-2,3.1c-0.5-0.6-1.1-1.2-1.7-1.9
									c0.9-0.9,1.4-1.9,1.7-2.8s0.4-2.6,0.4-4.9v-5.3h6.7v12c0,0.4,0.1,0.5,0.3,0.5c0.1,0,0.2,0,0.3-0.1s0.1-0.4,0.2-1
									C1536.1,936.1,1536.1,935.2,1536.1,934z"/>
								<path class="st4" d="M1537.4,951.6c-1,0.5-2,1.1-3.2,1.6c1.1,0.7,2.3,1.3,3.6,1.6c-0.3,0.4-0.8,1.1-1.4,2.1
									c-2.2-0.8-3.9-2.2-5.3-3.9v2.2c0,1.4-0.7,2.2-2,2.3c-0.8,0-1.6,0.1-2.4,0.1c-0.1-0.6-0.3-1.3-0.5-2c0.7,0.1,1.3,0.1,1.7,0.1
									c0.6,0,1-0.3,1-0.9v-4.9h-2.3v0.3h-2.1v-2.6c-0.5,0.4-1.1,0.7-1.6,1c-0.4-0.8-0.7-1.5-1.1-2.1c1.4-0.6,2.7-1.4,3.8-2.4h-3.4
									v-1.7h15.1v1.7h-9.1c-0.3,0.4-0.7,0.7-1,1.1h8.6v4.6h-4.7v0.3c0.5,0.7,1,1.3,1.5,1.9c1.3-0.7,2.4-1.3,3.4-2.1L1537.4,951.6z
									 M1522.5,952.4v-1.7h5.7v1.6c-1,2-2.7,3.6-5,4.7c-0.3-0.5-0.7-1.1-1.4-2c1.8-0.7,3.1-1.5,4.1-2.6H1522.5z M1533.8,948.2
									v-1.5h-7.1v1.5H1533.8z"/>
							</g>
						</g>
					</g>
				</g>
				<g>
					<g>
						<g>
							<g>
								<g>
									<path class="st4" d="M1706.3,896.9l-0.2,1.1h-1.3l-0.4,1.7h1.4l-0.3,1.1h-1.4l-0.5,2.4h-1.3l0.5-2.4h-1.5l-0.5,2.4h-1.3
										l0.5-2.4h-1.3l0.2-1.1h1.3l0.4-1.7h-1.4l0.2-1.1h1.4l0.5-2.4h1.3l-0.5,2.4h1.5l0.5-2.4h1.3l-0.5,2.4H1706.3z M1703.4,898.1
										h-1.6l-0.4,1.7h1.6L1703.4,898.1z"/>
								</g>
							</g>
							<g>
								<path class="st4" d="M1691.5,915.2h-7.7v-2h2.6v-7.9l-2.6,0.6v-2.1l5.2-1.1v10.5h2.5V915.2z"/>
								<path class="st4" d="M1692.2,909.2c0-2.1,0.4-3.8,1.2-4.9c0.8-1.1,1.9-1.7,3.4-1.7c2.8,0,4.2,2.1,4.2,6.3
									c0,2.1-0.4,3.6-1.2,4.8c-0.8,1.1-1.9,1.7-3.3,1.7C1693.7,915.4,1692.2,913.3,1692.2,909.2z M1694.8,909.2
									c0,2.8,0.6,4.3,1.8,4.3c1.2,0,1.8-1.5,1.8-4.4s-0.6-4.4-1.7-4.4C1695.4,904.6,1694.8,906.2,1694.8,909.2z"/>
								<path class="st4" d="M1684.5,934.2c0.9-1.4,1.5-2.9,1.9-4.5h-1.8v-2.1h1.8v-2.8h2.1v2.8h1.8v2.1h-1.8v1.5
									c0.7,0.4,1.4,0.8,2.2,1.3l-1,1.8l-1.2-0.8v6.8h-2.1v-5.6c-0.4,0.8-0.8,1.6-1.2,2.3C1685,936.3,1684.8,935.4,1684.5,934.2z
									 M1698.7,934.1c0.5,0.2,1,0.4,1.6,0.6c-0.1,2.2-0.2,3.5-0.3,4c-0.1,0.5-0.3,0.8-0.6,1s-0.6,0.3-1.1,0.3h-1.2
									c-1,0-1.5-0.6-1.5-1.9v-10.4h-2.3v4.4c0,2.3-0.2,4-0.6,5.1c-0.4,1-1,2.1-2,3.1c-0.5-0.6-1.1-1.2-1.7-1.9
									c0.9-0.9,1.4-1.9,1.7-2.8c0.3-0.9,0.4-2.6,0.4-4.9v-5.3h6.7v12c0,0.4,0.1,0.5,0.3,0.5c0.1,0,0.2,0,0.3-0.1s0.1-0.4,0.2-1
									C1698.6,936.2,1698.7,935.3,1698.7,934.1z"/>
								<path class="st4" d="M1699.9,951.9c-1,0.5-2,1.1-3.2,1.6c1.1,0.7,2.3,1.3,3.6,1.6c-0.3,0.4-0.8,1.1-1.4,2.1
									c-2.2-0.8-3.9-2.2-5.3-3.9v2.2c0,1.4-0.7,2.2-2,2.3c-0.8,0-1.6,0.1-2.4,0.1c-0.1-0.6-0.3-1.3-0.5-2c0.7,0.1,1.3,0.1,1.7,0.1
									c0.6,0,1-0.3,1-0.9v-4.9h-2.3v0.3h-2.1v-2.6c-0.5,0.4-1.1,0.7-1.6,1c-0.4-0.8-0.7-1.5-1.1-2.1c1.4-0.6,2.7-1.4,3.8-2.4h-3.4
									v-1.7h15.1v1.7h-9.1c-0.3,0.4-0.7,0.7-1,1.1h8.6v4.6h-4.7v0.3c0.5,0.7,1,1.3,1.5,1.9c1.3-0.7,2.4-1.3,3.4-2.1L1699.9,951.9z
									 M1685,952.8v-1.7h5.7v1.6c-1,2-2.7,3.6-5,4.7c-0.3-0.5-0.7-1.1-1.4-2c1.8-0.7,3.1-1.6,4.1-2.7h-3.4V952.8z M1696.3,948.6
									v-1.5h-7.1v1.5H1696.3z"/>
							</g>
						</g>
					</g>
				</g>
			</g>
		</g>
	</g>
</g>
</svg>
