<?xml version="1.0" encoding="utf-8"?>
<!-- Generator: Adobe Illustrator 19.2.1, SVG Export Plug-In . SVG Version: 6.00 Build 0)  -->
<svg version="1.1" id="图层_1" xmlns="http://www.w3.org/2000/svg" xmlns:xlink="http://www.w3.org/1999/xlink" x="0px" y="0px"
	 viewBox="0 0 1600 900" style="enable-background:new 0 0 1600 900;" xml:space="preserve">
<style type="text/css">
	.st0{fill:#DDDDDD;stroke:#FFFFFF;stroke-width:3;stroke-miterlimit:10;}
	.st1{fill:#EFEFEF;}
	.st2{clip-path:url(#SVGID_2_);fill:#EFEFEF;}
	.st3{clip-path:url(#SVGID_2_);}
	.st4{opacity:0.6;}
	.st5{fill:none;stroke:#B5B5B6;stroke-width:0.25;stroke-miterlimit:10;}
	.st6{fill:#AAAAAA;}
	.st7{fill:none;stroke:#AAAAAA;stroke-width:0.5;stroke-miterlimit:10;}
	.st8{fill:#6B6B6B;stroke:#FFFFFF;stroke-miterlimit:10;}
	.st9{fill:#FFFFFF;}
</style>
<rect x="58.1" y="75.6" transform="matrix(-1 8.979338e-11 -8.979338e-11 -1 1606 896)" class="st0" width="1489.7" height="744.9"/>
<circle class="st1" cx="1225.4" cy="743.7" r="0"/>
<g>
	<g>
		<defs>
			<polygon id="SVGID_1_" points="74.5,798.2 1532.8,798.2 1532.5,105.9 74.3,106.2 74.3,225.4 74.3,225.4 			"/>
		</defs>
		<clipPath id="SVGID_2_">
			<use xlink:href="#SVGID_1_"  style="overflow:visible;"/>
		</clipPath>
		
			<rect x="74.3" y="106.2" transform="matrix(-1 8.979294e-11 -8.979294e-11 -1 1607.0155 904.4713)" class="st2" width="1458.5" height="692"/>
		<g class="st3">
			<g class="st4">
				<line class="st5" x1="1399.9" y1="817.8" x2="1399.7" y2="74.6"/>
				<line class="st5" x1="1376.7" y1="817.9" x2="1376.5" y2="74.6"/>
				<line class="st5" x1="1423.2" y1="817.8" x2="1422.9" y2="74.6"/>
				<line class="st5" x1="1446.4" y1="817.8" x2="1446.1" y2="74.6"/>
				<line class="st5" x1="1469.6" y1="817.8" x2="1469.4" y2="74.6"/>
				<line class="st5" x1="1492.8" y1="817.8" x2="1492.6" y2="74.6"/>
				<line class="st5" x1="1516.1" y1="817.8" x2="1515.8" y2="74.6"/>
				<line class="st5" x1="1539.3" y1="817.8" x2="1539" y2="74.6"/>
				<line class="st5" x1="1353.5" y1="817.9" x2="1353.3" y2="74.7"/>
				<line class="st5" x1="1330.3" y1="817.9" x2="1330" y2="74.7"/>
				<line class="st5" x1="1307.1" y1="817.9" x2="1306.8" y2="74.7"/>
				<line class="st5" x1="1283.8" y1="817.9" x2="1283.6" y2="74.7"/>
				<line class="st5" x1="1260.6" y1="817.9" x2="1260.4" y2="74.7"/>
				<line class="st5" x1="1237.4" y1="817.9" x2="1237.1" y2="74.7"/>
				<line class="st5" x1="1214.2" y1="817.9" x2="1213.9" y2="74.7"/>
				<line class="st5" x1="1190.9" y1="817.9" x2="1190.7" y2="74.7"/>
				<line class="st5" x1="1167.7" y1="817.9" x2="1167.5" y2="74.7"/>
				<line class="st5" x1="1144.5" y1="817.9" x2="1144.2" y2="74.7"/>
				<line class="st5" x1="1121.3" y1="817.9" x2="1121" y2="74.7"/>
				<line class="st5" x1="1098" y1="817.9" x2="1097.8" y2="74.7"/>
				<line class="st5" x1="1074.8" y1="817.9" x2="1074.6" y2="74.7"/>
				<line class="st5" x1="1051.6" y1="817.9" x2="1051.4" y2="74.7"/>
				<line class="st5" x1="1028.4" y1="817.9" x2="1028.1" y2="74.7"/>
				<line class="st5" x1="1005.2" y1="818" x2="1004.9" y2="74.7"/>
				<line class="st5" x1="680" y1="818" x2="679.8" y2="74.8"/>
				<line class="st5" x1="656.8" y1="818.1" x2="656.6" y2="74.8"/>
				<line class="st5" x1="703.2" y1="818" x2="703" y2="74.8"/>
				<line class="st5" x1="726.5" y1="818" x2="726.2" y2="74.8"/>
				<line class="st5" x1="749.7" y1="818" x2="749.5" y2="74.8"/>
				<line class="st5" x1="772.9" y1="818" x2="772.7" y2="74.8"/>
				<line class="st5" x1="796.1" y1="818" x2="795.9" y2="74.8"/>
				<line class="st5" x1="819.4" y1="818" x2="819.1" y2="74.8"/>
				<line class="st5" x1="842.6" y1="818" x2="842.3" y2="74.8"/>
				<line class="st5" x1="865.8" y1="818" x2="865.6" y2="74.8"/>
				<line class="st5" x1="889" y1="818" x2="888.8" y2="74.8"/>
				<line class="st5" x1="912.3" y1="818" x2="912" y2="74.8"/>
				<line class="st5" x1="935.5" y1="818" x2="935.2" y2="74.8"/>
				<line class="st5" x1="958.7" y1="818" x2="958.5" y2="74.8"/>
				<line class="st5" x1="981.9" y1="818" x2="981.7" y2="74.8"/>
				<line class="st5" x1="633.6" y1="818.1" x2="633.3" y2="74.9"/>
				<line class="st5" x1="610.4" y1="818.1" x2="610.1" y2="74.9"/>
				<line class="st5" x1="587.1" y1="818.1" x2="586.9" y2="74.9"/>
				<line class="st5" x1="563.9" y1="818.1" x2="563.7" y2="74.9"/>
				<line class="st5" x1="540.7" y1="818.1" x2="540.4" y2="74.9"/>
				<line class="st5" x1="517.5" y1="818.1" x2="517.2" y2="74.9"/>
				<line class="st5" x1="494.2" y1="818.1" x2="494" y2="74.9"/>
				<line class="st5" x1="471" y1="818.1" x2="470.8" y2="74.9"/>
				<line class="st5" x1="447.8" y1="818.1" x2="447.6" y2="74.9"/>
				<line class="st5" x1="424.6" y1="818.1" x2="424.3" y2="74.9"/>
				<line class="st5" x1="401.3" y1="818.1" x2="401.1" y2="74.9"/>
				<line class="st5" x1="378.1" y1="818.1" x2="377.9" y2="74.9"/>
				<line class="st5" x1="354.9" y1="818.1" x2="354.7" y2="74.9"/>
				<line class="st5" x1="331.7" y1="818.1" x2="331.4" y2="74.9"/>
				<line class="st5" x1="308.5" y1="818.1" x2="308.2" y2="74.9"/>
				<line class="st5" x1="285.2" y1="818.2" x2="285" y2="74.9"/>
				<line class="st5" x1="53" y1="818.2" x2="52.8" y2="75"/>
				<line class="st5" x1="76.2" y1="818.2" x2="76" y2="75"/>
				<line class="st5" x1="99.4" y1="818.2" x2="99.2" y2="75"/>
				<line class="st5" x1="122.7" y1="818.2" x2="122.4" y2="75"/>
				<line class="st5" x1="145.9" y1="818.2" x2="145.7" y2="75"/>
				<line class="st5" x1="169.1" y1="818.2" x2="168.9" y2="75"/>
				<line class="st5" x1="192.3" y1="818.2" x2="192.1" y2="75"/>
				<line class="st5" x1="215.6" y1="818.2" x2="215.3" y2="75"/>
				<line class="st5" x1="238.8" y1="818.2" x2="238.5" y2="75"/>
				<line class="st5" x1="262" y1="818.2" x2="261.8" y2="75"/>
			</g>
			<g class="st4">
				<line class="st5" x1="39.8" y1="686.6" x2="1555.4" y2="686.6"/>
				<line class="st5" x1="39.8" y1="664.9" x2="1555.4" y2="664.9"/>
				<line class="st5" x1="39.8" y1="708.4" x2="1555.4" y2="708.4"/>
				<line class="st5" x1="39.8" y1="730.1" x2="1555.4" y2="730.1"/>
				<line class="st5" x1="39.8" y1="751.9" x2="1555.4" y2="751.8"/>
				<line class="st5" x1="39.8" y1="773.6" x2="1555.4" y2="773.6"/>
				<line class="st5" x1="39.8" y1="795.4" x2="1555.4" y2="795.3"/>
				<line class="st5" x1="39.8" y1="817.1" x2="1555.4" y2="817.1"/>
				<line class="st5" x1="39.8" y1="643.2" x2="1555.4" y2="643.1"/>
				<line class="st5" x1="39.8" y1="621.4" x2="1555.4" y2="621.4"/>
				<line class="st5" x1="39.8" y1="599.7" x2="1555.4" y2="599.7"/>
				<line class="st5" x1="39.8" y1="577.9" x2="1555.4" y2="577.9"/>
				<line class="st5" x1="39.8" y1="556.2" x2="1555.4" y2="556.2"/>
				<line class="st5" x1="39.8" y1="534.5" x2="1555.4" y2="534.4"/>
				<line class="st5" x1="39.8" y1="512.7" x2="1555.3" y2="512.7"/>
				<line class="st5" x1="39.8" y1="491" x2="1555.3" y2="490.9"/>
				<line class="st5" x1="39.8" y1="469.2" x2="1555.3" y2="469.2"/>
				<line class="st5" x1="39.7" y1="447.5" x2="1555.3" y2="447.5"/>
				<line class="st5" x1="39.7" y1="425.7" x2="1555.3" y2="425.7"/>
				<line class="st5" x1="39.7" y1="404" x2="1555.3" y2="404"/>
				<line class="st5" x1="39.7" y1="382.3" x2="1555.3" y2="382.2"/>
				<line class="st5" x1="39.7" y1="360.5" x2="1555.3" y2="360.5"/>
				<line class="st5" x1="39.7" y1="338.8" x2="1555.3" y2="338.8"/>
				<line class="st5" x1="39.7" y1="317" x2="1555.3" y2="317"/>
				<line class="st5" x1="39.7" y1="121.4" x2="1555.2" y2="121.3"/>
				<line class="st5" x1="39.7" y1="143.1" x2="1555.3" y2="143.1"/>
				<line class="st5" x1="39.7" y1="164.8" x2="1555.3" y2="164.8"/>
				<line class="st5" x1="39.7" y1="186.6" x2="1555.3" y2="186.6"/>
				<line class="st5" x1="39.7" y1="208.3" x2="1555.3" y2="208.3"/>
				<line class="st5" x1="39.7" y1="230.1" x2="1555.3" y2="230"/>
				<line class="st5" x1="39.7" y1="251.8" x2="1555.3" y2="251.8"/>
				<line class="st5" x1="39.7" y1="273.6" x2="1555.3" y2="273.5"/>
				<line class="st5" x1="39.7" y1="295.3" x2="1555.3" y2="295.3"/>
			</g>
		</g>
	</g>
	
		<rect x="1434.5" y="792.4" transform="matrix(-1 2.650181e-04 -2.650181e-04 -1 2966.6389 1595.4703)" class="st6" width="97.5" height="11.1"/>
	
		<rect x="1178.1" y="792.4" transform="matrix(-1 2.650192e-04 -2.650192e-04 -1 2498.2393 1595.6576)" class="st6" width="141.8" height="11.1"/>
	
		<rect x="974.8" y="792.5" transform="matrix(-1 2.650181e-04 -2.650181e-04 -1 2112.3752 1595.8099)" class="st7" width="162.5" height="11.1"/>
	
		<rect x="974.8" y="796.7" transform="matrix(-1 2.650181e-04 -2.650181e-04 -1 2112.3752 1595.677)" class="st7" width="162.5" height="2.5"/>
	
		<rect x="1137.3" y="797.6" transform="matrix(-1 2.650181e-04 -2.650181e-04 -1 2317.5027 1595.662)" class="st6" width="42.6" height="0.8"/>
	
		<rect x="917.8" y="792" transform="matrix(-1 2.650181e-04 -2.650181e-04 -1 1892.4103 1595.6995)" class="st6" width="56.7" height="11.9"/>
	
		<rect x="688" y="792.4" transform="matrix(-1 2.650181e-04 -2.650181e-04 -1 1605.9324 1595.8134)" class="st7" width="229.8" height="11.1"/>
	<g>
		
			<rect x="688" y="797.6" transform="matrix(-1 2.650181e-04 -2.650181e-04 -1 1605.9324 1595.8134)" class="st6" width="229.8" height="0.8"/>
		
			<rect x="688" y="795.8" transform="matrix(-1 2.650181e-04 -2.650181e-04 -1 1605.9309 1592.2795)" class="st6" width="229.8" height="0.8"/>
		
			<rect x="688" y="799.4" transform="matrix(-1 2.650181e-04 -2.650181e-04 -1 1605.9337 1599.3473)" class="st6" width="229.8" height="0.8"/>
	</g>
	
		<rect x="630.9" y="791.9" transform="matrix(-1 2.650181e-04 -2.650181e-04 -1 1318.5931 1595.5228)" class="st6" width="56.7" height="11.9"/>
	
		<rect x="469.3" y="792.5" transform="matrix(-1 2.650181e-04 -2.650181e-04 -1 1100.368 1595.9878)" class="st7" width="161.6" height="11.1"/>
	<g>
		
			<rect x="469.3" y="797.8" transform="matrix(-1 2.650181e-04 -2.650181e-04 -1 1100.3682 1596.2123)" class="st6" width="161.6" height="0.8"/>
		
			<rect x="469.3" y="796" transform="matrix(-1 2.650181e-04 -2.650181e-04 -1 1100.3667 1592.6785)" class="st6" width="161.6" height="0.8"/>
		
			<rect x="469.3" y="799.5" transform="matrix(-1 2.650181e-04 -2.650181e-04 -1 1100.3695 1599.7462)" class="st6" width="161.6" height="0.8"/>
	</g>
	
		<rect x="288.1" y="792.2" transform="matrix(-1 2.650186e-04 -2.650186e-04 -1 715.5424 1596.1412)" class="st6" width="139.2" height="11.9"/>
	
		<rect x="171.3" y="797.8" transform="matrix(-1 2.650181e-04 -2.650181e-04 -1 459.3771 1596.4012)" class="st6" width="116.7" height="0.8"/>
	
		<rect x="74.1" y="792.3" transform="matrix(-1 2.650181e-04 -2.650181e-04 -1 245.5744 1596.552)" class="st6" width="97.1" height="11.9"/>
	
		<rect x="65.9" y="783.8" transform="matrix(-2.650181e-04 -1 1 -2.650181e-04 -710.1042 869.6305)" class="st6" width="27.5" height="11.9"/>
	
		<rect x="36.6" y="727.4" transform="matrix(-2.650182e-04 -1 1 -2.650182e-04 -653.3653 812.8458)" class="st7" width="86" height="11.1"/>
	<g>
		
			<rect x="36.6" y="732.6" transform="matrix(-2.650182e-04 -1 1 -2.650182e-04 -653.3653 812.8458)" class="st6" width="86" height="0.8"/>
		
			<rect x="38.4" y="732.6" transform="matrix(-2.650182e-04 -1 1 -2.650182e-04 -651.5974 814.6123)" class="st6" width="86" height="0.8"/>
		
			<rect x="34.9" y="732.6" transform="matrix(-2.650182e-04 -1 1 -2.650182e-04 -655.1331 811.0793)" class="st6" width="86" height="0.8"/>
	</g>
	
		<rect x="62.7" y="667.5" transform="matrix(-2.650181e-04 -1 1 -2.650181e-04 -594.2558 752.8608)" class="st6" width="33.1" height="11.9"/>
	
		<rect x="36.6" y="608.5" transform="matrix(-2.650182e-04 -1 1 -2.650182e-04 -534.4611 693.9085)" class="st7" width="86" height="11.1"/>
	<g>
		
			<rect x="36.6" y="613.7" transform="matrix(-2.650182e-04 -1 1 -2.650182e-04 -534.4611 693.9085)" class="st6" width="86" height="0.8"/>
		
			<rect x="38.4" y="613.7" transform="matrix(-2.650182e-04 -1 1 -2.650182e-04 -532.6932 695.675)" class="st6" width="86" height="0.8"/>
		
			<rect x="34.9" y="613.7" transform="matrix(-2.650182e-04 -1 1 -2.650182e-04 -536.2289 692.142)" class="st6" width="86" height="0.8"/>
	</g>
	
		<rect x="6.1" y="491.6" transform="matrix(-2.650181e-04 -1 1 -2.650181e-04 -418.0051 577.2991)" class="st6" width="147" height="11.9"/>
	
		<rect x="77.3" y="513.7" transform="matrix(-2.650182e-04 -1 1 -2.650182e-04 -428.449 632.7518)" class="st6" width="49.4" height="33.8"/>
	<rect x="97.6" y="543.3" class="st6" width="292.2" height="11.9"/>
	
		<rect x="279.8" y="642.2" transform="matrix(-2.650181e-04 -1 1 -2.650181e-04 -275.247 1021.1427)" class="st6" width="185.9" height="11.9"/>
	
		<rect x="361.8" y="504.8" transform="matrix(-1 2.650181e-04 -2.650181e-04 -1 744.894 1048.7598)" class="st6" width="21.1" height="39.2"/>
	
		<rect x="447.3" y="776.5" transform="matrix(-2.650181e-04 -1 1 -2.650181e-04 -350.2632 1246.0175)" class="st6" width="0.8" height="43.2"/>
	
		<rect x="1319.6" y="797.1" transform="matrix(-1 2.650181e-04 -2.650181e-04 -1 2754.5938 1594.66)" class="st6" width="115.2" height="0.8"/>
	
		<rect x="1488.8" y="778.6" transform="matrix(-1 2.650181e-04 -2.650181e-04 -1 2993.0378 1575.6106)" class="st6" width="15.3" height="18.8"/>
	
		<rect x="1225.9" y="779.8" transform="matrix(-1 2.650181e-04 -2.650181e-04 -1 2467.2913 1578.1295)" class="st6" width="15.3" height="18.8"/>
	
		<rect x="939" y="781.2" transform="matrix(-1 2.650181e-04 -2.650181e-04 -1 1893.4948 1580.8788)" class="st6" width="15.3" height="18.8"/>
	
		<rect x="651.4" y="782.5" transform="matrix(-1 2.650181e-04 -2.650181e-04 -1 1318.3055 1583.6345)" class="st6" width="15.3" height="18.8"/>
	
		<rect x="364.9" y="783.8" transform="matrix(-1 2.650181e-04 -2.650181e-04 -1 745.2051 1586.3804)" class="st6" width="15.3" height="18.8"/>
	
		<rect x="101.6" y="785.1" transform="matrix(-1 2.650181e-04 -2.650181e-04 -1 218.761 1588.9027)" class="st6" width="15.3" height="18.8"/>
	<rect x="372.1" y="741.8" class="st6" width="0.8" height="43.2"/>
	
		<rect x="1483" y="727.1" transform="matrix(2.650180e-04 1 -1 2.650180e-04 2258.2405 -793.5961)" class="st7" width="86" height="11.1"/>
	<g>
		
			<rect x="1483" y="732.2" transform="matrix(2.650180e-04 1 -1 2.650180e-04 2258.2405 -793.5961)" class="st6" width="86" height="0.8"/>
		
			<rect x="1481.2" y="732.2" transform="matrix(2.650180e-04 1 -1 2.650180e-04 2256.4744 -791.8287)" class="st6" width="86" height="0.8"/>
		
			<rect x="1484.8" y="732.2" transform="matrix(2.650180e-04 1 -1 2.650180e-04 2260.0066 -795.3635)" class="st6" width="86" height="0.8"/>
	</g>
	
		<rect x="1483.2" y="608.3" transform="matrix(2.650180e-04 1 -1 2.650180e-04 2139.6931 -912.4208)" class="st7" width="86" height="11.1"/>
	<g>
		
			<rect x="1483.2" y="613.5" transform="matrix(2.650180e-04 1 -1 2.650180e-04 2139.6931 -912.4208)" class="st6" width="86" height="0.8"/>
		
			<rect x="1481.4" y="613.5" transform="matrix(2.650180e-04 1 -1 2.650180e-04 2137.9272 -910.6534)" class="st6" width="86" height="0.8"/>
		
			<rect x="1484.9" y="613.5" transform="matrix(2.650180e-04 1 -1 2.650180e-04 2141.4592 -914.1882)" class="st6" width="86" height="0.8"/>
	</g>
	
		<rect x="1518" y="778.4" transform="matrix(2.650178e-04 1 -1 2.650178e-04 2309.8989 -742.5272)" class="st6" width="16.7" height="11.1"/>
	
		<rect x="1510.3" y="667.5" transform="matrix(2.650179e-04 1 -1 2.650179e-04 2199.1577 -853.5233)" class="st6" width="32.4" height="11.1"/>
	
		<rect x="1134.3" y="637.1" transform="matrix(-2.650181e-04 -1 1 -2.650181e-04 590.8001 1876.0482)" class="st6" width="197.8" height="11.1"/>
	
		<rect x="1216.1" y="543.8" transform="matrix(-1 2.650181e-04 -2.650181e-04 -1 2748.1289 1098.3492)" class="st6" width="315.8" height="11.1"/>
	
		<rect x="1286.3" y="325.8" transform="matrix(2.650198e-04 1 -1 2.650198e-04 1856.9843 -1194.666)" class="st6" width="479.3" height="11.1"/>
	
		<rect x="1417.6" y="319.5" transform="matrix(-2.650181e-04 -1 1 -2.650181e-04 1184.1664 1840.2981)" class="st6" width="188.7" height="17.4"/>
	
		<rect x="1484.8" y="507.2" transform="matrix(-2.650186e-04 -1 1 -2.650186e-04 979.7733 2028.7161)" class="st6" width="38.3" height="34.7"/>
	
		<rect x="648.5" y="504.5" transform="matrix(-1 2.650181e-04 -2.650181e-04 -1 1318.163 1048.1393)" class="st6" width="21.1" height="39.2"/>
	
		<rect x="936.5" y="504.5" transform="matrix(-1 2.650181e-04 -2.650181e-04 -1 1894.2374 1047.9075)" class="st6" width="21.1" height="39.2"/>
	
		<rect x="1221.9" y="504.5" transform="matrix(-1 2.650181e-04 -2.650181e-04 -1 2464.9968 1047.9242)" class="st6" width="21.1" height="39.2"/>
	
		<rect x="1485.7" y="103.7" transform="matrix(-1 2.650181e-04 -2.650181e-04 -1 3006.2979 246.2854)" class="st6" width="34.9" height="39.2"/>
	
		<rect x="1225.7" y="105" transform="matrix(-1 2.650181e-04 -2.650181e-04 -1 2472.5093 248.8429)" class="st6" width="21.1" height="39.2"/>
	
		<rect x="935.4" y="106.3" transform="matrix(-1 2.650181e-04 -2.650181e-04 -1 1891.8831 251.6248)" class="st6" width="21.1" height="39.2"/>
	
		<rect x="645.2" y="107.7" transform="matrix(-1 2.650181e-04 -2.650181e-04 -1 1311.4701 254.4056)" class="st6" width="21.1" height="39.2"/>
	
		<rect x="354.8" y="109" transform="matrix(-1 2.650181e-04 -2.650181e-04 -1 730.7368 257.188)" class="st6" width="21.1" height="39.2"/>
	
		<rect x="84.8" y="109.1" transform="matrix(-1 2.650181e-04 -2.650181e-04 -1 203.9138 257.3356)" class="st6" width="34.2" height="39.2"/>
	
		<rect x="73.7" y="409" transform="matrix(-1 2.650181e-04 -2.650181e-04 -1 176.6781 831.9655)" class="st6" width="29.2" height="13.9"/>
	
		<rect x="73.6" y="234.6" transform="matrix(-1 2.650181e-04 -2.650181e-04 -1 176.5394 483.0844)" class="st6" width="29.2" height="13.9"/>
	
		<rect x="974.8" y="543.4" transform="matrix(-1 2.650181e-04 -2.650181e-04 -1 2122.4409 1097.6251)" class="st7" width="172.7" height="11.1"/>
	
		<rect x="974.8" y="547.7" transform="matrix(-1 2.650181e-04 -2.650181e-04 -1 2122.4409 1097.6251)" class="st7" width="172.7" height="2.5"/>
	
		<rect x="936.5" y="542.8" transform="matrix(-1 2.650181e-04 -2.650181e-04 -1 1911.5754 1097.1561)" class="st6" width="38.4" height="11.9"/>
	
		<rect x="1147.5" y="543" transform="matrix(-1 2.650181e-04 -2.650181e-04 -1 2320.2095 1097.5465)" class="st6" width="25.1" height="11.9"/>
	
		<rect x="687.9" y="504.9" transform="matrix(-1 2.650181e-04 -2.650181e-04 -1 1605.7037 1020.8101)" class="st7" width="229.8" height="11.1"/>
	
		<rect x="687.9" y="509.2" transform="matrix(-1 2.650181e-04 -2.650181e-04 -1 1605.7037 1020.6771)" class="st7" width="229.8" height="2.5"/>
	
		<rect x="917.3" y="504.5" transform="matrix(-1 2.650181e-04 -2.650181e-04 -1 1853.8916 1020.5785)" class="st6" width="19.2" height="11.9"/>
	
		<rect x="668.7" y="504.5" transform="matrix(-1 2.650181e-04 -2.650181e-04 -1 1356.6841 1020.7761)" class="st6" width="19.2" height="11.9"/>
	
		<rect x="631.3" y="543.6" transform="matrix(-1 2.650181e-04 -2.650181e-04 -1 1301.208 1098.9258)" class="st6" width="38.4" height="11.9"/>
	
		<rect x="458.8" y="543.8" transform="matrix(-1 2.650181e-04 -2.650181e-04 -1 1089.7291 1098.5868)" class="st7" width="172" height="11.1"/>
	
		<rect x="458.8" y="548" transform="matrix(-1 2.650181e-04 -2.650181e-04 -1 1089.729 1098.4539)" class="st7" width="172" height="2.5"/>
	
		<rect x="433.2" y="543.5" transform="matrix(-1 2.650181e-04 -2.650181e-04 -1 891.6105 1098.681)" class="st6" width="25.1" height="11.9"/>
	
		<rect x="411" y="528" transform="matrix(-2.650181e-04 -1 1 -2.650181e-04 -138.068 961.1923)" class="st6" width="0.8" height="43.2"/>
	
		<rect x="-74" y="249.5" transform="matrix(-2.650181e-04 -1 1 -2.650181e-04 -175.9562 335.0576)" class="st6" width="307.1" height="11.9"/>
	
		<rect x="73.5" y="98.2" transform="matrix(-1 4.658618e-03 -4.658618e-03 -1 206.5643 207.9317)" class="st6" width="59.1" height="12"/>
	
		<rect x="336.3" y="97" transform="matrix(-1 4.658618e-03 -4.658618e-03 -1 730.9395 204.2674)" class="st6" width="57.8" height="12"/>
	
		<rect x="626.7" y="95.6" transform="matrix(-1 4.658618e-03 -4.658618e-03 -1 1311.6637 200.2092)" class="st6" width="57.8" height="12"/>
	
		<rect x="916.9" y="94.5" transform="matrix(-1 4.658618e-03 -4.658618e-03 -1 1892.0703 196.5389)" class="st6" width="57.8" height="12"/>
	
		<rect x="1207.2" y="92.7" transform="matrix(-1 4.658618e-03 -4.658618e-03 -1 2472.6824 191.777)" class="st6" width="57.8" height="12"/>
	
		<rect x="1468.4" y="91.9" transform="matrix(-1 4.658618e-03 -4.658618e-03 -1 2995.7356 188.8264)" class="st6" width="58.5" height="12"/>
	
		<rect x="1265.6" y="92.6" transform="matrix(-1 4.658618e-03 -4.658618e-03 -1 2734.7278 190.0644)" class="st7" width="203.1" height="11.3"/>
	<g>
		
			<rect x="1265.6" y="98.1" transform="matrix(-1 4.658618e-03 -4.658618e-03 -1 2734.7319 190.6503)" class="st6" width="203.1" height="0.8"/>
		
			<rect x="1265.6" y="96.3" transform="matrix(-1 4.658618e-03 -4.658618e-03 -1 2734.7068 187.075)" class="st6" width="203.1" height="0.8"/>
		
			<rect x="1265.6" y="99.9" transform="matrix(-1 4.658618e-03 -4.658618e-03 -1 2734.7568 194.2257)" class="st6" width="203.1" height="0.8"/>
	</g>
	
		<rect x="974.5" y="94.2" transform="matrix(-1 4.658618e-03 -4.658618e-03 -1 2181.9841 194.5744)" class="st7" width="232.5" height="11.3"/>
	<g>
		
			<rect x="974.5" y="99.4" transform="matrix(-1 4.658618e-03 -4.658618e-03 -1 2181.9836 194.513)" class="st6" width="232.5" height="0.8"/>
		
			<rect x="974.5" y="97.6" transform="matrix(-1 4.658618e-03 -4.658618e-03 -1 2181.9587 190.9376)" class="st6" width="232.5" height="0.8"/>
		
			<rect x="974.5" y="101.2" transform="matrix(-1 4.658618e-03 -4.658618e-03 -1 2182.0085 198.0884)" class="st6" width="232.5" height="0.8"/>
	</g>
	
		<rect x="684.2" y="95.3" transform="matrix(-1 4.658618e-03 -4.658618e-03 -1 1601.4344 198.1843)" class="st7" width="232.5" height="11.3"/>
	<g>
		
			<rect x="684.2" y="100.5" transform="matrix(-1 4.658618e-03 -4.658618e-03 -1 1601.4344 198.1843)" class="st6" width="232.5" height="0.8"/>
		
			<rect x="684.2" y="98.8" transform="matrix(-1 4.658618e-03 -4.658618e-03 -1 1601.4094 194.6089)" class="st6" width="232.5" height="0.8"/>
		
			<rect x="684.2" y="102.3" transform="matrix(-1 4.658618e-03 -4.658618e-03 -1 1601.4594 201.7597)" class="st6" width="232.5" height="0.8"/>
	</g>
	
		<rect x="394" y="96.5" transform="matrix(-1 4.658618e-03 -4.658618e-03 -1 1020.8846 201.8079)" class="st7" width="232.5" height="11.3"/>
	<g>
		
			<rect x="394" y="101.9" transform="matrix(-1 4.658618e-03 -4.658618e-03 -1 1020.8877 202.2412)" class="st6" width="232.5" height="0.8"/>
		
			<rect x="393.9" y="100.1" transform="matrix(-1 4.658618e-03 -4.658618e-03 -1 1020.8627 198.6658)" class="st6" width="232.5" height="0.8"/>
		
			<rect x="394" y="103.7" transform="matrix(-1 4.658618e-03 -4.658618e-03 -1 1020.9127 205.8166)" class="st6" width="232.5" height="0.8"/>
	</g>
	
		<rect x="132.6" y="98" transform="matrix(-1 4.658618e-03 -4.658618e-03 -1 469.2277 206.0962)" class="st7" width="203.6" height="11.3"/>
	<g>
		
			<rect x="132.6" y="103.2" transform="matrix(-1 4.658618e-03 -4.658618e-03 -1 469.2277 206.0962)" class="st6" width="203.6" height="0.8"/>
		
			<rect x="132.6" y="101.4" transform="matrix(-1 4.658618e-03 -4.658618e-03 -1 469.2027 202.5208)" class="st6" width="203.6" height="0.8"/>
		
			<rect x="132.6" y="105" transform="matrix(-1 4.658618e-03 -4.658618e-03 -1 469.2527 209.6716)" class="st6" width="203.6" height="0.8"/>
	</g>
	
		<rect x="1192.3" y="525.8" transform="matrix(-2.650103e-04 -1 1 -2.650103e-04 643.5916 1742.2389)" class="st6" width="0.8" height="47.2"/>
	
		<rect x="1212.3" y="762.8" transform="matrix(-2.650181e-04 -1 1 -2.650181e-04 470.7034 1996.9375)" class="st6" width="42.6" height="0.8"/>
	
		<rect x="1411.3" y="228.3" transform="matrix(-1 2.650181e-04 -2.650181e-04 -1 2874.9824 509.17)" class="st7" width="52.2" height="52.9"/>
	
		<rect x="1279.7" y="231.1" transform="matrix(-1 2.650181e-04 -2.650181e-04 -1 2611.7571 514.8457)" class="st7" width="52.2" height="52.9"/>
	
		<rect x="1133.5" y="220" transform="matrix(-1 2.650181e-04 -2.650181e-04 -1 2329.0273 506.6017)" class="st7" width="62" height="66.9"/>
	
		<rect x="983.1" y="220.1" transform="matrix(-1 2.650181e-04 -2.650181e-04 -1 2028.196 506.7213)" class="st7" width="62" height="66.9"/>
	
		<rect x="832.3" y="220.1" transform="matrix(-1 2.650181e-04 -2.650181e-04 -1 1726.6678 506.8411)" class="st7" width="62" height="66.9"/>
	
		<rect x="694.8" y="212.5" transform="matrix(-1 2.650181e-04 -2.650181e-04 -1 1444.6342 496.5077)" class="st7" width="55" height="71.7"/>
	
		<rect x="563.2" y="212.9" transform="matrix(-1 2.650181e-04 -2.650181e-04 -1 1181.4067 497.3087)" class="st7" width="55" height="71.7"/>
	
		<rect x="426" y="212.6" transform="matrix(-1 2.650181e-04 -2.650181e-04 -1 907.0367 496.7214)" class="st7" width="55" height="71.7"/>
	
		<rect x="282.5" y="212.6" transform="matrix(-1 2.650181e-04 -2.650181e-04 -1 620.132 496.8354)" class="st7" width="55" height="71.7"/>
	
		<rect x="138.4" y="212.6" transform="matrix(-1 2.650181e-04 -2.650181e-04 -1 331.9448 496.95)" class="st7" width="55" height="71.7"/>
</g>
<g>
	<path class="st8" d="M1339.6,606.3h-66.4c-9.7,0-17.6-7.9-17.6-17.6v0c0-9.7,7.9-17.6,17.6-17.6h66.4c9.7,0,17.6,7.9,17.6,17.6v0
		C1357.2,598.4,1349.3,606.3,1339.6,606.3z"/>
	<g>
		<path class="st9" d="M1275.4,584.9l1.4,1.5c-1.2,1-2.5,1.9-3.9,2.8c-0.4-0.6-0.8-1.2-1.2-1.7
			C1273,586.6,1274.2,585.8,1275.4,584.9z M1285.4,588.9v1.9c-0.8,1.2-1.8,2.2-3.1,3c1.6,0.5,3.5,0.8,5.7,0.9
			c-0.2,0.3-0.6,1.1-1.2,2.4c-2.7-0.3-5-0.9-6.9-1.9c-2,0.9-4.3,1.6-7,2c-0.3-0.7-0.7-1.4-1.2-2.2c2.2-0.3,4.2-0.7,5.9-1.3
			c-1.1-0.8-1.9-1.8-2.7-2.9h-1.1v-1.9H1285.4z M1272,582.7h6.6l-0.6-1.4l2.4-0.6l0.8,1.9h6.4v1.9h-4.8v3.8h-2.1v-3.8h-1.8v3.8h-2.1
			v-3.8h-4.8V582.7z M1279.9,592.8c1.1-0.6,2.1-1.2,2.9-2h-5.4C1278,591.6,1278.9,592.2,1279.9,592.8z M1284.3,585
			c1.2,0.7,2.4,1.5,3.8,2.5l-1.4,1.6c-1.1-0.9-2.3-1.8-3.6-2.7L1284.3,585z"/>
		<path class="st9" d="M1292.5,588.4c0,3.8-0.8,6.6-2.3,8.6c-0.6-0.9-1.1-1.7-1.6-2.3c1.1-1.6,1.6-3.7,1.6-6.3v-6.6h14.6v2.1h-12.3
			V588.4z M1304.2,589.7h-4.8v4.5h5.4v2.1h-12.9v-2.1h5.1v-4.5h-3.9v-2h3.9v-3.2h2.4v3.2h4.8V589.7z M1300.1,591.1l1.5-1.3
			c0.8,0.9,1.7,1.7,2.5,2.7l-1.7,1.4C1301.7,593,1301,592.1,1300.1,591.1z"/>
		<path class="st9" d="M1314.3,597v-5.3h3.4c-1.8-0.4-3.2-1.1-4.1-2c-0.8,0.9-2.2,1.6-4.4,2h3.8v5.4h-1.9v-0.6h-2.6v0.6h-1.9v-5
			c-0.2,0-0.5,0-0.7,0c-0.1-0.5-0.2-1.1-0.3-1.7c3.4-0.1,5.4-0.6,6.1-1.4h-5.9v-1.7h6.7c0-0.3,0.1-0.5,0.1-0.8h2.3
			c0,0.3-0.1,0.6-0.1,0.8h2.2l-0.3-0.6l2.1-0.3l0.4,0.9h2.5v1.7h-6.5c1.2,0.9,3.4,1.4,6.7,1.4c-0.2,0.6-0.3,1.2-0.4,1.7
			c-0.2,0-0.5,0-0.7,0v5h-1.9v-0.6h-2.6v0.6H1314.3z M1306.6,581.5h6.5v4.7h-6.5V581.5z M1311.1,593.3h-2.6v1.4h2.6V593.3z
			 M1311,584.5v-1.3h-2.4v1.3H1311z M1314.3,581.5h6.5v4.7h-6.5V581.5z M1318.9,593.3h-2.6v1.4h2.6V593.3z M1318.8,584.5v-1.3h-2.4
			v1.3H1318.8z"/>
		<path class="st9" d="M1335.8,585.1v1.8h-1.4c1.1,0.6,2.3,1.4,3.8,2.3l-1.2,1.5c-0.4-0.2-0.7-0.5-1.1-0.7c-1.4,0-2.8,0.1-4.1,0.1
			v1.2h5.6v2h-5.6v1.1h6.6v2.1h-15.6v-2.1h6.6v-1.1h-5.6v-2h5.6v-1.1c-2.2,0-3.8,0.1-4.8,0.3l-0.8-1.7c0.9-0.4,1.9-1,3.2-1.9h-1.6
			v-1.8H1335.8z M1322.8,586.2v-4h6.5c-0.2-0.5-0.4-0.9-0.5-1.2l2.9-0.3c0.2,0.4,0.4,0.9,0.6,1.5h6.1v4h-2v-2.1h-11.5v2.1H1322.8z
			 M1332,587.4l0.7-0.5h-2.5c-0.8,0.5-1.6,1.1-2.4,1.6c1.9,0,3.8-0.1,5.7-0.1C1333,588.1,1332.5,587.7,1332,587.4z"/>
	</g>
</g>
<g>
	<path class="st8" d="M478.9,606.3h-66.4c-9.7,0-17.6-7.9-17.6-17.6v0c0-9.7,7.9-17.6,17.6-17.6h66.4c9.7,0,17.6,7.9,17.6,17.6v0
		C496.6,598.4,488.7,606.3,478.9,606.3z"/>
	<g>
		<path class="st9" d="M419.6,583.9h1.5V581h2v2.9h1.1v2.1h-1.1v2.5l1.2-0.3c-0.1,0.7-0.1,1.5-0.1,2.2l-1.2,0.3v4.3
			c0,0.5-0.1,1-0.3,1.3s-0.5,0.5-0.8,0.5s-1,0.1-2.1,0.1c-0.1-0.6-0.2-1.4-0.4-2.2c0.3,0,0.7,0,1.2,0c0.3,0,0.4-0.2,0.4-0.7v-2.9
			l-1.6,0.4l-0.1-2.4c0.5-0.1,1.1-0.2,1.7-0.4V586h-1.5V583.9z M425.3,589.9h9.5v2h-3.7v2.5h4.6v2h-11.4v-2h4.7v-2.5h-3.7V589.9z
			 M429.6,586.9l-3.8,2.8l-1.4-1.6c1.1-0.7,2.3-1.6,3.6-2.7L429.6,586.9z M424.9,582.7h4l-0.4-1.4l2.3-0.4c0.2,0.6,0.4,1.3,0.5,1.9
			h4.1v3.3h-2.1v-1.3H427v1.3h-2.1V582.7z M430.6,586.9l1.4-1.4c1,0.7,2.3,1.6,3.7,2.7l-1.4,1.6
			C433.8,589.4,432.6,588.5,430.6,586.9z"/>
		<path class="st9" d="M439.1,596h-2v-6.5h3.4v-1.3h-4v-1.9h4V585h-1.8c-0.1,0.5-0.3,0.9-0.4,1.4c-0.5-0.2-1-0.4-1.7-0.7
			c0.5-1.3,0.8-2.7,1.1-4.3l1.8,0.4l-0.3,1.3h1.3v-2.3h2.2v2.3h3.3v1.9h-3.3v1.5h3.8v1.9h-3.8v1.3h3.4v4.5c0,0.6-0.1,1.1-0.4,1.4
			c-0.3,0.3-0.7,0.5-1.2,0.6s-1,0-1.2,0c-0.1-0.6-0.3-1.3-0.5-2.1c0.3,0,0.6,0,0.8,0c0.3,0,0.5-0.2,0.5-0.5v-2h-1.4v5.6h-2.2v-5.6
			h-1.4V596z M447,582.1h2v11h-2V582.1z M449.9,580.8h2.1v13.6c0,0.8-0.2,1.4-0.6,1.9s-0.9,0.6-1.6,0.7c-0.7,0-1.5,0-2.4,0
			c-0.1-0.6-0.2-1.4-0.4-2.3c0.9,0.1,1.5,0.1,2,0.1c0.6,0,0.9-0.3,0.9-1V580.8z"/>
		<path class="st9" d="M466.7,585.1v1.8h-1.4c1.1,0.6,2.3,1.4,3.8,2.3l-1.2,1.5c-0.4-0.2-0.7-0.5-1.1-0.7c-1.4,0-2.8,0.1-4.1,0.1
			v1.2h5.6v2h-5.6v1.1h6.6v2.1h-15.6v-2.1h6.6v-1.1h-5.6v-2h5.6v-1.1c-2.2,0-3.8,0.1-4.8,0.3l-0.8-1.7c0.9-0.4,1.9-1,3.2-1.9h-1.6
			v-1.8H466.7z M453.8,586.2v-4h6.5c-0.2-0.5-0.4-0.9-0.5-1.2l2.9-0.3c0.2,0.4,0.4,0.9,0.6,1.5h6.1v4h-2v-2.1h-11.5v2.1H453.8z
			 M462.9,587.4l0.7-0.5h-2.5c-0.8,0.5-1.6,1.1-2.4,1.6c1.9,0,3.8-0.1,5.7-0.1C463.9,588.1,463.4,587.7,462.9,587.4z"/>
	</g>
</g>
<g>
	<path class="st8" d="M217.1,179.4h-66.4c-9.7,0-17.6-7.9-17.6-17.6v0c0-9.7,7.9-17.6,17.6-17.6h66.4c9.7,0,17.6,7.9,17.6,17.6v0
		C234.8,171.5,226.9,179.4,217.1,179.4z"/>
	<g>
		<path class="st9" d="M182.2,164c-1,0.6-2.1,1.1-3.3,1.7c1.1,0.8,2.4,1.3,3.7,1.7c-0.3,0.5-0.8,1.2-1.4,2.2
			c-2.3-0.9-4.1-2.2-5.5-4.1v2.3c0,1.5-0.7,2.3-2.1,2.3c-0.9,0-1.7,0.1-2.5,0.1c-0.1-0.7-0.3-1.4-0.5-2.1c0.8,0.1,1.4,0.1,1.8,0.1
			c0.7,0,1-0.3,1-0.9v-5.1h-2.4v0.4h-2.2v-2.7c-0.6,0.4-1.1,0.8-1.7,1.1c-0.4-0.8-0.7-1.6-1.1-2.2c1.4-0.7,2.8-1.5,4-2.5h-3.5v-1.7
			h15.7v1.7h-9.4c-0.4,0.4-0.7,0.8-1.1,1.1h9v4.8h-4.9v0.3c0.5,0.7,1,1.4,1.6,1.9c1.3-0.7,2.5-1.4,3.6-2.1L182.2,164z M166.7,164.9
			v-1.7h5.9v1.7c-1.1,2.1-2.8,3.7-5.1,4.9c-0.3-0.5-0.8-1.2-1.4-2.1c1.8-0.7,3.3-1.6,4.2-2.8H166.7z M178.4,160.5V159h-7.4v1.5
			H178.4z"/>
		<path class="st9" d="M199.4,163.2h-7.7c0,0.3,0,0.6-0.1,0.9h6.2c0,0.9-0.1,1.9-0.2,3c-0.1,1.1-0.3,1.8-0.7,2.2
			c-0.4,0.4-0.8,0.6-1.2,0.7c-0.4,0.1-1.5,0.1-3.3,0.1c-0.1-0.6-0.3-1.4-0.6-2.3c0.6,0.1,1.3,0.1,1.9,0.1c0.5,0,0.8,0,1-0.1
			c0.2-0.1,0.3-0.2,0.4-0.4c0.1-0.2,0.1-0.7,0.2-1.4h-4.2c-0.6,1.9-1.7,3.4-3.3,4.4c-0.4-0.4-0.9-1-1.7-1.7c1.9-1.1,3-2.8,3.1-5.3
			h-2.4c-0.2,2.9-0.9,5.2-2,6.8l-1.8-1.9c1.1-1.5,1.6-3.8,1.6-7v-6h5.8c-0.2-0.4-0.4-0.8-0.5-1.1l2.8-0.3c0.2,0.4,0.3,0.8,0.5,1.4
			h5.4v4.9h-4.9c0.1,0.4,0.3,0.8,0.5,1.3h5.2V163.2z M196.3,158.3V157H187v1.3H196.3z M190.9,160.4l1.9-0.3H187v1.3h4.4
			C191.2,161,191,160.7,190.9,160.4z"/>
	</g>
</g>
<g>
	<path class="st8" d="M184.5,606.3h-66.4c-9.7,0-17.6-7.9-17.6-17.6v0c0-9.7,7.9-17.6,17.6-17.6h66.4c9.7,0,17.6,7.9,17.6,17.6v0
		C202.1,598.4,194.2,606.3,184.5,606.3z"/>
	<g>
		<path class="st9" d="M120.3,584.9l1.4,1.5c-1.2,1-2.5,1.9-3.9,2.8c-0.4-0.6-0.8-1.2-1.2-1.7C118,586.6,119.2,585.8,120.3,584.9z
			 M130.4,588.9v1.9c-0.8,1.2-1.8,2.2-3.1,3c1.6,0.5,3.5,0.8,5.7,0.9c-0.2,0.3-0.6,1.1-1.2,2.4c-2.7-0.3-5-0.9-6.9-1.9
			c-2,0.9-4.3,1.6-7,2c-0.3-0.7-0.7-1.4-1.2-2.2c2.2-0.3,4.2-0.7,5.9-1.3c-1.1-0.8-1.9-1.8-2.7-2.9h-1.1v-1.9H130.4z M117,582.7h6.6
			l-0.6-1.4l2.4-0.6l0.8,1.9h6.4v1.9h-4.8v3.8h-2.1v-3.8h-1.8v3.8h-2.1v-3.8H117V582.7z M124.9,592.8c1.1-0.6,2.1-1.2,2.9-2h-5.4
			C123,591.6,123.8,592.2,124.9,592.8z M129.3,585c1.2,0.7,2.4,1.5,3.8,2.5l-1.4,1.6c-1.1-0.9-2.3-1.8-3.6-2.7L129.3,585z"/>
		<path class="st9" d="M137.4,588.4c0,3.8-0.8,6.6-2.3,8.6c-0.6-0.9-1.1-1.7-1.6-2.3c1.1-1.6,1.6-3.7,1.6-6.3v-6.6h14.6v2.1h-12.3
			V588.4z M149.1,589.7h-4.8v4.5h5.4v2.1h-12.9v-2.1h5.1v-4.5h-3.9v-2h3.9v-3.2h2.4v3.2h4.8V589.7z M145.1,591.1l1.5-1.3
			c0.8,0.9,1.7,1.7,2.5,2.7l-1.7,1.4C146.7,593,145.9,592.1,145.1,591.1z"/>
		<path class="st9" d="M159.3,597v-5.3h3.4c-1.8-0.4-3.2-1.1-4.1-2c-0.8,0.9-2.2,1.6-4.4,2h3.8v5.4h-1.9v-0.6h-2.6v0.6h-1.9v-5
			c-0.2,0-0.5,0-0.7,0c-0.1-0.5-0.2-1.1-0.3-1.7c3.4-0.1,5.4-0.6,6.1-1.4h-5.9v-1.7h6.7c0-0.3,0.1-0.5,0.1-0.8h2.3
			c0,0.3-0.1,0.6-0.1,0.8h2.2l-0.3-0.6l2.1-0.3l0.4,0.9h2.5v1.7h-6.5c1.2,0.9,3.4,1.4,6.7,1.4c-0.2,0.6-0.3,1.2-0.4,1.7
			c-0.2,0-0.5,0-0.7,0v5h-1.9v-0.6h-2.6v0.6H159.3z M151.5,581.5h6.5v4.7h-6.5V581.5z M156.1,593.3h-2.6v1.4h2.6V593.3z M156,584.5
			v-1.3h-2.4v1.3H156z M159.3,581.5h6.5v4.7h-6.5V581.5z M163.8,593.3h-2.6v1.4h2.6V593.3z M163.7,584.5v-1.3h-2.4v1.3H163.7z"/>
		<path class="st9" d="M180.7,585.1v1.8h-1.4c1.1,0.6,2.3,1.4,3.8,2.3l-1.2,1.5c-0.4-0.2-0.7-0.5-1.1-0.7c-1.4,0-2.8,0.1-4.1,0.1
			v1.2h5.6v2h-5.6v1.1h6.6v2.1h-15.6v-2.1h6.6v-1.1h-5.6v-2h5.6v-1.1c-2.2,0-3.8,0.1-4.8,0.3l-0.8-1.7c0.9-0.4,1.9-1,3.2-1.9h-1.6
			v-1.8H180.7z M167.8,586.2v-4h6.5c-0.2-0.5-0.4-0.9-0.5-1.2l2.9-0.3c0.2,0.4,0.4,0.9,0.6,1.5h6.1v4h-2v-2.1h-11.5v2.1H167.8z
			 M176.9,587.4l0.7-0.5h-2.5c-0.8,0.5-1.6,1.1-2.4,1.6c1.9,0,3.8-0.1,5.7-0.1C177.9,588.1,177.4,587.7,176.9,587.4z"/>
	</g>
</g>
</svg>
