<?xml version="1.0" encoding="utf-8"?>
<!-- Generator: Adobe Illustrator 19.2.1, SVG Export Plug-In . SVG Version: 6.00 Build 0)  -->
<svg version="1.1" id="图层_1" xmlns="http://www.w3.org/2000/svg" xmlns:xlink="http://www.w3.org/1999/xlink" x="0px" y="0px"
	 viewBox="0 0 1600 900" style="enable-background:new 0 0 1600 900;" xml:space="preserve">
<style type="text/css">
	.st0{fill:#DDDDDD;}
	.st1{fill:#FFFFFF;}
	.st2{fill:#EFEFEF;}
	.st3{opacity:0.6;}
	.st4{fill:none;stroke:#B5B5B6;stroke-width:0.25;stroke-miterlimit:10;}
	.st5{fill:none;stroke:#AAAAAA;stroke-width:0.5;stroke-miterlimit:10;}
	.st6{fill:none;stroke:#AAAAAA;stroke-width:0.5;stroke-linecap:round;stroke-linejoin:round;stroke-miterlimit:10;}
	.st7{fill:#AAAAAA;}
	.st8{fill:#6B6B6B;stroke:#FFFFFF;stroke-miterlimit:10;}
	.st9{enable-background:new    ;}
</style>
<g>
	<g>
		<polygon class="st0" points="81,836 81,464.4 161,464.4 161,64.7 322.8,64.7 322.8,118.1 638.7,118.1 638.7,144.8 961.1,144.8 
			961.1,118.1 1277,118.1 1277,64.7 1439.5,64.7 1439.5,464.4 1518.8,464.4 1518.8,836 		"/>
		<path class="st1" d="M1438,66.2v386.7v10v3h3h10h66.3v368.6H82.5V465.9h67.1h10h3v-3v-10V66.2h158.8v40.4v10v3h3h10h302.9v13.7v10
			v3h3h10h299.4h10h3v-3v-10v-13.7h302.9h10h3v-3v-10V66.2H1438 M1441,63.2h-165.5v43.4v10h-10H959.6v16.7v10h-10H650.2h-10v-10
			v-16.7H334.3h-10v-10V63.2H159.5v389.7v10h-10h-70v374.6h1440.9V462.9H1451h-10v-10V63.2L1441,63.2z"/>
	</g>
</g>
<rect x="246.4" y="149.9" class="st2" width="360.4" height="333.7"/>
<g class="st3">
	<g>
		<line class="st4" x1="246.4" y1="169.5" x2="606.8" y2="169.5"/>
		<line class="st4" x1="246.4" y1="192.2" x2="606.8" y2="192.2"/>
		<line class="st4" x1="246.4" y1="214.8" x2="606.8" y2="214.8"/>
		<line class="st4" x1="246.4" y1="237.5" x2="606.8" y2="237.5"/>
		<line class="st4" x1="246.4" y1="260.1" x2="606.8" y2="260.1"/>
		<line class="st4" x1="246.4" y1="282.8" x2="606.8" y2="282.8"/>
		<line class="st4" x1="246.4" y1="305.4" x2="606.8" y2="305.4"/>
		<line class="st4" x1="246.4" y1="328.1" x2="606.8" y2="328.1"/>
		<line class="st4" x1="246.4" y1="350.8" x2="606.8" y2="350.8"/>
		<line class="st4" x1="246.4" y1="373.4" x2="606.8" y2="373.4"/>
		<line class="st4" x1="246.4" y1="396.1" x2="606.8" y2="396.1"/>
		<line class="st4" x1="246.4" y1="418.7" x2="606.8" y2="418.7"/>
		<line class="st4" x1="246.4" y1="441.4" x2="606.8" y2="441.4"/>
		<line class="st4" x1="246.4" y1="464.1" x2="606.8" y2="464.1"/>
	</g>
	<g>
		<line class="st4" x1="562.4" y1="150.7" x2="562.4" y2="484.4"/>
		<line class="st4" x1="585.9" y1="150.7" x2="585.9" y2="484.4"/>
		<line class="st4" x1="539.7" y1="150.7" x2="539.7" y2="484.4"/>
		<line class="st4" x1="517.1" y1="150.7" x2="517.1" y2="484.4"/>
		<line class="st4" x1="494.4" y1="150.7" x2="494.4" y2="484.4"/>
		<line class="st4" x1="471.8" y1="150.7" x2="471.8" y2="484.4"/>
		<line class="st4" x1="449.1" y1="150.7" x2="449.1" y2="484.4"/>
		<line class="st4" x1="426.4" y1="150.7" x2="426.4" y2="484.4"/>
		<line class="st4" x1="403.8" y1="150.7" x2="403.8" y2="484.4"/>
		<line class="st4" x1="381.1" y1="150.7" x2="381.1" y2="484.4"/>
		<line class="st4" x1="358.5" y1="150.7" x2="358.5" y2="484.4"/>
		<line class="st4" x1="335.8" y1="150.7" x2="335.8" y2="484.4"/>
		<line class="st4" x1="313.2" y1="150.7" x2="313.2" y2="484.4"/>
		<line class="st4" x1="290.5" y1="150.7" x2="290.5" y2="484.4"/>
		<line class="st4" x1="267.8" y1="150.7" x2="267.8" y2="484.4"/>
	</g>
</g>
<rect x="246.4" y="496.2" class="st2" width="360.4" height="307.7"/>
<g class="st3">
	<g>
		<line class="st4" x1="246.4" y1="515.8" x2="606.8" y2="515.8"/>
		<line class="st4" x1="246.4" y1="538.4" x2="606.8" y2="538.4"/>
		<line class="st4" x1="246.4" y1="561.1" x2="606.8" y2="561.1"/>
		<line class="st4" x1="246.4" y1="583.7" x2="606.8" y2="583.7"/>
		<line class="st4" x1="246.4" y1="606.4" x2="606.8" y2="606.4"/>
		<line class="st4" x1="246.4" y1="629.1" x2="606.8" y2="629.1"/>
		<line class="st4" x1="246.4" y1="651.7" x2="606.8" y2="651.7"/>
		<line class="st4" x1="246.4" y1="674.4" x2="606.8" y2="674.4"/>
		<line class="st4" x1="246.4" y1="697" x2="606.8" y2="697"/>
		<line class="st4" x1="246.4" y1="719.7" x2="606.8" y2="719.7"/>
		<line class="st4" x1="246.4" y1="742.4" x2="606.8" y2="742.4"/>
		<line class="st4" x1="246.4" y1="765" x2="606.8" y2="765"/>
		<line class="st4" x1="246.4" y1="787.7" x2="606.8" y2="787.7"/>
		<line class="st4" x1="246.4" y1="810.3" x2="606.8" y2="810.3"/>
	</g>
	<g>
		<line class="st4" x1="562.4" y1="497" x2="562.4" y2="803.9"/>
		<line class="st4" x1="585.9" y1="497" x2="585.9" y2="803.9"/>
		<line class="st4" x1="539.7" y1="497" x2="539.7" y2="803.9"/>
		<line class="st4" x1="517.1" y1="497" x2="517.1" y2="803.9"/>
		<line class="st4" x1="494.4" y1="497" x2="494.4" y2="803.9"/>
		<line class="st4" x1="471.8" y1="497" x2="471.8" y2="803.9"/>
		<line class="st4" x1="449.1" y1="497" x2="449.1" y2="803.9"/>
		<line class="st4" x1="426.4" y1="497" x2="426.4" y2="803.9"/>
		<line class="st4" x1="403.8" y1="497" x2="403.8" y2="803.9"/>
		<line class="st4" x1="381.1" y1="497" x2="381.1" y2="803.9"/>
		<line class="st4" x1="358.5" y1="497" x2="358.5" y2="803.9"/>
		<line class="st4" x1="335.8" y1="497" x2="335.8" y2="803.9"/>
		<line class="st4" x1="313.2" y1="497" x2="313.2" y2="803.9"/>
		<line class="st4" x1="290.5" y1="497" x2="290.5" y2="803.9"/>
		<line class="st4" x1="267.8" y1="497" x2="267.8" y2="803.9"/>
	</g>
</g>
<rect x="100.3" y="496.2" class="st2" width="133.1" height="307.7"/>
<g class="st3">
	<g>
		<line class="st4" x1="100.3" y1="515.8" x2="233.4" y2="515.8"/>
		<line class="st4" x1="100.3" y1="538.4" x2="233.4" y2="538.4"/>
		<line class="st4" x1="100.3" y1="561.1" x2="233.4" y2="561.1"/>
		<line class="st4" x1="100.3" y1="583.7" x2="233.4" y2="583.7"/>
		<line class="st4" x1="100.3" y1="606.4" x2="233.4" y2="606.4"/>
		<line class="st4" x1="100.3" y1="629.1" x2="233.4" y2="629.1"/>
		<line class="st4" x1="100.3" y1="651.7" x2="233.4" y2="651.7"/>
		<line class="st4" x1="100.3" y1="674.4" x2="233.4" y2="674.4"/>
		<line class="st4" x1="100.3" y1="697" x2="233.4" y2="697"/>
		<line class="st4" x1="100.3" y1="719.7" x2="233.4" y2="719.7"/>
		<line class="st4" x1="100.3" y1="742.4" x2="233.4" y2="742.4"/>
		<line class="st4" x1="100.3" y1="765" x2="233.4" y2="765"/>
		<line class="st4" x1="100.3" y1="787.7" x2="233.4" y2="787.7"/>
		<line class="st4" x1="100.3" y1="810.3" x2="233.4" y2="810.3"/>
	</g>
	<g>
		<line class="st4" x1="189.1" y1="497" x2="189.1" y2="803.9"/>
		<line class="st4" x1="212.5" y1="497" x2="212.5" y2="803.9"/>
		<line class="st4" x1="166.4" y1="497" x2="166.4" y2="803.9"/>
		<line class="st4" x1="143.7" y1="497" x2="143.7" y2="803.9"/>
		<line class="st4" x1="121.1" y1="497" x2="121.1" y2="803.9"/>
	</g>
</g>
<rect x="1367.8" y="496.2" class="st2" width="133.1" height="307.7"/>
<g class="st3">
	<g>
		<line class="st4" x1="1367.8" y1="515.8" x2="1500.9" y2="515.8"/>
		<line class="st4" x1="1367.8" y1="538.4" x2="1500.9" y2="538.4"/>
		<line class="st4" x1="1367.8" y1="561.1" x2="1500.9" y2="561.1"/>
		<line class="st4" x1="1367.8" y1="583.7" x2="1500.9" y2="583.7"/>
		<line class="st4" x1="1367.8" y1="606.4" x2="1500.9" y2="606.4"/>
		<line class="st4" x1="1367.8" y1="629.1" x2="1500.9" y2="629.1"/>
		<line class="st4" x1="1367.8" y1="651.7" x2="1500.9" y2="651.7"/>
		<line class="st4" x1="1367.8" y1="674.4" x2="1500.9" y2="674.4"/>
		<line class="st4" x1="1367.8" y1="697" x2="1500.9" y2="697"/>
		<line class="st4" x1="1367.8" y1="719.7" x2="1500.9" y2="719.7"/>
		<line class="st4" x1="1367.8" y1="742.4" x2="1500.9" y2="742.4"/>
		<line class="st4" x1="1367.8" y1="765" x2="1500.9" y2="765"/>
		<line class="st4" x1="1367.8" y1="787.7" x2="1500.9" y2="787.7"/>
		<line class="st4" x1="1367.8" y1="810.3" x2="1500.9" y2="810.3"/>
	</g>
	<g>
		<line class="st4" x1="1456.5" y1="497" x2="1456.5" y2="803.9"/>
		<line class="st4" x1="1480" y1="497" x2="1480" y2="803.9"/>
		<line class="st4" x1="1433.9" y1="497" x2="1433.9" y2="803.9"/>
		<line class="st4" x1="1411.2" y1="497" x2="1411.2" y2="803.9"/>
		<line class="st4" x1="1388.5" y1="497" x2="1388.5" y2="803.9"/>
	</g>
</g>
<rect x="993.1" y="149.9" class="st2" width="360.4" height="333.7"/>
<g class="st3">
	<g>
		<line class="st4" x1="993.1" y1="169.5" x2="1353.4" y2="169.5"/>
		<line class="st4" x1="993.1" y1="192.2" x2="1353.4" y2="192.2"/>
		<line class="st4" x1="993.1" y1="214.8" x2="1353.4" y2="214.8"/>
		<line class="st4" x1="993.1" y1="237.5" x2="1353.4" y2="237.5"/>
		<line class="st4" x1="993.1" y1="260.1" x2="1353.4" y2="260.1"/>
		<line class="st4" x1="993.1" y1="282.8" x2="1353.4" y2="282.8"/>
		<line class="st4" x1="993.1" y1="305.4" x2="1353.4" y2="305.4"/>
		<line class="st4" x1="993.1" y1="328.1" x2="1353.4" y2="328.1"/>
		<line class="st4" x1="993.1" y1="350.8" x2="1353.4" y2="350.8"/>
		<line class="st4" x1="993.1" y1="373.4" x2="1353.4" y2="373.4"/>
		<line class="st4" x1="993.1" y1="396.1" x2="1353.4" y2="396.1"/>
		<line class="st4" x1="993.1" y1="418.7" x2="1353.4" y2="418.7"/>
		<line class="st4" x1="993.1" y1="441.4" x2="1353.4" y2="441.4"/>
		<line class="st4" x1="993.1" y1="464.1" x2="1353.4" y2="464.1"/>
	</g>
	<g>
		<line class="st4" x1="1309.1" y1="150.7" x2="1309.1" y2="484.4"/>
		<line class="st4" x1="1332.6" y1="150.7" x2="1332.6" y2="484.4"/>
		<line class="st4" x1="1286.4" y1="150.7" x2="1286.4" y2="484.4"/>
		<line class="st4" x1="1263.8" y1="150.7" x2="1263.8" y2="484.4"/>
		<line class="st4" x1="1241.1" y1="150.7" x2="1241.1" y2="484.4"/>
		<line class="st4" x1="1218.4" y1="150.7" x2="1218.4" y2="484.4"/>
		<line class="st4" x1="1195.8" y1="150.7" x2="1195.8" y2="484.4"/>
		<line class="st4" x1="1173.1" y1="150.7" x2="1173.1" y2="484.4"/>
		<line class="st4" x1="1150.5" y1="150.7" x2="1150.5" y2="484.4"/>
		<line class="st4" x1="1127.8" y1="150.7" x2="1127.8" y2="484.4"/>
		<line class="st4" x1="1105.2" y1="150.7" x2="1105.2" y2="484.4"/>
		<line class="st4" x1="1082.5" y1="150.7" x2="1082.5" y2="484.4"/>
		<line class="st4" x1="1059.8" y1="150.7" x2="1059.8" y2="484.4"/>
		<line class="st4" x1="1037.2" y1="150.7" x2="1037.2" y2="484.4"/>
		<line class="st4" x1="1014.5" y1="150.7" x2="1014.5" y2="484.4"/>
	</g>
</g>
<rect x="619.7" y="176.6" class="st2" width="360.4" height="307"/>
<g class="st3">
	<g>
		<line class="st4" x1="619.7" y1="196.2" x2="980.1" y2="196.2"/>
		<line class="st4" x1="619.7" y1="218.8" x2="980.1" y2="218.8"/>
		<line class="st4" x1="619.7" y1="241.5" x2="980.1" y2="241.5"/>
		<line class="st4" x1="619.7" y1="264.2" x2="980.1" y2="264.2"/>
		<line class="st4" x1="619.7" y1="286.8" x2="980.1" y2="286.8"/>
		<line class="st4" x1="619.7" y1="309.5" x2="980.1" y2="309.5"/>
		<line class="st4" x1="619.7" y1="332.1" x2="980.1" y2="332.1"/>
		<line class="st4" x1="619.7" y1="354.8" x2="980.1" y2="354.8"/>
		<line class="st4" x1="619.7" y1="377.5" x2="980.1" y2="377.5"/>
		<line class="st4" x1="619.7" y1="400.1" x2="980.1" y2="400.1"/>
		<line class="st4" x1="619.7" y1="422.8" x2="980.1" y2="422.8"/>
		<line class="st4" x1="619.7" y1="445.4" x2="980.1" y2="445.4"/>
		<line class="st4" x1="619.7" y1="468.1" x2="980.1" y2="468.1"/>
	</g>
	<g>
		<line class="st4" x1="935.7" y1="177.4" x2="935.7" y2="483.6"/>
		<line class="st4" x1="959.2" y1="177.4" x2="959.2" y2="483.6"/>
		<line class="st4" x1="913.1" y1="177.4" x2="913.1" y2="483.6"/>
		<line class="st4" x1="890.4" y1="177.4" x2="890.4" y2="483.6"/>
		<line class="st4" x1="867.8" y1="177.4" x2="867.8" y2="483.6"/>
		<line class="st4" x1="845.1" y1="177.4" x2="845.1" y2="483.6"/>
		<line class="st4" x1="822.4" y1="177.4" x2="822.4" y2="483.6"/>
		<line class="st4" x1="799.8" y1="177.4" x2="799.8" y2="483.6"/>
		<line class="st4" x1="777.1" y1="177.4" x2="777.1" y2="483.6"/>
		<line class="st4" x1="754.5" y1="177.4" x2="754.5" y2="483.6"/>
		<line class="st4" x1="731.8" y1="177.4" x2="731.8" y2="483.6"/>
		<line class="st4" x1="709.2" y1="177.4" x2="709.2" y2="483.6"/>
		<line class="st4" x1="686.5" y1="177.4" x2="686.5" y2="483.6"/>
		<line class="st4" x1="663.8" y1="177.4" x2="663.8" y2="483.6"/>
		<line class="st4" x1="641.2" y1="177.4" x2="641.2" y2="483.6"/>
	</g>
</g>
<rect x="619.7" y="496.6" class="st2" width="733.7" height="307"/>
<g class="st3">
	<g>
		<line class="st4" x1="619.7" y1="516.1" x2="1353.4" y2="516.1"/>
		<line class="st4" x1="619.7" y1="538.8" x2="1353.4" y2="538.8"/>
		<line class="st4" x1="619.7" y1="561.5" x2="1353.4" y2="561.5"/>
		<line class="st4" x1="619.7" y1="584.1" x2="1353.4" y2="584.1"/>
		<line class="st4" x1="619.7" y1="606.8" x2="1353.4" y2="606.8"/>
		<line class="st4" x1="619.7" y1="629.4" x2="1353.4" y2="629.4"/>
		<line class="st4" x1="619.7" y1="652.1" x2="1353.4" y2="652.1"/>
		<line class="st4" x1="619.7" y1="674.8" x2="1353.4" y2="674.8"/>
		<line class="st4" x1="619.7" y1="697.4" x2="1353.4" y2="697.4"/>
		<line class="st4" x1="619.7" y1="720.1" x2="1353.4" y2="720.1"/>
		<line class="st4" x1="619.7" y1="742.7" x2="1353.4" y2="742.7"/>
		<line class="st4" x1="619.7" y1="765.4" x2="1353.4" y2="765.4"/>
		<line class="st4" x1="619.7" y1="788" x2="1353.4" y2="788"/>
	</g>
	<g>
		<line class="st4" x1="935.7" y1="497.3" x2="935.7" y2="803.6"/>
		<line class="st4" x1="959.2" y1="497.3" x2="959.2" y2="803.6"/>
		<line class="st4" x1="913.1" y1="497.3" x2="913.1" y2="803.6"/>
		<line class="st4" x1="890.4" y1="497.3" x2="890.4" y2="803.6"/>
		<line class="st4" x1="867.8" y1="497.3" x2="867.8" y2="803.6"/>
		<line class="st4" x1="845.1" y1="497.3" x2="845.1" y2="803.6"/>
		<line class="st4" x1="822.4" y1="497.3" x2="822.4" y2="803.6"/>
		<line class="st4" x1="799.8" y1="497.3" x2="799.8" y2="803.6"/>
		<line class="st4" x1="777.1" y1="497.3" x2="777.1" y2="803.6"/>
		<line class="st4" x1="754.5" y1="497.3" x2="754.5" y2="803.6"/>
		<line class="st4" x1="731.8" y1="497.3" x2="731.8" y2="803.6"/>
		<line class="st4" x1="709.2" y1="497.3" x2="709.2" y2="803.6"/>
		<line class="st4" x1="686.5" y1="497.3" x2="686.5" y2="803.6"/>
		<line class="st4" x1="663.8" y1="497.3" x2="663.8" y2="803.6"/>
		<line class="st4" x1="641.2" y1="497.3" x2="641.2" y2="803.6"/>
		<line class="st4" x1="982.9" y1="497.3" x2="982.9" y2="803.6"/>
		<line class="st4" x1="1006.5" y1="497.3" x2="1006.5" y2="803.6"/>
		<line class="st4" x1="1030.1" y1="497.3" x2="1030.1" y2="803.6"/>
		<line class="st4" x1="1053.8" y1="497.3" x2="1053.8" y2="803.6"/>
		<line class="st4" x1="1077.4" y1="497.3" x2="1077.4" y2="803.6"/>
		<line class="st4" x1="1101" y1="497.3" x2="1101" y2="803.6"/>
		<line class="st4" x1="1124.7" y1="497.3" x2="1124.7" y2="803.6"/>
		<line class="st4" x1="1148.3" y1="497.3" x2="1148.3" y2="803.6"/>
		<line class="st4" x1="1171.9" y1="497.3" x2="1171.9" y2="803.6"/>
		<line class="st4" x1="1195.6" y1="497.3" x2="1195.6" y2="803.6"/>
		<line class="st4" x1="1219.2" y1="497.3" x2="1219.2" y2="803.6"/>
		<line class="st4" x1="1242.8" y1="497.3" x2="1242.8" y2="803.6"/>
		<line class="st4" x1="1266.5" y1="497.3" x2="1266.5" y2="803.6"/>
		<line class="st4" x1="1290.1" y1="497.3" x2="1290.1" y2="803.6"/>
		<line class="st4" x1="1313.8" y1="497.3" x2="1313.8" y2="803.6"/>
		<line class="st4" x1="1337.4" y1="497.3" x2="1337.4" y2="803.6"/>
	</g>
</g>
<g>
	<line class="st5" x1="112.9" y1="496.2" x2="112.9" y2="746.1"/>
	<polyline class="st5" points="112.9,794.3 112.9,803.9 233.8,803.9 	"/>
	<line class="st5" x1="246.4" y1="803.9" x2="1353.4" y2="803.9"/>
	<polyline class="st5" points="1366.8,803.9 1486.9,803.9 1486.9,794.3 	"/>
	<polyline class="st5" points="1486.9,746.1 1486.9,496.2 1420.2,496.2 	"/>
	<line class="st5" x1="980.5" y1="176.6" x2="892.2" y2="176.6"/>
	<polyline class="st5" points="180.4,483.6 100.3,483.6 100.3,816.5 1499.5,816.5 1499.5,483.6 1366.8,483.6 	"/>
	<polyline class="st5" points="980.5,137.3 980.5,164 619.4,164 	"/>
	<line class="st5" x1="233.8" y1="496.2" x2="246.4" y2="496.2"/>
	<polyline class="st5" points="675,496.2 1353.4,496.2 1353.4,746.1 	"/>
	<line class="st5" x1="1353.4" y1="794.3" x2="1353.4" y2="803.9"/>
	<line class="st5" x1="1366.8" y1="496.2" x2="1366.8" y2="803.9"/>
	<line class="st5" x1="233.8" y1="496.2" x2="233.8" y2="746.1"/>
	<line class="st5" x1="233.8" y1="794.3" x2="233.8" y2="803.9"/>
	<line class="st5" x1="246.4" y1="496.2" x2="246.4" y2="803.9"/>
	<line class="st5" x1="606.8" y1="496.2" x2="606.8" y2="803.9"/>
	<line class="st5" x1="619.4" y1="496.2" x2="619.4" y2="746.1"/>
	<line class="st5" x1="619.4" y1="794.3" x2="619.4" y2="803.9"/>
	<line class="st5" x1="233.8" y1="794.3" x2="246.4" y2="794.3"/>
	<line class="st5" x1="233.8" y1="746.1" x2="246.4" y2="746.1"/>
	<line class="st5" x1="100.3" y1="794.3" x2="112.9" y2="794.3"/>
	<line class="st5" x1="100.3" y1="746.1" x2="112.9" y2="746.1"/>
	<line class="st5" x1="606.8" y1="794.3" x2="619.4" y2="794.3"/>
	<line class="st5" x1="606.8" y1="746.1" x2="619.4" y2="746.1"/>
	<line class="st5" x1="1353.4" y1="794.3" x2="1366.8" y2="794.3"/>
	<line class="st5" x1="1353.4" y1="746.1" x2="1366.8" y2="746.1"/>
	<line class="st5" x1="1486.9" y1="794.3" x2="1499.5" y2="794.3"/>
	<line class="st5" x1="1486.9" y1="746.1" x2="1499.5" y2="746.1"/>
	<line class="st5" x1="675" y1="483.6" x2="675" y2="496.2"/>
	<g>
		<rect x="113.6" y="556.3" class="st1" width="52.7" height="128.3"/>
		<line class="st5" x1="112.9" y1="684.6" x2="166.3" y2="684.6"/>
		<line class="st5" x1="112.9" y1="668.2" x2="166.3" y2="668.2"/>
		<line class="st5" x1="112.9" y1="652.7" x2="166.3" y2="652.7"/>
		<line class="st5" x1="112.9" y1="636.4" x2="166.3" y2="636.4"/>
		<line class="st5" x1="112.9" y1="620.8" x2="166.3" y2="620.8"/>
		<line class="st5" x1="112.9" y1="604.5" x2="166.3" y2="604.5"/>
		<line class="st5" x1="112.9" y1="588.2" x2="166.3" y2="588.2"/>
		<line class="st5" x1="112.9" y1="572.6" x2="166.3" y2="572.6"/>
		<polyline class="st5" points="166.3,684.6 166.3,556.3 112.9,556.3 		"/>
	</g>
	<line class="st5" x1="892.2" y1="164" x2="892.2" y2="176.6"/>
	<line class="st5" x1="619.4" y1="176.6" x2="707.6" y2="176.6"/>
	<line class="st5" x1="707.6" y1="164" x2="707.6" y2="176.6"/>
	<polyline class="st5" points="606.8,149.9 246.4,149.9 246.4,232.2 	"/>
	<line class="st5" x1="246.4" y1="388" x2="246.4" y2="483.6"/>
	<line class="st5" x1="246.4" y1="496.2" x2="112.9" y2="496.2"/>
	<line class="st5" x1="1420.2" y1="496.2" x2="1353.4" y2="496.2"/>
	<line class="st5" x1="1353.4" y1="483.6" x2="1353.4" y2="388"/>
	<polyline class="st5" points="1353.4,232.2 1353.4,149.9 993.1,149.9 	"/>
	<line class="st5" x1="606.8" y1="176.6" x2="606.8" y2="149.9"/>
	<line class="st5" x1="619.4" y1="137.3" x2="233.8" y2="137.3"/>
	<line class="st5" x1="233.8" y1="137.3" x2="233.8" y2="483.6"/>
	<polyline class="st5" points="180.4,83.9 180.4,483.6 233.8,483.6 	"/>
	<line class="st5" x1="1366.8" y1="496.2" x2="1366.8" y2="137.3"/>
	<line class="st5" x1="1420.2" y1="483.6" x2="1420.2" y2="83.9"/>
	<line class="st5" x1="1366.8" y1="137.3" x2="980.5" y2="137.3"/>
	<line class="st5" x1="980.5" y1="137.3" x2="980.5" y2="164"/>
	<line class="st5" x1="619.4" y1="164" x2="619.4" y2="137.3"/>
	<line class="st5" x1="246.4" y1="496.2" x2="606.8" y2="496.2"/>
	<line class="st5" x1="980.5" y1="496.2" x2="1353.4" y2="496.2"/>
	<line class="st5" x1="246.4" y1="483.6" x2="257.5" y2="483.6"/>
	<line class="st5" x1="305" y1="483.6" x2="606.8" y2="483.6"/>
	<line class="st5" x1="993.1" y1="483.6" x2="1296.3" y2="483.6"/>
	<line class="st5" x1="675" y1="483.6" x2="980.5" y2="483.6"/>
	<line class="st5" x1="1343.8" y1="483.6" x2="1353.4" y2="483.6"/>
	<line class="st5" x1="980.5" y1="176.6" x2="980.5" y2="483.6"/>
	<line class="st5" x1="993.1" y1="149.9" x2="993.1" y2="483.6"/>
	<line class="st5" x1="606.8" y1="176.6" x2="606.8" y2="483.6"/>
	<line class="st5" x1="619.4" y1="176.6" x2="619.4" y2="496.2"/>
	<line class="st5" x1="257.5" y1="483.6" x2="257.5" y2="496.2"/>
	<line class="st5" x1="305" y1="483.6" x2="305" y2="496.2"/>
	<line class="st5" x1="1296.3" y1="483.6" x2="1296.3" y2="496.2"/>
	<line class="st5" x1="1343.8" y1="483.6" x2="1343.8" y2="496.2"/>
	<line class="st5" x1="1353.4" y1="232.2" x2="1366.8" y2="232.2"/>
	<line class="st5" x1="1353.4" y1="388" x2="1366.8" y2="388"/>
	<line class="st5" x1="246.4" y1="232.2" x2="233.8" y2="232.2"/>
	<line class="st5" x1="246.4" y1="388" x2="233.8" y2="388"/>
	<line class="st5" x1="303.5" y1="83.9" x2="303.5" y2="137.3"/>
	<line class="st5" x1="1296.3" y1="83.9" x2="1296.3" y2="137.3"/>
	<g>
		<rect x="1433.5" y="556.3" class="st1" width="52.6" height="128.3"/>
		<polyline class="st5" points="1486.9,684.6 1433.5,684.6 1433.5,556.3 1486.9,556.3 1486.9,684.6 		"/>
		<line class="st5" x1="1433.5" y1="684.6" x2="1486.9" y2="684.6"/>
		<line class="st5" x1="1433.5" y1="668.2" x2="1486.9" y2="668.2"/>
		<line class="st5" x1="1433.5" y1="652.7" x2="1486.9" y2="652.7"/>
		<line class="st5" x1="1433.5" y1="636.4" x2="1486.9" y2="636.4"/>
		<line class="st5" x1="1433.5" y1="620.8" x2="1486.9" y2="620.8"/>
		<line class="st5" x1="1433.5" y1="604.5" x2="1486.9" y2="604.5"/>
		<line class="st5" x1="1433.5" y1="588.2" x2="1486.9" y2="588.2"/>
		<line class="st5" x1="1433.5" y1="572.6" x2="1486.9" y2="572.6"/>
	</g>
	<rect x="246.4" y="496.2" class="st1" width="63.8" height="160.2"/>
	<g>
		<line class="st5" x1="246.4" y1="496.2" x2="246.4" y2="656.4"/>
		<line class="st5" x1="246.4" y1="560.7" x2="310.2" y2="560.7"/>
		<line class="st5" x1="246.4" y1="576.3" x2="310.2" y2="576.3"/>
		<line class="st5" x1="246.4" y1="592.6" x2="310.2" y2="592.6"/>
		<line class="st5" x1="246.4" y1="608.2" x2="310.2" y2="608.2"/>
		<line class="st5" x1="246.4" y1="624.5" x2="310.2" y2="624.5"/>
		<line class="st5" x1="246.4" y1="640.1" x2="310.2" y2="640.1"/>
		<line class="st5" x1="246.4" y1="656.4" x2="310.2" y2="656.4"/>
		<line class="st5" x1="310.2" y1="656.4" x2="310.2" y2="496.2"/>
	</g>
	<rect x="1289.7" y="496.2" class="st1" width="63.8" height="160.2"/>
	<g>
		<line class="st5" x1="1289.7" y1="496.2" x2="1289.7" y2="656.4"/>
		<line class="st5" x1="1289.7" y1="560.7" x2="1353.4" y2="560.7"/>
		<line class="st5" x1="1289.7" y1="576.3" x2="1353.4" y2="576.3"/>
		<line class="st5" x1="1289.7" y1="592.6" x2="1353.4" y2="592.6"/>
		<line class="st5" x1="1289.7" y1="608.2" x2="1353.4" y2="608.2"/>
		<line class="st5" x1="1289.7" y1="624.5" x2="1353.4" y2="624.5"/>
		<line class="st5" x1="1289.7" y1="640.1" x2="1353.4" y2="640.1"/>
		<line class="st5" x1="1289.7" y1="656.4" x2="1353.4" y2="656.4"/>
		<line class="st5" x1="1353.4" y1="656.4" x2="1353.4" y2="496.2"/>
	</g>
	<line class="st6" x1="303.5" y1="83.9" x2="180.4" y2="83.9"/>
	<line class="st6" x1="1420.2" y1="83.9" x2="1296.3" y2="83.9"/>
</g>
<g>
	<rect x="233.8" y="137.3" class="st7" width="12.6" height="94.9"/>
	<rect x="233.8" y="388.3" class="st7" width="12.6" height="357.8"/>
	<rect x="100.3" y="483.6" class="st7" width="157.2" height="12.6"/>
	<rect x="305" y="483.7" class="st7" width="314.4" height="12.6"/>
	<rect x="606.8" y="137.3" class="st7" width="12.6" height="608.8"/>
	<rect x="100.3" y="483.6" class="st7" width="12.6" height="262.5"/>
	<rect x="100.3" y="794.3" class="st7" width="12.6" height="21.5"/>
	<rect x="233.8" y="794.3" class="st7" width="12.6" height="21.5"/>
	<rect x="606.8" y="794.3" class="st7" width="12.6" height="21.5"/>
	<rect x="1353.8" y="794.3" class="st7" width="12.6" height="21.5"/>
	<rect x="1486.9" y="794.3" class="st7" width="12.6" height="21.5"/>
	<rect x="606.8" y="164.1" class="st7" width="100.8" height="12.6"/>
	<rect x="675" y="483.7" class="st7" width="621.4" height="12.6"/>
	<rect x="892.3" y="164" class="st7" width="100.8" height="12.6"/>
	<rect x="1353.8" y="137.4" class="st7" width="12.6" height="94.9"/>
	<rect x="1353.8" y="388.3" class="st7" width="12.6" height="357.8"/>
	<rect x="1486.9" y="483.7" class="st7" width="12.6" height="261.9"/>
	<rect x="1343.8" y="483.6" class="st7" width="155.7" height="12.6"/>
	<rect x="100.3" y="804" class="st7" width="1399.2" height="12.6"/>
	<rect x="980.4" y="137.4" class="st7" width="12.6" height="358.9"/>
	<rect x="980.5" y="137.4" class="st7" width="386.3" height="12.6"/>
	<rect x="233.7" y="137.4" class="st7" width="385.6" height="12.6"/>
</g>
<path class="st8" d="M338.1,192.7h-66.4c-9.7,0-17.6-7.9-17.6-17.6l0,0c0-9.7,7.9-17.6,17.6-17.6h66.4c9.7,0,17.6,7.9,17.6,17.6l0,0
	C355.7,184.8,347.9,192.7,338.1,192.7z"/>
<path class="st8" d="M338.1,541.8h-66.4c-9.7,0-17.6-7.9-17.6-17.6l0,0c0-9.7,7.9-17.6,17.6-17.6h66.4c9.7,0,17.6,7.9,17.6,17.6l0,0
	C355.7,533.9,347.9,541.8,338.1,541.8z"/>
<path class="st8" d="M1084.7,192.7h-66.4c-9.7,0-17.6-7.9-17.6-17.6l0,0c0-9.7,7.9-17.6,17.6-17.6h66.4c9.7,0,17.6,7.9,17.6,17.6
	l0,0C1102.3,184.8,1094.5,192.7,1084.7,192.7z"/>
<path class="st8" d="M728.2,219.1h-83.7c-9.7,0-17.6-7.9-17.6-17.6l0,0c0-9.7,7.9-17.6,17.6-17.6h83.7c9.7,0,17.6,7.9,17.6,17.6l0,0
	C745.8,211.2,737.9,219.1,728.2,219.1z"/>
<path class="st8" d="M728.2,541.8h-83.7c-9.7,0-17.6-7.9-17.6-17.6l0,0c0-9.7,7.9-17.6,17.6-17.6h83.7c9.7,0,17.6,7.9,17.6,17.6l0,0
	C745.8,533.9,737.9,541.8,728.2,541.8z"/>
<g class="st9">
	<path class="st1" d="M278.8,180.6h6.8v-3.1h-5.1v-2.1h5.1v-3h-5.9v-2.2h6.4c-0.4-0.7-0.8-1.4-1.2-2.1l2.3-1c0.5,0.7,1,1.5,1.5,2.4
		l-1.6,0.7h7v2.2h-6v3h5.2v2.1h-5.2v3.1h6.8v2.2h-16.2V180.6z"/>
	<path class="st1" d="M299.3,171.3l1.4,1.5c-1.2,1-2.5,1.9-3.9,2.8c-0.4-0.6-0.8-1.2-1.2-1.7C296.9,173,298.1,172.2,299.3,171.3z
		 M309.3,175.3v1.9c-0.8,1.1-1.8,2.2-3.1,3c1.6,0.5,3.5,0.8,5.7,0.9c-0.2,0.3-0.6,1.1-1.2,2.4c-2.7-0.3-5-0.9-6.9-1.9
		c-2,0.9-4.3,1.6-7,2c-0.3-0.7-0.7-1.4-1.2-2.2c2.2-0.3,4.2-0.7,5.9-1.3c-1.1-0.8-1.9-1.8-2.7-2.9h-1.1v-1.9H309.3z M295.9,169.1
		h6.6l-0.6-1.4l2.4-0.6l0.8,1.9h6.4v1.9h-4.8v3.8h-2.1V171h-1.8v3.8h-2.1V171h-4.8V169.1z M303.8,179.2c1.1-0.6,2.1-1.2,2.9-2h-5.4
		C301.9,178,302.8,178.6,303.8,179.2z M308.2,171.4c1.2,0.7,2.4,1.5,3.8,2.5l-1.4,1.6c-1.1-0.9-2.3-1.8-3.6-2.7L308.2,171.4z"/>
	<path class="st1" d="M325.9,171.5v1.8h-1.4c1.1,0.6,2.3,1.4,3.8,2.3l-1.2,1.5c-0.4-0.2-0.7-0.5-1.1-0.7c-1.4,0-2.8,0.1-4.1,0.1v1.2
		h5.6v2h-5.6v1.1h6.6v2.1h-15.6v-2.1h6.6v-1.1h-5.6v-2h5.6v-1.1c-2.2,0-3.8,0.1-4.8,0.3l-0.8-1.7c0.9-0.4,1.9-1,3.2-1.9h-1.6v-1.8
		H325.9z M312.9,172.6v-4h6.5c-0.2-0.5-0.4-0.9-0.5-1.2l2.9-0.3c0.2,0.4,0.4,0.9,0.6,1.5h6.1v4h-2v-2.1H315v2.1H312.9z M322.1,173.8
		l0.7-0.5h-2.5c-0.8,0.5-1.6,1.1-2.4,1.6c1.9,0,3.8-0.1,5.7-0.1C323.1,174.5,322.6,174.1,322.1,173.8z"/>
</g>
<g class="st9">
	<path class="st1" d="M278.8,519.6h1.5v-2.9h2v2.9h1.1v2.1h-1.1v2.5l1.2-0.3c-0.1,0.7-0.1,1.5-0.1,2.2l-1.2,0.3v4.3
		c0,0.5-0.1,1-0.3,1.3c-0.2,0.3-0.5,0.5-0.8,0.5s-1,0.1-2.1,0.1c-0.1-0.6-0.2-1.4-0.4-2.2c0.3,0,0.7,0,1.2,0c0.3,0,0.4-0.2,0.4-0.7
		v-2.9l-1.6,0.4l-0.1-2.4c0.5-0.1,1.1-0.2,1.7-0.4v-2.9h-1.5V519.6z M284.5,525.5h9.5v2h-3.7v2.5h4.6v2h-11.4v-2h4.7v-2.5h-3.7
		V525.5z M288.8,522.6l-3.8,2.8l-1.4-1.6c1.1-0.7,2.3-1.6,3.6-2.7L288.8,522.6z M284.1,518.4h4l-0.4-1.4l2.3-0.4
		c0.2,0.6,0.4,1.3,0.5,1.9h4.1v3.3h-2.1v-1.3h-6.4v1.3h-2.1V518.4z M289.8,522.6l1.4-1.4c1,0.7,2.3,1.6,3.7,2.7l-1.4,1.6
		C293,525,291.7,524.1,289.8,522.6z"/>
	<path class="st1" d="M298.3,531.7h-2v-6.5h3.4V524h-4v-1.9h4v-1.5h-1.8c-0.1,0.5-0.3,0.9-0.4,1.4c-0.5-0.2-1-0.4-1.7-0.7
		c0.5-1.3,0.8-2.7,1.1-4.3l1.8,0.4l-0.3,1.3h1.3v-2.3h2.2v2.3h3.3v1.9h-3.3v1.5h3.8v1.9h-3.8v1.3h3.4v4.5c0,0.6-0.1,1.1-0.4,1.4
		c-0.3,0.3-0.7,0.5-1.2,0.6c-0.6,0-1,0-1.2,0c-0.1-0.6-0.3-1.3-0.5-2.1c0.3,0,0.6,0,0.8,0c0.3,0,0.5-0.2,0.5-0.5v-2h-1.4v5.6h-2.2
		v-5.6h-1.4V531.7z M306.1,517.8h2v11h-2V517.8z M309.1,516.5h2.1v13.6c0,0.8-0.2,1.4-0.6,1.9s-0.9,0.6-1.6,0.7c-0.7,0-1.5,0-2.4,0
		c-0.1-0.6-0.2-1.4-0.4-2.3c0.9,0.1,1.5,0.1,2,0.1c0.6,0,0.9-0.3,0.9-1V516.5z"/>
	<path class="st1" d="M325.9,520.8v1.8h-1.4c1.1,0.6,2.3,1.4,3.8,2.3l-1.2,1.5c-0.4-0.2-0.7-0.5-1.1-0.7c-1.4,0-2.8,0.1-4.1,0.1v1.2
		h5.6v2h-5.6v1.1h6.6v2.1h-15.6v-2.1h6.6V529h-5.6v-2h5.6v-1.1c-2.2,0-3.8,0.1-4.8,0.3l-0.8-1.7c0.9-0.4,1.9-1,3.2-1.9h-1.6v-1.8
		H325.9z M312.9,521.9v-4h6.5c-0.2-0.5-0.4-0.9-0.5-1.2l2.9-0.3c0.2,0.4,0.4,0.9,0.6,1.5h6.1v4h-2v-2.1H315v2.1H312.9z M322.1,523.1
		l0.7-0.5h-2.5c-0.8,0.5-1.6,1.1-2.4,1.6c1.9,0,3.8-0.1,5.7-0.1C323.1,523.7,322.6,523.4,322.1,523.1z"/>
</g>
<g class="st9">
	<path class="st1" d="M1027.1,180.6h6.8v-3.1h-5.1v-2.1h5.1v-3h-5.9v-2.2h6.4c-0.4-0.7-0.8-1.4-1.2-2.1l2.3-1c0.5,0.7,1,1.5,1.5,2.4
		l-1.6,0.7h7v2.2h-6v3h5.2v2.1h-5.2v3.1h6.8v2.2h-16.2V180.6z"/>
	<path class="st1" d="M1047.5,171.3l1.4,1.5c-1.2,1-2.5,1.9-3.9,2.8c-0.4-0.6-0.8-1.2-1.2-1.7C1045.2,173,1046.4,172.2,1047.5,171.3
		z M1057.6,175.3v1.9c-0.8,1.1-1.8,2.2-3.1,3c1.6,0.5,3.5,0.8,5.7,0.9c-0.2,0.3-0.6,1.1-1.2,2.4c-2.7-0.3-5-0.9-6.9-1.9
		c-2,0.9-4.3,1.6-7,2c-0.3-0.7-0.7-1.4-1.2-2.2c2.2-0.3,4.2-0.7,5.9-1.3c-1.1-0.8-1.9-1.8-2.7-2.9h-1.1v-1.9H1057.6z M1044.2,169.1
		h6.6l-0.6-1.4l2.4-0.6l0.8,1.9h6.4v1.9h-4.8v3.8h-2.1V171h-1.8v3.8h-2.1V171h-4.8V169.1z M1052.1,179.2c1.1-0.6,2.1-1.2,2.9-2h-5.4
		C1050.2,178,1051,178.6,1052.1,179.2z M1056.5,171.4c1.2,0.7,2.4,1.5,3.8,2.5l-1.4,1.6c-1.1-0.9-2.3-1.8-3.6-2.7L1056.5,171.4z"/>
	<path class="st1" d="M1074.1,171.5v1.8h-1.4c1.1,0.6,2.3,1.4,3.8,2.3l-1.2,1.5c-0.4-0.2-0.7-0.5-1.1-0.7c-1.4,0-2.8,0.1-4.1,0.1
		v1.2h5.6v2h-5.6v1.1h6.6v2.1h-15.6v-2.1h6.6v-1.1h-5.6v-2h5.6v-1.1c-2.2,0-3.8,0.1-4.8,0.3l-0.8-1.7c0.9-0.4,1.9-1,3.2-1.9h-1.6
		v-1.8H1074.1z M1061.2,172.6v-4h6.5c-0.2-0.5-0.4-0.9-0.5-1.2l2.9-0.3c0.2,0.4,0.4,0.9,0.6,1.5h6.1v4h-2v-2.1h-11.5v2.1H1061.2z
		 M1070.3,173.8l0.7-0.5h-2.5c-0.8,0.5-1.6,1.1-2.4,1.6c1.9,0,3.8-0.1,5.7-0.1C1071.3,174.5,1070.8,174.1,1070.3,173.8z"/>
</g>
<g class="st9">
	<path class="st1" d="M636.3,204.6c0.9,0.6,1.8,1,3,1c0.7,0,1.3-0.2,1.7-0.5c0.4-0.3,0.6-0.8,0.6-1.4c0-0.6-0.3-1.1-0.8-1.4
		c-0.5-0.3-1.2-0.5-2.1-0.5h-1.1v-2.1h1c1.7,0,2.6-0.6,2.6-1.7c0-1.1-0.7-1.6-2-1.6c-0.9,0-1.7,0.3-2.5,0.8V195
		c0.9-0.5,1.9-0.7,3.1-0.7c1.2,0,2.2,0.3,2.9,0.8c0.8,0.6,1.1,1.3,1.1,2.3c0,1.7-0.8,2.7-2.5,3.2v0c0.9,0.1,1.6,0.4,2.1,1
		c0.5,0.6,0.8,1.2,0.8,2c0,1.2-0.4,2.2-1.3,2.8c-0.9,0.7-2.1,1-3.6,1c-1.3,0-2.4-0.2-3.2-0.7V204.6z"/>
	<path class="st1" d="M646.9,204.7c0.9,0.5,1.8,0.8,2.8,0.8c0.7,0,1.3-0.2,1.8-0.6s0.7-0.9,0.7-1.5c0-1.3-0.9-2-2.7-2
		c-0.5,0-1.2,0-2.1,0.1v-7.1h7v2.2h-4.7v2.7c0.3,0,0.7-0.1,1.1-0.1c1.3,0,2.3,0.3,3.1,1c0.8,0.7,1.1,1.6,1.1,2.8
		c0,1.3-0.4,2.4-1.3,3.2c-0.9,0.8-2.1,1.2-3.5,1.2c-1.2,0-2.2-0.2-3.1-0.6V204.7z"/>
	<path class="st1" d="M667.8,207.3h-3.4l-3.9-5.6c-0.1-0.1-0.2-0.4-0.3-0.7h0v6.3h-2.7v-12.8h2.7v6h0c0.1-0.3,0.2-0.5,0.4-0.7
		l3.7-5.4h3.3l-4.6,6.1L667.8,207.3z"/>
	<path class="st1" d="M679.5,194.6l-4.4,12.8H672l-4.4-12.8h2.9l2.8,9c0.1,0.4,0.2,0.9,0.3,1.3h0c0-0.4,0.1-0.8,0.3-1.3l2.8-9H679.5
		z"/>
	<path class="st1" d="M685,200.4h3.8v-4h-2.9v-2.1h14.7v2.1H698v4h3.3v2.1H698v6.8h-2.4v-6.8h-4.4c-0.1,2-0.5,3.5-1.1,4.5
		c-0.6,1-1.6,1.9-2.9,2.6c-0.6-0.5-1.3-1.1-2.1-1.7c1-0.5,1.9-1.2,2.5-2c0.7-0.8,1.1-1.9,1.2-3.5H685V200.4z M691.2,200.4h4.4v-4
		h-4.4V200.4z"/>
	<path class="st1" d="M702,200.8h6.8c0-0.1,0-0.8,0-2.1h-6v-2.1h3.6c-0.6-0.8-1.2-1.5-1.6-2l1.9-1.3c0.5,0.5,1.2,1.4,2.3,2.6
		l-1.1,0.7h2.9c0.9-1.2,1.6-2.3,2.2-3.4l2.4,1.2l-1.8,2.1h3.7v2.1h-6c0,0.5,0,1.2,0,2.1h6.8v2.1h-6.4c1.1,2.1,3.2,3.5,6.6,4.2
		c-0.8,1-1.3,1.8-1.7,2.3c-3.1-0.9-5.3-2.5-6.5-4.8c-1.1,2-3.2,3.7-6.4,5c-0.5-0.6-1.1-1.3-1.8-2.1c3.5-1.1,5.6-2.6,6.5-4.6H702
		V200.8z"/>
	<path class="st1" d="M732.1,197.6v1.8h-1.4c1.1,0.6,2.3,1.4,3.8,2.3l-1.2,1.5c-0.4-0.2-0.7-0.5-1.1-0.7c-1.4,0-2.8,0.1-4.1,0.1v1.2
		h5.6v2h-5.6v1.1h6.6v2.1h-15.6v-2.1h6.6v-1.1h-5.6v-2h5.6v-1.1c-2.2,0-3.8,0.1-4.8,0.3l-0.8-1.7c0.9-0.4,1.9-1,3.2-1.9h-1.6v-1.8
		H732.1z M719.2,198.7v-4h6.5c-0.2-0.5-0.4-0.9-0.5-1.2l2.9-0.3c0.2,0.4,0.4,0.9,0.6,1.5h6.1v4h-2v-2.1h-11.5v2.1H719.2z
		 M728.3,199.9l0.7-0.5h-2.5c-0.8,0.5-1.6,1.1-2.4,1.6c1.9,0,3.8-0.1,5.7-0.1C729.3,200.6,728.8,200.2,728.3,199.9z"/>
</g>
<g class="st9">
	<path class="st1" d="M649.6,520.1c-0.6-0.4-1.4-0.6-2.1-0.6c-1,0-1.8,0.4-2.4,1.2s-0.9,1.8-0.9,3h0c0.6-0.9,1.5-1.4,2.7-1.4
		c1.1,0,1.9,0.4,2.6,1.1s0.9,1.7,0.9,2.9c0,1.3-0.4,2.3-1.2,3.2s-1.9,1.3-3.1,1.3c-1.5,0-2.6-0.5-3.4-1.6s-1.2-2.5-1.2-4.3
		c0-2.2,0.5-3.9,1.5-5.3c1-1.4,2.4-2,4.2-2c1,0,1.7,0.1,2.3,0.3V520.1z M644.3,526.3c0,0.7,0.2,1.2,0.5,1.7c0.3,0.5,0.8,0.7,1.3,0.7
		c0.5,0,1-0.2,1.3-0.6c0.3-0.4,0.5-1,0.5-1.6c0-1.4-0.6-2.2-1.8-2.2c-0.5,0-1,0.2-1.3,0.6C644.5,525.3,644.3,525.7,644.3,526.3z"/>
	<path class="st1" d="M663,530.5h-3.4l-3.9-5.6c-0.1-0.1-0.2-0.4-0.3-0.7h0v6.3h-2.7v-12.8h2.7v6h0c0.1-0.3,0.2-0.5,0.4-0.7l3.7-5.4
		h3.3l-4.6,6.1L663,530.5z"/>
	<path class="st1" d="M674.8,517.7l-4.4,12.8h-3.1l-4.4-12.8h2.9l2.8,9c0.1,0.4,0.2,0.9,0.3,1.3h0c0-0.4,0.1-0.8,0.3-1.3l2.8-9
		H674.8z"/>
	<path class="st1" d="M680.3,523.6h3.8v-4h-2.9v-2.1h14.7v2.1h-2.7v4h3.3v2.1h-3.3v6.8h-2.4v-6.8h-4.4c-0.1,2-0.5,3.5-1.1,4.5
		c-0.6,1-1.6,1.9-2.9,2.6c-0.6-0.5-1.3-1.1-2.1-1.7c1-0.5,1.9-1.2,2.5-2c0.7-0.8,1.1-1.9,1.2-3.5h-3.7V523.6z M686.5,523.6h4.4v-4
		h-4.4V523.6z"/>
	<path class="st1" d="M697.3,524h6.8c0-0.1,0-0.8,0-2.1h-6v-2.1h3.6c-0.6-0.8-1.2-1.5-1.6-2l1.9-1.3c0.5,0.5,1.2,1.4,2.3,2.6
		l-1.1,0.7h2.9c0.9-1.2,1.6-2.3,2.2-3.4l2.4,1.2l-1.8,2.1h3.7v2.1h-6c0,0.5,0,1.2,0,2.1h6.8v2.1h-6.4c1.1,2.1,3.2,3.5,6.6,4.2
		c-0.8,1-1.3,1.8-1.7,2.3c-3.1-0.9-5.3-2.5-6.5-4.8c-1.1,2-3.2,3.7-6.4,5c-0.5-0.6-1.1-1.3-1.8-2.1c3.5-1.1,5.6-2.6,6.5-4.6h-6.3
		V524z"/>
	<path class="st1" d="M727.4,520.8v1.8H726c1.1,0.6,2.3,1.4,3.8,2.3l-1.2,1.5c-0.4-0.2-0.7-0.5-1.1-0.7c-1.4,0-2.8,0.1-4.1,0.1v1.2
		h5.6v2h-5.6v1.1h6.6v2.1h-15.6v-2.1h6.6V529h-5.6v-2h5.6v-1.1c-2.2,0-3.8,0.1-4.8,0.3l-0.8-1.7c0.9-0.4,1.9-1,3.2-1.9H717v-1.8
		H727.4z M714.4,521.9v-4h6.5c-0.2-0.5-0.4-0.9-0.5-1.2l2.9-0.3c0.2,0.4,0.4,0.9,0.6,1.5h6.1v4h-2v-2.1h-11.5v2.1H714.4z
		 M723.6,523.1l0.7-0.5h-2.5c-0.8,0.5-1.6,1.1-2.4,1.6c1.9,0,3.8-0.1,5.7-0.1C724.6,523.7,724.1,523.4,723.6,523.1z"/>
</g>
</svg>
