<?xml version="1.0" encoding="utf-8"?>
<!-- Generator: Adobe Illustrator 19.2.1, SVG Export Plug-In . SVG Version: 6.00 Build 0)  -->
<svg version="1.1" id="图层_1" xmlns="http://www.w3.org/2000/svg" xmlns:xlink="http://www.w3.org/1999/xlink" x="0px" y="0px"
	 viewBox="0 0 1600 920" style="enable-background:new 0 0 1600 920;" xml:space="preserve">
<style type="text/css">
	.st0{fill:#CCCCCC;stroke:#FFFFFF;stroke-width:3;stroke-miterlimit:10;}
	.st1{fill:#EFEFEF;}
	.st2{clip-path:url(#SVGID_2_);}
	.st3{opacity:0.6;}
	.st4{fill:none;stroke:#B5B5B6;stroke-width:0.25;stroke-miterlimit:10;}
	.st5{fill:#999999;}
	.st6{fill:none;stroke:#999999;stroke-width:0.5;stroke-miterlimit:10;}
	.st7{fill:#6B6B6B;stroke:#FFFFFF;stroke-miterlimit:10;}
	.st8{enable-background:new    ;}
	.st9{fill:#FFFFFF;}
	.st10{fill:#D10000;}
	.st11{fill:#333333;}
	.st12{fill:#05C47F;}
</style>
<g id="图层_6">
	<g>
		<polygon class="st0" points="1004.3,134.1 1004.3,783.6 792.8,783.6 792.5,334.5 608.5,334.5 608.5,134.1 		"/>
		<polygon class="st1" points="994,142.8 994,775 802.9,775 803.3,325.5 618.8,324.7 618.8,142.8 		"/>
		<g>
			<g>
				<g>
					<g>
						<defs>
							<polygon id="SVGID_1_" points="994.3,142.8 994.3,775 810.4,775 811.4,317.4 618.8,317.2 618.8,142.8 							"/>
						</defs>
						<clipPath id="SVGID_2_">
							<use xlink:href="#SVGID_1_"  style="overflow:visible;"/>
						</clipPath>
						<g class="st2">
							<g class="st3">
								<line class="st4" x1="618.6" y1="765.3" x2="1004.8" y2="765.6"/>
								<line class="st4" x1="618.6" y1="752.1" x2="1004.8" y2="752.4"/>
								<line class="st4" x1="618.6" y1="778.5" x2="1004.8" y2="778.8"/>
								<line class="st4" x1="618.6" y1="791.8" x2="1004.8" y2="792.1"/>
								<line class="st4" x1="618.7" y1="738.9" x2="1004.8" y2="739.1"/>
								<line class="st4" x1="618.7" y1="725.6" x2="1004.8" y2="725.9"/>
								<line class="st4" x1="618.7" y1="712.4" x2="1004.8" y2="712.7"/>
								<line class="st4" x1="618.7" y1="699.2" x2="1004.8" y2="699.5"/>
								<line class="st4" x1="618.7" y1="685.9" x2="1004.8" y2="686.2"/>
								<line class="st4" x1="618.7" y1="672.7" x2="1004.9" y2="673"/>
								<line class="st4" x1="618.7" y1="659.5" x2="1004.9" y2="659.8"/>
								<line class="st4" x1="618.7" y1="646.2" x2="1004.9" y2="646.5"/>
								<line class="st4" x1="618.7" y1="633" x2="1004.9" y2="633.3"/>
								<line class="st4" x1="618.7" y1="619.8" x2="1004.9" y2="620.1"/>
								<line class="st4" x1="618.7" y1="606.5" x2="1004.9" y2="606.8"/>
								<line class="st4" x1="618.7" y1="593.3" x2="1004.9" y2="593.6"/>
								<line class="st4" x1="618.7" y1="580.1" x2="1004.9" y2="580.4"/>
								<line class="st4" x1="618.8" y1="566.9" x2="1004.9" y2="567.1"/>
								<line class="st4" x1="618.8" y1="553.6" x2="1004.9" y2="553.9"/>
								<line class="st4" x1="618.8" y1="540.4" x2="1004.9" y2="540.7"/>
								<line class="st4" x1="618.9" y1="355.2" x2="1005" y2="355.5"/>
								<line class="st4" x1="618.9" y1="341.9" x2="1005" y2="342.2"/>
								<line class="st4" x1="618.9" y1="368.4" x2="1005" y2="368.7"/>
								<line class="st4" x1="618.9" y1="381.6" x2="1005" y2="381.9"/>
								<line class="st4" x1="618.9" y1="394.9" x2="1005" y2="395.1"/>
								<line class="st4" x1="618.8" y1="408.1" x2="1005" y2="408.4"/>
								<line class="st4" x1="618.8" y1="421.3" x2="1005" y2="421.6"/>
								<line class="st4" x1="618.8" y1="434.5" x2="1005" y2="434.8"/>
								<line class="st4" x1="618.8" y1="447.8" x2="1005" y2="448.1"/>
								<line class="st4" x1="618.8" y1="461" x2="1005" y2="461.3"/>
								<line class="st4" x1="618.8" y1="474.2" x2="1005" y2="474.5"/>
								<line class="st4" x1="618.8" y1="487.5" x2="1005" y2="487.8"/>
								<line class="st4" x1="618.8" y1="500.7" x2="1005" y2="501"/>
								<line class="st4" x1="618.8" y1="513.9" x2="1004.9" y2="514.2"/>
								<line class="st4" x1="618.8" y1="527.2" x2="1004.9" y2="527.5"/>
								<line class="st4" x1="618.9" y1="328.7" x2="1005.1" y2="329"/>
								<line class="st4" x1="618.9" y1="315.5" x2="1005.1" y2="315.8"/>
								<line class="st4" x1="618.9" y1="302.2" x2="1005.1" y2="302.5"/>
								<line class="st4" x1="618.9" y1="289" x2="1005.1" y2="289.3"/>
								<line class="st4" x1="618.9" y1="275.8" x2="1005.1" y2="276.1"/>
								<line class="st4" x1="618.9" y1="262.6" x2="1005.1" y2="262.8"/>
								<line class="st4" x1="618.9" y1="249.3" x2="1005.1" y2="249.6"/>
								<line class="st4" x1="618.9" y1="236.1" x2="1005.1" y2="236.4"/>
								<line class="st4" x1="619" y1="222.9" x2="1005.1" y2="223.1"/>
								<line class="st4" x1="619" y1="209.6" x2="1005.1" y2="209.9"/>
								<line class="st4" x1="619" y1="196.4" x2="1005.1" y2="196.7"/>
								<line class="st4" x1="619" y1="183.2" x2="1005.1" y2="183.5"/>
								<line class="st4" x1="619" y1="169.9" x2="1005.1" y2="170.2"/>
								<line class="st4" x1="619" y1="156.7" x2="1005.2" y2="157"/>
								<line class="st4" x1="619" y1="143.5" x2="1005.2" y2="143.8"/>
								<line class="st4" x1="619" y1="130.2" x2="1005.2" y2="130.5"/>
								<line class="st4" x1="619" y1="90.6" x2="1005.2" y2="90.8"/>
								<line class="st4" x1="619" y1="103.8" x2="1005.2" y2="104.1"/>
								<line class="st4" x1="619" y1="117" x2="1005.2" y2="117.3"/>
							</g>
							<g class="st3">
								<line class="st4" x1="686.5" y1="91.7" x2="685.9" y2="798.8"/>
								<line class="st4" x1="699" y1="91.7" x2="698.4" y2="798.8"/>
								<line class="st4" x1="674" y1="91.6" x2="673.4" y2="798.7"/>
								<line class="st4" x1="661.5" y1="91.6" x2="660.9" y2="798.7"/>
								<line class="st4" x1="649" y1="91.6" x2="648.4" y2="798.7"/>
								<line class="st4" x1="636.5" y1="91.6" x2="635.9" y2="798.7"/>
								<line class="st4" x1="624" y1="91.6" x2="623.3" y2="798.7"/>
								<line class="st4" x1="711.5" y1="91.7" x2="710.9" y2="798.8"/>
								<line class="st4" x1="724" y1="91.7" x2="723.4" y2="798.8"/>
								<line class="st4" x1="736.5" y1="91.7" x2="735.9" y2="798.8"/>
								<line class="st4" x1="749" y1="91.7" x2="748.4" y2="798.8"/>
								<line class="st4" x1="761.6" y1="91.7" x2="760.9" y2="798.8"/>
								<line class="st4" x1="774.1" y1="91.7" x2="773.4" y2="798.8"/>
								<line class="st4" x1="786.6" y1="91.7" x2="785.9" y2="798.8"/>
								<line class="st4" x1="799.1" y1="91.7" x2="798.4" y2="798.8"/>
								<line class="st4" x1="811.6" y1="91.7" x2="810.9" y2="798.8"/>
								<line class="st4" x1="824.1" y1="91.7" x2="823.4" y2="798.8"/>
								<line class="st4" x1="836.6" y1="91.7" x2="835.9" y2="798.8"/>
								<line class="st4" x1="849.1" y1="91.7" x2="848.4" y2="798.8"/>
								<line class="st4" x1="861.6" y1="91.7" x2="860.9" y2="798.8"/>
								<line class="st4" x1="874.1" y1="91.8" x2="873.5" y2="798.8"/>
								<line class="st4" x1="886.6" y1="91.8" x2="886" y2="798.9"/>
								<line class="st4" x1="899.1" y1="91.8" x2="898.5" y2="798.9"/>
								<line class="st4" x1="999.2" y1="91.8" x2="998.5" y2="798.9"/>
								<line class="st4" x1="986.6" y1="91.8" x2="986" y2="798.9"/>
								<line class="st4" x1="974.1" y1="91.8" x2="973.5" y2="798.9"/>
								<line class="st4" x1="961.6" y1="91.8" x2="961" y2="798.9"/>
								<line class="st4" x1="949.1" y1="91.8" x2="948.5" y2="798.9"/>
								<line class="st4" x1="936.6" y1="91.8" x2="936" y2="798.9"/>
								<line class="st4" x1="924.1" y1="91.8" x2="923.5" y2="798.9"/>
								<line class="st4" x1="911.6" y1="91.8" x2="911" y2="798.9"/>
							</g>
						</g>
					</g>
				</g>
			</g>
		</g>
		<g>
			<rect x="802.9" y="767.5" class="st5" width="48.5" height="7.5"/>
			<g>
				<rect x="851.5" y="767.5" class="st6" width="94" height="7.5"/>
				<rect x="848.6" y="769.8" class="st5" width="98" height="0.3"/>
				<rect x="848.5" y="772.3" class="st5" width="98" height="0.3"/>
			</g>
			<rect x="945.5" y="767.5" class="st5" width="48.5" height="7.5"/>
			<rect x="619.3" y="271.5" class="st5" width="7.5" height="53.2"/>
			<rect x="619.2" y="209" class="st5" width="7.5" height="31.3"/>
			<rect x="619.3" y="142.9" class="st5" width="7.5" height="34.8"/>
			<g>
				<rect x="619.2" y="240.5" class="st6" width="7.5" height="31"/>
				<rect x="621.5" y="240.2" class="st5" width="0.3" height="32.3"/>
				<rect x="624.1" y="240.2" class="st5" width="0.3" height="32.3"/>
			</g>
			<rect x="619.3" y="142.9" class="st5" width="374.8" height="7.5"/>
			<rect x="623" y="317.2" class="st5" width="187.4" height="7.5"/>
			<rect x="802.8" y="741.2" class="st5" width="7.5" height="26.3"/>
			<rect x="978" y="764" class="st5" width="16" height="7.3"/>
			<rect x="986.6" y="739.9" class="st5" width="7.5" height="35.1"/>
			<g>
				<rect x="986.6" y="646.2" class="st6" width="7.5" height="94"/>
				<rect x="991.5" y="643.2" class="st5" width="0.3" height="98"/>
				<rect x="989" y="643.2" class="st5" width="0.3" height="98"/>
			</g>
			<rect x="986.6" y="583.8" class="st5" width="7.5" height="62.4"/>
			<rect x="978" y="609.3" class="st5" width="13.7" height="11"/>
			<rect x="978.3" y="453.1" class="st5" width="13.7" height="11"/>
			<rect x="978.2" y="297.2" class="st5" width="13.7" height="11"/>
			<rect x="986.6" y="427.7" class="st5" width="7.5" height="62.1"/>
			<rect x="802.9" y="583.7" class="st5" width="7.5" height="62.4"/>
			<rect x="802.8" y="427.6" class="st5" width="7.5" height="62.1"/>
			<rect x="986.6" y="271.7" class="st5" width="7.5" height="62.1"/>
			<rect x="802.8" y="317.2" class="st5" width="7.5" height="16.7"/>
			<rect x="986.6" y="143" class="st5" width="7.5" height="34.8"/>
			<g>
				<rect x="986.6" y="646.2" class="st6" width="7.5" height="94"/>
				<rect x="991.5" y="643.2" class="st5" width="0.3" height="98"/>
				<rect x="989" y="643.2" class="st5" width="0.3" height="98"/>
			</g>
			<g>
				<rect x="986.9" y="490.7" class="st6" width="7.5" height="94"/>
				<rect x="991.8" y="487.7" class="st5" width="0.3" height="98"/>
				<rect x="989.2" y="487.7" class="st5" width="0.3" height="98"/>
			</g>
			<g>
				<rect x="986.3" y="334.5" class="st6" width="7.5" height="94"/>
				<rect x="991.2" y="331.5" class="st5" width="0.3" height="98"/>
				<rect x="988.6" y="331.5" class="st5" width="0.3" height="98"/>
			</g>
			<g>
				<rect x="802.9" y="334.5" class="st6" width="7.5" height="94"/>
				<rect x="807.7" y="331.5" class="st5" width="0.3" height="98"/>
				<rect x="805.2" y="331.5" class="st5" width="0.3" height="98"/>
			</g>
			<g>
				<rect x="802.9" y="490.7" class="st6" width="7.5" height="94"/>
				<rect x="807.7" y="487.7" class="st5" width="0.3" height="98"/>
				<rect x="805.2" y="487.7" class="st5" width="0.3" height="98"/>
			</g>
			<g>
				<rect x="802.9" y="647.1" class="st6" width="7.5" height="94"/>
				<rect x="807.7" y="644.1" class="st5" width="0.3" height="98"/>
				<rect x="805.2" y="644.1" class="st5" width="0.3" height="98"/>
			</g>
			<g>
				<rect x="986.2" y="177.7" class="st6" width="7.5" height="94"/>
				<rect x="991.2" y="174.6" class="st5" width="0.3" height="98"/>
				<rect x="988.6" y="174.6" class="st5" width="0.3" height="98"/>
			</g>
			<line class="st6" x1="619.4" y1="212.1" x2="619.4" y2="173.9"/>
		</g>
	</g>
	<g>
		<path class="st7" d="M730,201.5h-66.4c-9.7,0-17.6-7.9-17.6-17.6l0,0c0-9.7,7.9-17.6,17.6-17.6H730c9.7,0,17.6,7.9,17.6,17.6l0,0
			C747.6,193.6,739.8,201.5,730,201.5z"/>
		<g class="st8">
			<path class="st9" d="M689.1,176l-0.5,0.6c1.6,2.1,3.9,3.8,6.9,4.9c-0.5,0.7-1,1.4-1.5,2.1c-0.7-0.3-1.3-0.6-1.9-1
				c0,0.9-0.1,1.8-0.1,2.6c-0.1,1.9-0.9,2.9-2.4,2.9c-0.6,0.1-1.4,0.1-2.4,0c-0.2-0.8-0.3-1.6-0.5-2.2c1,0.1,1.7,0.1,2.1,0.1
				c0.7,0,1-0.3,1-0.9c0-0.4,0-0.7,0-0.9H684v4.5c0,0.7,0.4,1.1,1.3,1.1h5.4c0.7,0,1.2-0.3,1.4-1c0.1-0.5,0.3-1.2,0.4-2
				c0.7,0.3,1.4,0.6,2.2,0.9c-0.2,1-0.5,1.8-0.7,2.4c-0.4,1.2-1.4,1.8-2.8,1.8h-6.7c-1.8,0-2.8-0.9-2.8-2.6V183
				c-0.4,0.3-0.9,0.5-1.4,0.7c-0.5-0.8-1-1.5-1.5-2.1c3.4-1.5,5.9-3.4,7.3-5.7h3V176z M687.3,178.3c-1,1.4-2.3,2.6-3.9,3.7h7.8
				C689.7,181,688.3,179.7,687.3,178.3z"/>
			<path class="st9" d="M703.3,176.3l2.7-0.3c0.2,0.4,0.3,0.9,0.6,1.5h5.6v1.9h-12.7v4c0,4-0.7,7-2,9c-0.6-0.7-1.1-1.4-1.7-2
				c1-1.6,1.4-3.9,1.4-7v-5.9h6.6L703.3,176.3z M699.3,187.8h5.8v-1.2h-4.8v-1.9c0.4-0.7,0.8-1.3,1.2-2.1h-1.7v-1.9h2.7
				c0.2-0.5,0.5-0.9,0.7-1.4l2.3,0.3l-0.5,1h6.7v1.9H704l-1.2,2.1h2.3V183h2.2v1.6h4.1v1.9h-4.1v1.2h4.9v1.9h-4.9v2.4h-2.2v-2.4
				h-5.8V187.8z"/>
		</g>
	</g>
</g>
<g id="图层_4">
	<g>
		<g>
			<g>
				<g>
					<path class="st10" d="M1518.2,46.6H1506c-1.4,0-2.7-0.6-3.6-1.5s-1.5-2.2-1.5-3.6V29.3c0-1.5,0.6-2.8,1.6-3.7
						c0.9-0.8,2.1-1.3,3.4-1.3h12.2c1.4,0,2.7,0.6,3.6,1.5s1.5,2.2,1.5,3.6v12.2c0,1.3-0.5,2.4-1.2,3.3
						C1521.1,45.9,1519.7,46.6,1518.2,46.6z"/>
					<path class="st9" d="M1518.2,46.9H1506c-3,0-5.4-2.4-5.4-5.4V29.3c0-3,2.4-5.4,5.4-5.4h12.2c3,0,5.4,2.4,5.4,5.4v12.2
						C1523.6,44.5,1521.2,46.9,1518.2,46.9z M1506,24.6c-2.6,0-4.8,2.1-4.8,4.8v12.2c0,2.6,2.1,4.8,4.8,4.8h12.2
						c2.6,0,4.8-2.1,4.8-4.8V29.3c0-2.6-2.1-4.8-4.8-4.8H1506V24.6z"/>
				</g>
				<g>
					<g transform="scale(0.1953125, 0.1953125)">
						<path class="st9" d="M7773.9,192.4v10.4h-63.7v-10.4h5.3l0.1-20.1c1.1-10,12.5-17.9,26.4-17.9s25.3,7.9,26.4,17.9l0.1,20.1
							H7773.9L7773.9,192.4z M7730.2,172.3h-7.4v20h7.4V172.3z M7745.5,172.3h-7.4v20h7.4V172.3L7745.5,172.3z M7760.8,172.3h-7.4
							v20h7.4V172.3z"/>
					</g>
				</g>
			</g>
			<g>
				<g class="st8">
					<path class="st11" d="M1532.5,30.7l0.6,0.6V29h8.4v12.9h-1.6v-0.7h-5.2v0.7h-1.6v-2.6l-1,0.8c-0.3-0.5-0.6-1.1-0.9-1.6
						c-0.4,1.3-0.9,2.4-1.6,3.3c-0.4-0.5-0.8-1-1.3-1.5c0.9-1.1,1.5-2.9,1.7-5.3l-1.2,0.2c-0.1-1.4-0.3-2.8-0.5-4.3l1.2-0.2l0.6,3.9
						c0-0.6,0.1-1.2,0.1-1.8v-4.5h1.5v3.4C1532,31.5,1532.3,31.1,1532.5,30.7z M1531.6,36.6c0.6,0.6,1.1,1.2,1.5,1.8v-6
						c-0.5,0.5-0.9,1-1.3,1.5C1531.7,34.8,1531.7,35.8,1531.6,36.6z M1536.5,31h1.6c0,0.5,0,1,0,1.4h1.4V34h-1.5
						c0,0.3-0.1,0.7-0.2,1l0.6-0.2c0.4,0.9,0.9,1.9,1.5,3.2v-7.4h-5.2v7.3c0.8-0.9,1.4-2.2,1.6-3.8h-1.2v-1.6h1.4
						C1536.5,32,1536.5,31.5,1536.5,31z M1537.5,36.2c-0.4,1.2-0.9,2.2-1.7,3c-0.4-0.5-0.8-0.9-1.1-1.2v1.6h5.2v-1.3l-1.3,0.6
						C1538.2,38.1,1537.9,37.2,1537.5,36.2z"/>
					<path class="st11" d="M1543.6,29.7h6.9c0-0.4,0-0.8,0-1.2h1.7c0,0.4,0,0.8,0,1.2h1c-0.2-0.3-0.3-0.5-0.4-0.8l1.5-0.4
						c0.3,0.5,0.5,0.9,0.7,1.2h0.9v1.6h-3.5c0.1,0.9,0.2,1.8,0.4,2.4c0.4-0.6,0.8-1.2,1.1-1.9l1.4,0.8c-0.6,1.1-1.2,2.1-1.9,2.9
						c0.2,0.4,0.4,0.6,0.6,0.6s0.3-0.2,0.4-0.5s0.2-0.7,0.3-1.3c0.5,0.3,1,0.6,1.5,0.8c-0.2,1-0.5,1.7-0.7,2.1
						c-0.2,0.4-0.5,0.6-0.9,0.7c0.5,0.7,1.1,1.5,1.5,2.2l-1.5,0.9c-0.5-0.9-1-1.8-1.6-2.6l0.9-0.5c-0.7,0-1.3-0.4-1.8-1.1
						c-0.3,0.3-0.6,0.6-1,0.9c-0.3-0.4-0.6-0.7-0.8-1V37h-0.8c0.5,0.6,0.9,1.1,1.4,1.7l-1.4,1c-0.4-0.6-0.9-1.3-1.5-2.1l0.9-0.6
						h-3.2v-3.4h4.5v2.7c0.4-0.3,0.7-0.6,1.1-1c-0.3-1-0.6-2.3-0.7-4.1h-5.2V33c0,1.9-0.3,3.5-1,4.6l1.2,0.4
						c-0.4,1.1-0.9,2.2-1.5,3.3l-1.6-0.8c0.5-0.9,0.9-1.7,1.1-2.5c-0.4-0.4-0.8-0.8-1.2-1.1c0.8-0.9,1.2-2.4,1.2-4.3V29.7z
						 M1550.2,33.1h-4.6v-1.2h4.6V33.1z M1551.5,38.4c0.6,0.4,1.2,0.6,1.8,0.9c-0.4,1.2-0.8,1.9-1.2,2.1c-0.4,0.2-0.9,0.4-1.5,0.4
						h-2.9c-1.4,0-2-0.6-2-1.7v-2.2h1.8v1.7c0,0.4,0.3,0.6,0.8,0.6h1.8c0.5,0,0.8-0.1,1-0.3S1551.4,39.2,1551.5,38.4z M1548.7,35.8
						v-0.9h-1.5v0.9H1548.7z"/>
					<path class="st11" d="M1564.9,41.9h-2v-6c-0.6,0.6-1.3,1.2-1.9,1.8c-0.1-0.7-0.3-1.4-0.5-2.1c1.4-1.2,2.5-2.5,3.3-3.9h-3.2V30
						h4c0.2-0.5,0.4-1,0.5-1.5l2.2,0.3c-0.2,0.4-0.3,0.8-0.5,1.2h7.1v1.7h-7.9c-0.2,0.3-0.4,0.7-0.6,1h7.2V40c0,0.6-0.1,1-0.4,1.3
						s-0.7,0.5-1.1,0.5s-1.4,0.1-2.9,0.1c-0.1-0.6-0.3-1.2-0.5-1.9c0.8,0,1.5,0.1,2.2,0.1c0.5,0,0.8-0.3,0.8-0.8v-0.2h-5.8
						L1564.9,41.9L1564.9,41.9z M1570.8,34.2h-5.8v1h5.8V34.2z M1564.9,37.6h5.8v-1h-5.8V37.6z"/>
				</g>
			</g>
		</g>
		<g>
			<g>
				<g>
					<path class="st12" d="M1426.2,46.6H1414c-1.4,0-2.7-0.6-3.6-1.5s-1.5-2.2-1.5-3.6V29.3c0-1.5,0.6-2.8,1.6-3.7
						c0.9-0.8,2.1-1.3,3.4-1.3h12.2c1.4,0,2.7,0.6,3.6,1.5s1.5,2.2,1.5,3.6v12.2c0,1.3-0.5,2.4-1.2,3.3
						C1429.1,45.9,1427.7,46.6,1426.2,46.6z"/>
					<path class="st9" d="M1426.2,46.9H1414c-3,0-5.4-2.4-5.4-5.4V29.3c0-3,2.4-5.4,5.4-5.4h12.2c3,0,5.4,2.4,5.4,5.4v12.2
						C1431.6,44.5,1429.1,46.9,1426.2,46.9z M1414,24.6c-2.6,0-4.8,2.1-4.8,4.8v12.2c0,2.6,2.1,4.8,4.8,4.8h12.2
						c2.6,0,4.8-2.1,4.8-4.8V29.3c0-2.6-2.1-4.8-4.8-4.8H1414V24.6z"/>
				</g>
				<g>
					<g transform="scale(0.1953125, 0.1953125)">
						<path class="st9" d="M7302.7,192.4v10.4H7239v-10.4h5.3l0.1-20.1c1.1-10,12.5-17.9,26.4-17.9s25.3,7.9,26.4,17.9l0.1,20.1
							H7302.7L7302.7,192.4z M7259,172.3h-7.4v20h7.4V172.3z M7274.3,172.3h-7.4v20h7.4V172.3L7274.3,172.3z M7289.6,172.3h-7.4v20
							h7.4V172.3z"/>
					</g>
				</g>
			</g>
			<g>
				<g class="st8">
					<path class="st11" d="M1440.5,30.7l0.6,0.6V29h8.4v12.9h-1.6v-0.7h-5.2v0.7h-1.6v-2.6l-1,0.8c-0.3-0.5-0.6-1.1-0.9-1.6
						c-0.4,1.3-0.9,2.4-1.6,3.3c-0.4-0.5-0.8-1-1.3-1.5c0.9-1.1,1.5-2.9,1.7-5.3l-1.2,0.2c-0.1-1.4-0.3-2.8-0.5-4.3l1.2-0.2l0.6,3.9
						c0-0.6,0.1-1.2,0.1-1.8v-4.5h1.5v3.4C1440,31.5,1440.2,31.1,1440.5,30.7z M1439.5,36.6c0.6,0.6,1.1,1.2,1.5,1.8v-6
						c-0.5,0.5-0.9,1-1.3,1.5C1439.7,34.8,1439.6,35.8,1439.5,36.6z M1444.4,31h1.6c0,0.5,0,1,0,1.4h1.4V34h-1.5
						c0,0.3-0.1,0.7-0.2,1l0.6-0.2c0.4,0.9,0.9,1.9,1.5,3.2v-7.4h-5.2v7.3c0.8-0.9,1.4-2.2,1.6-3.8h-1.2v-1.6h1.4
						C1444.4,32,1444.4,31.5,1444.4,31z M1445.4,36.2c-0.4,1.2-0.9,2.2-1.7,3c-0.4-0.5-0.8-0.9-1.1-1.2v1.6h5.2v-1.3l-1.3,0.6
						C1446.2,38.1,1445.8,37.2,1445.4,36.2z"/>
					<path class="st11" d="M1451.5,29.7h6.9c0-0.4,0-0.8,0-1.2h1.7c0,0.4,0,0.8,0,1.2h1c-0.2-0.3-0.3-0.5-0.4-0.8l1.5-0.4
						c0.3,0.5,0.5,0.9,0.7,1.2h0.9v1.6h-3.5c0.1,0.9,0.2,1.8,0.4,2.4c0.4-0.6,0.8-1.2,1.1-1.9l1.4,0.8c-0.6,1.1-1.2,2.1-1.9,2.9
						c0.2,0.4,0.4,0.6,0.6,0.6s0.3-0.2,0.4-0.5s0.2-0.7,0.3-1.3c0.5,0.3,1,0.6,1.5,0.8c-0.2,1-0.5,1.7-0.7,2.1
						c-0.2,0.4-0.5,0.6-0.9,0.7c0.5,0.7,1.1,1.5,1.5,2.2l-1.5,0.9c-0.5-0.9-1-1.8-1.6-2.6l0.9-0.5c-0.7,0-1.3-0.4-1.8-1.1
						c-0.3,0.3-0.6,0.6-1,0.9c-0.3-0.4-0.6-0.7-0.8-1V37h-0.8c0.5,0.6,0.9,1.1,1.4,1.7l-1.4,1c-0.4-0.6-0.9-1.3-1.5-2.1l0.9-0.6
						h-3.2v-3.4h4.5v2.7c0.4-0.3,0.7-0.6,1.1-1c-0.3-1-0.6-2.3-0.7-4.1h-5.2V33c0,1.9-0.3,3.5-1,4.6l1.2,0.4
						c-0.4,1.1-0.9,2.2-1.5,3.3l-1.6-0.8c0.5-0.9,0.9-1.7,1.1-2.5c-0.4-0.4-0.8-0.8-1.2-1.1c0.8-0.9,1.2-2.4,1.2-4.3V29.7z
						 M1458.2,33.1h-4.6v-1.2h4.6V33.1z M1459.4,38.4c0.6,0.4,1.2,0.6,1.8,0.9c-0.4,1.2-0.8,1.9-1.2,2.1c-0.4,0.2-0.9,0.4-1.5,0.4
						h-2.9c-1.4,0-2-0.6-2-1.7v-2.2h1.8v1.7c0,0.4,0.3,0.6,0.8,0.6h1.8c0.5,0,0.8-0.1,1-0.3S1459.3,39.2,1459.4,38.4z M1456.7,35.8
						v-0.9h-1.5v0.9H1456.7z"/>
					<path class="st11" d="M1480.2,37.5c0.8,0.3,1.5,0.5,1.9,0.7c-0.2,1.1-0.4,1.9-0.6,2.3c-0.2,0.4-0.5,0.7-0.8,0.9
						c-0.4,0.2-0.9,0.3-1.5,0.3h-1.7c-1.5,0-2.2-0.7-2.2-2V36c-0.7,2.4-2.4,4.3-5.2,5.9c-0.5-0.5-1-1-1.6-1.5
						c2.9-1.6,4.6-3.4,5.1-5.4h-4.9v-1.8h5.3c0.1-0.6,0.1-1.4,0.2-2.2h-4.6v-1.8h11.6V31h-4.9c0,0.8-0.1,1.5-0.2,2.2h6V35h-6.3
						c-0.1,0.3-0.1,0.6-0.2,0.9h1.9v3c0,0.6,0.3,1,1,1h0.4c0.2,0,0.5,0,0.7-0.1s0.4-0.3,0.5-0.7S1480.1,38.1,1480.2,37.5z"/>
				</g>
			</g>
		</g>
	</g>
</g>
<g id="图层_5">
</g>
</svg>
