<?xml version="1.0" encoding="utf-8"?>
<!-- Generator: Adobe Illustrator 19.2.1, SVG Export Plug-In . SVG Version: 6.00 Build 0)  -->
<svg version="1.1" id="图层_1" xmlns="http://www.w3.org/2000/svg" xmlns:xlink="http://www.w3.org/1999/xlink" x="0px" y="0px"
	 viewBox="0 0 1160 900" style="enable-background:new 0 0 1160 900;" xml:space="preserve">
<style type="text/css">
	.st0{fill:#C6C6C6;}
	.st1{fill:#EFEFEF;}
	.st2{fill:#C9C9C9;}
	.st3{fill:#ABDBCC;stroke:#EEEBE6;stroke-miterlimit:10;}
	.st4{fill:#D8D8D8;}
	.st5{fill:#95BDDB;}
	.st6{fill:#E5E5E5;}
	.st7{fill:#E8E8E8;}
	.st8{fill:none;stroke:#BABABA;stroke-width:0.25;stroke-linecap:round;stroke-linejoin:round;stroke-miterlimit:10;}
	.st9{fill:none;stroke:#0000FF;stroke-width:0.25;stroke-linecap:round;stroke-linejoin:round;stroke-miterlimit:10;}
	.st10{fill:none;stroke:#00FF00;stroke-width:0.25;stroke-linecap:round;stroke-linejoin:round;stroke-miterlimit:10;}
	.st11{fill:none;stroke:#EEEBE6;stroke-miterlimit:10;}
	.st12{fill:none;stroke:#00B82E;stroke-width:0.25;stroke-linecap:round;stroke-linejoin:round;stroke-miterlimit:10;}
	.st13{fill:#EAEAEA;}
	.st14{fill:#8ABDDD;}
	.st15{fill:none;stroke:#0061ED;stroke-width:4;stroke-miterlimit:10;}
	.st16{fill:#CECECE;}
	.st17{fill:none;stroke:#BFFF00;stroke-width:0.25;stroke-linecap:round;stroke-linejoin:round;stroke-miterlimit:10;}
	.st18{fill:none;stroke:#00FFFF;stroke-width:0.25;stroke-linecap:round;stroke-linejoin:round;stroke-miterlimit:10;}
	.st19{fill:none;stroke:#00B82E;stroke-width:0.25;stroke-miterlimit:10;}
	.st20{fill:#61C1BF;stroke:#FFFFFF;stroke-width:0.25;stroke-miterlimit:10;}
	.st21{fill:#EDEDED;}
	.st22{fill:#CCCCCC;}
	.st23{fill:#B7B7B7;}
	.st24{fill:#8ABDDD;stroke:#0061ED;stroke-width:4;stroke-miterlimit:10;}
</style>
<g>
	<polygon class="st0" points="925.4,370.3 911,383.4 846.7,378.3 826.6,357.2 776,360.8 698.3,423.2 472.9,652 420.8,706.2 
		425.1,711.9 399.2,733.6 293.2,733.6 226.1,644.3 169.5,560.3 158.2,523.5 149,500.4 131,469.6 179,168.4 949.5,168.4 1029,281.7 
		1029,370.6 	"/>
	<g>
		<polygon class="st1" points="292.2,735.6 224.4,645.4 167.7,561.2 156.3,524.2 147.2,501.3 128.9,470 177.3,166.4 950.5,166.4 
			1031,281 1031,372.7 926.2,372.3 911.7,385.4 845.8,380.3 825.8,359.3 776.8,362.8 699.6,424.7 474.3,653.4 423.4,706.3 
			427.9,712.2 400,735.6 		"/>
		<path class="st2" d="M949.5,168.4l79.5,113.2v89l-103.6-0.3l-14.4,13l-64.3-5l-20.1-21.1l-50.6,3.6l-77.7,62.4L472.9,652l-52,54.2
			l4.3,5.8l-25.9,21.7h-106l-67.1-89.3l-56.6-84l-11.3-36.8l-9.2-23.1l-18-30.8l48-301.2h770.4 M951.6,164.4h-2.1H179h-3.4l-0.5,3.4
			L127,469l-0.2,1.4l0.7,1.2l17.8,30.5l9.1,22.7l11.2,36.6l0.2,0.6l0.3,0.5l56.6,84l0.1,0.1l0.1,0.1L290,736l1.2,1.6h2h106h1.5
			l1.1-0.9l25.9-21.7l2.9-2.4l-2.3-3l-2.3-3l49.7-51.7L701,426.2l76.5-61.5l47.5-3.4l18.8,19.7l1.1,1.1l1.5,0.1l64.3,5l1.7,0.1
			l1.3-1.2l13.2-12l102.1,0.3h4v-4v-89v-1.3l-0.7-1l-79.5-113.2L951.6,164.4L951.6,164.4z"/>
	</g>
	<g>
		<path class="st3" d="M910.9,383.6l14.6-13.1l87.8,0.3l-38.9-57c0,0-5.6-3-13.5-1.9l-5.8,2.4l12.4,18.4l-25.4,23l-5.6-6.6h-0.1
			l-4.1-1.8l-1.8-0.5l-2.3-0.5h-1.8l-1.8,0.5l-2.3,0.5l-1.8,1.4l-1.8,0.9l-1.4,1.8l-0.9,1.8l-0.5,1.8l-0.5,2.3v2.3l0.5,4.1l-0.5,0.9
			v0.9l-0.5,0.9l-0.5,0.9l-0.5,0.9l-0.9,0.5l-0.9,0.5l-0.9,0.5l-2.3,0.9H908l-0.9,0.5l-0.5,0.9l-0.9,0.5l-1.4,1.8l-1.4,1.4l-1.4,1.8
			l-0.9,0.5l-0.5,0.9l-0.9,0.5h-0.9l-1.8,0.5h-2.3h-2.3L890,379l-0.9-1.8l-1.4-2.3l-1.4-1.8l-1.4-1.4l-1.8-1.4l-2.3-1.4l-2.3-0.9
			l-2.3-0.5H874l-2.3,0.5l-4.6,0.9l-2.3,0.5h-1.4l-0.9-0.5h-1.4l-0.9-0.5l-2.3-1.4l-1.8-1.4l-1.8-1.4l-2.7-3.7l-1.4-1.8l-1.8-1.8
			l-1.4-1.4l-1.8-1.4l-1.8-0.5l-2.3-0.9l-2.3-0.5h-2.3h-2.7h-2.3l-5,0.5v4.1l20.1,21L910.9,383.6"/>
		<path class="st3" d="M791.1,329.7l73.4-5.4h0.5c4.9-0.4,9.3-3,12-7s3-9.9,1.5-14.5l46.3-25.4l-11-16.9l1.8-1.4l16.9,26l3.2-2.7
			l0.1-0.1c3.9-5.8,5-13.2,3.4-20l-65-93.1h-79.9l3.2,7.8l4.6,14.1l2.7,14.6l0.9,15.1l-0.5,15.1l-2.3,14.6l-4.1,14.6l-5.5,14.1
			L786,292l-8.5,12.4c-3.9,4.9-4.5,11.6-1.5,17.2C778.8,326.9,784.8,330.2,791.1,329.7L791.1,329.7z"/>
		<g>
			<rect x="392.4" y="348.8" class="st4" width="7.9" height="5.3"/>
			<rect x="392.4" y="350.1" class="st1" width="7.9" height="4.1"/>
		</g>
		<path class="st5" d="M781,222.8c0,60.6-49.1,109.7-109.7,109.7c-60.6,0-109.7-49.1-109.7-109.7c0-19.9,5.3-38.5,14.5-54.5
			c0.2,0.1,190.2-0.3,190.2-0.5C775.7,184,781,202.8,781,222.8z"/>
		<path class="st6" d="M789.3,221.5c0-19.1-4.3-37.3-12.7-54.1l-3.9,1.9c8.1,16.3,12.3,33.8,12.3,52.2c0,34.1-14.7,66.2-40.5,88.3
			l-2.7,2.4l2.3,0.9c4.1,16.7-8.2,38.7-25,44.3c-16.3,5.4-37.8,1.7-49.6-18.6l-0.1-1.6l-1.9-0.1c-29.8-0.8-57.7-13.2-78.6-34.9
			c-4.1-4.3-7.9-8.8-11.2-13.6l8.2-5.9l-4.9-7l-8.4,5c-10.5-17.7-16.1-38.1-16.1-59.2c0-18.2,4.1-35.7,12.1-51.8l-3.9-1.9
			c-8.3,16.8-12.5,34.9-12.5,53.8c0,31.4,11.9,61.2,33.6,83.7c21.3,22.2,49.8,35,80.3,36.2c9.5,16.1,24.6,22.6,39.1,22.6
			c5.3,0,10.5-0.9,15.3-2.5c18.6-6.2,32.3-30.7,27.8-49.3C774.4,289.3,789.3,256.3,789.3,221.5z"/>
		<g>
			<rect x="482.4" y="409.9" class="st4" width="9.5" height="8.2"/>
			<rect x="482.4" y="411.7" class="st1" width="9.5" height="6.4"/>
		</g>
		<g>
			<rect x="239.8" y="558.3" class="st4" width="5.3" height="7.9"/>
			<rect x="239.8" y="558.3" class="st1" width="4.1" height="7.9"/>
		</g>
		<g>
			<rect x="497.9" y="414.4" class="st4" width="15.9" height="6"/>
			<rect x="497.9" y="415.7" class="st1" width="15.9" height="4.7"/>
		</g>
		<g>
			<rect x="449.1" y="484.6" class="st4" width="10.3" height="11.6"/>
			<rect x="451.3" y="484.6" class="st1" width="8.1" height="11.6"/>
		</g>
		<g>
			<rect x="477.2" y="554.9" class="st4" width="27.6" height="8.9"/>
			<rect x="477.2" y="554.9" class="st1" width="27.6" height="6.9"/>
		</g>
		<g>
			<rect x="534" y="462" class="st4" width="17.7" height="6.6"/>
			<rect x="534" y="463.4" class="st1" width="17.7" height="5.2"/>
		</g>
		<g>
			<rect x="513.4" y="419.6" class="st4" width="9.5" height="55.7"/>
			<rect x="513.5" y="419.5" class="st1" width="7.4" height="55.7"/>
		</g>
		<g>
			<rect x="398.6" y="359.8" class="st4" width="10.8" height="18.7"/>
			<rect x="398.5" y="359.9" class="st1" width="8.4" height="18.7"/>
		</g>
		<path class="st3" d="M219.2,169.1v193.5l0,0c0,3.5,2.9,6.4,6.4,6.4l0,0h65.2v-16.4h80.8v-7.3H435V168.4L219.2,169.1z"/>
		<g>
			<polygon class="st5" points="406.6,169.1 378.9,169.1 369.1,169.1 235,169.1 235,305.4 378.9,305.4 378.9,298.6 406.6,298.6 			
				"/>
			<polygon class="st7" points="406.4,169.1 406.4,298.6 382.4,298.6 380,298.6 378.9,298.6 378.9,305.4 235,305.4 235,169.1 
				231.6,169.1 231.6,305.4 231.6,306.1 231.6,308.8 382.4,308.8 382.4,305.4 382.4,305.4 382.4,301.7 406.4,301.7 406.4,301.7 
				409.8,301.7 409.8,169.1 			"/>
			<rect x="219.4" y="171.5" class="st7" width="13.4" height="2.9"/>
			<rect x="219.4" y="184.2" class="st7" width="13.4" height="2.9"/>
			<rect x="219.4" y="196.9" class="st7" width="13.4" height="2.9"/>
			<rect x="219.4" y="209.7" class="st7" width="13.4" height="2.9"/>
			<rect x="219.4" y="222.4" class="st7" width="13.4" height="2.9"/>
			<rect x="219.4" y="235.2" class="st7" width="13.4" height="2.9"/>
			<rect x="219.4" y="247.9" class="st7" width="13.4" height="2.9"/>
			<rect x="219.4" y="260.6" class="st7" width="13.4" height="2.9"/>
			<rect x="219.4" y="273.4" class="st7" width="13.4" height="2.9"/>
			<rect x="219.4" y="286.1" class="st7" width="13.4" height="2.9"/>
			<rect x="219.4" y="298.8" class="st7" width="13.4" height="2.9"/>
			<rect x="240.7" y="308.1" class="st7" width="2.9" height="13.4"/>
			<rect x="253.3" y="308.1" class="st7" width="2.9" height="13.4"/>
			<rect x="265.8" y="308.1" class="st7" width="2.9" height="13.4"/>
			<rect x="278.4" y="308.1" class="st7" width="2.9" height="13.4"/>
			<rect x="291" y="308" class="st7" width="2.9" height="13.4"/>
			<rect x="303.6" y="308.1" class="st7" width="2.9" height="13.4"/>
			<rect x="316.2" y="308.1" class="st7" width="2.9" height="13.4"/>
			<rect x="328.7" y="308.1" class="st7" width="2.9" height="13.4"/>
			<rect x="341.3" y="308.1" class="st7" width="2.9" height="13.4"/>
			<rect x="366.5" y="308.1" class="st7" width="2.9" height="13.4"/>
			<rect x="353.9" y="308" class="st7" width="2.9" height="13.4"/>
			<rect x="379.1" y="308.1" class="st7" width="2.9" height="13.4"/>
			
				<rect x="220.8" y="310.4" transform="matrix(0.7071 -0.7071 0.7071 0.7071 -153.5557 253.0487)" class="st7" width="15.8" height="2.9"/>
			<rect x="407.9" y="171.5" class="st7" width="13.4" height="2.9"/>
			<rect x="407.9" y="184.2" class="st7" width="13.4" height="2.9"/>
			<rect x="407.9" y="196.9" class="st7" width="13.4" height="2.9"/>
			<rect x="407.9" y="209.7" class="st7" width="13.4" height="2.9"/>
			<rect x="407.9" y="222.4" class="st7" width="13.4" height="2.9"/>
			<rect x="407.9" y="235.2" class="st7" width="13.4" height="2.9"/>
			<rect x="407.9" y="247.9" class="st7" width="13.4" height="2.9"/>
			<rect x="407.9" y="260.6" class="st7" width="13.4" height="2.9"/>
			<rect x="407.9" y="273.4" class="st7" width="13.4" height="2.9"/>
			<rect x="407.9" y="286.1" class="st7" width="13.4" height="2.9"/>
			<rect x="407.9" y="298.8" class="st7" width="13.4" height="2.9"/>
		</g>
		<path class="st3" d="M551.4,460.3v-37.9l0.1,0.3c0.3-10.7,7.4-19.9,17.6-23l0.1-0.1h97.2l0.5,38.8l-115.3,114L551.4,460.3z"/>
		<polyline class="st8" points="573.7,488.5 575.6,487.2 575.6,479 573.7,477.6 573.7,466.2 534.1,466.6 534.1,500.9 551.4,500.9 
			551.4,524.1 574.2,523.7 574.2,522.8 575.6,521.4 575.6,513.2 574.2,512.3 574.2,511.4 575.6,510 575.6,502.2 573.7,500.9 
			573.7,499.9 575.6,498.6 575.6,490.8 573.7,489.5 573.7,488.5 		"/>
		<line class="st8" x1="682.8" y1="421.9" x2="666.8" y2="423.3"/>
		<polyline class="st8" points="666.8,438.3 659.5,445.6 461.5,641.4 472,651 		"/>
		<polyline class="st8" points="775.9,360.8 698.8,422.4 480.7,642.8 425.9,701.6 420.4,706.2 		"/>
		<polyline class="st8" points="642.2,465.3 640.8,466.2 642.2,467.6 643.1,466.6 642.2,465.3 		"/>
		<line class="st8" x1="477.9" y1="646" x2="477.5" y2="645"/>
		<line class="st8" x1="488.9" y1="634.6" x2="488.4" y2="633.6"/>
		<line class="st8" x1="500.3" y1="623.1" x2="499.8" y2="622.7"/>
		<line class="st8" x1="511.7" y1="611.7" x2="510.8" y2="611.3"/>
		<line class="st8" x1="522.6" y1="600.3" x2="522.2" y2="599.9"/>
		<line class="st8" x1="534.1" y1="588.9" x2="533.1" y2="588.5"/>
		<line class="st8" x1="545" y1="578" x2="544.5" y2="577.1"/>
		<line class="st8" x1="556.4" y1="566.6" x2="555.5" y2="566.1"/>
		<line class="st8" x1="567.4" y1="555.2" x2="566.9" y2="554.7"/>
		<line class="st8" x1="578.8" y1="543.8" x2="577.9" y2="543.3"/>
		<line class="st8" x1="589.7" y1="532.3" x2="589.3" y2="531.9"/>
		<line class="st8" x1="601.1" y1="520.9" x2="600.2" y2="520.5"/>
		<line class="st8" x1="612.1" y1="510" x2="611.6" y2="509.1"/>
		<line class="st8" x1="623.5" y1="498.6" x2="623" y2="498.1"/>
		<line class="st8" x1="634.4" y1="487.2" x2="634" y2="486.7"/>
		<line class="st8" x1="645.8" y1="475.8" x2="645.4" y2="475.3"/>
		<line class="st8" x1="656.8" y1="464.4" x2="656.3" y2="463.9"/>
		<polyline class="st8" points="587.9,518.7 586.5,519.6 587.4,520.9 588.8,520 587.9,518.7 		"/>
		<polyline class="st8" points="472.5,634.1 471.1,635 472,635.9 473.4,635 472.5,634.1 		"/>
		<polyline class="st8" points="480.7,625.4 479.8,626.3 480.7,627.7 481.6,626.8 480.7,625.4 		"/>
		<polyline class="st8" points="496.2,610.4 494.8,611.3 495.7,612.7 497.1,611.7 496.2,610.4 		"/>
		<polyline class="st8" points="502.6,603.5 501.7,604.9 502.6,605.8 503.5,604.9 502.6,603.5 		"/>
		<polyline class="st8" points="511.2,595.3 509.9,596.2 510.8,597.6 512.1,596.7 511.2,595.3 		"/>
		<polyline class="st8" points="519,587.6 517.6,588.5 518.5,589.8 519.9,588.9 519,587.6 		"/>
		<polyline class="st8" points="526.7,579.8 525.4,580.7 526.3,582.1 527.7,581.2 526.7,579.8 		"/>
		<polyline class="st8" points="534.1,572.5 533.1,573.4 534.1,574.8 535,573.4 534.1,572.5 		"/>
		<polyline class="st8" points="542.3,564.3 540.9,565.2 541.8,566.6 543.2,565.7 542.3,564.3 		"/>
		<polyline class="st8" points="549.6,557 548.2,557.9 549.1,559.3 550.5,558.4 549.6,557 		"/>
		<polyline class="st8" points="556.9,549.7 556,550.6 556.9,552 558.2,551.1 556.9,549.7 		"/>
		<polyline class="st8" points="564.6,541.9 563.3,542.8 564.2,544.2 565.5,543.3 564.6,541.9 		"/>
		<polyline class="st8" points="572.4,534.2 571,535.1 571.9,536.5 573.3,535.5 572.4,534.2 		"/>
		<polyline class="st8" points="580.1,526.4 578.8,527.3 580.1,528.7 581,527.8 580.1,526.4 		"/>
		<polyline class="st8" points="595.7,511.4 594.3,512.3 595.2,513.2 596.6,512.3 595.7,511.4 		"/>
		<polyline class="st8" points="603,503.6 601.6,504.5 602.5,505.9 603.9,505 603,503.6 		"/>
		<polyline class="st8" points="610.7,495.8 609.3,496.8 610.3,498.1 611.6,497.2 610.7,495.8 		"/>
		<polyline class="st8" points="618.5,488.1 617.1,489 618,490.4 619.4,489.5 618.5,488.1 		"/>
		<polyline class="st8" points="627.1,480.3 625.8,481.2 626.7,482.6 628,481.7 627.1,480.3 		"/>
		<polyline class="st8" points="634.4,473 633.5,473.9 634.4,475.3 635.8,474.4 634.4,473 		"/>
		<polyline class="st8" points="399.4,733.1 425,711.7 420.4,706.2 419.5,705.7 408.1,691.6 		"/>
		<line class="st8" x1="454.7" y1="651" x2="359.7" y2="733.1"/>
		<line class="st8" x1="447.4" y1="651" x2="352.4" y2="733.1"/>
		<polyline class="st8" points="293.1,733.1 226.1,644.1 242.9,630.9 319.6,733.1 		"/>
		<line class="st8" x1="263.9" y1="651" x2="325.5" y2="733.1"/>
		<line class="st8" x1="423.2" y1="703.9" x2="422.7" y2="703"/>
		<line class="st8" x1="434.6" y1="692.5" x2="434.1" y2="691.6"/>
		<line class="st8" x1="445.5" y1="680.6" x2="444.6" y2="680.2"/>
		<line class="st8" x1="456" y1="669.2" x2="455.6" y2="668.3"/>
		<line class="st8" x1="467" y1="657.4" x2="466.5" y2="656.9"/>
		<polyline class="st8" points="464.7,641.9 463.3,642.8 464.2,643.7 465.6,642.8 464.7,641.9 		"/>
		<polyline class="st8" points="930.6,286.4 932.4,285 915.5,259 913.7,260.4 930.6,286.4 		"/>
		<line class="st8" x1="837.9" y1="169.1" x2="837.9" y2="169.1"/>
		<line class="st8" x1="838.4" y1="170.5" x2="841.1" y2="169.6"/>
		<line class="st8" x1="838.9" y1="171.9" x2="841.6" y2="171"/>
		<line class="st8" x1="840.2" y1="175.1" x2="842.5" y2="173.7"/>
		<line class="st8" x1="840.7" y1="176.4" x2="843.4" y2="175.5"/>
		<line class="st8" x1="841.1" y1="177.8" x2="843.9" y2="176.9"/>
		<line class="st8" x1="841.6" y1="179.2" x2="844.3" y2="178.3"/>
		<line class="st8" x1="842" y1="181" x2="844.8" y2="179.6"/>
		<line class="st8" x1="843" y1="182.4" x2="845.7" y2="181.5"/>
		<line class="st8" x1="843.4" y1="183.7" x2="846.2" y2="182.8"/>
		<line class="st8" x1="843.9" y1="185.6" x2="846.6" y2="184.2"/>
		<line class="st8" x1="844.3" y1="186.9" x2="847.1" y2="185.6"/>
		<line class="st8" x1="831.1" y1="191.5" x2="832.5" y2="195.1"/>
		<line class="st8" x1="832.5" y1="191" x2="833.8" y2="194.7"/>
		<line class="st8" x1="833.8" y1="190.6" x2="835.2" y2="194.2"/>
		<line class="st8" x1="835.7" y1="190.1" x2="837" y2="193.8"/>
		<line class="st8" x1="837" y1="189.7" x2="838.4" y2="192.9"/>
		<line class="st8" x1="838.4" y1="189.2" x2="839.8" y2="192.4"/>
		<line class="st8" x1="840.2" y1="188.3" x2="841.1" y2="191.9"/>
		<line class="st8" x1="841.6" y1="187.8" x2="843" y2="191.5"/>
		<line class="st8" x1="843" y1="187.4" x2="844.3" y2="191"/>
		<line class="st8" x1="844.3" y1="186.9" x2="845.7" y2="190.1"/>
		<polyline class="st8" points="840.7,169.1 848.4,189.2 830.6,195.6 829.3,192.4 		"/>
		<polyline class="st9" points="837.5,169.1 844.3,186.9 809.7,199.3 798.2,169.1 		"/>
		<line class="st8" x1="668.2" y1="453.4" x2="667.7" y2="452.5"/>
		<polyline class="st8" points="649.9,458 648.6,458.9 649.5,460.3 650.9,458.9 649.9,458 		"/>
		<polyline class="st8" points="657.7,450.2 656.3,451.1 657.2,452.5 658.6,451.6 657.7,450.2 		"/>
		<polyline class="st8" points="665,442.9 663.6,443.8 664.6,445.2 665.9,444.3 665,442.9 		"/>
		<polyline class="st8" points="669.1,440.2 667.7,441.1 668.7,442.5 670,441.5 669.1,440.2 		"/>
		<polyline class="st8" points="681.4,432.9 679.6,432.9 679.6,434.7 681.4,434.2 681.4,432.9 		"/>
		<polyline class="st8" points="667.7,435.6 669.1,435.6 669.1,433.8 667.7,434.2 667.7,435.6 		"/>
		<polyline class="st8" points="667.3,425.6 669.1,425.6 669.1,423.7 667.3,423.7 667.3,425.6 		"/>
		<polyline class="st8" points="680.5,422.8 679.2,422.8 679.2,424.7 681,424.7 680.5,422.8 		"/>
		<polyline class="st8" points="488.4,618.1 487.1,619 488,620.4 489.3,619.5 488.4,618.1 		"/>
		<polyline class="st8" points="226.1,644.1 169.5,560.2 158.1,523.2 148.9,500.4 140.3,485.3 190.9,169.1 		"/>
		<line class="st8" x1="227" y1="643.7" x2="209.6" y2="618.1"/>
		<line class="st8" x1="217.4" y1="630.9" x2="217.8" y2="630.4"/>
		<line class="st8" x1="199.6" y1="604.4" x2="200" y2="604"/>
		<line class="st8" x1="166.3" y1="550.6" x2="167.2" y2="550.1"/>
		<line class="st8" x1="161.7" y1="535.1" x2="162.6" y2="535.1"/>
		<line class="st8" x1="157.2" y1="520" x2="157.6" y2="520"/>
		<line class="st8" x1="150.8" y1="505.4" x2="151.7" y2="505"/>
		<line class="st8" x1="143.5" y1="491.3" x2="144.4" y2="490.8"/>
		<line class="st8" x1="141.6" y1="476.2" x2="142.6" y2="476.2"/>
		<line class="st8" x1="143.9" y1="460.7" x2="144.8" y2="460.7"/>
		<line class="st8" x1="146.7" y1="444.7" x2="147.6" y2="444.7"/>
		<line class="st8" x1="148.9" y1="429.2" x2="149.9" y2="429.2"/>
		<line class="st8" x1="151.7" y1="413.3" x2="152.6" y2="413.3"/>
		<line class="st8" x1="154" y1="397.7" x2="154.9" y2="397.7"/>
		<line class="st8" x1="156.7" y1="381.8" x2="157.6" y2="382.2"/>
		<line class="st8" x1="159.4" y1="366.3" x2="159.9" y2="366.3"/>
		<line class="st8" x1="161.7" y1="350.3" x2="162.6" y2="350.7"/>
		<line class="st8" x1="164.5" y1="334.8" x2="164.9" y2="334.8"/>
		<line class="st8" x1="166.7" y1="318.8" x2="167.6" y2="319.3"/>
		<line class="st8" x1="169.5" y1="303.3" x2="169.9" y2="303.3"/>
		<line class="st8" x1="171.8" y1="287.8" x2="172.7" y2="287.8"/>
		<line class="st8" x1="174.5" y1="271.8" x2="174.9" y2="271.8"/>
		<line class="st8" x1="176.8" y1="256.3" x2="177.7" y2="256.3"/>
		<line class="st8" x1="179.5" y1="240.3" x2="180" y2="240.8"/>
		<line class="st8" x1="181.8" y1="224.8" x2="182.7" y2="224.8"/>
		<line class="st8" x1="184.5" y1="208.8" x2="185" y2="209.3"/>
		<line class="st8" x1="186.8" y1="193.3" x2="187.7" y2="193.3"/>
		<line class="st8" x1="189.5" y1="177.3" x2="190" y2="177.8"/>
		<polyline class="st8" points="551.4,524.1 551.4,535.5 534.5,535.5 534.1,500.9 		"/>
		<path class="st8" d="M176.3,541"/>
		<path class="st8" d="M175.9,538.7"/>
		<path class="st8" d="M176.3,537.8"/>
		<path class="st8" d="M176.3,538.7"/>
		<polyline class="st8" points="209.2,617.2 188.6,587.1 169.9,559.7 159,522.8 149.4,499.9 141.2,485.3 165.8,331.1 		"/>
		<polyline class="st8" points="443.7,681.6 425.5,700.7 419.5,705.7 		"/>
		<line class="st8" x1="190.9" y1="171.9" x2="191.4" y2="169.1"/>
		<line class="st8" x1="165.8" y1="331.1" x2="190.9" y2="172.8"/>
		<path class="st3" d="M437.3,496.3v-95.8v-0.2c0-8.4,6.8-15.3,15.3-15.3h-0.1h66.6h0.2c1.6,0,3,1.3,3,3l0.1,14.1c0,1.6-1.3,3-3,3
			H519h-72.8c-1.6,0-3,1.3-3,3v0.2v83v-0.2c0,1.6,1.3,3,3,3h-8.9L437.3,496.3h-15.5"/>
		<path class="st3" d="M513.5,472.1h8.2h0.2c2.1,0,3.9,1.7,3.9,3.9v77.1c0,1-0.4,2-1.2,2.8c-0.7,0.7-1.7,1.1-2.8,1.1h-3.1h-5.3
			L513.5,472.1L513.5,472.1z"/>
		<path class="st3" d="M485.2,410.5h-33l0,0c-2.1,0-3.9,1.7-3.9,3.9v0.2v70.7h7.8v-67.1c0,0,29.3,0.1,29.2,0v-7.7H485.2z"/>
		<path class="st3" d="M456,557L456,557v-62.5h-18.8v0.2v1.6h-15.5v-82.6v-0.9h-0.9h-0.5H420l-0.3,1v0.2v145.3v11v-0.2
			c1.4,16,11.5,29.9,26.3,36.1c14.8,6.2,31.8,3.6,44.2-6.6l-0.4,0.4l24.2-24.2l0.2-0.2c1.1-1.1,1.4-2.8,0.8-4.2
			c-0.6-1.4-2-2.4-3.6-2.4h-0.2H471v-12H456z"/>
		<line class="st10" x1="492.5" y1="418.3" x2="492.5" y2="418.3"/>
		<line class="st10" x1="456" y1="527.8" x2="456" y2="511.8"/>
		<line class="st11" x1="461.5" y1="641.4" x2="250.2" y2="640.9"/>
		<line class="st12" x1="472" y1="651" x2="364.8" y2="651"/>
		<line class="st12" x1="357.9" y1="651" x2="257.5" y2="651"/>
		<g>
			<path class="st3" d="M288.4,535.4h7.3v-6.8v-0.2c0-5.2,4.2-9.4,9.4-9.4h-0.2h0.2H319h0.2c4.4,0,8-3.6,8-8v-12.5v-0.2
				c0-4.4-3.6-8-8-8H319h-37.9h-0.2c-4.4,0-8,3.6-8,8v-0.2v143l58.4,0.1v-11.3h-42.9V535.4z"/>
		</g>
		<path class="st3" d="M240.2,611.3H258h0.2c1.6,0,2.9-1.3,3-2.9v0.2l0.5-17.8v-0.2c0-0.8-0.3-1.6-0.9-2.1c-0.6-0.6-1.3-0.9-2.1-0.9
			h-0.2h-18.3V611.3z"/>
		<line class="st12" x1="364.8" y1="651" x2="364.8" y2="671.1"/>
		<line class="st12" x1="357.9" y1="651" x2="357.9" y2="671.1"/>
		<polyline class="st12" points="412.7,687.9 428.2,674.7 435,682.9 419.5,696.2 412.7,687.9 		"/>
		<line class="st12" x1="420.4" y1="681.6" x2="427.3" y2="689.3"/>
		<path class="st3" d="M261.6,558.8h-21.4v-31.5h-20.5v-29.2v-0.2c0-4.4,3.6-8,8-8h26c2.1,0,4.2,0.8,5.7,2.3s2.3,3.5,2.3,5.7v0.2
			v60.7"/>
		<path class="st3" d="M219.7,578.4h38.8h0.2c1.6,0,3-1.3,3-3v0.2v-10h-42.1C219.6,565.7,219.6,578.3,219.7,578.4z"/>
		<line class="st12" x1="240.2" y1="558.8" x2="240.2" y2="565.7"/>
		<polyline class="st12" points="220.6,587.6 240.2,587.6 240.2,619 220.6,619 220.6,587.6 		"/>
		<polyline class="st12" points="322.3,352.6 290.8,352.6 290.8,377.2 322.3,377.2 322.3,352.6 		"/>
		<polyline class="st12" points="290.8,377.2 320,377.2 320,435.6 290.8,435.6 290.8,377.2 		"/>
		<polyline class="st13" points="219.2,171.4 200,171.4 200,287.8 219.2,287.8 219.2,171.4 		"/>
		<polyline class="st14" points="217.3,173.6 202,173.6 202,285.6 217.3,285.6 217.3,173.6 		"/>
		<polyline class="st12" points="377.5,360.8 377.5,353 399.9,353 399.9,440.2 376.6,440.2 376.6,432.4 351.5,432.4 351.5,361.2 
			377.5,360.8 		"/>
		<polyline class="st12" points="512.6,301.5 512.1,340.7 463.3,340.7 463.3,301.5 		"/>
		<line class="st12" x1="463.3" y1="338" x2="451" y2="338"/>
		<path class="st3" d="M450.9,337.9v16.4v-0.2c0,3.4-2.8,6.2-6.2,6.2h-0.1h-9.1h-0.1c-1.6,0-3,1.3-3,3v4.1c0,1.6,1.3,3,3,3h0.1h31.9
			h0.1c1.6,0,3-1.3,3-3v0.2v-26.9h-7.2v-2.8C463.3,337.8,450.9,337.8,450.9,337.9z"/>
		<polyline class="st12" points="499.8,345.3 512.1,345.3 512.1,370.4 499.8,370.4 499.8,345.3 		"/>
		<path class="st3" d="M527.2,169.1c0,0,17.8-0.1,17.8,0v4.1l-2.7,9.1l0.2-0.3c-5.2,16.6-7.3,33.9-6.3,51.3l0.1-0.1
			c1.6,18.9,7.2,37.3,16.5,53.9v0.1c6.4,12.7,15.2,24,25.8,33.5h-0.1c9,8.7,19.3,16,30.6,21.6l0.5,0.3c7.8,4.1,13.4,7.4,21.6,9.8
			c0.7,0.2,1.4,0.3,2.2,0.3h2.7c5.7,1.2,9.5,6.5,8.8,12.3s-5.7,10-11.5,9.8h-0.2h-99.5l0,0c-3.6,0-6.4-2.9-6.4-6.4l0,0v-67.1
			L527.2,169.1L527.2,169.1z"/>
		<polygon class="st12" points="446.9,301.5 446.9,169.1 527.2,169.1 527.1,301.2 		"/>
		<polyline class="st12" points="204.2,554.2 175.4,554.2 175.4,541 171.8,541 171.8,531.4 182.2,531.4 		"/>
		<polyline class="st12" points="183.2,554.2 183.2,550.1 193.2,550.1 193.2,540.1 189.1,540.1 189.1,527.3 182.2,527.3 
			182.2,531.4 		"/>
		<polyline class="st12" points="189.1,527.3 204.2,527.3 204.2,554.2 		"/>
		<polygon class="st3" points="159,522.8 203.7,522.8 203.7,439.3 148.4,439.3 141.3,485.4 149.7,499.9 		"/>
		<polyline class="st13" points="162.6,374.5 193.2,374.5 193.2,426.5 162.6,426.5 162.6,374.5 		"/>
		<polyline class="st14" points="164.3,376.3 191.6,376.3 191.6,424.6 164.3,424.6 164.3,376.3 		"/>
		<polyline class="st3" points="182.8,527.2 210.1,527.2 210.1,554.1 182.8,554.1 182.8,527.2 		"/>
		<polyline class="st13" points="167.2,333.4 201.9,333.4 201.9,371.3 167.2,371.3 167.2,333.4 		"/>
		<polyline class="st14" points="169.1,335.5 199.9,335.5 199.9,369.2 169.1,369.2 169.1,335.5 		"/>
		<polyline class="st13" points="446.7,168.5 528.3,168.5 528.3,301.9 446.7,301.9 446.7,168.5 		"/>
		<polyline class="st14" points="449.2,170.9 525.8,170.9 525.8,299.5 449.2,299.5 449.2,170.9 		"/>
		<polyline class="st13" points="224.1,350 248.8,350 248.8,365 224.1,365 224.1,350 		"/>
		<polyline class="st14" points="225.8,351.8 247.1,351.8 247.1,363.3 225.8,363.3 225.8,351.8 		"/>
		<polyline class="st13" points="171.8,304.7 201.9,304.7 201.9,331.1 171.8,331.1 171.8,304.7 		"/>
		<polyline class="st14" points="173.7,306.3 199.9,306.3 199.9,329.4 173.7,329.4 173.7,306.3 		"/>
		<polyline class="st13" points="290.1,352.1 323.6,352.1 323.6,378.6 290.1,378.6 290.1,352.1 		"/>
		<polyline class="st14" points="292,353.8 321.7,353.8 321.7,376.9 292,376.9 292,353.8 		"/>
		<polyline class="st13" points="460.9,299.7 514.1,299.7 514.1,341.7 460.9,341.7 460.9,299.7 		"/>
		<polyline class="st14" points="463.5,302.2 511.5,302.2 511.5,339.4 463.5,339.4 463.5,302.2 		"/>
		<polygon class="st15" points="525.8,170.9 449.2,170.9 449.2,299.5 463.5,299.5 463.5,339.4 511.5,339.4 511.5,299.5 525.8,299.5 
					"/>
		<polyline class="st13" points="290.1,377.1 320.5,377.1 320.5,435.9 290.1,435.9 290.1,377.1 		"/>
		<polyline class="st14" points="291.8,378.8 318.8,378.8 318.8,434.8 291.8,434.8 291.8,378.8 		"/>
		<polyline class="st13" points="499.4,344.8 512.4,344.8 512.4,370.7 499.4,370.7 499.4,344.8 		"/>
		<polyline class="st14" points="500.4,346 511.4,346 511.4,369.6 500.4,369.6 500.4,346 		"/>
		<polyline class="st13" points="533.9,466.5 573.8,466.5 573.8,477.5 575.6,478.8 575.6,487.7 573.8,488.8 573.8,490.1 
			575.6,491.3 575.6,498.4 573.8,499.8 573.8,501 575.6,502.7 575.6,509.4 573.8,511.1 573.8,512.3 575.5,513.2 575.5,522.4 
			573.8,523.1 573.8,524.6 533.9,524.6 533.9,466.5 		"/>
		<g>
			<rect x="392.3" y="439" class="st4" width="7.9" height="5.3"/>
			<rect x="392.3" y="439" class="st1" width="7.9" height="4.1"/>
		</g>
		<polyline class="st16" points="535.6,468.1 571.9,468.1 571.9,522.8 552.5,522.8 552.5,500.8 535.6,500.8 535.6,468.1 		"/>
		<polyline class="st13" points="351.2,360.5 377.3,360.5 377.3,352.7 400.2,352.9 400.2,440.2 376.7,440.2 376.7,433.2 
			351.2,433.2 351.2,360.5 		"/>
		<polygon class="st14" points="379.2,354.8 379.2,362.3 379.1,362.3 379.1,362.2 353.1,362.2 353.1,431.6 377.7,431.6 377.7,438.8 
			398.2,438.8 398.2,354.8 		"/>
		<polyline class="st1" points="612.1,431 621.7,399.6 627.1,399.6 618.9,425.1 621.2,425.6 623.5,426 625.3,426.9 627.1,427.9 
			629,429.2 630.8,431 632.2,432.9 633.5,434.7 634.4,437 635.3,439.3 636.3,441.5 636.7,443.8 636.7,446.1 637.2,447.9 
			636.7,450.2 636.7,452.5 635.8,454.8 635.3,457.1 634.4,458.9 633.1,461.2 631.7,463 629.9,464.4 628,465.7 626.2,467.1 
			624.4,468 622.1,468.5 619.8,469.4 617.6,469.4 615.3,469.8 613,469.8 610.7,469.4 608.4,469.4 606.1,468.5 604.3,468 602,467.1 
			599.8,466.2 597.9,465.3 595.7,464.4 593.8,463 592,461.6 590.6,459.8 588.8,458.4 587.9,456.6 587,454.3 585.2,450.2 
			584.2,448.4 583.3,446.1 582.4,444.3 581,442.5 579.2,440.6 577.9,439.3 575.6,437.9 573.7,436.5 571.9,435.6 569.6,435.2 
			567.4,434.7 565.1,434.2 563.3,434.2 561,434.2 556.4,434.7 551.4,435.2 551.4,431.5 556.9,431 562.3,431 565.1,431 567.8,431 
			570.1,431.5 572.8,432 575.1,432.9 577.4,433.8 579.7,435.2 582,437 583.8,438.8 585.2,441.1 586.5,443.4 587.4,445.6 
			589.3,451.1 590.2,453.4 591.1,455.7 592.5,458 594.3,459.8 596.6,461.2 598.8,463 601.1,463.9 603.9,465.3 606.6,465.7 
			609.3,466.2 612.5,466.6 615.3,466.6 618,466.6 620.7,465.7 623.5,465.3 625.8,463.9 628,462.5 629,461.6 629.9,460.7 
			630.8,459.8 631.2,458.4 632.2,457.5 632.6,456.1 633.5,453.9 634,451.1 634,447.9 633.5,445.2 633.1,443.8 632.6,442.5 
			632.2,441.5 631.7,440.2 630.8,438.8 629.9,437.9 629,437 628,436.1 627.1,435.2 625.8,434.2 624.9,433.8 623.5,433.3 
			622.1,432.9 620.7,432.4 618,432.4 615.7,432 614.4,431.5 613,431.5 612.1,431 610.7,430.1 609.8,429.2 608.9,428.3 608,427.4 
			607.5,426 606.6,424.7 606.6,423.3 606.1,422.4 606.1,421 606.1,419.6 606.1,418.3 606.6,416.9 607.5,415.5 608,414.6 
			608.9,413.7 609.8,412.8 611.2,411.9 612.1,411 613.4,410.5 614.8,410.5 616.2,410.1 618.5,410.1 		"/>
		<polygon class="st1" points="653.1,399.6 651.8,400.9 649.9,401.8 649,402.3 648.1,402.8 645.8,403.2 644,403.2 643.1,403.7 
			642.2,404.1 640.4,405 638.5,406.4 637.2,407.3 635.3,408.7 633.5,409.6 631.7,410.5 629.4,411 627.6,411.4 625.3,411.4 
			623.5,411.4 623.5,410.5 625.3,410.5 627.1,410.5 628.5,410.1 629.9,409.6 631.2,408.7 632.2,407.8 634,405 635.3,404.1 
			636.3,403.2 637.6,402.3 638.5,401.4 641.3,400.5 642.2,400 643.1,399.6 		"/>
		<path class="st1" d="M588,456.5c-5,4.3-6.6,11.5-3.8,17.5s9.2,9.4,15.8,8.4c6.5-1,11.6-6.3,12.4-12.9l-13.1-4.4L588,456.5z"/>
		<path class="st3" d="M338.3,609.6l85.2,0.3l-0.1-0.2c-0.9-0.7-1.8-1.4-2.7-2.1c-16.6-13.6-26.4-33.8-26.7-55.3v0.1v-54.3v-0.2
			c0-4.4-3.6-8-8-8h-39.3c-4.4,0-8,3.6-8,8v0.2L338.3,609.6L338.3,609.6z"/>
		<path class="st3" d="M480.2,622.8c-17.5,3.3-35.4,0-50.5-8.9v0.1l-91.4-0.3v27.2h123.3L480.2,622.8z"/>
		<line class="st17" x1="236.1" y1="472.1" x2="236.1" y2="472.1"/>
		<path class="st3" d="M674.5,337c23.4-1,45.9-9.1,64.5-23.4l0.3,0.2c3,16.7-6.5,33.2-22.5,39s-33.8-0.8-42.2-15.5L674.5,337z"/>
		<path class="st3" d="M682.8,438.3l-0.5-38.8l0.4-0.1c30.8-5.8,81.7-41.9,81.7-41.9l62.1-4.6v4.1l-50.6,3.7l-77.1,61.6L682.8,438.3
			"/>
		<polyline class="st18" points="488.9,634.6 481.6,626.8 465.6,642.8 473.8,650.5 		"/>
		<path class="st3" d="M298.1,435.6v23.7v-0.2c0,8.7-7,15.7-15.7,15.7h-0.2h-37.9h0.2c-14,0-25.3-11.3-25.3-25.3l-0.5,0.2v-67.5
			l0.5-0.2c0-3.4,2.7-6.2,6.1-6.2h-0.2H284v9.6h6.9v50.2L298.1,435.6L298.1,435.6z"/>
		<path class="st3" d="M351.5,432.4h25.1v7.8h17.8v17.7v8c0,4.4-3.6,8-8,8l-34.2-0.4c-4.4,0-8-3.6-8-8v0.2v-33.3L351.5,432.4"/>
		<rect x="288.6" y="535.3" class="st19" width="42.6" height="94.6"/>
		<line class="st19" x1="219.6" y1="527.1" x2="219.6" y2="565.8"/>
		<rect x="456" y="418.2" class="st10" width="57.6" height="138.7"/>
		<polygon class="st13" points="194.7,539 190.6,539 190.6,526.5 181.1,526.5 181.1,530 170.5,530 170.5,542.2 174.3,542.2 
			174.3,554.9 184.3,554.9 184.3,551.5 194.7,551.5 		"/>
		<polygon class="st8" points="926.5,337.1 955.2,314.2 967.5,332.5 942.1,355.7 		"/>
		<polygon class="st14" points="193.2,540.2 189.2,540.2 189.2,527.8 182.4,527.8 182.4,531.2 171.9,531.2 171.9,540.9 175.5,540.9 
			175.5,553.5 183.1,553.5 183.1,550.2 193.2,550.2 		"/>
		<polyline class="st13" points="219,526.8 240.8,526.8 240.8,566.8 219,566.8 219,526.8 		"/>
		<polyline class="st14" points="220.5,528.2 239.3,528.2 239.3,565.4 220.5,565.4 220.5,528.2 		"/>
		<polyline class="st13" points="219.9,586.7 241.8,586.7 241.8,619.3 219.9,619.3 219.9,586.7 		"/>
		<polyline class="st14" points="221.5,588.1 240.3,588.1 240.3,617.9 221.5,617.9 221.5,588.1 		"/>
		<polyline class="st13" points="287.8,534.4 331.4,534.4 331.4,630.9 287.8,630.9 287.8,534.4 		"/>
		<polyline class="st14" points="289.9,537.2 329.3,537.2 329.3,628.1 289.9,628.1 289.9,537.2 		"/>
		<polyline class="st13" points="455.3,417.6 514.3,417.6 514.3,557.5 455.3,557.5 455.3,417.6 		"/>
		<polyline class="st14" points="457.3,419.7 512.4,419.7 512.4,555.9 457.3,555.9 457.3,419.7 		"/>
		<polyline class="st13" points="533.9,500.9 551.9,500.9 551.9,536.8 533.9,536.8 533.9,500.9 		"/>
		<g>
			
				<rect x="355.7" y="665.2" transform="matrix(0.9987 -5.066592e-02 5.066592e-02 0.9987 -33.3891 19.1713)" class="st4" width="11.5" height="5.9"/>
			
				<rect x="355.8" y="666.5" transform="matrix(0.9987 -5.066592e-02 5.066592e-02 0.9987 -33.4209 19.1754)" class="st1" width="11.5" height="4.6"/>
		</g>
		<polyline class="st14" points="535.4,502.5 550.5,502.5 550.5,535.2 535.4,535.2 535.4,502.5 		"/>
		<polygon class="st13" points="955.2,313.7 968,332.5 942,356.2 925.6,336.7 		"/>
		<polygon class="st16" points="954.9,315.8 965.8,332.4 942.2,354 927.8,336.8 		"/>
		
			<rect x="921" y="256.1" transform="matrix(0.8438 -0.5366 0.5366 0.8438 -1.9779 538.1017)" class="st13" width="4.9" height="32.7"/>
		<g>
			<polygon class="st13" points="835.8,169.3 841.9,185.5 810.2,197.5 799.6,169.3 797.4,169.3 809.2,200.4 844.9,186.9 
				838.2,169.3 			"/>
			<polygon class="st14" points="810.2,197.5 841.9,185.5 835.8,169.3 799.6,169.3 			"/>
		</g>
		<polyline class="st8" points="346.5,696.6 380.7,694.8 378.9,670.1 344.7,672 346.5,696.6 		"/>
		<polyline class="st13" points="379.8,669.2 381.1,695.4 345.2,697.3 343.9,671.2 379.8,669.2 		"/>
		<polyline class="st14" points="378.3,671 379.4,693.8 346.7,695.5 345.6,672.8 378.3,671 		"/>
		<g>
			<rect x="420.7" y="412.4" class="st20" width="8.4" height="2.5"/>
			<rect x="429.1" y="412.4" class="st20" width="8.4" height="2.5"/>
			<rect x="420.7" y="414.9" class="st20" width="8.4" height="2.5"/>
			<rect x="429.1" y="414.9" class="st20" width="8.4" height="2.5"/>
			<rect x="420.7" y="417.4" class="st20" width="8.4" height="2.5"/>
			<rect x="429.1" y="417.4" class="st20" width="8.4" height="2.5"/>
			<rect x="420.7" y="419.8" class="st20" width="8.4" height="2.5"/>
			<rect x="429.1" y="419.8" class="st20" width="8.4" height="2.5"/>
			<rect x="420.7" y="422.3" class="st20" width="8.4" height="2.5"/>
			<rect x="429.1" y="422.3" class="st20" width="8.4" height="2.5"/>
			<rect x="420.7" y="424.7" class="st20" width="8.4" height="2.5"/>
			<rect x="429.1" y="424.7" class="st20" width="8.4" height="2.5"/>
			<rect x="420.7" y="427.2" class="st20" width="8.4" height="2.5"/>
			<rect x="429.1" y="427.2" class="st20" width="8.4" height="2.5"/>
			<rect x="420.7" y="429.7" class="st20" width="8.4" height="2.5"/>
			<rect x="429.1" y="429.7" class="st20" width="8.4" height="2.5"/>
			<rect x="420.7" y="432.1" class="st20" width="8.4" height="2.5"/>
			<rect x="429.1" y="432.1" class="st20" width="8.4" height="2.5"/>
			<rect x="420.7" y="434.6" class="st20" width="8.4" height="2.5"/>
			<rect x="429.1" y="434.6" class="st20" width="8.4" height="2.5"/>
			<rect x="420.7" y="437" class="st20" width="8.4" height="2.5"/>
			<rect x="429.1" y="437" class="st20" width="8.4" height="2.5"/>
			<rect x="420.7" y="439.5" class="st20" width="8.4" height="2.5"/>
			<rect x="429.1" y="439.5" class="st20" width="8.4" height="2.5"/>
			<rect x="420.7" y="442" class="st20" width="8.4" height="2.5"/>
			<rect x="429.1" y="442" class="st20" width="8.4" height="2.5"/>
			<rect x="420.7" y="444.4" class="st20" width="8.4" height="2.5"/>
			<rect x="429.1" y="444.4" class="st20" width="8.4" height="2.5"/>
			<rect x="420.7" y="446.9" class="st20" width="8.4" height="2.5"/>
			<rect x="429.1" y="446.9" class="st20" width="8.4" height="2.5"/>
			<rect x="420.7" y="449.3" class="st20" width="8.4" height="2.5"/>
			<rect x="429.1" y="449.3" class="st20" width="8.4" height="2.5"/>
			<rect x="420.7" y="451.8" class="st20" width="8.4" height="2.5"/>
			<rect x="429.1" y="451.8" class="st20" width="8.4" height="2.5"/>
			<rect x="420.7" y="454.3" class="st20" width="8.4" height="2.5"/>
			<rect x="429.1" y="454.3" class="st20" width="8.4" height="2.5"/>
			<rect x="420.7" y="456.7" class="st20" width="8.4" height="2.5"/>
			<rect x="429.1" y="456.7" class="st20" width="8.4" height="2.5"/>
			<rect x="420.7" y="459.2" class="st20" width="8.4" height="2.5"/>
			<rect x="429.1" y="459.2" class="st20" width="8.4" height="2.5"/>
			<rect x="420.7" y="461.6" class="st20" width="8.4" height="2.5"/>
			<rect x="429.1" y="461.6" class="st20" width="8.4" height="2.5"/>
			<rect x="420.7" y="464.1" class="st20" width="8.4" height="2.5"/>
			<rect x="429.1" y="464.1" class="st20" width="8.4" height="2.5"/>
			<rect x="420.7" y="466.6" class="st20" width="8.4" height="2.5"/>
			<rect x="429.1" y="466.6" class="st20" width="8.4" height="2.5"/>
			<rect x="420.7" y="469" class="st20" width="8.4" height="2.5"/>
			<rect x="429.1" y="469" class="st20" width="8.4" height="2.5"/>
			<rect x="420.7" y="471.5" class="st20" width="8.4" height="2.5"/>
			<rect x="429.1" y="471.5" class="st20" width="8.4" height="2.5"/>
			<rect x="420.7" y="473.9" class="st20" width="8.4" height="2.5"/>
			<rect x="429.1" y="473.9" class="st20" width="8.4" height="2.5"/>
			<rect x="420.7" y="476.4" class="st20" width="8.4" height="2.5"/>
			<rect x="429.1" y="476.4" class="st20" width="8.4" height="2.5"/>
			<rect x="420.7" y="478.9" class="st20" width="8.4" height="2.5"/>
			<rect x="429.1" y="478.9" class="st20" width="8.4" height="2.5"/>
			<rect x="420.7" y="481.3" class="st20" width="8.4" height="2.5"/>
			<rect x="429.1" y="481.3" class="st20" width="8.4" height="2.5"/>
			<rect x="420.7" y="483.8" class="st20" width="8.4" height="2.5"/>
			<rect x="429.1" y="483.8" class="st20" width="8.4" height="2.5"/>
			<rect x="420.7" y="486.2" class="st20" width="8.4" height="2.5"/>
			<rect x="429.1" y="486.2" class="st20" width="8.4" height="2.5"/>
			<rect x="420.7" y="488.7" class="st20" width="8.4" height="2.5"/>
			<rect x="429.1" y="488.7" class="st20" width="8.4" height="2.5"/>
			<rect x="420.7" y="491.2" class="st20" width="8.4" height="2.5"/>
			<rect x="429.1" y="491.2" class="st20" width="8.4" height="2.5"/>
			<rect x="420.7" y="493.6" class="st20" width="8.4" height="2.5"/>
			<rect x="429.1" y="493.6" class="st20" width="8.4" height="2.5"/>
		</g>
		
			<rect x="971.4" y="157.7" transform="matrix(0.8211 -0.5708 0.5708 0.8211 47.1145 594.7292)" class="st21" width="1.8" height="129"/>
		<polygon class="st21" points="135.9,477.5 184.9,166.9 181.9,166.4 133.3,472.9 		"/>
		<g>
			<g>
				<path class="st22" d="M604,306.4l6.8-12.5c-0.6-0.5-1.1-1-1.6-1.5l-8.9,11.3C601.5,304.8,602.8,305.4,604,306.4z"/>
				<path class="st6" d="M578,223c0-20.3,6.5-39.1,17.6-54.4h-17.2c-9.4,16-14.8,34.6-14.8,54.4c0,32.2,14.2,61.1,36.6,80.8
					l8.9-11.3C590.1,275.4,578,250.6,578,223z"/>
			</g>
			
				<rect x="603" y="301.1" transform="matrix(0.6121 -0.7908 0.7908 0.6121 -6.5693 596.5694)" class="st23" width="3.7" height="7.8"/>
		</g>
		<polygon class="st24" points="379.2,354.8 379.2,362.3 379.1,362.3 379.1,362.2 353.1,362.2 353.1,431.6 377.7,431.6 377.7,438.8 
			398.2,438.8 398.2,354.8 		"/>
	</g>
</g>
</svg>
