<?xml version="1.0" encoding="utf-8"?>
<!-- Generator: Adobe Illustrator 19.2.1, SVG Export Plug-In . SVG Version: 6.00 Build 0)  -->
<svg version="1.1" id="图层_1" xmlns="http://www.w3.org/2000/svg" xmlns:xlink="http://www.w3.org/1999/xlink" x="0px" y="0px"
	 viewBox="0 0 1600 920" style="enable-background:new 0 0 1600 920;" xml:space="preserve">
<style type="text/css">
	.st0{fill:#DDDDDD;}
	.st1{fill:#FFFFFF;}
	.st2{enable-background:new    ;}
	.st3{fill:#EAEAEA;stroke:#7D7D7D;stroke-width:0.25;stroke-miterlimit:10;}
	.st4{fill:#E5E5E5;stroke:#B7B3AB;stroke-linejoin:round;stroke-miterlimit:10;}
	.st5{fill:#D8D8D8;stroke:#7D7D7D;stroke-miterlimit:10;}
	.st6{opacity:0.7;}
	.st7{fill:#C5C4C0;}
	.st8{fill:#2D2D2D;}
	.st9{fill:#13310A;}
	.st10{fill:#66000C;}
	.st11{fill:#565656;}
</style>
<g id="图层_3">
	<g>
		<rect x="60.6" y="82.5" class="st0" width="1478.9" height="793"/>
		<path class="st1" d="M1537.9,84v790H62.1V84H1537.9 M1540.9,81H59.1v796H1541L1540.9,81L1540.9,81z"/>
	</g>
	<g class="st2">
		<path d="M83.2,110.6c1-1.6,1.7-3.2,2.2-4.8h-1.9v-2.2h2.2v-3.1H88v3.1h1.7v2.2H88v1.4c0.8,0.4,1.5,0.8,2.2,1.2v-6.9h10.1v2.2h-7.7
			v2h7.1v7.1h-7.1v2h8v2.2H90.2v-8.3l-0.9,2c-0.4-0.4-0.8-0.7-1.2-1.1v8.1h-2.4v-7.6c-0.5,1.2-1.1,2.4-1.9,3.6
			C83.7,113,83.5,111.9,83.2,110.6z M97.3,110.6v-2.8h-4.7v2.8H97.3z"/>
		<path d="M102.4,103.1h6.5c0-1,0-1.9,0.1-2.8h2.3c0,1,0,2,0,2.8h6.4v11.5c0,0.9-0.2,1.6-0.6,2c-0.4,0.5-1,0.7-1.8,0.8
			s-1.8,0.1-3.2,0.1c-0.1-0.7-0.3-1.4-0.5-2.3c0.8,0.1,1.5,0.1,2.3,0.1c0.4,0,0.7,0,0.9-0.1s0.3-0.2,0.4-0.3
			c0.1-0.2,0.2-0.4,0.2-0.7v-8.7h-4.1c-0.1,0.9-0.2,1.7-0.3,2.4c1.2,0.9,2.6,2,4.3,3.3l-1.8,1.8c-0.8-0.8-1.9-1.8-3.4-3.1
			c-0.8,1.3-1.9,2.4-3.4,3.4c-0.6-0.7-1.2-1.3-1.8-1.8c2.5-1.5,3.8-3.5,4-5.9h-4.1v12.2h-2.4V103.1z"/>
		<path d="M120.7,105.1c1.1,0.8,2,1.6,2.8,2.2l-1.6,1.9c-0.9-0.9-1.8-1.7-2.6-2.4L120.7,105.1z M121,110.1c0.8,0.3,1.5,0.6,2.2,0.8
			l-1.4,6.9c-0.8-0.3-1.6-0.5-2.4-0.7C120,114.8,120.5,112.5,121,110.1z M121.2,100.5c0.9,0.7,1.9,1.4,2.9,2.2l-1.6,1.8
			c-0.8-0.8-1.7-1.6-2.7-2.4L121.2,100.5z M122.7,115.1h1.3v-5.4h11.7v5.4h1v1.9h-14V115.1z M124.8,101.1H135v7.6h-10.2V101.1z
			 M126.3,115.1h1.3v-3.6h-1.3V115.1z M132.9,102.9H127v1.2h5.9V102.9z M132.9,106.9v-1.2H127v1.2H132.9z M129.3,115.1h1.3v-3.6
			h-1.3V115.1z M133.6,111.5h-1.3v3.6h1.3V111.5z"/>
		<path d="M138.8,105.2c1.1,0.8,2,1.5,2.9,2.3l-1.7,1.8c-0.7-0.7-1.6-1.5-2.8-2.4L138.8,105.2z M139,109.9c0.9,0.4,1.7,0.6,2.4,0.8
			l-1.5,6.8c-0.9-0.3-1.7-0.5-2.4-0.7C138,114.9,138.5,112.6,139,109.9z M139,100.5c0.9,0.6,1.9,1.4,2.9,2.3l-1.6,1.8
			c-1-1-1.9-1.8-2.8-2.5L139,100.5z M141.4,115h3.6v-1.5l-1.4,0.8l-2.1-3.9l1.7-0.9l1.8,3.1V109h2.2v6h1.4v-6h2.2v3.8
			c0.5-0.8,1.1-1.9,1.8-3.2l1.7,0.9c-0.8,1.4-1.5,2.7-2.3,4l-1.3-0.7v1.3h3.8v2h-13.2V115H141.4z M142.3,101.1h11.2v7.6h-11.2V101.1
			z M151.3,103h-6.7v1.1h6.7V103z M151.3,106.8v-1.1h-6.7v1.1H151.3z"/>
		<path d="M158.7,108.3c0,4.4-0.6,7.5-1.8,9.5c-0.6-0.6-1.3-1.2-1.9-1.7c1-1.9,1.5-4.6,1.4-8.1v-6.1h7c-0.1-0.3-0.3-0.8-0.5-1.2
			l2.9-0.4c0.2,0.5,0.4,1.1,0.6,1.7h6.1v2h-13.9L158.7,108.3L158.7,108.3z M170.9,110.5v1.9c-0.9,1.1-1.9,1.9-2.8,2.6
			c1.3,0.2,2.8,0.4,4.6,0.5c-0.4,0.7-0.7,1.4-1,2.1c-2.6-0.3-4.7-0.8-6.2-1.3c-1.7,0.6-3.8,1-6.3,1.5c-0.3-0.7-0.7-1.3-1.1-2
			c1.9-0.1,3.6-0.3,5.1-0.7c-1-0.7-1.9-1.6-2.7-2.7h-1.1v-1.9H170.9z M159.1,104.9h1.9v-0.7h2.2v0.7h4.4v-0.7h2.2v0.7h2.4v1.9h-2.4
			v2.9H161v-2.9h-1.9V104.9z M165.6,114.2c1.1-0.5,2-1.1,2.7-1.8H163C163.7,113.2,164.6,113.8,165.6,114.2z M167.6,107.9v-1.1h-4.4
			v1.1H167.6z"/>
	</g>
	<g class="st2">
		<path d="M89,849.7c0.1,0.9,0.3,1.8,0.5,2.7c-1.6,1.5-2.8,2.6-3.6,3.5l-1.3-1.9c0.2-0.3,0.4-0.8,0.4-1.4v-5.3h-1.7V845h4.1v6.4
			C87.7,851,88.2,850.5,89,849.7z M86.1,839.1c1,1.1,1.8,2.2,2.5,3.1l-2.2,1.5c-0.8-1.4-1.6-2.5-2.3-3.3L86.1,839.1z M100.7,843.3
			c-0.2,0.9-0.4,1.7-0.4,2.2c-1.1,0-1.9,0-2.4,0c-1.3,0-2-0.6-2-1.9v-1.8h-3c0,1.7-0.8,3.2-2.4,4.5h8.9v2.1c-0.8,1.6-1.8,3-3,4.2
			c1.3,0.6,2.8,1.1,4.4,1.3c-0.5,0.7-0.9,1.5-1.4,2.5c-1.9-0.5-3.6-1.1-5.1-2.1c-1.5,1-3.3,1.7-5.2,2.2c-0.3-0.7-0.8-1.5-1.4-2.3
			c1.7-0.4,3.2-0.9,4.5-1.5c-1-0.9-1.9-2-2.6-3.2l1.5-1h-1.9v-2.2h1.2c-0.5-0.5-1.1-1.2-1.8-1.9c1.3-0.9,1.9-2.1,1.9-3.6v-1.1h7.8
			v2.8c0,0.5,0.1,0.7,0.4,0.8C98.9,843.3,99.6,843.4,100.7,843.3z M94.2,851.4c1-0.8,1.8-1.7,2.4-2.8h-5.1
			C92.3,849.6,93.2,850.6,94.2,851.4z"/>
		<path d="M116.9,840.5v1.8c-1,1-2.3,2-3.9,2.8c1.7,0.4,3.6,0.6,5.7,0.7c-0.4,0.8-0.8,1.6-1,2.2c-3-0.3-5.6-0.8-7.7-1.6
			c-1.9,0.7-4.1,1.2-6.5,1.7h13.3v8.4h-2.4v-0.7h-8.6v0.7h-2.4v-8.3c-0.4,0.1-0.7,0.1-1.1,0.2c-0.3-0.6-0.6-1.3-0.9-2.1
			c2.3-0.3,4.3-0.7,6-1.1c-0.8-0.5-1.5-1-2.1-1.6c-0.7,0.6-1.5,1.2-2.3,1.7c-0.3-0.4-0.8-0.9-1.5-1.5c1.9-1.2,3.6-2.7,5-4.5l2.5,0.3
			c-0.3,0.4-0.6,0.8-0.8,1.1h8.7C116.9,840.7,116.9,840.5,116.9,840.5z M105.7,851.1h3.2v-1.3h-3.2V851.1z M105.7,854h3.2v-1.3h-3.2
			V854z M110,844.2c1.4-0.5,2.6-1.2,3.4-1.9H107C107.8,843,108.8,843.6,110,844.2z M114.3,849.8h-3.2v1.3h3.2V849.8z M111.1,854h3.2
			v-1.3h-3.2V854z"/>
		<path d="M120.7,843.9c1.1,0.8,2,1.6,2.8,2.2l-1.6,1.9c-0.9-0.9-1.8-1.7-2.6-2.4L120.7,843.9z M121,848.9c0.8,0.3,1.5,0.6,2.2,0.8
			l-1.4,6.9c-0.8-0.3-1.6-0.5-2.4-0.7C120,853.6,120.5,851.3,121,848.9z M121.2,839.3c0.9,0.7,1.9,1.4,2.9,2.2l-1.6,1.8
			c-0.8-0.8-1.7-1.6-2.7-2.4L121.2,839.3z M122.7,853.9h1.3v-5.4h11.7v5.4h1v1.9h-14V853.9z M124.8,839.8H135v7.6h-10.2V839.8z
			 M126.3,853.9h1.3v-3.6h-1.3V853.9z M132.9,841.7H127v1.2h5.9V841.7z M132.9,845.7v-1.2H127v1.2H132.9z M129.3,853.9h1.3v-3.6
			h-1.3V853.9z M133.6,850.3h-1.3v3.6h1.3V850.3z"/>
		<path d="M140.7,847.1c0,4.4-0.6,7.5-1.8,9.5c-0.6-0.6-1.3-1.2-1.9-1.7c1-1.9,1.5-4.6,1.4-8.1v-6.1h7c-0.1-0.3-0.3-0.8-0.5-1.2
			l2.9-0.4c0.2,0.5,0.4,1.1,0.6,1.7h6.1v2h-13.9L140.7,847.1L140.7,847.1z M152.9,849.3v1.9c-0.9,1.1-1.9,1.9-2.8,2.6
			c1.3,0.2,2.8,0.4,4.6,0.5c-0.4,0.7-0.7,1.4-1,2.1c-2.6-0.3-4.7-0.8-6.2-1.3c-1.7,0.6-3.8,1-6.3,1.5c-0.3-0.7-0.7-1.3-1.1-2
			c1.9-0.1,3.6-0.3,5.1-0.7c-1-0.7-1.9-1.6-2.7-2.7h-1.1v-1.9L152.9,849.3L152.9,849.3z M141.1,843.7h1.9V843h2.2v0.7h4.4V843h2.2
			v0.7h2.4v1.9h-2.4v2.9H143v-2.9h-1.9V843.7z M147.6,853c1.1-0.5,2-1.1,2.7-1.8H145C145.7,852,146.6,852.6,147.6,853z M149.6,846.7
			v-1.1h-4.4v1.1H149.6z"/>
	</g>
	<g class="st2">
		<path d="M183.9,857.2c-2.1-2.4-3.2-5.2-3.2-8.3c0-3.3,1.1-6,3.2-8.3h2.3c-2.1,2.5-3.1,5.3-3.1,8.3s1,5.8,3.1,8.4h-2.3V857.2z"/>
		<path d="M193.5,841.7h3.2c-0.4-0.6-0.8-1.1-1.2-1.7l2.1-0.9l1.8,2.1l-1.1,0.5h3.5c0.7-0.9,1.3-1.8,1.9-2.7l2.7,0.9
			c-0.4,0.4-0.9,1-1.6,1.7h3.3v8.7H202v1.2h7.4v2.2H202v2.6h-2.5v-2.6H192v-2.2h7.5v-1.2h-6.1v-8.6H193.5z M195.8,845.2h3.8v-1.4
			h-3.8V845.2z M195.8,848.4h3.8V847h-3.8V848.4z M205.8,843.7H202v1.4h3.8V843.7z M205.8,848.4V847H202v1.4H205.8z"/>
		<path d="M213.6,839.2l2.2,0.7c-0.5,1.2-0.9,2.4-1.4,3.6v13.1H212v-8.2c-0.4,0.8-0.9,1.5-1.3,2.2c-0.2-0.8-0.4-1.8-0.8-3
			C211.2,845.6,212.4,842.8,213.6,839.2z M215.3,853.4h5.9c1-2.7,1.8-5.5,2.5-8.5l2.8,0.8c-0.3,0.8-1.2,3.3-2.7,7.8h3.9v2.3h-12.3
			L215.3,853.4L215.3,853.4z M215.6,842h4.6c-0.3-0.7-0.6-1.4-1-2.3l2.5-0.7c0.4,0.9,0.8,1.7,1.2,2.6l-1.4,0.4h5.3v2.3h-11.3
			L215.6,842L215.6,842z M218.5,845c0.4,1.2,1.2,3.4,2.4,6.7l-2.4,0.8c-0.8-2.8-1.5-5.1-2.2-6.8L218.5,845z"/>
		<path d="M236.8,844.2c0.4,0,0.8,0.1,1.1,0.4c0.3,0.3,0.5,0.6,0.5,1.1c0,0.4-0.2,0.7-0.5,1s-0.7,0.4-1.2,0.4s-0.8-0.1-1.1-0.4
			c-0.3-0.3-0.5-0.6-0.5-1s0.2-0.8,0.5-1C236,844.4,236.3,844.2,236.8,844.2z M236.8,851.4c0.4,0,0.8,0.1,1.1,0.4s0.5,0.6,0.5,1
			s-0.2,0.7-0.5,1s-0.7,0.4-1.1,0.4s-0.8-0.1-1.1-0.4s-0.5-0.6-0.5-1s0.2-0.8,0.5-1S236.3,851.4,236.8,851.4z"/>
		<path d="M249,845.7c-0.7,0-1.4-0.3-1.9-0.8s-0.8-1.2-0.8-1.9c0-0.8,0.3-1.4,0.8-1.9s1.2-0.8,1.9-0.8c0.8,0,1.4,0.3,1.9,0.8
			s0.8,1.2,0.8,1.9s-0.3,1.4-0.8,1.9S249.8,845.7,249,845.7z M249,841.7c-0.4,0-0.7,0.1-0.9,0.4c-0.2,0.3-0.4,0.6-0.4,0.9
			c0,0.3,0.1,0.6,0.4,0.9s0.5,0.4,0.9,0.4s0.7-0.1,0.9-0.4c0.2-0.2,0.4-0.5,0.4-0.9s-0.1-0.7-0.4-0.9S249.4,841.7,249,841.7z
			 M262.8,853.6c-1.1,0.5-2.4,0.7-4,0.7c-2.1,0-3.8-0.6-5.1-1.9c-1.2-1.2-1.9-2.9-1.9-4.9c0-2.2,0.7-3.9,2.1-5.3s3.2-2,5.4-2
			c1.3,0,2.5,0.2,3.5,0.5v2.8c-1-0.5-2.1-0.8-3.3-0.8c-1.4,0-2.5,0.4-3.4,1.2s-1.3,1.9-1.3,3.3c0,1.4,0.4,2.4,1.2,3.2
			c0.8,0.8,1.9,1.2,3.2,1.2c1.3,0,2.4-0.3,3.5-0.8L262.8,853.6L262.8,853.6z"/>
		<path d="M271.7,857.2h-2.3c2.1-2.5,3.1-5.2,3.1-8.3c0-3-1-5.8-3.1-8.4h2.3c2.1,2.4,3.2,5.2,3.2,8.4
			C274.9,852.1,273.8,854.9,271.7,857.2z"/>
	</g>
</g>
<g id="图层_6">
	<g>
		<g>
			<rect x="184.8" y="184" class="st3" width="60" height="139.3"/>
			<rect x="314.8" y="184" class="st3" width="60" height="139.3"/>
			<rect x="444.8" y="184" class="st3" width="60" height="139.3"/>
			<rect x="574.8" y="184" class="st3" width="60" height="139.3"/>
			<rect x="704.8" y="184" class="st3" width="60" height="139.3"/>
			<rect x="834.8" y="184" class="st3" width="60" height="139.3"/>
			<rect x="964.8" y="184" class="st3" width="60" height="139.3"/>
			<rect x="1094.8" y="184" class="st3" width="60" height="139.3"/>
			<rect x="1224.8" y="184" class="st3" width="60" height="139.3"/>
			<rect x="1354.8" y="184" class="st3" width="60" height="139.3"/>
		</g>
		<g>
			<g>
				<polygon class="st4" points="385.8,344.7 303.8,344.7 294.8,368.6 394.8,368.6 				"/>
				<g>
					<rect x="294.9" y="368.6" class="st5" width="99.8" height="270.1"/>
				</g>
				<g class="st6">
					<rect x="296.4" y="370.1" class="st7" width="96.8" height="267.1"/>
					<g>
						<rect x="296.4" y="388" width="3.6" height="6.2"/>
						<rect x="296.4" y="452.7" width="3.6" height="6.2"/>
						<rect x="296.4" y="517.3" width="3.6" height="6.2"/>
					</g>
					<rect x="296.4" y="541.5" class="st8" width="96.8" height="2.3"/>
					<path d="M357.3,569h-25c-0.2,0-0.3-0.1-0.3-0.3v-9.5c0-0.2,0.1-0.3,0.3-0.3h25c0.2,0,0.3,0.1,0.3,0.3v9.5
						C357.6,568.8,357.5,569,357.3,569z"/>
					<rect x="323.5" y="452.7" width="25.2" height="5.9"/>
					<path d="M380.8,494v-22.4c0-0.5,0.4-0.9,0.9-0.9h4.2c0.5,0,0.9,0.4,0.9,0.9V494c0,0.5-0.4,0.9-0.9,0.9h-4.2
						C381.2,494.9,380.8,494.5,380.8,494z"/>
					<path d="M362.9,412.8h-36.3c-0.2,0-0.3-0.1-0.3-0.3v-19c0-0.2,0.1-0.3,0.3-0.3h36.3c0.2,0,0.3,0.1,0.3,0.3v19
						C363.2,412.7,363.1,412.8,362.9,412.8z"/>
					<path class="st9" d="M354.4,407.2h-19.3c-0.1,0-0.2-0.1-0.2-0.2v-10.5c0-0.1,0.1-0.2,0.2-0.2h19.3c0.1,0,0.2,0.1,0.2,0.2V407
						C354.6,407.1,354.5,407.2,354.4,407.2z"/>
					<path class="st10" d="M362.4,395.1h-35.2c-0.1,0-0.2-0.1-0.2-0.2V394c0-0.1,0.1-0.2,0.2-0.2h35.2c0.1,0,0.2,0.1,0.2,0.2v0.9
						C362.6,395.1,362.5,395.1,362.4,395.1z"/>
					<ellipse cx="344.8" cy="424.6" rx="12.1" ry="5.4"/>
					<g>
						<circle class="st10" cx="325.8" cy="456.4" r="1"/>
						<circle class="st10" cx="336.2" cy="456.4" r="1"/>
						<circle class="st10" cx="346.5" cy="456.4" r="1"/>
					</g>
					<g>
						<circle cx="309.9" cy="550" r="2.6"/>
						<circle cx="379.7" cy="550" r="2.6"/>
					</g>
				</g>
			</g>
			<g>
				<polygon class="st4" points="515.8,344.7 433.8,344.7 424.8,368.6 524.8,368.6 				"/>
				<g>
					<rect x="424.9" y="368.6" class="st5" width="99.8" height="270.1"/>
				</g>
				<g class="st6">
					<rect x="426.4" y="370.1" class="st7" width="96.8" height="267.1"/>
					<g>
						<rect x="426.4" y="388" width="3.6" height="6.2"/>
						<rect x="426.4" y="452.7" width="3.6" height="6.2"/>
						<rect x="426.4" y="517.3" width="3.6" height="6.2"/>
					</g>
					<rect x="426.4" y="541.5" class="st8" width="96.8" height="2.3"/>
					<path d="M487.3,569h-25c-0.2,0-0.3-0.1-0.3-0.3v-9.5c0-0.2,0.1-0.3,0.3-0.3h25c0.2,0,0.3,0.1,0.3,0.3v9.5
						C487.6,568.8,487.5,569,487.3,569z"/>
					<rect x="453.5" y="452.7" width="25.2" height="5.9"/>
					<path d="M510.8,494v-22.4c0-0.5,0.4-0.9,0.9-0.9h4.2c0.5,0,0.9,0.4,0.9,0.9V494c0,0.5-0.4,0.9-0.9,0.9h-4.2
						C511.2,494.9,510.8,494.5,510.8,494z"/>
					<path d="M492.9,412.8h-36.3c-0.2,0-0.3-0.1-0.3-0.3v-19c0-0.2,0.1-0.3,0.3-0.3h36.3c0.2,0,0.3,0.1,0.3,0.3v19
						C493.3,412.7,493.1,412.8,492.9,412.8z"/>
					<path class="st9" d="M484.4,407.2h-19.3c-0.1,0-0.2-0.1-0.2-0.2v-10.5c0-0.1,0.1-0.2,0.2-0.2h19.3c0.1,0,0.2,0.1,0.2,0.2V407
						C484.7,407.1,484.6,407.2,484.4,407.2z"/>
					<path class="st10" d="M492.4,395.1h-35.2c-0.1,0-0.2-0.1-0.2-0.2V394c0-0.1,0.1-0.2,0.2-0.2h35.2c0.1,0,0.2,0.1,0.2,0.2v0.9
						C492.6,395.1,492.5,395.1,492.4,395.1z"/>
					<ellipse cx="474.8" cy="424.6" rx="12.1" ry="5.4"/>
					<g>
						<circle class="st10" cx="455.8" cy="456.4" r="1"/>
						<circle class="st10" cx="466.2" cy="456.4" r="1"/>
						<circle class="st10" cx="476.6" cy="456.4" r="1"/>
					</g>
					<g>
						<circle cx="439.9" cy="550" r="2.6"/>
						<circle cx="509.7" cy="550" r="2.6"/>
					</g>
				</g>
			</g>
			<g>
				<polygon class="st4" points="645.8,344.7 563.8,344.7 554.8,368.6 654.8,368.6 				"/>
				<g>
					<rect x="554.9" y="368.6" class="st5" width="99.8" height="270.1"/>
				</g>
				<g class="st6">
					<rect x="556.4" y="370.1" class="st7" width="96.8" height="267.1"/>
					<g>
						<rect x="556.4" y="388" width="3.6" height="6.2"/>
						<rect x="556.4" y="452.7" width="3.6" height="6.2"/>
						<rect x="556.4" y="517.3" width="3.6" height="6.2"/>
					</g>
					<rect x="556.4" y="541.5" class="st8" width="96.8" height="2.3"/>
					<path d="M617.3,569h-25c-0.2,0-0.3-0.1-0.3-0.3v-9.5c0-0.2,0.1-0.3,0.3-0.3h25c0.2,0,0.3,0.1,0.3,0.3v9.5
						C617.6,568.8,617.5,569,617.3,569z"/>
					<rect x="583.5" y="452.7" width="25.2" height="5.9"/>
					<path d="M640.8,494v-22.4c0-0.5,0.4-0.9,0.9-0.9h4.2c0.5,0,0.9,0.4,0.9,0.9V494c0,0.5-0.4,0.9-0.9,0.9h-4.2
						C641.2,494.9,640.8,494.5,640.8,494z"/>
					<path d="M622.9,412.8h-36.3c-0.2,0-0.3-0.1-0.3-0.3v-19c0-0.2,0.1-0.3,0.3-0.3h36.3c0.2,0,0.3,0.1,0.3,0.3v19
						C623.3,412.7,623.1,412.8,622.9,412.8z"/>
					<path class="st9" d="M614.4,407.2h-19.3c-0.1,0-0.2-0.1-0.2-0.2v-10.5c0-0.1,0.1-0.2,0.2-0.2h19.3c0.1,0,0.2,0.1,0.2,0.2V407
						C614.7,407.1,614.6,407.2,614.4,407.2z"/>
					<path class="st10" d="M622.4,395.1h-35.2c-0.1,0-0.2-0.1-0.2-0.2V394c0-0.1,0.1-0.2,0.2-0.2h35.2c0.1,0,0.2,0.1,0.2,0.2v0.9
						C622.6,395.1,622.5,395.1,622.4,395.1z"/>
					<ellipse cx="604.8" cy="424.6" rx="12.1" ry="5.4"/>
					<g>
						<circle class="st10" cx="585.9" cy="456.4" r="1"/>
						<circle class="st10" cx="596.2" cy="456.4" r="1"/>
						<circle class="st10" cx="606.6" cy="456.4" r="1"/>
					</g>
					<g>
						<circle cx="569.9" cy="550" r="2.6"/>
						<circle cx="639.7" cy="550" r="2.6"/>
					</g>
				</g>
			</g>
			<g>
				<polygon class="st4" points="775.8,344.7 693.8,344.7 684.8,368.6 784.8,368.6 				"/>
				<g>
					<rect x="684.9" y="368.6" class="st5" width="99.8" height="270.1"/>
				</g>
				<g class="st6">
					<rect x="686.4" y="370.1" class="st7" width="96.8" height="267.1"/>
					<g>
						<rect x="686.4" y="388" width="3.6" height="6.2"/>
						<rect x="686.4" y="452.7" width="3.6" height="6.2"/>
						<rect x="686.4" y="517.3" width="3.6" height="6.2"/>
					</g>
					<rect x="686.4" y="541.5" class="st8" width="96.8" height="2.3"/>
					<path d="M747.3,569h-25c-0.2,0-0.3-0.1-0.3-0.3v-9.5c0-0.2,0.1-0.3,0.3-0.3h25c0.2,0,0.3,0.1,0.3,0.3v9.5
						C747.6,568.8,747.5,569,747.3,569z"/>
					<rect x="713.5" y="452.7" width="25.2" height="5.9"/>
					<path d="M770.8,494v-22.4c0-0.5,0.4-0.9,0.9-0.9h4.2c0.5,0,0.9,0.4,0.9,0.9V494c0,0.5-0.4,0.9-0.9,0.9h-4.2
						C771.2,494.9,770.8,494.5,770.8,494z"/>
					<path d="M752.9,412.8h-36.3c-0.2,0-0.3-0.1-0.3-0.3v-19c0-0.2,0.1-0.3,0.3-0.3h36.3c0.2,0,0.3,0.1,0.3,0.3v19
						C753.3,412.7,753.1,412.8,752.9,412.8z"/>
					<path class="st9" d="M744.4,407.2h-19.3c-0.1,0-0.2-0.1-0.2-0.2v-10.5c0-0.1,0.1-0.2,0.2-0.2h19.3c0.1,0,0.2,0.1,0.2,0.2V407
						C744.7,407.1,744.6,407.2,744.4,407.2z"/>
					<path class="st10" d="M752.4,395.1h-35.2c-0.1,0-0.2-0.1-0.2-0.2V394c0-0.1,0.1-0.2,0.2-0.2h35.2c0.1,0,0.2,0.1,0.2,0.2v0.9
						C752.6,395.1,752.5,395.1,752.4,395.1z"/>
					<ellipse cx="734.8" cy="424.6" rx="12.1" ry="5.4"/>
					<g>
						<circle class="st10" cx="715.9" cy="456.4" r="1"/>
						<circle class="st10" cx="726.2" cy="456.4" r="1"/>
						<circle class="st10" cx="736.6" cy="456.4" r="1"/>
					</g>
					<g>
						<circle cx="699.9" cy="550" r="2.6"/>
						<circle cx="769.7" cy="550" r="2.6"/>
					</g>
				</g>
			</g>
			<g>
				<polygon class="st4" points="905.8,344.7 823.8,344.7 814.8,368.6 914.8,368.6 				"/>
				<g>
					<rect x="814.9" y="368.6" class="st5" width="99.8" height="270.1"/>
				</g>
				<g class="st6">
					<rect x="816.4" y="370.1" class="st7" width="96.8" height="267.1"/>
					<g>
						<rect x="816.4" y="388" width="3.6" height="6.2"/>
						<rect x="816.4" y="452.7" width="3.6" height="6.2"/>
						<rect x="816.4" y="517.3" width="3.6" height="6.2"/>
					</g>
					<rect x="816.4" y="541.5" class="st8" width="96.8" height="2.3"/>
					<path d="M877.3,569h-25c-0.2,0-0.3-0.1-0.3-0.3v-9.5c0-0.2,0.1-0.3,0.3-0.3h25c0.2,0,0.3,0.1,0.3,0.3v9.5
						C877.6,568.8,877.5,569,877.3,569z"/>
					<rect x="843.5" y="452.7" width="25.2" height="5.9"/>
					<path d="M900.8,494v-22.4c0-0.5,0.4-0.9,0.9-0.9h4.2c0.5,0,0.9,0.4,0.9,0.9V494c0,0.5-0.4,0.9-0.9,0.9h-4.2
						C901.2,494.9,900.8,494.5,900.8,494z"/>
					<path d="M883,412.8h-36.3c-0.2,0-0.3-0.1-0.3-0.3v-19c0-0.2,0.1-0.3,0.3-0.3H883c0.2,0,0.3,0.1,0.3,0.3v19
						C883.3,412.7,883.1,412.8,883,412.8z"/>
					<path class="st9" d="M874.4,407.2h-19.3c-0.1,0-0.2-0.1-0.2-0.2v-10.5c0-0.1,0.1-0.2,0.2-0.2h19.3c0.1,0,0.2,0.1,0.2,0.2V407
						C874.7,407.1,874.6,407.2,874.4,407.2z"/>
					<path class="st10" d="M882.4,395.1h-35.2c-0.1,0-0.2-0.1-0.2-0.2V394c0-0.1,0.1-0.2,0.2-0.2h35.2c0.1,0,0.2,0.1,0.2,0.2v0.9
						C882.6,395.1,882.5,395.1,882.4,395.1z"/>
					<ellipse cx="864.8" cy="424.6" rx="12.1" ry="5.4"/>
					<g>
						<circle class="st10" cx="845.9" cy="456.4" r="1"/>
						<circle class="st10" cx="856.2" cy="456.4" r="1"/>
						<circle class="st10" cx="866.6" cy="456.4" r="1"/>
					</g>
					<g>
						<circle cx="829.9" cy="550" r="2.6"/>
						<circle cx="899.7" cy="550" r="2.6"/>
					</g>
				</g>
			</g>
			<g>
				<polygon class="st4" points="1035.8,344.7 953.8,344.7 944.8,368.6 1044.8,368.6 				"/>
				<g>
					<rect x="944.9" y="368.6" class="st5" width="99.8" height="270.1"/>
				</g>
				<g class="st6">
					<rect x="946.4" y="370.1" class="st7" width="96.8" height="267.1"/>
					<g>
						<rect x="946.4" y="388" width="3.6" height="6.2"/>
						<rect x="946.4" y="452.7" width="3.6" height="6.2"/>
						<rect x="946.4" y="517.3" width="3.6" height="6.2"/>
					</g>
					<rect x="946.4" y="541.5" class="st8" width="96.8" height="2.3"/>
					<path d="M1007.3,569h-25c-0.2,0-0.3-0.1-0.3-0.3v-9.5c0-0.2,0.1-0.3,0.3-0.3h25c0.2,0,0.3,0.1,0.3,0.3v9.5
						C1007.6,568.8,1007.5,569,1007.3,569z"/>
					<rect x="973.5" y="452.7" width="25.2" height="5.9"/>
					<path d="M1030.8,494v-22.4c0-0.5,0.4-0.9,0.9-0.9h4.2c0.5,0,0.9,0.4,0.9,0.9V494c0,0.5-0.4,0.9-0.9,0.9h-4.2
						C1031.2,494.9,1030.8,494.5,1030.8,494z"/>
					<path d="M1013,412.8h-36.3c-0.2,0-0.3-0.1-0.3-0.3v-19c0-0.2,0.1-0.3,0.3-0.3h36.3c0.2,0,0.3,0.1,0.3,0.3v19
						C1013.3,412.7,1013.1,412.8,1013,412.8z"/>
					<path class="st9" d="M1004.5,407.2h-19.3c-0.1,0-0.2-0.1-0.2-0.2v-10.5c0-0.1,0.1-0.2,0.2-0.2h19.3c0.1,0,0.2,0.1,0.2,0.2V407
						C1004.7,407.1,1004.6,407.2,1004.5,407.2z"/>
					<path class="st10" d="M1012.4,395.1h-35.2c-0.1,0-0.2-0.1-0.2-0.2V394c0-0.1,0.1-0.2,0.2-0.2h35.2c0.1,0,0.2,0.1,0.2,0.2v0.9
						C1012.6,395.1,1012.5,395.1,1012.4,395.1z"/>
					<ellipse cx="994.8" cy="424.6" rx="12.1" ry="5.4"/>
					<g>
						<circle class="st10" cx="975.9" cy="456.4" r="1"/>
						<circle class="st10" cx="986.2" cy="456.4" r="1"/>
						<circle class="st10" cx="996.6" cy="456.4" r="1"/>
					</g>
					<g>
						<circle cx="959.9" cy="550" r="2.6"/>
						<circle cx="1029.7" cy="550" r="2.6"/>
					</g>
				</g>
			</g>
			<g>
				<polygon class="st4" points="1165.8,344.7 1083.8,344.7 1074.8,368.6 1174.8,368.6 				"/>
				<g>
					<rect x="1074.9" y="368.6" class="st5" width="99.8" height="270.1"/>
				</g>
				<g class="st6">
					<rect x="1076.4" y="370.1" class="st7" width="96.8" height="267.1"/>
					<g>
						<rect x="1076.4" y="388" width="3.6" height="6.2"/>
						<rect x="1076.4" y="452.7" width="3.6" height="6.2"/>
						<rect x="1076.4" y="517.3" width="3.6" height="6.2"/>
					</g>
					<rect x="1076.4" y="541.5" class="st8" width="96.8" height="2.3"/>
					<path d="M1137.3,569h-25c-0.2,0-0.3-0.1-0.3-0.3v-9.5c0-0.2,0.1-0.3,0.3-0.3h25c0.2,0,0.3,0.1,0.3,0.3v9.5
						C1137.6,568.8,1137.5,569,1137.3,569z"/>
					<rect x="1103.6" y="452.7" width="25.2" height="5.9"/>
					<path d="M1160.8,494v-22.4c0-0.5,0.4-0.9,0.9-0.9h4.2c0.5,0,0.9,0.4,0.9,0.9V494c0,0.5-0.4,0.9-0.9,0.9h-4.2
						C1161.2,494.9,1160.8,494.5,1160.8,494z"/>
					<path d="M1143,412.8h-36.3c-0.2,0-0.3-0.1-0.3-0.3v-19c0-0.2,0.1-0.3,0.3-0.3h36.3c0.2,0,0.3,0.1,0.3,0.3v19
						C1143.3,412.7,1143.1,412.8,1143,412.8z"/>
					<path class="st9" d="M1134.5,407.2h-19.3c-0.1,0-0.2-0.1-0.2-0.2v-10.5c0-0.1,0.1-0.2,0.2-0.2h19.3c0.1,0,0.2,0.1,0.2,0.2V407
						C1134.7,407.1,1134.6,407.2,1134.5,407.2z"/>
					<path class="st10" d="M1142.4,395.1h-35.2c-0.1,0-0.2-0.1-0.2-0.2V394c0-0.1,0.1-0.2,0.2-0.2h35.2c0.1,0,0.2,0.1,0.2,0.2v0.9
						C1142.6,395.1,1142.5,395.1,1142.4,395.1z"/>
					<ellipse cx="1124.8" cy="424.6" rx="12.1" ry="5.4"/>
					<g>
						<circle class="st10" cx="1105.9" cy="456.4" r="1"/>
						<circle class="st10" cx="1116.2" cy="456.4" r="1"/>
						<circle class="st10" cx="1126.6" cy="456.4" r="1"/>
					</g>
					<g>
						<circle cx="1089.9" cy="550" r="2.6"/>
						<circle cx="1159.7" cy="550" r="2.6"/>
					</g>
				</g>
			</g>
			<g>
				<polygon class="st4" points="1295.8,344.7 1213.9,344.7 1204.8,368.6 1304.8,368.6 				"/>
				<g>
					<rect x="1204.9" y="368.6" class="st5" width="99.8" height="270.1"/>
				</g>
				<g class="st6">
					<rect x="1206.4" y="370.1" class="st7" width="96.8" height="267.1"/>
					<g>
						<rect x="1206.4" y="388" width="3.6" height="6.2"/>
						<rect x="1206.4" y="452.7" width="3.6" height="6.2"/>
						<rect x="1206.4" y="517.3" width="3.6" height="6.2"/>
					</g>
					<rect x="1206.4" y="541.5" class="st8" width="96.8" height="2.3"/>
					<path d="M1267.3,569h-25c-0.2,0-0.3-0.1-0.3-0.3v-9.5c0-0.2,0.1-0.3,0.3-0.3h25c0.2,0,0.3,0.1,0.3,0.3v9.5
						C1267.6,568.8,1267.5,569,1267.3,569z"/>
					<rect x="1233.6" y="452.7" width="25.2" height="5.9"/>
					<path d="M1290.8,494v-22.4c0-0.5,0.4-0.9,0.9-0.9h4.2c0.5,0,0.9,0.4,0.9,0.9V494c0,0.5-0.4,0.9-0.9,0.9h-4.2
						C1291.3,494.9,1290.8,494.5,1290.8,494z"/>
					<path d="M1273,412.8h-36.3c-0.2,0-0.3-0.1-0.3-0.3v-19c0-0.2,0.1-0.3,0.3-0.3h36.3c0.2,0,0.3,0.1,0.3,0.3v19
						C1273.3,412.7,1273.1,412.8,1273,412.8z"/>
					<path class="st9" d="M1264.5,407.2h-19.3c-0.1,0-0.2-0.1-0.2-0.2v-10.5c0-0.1,0.1-0.2,0.2-0.2h19.3c0.1,0,0.2,0.1,0.2,0.2V407
						C1264.7,407.1,1264.6,407.2,1264.5,407.2z"/>
					<path class="st10" d="M1272.4,395.1h-35.2c-0.1,0-0.2-0.1-0.2-0.2V394c0-0.1,0.1-0.2,0.2-0.2h35.2c0.1,0,0.2,0.1,0.2,0.2v0.9
						C1272.6,395.1,1272.5,395.1,1272.4,395.1z"/>
					<ellipse cx="1254.8" cy="424.6" rx="12.1" ry="5.4"/>
					<g>
						<circle class="st10" cx="1235.9" cy="456.4" r="1"/>
						<circle class="st10" cx="1246.2" cy="456.4" r="1"/>
						<circle class="st10" cx="1256.6" cy="456.4" r="1"/>
					</g>
					<g>
						<circle cx="1219.9" cy="550" r="2.6"/>
						<circle cx="1289.7" cy="550" r="2.6"/>
					</g>
				</g>
			</g>
			<g>
				<polygon class="st4" points="1425.8,344.7 1343.9,344.7 1334.9,368.6 1434.8,368.6 				"/>
				<g>
					<rect x="1334.9" y="368.6" class="st5" width="99.8" height="270.1"/>
				</g>
				<g class="st6">
					<rect x="1336.4" y="370.1" class="st7" width="96.8" height="267.1"/>
					<g>
						<rect x="1336.4" y="388" width="3.6" height="6.2"/>
						<rect x="1336.4" y="452.7" width="3.6" height="6.2"/>
						<rect x="1336.4" y="517.3" width="3.6" height="6.2"/>
					</g>
					<rect x="1336.4" y="541.5" class="st8" width="96.8" height="2.3"/>
					<path d="M1397.3,569h-25c-0.2,0-0.3-0.1-0.3-0.3v-9.5c0-0.2,0.1-0.3,0.3-0.3h25c0.2,0,0.3,0.1,0.3,0.3v9.5
						C1397.6,568.8,1397.5,569,1397.3,569z"/>
					<rect x="1363.6" y="452.7" width="25.2" height="5.9"/>
					<path d="M1420.8,494v-22.4c0-0.5,0.4-0.9,0.9-0.9h4.2c0.5,0,0.9,0.4,0.9,0.9V494c0,0.5-0.4,0.9-0.9,0.9h-4.2
						C1421.3,494.9,1420.8,494.5,1420.8,494z"/>
					<path d="M1403,412.8h-36.3c-0.2,0-0.3-0.1-0.3-0.3v-19c0-0.2,0.1-0.3,0.3-0.3h36.3c0.2,0,0.3,0.1,0.3,0.3v19
						C1403.3,412.7,1403.2,412.8,1403,412.8z"/>
					<path class="st9" d="M1394.5,407.2h-19.3c-0.1,0-0.2-0.1-0.2-0.2v-10.5c0-0.1,0.1-0.2,0.2-0.2h19.3c0.1,0,0.2,0.1,0.2,0.2V407
						C1394.7,407.1,1394.6,407.2,1394.5,407.2z"/>
					<path class="st10" d="M1402.4,395.1h-35.2c-0.1,0-0.2-0.1-0.2-0.2V394c0-0.1,0.1-0.2,0.2-0.2h35.2c0.1,0,0.2,0.1,0.2,0.2v0.9
						C1402.6,395.1,1402.5,395.1,1402.4,395.1z"/>
					<ellipse cx="1384.8" cy="424.6" rx="12.1" ry="5.4"/>
					<g>
						<circle class="st10" cx="1365.9" cy="456.4" r="1"/>
						<circle class="st10" cx="1376.2" cy="456.4" r="1"/>
						<circle class="st10" cx="1386.6" cy="456.4" r="1"/>
					</g>
					<g>
						<circle cx="1350" cy="550" r="2.6"/>
						<circle cx="1419.7" cy="550" r="2.6"/>
					</g>
				</g>
			</g>
			<g>
				<polygon class="st4" points="255.8,344.7 173.8,344.7 164.8,368.6 264.8,368.6 				"/>
				<g>
					<rect x="164.9" y="368.6" class="st5" width="99.8" height="270.1"/>
				</g>
				<g class="st6">
					<rect x="166.4" y="370.1" class="st7" width="96.8" height="267.1"/>
					<g>
						<rect x="166.4" y="388" width="3.6" height="6.2"/>
						<rect x="166.4" y="452.7" width="3.6" height="6.2"/>
						<rect x="166.4" y="517.3" width="3.6" height="6.2"/>
					</g>
					<rect x="166.4" y="541.5" class="st8" width="96.8" height="2.3"/>
					<path d="M227.3,569h-25c-0.2,0-0.3-0.1-0.3-0.3v-9.5c0-0.2,0.1-0.3,0.3-0.3h25c0.2,0,0.3,0.1,0.3,0.3v9.5
						C227.6,568.8,227.4,569,227.3,569z"/>
					<rect x="193.5" y="452.7" width="25.2" height="5.9"/>
					<path d="M250.8,494v-22.4c0-0.5,0.4-0.9,0.9-0.9h4.2c0.5,0,0.9,0.4,0.9,0.9V494c0,0.5-0.4,0.9-0.9,0.9h-4.2
						C251.2,494.9,250.8,494.5,250.8,494z"/>
					<path d="M232.9,412.8h-36.3c-0.2,0-0.3-0.1-0.3-0.3v-19c0-0.2,0.1-0.3,0.3-0.3h36.3c0.2,0,0.3,0.1,0.3,0.3v19
						C233.2,412.7,233.1,412.8,232.9,412.8z"/>
					<path class="st9" d="M224.4,407.2h-19.3c-0.1,0-0.2-0.1-0.2-0.2v-10.5c0-0.1,0.1-0.2,0.2-0.2h19.3c0.1,0,0.2,0.1,0.2,0.2V407
						C224.6,407.1,224.5,407.2,224.4,407.2z"/>
					<path class="st10" d="M232.4,395.1h-35.2c-0.1,0-0.2-0.1-0.2-0.2V394c0-0.1,0.1-0.2,0.2-0.2h35.2c0.1,0,0.2,0.1,0.2,0.2v0.9
						C232.6,395.1,232.5,395.1,232.4,395.1z"/>
					<ellipse cx="214.8" cy="424.6" rx="12.1" ry="5.4"/>
					<g>
						<circle class="st10" cx="195.8" cy="456.4" r="1"/>
						<circle class="st10" cx="206.2" cy="456.4" r="1"/>
						<circle class="st10" cx="216.5" cy="456.4" r="1"/>
					</g>
					<g>
						<circle cx="179.9" cy="550" r="2.6"/>
						<circle cx="249.7" cy="550" r="2.6"/>
					</g>
				</g>
			</g>
		</g>
		<g>
			<g>
				<g>
					<g>
						<g>
							<path class="st11" d="M226.6,659.7l-0.2,0.9h-1l-0.3,1.4h1.1l-0.2,0.9h-1.1l-0.4,1.9h-1l0.4-1.9h-1.2l-0.4,1.9h-1l0.4-1.9h-1
								l0.2-0.9h1.1l0.3-1.4h-1.1l0.2-0.9h1.1l0.4-1.9h1l-0.4,1.9h1.2l0.4-1.9h1l-0.4,1.9H226.6z M224.3,660.6H223l-0.3,1.4h1.3
								L224.3,660.6z"/>
						</g>
					</g>
					<g class="st2">
						<path class="st11" d="M219.2,669.5H218v2.1h-1.9v-2.1h-4.3v-1.3l4.2-6.4h2v6.2h1.2V669.5z M216.1,668.1v-3.2
							c0-0.3,0-0.6,0-0.9l0,0c0,0.1-0.1,0.2-0.1,0.3c-0.1,0.1-0.1,0.3-0.2,0.5l-2.2,3.4L216.1,668.1L216.1,668.1z"/>
					</g>
					<g class="st2">
						<path class="st11" d="M209.1,689.4c0.7-1.1,1.2-2.3,1.5-3.6h-1.4v-1.7h1.5v-2.3h1.7v2.3h1.5v1.7h-1.5v1.2
							c0.5,0.3,1.1,0.7,1.8,1l-0.8,1.4l-0.9-0.7v5.5h-1.7v-4.5c-0.3,0.6-0.6,1.2-1,1.8C209.6,691.1,209.4,690.4,209.1,689.4z
							 M220.5,689.3c0.4,0.2,0.8,0.3,1.2,0.5c-0.1,1.8-0.2,2.8-0.3,3.2s-0.2,0.6-0.4,0.8s-0.5,0.2-0.9,0.2h-1
							c-0.8,0-1.2-0.5-1.2-1.5v-8.3h-1.8v3.6c0,1.9-0.2,3.2-0.5,4.1s-0.8,1.7-1.6,2.5c-0.4-0.5-0.8-1-1.3-1.5
							c0.7-0.7,1.2-1.5,1.4-2.3s0.3-2.1,0.3-3.9v-4.3h5.3v9.6c0,0.3,0.1,0.4,0.3,0.4c0.1,0,0.2,0,0.2-0.1s0.1-0.3,0.1-0.8
							C220.5,691,220.5,690.3,220.5,689.3z"/>
						<path class="st11" d="M221.5,702.6c-0.8,0.4-1.6,0.9-2.5,1.3c0.9,0.6,1.8,1,2.9,1.3c-0.3,0.3-0.6,0.9-1.1,1.7
							c-1.7-0.7-3.1-1.7-4.2-3.1v1.8c0,1.2-0.5,1.8-1.6,1.8c-0.7,0-1.3,0.1-1.9,0.1c-0.1-0.5-0.2-1.1-0.4-1.6c0.6,0,1,0.1,1.4,0.1
							c0.5,0,0.8-0.2,0.8-0.7v-3.9H213v0.3h-1.7v-2.1c-0.4,0.3-0.9,0.6-1.3,0.8c-0.3-0.6-0.6-1.2-0.9-1.7c1.1-0.5,2.1-1.1,3-1.9
							h-2.7v-1.3h12.1v1.3h-7.2c-0.3,0.3-0.6,0.6-0.8,0.9h6.9v3.7h-3.8v0.2c0.4,0.6,0.8,1,1.2,1.5c1-0.5,2-1.1,2.8-1.7L221.5,702.6z
							 M209.6,703.3V702h4.6v1.3c-0.8,1.6-2.2,2.9-4,3.7c-0.2-0.4-0.6-0.9-1.1-1.6c1.4-0.5,2.5-1.2,3.3-2.1L209.6,703.3L209.6,703.3
							z M218.6,699.9v-1.2h-5.7v1.2H218.6z"/>
						<path class="st11" d="M209.2,710.2h1.2V708h1.5v2.3h0.9v1.6H212v1.9l1-0.2c-0.1,0.6-0.1,1.2-0.1,1.7l-0.9,0.2v3.3
							c0,0.4-0.1,0.8-0.2,1s-0.3,0.4-0.6,0.4s-0.8,0.1-1.6,0.1c-0.1-0.5-0.2-1.1-0.3-1.7c0.2,0,0.5,0,0.9,0c0.2,0,0.3-0.2,0.3-0.5
							v-2.2l-1.2,0.3l-0.1-1.8c0.4-0.1,0.9-0.2,1.3-0.3v-2.3h-1.2L209.2,710.2L209.2,710.2z M213.6,714.8h7.3v1.5h-2.8v1.9h3.5v1.5
							h-8.7v-1.5h3.6v-1.9h-2.8v-1.5H213.6z M216.9,712.6l-2.9,2.1l-1-1.2c0.8-0.5,1.8-1.2,2.8-2L216.9,712.6z M213.3,709.3h3.1
							l-0.3-1.1l1.8-0.3c0.1,0.5,0.3,1,0.4,1.4h3.2v2.6h-1.6v-1H215v1h-1.6L213.3,709.3L213.3,709.3z M217.7,712.6l1.1-1.1
							c0.8,0.6,1.7,1.2,2.8,2.1l-1.1,1.2C220.1,714.5,219.2,713.7,217.7,712.6z"/>
						<path class="st11" d="M211.2,732.6h-1.5v-5h2.6v-1h-3.1v-1.4h3.1v-1.1H211c-0.1,0.4-0.2,0.7-0.3,1c-0.4-0.2-0.8-0.3-1.3-0.5
							c0.3-1,0.6-2.1,0.9-3.3l1.4,0.3l-0.2,1h1v-1.8h1.7v1.8h2.5v1.4H214v1.1h2.9v1.4H214v1h2.6v3.4c0,0.5-0.1,0.8-0.3,1.1
							s-0.5,0.4-0.9,0.4s-0.7,0-0.9,0c-0.1-0.5-0.2-1-0.4-1.6c0.2,0,0.4,0,0.6,0c0.3,0,0.4-0.1,0.4-0.4v-1.6H214v4.3h-1.7v-4.3h-1.1
							V732.6z M217.3,721.8h1.5v8.5h-1.5V721.8z M219.6,720.9h1.6v10.5c0,0.6-0.1,1.1-0.4,1.4c-0.3,0.3-0.7,0.5-1.2,0.5
							s-1.1,0-1.8,0c-0.1-0.5-0.2-1.1-0.3-1.8c0.7,0,1.2,0.1,1.6,0.1c0.4,0,0.7-0.3,0.7-0.8v-9.9H219.6z"/>
						<path class="st11" d="M209.1,741.2c0.7-1.2,1.2-2.3,1.6-3.5h-1.4v-1.6h1.6v-2.2h1.7v2.2h1.3v1.6h-1.3v1
							c0.6,0.3,1.1,0.6,1.6,0.9v-5h7.3v1.6h-5.6v1.4h5.2v5.2h-5.2v1.4h5.8v1.6h-7.5v-6l-0.7,1.4c-0.3-0.3-0.6-0.5-0.9-0.8v5.9h-1.7
							v-5.5c-0.4,0.9-0.8,1.8-1.3,2.6C209.5,743,209.3,742.2,209.1,741.2z M219.3,741.3v-2.1h-3.4v2.1H219.3z"/>
					</g>
				</g>
				<g>
					<g class="st2">
						<path class="st11" d="M201.7,764.5c0.7,0.5,1.4,0.7,2.3,0.7c0.6,0,1-0.1,1.3-0.4c0.3-0.2,0.5-0.6,0.5-1c0-0.5-0.2-0.8-0.6-1.1
							c-0.4-0.2-0.9-0.4-1.6-0.4h-0.9v-1.6h0.8c1.3,0,2-0.4,2-1.3c0-0.8-0.5-1.3-1.5-1.3c-0.7,0-1.3,0.2-1.9,0.6V757
							c0.7-0.4,1.5-0.5,2.4-0.5s1.7,0.2,2.3,0.6s0.9,1,0.9,1.8c0,1.3-0.7,2.1-2,2.4l0,0c0.7,0.1,1.2,0.3,1.6,0.8
							c0.4,0.4,0.6,0.9,0.6,1.6c0,0.9-0.3,1.7-1,2.2s-1.6,0.8-2.7,0.8c-1,0-1.8-0.2-2.4-0.5v-1.7L201.7,764.5L201.7,764.5z"/>
						<path class="st11" d="M218.4,766.6h-2.3l-0.7-2.3h-3.6l-0.7,2.3h-2.3l3.6-9.8h2.5L218.4,766.6z M214.9,762.7l-1.1-3.4
							c-0.1-0.2-0.1-0.5-0.2-0.9h-0.1c0,0.3-0.1,0.6-0.2,0.8l-1.1,3.4h2.7L214.9,762.7L214.9,762.7z"/>
						<path class="st11" d="M228.2,766.6h-2.3l-0.7-2.3h-3.6l-0.7,2.3h-2.3l3.6-9.8h2.5L228.2,766.6z M224.7,762.7l-1.1-3.4
							c-0.1-0.2-0.1-0.5-0.2-0.9h-0.1c0,0.3-0.1,0.6-0.2,0.8l-1.1,3.4h2.7L224.7,762.7L224.7,762.7z"/>
					</g>
				</g>
			</g>
		</g>
		<g>
			<g>
				<g>
					<g>
						<g>
							<path class="st11" d="M356.6,659.7l-0.2,0.9h-1l-0.3,1.4h1.1l-0.2,0.9h-1.1l-0.4,1.9h-1l0.4-1.9h-1.2l-0.4,1.9h-1l0.4-1.9h-1
								l0.2-0.9h1.1l0.3-1.4h-1.1l0.2-0.9h1.1l0.4-1.9h1l-0.4,1.9h1.2l0.4-1.9h1l-0.4,1.9H356.6z M354.4,660.6h-1.3l-0.3,1.4h1.3
								L354.4,660.6z"/>
						</g>
					</g>
					<g class="st2">
						<path class="st11" d="M348.7,672h-6.1v-1.6h2.1v-6.3l-2.1,0.5v-1.7l4.2-0.9v8.4h2v1.6H348.7z"/>
					</g>
					<g class="st2">
						<path class="st11" d="M339.2,689.4c0.7-1.1,1.2-2.3,1.5-3.6h-1.4v-1.7h1.5v-2.3h1.7v2.3h1.5v1.7h-1.5v1.2
							c0.5,0.3,1.1,0.7,1.8,1l-0.8,1.4l-0.9-0.7v5.5h-1.7v-4.5c-0.3,0.6-0.6,1.2-1,1.8C339.6,691.1,339.4,690.4,339.2,689.4z
							 M350.6,689.3c0.4,0.2,0.8,0.3,1.2,0.5c-0.1,1.8-0.2,2.8-0.3,3.2s-0.2,0.6-0.4,0.8c-0.2,0.2-0.5,0.2-0.9,0.2h-1
							c-0.8,0-1.2-0.5-1.2-1.5v-8.3h-1.8v3.6c0,1.9-0.2,3.2-0.5,4.1s-0.8,1.7-1.6,2.5c-0.4-0.5-0.8-1-1.3-1.5
							c0.7-0.7,1.2-1.5,1.4-2.3c0.2-0.8,0.3-2.1,0.3-3.9v-4.3h5.3v9.6c0,0.3,0.1,0.4,0.3,0.4c0.1,0,0.2,0,0.2-0.1s0.1-0.3,0.1-0.8
							C350.5,691,350.6,690.3,350.6,689.3z"/>
						<path class="st11" d="M351.5,702.6c-0.8,0.4-1.6,0.9-2.5,1.3c0.9,0.6,1.8,1,2.9,1.3c-0.3,0.3-0.6,0.9-1.1,1.7
							c-1.7-0.7-3.1-1.7-4.2-3.1v1.8c0,1.2-0.5,1.8-1.6,1.8c-0.7,0-1.3,0.1-1.9,0.1c-0.1-0.5-0.2-1.1-0.4-1.6c0.6,0,1,0.1,1.4,0.1
							c0.5,0,0.8-0.2,0.8-0.7v-3.9H343v0.3h-1.7v-2.1c-0.4,0.3-0.9,0.6-1.3,0.8c-0.3-0.6-0.6-1.2-0.9-1.7c1.1-0.5,2.1-1.1,3-1.9
							h-2.7v-1.3h12.1v1.3h-7.2c-0.3,0.3-0.6,0.6-0.8,0.9h6.9v3.7h-3.8v0.2c0.4,0.6,0.8,1,1.2,1.5c1-0.5,2-1.1,2.8-1.7L351.5,702.6z
							 M339.7,703.3V702h4.6v1.3c-0.8,1.6-2.2,2.9-4,3.7c-0.2-0.4-0.6-0.9-1.1-1.6c1.4-0.5,2.5-1.2,3.3-2.1L339.7,703.3L339.7,703.3
							z M348.7,699.9v-1.2H343v1.2H348.7z"/>
						<path class="st11" d="M339.3,710.2h1.2V708h1.5v2.3h0.9v1.6H342v1.9l1-0.2c-0.1,0.6-0.1,1.2-0.1,1.7l-0.9,0.2v3.3
							c0,0.4-0.1,0.8-0.2,1s-0.3,0.4-0.6,0.4c-0.3,0-0.8,0.1-1.6,0.1c-0.1-0.5-0.2-1.1-0.3-1.7c0.2,0,0.5,0,0.9,0
							c0.2,0,0.3-0.2,0.3-0.5v-2.2l-1.2,0.3l-0.1-1.8c0.4-0.1,0.9-0.2,1.3-0.3v-2.3h-1.2L339.3,710.2L339.3,710.2z M343.7,714.8h7.3
							v1.5h-2.8v1.9h3.5v1.5H343v-1.5h3.6v-1.9h-2.8v-1.5H343.7z M347,712.6l-2.9,2.1l-1-1.2c0.8-0.5,1.8-1.2,2.8-2L347,712.6z
							 M343.4,709.3h3.1l-0.3-1.1l1.8-0.3c0.1,0.5,0.3,1,0.4,1.4h3.2v2.6H350v-1h-5v1h-1.6V709.3z M347.7,712.6l1.1-1.1
							c0.8,0.6,1.7,1.2,2.8,2.1l-1.1,1.2C350.2,714.5,349.2,713.7,347.7,712.6z"/>
						<path class="st11" d="M341.3,732.6h-1.5v-5h2.6v-1h-3.1v-1.4h3.1v-1.1H341c-0.1,0.4-0.2,0.7-0.3,1c-0.4-0.2-0.8-0.3-1.3-0.5
							c0.3-1,0.6-2.1,0.9-3.3l1.4,0.3l-0.2,1h1v-1.8h1.7v1.8h2.5v1.4H344v1.1h2.9v1.4H344v1h2.6v3.4c0,0.5-0.1,0.8-0.3,1.1
							c-0.2,0.3-0.5,0.4-0.9,0.4s-0.7,0-0.9,0c-0.1-0.5-0.2-1-0.4-1.6c0.2,0,0.4,0,0.6,0c0.3,0,0.4-0.1,0.4-0.4v-1.6H344v4.3h-1.7
							v-4.3h-1.1v3.8L341.3,732.6L341.3,732.6z M347.3,721.8h1.5v8.5h-1.5V721.8z M349.6,720.9h1.6v10.5c0,0.6-0.1,1.1-0.4,1.4
							c-0.3,0.3-0.7,0.5-1.2,0.5s-1.1,0-1.8,0c-0.1-0.5-0.2-1.1-0.3-1.8c0.7,0,1.2,0.1,1.6,0.1s0.7-0.3,0.7-0.8v-9.9H349.6z"/>
						<path class="st11" d="M339.2,741.2c0.7-1.2,1.2-2.3,1.6-3.5h-1.4v-1.6h1.6v-2.2h1.7v2.2h1.3v1.6h-1.3v1
							c0.6,0.3,1.1,0.6,1.6,0.9v-5h7.3v1.6H346v1.4h5.2v5.2H346v1.4h5.8v1.6h-7.5v-6l-0.7,1.4c-0.3-0.3-0.6-0.5-0.9-0.8v5.9H341
							v-5.5c-0.4,0.9-0.8,1.8-1.3,2.6C339.5,743,339.4,742.2,339.2,741.2z M349.4,741.3v-2.1H346v2.1H349.4z"/>
					</g>
				</g>
				<g>
					<g class="st2">
						<path class="st11" d="M338.1,766.6H332V765h2.1v-6.3l-2.1,0.5v-1.7l4.2-0.9v8.4h2v1.6H338.1z"/>
						<path class="st11" d="M348.4,766.6h-2.3l-0.7-2.3h-3.6l-0.7,2.3h-2.3l3.6-9.8h2.5L348.4,766.6z M344.9,762.7l-1.1-3.4
							c-0.1-0.2-0.1-0.5-0.2-0.9h-0.1c0,0.3-0.1,0.6-0.2,0.8l-1.1,3.4h2.7L344.9,762.7L344.9,762.7z"/>
						<path class="st11" d="M358.2,766.6h-2.3l-0.7-2.3h-3.6l-0.7,2.3h-2.3l3.6-9.8h2.5L358.2,766.6z M354.7,762.7l-1.1-3.4
							c-0.1-0.2-0.1-0.5-0.2-0.9h-0.1c0,0.3-0.1,0.6-0.2,0.8l-1.1,3.4h2.7L354.7,762.7L354.7,762.7z"/>
					</g>
				</g>
			</g>
		</g>
		<g>
			<g>
				<g>
					<g>
						<g>
							<path class="st11" d="M486.7,659.7l-0.2,0.9h-1l-0.3,1.4h1.1l-0.2,0.9H485l-0.4,1.9h-1l0.4-1.9h-1.2l-0.4,1.9h-1l0.4-1.9h-1
								l0.2-0.9h1.1l0.3-1.4H481l0.2-0.9h1.1l0.4-1.9h1l-0.4,1.9h1.2l0.4-1.9h1l-0.4,1.9H486.7z M484.4,660.6h-1.3l-0.3,1.4h1.3
								L484.4,660.6z"/>
						</g>
					</g>
					<g class="st2">
						<path class="st11" d="M478.8,671.8h-6.4v-1.6l2.8-2.7c0.6-0.6,1-1,1.2-1.4s0.4-0.8,0.4-1.2c0-0.9-0.5-1.4-1.5-1.4
							c-0.8,0-1.7,0.3-2.4,1v-1.8c0.8-0.6,1.8-0.8,2.9-0.8c1,0,1.7,0.2,2.3,0.7c0.6,0.5,0.9,1.2,0.9,2c0,1.2-0.7,2.4-2.1,3.6
							l-2.1,1.8l0,0h4.1L478.8,671.8L478.8,671.8z"/>
					</g>
					<g class="st2">
						<path class="st11" d="M469.2,689.4c0.7-1.1,1.2-2.3,1.5-3.6h-1.4v-1.7h1.5v-2.3h1.7v2.3h1.5v1.7h-1.5v1.2
							c0.5,0.3,1.1,0.7,1.8,1l-0.8,1.4l-0.9-0.7v5.5h-1.7v-4.5c-0.3,0.6-0.6,1.2-1,1.8C469.7,691.1,469.5,690.4,469.2,689.4z
							 M480.6,689.3c0.4,0.2,0.8,0.3,1.2,0.5c-0.1,1.8-0.2,2.8-0.3,3.2s-0.2,0.6-0.4,0.8c-0.2,0.2-0.5,0.2-0.9,0.2h-1
							c-0.8,0-1.2-0.5-1.2-1.5v-8.3h-1.8v3.6c0,1.9-0.2,3.2-0.5,4.1s-0.8,1.7-1.6,2.5c-0.4-0.5-0.8-1-1.3-1.5
							c0.7-0.7,1.2-1.5,1.4-2.3c0.2-0.8,0.3-2.1,0.3-3.9v-4.3h5.3v9.6c0,0.3,0.1,0.4,0.3,0.4c0.1,0,0.2,0,0.2-0.1s0.1-0.3,0.1-0.8
							C480.6,691,480.6,690.3,480.6,689.3z"/>
						<path class="st11" d="M481.6,702.6c-0.8,0.4-1.6,0.9-2.5,1.3c0.9,0.6,1.8,1,2.9,1.3c-0.3,0.3-0.6,0.9-1.1,1.7
							c-1.7-0.7-3.1-1.7-4.2-3.1v1.8c0,1.2-0.5,1.8-1.6,1.8c-0.7,0-1.3,0.1-1.9,0.1c-0.1-0.5-0.2-1.1-0.4-1.6c0.6,0,1,0.1,1.4,0.1
							c0.5,0,0.8-0.2,0.8-0.7v-3.9h-2v0.3h-1.7v-2.1c-0.4,0.3-0.9,0.6-1.3,0.8c-0.3-0.6-0.6-1.2-0.9-1.7c1.1-0.5,2.1-1.1,3-1.9h-2.7
							v-1.3h12.1v1.3h-7.2c-0.3,0.3-0.6,0.6-0.8,0.9h6.9v3.7h-3.8v0.2c0.4,0.6,0.8,1,1.2,1.5c1-0.5,2-1.1,2.8-1.7L481.6,702.6z
							 M469.7,703.3V702h4.6v1.3c-0.8,1.6-2.2,2.9-4,3.7c-0.2-0.4-0.6-0.9-1.1-1.6c1.4-0.5,2.5-1.2,3.3-2.1L469.7,703.3L469.7,703.3
							z M478.7,699.9v-1.2H473v1.2H478.7z"/>
						<path class="st11" d="M469.3,710.2h1.2V708h1.5v2.3h0.9v1.6H472v1.9l1-0.2c-0.1,0.6-0.1,1.2-0.1,1.7l-0.9,0.2v3.3
							c0,0.4-0.1,0.8-0.2,1s-0.3,0.4-0.6,0.4c-0.3,0-0.8,0.1-1.6,0.1c-0.1-0.5-0.2-1.1-0.3-1.7c0.2,0,0.5,0,0.9,0
							c0.2,0,0.3-0.2,0.3-0.5v-2.2l-1.2,0.3l-0.1-1.8c0.4-0.1,0.9-0.2,1.3-0.3v-2.3h-1.2L469.3,710.2L469.3,710.2z M473.7,714.8h7.3
							v1.5h-2.8v1.9h3.5v1.5H473v-1.5h3.6v-1.9h-2.8v-1.5H473.7z M477,712.6l-2.9,2.1l-1-1.2c0.8-0.5,1.8-1.2,2.8-2L477,712.6z
							 M473.4,709.3h3.1l-0.3-1.1l1.8-0.3c0.1,0.5,0.3,1,0.4,1.4h3.2v2.6H480v-1h-5v1h-1.6V709.3z M477.8,712.6l1.1-1.1
							c0.8,0.6,1.7,1.2,2.8,2.1l-1.1,1.2C480.2,714.5,479.3,713.7,477.8,712.6z"/>
						<path class="st11" d="M471.3,732.6h-1.5v-5h2.6v-1h-3.1v-1.4h3.1v-1.1H471c-0.1,0.4-0.2,0.7-0.3,1c-0.4-0.2-0.8-0.3-1.3-0.5
							c0.3-1,0.6-2.1,0.9-3.3l1.4,0.3l-0.2,1h1v-1.8h1.7v1.8h2.5v1.4h-2.5v1.1h2.9v1.4h-2.9v1h2.6v3.4c0,0.5-0.1,0.8-0.3,1.1
							c-0.2,0.3-0.5,0.4-0.9,0.4s-0.7,0-0.9,0c-0.1-0.5-0.2-1-0.4-1.6c0.2,0,0.4,0,0.6,0c0.3,0,0.4-0.1,0.4-0.4v-1.6h-1.1v4.3h-1.7
							v-4.3h-1.1v3.8L471.3,732.6L471.3,732.6z M477.4,721.8h1.5v8.5h-1.5V721.8z M479.7,720.9h1.6v10.5c0,0.6-0.1,1.1-0.4,1.4
							c-0.3,0.3-0.7,0.5-1.2,0.5s-1.1,0-1.8,0c-0.1-0.5-0.2-1.1-0.3-1.8c0.7,0,1.2,0.1,1.6,0.1s0.7-0.3,0.7-0.8v-9.9H479.7z"/>
						<path class="st11" d="M469.2,741.2c0.7-1.2,1.2-2.3,1.6-3.5h-1.4v-1.6h1.6v-2.2h1.7v2.2h1.3v1.6h-1.3v1
							c0.6,0.3,1.1,0.6,1.6,0.9v-5h7.3v1.6H476v1.4h5.2v5.2H476v1.4h5.8v1.6h-7.5v-6l-0.7,1.4c-0.3-0.3-0.6-0.5-0.9-0.8v5.9H471
							v-5.5c-0.4,0.9-0.8,1.8-1.3,2.6C469.6,743,469.4,742.2,469.2,741.2z M479.4,741.3v-2.1H476v2.1H479.4z"/>
					</g>
				</g>
				<g>
					<g class="st2">
						<path class="st11" d="M465.5,763.2v3.4h-2.1v-9.8h3.4c2.4,0,3.7,1,3.7,3.1c0,1-0.4,1.8-1.1,2.4c-0.7,0.6-1.7,0.9-2.8,0.9
							L465.5,763.2L465.5,763.2z M465.5,758.4v3.2h0.9c1.2,0,1.8-0.5,1.8-1.6c0-1-0.6-1.6-1.8-1.6L465.5,758.4L465.5,758.4z"/>
						<path class="st11" d="M478.2,766.6H472V765h2.1v-6.3l-2.1,0.5v-1.7l4.2-0.9v8.4h2V766.6z"/>
						<path class="st11" d="M486.5,764.5h-1.2v2.1h-1.9v-2.1h-4.3v-1.3l4.2-6.4h2v6.2h1.2L486.5,764.5L486.5,764.5z M483.4,763v-3.2
							c0-0.3,0-0.6,0-0.9l0,0c0,0.1-0.1,0.2-0.1,0.3c-0.1,0.1-0.1,0.3-0.2,0.5l-2.2,3.4L483.4,763L483.4,763z"/>
					</g>
				</g>
			</g>
		</g>
		<g>
			<g>
				<g>
					<g>
						<g>
							<path class="st11" d="M616.7,659.7l-0.2,0.9h-1l-0.3,1.4h1.1l-0.2,0.9H615l-0.4,1.9h-1l0.4-1.9h-1.2l-0.4,1.9h-1l0.4-1.9h-1
								l0.2-0.9h1.1l0.3-1.4H611l0.2-0.9h1.1l0.4-1.9h1l-0.4,1.9h1.2l0.4-1.9h1l-0.4,1.9H616.7z M614.5,660.6h-1.3l-0.3,1.4h1.3
								L614.5,660.6z"/>
						</g>
					</g>
					<g class="st2">
						<path class="st11" d="M602.5,669.7c0.7,0.5,1.4,0.7,2.3,0.7c0.6,0,1-0.1,1.3-0.4s0.5-0.6,0.5-1c0-0.5-0.2-0.8-0.6-1.1
							c-0.4-0.2-0.9-0.4-1.6-0.4h-0.9V666h0.8c1.3,0,2-0.4,2-1.3c0-0.8-0.5-1.3-1.5-1.3c-0.7,0-1.3,0.2-1.9,0.6v-1.7
							c0.7-0.4,1.5-0.5,2.4-0.5s1.7,0.2,2.3,0.6c0.6,0.4,0.9,1,0.9,1.8c0,1.3-0.7,2.1-2,2.4l0,0c0.7,0.1,1.2,0.3,1.6,0.8
							s0.6,0.9,0.6,1.6c0,0.9-0.3,1.7-1,2.2s-1.6,0.8-2.7,0.8c-1,0-1.8-0.2-2.4-0.5L602.5,669.7L602.5,669.7z"/>
					</g>
					<g class="st2">
						<path class="st11" d="M599.3,689.4c0.7-1.1,1.2-2.3,1.5-3.6h-1.4v-1.7h1.5v-2.3h1.7v2.3h1.5v1.7h-1.5v1.2
							c0.5,0.3,1.1,0.7,1.8,1l-0.8,1.4l-0.9-0.7v5.5H601v-4.5c-0.3,0.6-0.6,1.2-1,1.8C599.7,691.1,599.5,690.4,599.3,689.4z
							 M610.7,689.3c0.4,0.2,0.8,0.3,1.2,0.5c-0.1,1.8-0.2,2.8-0.3,3.2s-0.2,0.6-0.4,0.8s-0.5,0.2-0.9,0.2h-1
							c-0.8,0-1.2-0.5-1.2-1.5v-8.3h-1.8v3.6c0,1.9-0.2,3.2-0.5,4.1s-0.8,1.7-1.6,2.5c-0.4-0.5-0.8-1-1.3-1.5
							c0.7-0.7,1.2-1.5,1.4-2.3s0.3-2.1,0.3-3.9v-4.3h5.3v9.6c0,0.3,0.1,0.4,0.3,0.4c0.1,0,0.2,0,0.2-0.1s0.1-0.3,0.1-0.8
							C610.6,691,610.7,690.3,610.7,689.3z"/>
						<path class="st11" d="M611.6,702.6c-0.8,0.4-1.6,0.9-2.5,1.3c0.9,0.6,1.8,1,2.9,1.3c-0.3,0.3-0.6,0.9-1.1,1.7
							c-1.7-0.7-3.1-1.7-4.2-3.1v1.8c0,1.2-0.5,1.8-1.6,1.8c-0.7,0-1.3,0.1-1.9,0.1c-0.1-0.5-0.2-1.1-0.4-1.6c0.6,0,1,0.1,1.4,0.1
							c0.5,0,0.8-0.2,0.8-0.7v-3.9h-1.9v0.3h-1.7v-2.1c-0.4,0.3-0.9,0.6-1.3,0.8c-0.3-0.6-0.6-1.2-0.9-1.7c1.1-0.5,2.1-1.1,3-1.9
							h-2.7v-1.3h12.1v1.3h-7.2c-0.3,0.3-0.6,0.6-0.8,0.9h6.9v3.7h-3.8v0.2c0.4,0.6,0.8,1,1.2,1.5c1-0.5,2-1.1,2.8-1.7L611.6,702.6z
							 M599.7,703.3V702h4.6v1.3c-0.8,1.6-2.2,2.9-4,3.7c-0.2-0.4-0.6-0.9-1.1-1.6c1.4-0.5,2.5-1.2,3.3-2.1L599.7,703.3L599.7,703.3
							z M608.8,699.9v-1.2h-5.7v1.2H608.8z"/>
						<path class="st11" d="M599.4,710.2h1.2V708h1.5v2.3h0.9v1.6h-0.9v1.9l1-0.2c-0.1,0.6-0.1,1.2-0.1,1.7l-0.9,0.2v3.3
							c0,0.4-0.1,0.8-0.2,1s-0.3,0.4-0.6,0.4s-0.8,0.1-1.6,0.1c-0.1-0.5-0.2-1.1-0.3-1.7c0.2,0,0.5,0,0.9,0c0.2,0,0.3-0.2,0.3-0.5
							v-2.2l-1.2,0.3l-0.1-1.8c0.4-0.1,0.9-0.2,1.3-0.3v-2.3h-1.2L599.4,710.2L599.4,710.2z M603.8,714.8h7.3v1.5h-2.8v1.9h3.5v1.5
							H603v-1.5h3.6v-1.9h-2.8V714.8z M607.1,712.6l-2.9,2.1l-1-1.2c0.8-0.5,1.8-1.2,2.8-2L607.1,712.6z M603.5,709.3h3.1l-0.3-1.1
							l1.8-0.3c0.1,0.5,0.3,1,0.4,1.4h3.2v2.6H610v-1h-4.9v1h-1.6V709.3z M607.8,712.6l1.1-1.1c0.8,0.6,1.7,1.2,2.8,2.1l-1.1,1.2
							C610.3,714.5,609.3,713.7,607.8,712.6z"/>
						<path class="st11" d="M601.4,732.6h-1.5v-5h2.6v-1h-3.1v-1.4h3.1v-1.1h-1.4c-0.1,0.4-0.2,0.7-0.3,1c-0.4-0.2-0.8-0.3-1.3-0.5
							c0.3-1,0.6-2.1,0.9-3.3l1.4,0.3l-0.2,1h1v-1.8h1.7v1.8h2.5v1.4h-2.5v1.1h2.9v1.4h-2.9v1h2.6v3.4c0,0.5-0.1,0.8-0.3,1.1
							s-0.5,0.4-0.9,0.4s-0.7,0-0.9,0c-0.1-0.5-0.2-1-0.4-1.6c0.2,0,0.4,0,0.6,0c0.3,0,0.4-0.1,0.4-0.4v-1.6h-1.1v4.3h-1.7v-4.3
							h-1.1L601.4,732.6L601.4,732.6z M607.4,721.8h1.5v8.5h-1.5V721.8z M609.7,720.9h1.6v10.5c0,0.6-0.1,1.1-0.4,1.4
							c-0.3,0.3-0.7,0.5-1.2,0.5s-1.1,0-1.8,0c-0.1-0.5-0.2-1.1-0.3-1.8c0.7,0,1.2,0.1,1.6,0.1c0.4,0,0.7-0.3,0.7-0.8v-9.9H609.7z"
							/>
						<path class="st11" d="M599.3,741.2c0.7-1.2,1.2-2.3,1.6-3.5h-1.4v-1.6h1.6v-2.2h1.7v2.2h1.3v1.6h-1.3v1
							c0.6,0.3,1.1,0.6,1.6,0.9v-5h7.3v1.6H606v1.4h5.2v5.2H606v1.4h5.8v1.6h-7.5v-6l-0.7,1.4c-0.3-0.3-0.6-0.5-0.9-0.8v5.9H601
							v-5.5c-0.4,0.9-0.8,1.8-1.3,2.6C599.6,743,599.5,742.2,599.3,741.2z M609.5,741.3v-2.1H606v2.1H609.5z"/>
					</g>
				</g>
				<g>
					<g class="st2">
						<path class="st11" d="M595.6,764v3.4h-2.1v-9.8h3.4c2.4,0,3.7,1,3.7,3.1c0,1-0.4,1.8-1.1,2.4c-0.7,0.6-1.7,0.9-2.8,0.9
							L595.6,764L595.6,764z M595.6,759.2v3.2h0.9c1.2,0,1.8-0.5,1.8-1.6c0-1-0.6-1.6-1.8-1.6L595.6,759.2L595.6,759.2z"/>
						<path class="st11" d="M608.2,767.4h-6.1v-1.6h2.1v-6.3L602,760v-1.7l4.2-0.9v8.4h2V767.4z"/>
						<path class="st11" d="M609.9,765.3c0.7,0.5,1.4,0.7,2.3,0.7c0.6,0,1-0.1,1.3-0.4c0.3-0.2,0.5-0.6,0.5-1c0-0.5-0.2-0.8-0.6-1.1
							c-0.4-0.2-0.9-0.4-1.6-0.4h-0.9v-1.6h0.8c1.3,0,2-0.4,2-1.3c0-0.8-0.5-1.3-1.5-1.3c-0.7,0-1.3,0.2-1.9,0.6V758
							c0.7-0.4,1.5-0.5,2.4-0.5s1.7,0.2,2.3,0.6s0.9,1,0.9,1.8c0,1.3-0.7,2.1-2,2.4l0,0c0.7,0.1,1.2,0.3,1.6,0.8
							c0.4,0.4,0.6,0.9,0.6,1.6c0,0.9-0.3,1.7-1,2.2s-1.6,0.8-2.7,0.8c-1,0-1.8-0.2-2.4-0.5L609.9,765.3L609.9,765.3z"/>
					</g>
				</g>
			</g>
		</g>
		<g>
			<g>
				<g>
					<g>
						<g>
							<path class="st11" d="M746.8,659.7l-0.2,0.9h-1l-0.3,1.4h1.1l-0.2,0.9h-1.1l-0.4,1.9h-1l0.4-1.9h-1.2l-0.4,1.9h-1l0.4-1.9h-1
								l0.2-0.9h1.1l0.3-1.4h-1.1l0.2-0.9h1.1l0.4-1.9h1l-0.4,1.9h1.2l0.4-1.9h1l-0.4,1.9H746.8z M744.5,660.6h-1.3L743,662h1.3
								L744.5,660.6z"/>
						</g>
					</g>
					<g class="st2">
						<path class="st11" d="M729.3,690c0.7-1.1,1.2-2.3,1.5-3.6h-1.4v-1.7h1.5v-2.3h1.7v2.3h1.5v1.7h-1.5v1.2c0.5,0.3,1.1,0.7,1.8,1
							l-0.8,1.4l-0.9-0.7v5.5H731v-4.5c-0.3,0.6-0.6,1.2-1,1.8C729.8,691.7,729.6,691,729.3,690z M740.7,689.9
							c0.4,0.2,0.8,0.3,1.2,0.5c-0.1,1.8-0.2,2.8-0.3,3.2s-0.2,0.6-0.4,0.8s-0.5,0.2-0.9,0.2h-1c-0.8,0-1.2-0.5-1.2-1.5v-8.3h-1.8
							v3.6c0,1.9-0.2,3.2-0.5,4.1s-0.8,1.7-1.6,2.5c-0.4-0.5-0.8-1-1.3-1.5c0.7-0.7,1.2-1.5,1.4-2.3s0.3-2.1,0.3-3.9V683h5.3v9.6
							c0,0.3,0.1,0.4,0.3,0.4c0.1,0,0.2,0,0.2-0.1s0.1-0.3,0.1-0.8C740.7,691.6,740.7,690.9,740.7,689.9z"/>
						<path class="st11" d="M741.7,703.2c-0.8,0.4-1.6,0.9-2.5,1.3c0.9,0.6,1.8,1,2.9,1.3c-0.3,0.3-0.6,0.9-1.1,1.7
							c-1.7-0.7-3.1-1.7-4.2-3.1v1.8c0,1.2-0.5,1.8-1.6,1.8c-0.7,0-1.3,0.1-1.9,0.1c-0.1-0.5-0.2-1.1-0.4-1.6c0.6,0,1,0.1,1.4,0.1
							c0.5,0,0.8-0.2,0.8-0.7V702h-1.9v0.3h-1.7V700c-0.4,0.3-0.9,0.6-1.3,0.8c-0.3-0.6-0.6-1.2-0.9-1.7c1.1-0.5,2.1-1.1,3-1.9h-2.7
							v-1.3h12.1v1.3h-7.2c-0.3,0.3-0.6,0.6-0.8,0.9h6.9v3.7h-3.8v0.2c0.4,0.6,0.8,1,1.2,1.5c1-0.5,2-1.1,2.8-1.7L741.7,703.2z
							 M729.8,703.9v-1.3h4.6v1.3c-0.8,1.6-2.2,2.9-4,3.7c-0.2-0.4-0.6-0.9-1.1-1.6c1.4-0.5,2.5-1.2,3.3-2.1L729.8,703.9
							L729.8,703.9z M738.8,700.5v-1.2h-5.7v1.2H738.8z"/>
						<path class="st11" d="M729.4,710.8h1.2v-2.3h1.5v2.3h0.9v1.6h-0.9v1.9l1-0.2c-0.1,0.6-0.1,1.2-0.1,1.7l-0.9,0.2v3.3
							c0,0.4-0.1,0.8-0.2,1s-0.3,0.4-0.6,0.4s-0.8,0.1-1.6,0.1c-0.1-0.5-0.2-1.1-0.3-1.7c0.2,0,0.5,0,0.9,0c0.2,0,0.3-0.2,0.3-0.5
							v-2.2l-1.2,0.3l-0.1-1.8c0.4-0.1,0.9-0.2,1.3-0.3v-2.3h-1.2L729.4,710.8L729.4,710.8z M733.8,715.4h7.3v1.5h-2.8v1.9h3.5v1.5
							h-8.7v-1.5h3.6V717h-2.8L733.8,715.4L733.8,715.4z M737.1,713.2l-2.9,2.1l-1-1.2c0.8-0.5,1.8-1.2,2.8-2L737.1,713.2z
							 M733.5,709.9h3.1l-0.3-1.1l1.8-0.3c0.1,0.5,0.3,1,0.4,1.4h3.2v2.6H740v-1h-4.9v1h-1.6V709.9z M737.9,713.2l1.1-1.1
							c0.8,0.6,1.7,1.2,2.8,2.1l-1.1,1.2C740.3,715.1,739.4,714.3,737.9,713.2z"/>
						<path class="st11" d="M731.4,733.2h-1.5v-5h2.6v-1h-3.1v-1.4h3.1v-1.1h-1.4c-0.1,0.4-0.2,0.7-0.3,1c-0.4-0.2-0.8-0.3-1.3-0.5
							c0.3-1,0.6-2.1,0.9-3.3l1.4,0.3l-0.2,1h1v-1.8h1.7v1.8h2.5v1.4h-2.5v1.1h2.9v1.4h-2.9v1h2.6v3.4c0,0.5-0.1,0.8-0.3,1.1
							s-0.5,0.4-0.9,0.4s-0.7,0-0.9,0c-0.1-0.5-0.2-1-0.4-1.6c0.2,0,0.4,0,0.6,0c0.3,0,0.4-0.1,0.4-0.4v-1.6h-1.1v4.3h-1.7v-4.3
							h-1.1L731.4,733.2L731.4,733.2z M737.5,722.4h1.5v8.5h-1.5V722.4z M739.7,721.5h1.6V732c0,0.6-0.1,1.1-0.4,1.4
							c-0.3,0.3-0.7,0.5-1.2,0.5s-1.1,0-1.8,0c-0.1-0.5-0.2-1.1-0.3-1.8c0.7,0,1.2,0.1,1.6,0.1c0.4,0,0.7-0.3,0.7-0.8v-9.9H739.7z"
							/>
						<path class="st11" d="M729.3,741.8c0.7-1.2,1.2-2.3,1.6-3.5h-1.4v-1.6h1.6v-2.2h1.7v2.2h1.3v1.6h-1.3v1
							c0.6,0.3,1.1,0.6,1.6,0.9v-5h7.3v1.6h-5.6v1.4h5.2v5.2h-5.2v1.4h5.8v1.6h-7.5v-6l-0.7,1.4c-0.3-0.3-0.6-0.5-0.9-0.8v5.9h-1.7
							v-5.5c-0.4,0.9-0.8,1.8-1.3,2.6C729.6,743.6,729.5,742.8,729.3,741.8z M739.5,741.9v-2.1h-3.4v2.1H739.5z"/>
					</g>
				</g>
				<g>
					<g class="st2">
						<path class="st11" d="M734.1,675.5H728v-1.6h2.1v-6.3l-2.1,0.5v-1.7l4.2-0.9v8.4h2v1.6H734.1z"/>
						<path class="st11" d="M735.3,670.8c0-1.7,0.3-3,0.9-3.9c0.6-0.9,1.5-1.3,2.7-1.3c2.3,0,3.4,1.7,3.4,5c0,1.6-0.3,2.9-0.9,3.8
							c-0.6,0.9-1.5,1.3-2.7,1.3C736.4,675.7,735.3,674.1,735.3,670.8z M737.4,670.7c0,2.3,0.5,3.4,1.5,3.4s1.4-1.2,1.4-3.5
							s-0.5-3.5-1.4-3.5C737.9,667.1,737.4,668.3,737.4,670.7z"/>
					</g>
				</g>
				<g>
					<g class="st2">
						<path class="st11" d="M725.6,764v3.4h-2.1v-9.8h3.4c2.4,0,3.7,1,3.7,3.1c0,1-0.4,1.8-1.1,2.4c-0.7,0.6-1.7,0.9-2.8,0.9
							L725.6,764L725.6,764z M725.6,759.2v3.2h0.9c1.2,0,1.8-0.5,1.8-1.6c0-1-0.6-1.6-1.8-1.6L725.6,759.2L725.6,759.2z"/>
						<path class="st11" d="M738.2,767.4h-6.1v-1.6h2.1v-6.3l-2.1,0.5v-1.7l4.2-0.9v8.4h2v1.6H738.2z"/>
						<path class="st11" d="M746.1,767.4h-6.4v-1.6l2.8-2.7c0.6-0.6,1-1,1.2-1.4s0.4-0.8,0.4-1.2c0-0.9-0.5-1.4-1.5-1.4
							c-0.8,0-1.7,0.3-2.4,1v-1.8c0.8-0.6,1.8-0.8,2.9-0.8c1,0,1.7,0.2,2.3,0.7s0.8,1.2,0.8,2c0,1.2-0.7,2.4-2.1,3.6l-2.1,1.8l0,0
							h4.1V767.4z"/>
					</g>
				</g>
			</g>
		</g>
		<g>
			<g>
				<g>
					<g>
						<g>
							<path class="st11" d="M876.8,659.7l-0.2,0.9h-1l-0.3,1.4h1.1l-0.2,0.9h-1.1l-0.4,1.9h-1l0.4-1.9h-1.2l-0.4,1.9h-1l0.4-1.9h-1
								l0.2-0.9h1.1l0.3-1.4h-1.1l0.2-0.9h1.1l0.4-1.9h1l-0.4,1.9h1.2l0.4-1.9h1l-0.4,1.9H876.8z M874.6,660.6h-1.3L873,662h1.3
								L874.6,660.6z"/>
						</g>
					</g>
					<g class="st2">
						<path class="st11" d="M862.6,669.8c0.7,0.4,1.4,0.6,2.1,0.6c0.6,0,1-0.1,1.4-0.4c0.3-0.3,0.5-0.7,0.5-1.2c0-1-0.7-1.5-2.1-1.5
							c-0.4,0-1,0-1.6,0.1V662h5.4v1.7h-3.6v2.1c0.2,0,0.5,0,0.8,0c1,0,1.8,0.3,2.4,0.8c0.6,0.5,0.9,1.2,0.9,2.2s-0.3,1.8-1,2.4
							c-0.7,0.6-1.6,0.9-2.7,0.9c-0.9,0-1.7-0.1-2.3-0.4v-1.9H862.6z"/>
					</g>
					<g class="st2">
						<path class="st11" d="M859.4,689.4c0.7-1.1,1.2-2.3,1.5-3.6h-1.4v-1.7h1.5v-2.3h1.7v2.3h1.5v1.7h-1.5v1.2
							c0.5,0.3,1.1,0.7,1.8,1l-0.8,1.4l-0.9-0.7v5.5h-1.7v-4.5c-0.3,0.6-0.6,1.2-1,1.8C859.8,691.1,859.6,690.4,859.4,689.4z
							 M870.8,689.3c0.4,0.2,0.8,0.3,1.2,0.5c-0.1,1.8-0.2,2.8-0.3,3.2s-0.2,0.6-0.4,0.8s-0.5,0.2-0.9,0.2h-1
							c-0.8,0-1.2-0.5-1.2-1.5v-8.3h-1.8v3.6c0,1.9-0.2,3.2-0.5,4.1c-0.3,0.8-0.8,1.7-1.6,2.5c-0.4-0.5-0.8-1-1.3-1.5
							c0.7-0.7,1.2-1.5,1.4-2.3s0.3-2.1,0.3-3.9v-4.3h5.3v9.6c0,0.3,0.1,0.4,0.3,0.4c0.1,0,0.2,0,0.2-0.1s0.1-0.3,0.1-0.8
							C870.7,691,870.8,690.3,870.8,689.3z"/>
						<path class="st11" d="M871.7,702.6c-0.8,0.4-1.6,0.9-2.5,1.3c0.9,0.6,1.8,1,2.9,1.3c-0.3,0.3-0.6,0.9-1.1,1.7
							c-1.7-0.7-3.1-1.7-4.2-3.1v1.8c0,1.2-0.5,1.8-1.6,1.8c-0.7,0-1.3,0.1-1.9,0.1c-0.1-0.5-0.2-1.1-0.4-1.6c0.6,0,1,0.1,1.4,0.1
							c0.5,0,0.8-0.2,0.8-0.7v-3.9h-1.9v0.3h-1.7v-2.1c-0.4,0.3-0.9,0.6-1.3,0.8c-0.3-0.6-0.6-1.2-0.9-1.7c1.1-0.5,2.1-1.1,3-1.9
							h-2.7v-1.3h12.1v1.3h-7.2c-0.3,0.3-0.5,0.6-0.8,0.9h6.9v3.7h-3.8v0.2c0.4,0.6,0.8,1,1.2,1.5c1-0.5,2-1.1,2.8-1.7L871.7,702.6z
							 M859.8,703.3V702h4.6v1.3c-0.8,1.6-2.2,2.9-4,3.7c-0.2-0.4-0.6-0.9-1.1-1.6c1.4-0.5,2.5-1.2,3.3-2.1L859.8,703.3L859.8,703.3
							z M868.9,699.9v-1.2h-5.7v1.2H868.9z"/>
						<path class="st11" d="M859.5,710.2h1.2V708h1.5v2.3h0.9v1.6h-0.9v1.9l1-0.2c-0.1,0.6-0.1,1.2-0.1,1.7l-0.9,0.2v3.3
							c0,0.4-0.1,0.8-0.2,1c-0.1,0.2-0.3,0.4-0.6,0.4s-0.8,0.1-1.6,0.1c-0.1-0.5-0.2-1.1-0.3-1.7c0.2,0,0.5,0,0.9,0
							c0.2,0,0.3-0.2,0.3-0.5v-2.2l-1.2,0.3l-0.1-1.8c0.4-0.1,0.9-0.2,1.3-0.3v-2.3h-1.2L859.5,710.2L859.5,710.2z M863.9,714.8h7.3
							v1.5h-2.8v1.9h3.5v1.5h-8.7v-1.5h3.6v-1.9H864L863.9,714.8L863.9,714.8z M867.2,712.6l-2.9,2.1l-1-1.2c0.8-0.5,1.8-1.2,2.8-2
							L867.2,712.6z M863.6,709.3h3.1l-0.3-1.1l1.8-0.3c0.1,0.5,0.3,1,0.4,1.4h3.2v2.6h-1.6v-1h-4.9v1h-1.6v-2.6L863.6,709.3
							L863.6,709.3z M867.9,712.6l1.1-1.1c0.8,0.6,1.7,1.2,2.8,2.1l-1.1,1.2C870.4,714.5,869.4,713.7,867.9,712.6z"/>
						<path class="st11" d="M861.5,732.6H860v-5h2.6v-1h-3.1v-1.4h3.1v-1.1h-1.4c-0.1,0.4-0.2,0.7-0.3,1c-0.4-0.2-0.8-0.3-1.3-0.5
							c0.3-1,0.6-2.1,0.9-3.3l1.4,0.3l-0.2,1h1v-1.8h1.7v1.8h2.5v1.4h-2.5v1.1h2.9v1.4h-2.9v1h2.6v3.4c0,0.5-0.1,0.8-0.3,1.1
							s-0.5,0.4-0.9,0.4s-0.7,0-0.9,0c-0.1-0.5-0.2-1-0.4-1.6c0.2,0,0.4,0,0.6,0c0.3,0,0.4-0.1,0.4-0.4v-1.6h-1.1v4.3h-1.7v-4.3
							h-1.1L861.5,732.6L861.5,732.6z M867.5,721.8h1.5v8.5h-1.5V721.8z M869.8,720.9h1.6v10.5c0,0.6-0.1,1.1-0.4,1.4
							c-0.3,0.3-0.7,0.5-1.2,0.5s-1.1,0-1.8,0c-0.1-0.5-0.2-1.1-0.3-1.8c0.7,0,1.2,0.1,1.6,0.1c0.4,0,0.7-0.3,0.7-0.8v-9.9H869.8z"
							/>
						<path class="st11" d="M859.4,741.2c0.7-1.2,1.2-2.3,1.6-3.5h-1.4v-1.6h1.6v-2.2h1.7v2.2h1.3v1.6h-1.3v1
							c0.6,0.3,1.1,0.6,1.6,0.9v-5h7.3v1.6h-5.6v1.4h5.2v5.2h-5.2v1.4h5.8v1.6h-7.5v-6l-0.7,1.4c-0.3-0.3-0.6-0.5-0.9-0.8v5.9h-1.7
							v-5.5c-0.4,0.9-0.8,1.8-1.3,2.6C859.7,743,859.6,742.2,859.4,741.2z M869.6,741.3v-2.1h-3.4v2.1H869.6z"/>
					</g>
				</g>
			</g>
		</g>
		<g>
			<g>
				<g>
					<g>
						<g>
							<path class="st11" d="M1006.9,659.7l-0.2,0.9h-1l-0.3,1.4h1.1l-0.2,0.9h-1.1l-0.4,1.9h-1l0.4-1.9h-1.2l-0.4,1.9h-1l0.4-1.9
								h-1l0.2-0.9h1.1l0.3-1.4h-1.1l0.2-0.9h1.1l0.4-1.9h1l-0.4,1.9h1.2l0.4-1.9h1l-0.4,1.9H1006.9z M1004.6,660.6h-1.3l-0.3,1.4
								h1.3L1004.6,660.6z"/>
						</g>
					</g>
					<g class="st2">
						<path class="st11" d="M998.5,663.9c-0.5-0.3-1-0.4-1.6-0.4c-0.8,0-1.4,0.3-1.8,0.9c-0.5,0.6-0.7,1.4-0.7,2.3l0,0
							c0.5-0.7,1.2-1.1,2.1-1.1c0.8,0,1.5,0.3,2,0.8c0.5,0.6,0.7,1.3,0.7,2.2c0,1-0.3,1.8-0.9,2.5s-1.4,1-2.4,1
							c-1.1,0-2-0.4-2.6-1.2s-0.9-1.9-0.9-3.3c0-1.7,0.4-3,1.2-4.1s1.9-1.6,3.2-1.6c0.7,0,1.3,0.1,1.8,0.3L998.5,663.9L998.5,663.9z
							 M994.4,668.6c0,0.5,0.1,0.9,0.4,1.3s0.6,0.5,1,0.5s0.7-0.2,1-0.5c0.2-0.3,0.4-0.7,0.4-1.2c0-1.1-0.5-1.7-1.4-1.7
							c-0.4,0-0.7,0.1-1,0.4S994.4,668.2,994.4,668.6z"/>
					</g>
					<g class="st2">
						<path class="st11" d="M989.4,689.4c0.7-1.1,1.2-2.3,1.5-3.6h-1.4v-1.7h1.5v-2.3h1.7v2.3h1.5v1.7h-1.5v1.2
							c0.5,0.3,1.1,0.7,1.8,1l-0.8,1.4l-0.9-0.7v5.5H991v-4.5c-0.3,0.6-0.6,1.2-1,1.8C989.9,691.1,989.7,690.4,989.4,689.4z
							 M1000.8,689.3c0.4,0.2,0.8,0.3,1.2,0.5c-0.1,1.8-0.2,2.8-0.3,3.2s-0.2,0.6-0.4,0.8s-0.5,0.2-0.9,0.2h-1
							c-0.8,0-1.2-0.5-1.2-1.5v-8.3h-1.8v3.6c0,1.9-0.2,3.2-0.5,4.1c-0.3,0.8-0.8,1.7-1.6,2.5c-0.4-0.5-0.8-1-1.3-1.5
							c0.7-0.7,1.2-1.5,1.4-2.3s0.3-2.1,0.3-3.9v-4.3h5.3v9.6c0,0.3,0.1,0.4,0.3,0.4c0.1,0,0.2,0,0.2-0.1s0.1-0.3,0.1-0.8
							C1000.8,691,1000.8,690.3,1000.8,689.3z"/>
						<path class="st11" d="M1001.8,702.6c-0.8,0.4-1.6,0.9-2.5,1.3c0.9,0.6,1.8,1,2.9,1.3c-0.3,0.3-0.6,0.9-1.1,1.7
							c-1.7-0.7-3.1-1.7-4.2-3.1v1.8c0,1.2-0.5,1.8-1.6,1.8c-0.7,0-1.3,0.1-1.9,0.1c-0.1-0.5-0.2-1.1-0.4-1.6c0.6,0,1,0.1,1.4,0.1
							c0.5,0,0.8-0.2,0.8-0.7v-3.9h-1.9v0.3h-1.7v-2.1c-0.4,0.3-0.9,0.6-1.3,0.8c-0.3-0.6-0.6-1.2-0.9-1.7c1.1-0.5,2.1-1.1,3-1.9
							h-2.7v-1.3h12.1v1.3h-7.2c-0.3,0.3-0.5,0.6-0.8,0.9h6.9v3.7h-3.8v0.2c0.4,0.6,0.8,1,1.2,1.5c1-0.5,2-1.1,2.8-1.7L1001.8,702.6
							z M989.9,703.3V702h4.6v1.3c-0.8,1.6-2.2,2.9-4,3.7c-0.2-0.4-0.6-0.9-1.1-1.6c1.4-0.5,2.5-1.2,3.3-2.1L989.9,703.3
							L989.9,703.3z M998.9,699.9v-1.2h-5.7v1.2H998.9z"/>
						<path class="st11" d="M989.5,710.2h1.2V708h1.5v2.3h0.9v1.6h-0.9v1.9l1-0.2c-0.1,0.6-0.1,1.2-0.1,1.7l-0.9,0.2v3.3
							c0,0.4-0.1,0.8-0.2,1c-0.1,0.2-0.3,0.4-0.6,0.4s-0.8,0.1-1.6,0.1c-0.1-0.5-0.2-1.1-0.3-1.7c0.2,0,0.5,0,0.9,0
							c0.2,0,0.3-0.2,0.3-0.5v-2.2l-1.2,0.3l-0.1-1.8c0.4-0.1,0.9-0.2,1.3-0.3v-2.3h-1.2L989.5,710.2L989.5,710.2z M993.9,714.8h7.3
							v1.5h-2.8v1.9h3.5v1.5h-8.7v-1.5h3.6v-1.9H994L993.9,714.8L993.9,714.8z M997.2,712.6l-2.9,2.1l-1-1.2c0.8-0.5,1.8-1.2,2.8-2
							L997.2,712.6z M993.6,709.3h3.1l-0.3-1.1l1.8-0.3c0.1,0.5,0.3,1,0.4,1.4h3.2v2.6h-1.6v-1h-4.9v1h-1.6v-2.6L993.6,709.3
							L993.6,709.3z M998,712.6l1.1-1.1c0.8,0.6,1.7,1.2,2.8,2.1l-1.1,1.2C1000.4,714.5,999.5,713.7,998,712.6z"/>
						<path class="st11" d="M991.5,732.6H990v-5h2.6v-1h-3.1v-1.4h3.1v-1.1h-1.4c-0.1,0.4-0.2,0.7-0.3,1c-0.4-0.2-0.8-0.3-1.3-0.5
							c0.3-1,0.6-2.1,0.9-3.3l1.4,0.3l-0.2,1h1v-1.8h1.7v1.8h2.5v1.4h-2.5v1.1h2.9v1.4h-2.9v1h2.6v3.4c0,0.5-0.1,0.8-0.3,1.1
							s-0.5,0.4-0.9,0.4s-0.7,0-0.9,0c-0.1-0.5-0.2-1-0.4-1.6c0.2,0,0.4,0,0.6,0c0.3,0,0.4-0.1,0.4-0.4v-1.6h-1.1v4.3h-1.7v-4.3
							h-1.1L991.5,732.6L991.5,732.6z M997.6,721.8h1.5v8.5h-1.5V721.8z M999.8,720.9h1.6v10.5c0,0.6-0.1,1.1-0.4,1.4
							c-0.3,0.3-0.7,0.5-1.2,0.5s-1.1,0-1.8,0c-0.1-0.5-0.2-1.1-0.3-1.8c0.7,0,1.2,0.1,1.6,0.1c0.4,0,0.7-0.3,0.7-0.8v-9.9H999.8z"
							/>
						<path class="st11" d="M989.4,741.2c0.7-1.2,1.2-2.3,1.6-3.5h-1.4v-1.6h1.6v-2.2h1.7v2.2h1.3v1.6h-1.3v1
							c0.6,0.3,1.1,0.6,1.6,0.9v-5h7.3v1.6h-5.6v1.4h5.2v5.2h-5.2v1.4h5.8v1.6h-7.5v-6l-0.7,1.4c-0.3-0.3-0.6-0.5-0.9-0.8v5.9h-1.7
							v-5.5c-0.4,0.9-0.8,1.8-1.3,2.6C989.7,743,989.6,742.2,989.4,741.2z M999.6,741.3v-2.1h-3.4v2.1H999.6z"/>
					</g>
				</g>
				<g>
					<g class="st2">
						<path class="st11" d="M990.4,763.2v3.4h-2.1v-9.8h3.4c2.4,0,3.7,1,3.7,3.1c0,1-0.4,1.8-1.1,2.4c-0.7,0.6-1.7,0.9-2.8,0.9
							L990.4,763.2L990.4,763.2z M990.4,758.4v3.2h0.9c1.2,0,1.8-0.5,1.8-1.6c0-1-0.6-1.6-1.8-1.6L990.4,758.4L990.4,758.4z"/>
						<path class="st11" d="M996.8,764.6c0.7,0.4,1.4,0.6,2.1,0.6c0.6,0,1-0.1,1.4-0.4s0.5-0.7,0.5-1.2c0-1-0.7-1.5-2.1-1.5
							c-0.4,0-1,0-1.6,0.1v-5.4h5.4v1.7h-3.6v2.1c0.2,0,0.5,0,0.8,0c1,0,1.8,0.3,2.4,0.8s0.9,1.2,0.9,2.2s-0.3,1.8-1,2.4
							c-0.7,0.6-1.6,0.9-2.7,0.9c-0.9,0-1.7-0.1-2.3-0.4v-1.9L996.8,764.6L996.8,764.6z"/>
					</g>
				</g>
			</g>
		</g>
		<g>
			<g>
				<g>
					<g>
						<g>
							<path class="st11" d="M1136.9,659.7l-0.2,0.9h-1l-0.3,1.4h1.1l-0.2,0.9h-1.1l-0.4,1.9h-1l0.4-1.9h-1.2l-0.4,1.9h-1l0.4-1.9
								h-1l0.2-0.9h1.1l0.3-1.4h-1.1l0.2-0.9h1.1l0.4-1.9h1l-0.4,1.9h1.2l0.4-1.9h1l-0.4,1.9H1136.9z M1134.7,660.6h-1.3l-0.3,1.4
								h1.3L1134.7,660.6z"/>
						</g>
					</g>
					<g class="st2">
						<path class="st11" d="M1122.9,669.8c0.5,0.3,1.1,0.5,1.9,0.5c1.6,0,2.4-1,2.4-3.1l0,0c-0.4,0.7-1.1,1-2,1
							c-0.8,0-1.5-0.3-2-0.9c-0.5-0.6-0.8-1.3-0.8-2.2c0-1,0.3-1.9,1-2.5c0.6-0.6,1.5-1,2.5-1c1.1,0,1.9,0.4,2.5,1.2
							s0.9,1.9,0.9,3.4c0,1.7-0.4,3.1-1.1,4.1s-1.8,1.5-3.2,1.5c-0.8,0-1.5-0.1-2-0.4v-1.6H1122.9z M1124.4,665
							c0,0.5,0.1,0.9,0.4,1.2s0.6,0.4,1,0.4s0.7-0.1,1-0.4c0.3-0.3,0.4-0.6,0.4-1.1s-0.1-0.9-0.4-1.3c-0.3-0.4-0.6-0.6-1-0.6
							s-0.7,0.2-1,0.5C1124.5,664.1,1124.4,664.5,1124.4,665z"/>
					</g>
					<g class="st2">
						<path class="st11" d="M1119.5,689.4c0.7-1.1,1.2-2.3,1.5-3.6h-1.4v-1.7h1.5v-2.3h1.7v2.3h1.5v1.7h-1.5v1.2
							c0.5,0.3,1.1,0.7,1.8,1l-0.8,1.4l-0.9-0.7v5.5h-1.7v-4.5c-0.3,0.6-0.6,1.2-1,1.8C1119.9,691.1,1119.7,690.4,1119.5,689.4z
							 M1130.9,689.3c0.4,0.2,0.8,0.3,1.2,0.5c-0.1,1.8-0.2,2.8-0.3,3.2c-0.1,0.4-0.2,0.6-0.4,0.8c-0.2,0.2-0.5,0.2-0.9,0.2h-1
							c-0.8,0-1.2-0.5-1.2-1.5v-8.3h-1.8v3.6c0,1.9-0.2,3.2-0.5,4.1c-0.3,0.8-0.8,1.7-1.6,2.5c-0.4-0.5-0.8-1-1.3-1.5
							c0.7-0.7,1.2-1.5,1.4-2.3c0.2-0.8,0.3-2.1,0.3-3.9v-4.3h5.3v9.6c0,0.3,0.1,0.4,0.3,0.4c0.1,0,0.2,0,0.2-0.1s0.1-0.3,0.1-0.8
							C1130.8,691,1130.9,690.3,1130.9,689.3z"/>
						<path class="st11" d="M1131.8,702.6c-0.8,0.4-1.6,0.9-2.5,1.3c0.9,0.6,1.8,1,2.9,1.3c-0.3,0.3-0.6,0.9-1.1,1.7
							c-1.7-0.7-3.1-1.7-4.2-3.1v1.8c0,1.2-0.5,1.8-1.6,1.8c-0.7,0-1.3,0.1-1.9,0.1c-0.1-0.5-0.2-1.1-0.4-1.6c0.6,0,1,0.1,1.4,0.1
							c0.5,0,0.8-0.2,0.8-0.7v-3.9h-1.9v0.3h-1.7v-2.1c-0.4,0.3-0.9,0.6-1.3,0.8c-0.3-0.6-0.6-1.2-0.9-1.7c1.1-0.5,2.1-1.1,3-1.9
							h-2.7v-1.3h12.1v1.3h-7.2c-0.3,0.3-0.6,0.6-0.8,0.9h6.9v3.7h-3.8v0.2c0.4,0.6,0.8,1,1.2,1.5c1-0.5,2-1.1,2.8-1.7L1131.8,702.6
							z M1119.9,703.3V702h4.6v1.3c-0.8,1.6-2.2,2.9-4,3.7c-0.2-0.4-0.6-0.9-1.1-1.6c1.4-0.5,2.5-1.2,3.3-2.1L1119.9,703.3
							L1119.9,703.3z M1129,699.9v-1.2h-5.7v1.2H1129z"/>
						<path class="st11" d="M1119.6,710.2h1.2V708h1.5v2.3h0.9v1.6h-0.9v1.9l1-0.2c-0.1,0.6-0.1,1.2-0.1,1.7l-0.9,0.2v3.3
							c0,0.4-0.1,0.8-0.2,1s-0.3,0.4-0.6,0.4c-0.3,0-0.8,0.1-1.6,0.1c-0.1-0.5-0.2-1.1-0.3-1.7c0.2,0,0.5,0,0.9,0
							c0.2,0,0.3-0.2,0.3-0.5v-2.2l-1.2,0.3l-0.1-1.8c0.4-0.1,0.9-0.2,1.3-0.3v-2.3h-1.2L1119.6,710.2L1119.6,710.2z M1124,714.8
							h7.3v1.5h-2.8v1.9h3.5v1.5h-8.7v-1.5h3.6v-1.9h-2.8L1124,714.8L1124,714.8z M1127.3,712.6l-2.9,2.1l-1-1.2
							c0.8-0.5,1.8-1.2,2.8-2L1127.3,712.6z M1123.7,709.3h3.1l-0.3-1.1l1.8-0.3c0.1,0.5,0.3,1,0.4,1.4h3.2v2.6h-1.6v-1h-4.9v1h-1.6
							L1123.7,709.3L1123.7,709.3z M1128,712.6l1.1-1.1c0.8,0.6,1.7,1.2,2.8,2.1l-1.1,1.2C1130.5,714.5,1129.5,713.7,1128,712.6z"/>
						<path class="st11" d="M1121.6,732.6h-1.5v-5h2.6v-1h-3.1v-1.4h3.1v-1.1h-1.4c-0.1,0.4-0.2,0.7-0.3,1c-0.4-0.2-0.8-0.3-1.3-0.5
							c0.3-1,0.6-2.1,0.9-3.3l1.4,0.3l-0.2,1h1v-1.8h1.7v1.8h2.5v1.4h-2.5v1.1h2.9v1.4h-2.9v1h2.6v3.4c0,0.5-0.1,0.8-0.3,1.1
							c-0.2,0.3-0.5,0.4-0.9,0.4s-0.7,0-0.9,0c-0.1-0.5-0.2-1-0.4-1.6c0.2,0,0.4,0,0.6,0c0.3,0,0.4-0.1,0.4-0.4v-1.6h-1.1v4.3h-1.7
							v-4.3h-1.1L1121.6,732.6L1121.6,732.6z M1127.6,721.8h1.5v8.5h-1.5V721.8z M1129.9,720.9h1.6v10.5c0,0.6-0.1,1.1-0.4,1.4
							c-0.3,0.3-0.7,0.5-1.2,0.5s-1.1,0-1.8,0c-0.1-0.5-0.2-1.1-0.3-1.8c0.7,0,1.2,0.1,1.6,0.1s0.7-0.3,0.7-0.8v-9.9H1129.9z"/>
						<path class="st11" d="M1119.5,741.2c0.7-1.2,1.2-2.3,1.6-3.5h-1.4v-1.6h1.6v-2.2h1.7v2.2h1.3v1.6h-1.3v1
							c0.6,0.3,1.1,0.6,1.6,0.9v-5h7.3v1.6h-5.6v1.4h5.2v5.2h-5.2v1.4h5.8v1.6h-7.5v-6l-0.7,1.4c-0.3-0.3-0.6-0.5-0.9-0.8v5.9h-1.7
							v-5.5c-0.4,0.9-0.8,1.8-1.3,2.6C1119.8,743,1119.7,742.2,1119.5,741.2z M1129.7,741.3v-2.1h-3.4v2.1H1129.7z"/>
					</g>
				</g>
				<g>
					<g class="st2">
						<path class="st11" d="M1120.3,763.2v3.4h-2.1v-9.8h3.4c2.4,0,3.7,1,3.7,3.1c0,1-0.4,1.8-1.1,2.4c-0.7,0.6-1.7,0.9-2.8,0.9
							L1120.3,763.2L1120.3,763.2z M1120.3,758.4v3.2h0.9c1.2,0,1.8-0.5,1.8-1.6c0-1-0.6-1.6-1.8-1.6L1120.3,758.4L1120.3,758.4z"/>
						<path class="st11" d="M1133.2,764.5h-1.2v2.1h-1.9v-2.1h-4.3v-1.3l4.2-6.4h2v6.2h1.2L1133.2,764.5L1133.2,764.5z M1130.2,763
							v-3.2c0-0.3,0-0.6,0-0.9l0,0c0,0.1-0.1,0.2-0.1,0.3c-0.1,0.1-0.1,0.3-0.2,0.5l-2.2,3.4L1130.2,763L1130.2,763z"/>
					</g>
				</g>
			</g>
		</g>
		<g>
			<g>
				<g>
					<g>
						<g>
							<path class="st11" d="M1267,659.7l-0.2,0.9h-1l-0.3,1.4h1.1l-0.2,0.9h-1.1l-0.4,1.9h-1l0.4-1.9h-1.2l-0.4,1.9h-1l0.4-1.9h-1
								l0.2-0.9h1.1l0.3-1.4h-1.1l0.2-0.9h1.1l0.4-1.9h1l-0.4,1.9h1.2l0.4-1.9h1l-0.4,1.9H1267z M1264.7,660.6h-1.3l-0.3,1.4h1.3
								L1264.7,660.6z"/>
						</g>
					</g>
					<g class="st2">
						<path class="st11" d="M1259.2,662.9l-3.5,8.9h-2.2l3.5-8.1h-4.6V662h6.8L1259.2,662.9L1259.2,662.9z"/>
					</g>
					<g class="st2">
						<path class="st11" d="M1249.5,689.4c0.7-1.1,1.2-2.3,1.5-3.6h-1.4v-1.7h1.5v-2.3h1.7v2.3h1.5v1.7h-1.5v1.2
							c0.5,0.3,1.1,0.7,1.8,1l-0.8,1.4l-0.9-0.7v5.5h-1.7v-4.5c-0.3,0.6-0.6,1.2-1,1.8C1250,691.1,1249.8,690.4,1249.5,689.4z
							 M1260.9,689.3c0.4,0.2,0.8,0.3,1.2,0.5c-0.1,1.8-0.2,2.8-0.3,3.2c-0.1,0.4-0.2,0.6-0.4,0.8c-0.2,0.2-0.5,0.2-0.9,0.2h-1
							c-0.8,0-1.2-0.5-1.2-1.5v-8.3h-1.8v3.6c0,1.9-0.2,3.2-0.5,4.1c-0.3,0.8-0.8,1.7-1.6,2.5c-0.4-0.5-0.8-1-1.3-1.5
							c0.7-0.7,1.2-1.5,1.4-2.3c0.2-0.8,0.3-2.1,0.3-3.9v-4.3h5.3v9.6c0,0.3,0.1,0.4,0.3,0.4c0.1,0,0.2,0,0.2-0.1s0.1-0.3,0.1-0.8
							C1260.9,691,1260.9,690.3,1260.9,689.3z"/>
						<path class="st11" d="M1261.9,702.6c-0.8,0.4-1.6,0.9-2.5,1.3c0.9,0.6,1.8,1,2.9,1.3c-0.3,0.3-0.6,0.9-1.1,1.7
							c-1.7-0.7-3.1-1.7-4.2-3.1v1.8c0,1.2-0.5,1.8-1.6,1.8c-0.7,0-1.3,0.1-1.9,0.1c-0.1-0.5-0.2-1.1-0.4-1.6c0.6,0,1,0.1,1.4,0.1
							c0.5,0,0.8-0.2,0.8-0.7v-3.9h-1.9v0.3h-1.7v-2.1c-0.4,0.3-0.9,0.6-1.3,0.8c-0.3-0.6-0.6-1.2-0.9-1.7c1.1-0.5,2.1-1.1,3-1.9
							h-2.7v-1.3h12.1v1.3h-7.2c-0.3,0.3-0.6,0.6-0.8,0.9h6.9v3.7h-3.8v0.2c0.4,0.6,0.8,1,1.2,1.5c1-0.5,2-1.1,2.8-1.7L1261.9,702.6
							z M1250,703.3V702h4.6v1.3c-0.8,1.6-2.2,2.9-4,3.7c-0.2-0.4-0.6-0.9-1.1-1.6c1.4-0.5,2.5-1.2,3.3-2.1L1250,703.3L1250,703.3z
							 M1259,699.9v-1.2h-5.7v1.2H1259z"/>
						<path class="st11" d="M1249.6,710.2h1.2V708h1.5v2.3h0.9v1.6h-0.9v1.9l1-0.2c-0.1,0.6-0.1,1.2-0.1,1.7l-0.9,0.2v3.3
							c0,0.4-0.1,0.8-0.2,1s-0.3,0.4-0.6,0.4c-0.3,0-0.8,0.1-1.6,0.1c-0.1-0.5-0.2-1.1-0.3-1.7c0.2,0,0.5,0,0.9,0
							c0.2,0,0.3-0.2,0.3-0.5v-2.2l-1.2,0.3l-0.1-1.8c0.4-0.1,0.9-0.2,1.3-0.3v-2.3h-1.2L1249.6,710.2L1249.6,710.2z M1254,714.8
							h7.3v1.5h-2.8v1.9h3.5v1.5h-8.7v-1.5h3.6v-1.9h-2.8L1254,714.8L1254,714.8z M1257.3,712.6l-2.9,2.1l-1-1.2
							c0.8-0.5,1.8-1.2,2.8-2L1257.3,712.6z M1253.7,709.3h3.1l-0.3-1.1l1.8-0.3c0.1,0.5,0.3,1,0.4,1.4h3.2v2.6h-1.6v-1h-4.9v1h-1.6
							L1253.7,709.3L1253.7,709.3z M1258.1,712.6l1.1-1.1c0.8,0.6,1.7,1.2,2.8,2.1l-1.1,1.2C1260.5,714.5,1259.6,713.7,1258.1,712.6
							z"/>
						<path class="st11" d="M1251.6,732.6h-1.5v-5h2.6v-1h-3.1v-1.4h3.1v-1.1h-1.4c-0.1,0.4-0.2,0.7-0.3,1c-0.4-0.2-0.8-0.3-1.3-0.5
							c0.3-1,0.6-2.1,0.9-3.3l1.4,0.3l-0.2,1h1v-1.8h1.7v1.8h2.5v1.4h-2.5v1.1h2.9v1.4h-2.9v1h2.6v3.4c0,0.5-0.1,0.8-0.3,1.1
							c-0.2,0.3-0.5,0.4-0.9,0.4s-0.7,0-0.9,0c-0.1-0.5-0.2-1-0.4-1.6c0.2,0,0.4,0,0.6,0c0.3,0,0.4-0.1,0.4-0.4v-1.6h-1.1v4.3h-1.7
							v-4.3h-1.1L1251.6,732.6L1251.6,732.6z M1257.7,721.8h1.5v8.5h-1.5V721.8z M1259.9,720.9h1.6v10.5c0,0.6-0.1,1.1-0.4,1.4
							c-0.3,0.3-0.7,0.5-1.2,0.5s-1.1,0-1.8,0c-0.1-0.5-0.2-1.1-0.3-1.8c0.7,0,1.2,0.1,1.6,0.1s0.7-0.3,0.7-0.8v-9.9H1259.9z"/>
						<path class="st11" d="M1249.5,741.2c0.7-1.2,1.2-2.3,1.6-3.5h-1.4v-1.6h1.6v-2.2h1.7v2.2h1.3v1.6h-1.3v1
							c0.6,0.3,1.1,0.6,1.6,0.9v-5h7.3v1.6h-5.6v1.4h5.2v5.2h-5.2v1.4h5.8v1.6h-7.5v-6l-0.7,1.4c-0.3-0.3-0.6-0.5-0.9-0.8v5.9h-1.7
							v-5.5c-0.4,0.9-0.8,1.8-1.3,2.6C1249.8,743,1249.7,742.2,1249.5,741.2z M1259.7,741.3v-2.1h-3.4v2.1H1259.7z"/>
					</g>
				</g>
				<g>
					<g class="st2">
						<path class="st11" d="M1250.3,764v3.4h-2.1v-9.8h3.4c2.4,0,3.7,1,3.7,3.1c0,1-0.4,1.8-1.1,2.4s-1.7,0.9-2.8,0.9L1250.3,764
							L1250.3,764z M1250.3,759.2v3.2h0.9c1.2,0,1.8-0.5,1.8-1.6c0-1-0.6-1.6-1.8-1.6L1250.3,759.2L1250.3,759.2z"/>
						<path class="st11" d="M1256.6,765.3c0.7,0.5,1.4,0.7,2.3,0.7c0.6,0,1-0.1,1.3-0.4c0.3-0.2,0.5-0.6,0.5-1
							c0-0.5-0.2-0.8-0.6-1.1c-0.4-0.2-0.9-0.4-1.6-0.4h-0.9v-1.6h0.8c1.3,0,2-0.4,2-1.3c0-0.8-0.5-1.3-1.5-1.3
							c-0.7,0-1.3,0.2-1.9,0.6V758c0.7-0.4,1.5-0.5,2.4-0.5s1.7,0.2,2.3,0.6s0.9,1,0.9,1.8c0,1.3-0.7,2.1-2,2.4l0,0
							c0.7,0.1,1.2,0.3,1.6,0.8c0.4,0.4,0.6,0.9,0.6,1.6c0,0.9-0.3,1.7-1,2.2s-1.6,0.8-2.7,0.8c-1,0-1.8-0.2-2.4-0.5v-1.9
							L1256.6,765.3L1256.6,765.3z"/>
					</g>
				</g>
			</g>
		</g>
		<g>
			<g>
				<g>
					<g>
						<g>
							<path class="st11" d="M1394.3,659.7l-0.2,0.9h-1l-0.3,1.4h1.1l-0.2,0.9h-1.1l-0.4,1.9h-1l0.4-1.9h-1.2l-0.4,1.9h-1l0.4-1.9
								h-1l0.2-0.9h1.1l0.3-1.4h-1.1l0.2-0.9h1.1l0.4-1.9h1l-0.4,1.9h1.2l0.4-1.9h1l-0.4,1.9H1394.3z M1392,660.6h-1.3l-0.3,1.4h1.3
								L1392,660.6z"/>
						</g>
					</g>
					<g class="st2">
						<path class="st11" d="M1381.7,666.6c-1.1-0.5-1.7-1.2-1.7-2.3c0-0.8,0.3-1.4,0.9-1.9s1.4-0.7,2.3-0.7s1.7,0.2,2.3,0.7
							c0.6,0.4,0.9,1,0.9,1.8c0,1.1-0.6,1.9-1.9,2.4l0,0c0.7,0.2,1.2,0.5,1.6,1c0.4,0.4,0.6,1,0.6,1.5c0,0.9-0.3,1.6-1,2.1
							s-1.5,0.7-2.6,0.7c-1,0-1.7-0.2-2.4-0.7c-0.6-0.5-0.9-1.1-0.9-2C1379.7,668.1,1380.4,667.2,1381.7,666.6L1381.7,666.6z
							 M1383.1,667.4c-1,0.4-1.4,0.9-1.4,1.7c0,0.4,0.1,0.7,0.4,0.9s0.7,0.4,1.1,0.4s0.8-0.1,1.1-0.3s0.4-0.5,0.4-0.9
							C1384.7,668.4,1384.1,667.8,1383.1,667.4z M1384.4,664.4c0-0.4-0.1-0.6-0.3-0.8c-0.2-0.2-0.5-0.3-0.9-0.3
							c-0.3,0-0.6,0.1-0.9,0.3c-0.2,0.2-0.4,0.5-0.4,0.8c0,0.6,0.4,1.1,1.2,1.5C1384,665.5,1384.4,665,1384.4,664.4z"/>
					</g>
					<g class="st2">
						<path class="st11" d="M1376.8,689.4c0.7-1.1,1.2-2.3,1.5-3.6h-1.4v-1.7h1.5v-2.3h1.7v2.3h1.5v1.7h-1.5v1.2
							c0.5,0.3,1.1,0.7,1.8,1l-0.8,1.4l-0.9-0.7v5.5h-1.7v-4.5c-0.3,0.6-0.6,1.2-1,1.8C1377.3,691.1,1377.1,690.4,1376.8,689.4z
							 M1388.2,689.3c0.4,0.2,0.8,0.3,1.2,0.5c-0.1,1.8-0.2,2.8-0.3,3.2c-0.1,0.4-0.2,0.6-0.4,0.8c-0.2,0.2-0.5,0.2-0.9,0.2h-1
							c-0.8,0-1.2-0.5-1.2-1.5v-8.3h-1.8v3.6c0,1.9-0.2,3.2-0.5,4.1c-0.3,0.8-0.8,1.7-1.6,2.5c-0.4-0.5-0.8-1-1.3-1.5
							c0.7-0.7,1.2-1.5,1.4-2.3c0.2-0.8,0.3-2.1,0.3-3.9v-4.3h5.3v9.6c0,0.3,0.1,0.4,0.3,0.4c0.1,0,0.2,0,0.2-0.1s0.1-0.3,0.1-0.8
							C1388.2,691,1388.2,690.3,1388.2,689.3z"/>
						<path class="st11" d="M1389.2,702.6c-0.8,0.4-1.6,0.9-2.5,1.3c0.9,0.6,1.8,1,2.9,1.3c-0.3,0.3-0.6,0.9-1.1,1.7
							c-1.7-0.7-3.1-1.7-4.2-3.1v1.8c0,1.2-0.5,1.8-1.6,1.8c-0.7,0-1.3,0.1-1.9,0.1c-0.1-0.5-0.2-1.1-0.4-1.6c0.6,0,1,0.1,1.4,0.1
							c0.5,0,0.8-0.2,0.8-0.7v-3.9h-1.9v0.3h-1.7v-2.1c-0.4,0.3-0.9,0.6-1.3,0.8c-0.3-0.6-0.6-1.2-0.9-1.7c1.1-0.5,2.1-1.1,3-1.9
							h-2.7v-1.3h12.1v1.3h-7.2c-0.3,0.3-0.6,0.6-0.8,0.9h6.9v3.7h-3.8v0.2c0.4,0.6,0.8,1,1.2,1.5c1-0.5,2-1.1,2.8-1.7L1389.2,702.6
							z M1377.3,703.3V702h4.6v1.3c-0.8,1.6-2.2,2.9-4,3.7c-0.2-0.4-0.6-0.9-1.1-1.6c1.4-0.5,2.5-1.2,3.3-2.1L1377.3,703.3
							L1377.3,703.3z M1386.3,699.9v-1.2h-5.7v1.2H1386.3z"/>
						<path class="st11" d="M1376.9,710.2h1.2V708h1.5v2.3h0.9v1.6h-0.9v1.9l1-0.2c-0.1,0.6-0.1,1.2-0.1,1.7l-0.9,0.2v3.3
							c0,0.4-0.1,0.8-0.2,1s-0.3,0.4-0.6,0.4c-0.3,0-0.8,0.1-1.6,0.1c-0.1-0.5-0.2-1.1-0.3-1.7c0.2,0,0.5,0,0.9,0
							c0.2,0,0.3-0.2,0.3-0.5v-2.2l-1.2,0.3l-0.1-1.8c0.4-0.1,0.9-0.2,1.3-0.3v-2.3h-1.2L1376.9,710.2L1376.9,710.2z M1381.3,714.8
							h7.3v1.5h-2.8v1.9h3.5v1.5h-8.7v-1.5h3.6v-1.9h-2.8L1381.3,714.8L1381.3,714.8z M1384.6,712.6l-2.9,2.1l-1-1.2
							c0.8-0.5,1.8-1.2,2.8-2L1384.6,712.6z M1381,709.3h3.1l-0.3-1.1l1.8-0.3c0.1,0.5,0.3,1,0.4,1.4h3.2v2.6h-1.6v-1h-4.9v1h-1.6
							L1381,709.3L1381,709.3z M1385.4,712.6l1.1-1.1c0.8,0.6,1.7,1.2,2.8,2.1l-1.1,1.2C1387.8,714.5,1386.9,713.7,1385.4,712.6z"/>
						<path class="st11" d="M1378.9,732.6h-1.5v-5h2.6v-1h-3.1v-1.4h3.1v-1.1h-1.4c-0.1,0.4-0.2,0.7-0.3,1c-0.4-0.2-0.8-0.3-1.3-0.5
							c0.3-1,0.6-2.1,0.9-3.3l1.4,0.3l-0.2,1h1v-1.8h1.7v1.8h2.5v1.4h-2.5v1.1h2.9v1.4h-2.9v1h2.6v3.4c0,0.5-0.1,0.8-0.3,1.1
							c-0.2,0.3-0.5,0.4-0.9,0.4s-0.7,0-0.9,0c-0.1-0.5-0.2-1-0.4-1.6c0.2,0,0.4,0,0.6,0c0.3,0,0.4-0.1,0.4-0.4v-1.6h-1.1v4.3h-1.7
							v-4.3h-1.1L1378.9,732.6L1378.9,732.6z M1385,721.8h1.5v8.5h-1.5V721.8z M1387.3,720.9h1.6v10.5c0,0.6-0.1,1.1-0.4,1.4
							c-0.3,0.3-0.7,0.5-1.2,0.5s-1.1,0-1.8,0c-0.1-0.5-0.2-1.1-0.3-1.8c0.7,0,1.2,0.1,1.6,0.1s0.7-0.3,0.7-0.8v-9.9H1387.3z"/>
						<path class="st11" d="M1376.8,741.2c0.7-1.2,1.2-2.3,1.6-3.5h-1.4v-1.6h1.6v-2.2h1.7v2.2h1.3v1.6h-1.3v1
							c0.6,0.3,1.1,0.6,1.6,0.9v-5h7.3v1.6h-5.6v1.4h5.2v5.2h-5.2v1.4h5.8v1.6h-7.5v-6l-0.7,1.4c-0.3-0.3-0.6-0.5-0.9-0.8v5.9h-1.7
							v-5.5c-0.4,0.9-0.8,1.8-1.3,2.6C1377.2,743,1377,742.2,1376.8,741.2z M1387,741.3v-2.1h-3.4v2.1H1387z"/>
					</g>
				</g>
			</g>
		</g>
		<g>
			<g class="st2">
				<path class="st11" d="M860.2,763.2v3.4h-2.1v-9.8h3.4c2.4,0,3.7,1,3.7,3.1c0,1-0.4,1.8-1.1,2.4s-1.7,0.9-2.8,0.9L860.2,763.2
					L860.2,763.2z M860.2,758.4v3.2h0.9c1.2,0,1.8-0.5,1.8-1.6c0-1-0.6-1.6-1.8-1.6L860.2,758.4L860.2,758.4z"/>
				<path class="st11" d="M872.3,758.6c-0.5-0.3-1-0.4-1.6-0.4c-0.8,0-1.4,0.3-1.8,0.9s-0.7,1.4-0.7,2.3l0,0
					c0.5-0.7,1.2-1.1,2.1-1.1c0.8,0,1.5,0.3,2,0.8c0.5,0.6,0.7,1.3,0.7,2.2c0,1-0.3,1.8-0.9,2.5s-1.4,1-2.4,1c-1.1,0-2-0.4-2.6-1.2
					s-0.9-1.9-0.9-3.3c0-1.7,0.4-3,1.2-4.1c0.8-1,1.9-1.6,3.2-1.6c0.7,0,1.3,0.1,1.8,0.3L872.3,758.6L872.3,758.6z M868.3,763.4
					c0,0.5,0.1,0.9,0.4,1.3s0.6,0.5,1,0.5s0.7-0.2,1-0.5c0.2-0.3,0.4-0.7,0.4-1.2c0-1.1-0.5-1.7-1.4-1.7c-0.4,0-0.7,0.1-1,0.4
					C868.4,762.6,868.3,762.9,868.3,763.4z"/>
			</g>
		</g>
	</g>
</g>
<g>
	<path class="st11" d="M150.1,201.8c0.8,0.6,1.4,1.1,1.9,1.5l-1.1,1.3c-0.7-0.6-1.3-1.2-1.8-1.7L150.1,201.8z M150.3,205.3
		c0.5,0.2,1.1,0.4,1.5,0.5l-1,4.8c-0.6-0.2-1.1-0.4-1.6-0.5C149.7,208.6,150,207,150.3,205.3z M150.5,198.6c0.7,0.5,1.3,1,2,1.5
		l-1.1,1.2c-0.6-0.6-1.2-1.1-1.9-1.7L150.5,198.6z M151.6,208.8h0.9v-3.8h8.2v3.8h0.7v1.3h-9.8V208.8z M153,199h7.1v5.3H153V199z
		 M154,208.8h0.9v-2.5H154V208.8z M158.6,200.3h-4.1v0.8h4.1V200.3z M158.6,203.1v-0.8h-4.1v0.8H158.6z M156.1,208.8h0.9v-2.5h-0.9
		V208.8z M159.2,206.3h-0.9v2.5h0.9V206.3z"/>
	<path class="st11" d="M151.6,224.2c0,3.1-0.4,5.3-1.2,6.6c-0.4-0.4-0.9-0.8-1.3-1.2c0.7-1.3,1-3.2,1-5.7v-4.3h4.9
		c-0.1-0.2-0.2-0.5-0.4-0.9l2-0.3c0.1,0.4,0.3,0.8,0.4,1.2h4.2v1.4h-9.7V224.2z M160.1,225.7v1.3c-0.7,0.8-1.3,1.4-2,1.8
		c0.9,0.2,2,0.3,3.2,0.3c-0.2,0.5-0.5,1-0.7,1.5c-1.8-0.2-3.3-0.5-4.4-0.9c-1.2,0.4-2.6,0.7-4.4,1c-0.2-0.5-0.5-0.9-0.8-1.4
		c1.3-0.1,2.5-0.2,3.5-0.5c-0.7-0.5-1.3-1.1-1.9-1.9H152v-1.3H160.1z M151.8,221.8h1.3v-0.5h1.6v0.5h3v-0.5h1.6v0.5h1.7v1.3h-1.7v2
		h-6.2v-2h-1.3V221.8z M156.3,228.3c0.7-0.3,1.4-0.8,1.9-1.3h-3.7C155,227.5,155.6,228,156.3,228.3z M157.8,223.9v-0.7h-3v0.7H157.8
		z"/>
	<path class="st11" d="M151.2,239.8c-0.5,0-1-0.2-1.3-0.6c-0.4-0.4-0.6-0.8-0.6-1.3c0-0.5,0.2-1,0.6-1.3s0.8-0.6,1.3-0.6
		c0.5,0,1,0.2,1.3,0.6c0.4,0.4,0.6,0.8,0.6,1.3c0,0.5-0.2,0.9-0.6,1.3C152.2,239.6,151.7,239.8,151.2,239.8z M151.2,237
		c-0.2,0-0.5,0.1-0.6,0.3s-0.3,0.4-0.3,0.6c0,0.2,0.1,0.4,0.3,0.6c0.2,0.2,0.4,0.3,0.6,0.3c0.3,0,0.5-0.1,0.6-0.3
		c0.2-0.2,0.3-0.4,0.3-0.6c0-0.2-0.1-0.5-0.3-0.6C151.7,237.1,151.5,237,151.2,237z M160.9,245.3c-0.7,0.3-1.7,0.5-2.8,0.5
		c-1.5,0-2.7-0.4-3.5-1.3s-1.3-2-1.3-3.4c0-1.5,0.5-2.7,1.5-3.7c1-0.9,2.2-1.4,3.8-1.4c0.9,0,1.7,0.1,2.4,0.4v1.9
		c-0.7-0.4-1.4-0.5-2.3-0.5c-1,0-1.8,0.3-2.4,0.9c-0.6,0.6-0.9,1.4-0.9,2.3c0,0.9,0.3,1.7,0.8,2.3c0.6,0.6,1.3,0.8,2.3,0.8
		c0.9,0,1.7-0.2,2.4-0.6V245.3z"/>
</g>
<g>
	<path class="st11" d="M150.2,267.8c0.8,0.5,1.4,1.1,2,1.6l-1.2,1.3c-0.5-0.5-1.1-1.1-1.9-1.7L150.2,267.8z M150.4,271.1
		c0.6,0.2,1.2,0.4,1.6,0.6l-1.1,4.8c-0.6-0.2-1.2-0.4-1.7-0.5C149.7,274.5,150,272.9,150.4,271.1z M150.3,264.5c0.6,0.5,1.3,1,2,1.6
		l-1.1,1.3c-0.7-0.7-1.4-1.3-1.9-1.7L150.3,264.5z M152.1,274.7h2.5v-1l-1,0.5l-1.5-2.7l1.2-0.6l1.3,2.2v-2.5h1.6v4.2h1v-4.2h1.6
		v2.7c0.3-0.5,0.8-1.3,1.3-2.3l1.2,0.6c-0.5,1-1.1,1.9-1.6,2.8l-0.9-0.5v0.9h2.6v1.4h-9.2V274.7z M152.7,264.9h7.8v5.3h-7.8V264.9z
		 M158.9,266.2h-4.7v0.8h4.7V266.2z M158.9,268.9v-0.8h-4.7v0.8H158.9z"/>
	<path class="st11" d="M151.6,290c0,3.1-0.4,5.3-1.2,6.6c-0.4-0.4-0.9-0.8-1.3-1.2c0.7-1.3,1-3.2,1-5.7v-4.3h4.9
		c-0.1-0.2-0.2-0.5-0.4-0.9l2-0.3c0.1,0.4,0.3,0.8,0.4,1.2h4.2v1.4h-9.7V290z M160.1,291.6v1.3c-0.7,0.8-1.3,1.4-2,1.8
		c0.9,0.2,2,0.3,3.2,0.3c-0.2,0.5-0.5,1-0.7,1.5c-1.8-0.2-3.3-0.5-4.4-0.9c-1.2,0.4-2.6,0.7-4.4,1c-0.2-0.5-0.5-0.9-0.8-1.4
		c1.3-0.1,2.5-0.2,3.5-0.5c-0.7-0.5-1.3-1.1-1.9-1.9H152v-1.3H160.1z M151.8,287.7h1.3v-0.5h1.6v0.5h3v-0.5h1.6v0.5h1.7v1.3h-1.7v2
		h-6.2v-2h-1.3V287.7z M156.3,294.2c0.7-0.3,1.4-0.8,1.9-1.3h-3.7C155,293.4,155.6,293.8,156.3,294.2z M157.8,289.7V289h-3v0.7
		H157.8z"/>
	<path class="st11" d="M150,304.5c0-0.8,0.2-1.4,0.6-1.9c0.4-0.5,1-0.7,1.8-0.7c0.7,0,1.3,0.2,1.6,0.6c0.4,0.4,0.6,1,0.6,1.8
		c0,0.8-0.2,1.4-0.7,1.8c-0.4,0.5-1,0.7-1.7,0.7c-0.7,0-1.2-0.2-1.6-0.7C150.2,305.8,150,305.2,150,304.5z M151.3,304.4
		c0,0.9,0.3,1.3,1,1.3c0.7,0,1-0.5,1-1.4c0-0.9-0.3-1.3-0.9-1.3C151.7,303,151.3,303.5,151.3,304.4z M159.1,302.1l-6.2,9.5h-1.5
		l6.2-9.5H159.1z M155.9,309.3c0-0.8,0.2-1.4,0.7-1.9c0.4-0.5,1-0.7,1.7-0.7c0.7,0,1.3,0.2,1.6,0.6s0.6,1,0.6,1.8
		c0,0.8-0.2,1.4-0.7,1.9c-0.4,0.5-1,0.7-1.7,0.7c-0.7,0-1.2-0.2-1.6-0.7C156.1,310.6,155.9,310,155.9,309.3z M157.2,309.3
		c0,0.9,0.3,1.3,1,1.3c0.7,0,1-0.5,1-1.4c0-0.4-0.1-0.8-0.3-1c-0.2-0.2-0.4-0.3-0.7-0.3C157.6,307.9,157.2,308.3,157.2,309.3z"/>
</g>
</svg>
