<?xml version="1.0" encoding="utf-8"?>
<!-- Generator: Adobe Illustrator 19.2.1, SVG Export Plug-In . SVG Version: 6.00 Build 0)  -->
<svg version="1.1" id="图层_1" xmlns="http://www.w3.org/2000/svg" xmlns:xlink="http://www.w3.org/1999/xlink" x="0px" y="0px"
	 viewBox="0 0 1600 920" style="enable-background:new 0 0 1600 920;" xml:space="preserve">
<style type="text/css">
	.st0{fill:#CCCCCC;stroke:#FFFFFF;stroke-width:3;stroke-miterlimit:10;}
	.st1{fill:#EFEFEF;}
	.st2{clip-path:url(#SVGID_2_);}
	.st3{opacity:0.6;}
	.st4{fill:none;stroke:#B5B5B6;stroke-width:0.25;stroke-miterlimit:10;}
	.st5{fill:#999999;}
	.st6{fill:none;stroke:#999999;stroke-width:0.5;stroke-miterlimit:10;}
	.st7{fill:#6B6B6B;stroke:#FFFFFF;stroke-miterlimit:10;}
	.st8{enable-background:new    ;}
	.st9{fill:#FFFFFF;}
	.st10{fill:#C5DFEA;stroke:#4D4D4D;stroke-width:0.5;stroke-miterlimit:10;}
	.st11{fill:#05C47F;}
	.st12{fill:#333333;}
	.st13{fill:#D10000;}
	.st14{fill:#FF7145;stroke:#FFFFFF;stroke-miterlimit:10;}
	.st15{fill:#D10000;stroke:#FFFFFF;stroke-miterlimit:10;}
	.st16{fill:#05C47F;stroke:#FFFFFF;stroke-miterlimit:10;}
	.st17{fill:#FFAA00;stroke:#FFFFFF;stroke-miterlimit:10;}
	.st18{fill:none;}
</style>
<g id="图层_6">
	<g>
		<rect x="128.9" y="74" class="st0" width="1343.8" height="818.8"/>
		<rect x="146.9" y="95.3" class="st1" width="1307.9" height="776.2"/>
		<g>
			<g>
				<g>
					<defs>
						<rect id="SVGID_1_" x="146.9" y="95.3" width="1307.9" height="776.9"/>
					</defs>
					<clipPath id="SVGID_2_">
						<use xlink:href="#SVGID_1_"  style="overflow:visible;"/>
					</clipPath>
					<g class="st2">
						<g class="st3">
							<line class="st4" x1="166.8" y1="94.9" x2="166.2" y2="893.8"/>
							<line class="st4" x1="194.2" y1="94.9" x2="193.6" y2="893.8"/>
							<line class="st4" x1="139.5" y1="94.9" x2="138.9" y2="893.8"/>
							<line class="st4" x1="112.1" y1="94.9" x2="111.5" y2="893.8"/>
							<line class="st4" x1="221.6" y1="95" x2="221" y2="893.9"/>
							<line class="st4" x1="249" y1="95" x2="248.4" y2="893.9"/>
							<line class="st4" x1="276.3" y1="95" x2="275.7" y2="893.9"/>
							<line class="st4" x1="303.7" y1="95" x2="303.1" y2="893.9"/>
							<line class="st4" x1="331.1" y1="95" x2="330.5" y2="893.9"/>
							<line class="st4" x1="358.4" y1="95" x2="357.9" y2="893.9"/>
							<line class="st4" x1="385.8" y1="95.1" x2="385.2" y2="894"/>
							<line class="st4" x1="413.2" y1="95.1" x2="412.6" y2="894"/>
							<line class="st4" x1="440.6" y1="95.1" x2="440" y2="894"/>
							<line class="st4" x1="467.9" y1="95.1" x2="467.3" y2="894"/>
							<line class="st4" x1="495.3" y1="95.1" x2="494.7" y2="894"/>
							<line class="st4" x1="522.7" y1="95.1" x2="522.1" y2="894"/>
							<line class="st4" x1="550" y1="95.1" x2="549.5" y2="894.1"/>
							<line class="st4" x1="577.4" y1="95.2" x2="576.8" y2="894.1"/>
							<line class="st4" x1="604.8" y1="95.2" x2="604.2" y2="894.1"/>
							<line class="st4" x1="632.2" y1="95.2" x2="631.6" y2="894.1"/>
							<line class="st4" x1="1015.4" y1="95.4" x2="1014.8" y2="894.3"/>
							<line class="st4" x1="1042.7" y1="95.4" x2="1042.2" y2="894.3"/>
							<line class="st4" x1="988" y1="95.4" x2="987.4" y2="894.3"/>
							<line class="st4" x1="960.6" y1="95.4" x2="960" y2="894.3"/>
							<line class="st4" x1="933.3" y1="95.4" x2="932.7" y2="894.3"/>
							<line class="st4" x1="905.9" y1="95.4" x2="905.3" y2="894.3"/>
							<line class="st4" x1="878.5" y1="95.3" x2="877.9" y2="894.2"/>
							<line class="st4" x1="851.1" y1="95.3" x2="850.5" y2="894.2"/>
							<line class="st4" x1="823.8" y1="95.3" x2="823.2" y2="894.2"/>
							<line class="st4" x1="796.4" y1="95.3" x2="795.8" y2="894.2"/>
							<line class="st4" x1="769" y1="95.3" x2="768.4" y2="894.2"/>
							<line class="st4" x1="741.7" y1="95.3" x2="741.1" y2="894.2"/>
							<line class="st4" x1="714.3" y1="95.2" x2="713.7" y2="894.2"/>
							<line class="st4" x1="686.9" y1="95.2" x2="686.3" y2="894.1"/>
							<line class="st4" x1="659.5" y1="95.2" x2="658.9" y2="894.1"/>
							<line class="st4" x1="1070.1" y1="95.5" x2="1069.5" y2="894.4"/>
							<line class="st4" x1="1097.5" y1="95.5" x2="1096.9" y2="894.4"/>
							<line class="st4" x1="1124.9" y1="95.5" x2="1124.3" y2="894.4"/>
							<line class="st4" x1="1152.2" y1="95.5" x2="1151.6" y2="894.4"/>
							<line class="st4" x1="1179.6" y1="95.5" x2="1179" y2="894.4"/>
							<line class="st4" x1="1207" y1="95.5" x2="1206.4" y2="894.4"/>
							<line class="st4" x1="1234.4" y1="95.5" x2="1233.8" y2="894.5"/>
							<line class="st4" x1="1261.7" y1="95.6" x2="1261.1" y2="894.5"/>
							<line class="st4" x1="1289.1" y1="95.6" x2="1288.5" y2="894.5"/>
							<line class="st4" x1="1316.5" y1="95.6" x2="1315.9" y2="894.5"/>
							<line class="st4" x1="1343.8" y1="95.6" x2="1343.2" y2="894.5"/>
							<line class="st4" x1="1371.2" y1="95.6" x2="1370.6" y2="894.5"/>
							<line class="st4" x1="1398.6" y1="95.6" x2="1398" y2="894.6"/>
							<line class="st4" x1="1426" y1="95.7" x2="1425.4" y2="894.6"/>
							<line class="st4" x1="1453.3" y1="95.7" x2="1452.7" y2="894.6"/>
							<line class="st4" x1="1480.7" y1="95.7" x2="1480.1" y2="894.6"/>
							<line class="st4" x1="1562.8" y1="95.7" x2="1562.2" y2="894.6"/>
							<line class="st4" x1="1535.4" y1="95.7" x2="1534.9" y2="894.6"/>
							<line class="st4" x1="1508.1" y1="95.7" x2="1507.5" y2="894.6"/>
						</g>
						<g class="st3">
							<line class="st4" x1="1560.5" y1="235.4" x2="97.7" y2="234"/>
							<line class="st4" x1="1560.5" y1="261.2" x2="97.7" y2="259.9"/>
							<line class="st4" x1="1560.6" y1="209.5" x2="97.7" y2="208.2"/>
							<line class="st4" x1="1560.6" y1="183.6" x2="97.7" y2="182.3"/>
							<line class="st4" x1="1560.6" y1="157.8" x2="97.7" y2="156.4"/>
							<line class="st4" x1="1560.6" y1="131.9" x2="97.7" y2="130.5"/>
							<line class="st4" x1="1560.6" y1="106" x2="97.7" y2="104.7"/>
							<line class="st4" x1="1560.5" y1="287.1" x2="97.6" y2="285.8"/>
							<line class="st4" x1="1560.5" y1="313" x2="97.6" y2="311.6"/>
							<line class="st4" x1="1560.5" y1="338.9" x2="97.6" y2="337.5"/>
							<line class="st4" x1="1560.5" y1="364.7" x2="97.6" y2="363.4"/>
							<line class="st4" x1="1560.5" y1="390.6" x2="97.6" y2="389.3"/>
							<line class="st4" x1="1560.4" y1="416.5" x2="97.6" y2="415.1"/>
							<line class="st4" x1="1560.4" y1="442.3" x2="97.6" y2="441"/>
							<line class="st4" x1="1560.4" y1="468.2" x2="97.5" y2="466.9"/>
							<line class="st4" x1="1560.4" y1="494.1" x2="97.5" y2="492.7"/>
							<line class="st4" x1="1560.4" y1="520" x2="97.5" y2="518.6"/>
							<line class="st4" x1="1560.4" y1="545.8" x2="97.5" y2="544.5"/>
							<line class="st4" x1="1560.4" y1="571.7" x2="97.5" y2="570.4"/>
							<line class="st4" x1="1560.4" y1="597.6" x2="97.5" y2="596.2"/>
							<line class="st4" x1="1560.3" y1="623.4" x2="97.5" y2="622.1"/>
							<line class="st4" x1="1560.3" y1="649.3" x2="97.5" y2="648"/>
							<line class="st4" x1="1560.3" y1="675.2" x2="97.4" y2="673.8"/>
							<line class="st4" x1="1560.2" y1="882.2" x2="97.3" y2="880.8"/>
							<line class="st4" x1="1560.2" y1="856.3" x2="97.3" y2="854.9"/>
							<line class="st4" x1="1560.2" y1="830.4" x2="97.4" y2="829.1"/>
							<line class="st4" x1="1560.2" y1="804.5" x2="97.4" y2="803.2"/>
							<line class="st4" x1="1560.3" y1="778.7" x2="97.4" y2="777.3"/>
							<line class="st4" x1="1560.3" y1="752.8" x2="97.4" y2="751.5"/>
							<line class="st4" x1="1560.3" y1="726.9" x2="97.4" y2="725.6"/>
							<line class="st4" x1="1560.3" y1="701.1" x2="97.4" y2="699.7"/>
						</g>
					</g>
				</g>
			</g>
		</g>
		<g>
			<rect x="147" y="96.2" class="st5" width="121.1" height="15.5"/>
			<rect x="365.5" y="96.2" class="st5" width="177" height="15.5"/>
			<g>
				<rect x="542.4" y="96.2" class="st6" width="193.7" height="15.5"/>
				<rect x="536.3" y="100.8" class="st5" width="202" height="0.7"/>
				<rect x="536.3" y="106.1" class="st5" width="202" height="0.7"/>
			</g>
			<rect x="736.1" y="96.2" class="st5" width="109.6" height="15.5"/>
			<rect x="147" y="97.5" class="st5" width="15.5" height="99.1"/>
			<rect x="157.2" y="106.8" class="st5" width="12.6" height="21.4"/>
			<rect x="390.9" y="110.8" class="st5" width="34" height="17"/>
			<rect x="466.8" y="110.8" class="st5" width="23" height="17"/>
			<rect x="789.7" y="111.7" class="st5" width="23" height="17"/>
			<g>
				<rect x="147" y="196.2" class="st6" width="15.5" height="194.5"/>
				<rect x="157.1" y="190.1" class="st5" width="0.7" height="202.8"/>
				<rect x="151.8" y="190.1" class="st5" width="0.7" height="202.8"/>
			</g>
			<rect x="146.8" y="391.2" class="st5" width="15.5" height="185.3"/>
			<g>
				<rect x="146.9" y="576.7" class="st6" width="15.5" height="194.5"/>
				<rect x="157" y="570.5" class="st5" width="0.7" height="202.8"/>
				<rect x="151.7" y="570.5" class="st5" width="0.7" height="202.8"/>
			</g>
			<rect x="146.9" y="771.2" class="st5" width="15.5" height="100.3"/>
			<rect x="1078.4" y="96.2" class="st5" width="110" height="15.5"/>
			<rect x="1253.1" y="96.2" class="st5" width="64.7" height="15.5"/>
			<rect x="1382.5" y="96.2" class="st5" width="72" height="15.5"/>
			<rect x="1112.2" y="111.7" class="st5" width="23" height="17"/>
			<rect x="1431.5" y="111.7" class="st5" width="23" height="17"/>
			<g>
				<rect x="1188.6" y="96.2" class="st6" width="64" height="15.5"/>
				<rect x="1186.5" y="100.9" class="st5" width="66.8" height="0.7"/>
				<rect x="1186.5" y="106.2" class="st5" width="66.8" height="0.7"/>
			</g>
			<rect x="1438.9" y="196.2" class="st6" width="15.5" height="193.7"/>
			<rect x="1449.1" y="190" class="st5" width="0.7" height="202"/>
			<rect x="1443.7" y="190" class="st5" width="0.7" height="202"/>
			<rect x="1454.1" y="617.6" class="st5" width="0.7" height="202"/>
			<rect x="1439" y="96.3" class="st5" width="15.5" height="99.9"/>
			<rect x="1438.9" y="389.9" class="st5" width="15.5" height="235.2"/>
			<rect x="1116" y="476.1" class="st5" width="15.5" height="362.3"/>
			<rect x="1438.9" y="721.6" class="st5" width="15.5" height="129.2"/>
			<rect x="1116" y="476.1" class="st5" width="333" height="15.5"/>
			<rect x="468.9" y="127.8" class="st5" width="18.7" height="8.7"/>
			<rect x="470.1" y="200.3" class="st5" width="15.5" height="291.3"/>
			<rect x="162.4" y="476" class="st5" width="309.2" height="15.5"/>
			<rect x="154.6" y="838.4" class="st5" width="15.1" height="33.1"/>
			<rect x="146.8" y="856.2" class="st5" width="72.6" height="15.5"/>
			<g>
				<rect x="219" y="856.2" class="st6" width="194.5" height="15.5"/>
				<rect x="216.8" y="866.3" class="st5" width="202.8" height="0.7"/>
				<rect x="216.8" y="861" class="st5" width="202.8" height="0.7"/>
			</g>
			<rect x="413.5" y="856.2" class="st5" width="129" height="15.5"/>
			<rect x="466.9" y="838.4" class="st5" width="22.8" height="28.3"/>
			<rect x="790" y="838.9" class="st5" width="22.8" height="28.3"/>
			<rect x="1112.4" y="838.9" class="st5" width="22.8" height="28.3"/>
			<rect x="1431.7" y="838.9" class="st5" width="22.8" height="26.6"/>
			<rect x="736.9" y="856.2" class="st5" width="128.5" height="15.5"/>
			<rect x="1059.5" y="856.2" class="st5" width="128.5" height="15.5"/>
			<rect x="1382.5" y="856.2" class="st5" width="72" height="15.5"/>
			<g>
				<rect x="219" y="856.2" class="st6" width="194.5" height="15.5"/>
				<rect x="216.8" y="866.3" class="st5" width="202.8" height="0.7"/>
				<rect x="216.8" y="861" class="st5" width="202.8" height="0.7"/>
			</g>
			<g>
				<rect x="540.5" y="856.7" class="st6" width="194.5" height="15.5"/>
				<rect x="538.5" y="866.8" class="st5" width="202.8" height="0.7"/>
				<rect x="538.4" y="861.5" class="st5" width="202.8" height="0.7"/>
			</g>
			<g>
				<rect x="863.7" y="855.5" class="st6" width="194.5" height="15.5"/>
				<rect x="861.6" y="865.5" class="st5" width="202.8" height="0.7"/>
				<rect x="861.5" y="860.2" class="st5" width="202.8" height="0.7"/>
			</g>
			<g>
				<rect x="1188.1" y="855.5" class="st6" width="194.5" height="15.5"/>
				<rect x="1186" y="865.5" class="st5" width="202.8" height="0.7"/>
				<rect x="1186" y="860.2" class="st5" width="202.8" height="0.7"/>
			</g>
			<line class="st6" x1="257.4" y1="97.5" x2="477.9" y2="97.5"/>
			<line class="st6" x1="834" y1="96.6" x2="1091.5" y2="96.6"/>
			<line class="st6" x1="1311.4" y1="96.6" x2="1390.5" y2="96.6"/>
		</g>
	</g>
	<g>
		<path class="st7" d="M264.7,167h-66.4c-9.7,0-17.6-7.9-17.6-17.6l0,0c0-9.7,7.9-17.6,17.6-17.6h66.4c9.7,0,17.6,7.9,17.6,17.6l0,0
			C282.3,159.1,274.4,167,264.7,167z"/>
		<g class="st8">
			<path class="st9" d="M205.3,144.6h1.5v-2.9h2v2.9h1.1v2.1h-1.1v2.5l1.2-0.3c-0.1,0.7-0.1,1.5-0.1,2.2l-1.2,0.3v4.3
				c0,0.5-0.1,1-0.3,1.3s-0.5,0.5-0.8,0.5s-1,0.1-2.1,0.1c-0.1-0.6-0.2-1.4-0.4-2.2c0.3,0,0.7,0,1.2,0c0.3,0,0.4-0.2,0.4-0.7V152
				l-1.6,0.4L205,150c0.5-0.1,1.1-0.2,1.7-0.4v-2.9h-1.5v-2.1H205.3z M211.1,150.5h9.5v2h-3.7v2.5h4.6v2h-11.4v-2h4.7v-2.5h-3.7
				L211.1,150.5L211.1,150.5z M215.3,147.6l-3.8,2.8l-1.4-1.6c1.1-0.7,2.3-1.6,3.6-2.7L215.3,147.6z M210.7,143.4h4l-0.4-1.4
				l2.3-0.4c0.2,0.6,0.4,1.3,0.5,1.9h4.1v3.3h-2.1v-1.3h-6.4v1.3h-2.1L210.7,143.4L210.7,143.4z M216.3,147.6l1.4-1.4
				c1,0.7,2.3,1.6,3.7,2.7l-1.4,1.6C219.5,150.1,218.3,149.1,216.3,147.6z"/>
			<path class="st9" d="M224.8,156.7h-2v-6.5h3.4V149h-4v-1.9h4v-1.5h-1.8c-0.1,0.5-0.3,0.9-0.4,1.4c-0.5-0.2-1-0.4-1.7-0.7
				c0.5-1.3,0.8-2.7,1.1-4.3l1.8,0.4l-0.3,1.3h1.3v-2.3h2.2v2.3h3.3v1.9h-3.3v1.5h3.8v1.9h-3.8v1.3h3.4v4.5c0,0.6-0.1,1.1-0.4,1.4
				s-0.7,0.5-1.2,0.6c-0.6,0-1,0-1.2,0c-0.1-0.6-0.3-1.3-0.5-2.1c0.3,0,0.6,0,0.8,0c0.3,0,0.5-0.2,0.5-0.5v-2h-1.4v5.6h-2.2v-5.6
				h-1.4L224.8,156.7L224.8,156.7z M232.7,142.8h2v11h-2V142.8z M235.6,141.5h2.1v13.6c0,0.8-0.2,1.4-0.6,1.9
				c-0.4,0.4-0.9,0.6-1.6,0.7c-0.7,0-1.5,0-2.4,0c-0.1-0.6-0.2-1.4-0.4-2.3c0.9,0.1,1.5,0.1,2,0.1c0.6,0,0.9-0.3,0.9-1V141.5z"/>
			<path class="st9" d="M252.4,145.8v1.8H251c1.1,0.6,2.3,1.4,3.8,2.3l-1.2,1.5c-0.4-0.2-0.7-0.5-1.1-0.7c-1.4,0-2.8,0.1-4.1,0.1
				v1.2h5.6v2h-5.6v1.1h6.6v2.1h-15.6v-2.1h6.6V154h-5.6v-2h5.6v-1.1c-2.2,0-3.8,0.1-4.8,0.3l-0.8-1.7c0.9-0.4,1.9-1,3.2-1.9H242
				v-1.8H252.4z M239.5,146.9v-4h6.5c-0.2-0.5-0.4-0.9-0.5-1.2l2.9-0.3c0.2,0.4,0.4,0.9,0.6,1.5h6.1v4h-2v-2.1h-11.5v2.1H239.5z
				 M248.6,148.1l0.7-0.5h-2.5c-0.8,0.5-1.6,1.1-2.4,1.6c1.9,0,3.8-0.1,5.7-0.1C249.6,148.8,249.1,148.4,248.6,148.1z"/>
		</g>
	</g>
	<g>
		<path class="st7" d="M595.1,167h-66.4c-9.7,0-17.6-7.9-17.6-17.6l0,0c0-9.7,7.9-17.6,17.6-17.6h66.4c9.7,0,17.6,7.9,17.6,17.6l0,0
			C612.8,159.1,604.9,167,595.1,167z"/>
		<g class="st8">
			<path class="st9" d="M560.2,151.6c-1,0.6-2.1,1.1-3.3,1.7c1.1,0.8,2.4,1.3,3.7,1.7c-0.3,0.5-0.8,1.2-1.4,2.2
				c-2.3-0.9-4.1-2.2-5.5-4.1v2.3c0,1.5-0.7,2.3-2.1,2.3c-0.9,0-1.7,0.1-2.5,0.1c-0.1-0.7-0.3-1.4-0.5-2.1c0.8,0.1,1.4,0.1,1.8,0.1
				c0.7,0,1-0.3,1-0.9v-5.1H549v0.4h-2.2v-2.7c-0.6,0.4-1.1,0.8-1.7,1.1c-0.4-0.8-0.7-1.6-1.1-2.2c1.4-0.7,2.8-1.5,4-2.5h-3.5v-1.7
				h15.7v1.7h-9.4c-0.4,0.4-0.7,0.8-1.1,1.1h9v4.8h-4.9v0.3c0.5,0.7,1,1.4,1.6,1.9c1.3-0.7,2.5-1.4,3.6-2.1L560.2,151.6z
				 M544.7,152.5v-1.7h5.9v1.7c-1.1,2.1-2.8,3.7-5.1,4.9c-0.3-0.5-0.8-1.2-1.4-2.1c1.8-0.7,3.3-1.6,4.2-2.8L544.7,152.5L544.7,152.5
				z M556.4,148.1v-1.5H549v1.5H556.4z"/>
			<path class="st9" d="M577.4,150.8h-7.7c0,0.3,0,0.6-0.1,0.9h6.2c0,0.9-0.1,1.9-0.2,3c-0.1,1.1-0.3,1.8-0.7,2.2s-0.8,0.6-1.2,0.7
				c-0.4,0.1-1.5,0.1-3.3,0.1c-0.1-0.6-0.3-1.4-0.6-2.3c0.6,0.1,1.3,0.1,1.9,0.1c0.5,0,0.8,0,1-0.1s0.3-0.2,0.4-0.4
				c0.1-0.2,0.1-0.7,0.2-1.4h-4.2c-0.6,1.9-1.7,3.4-3.3,4.4c-0.4-0.4-0.9-1-1.7-1.7c1.9-1.1,3-2.8,3.1-5.3h-2.4
				c-0.2,2.9-0.9,5.2-2,6.8l-1.8-1.9c1.1-1.5,1.6-3.8,1.6-7v-6h5.8c-0.2-0.4-0.4-0.8-0.5-1.1l2.8-0.3c0.2,0.4,0.3,0.8,0.5,1.4h5.4
				v4.9h-4.9c0.1,0.4,0.3,0.8,0.5,1.3h5.2V150.8z M574.2,145.9v-1.3H565v1.3H574.2z M568.9,148l1.9-0.3H565v1.3h4.4
				C569.2,148.6,569,148.3,568.9,148z"/>
		</g>
	</g>
	<g>
		<path class="st7" d="M1227.5,541.7h-66.4c-9.7,0-17.6-7.9-17.6-17.6l0,0c0-9.7,7.9-17.6,17.6-17.6h66.4c9.7,0,17.6,7.9,17.6,17.6
			l0,0C1245.1,533.8,1237.2,541.7,1227.5,541.7z"/>
		<g class="st8">
			<path class="st9" d="M1171.7,532.1c-0.2-0.8-0.4-1.6-0.6-2.5c0.7,0,1.2,0.1,1.7,0.1c0.3,0,0.5-0.1,0.6-0.2
				c0.1-0.1,0.2-0.3,0.3-0.5c0-0.2,0.1-1,0.1-2.5s0.1-3.3,0.1-5.5h-1.6c-0.1,5.2-1.1,9.1-3,11.5c-0.4-0.7-0.8-1.5-1.3-2.4
				c1.4-2,2.1-5,2.1-9.1h-1.9v-2.2h1.9c0-0.9,0-1.9,0-2.7h2.1v2.7h3.7l-0.1,6.7l-0.1,3.9c0,0.8-0.2,1.4-0.5,1.8
				c-0.3,0.4-0.7,0.7-1.1,0.8S1173,532.1,1171.7,532.1z M1177.1,532.1v-14.6h6.7V532h-2.2v-1.4h-2.2v1.5H1177.1z M1181.5,519.7h-2.2
				v8.8h2.2V519.7z"/>
			<path class="st9" d="M1187.8,523.2h1.2c0.4-0.5,0.8-1.1,1.2-1.7l1.9,1c-1.1,1.5-2.3,2.9-3.5,4.2c1.1-0.1,2.1-0.3,3-0.4
				c-0.1,0.8-0.2,1.4-0.3,2c-2.1,0.3-3.7,0.5-5,0.8l-0.6-1.9c0.4-0.2,1-0.9,1.9-1.9c-0.8,0.1-1.5,0.1-2,0.2l-0.6-1.7
				c0.6-0.3,1.7-1.6,3.1-4l1.9,0.8C1189.3,521.4,1188.6,522.3,1187.8,523.2z M1194.8,516.2h2.2v1.2h4.3v1.9h-4.3v0.9h-2.2v-0.9h-3.2
				v0.9h-2.2v-0.9h-4.4v-1.9h4.4v-1.2h2.2v1.2h3.2V516.2z M1185.5,530.1c1.9-0.3,4-0.6,6.4-1.1c-0.1,0.8-0.1,1.5-0.2,2.1
				c-1.8,0.3-3.7,0.6-5.7,1L1185.5,530.1z M1190.7,525c1.2-1.6,2.1-3.2,2.9-5l2,0.7c-0.1,0.3-0.3,0.6-0.4,0.8h5.5
				c0,2.8-0.1,5.4-0.2,7.9c-0.1,1.7-0.9,2.5-2.4,2.6c-0.8,0.1-2.1,0.1-3.8,0c-0.1-0.6-0.3-1.4-0.5-2.3c1.4,0.1,2.4,0.1,3.1,0.1
				c0.9,0,1.3-0.3,1.3-1c0.1-1.8,0.1-3.6,0.2-5.5h-4.2c-0.5,1-1.1,1.8-1.7,2.7C1192.1,525.7,1191.5,525.4,1190.7,525z M1193.2,525.5
				l1.3-1.2c0.9,0.9,1.7,1.9,2.6,2.8l-1.6,1.3C1194.8,527.4,1194,526.4,1193.2,525.5z"/>
			<path class="st9" d="M1202.5,518.3h2.3v14.1h-2.3V518.3z M1204.5,516.9l2.2-0.8c0.5,0.8,1,1.7,1.6,2.7l-2.3,0.9
				C1205.4,518.6,1205,517.7,1204.5,516.9z M1206.3,520.3h7.4v8.7h-5.3v0.9h-2.1V520.3z M1211.6,522.1h-3.2v1.6h3.2V522.1z
				 M1211.6,527.1v-1.6h-3.2v1.6H1211.6z M1217.6,529.3c0,0.8-0.1,1.4-0.4,1.9s-0.7,0.8-1.3,0.9s-1.9,0.2-3.9,0.2
				c-0.1-0.8-0.3-1.6-0.5-2.3c0.7,0,1.6,0.1,2.7,0.1c0.7,0,1.1-0.3,1.1-1v-10.2h-6.5v-2h8.8L1217.6,529.3L1217.6,529.3z"/>
		</g>
	</g>
	<g>
		<path class="st10" d="M217.8,607.1h257.6c5.7,0,10.3-4.6,10.3-10.3v-5.3c0-5.7-4.6-10.3-10.3-10.3H217.8
			c-5.7,0-10.3,4.6-10.3,10.3v5.3C207.5,602.5,212.1,607.1,217.8,607.1z"/>
		<g>
			<path class="st10" d="M434.4,590.2c-0.8,0-1.6,0.3-2.2,0.7c-0.6-5.6-2.8-10.6-6.1-14.8c0.8-0.1,1.5-0.5,2.1-1.1
				c1.5-1.5,1.5-4,0-5.5s-4-1.5-5.5,0c-0.6,0.6-0.9,1.3-1.1,2.1c-4.1-3.3-9.2-5.5-14.8-6.1c0.4-0.6,0.7-1.4,0.7-2.2
				c0-2.2-1.8-3.9-3.9-3.9c-2.2,0-3.9,1.8-3.9,3.9c0,0.8,0.3,1.6,0.7,2.2c-5.6,0.6-10.6,2.8-14.8,6.1c-0.1-0.8-0.5-1.5-1.1-2.1
				c-1.5-1.5-4-1.5-5.5,0s-1.5,4,0,5.5c0.6,0.6,1.3,0.9,2.1,1.1c-3.3,4.1-5.5,9.2-6.1,14.8c-0.6-0.4-1.4-0.7-2.2-0.7
				c-2.2,0-3.9,1.8-3.9,3.9c0,2.2,1.8,3.9,3.9,3.9c0.8,0,1.6-0.3,2.2-0.7c0.6,5.6,2.8,10.6,6.1,14.8c-0.8,0.1-1.5,0.5-2.1,1.1
				c-1.5,1.5-1.5,4,0,5.5s4,1.5,5.5,0c0.6-0.6,0.9-1.3,1.1-2.1c4.1,3.3,9.2,5.5,14.8,6.1c-0.4,0.6-0.7,1.4-0.7,2.2
				c0,2.2,1.8,3.9,3.9,3.9s3.9-1.8,3.9-3.9c0-0.8-0.3-1.6-0.7-2.2c5.6-0.6,10.6-2.8,14.8-6.1c0.1,0.8,0.5,1.5,1.1,2.1
				c1.5,1.5,4,1.5,5.5,0s1.5-4,0-5.5c-0.6-0.6-1.3-0.9-2.1-1.1c3.3-4.1,5.5-9.2,6.1-14.8c0.6,0.4,1.4,0.7,2.2,0.7
				c2.2,0,3.9-1.8,3.9-3.9S436.6,590.2,434.4,590.2z M422.8,610.6L410.6,599c0.7-1,1.2-2.1,1.4-3.4l16.8,0.4
				C428.4,601.6,426.2,606.7,422.8,610.6z M405.5,619.4l-0.4-16.8c1.2-0.2,2.4-0.7,3.4-1.4l11.6,12.2
				C416.1,616.8,411.1,619,405.5,619.4z M387.1,613.4l11.6-12.2c1,0.7,2.1,1.2,3.4,1.4l-0.4,16.8C396.1,619,391.1,616.8,387.1,613.4
				z M378.3,596.2l16.8-0.4c0.2,1.2,0.7,2.4,1.4,3.4l-12.2,11.6C381,606.7,378.8,601.7,378.3,596.2z M384.3,577.7l12.2,11.6
				c-0.7,1-1.2,2.1-1.4,3.4l-16.8-0.4C378.7,586.7,380.9,581.7,384.3,577.7z M401.6,568.9l0.4,16.8c-1.2,0.2-2.4,0.7-3.4,1.4
				L387.1,575C391,571.6,396.1,569.4,401.6,568.9z M420,574.9l-11.6,12.2c-1-0.7-2.1-1.2-3.4-1.4l0.4-16.8
				C411,569.4,416.1,571.5,420,574.9z M428.8,592.2l-16.8,0.4c-0.2-1.2-0.7-2.4-1.4-3.4l12.2-11.6
				C426.2,581.7,428.4,586.7,428.8,592.2z"/>
			<path class="st10" d="M320.4,590.2c-0.8,0-1.6,0.3-2.2,0.7c-0.6-5.6-2.8-10.6-6.1-14.8c0.8-0.1,1.5-0.5,2.1-1.1
				c1.5-1.5,1.5-4,0-5.5s-4-1.5-5.5,0c-0.6,0.6-0.9,1.3-1.1,2.1c-4.1-3.3-9.2-5.5-14.8-6.1c0.4-0.6,0.7-1.4,0.7-2.2
				c0-2.2-1.8-3.9-3.9-3.9c-2.2,0-3.9,1.8-3.9,3.9c0,0.8,0.3,1.6,0.7,2.2c-5.6,0.6-10.6,2.8-14.8,6.1c-0.1-0.8-0.5-1.5-1.1-2.1
				c-1.5-1.5-4-1.5-5.5,0s-1.5,4,0,5.5c0.6,0.6,1.3,0.9,2.1,1.1c-3.3,4.1-5.5,9.2-6.1,14.8c-0.6-0.4-1.4-0.7-2.2-0.7
				c-2.2,0-3.9,1.8-3.9,3.9c0,2.2,1.8,3.9,3.9,3.9c0.8,0,1.6-0.3,2.2-0.7c0.6,5.6,2.8,10.6,6.1,14.8c-0.8,0.1-1.5,0.5-2.1,1.1
				c-1.5,1.5-1.5,4,0,5.5s4,1.5,5.5,0c0.6-0.6,0.9-1.3,1.1-2.1c4.1,3.3,9.2,5.5,14.8,6.1c-0.4,0.6-0.7,1.4-0.7,2.2
				c0,2.2,1.8,3.9,3.9,3.9c2.2,0,3.9-1.8,3.9-3.9c0-0.8-0.3-1.6-0.7-2.2c5.6-0.6,10.6-2.8,14.8-6.1c0.1,0.8,0.5,1.5,1.1,2.1
				c1.5,1.5,4,1.5,5.5,0s1.5-4,0-5.5c-0.6-0.6-1.3-0.9-2.1-1.1c3.3-4.1,5.5-9.2,6.1-14.8c0.6,0.4,1.4,0.7,2.2,0.7
				c2.2,0,3.9-1.8,3.9-3.9S322.6,590.2,320.4,590.2z M308.8,610.6L296.6,599c0.7-1,1.2-2.1,1.4-3.4l16.8,0.4
				C314.4,601.6,312.2,606.7,308.8,610.6z M291.6,619.4l-0.4-16.8c1.2-0.2,2.4-0.7,3.4-1.4l11.6,12.2
				C302.1,616.8,297.1,619,291.6,619.4z M273.1,613.4l11.6-12.2c1,0.7,2.1,1.2,3.4,1.4l-0.4,16.8C282.1,619,277.1,616.8,273.1,613.4
				z M264.3,596.2l16.8-0.4c0.2,1.2,0.7,2.4,1.4,3.4l-12.2,11.6C267,606.7,264.8,601.7,264.3,596.2z M270.3,577.7l12.2,11.6
				c-0.7,1-1.2,2.1-1.4,3.4l-16.8-0.4C264.8,586.7,266.9,581.7,270.3,577.7z M287.6,568.9l0.4,16.8c-1.2,0.2-2.4,0.7-3.4,1.4
				L273.1,575C277.1,571.6,282.1,569.4,287.6,568.9z M306,574.9l-11.6,12.2c-1-0.7-2.1-1.2-3.4-1.4l0.4-16.8
				C297,569.4,302.1,571.5,306,574.9z M314.8,592.2l-16.8,0.4c-0.2-1.2-0.7-2.4-1.4-3.4l12.2-11.6
				C312.2,581.7,314.4,586.7,314.8,592.2z"/>
		</g>
	</g>
	<g>
		<path class="st10" d="M217.8,698.1h257.6c5.7,0,10.3-4.6,10.3-10.3v-5.3c0-5.7-4.6-10.3-10.3-10.3H217.8
			c-5.7,0-10.3,4.6-10.3,10.3v5.3C207.5,693.5,212.1,698.1,217.8,698.1z"/>
		<g>
			<path class="st10" d="M434.4,681.2c-0.8,0-1.6,0.3-2.2,0.7c-0.6-5.6-2.8-10.6-6.1-14.8c0.8-0.1,1.5-0.5,2.1-1.1
				c1.5-1.5,1.5-4,0-5.5s-4-1.5-5.5,0c-0.6,0.6-0.9,1.3-1.1,2.1c-4.1-3.3-9.2-5.5-14.8-6.1c0.4-0.6,0.7-1.4,0.7-2.2
				c0-2.2-1.8-3.9-3.9-3.9c-2.2,0-3.9,1.8-3.9,3.9c0,0.8,0.3,1.6,0.7,2.2c-5.6,0.6-10.6,2.8-14.8,6.1c-0.1-0.8-0.5-1.5-1.1-2.1
				c-1.5-1.5-4-1.5-5.5,0s-1.5,4,0,5.5c0.6,0.6,1.3,0.9,2.1,1.1c-3.3,4.1-5.5,9.2-6.1,14.8c-0.6-0.4-1.4-0.7-2.2-0.7
				c-2.2,0-3.9,1.8-3.9,3.9c0,2.2,1.8,3.9,3.9,3.9c0.8,0,1.6-0.3,2.2-0.7c0.6,5.6,2.8,10.6,6.1,14.8c-0.8,0.1-1.5,0.5-2.1,1.1
				c-1.5,1.5-1.5,4,0,5.5s4,1.5,5.5,0c0.6-0.6,0.9-1.3,1.1-2.1c4.1,3.3,9.2,5.5,14.8,6.1c-0.4,0.6-0.7,1.4-0.7,2.2
				c0,2.2,1.8,3.9,3.9,3.9s3.9-1.8,3.9-3.9c0-0.8-0.3-1.6-0.7-2.2c5.6-0.6,10.6-2.8,14.8-6.1c0.1,0.8,0.5,1.5,1.1,2.1
				c1.5,1.5,4,1.5,5.5,0s1.5-4,0-5.5c-0.6-0.6-1.3-0.9-2.1-1.1c3.3-4.1,5.5-9.2,6.1-14.8c0.6,0.4,1.4,0.7,2.2,0.7
				c2.2,0,3.9-1.8,3.9-3.9S436.6,681.2,434.4,681.2z M422.8,701.6L410.6,690c0.7-1,1.2-2.1,1.4-3.4l16.8,0.4
				C428.4,692.6,426.2,697.7,422.8,701.6z M405.5,710.4l-0.4-16.8c1.2-0.2,2.4-0.7,3.4-1.4l11.6,12.2
				C416.1,707.8,411.1,710,405.5,710.4z M387.1,704.4l11.6-12.2c1,0.7,2.1,1.2,3.4,1.4l-0.4,16.8C396.1,710,391.1,707.8,387.1,704.4
				z M378.3,687.2l16.8-0.4c0.2,1.2,0.7,2.4,1.4,3.4l-12.2,11.6C381,697.7,378.8,692.7,378.3,687.2z M384.3,668.7l12.2,11.6
				c-0.7,1-1.2,2.1-1.4,3.4l-16.8-0.4C378.7,677.7,380.9,672.7,384.3,668.7z M401.6,659.9l0.4,16.8c-1.2,0.2-2.4,0.7-3.4,1.4
				L387.1,666C391,662.6,396.1,660.4,401.6,659.9z M420,665.9l-11.6,12.2c-1-0.7-2.1-1.2-3.4-1.4l0.4-16.8
				C411,660.3,416.1,662.5,420,665.9z M428.8,683.2l-16.8,0.4c-0.2-1.2-0.7-2.4-1.4-3.4l12.2-11.6
				C426.2,672.6,428.4,677.7,428.8,683.2z"/>
			<path class="st10" d="M320.4,681.2c-0.8,0-1.6,0.3-2.2,0.7c-0.6-5.6-2.8-10.6-6.1-14.8c0.8-0.1,1.5-0.5,2.1-1.1
				c1.5-1.5,1.5-4,0-5.5s-4-1.5-5.5,0c-0.6,0.6-0.9,1.3-1.1,2.1c-4.1-3.3-9.2-5.5-14.8-6.1c0.4-0.6,0.7-1.4,0.7-2.2
				c0-2.2-1.8-3.9-3.9-3.9c-2.2,0-3.9,1.8-3.9,3.9c0,0.8,0.3,1.6,0.7,2.2c-5.6,0.6-10.6,2.8-14.8,6.1c-0.1-0.8-0.5-1.5-1.1-2.1
				c-1.5-1.5-4-1.5-5.5,0s-1.5,4,0,5.5c0.6,0.6,1.3,0.9,2.1,1.1c-3.3,4.1-5.5,9.2-6.1,14.8c-0.6-0.4-1.4-0.7-2.2-0.7
				c-2.2,0-3.9,1.8-3.9,3.9c0,2.2,1.8,3.9,3.9,3.9c0.8,0,1.6-0.3,2.2-0.7c0.6,5.6,2.8,10.6,6.1,14.8c-0.8,0.1-1.5,0.5-2.1,1.1
				c-1.5,1.5-1.5,4,0,5.5s4,1.5,5.5,0c0.6-0.6,0.9-1.3,1.1-2.1c4.1,3.3,9.2,5.5,14.8,6.1c-0.4,0.6-0.7,1.4-0.7,2.2
				c0,2.2,1.8,3.9,3.9,3.9c2.2,0,3.9-1.8,3.9-3.9c0-0.8-0.3-1.6-0.7-2.2c5.6-0.6,10.6-2.8,14.8-6.1c0.1,0.8,0.5,1.5,1.1,2.1
				c1.5,1.5,4,1.5,5.5,0s1.5-4,0-5.5c-0.6-0.6-1.3-0.9-2.1-1.1c3.3-4.1,5.5-9.2,6.1-14.8c0.6,0.4,1.4,0.7,2.2,0.7
				c2.2,0,3.9-1.8,3.9-3.9S322.6,681.2,320.4,681.2z M308.8,701.6L296.6,690c0.7-1,1.2-2.1,1.4-3.4l16.8,0.4
				C314.4,692.6,312.2,697.7,308.8,701.6z M291.6,710.4l-0.4-16.8c1.2-0.2,2.4-0.7,3.4-1.4l11.6,12.2
				C302.1,707.8,297.1,710,291.6,710.4z M273.1,704.4l11.6-12.2c1,0.7,2.1,1.2,3.4,1.4l-0.4,16.8C282.1,710,277.1,707.8,273.1,704.4
				z M264.3,687.2l16.8-0.4c0.2,1.2,0.7,2.4,1.4,3.4l-12.2,11.6C267,697.7,264.8,692.7,264.3,687.2z M270.3,668.7l12.2,11.6
				c-0.7,1-1.2,2.1-1.4,3.4l-16.8-0.4C264.8,677.7,266.9,672.7,270.3,668.7z M287.6,659.9l0.4,16.8c-1.2,0.2-2.4,0.7-3.4,1.4
				L273.1,666C277.1,662.6,282.1,660.4,287.6,659.9z M306,665.9l-11.6,12.2c-1-0.7-2.1-1.2-3.4-1.4l0.4-16.8
				C297,660.3,302.1,662.5,306,665.9z M314.8,683.2l-16.8,0.4c-0.2-1.2-0.7-2.4-1.4-3.4l12.2-11.6
				C312.2,672.6,314.4,677.7,314.8,683.2z"/>
		</g>
	</g>
	<g>
		<path class="st10" d="M217.8,789.1h257.6c5.7,0,10.3-4.6,10.3-10.3v-5.3c0-5.7-4.6-10.3-10.3-10.3H217.8
			c-5.7,0-10.3,4.6-10.3,10.3v5.3C207.5,784.5,212.1,789.1,217.8,789.1z"/>
		<g>
			<path class="st10" d="M434.4,772.2c-0.8,0-1.6,0.3-2.2,0.7c-0.6-5.6-2.8-10.6-6.1-14.8c0.8-0.1,1.5-0.5,2.1-1.1
				c1.5-1.5,1.5-4,0-5.5s-4-1.5-5.5,0c-0.6,0.6-0.9,1.3-1.1,2.1c-4.1-3.3-9.2-5.5-14.8-6.1c0.4-0.6,0.7-1.4,0.7-2.2
				c0-2.2-1.8-3.9-3.9-3.9s-3.9,1.8-3.9,3.9c0,0.8,0.3,1.6,0.7,2.2c-5.6,0.6-10.6,2.8-14.8,6.1c-0.1-0.8-0.5-1.5-1.1-2.1
				c-1.5-1.5-4-1.5-5.5,0s-1.5,4,0,5.5c0.6,0.6,1.3,0.9,2.1,1.1c-3.3,4.1-5.5,9.2-6.1,14.8c-0.6-0.4-1.4-0.7-2.2-0.7
				c-2.2,0-3.9,1.8-3.9,3.9c0,2.2,1.8,3.9,3.9,3.9c0.8,0,1.6-0.3,2.2-0.7c0.6,5.6,2.8,10.6,6.1,14.8c-0.8,0.1-1.5,0.5-2.1,1.1
				c-1.5,1.5-1.5,4,0,5.5s4,1.5,5.5,0c0.6-0.6,0.9-1.3,1.1-2.1c4.1,3.3,9.2,5.5,14.8,6.1c-0.4,0.6-0.7,1.4-0.7,2.2
				c0,2.2,1.8,3.9,3.9,3.9s3.9-1.8,3.9-3.9c0-0.8-0.3-1.6-0.7-2.2c5.6-0.6,10.6-2.8,14.8-6.1c0.1,0.8,0.5,1.5,1.1,2.1
				c1.5,1.5,4,1.5,5.5,0s1.5-4,0-5.5c-0.6-0.6-1.3-0.9-2.1-1.1c3.3-4.1,5.5-9.2,6.1-14.8c0.6,0.4,1.4,0.7,2.2,0.7
				c2.2,0,3.9-1.8,3.9-3.9S436.6,772.2,434.4,772.2z M422.8,792.6L410.6,781c0.7-1,1.2-2.1,1.4-3.4l16.8,0.4
				C428.4,783.6,426.2,788.7,422.8,792.6z M405.5,801.4l-0.4-16.8c1.2-0.2,2.4-0.7,3.4-1.4l11.6,12.2
				C416.1,798.8,411.1,801,405.5,801.4z M387.1,795.4l11.6-12.2c1,0.7,2.1,1.2,3.4,1.4l-0.4,16.8C396.1,801,391.1,798.8,387.1,795.4
				z M378.3,778.1l16.8-0.4c0.2,1.2,0.7,2.4,1.4,3.4l-12.2,11.6C381,788.7,378.8,783.7,378.3,778.1z M384.3,759.7l12.2,11.6
				c-0.7,1-1.2,2.1-1.4,3.4l-16.8-0.4C378.7,768.7,380.9,763.7,384.3,759.7z M401.6,750.9l0.4,16.8c-1.2,0.2-2.4,0.7-3.4,1.4
				L387.1,757C391,753.6,396.1,751.4,401.6,750.9z M420,756.9l-11.6,12.2c-1-0.7-2.1-1.2-3.4-1.4l0.4-16.8
				C411,751.3,416.1,753.5,420,756.9z M428.8,774.2l-16.8,0.4c-0.2-1.2-0.7-2.4-1.4-3.4l12.2-11.6
				C426.2,763.6,428.4,768.7,428.8,774.2z"/>
			<path class="st10" d="M320.4,772.2c-0.8,0-1.6,0.3-2.2,0.7c-0.6-5.6-2.8-10.6-6.1-14.8c0.8-0.1,1.5-0.5,2.1-1.1
				c1.5-1.5,1.5-4,0-5.5s-4-1.5-5.5,0c-0.6,0.6-0.9,1.3-1.1,2.1c-4.1-3.3-9.2-5.5-14.8-6.1c0.4-0.6,0.7-1.4,0.7-2.2
				c0-2.2-1.8-3.9-3.9-3.9c-2.2,0-3.9,1.8-3.9,3.9c0,0.8,0.3,1.6,0.7,2.2c-5.6,0.6-10.6,2.8-14.8,6.1c-0.1-0.8-0.5-1.5-1.1-2.1
				c-1.5-1.5-4-1.5-5.5,0s-1.5,4,0,5.5c0.6,0.6,1.3,0.9,2.1,1.1c-3.3,4.1-5.5,9.2-6.1,14.8c-0.6-0.4-1.4-0.7-2.2-0.7
				c-2.2,0-3.9,1.8-3.9,3.9c0,2.2,1.8,3.9,3.9,3.9c0.8,0,1.6-0.3,2.2-0.7c0.6,5.6,2.8,10.6,6.1,14.8c-0.8,0.1-1.5,0.5-2.1,1.1
				c-1.5,1.5-1.5,4,0,5.5s4,1.5,5.5,0c0.6-0.6,0.9-1.3,1.1-2.1c4.1,3.3,9.2,5.5,14.8,6.1c-0.4,0.6-0.7,1.4-0.7,2.2
				c0,2.2,1.8,3.9,3.9,3.9c2.2,0,3.9-1.8,3.9-3.9c0-0.8-0.3-1.6-0.7-2.2c5.6-0.6,10.6-2.8,14.8-6.1c0.1,0.8,0.5,1.5,1.1,2.1
				c1.5,1.5,4,1.5,5.5,0s1.5-4,0-5.5c-0.6-0.6-1.3-0.9-2.1-1.1c3.3-4.1,5.5-9.2,6.1-14.8c0.6,0.4,1.4,0.7,2.2,0.7
				c2.2,0,3.9-1.8,3.9-3.9S322.6,772.2,320.4,772.2z M308.8,792.6L296.6,781c0.7-1,1.2-2.1,1.4-3.4l16.8,0.4
				C314.4,783.6,312.2,788.7,308.8,792.6z M291.6,801.4l-0.4-16.8c1.2-0.2,2.4-0.7,3.4-1.4l11.6,12.2
				C302.1,798.8,297.1,801,291.6,801.4z M273.1,795.4l11.6-12.2c1,0.7,2.1,1.2,3.4,1.4l-0.4,16.8C282.1,801,277.1,798.8,273.1,795.4
				z M264.3,778.1l16.8-0.4c0.2,1.2,0.7,2.4,1.4,3.4l-12.2,11.6C267,788.7,264.8,783.7,264.3,778.1z M270.3,759.7l12.2,11.6
				c-0.7,1-1.2,2.1-1.4,3.4l-16.8-0.4C264.8,768.7,266.9,763.7,270.3,759.7z M287.6,750.9l0.4,16.8c-1.2,0.2-2.4,0.7-3.4,1.4
				L273.1,757C277.1,753.6,282.1,751.4,287.6,750.9z M306,756.9l-11.6,12.2c-1-0.7-2.1-1.2-3.4-1.4l0.4-16.8
				C297,751.3,302.1,753.5,306,756.9z M314.8,774.2l-16.8,0.4c-0.2-1.2-0.7-2.4-1.4-3.4l12.2-11.6
				C312.2,763.6,314.4,768.7,314.8,774.2z"/>
		</g>
	</g>
	<g>
		<path class="st10" d="M694.7,659.8h257.6c5.7,0,10.3-4.6,10.3-10.3v-5.3c0-5.7-4.6-10.3-10.3-10.3H694.7
			c-5.7,0-10.3,4.6-10.3,10.3v5.3C684.5,655.2,689,659.8,694.7,659.8z"/>
		<g>
			<path class="st10" d="M911.3,643c-0.8,0-1.6,0.3-2.2,0.7c-0.6-5.6-2.8-10.6-6.1-14.8c0.8-0.1,1.5-0.5,2.1-1.1
				c1.5-1.5,1.5-4,0-5.5s-4-1.5-5.5,0c-0.6,0.6-0.9,1.3-1.1,2.1c-4.1-3.3-9.2-5.5-14.8-6.1c0.4-0.6,0.7-1.4,0.7-2.2
				c0-2.2-1.8-3.9-3.9-3.9c-2.2,0-3.9,1.8-3.9,3.9c0,0.8,0.3,1.6,0.7,2.2c-5.6,0.6-10.6,2.8-14.8,6.1c-0.1-0.8-0.5-1.5-1.1-2.1
				c-1.5-1.5-4-1.5-5.5,0s-1.5,4,0,5.5c0.6,0.6,1.3,0.9,2.1,1.1c-3.3,4.1-5.5,9.2-6.1,14.8c-0.6-0.4-1.4-0.7-2.2-0.7
				c-2.2,0-3.9,1.8-3.9,3.9s1.8,3.9,3.9,3.9c0.8,0,1.6-0.3,2.2-0.7c0.6,5.6,2.8,10.6,6.1,14.8c-0.8,0.1-1.5,0.5-2.1,1.1
				c-1.5,1.5-1.5,4,0,5.5s4,1.5,5.5,0c0.6-0.6,0.9-1.3,1.1-2.1c4.1,3.3,9.2,5.5,14.8,6.1c-0.4,0.6-0.7,1.4-0.7,2.2
				c0,2.2,1.8,3.9,3.9,3.9c2.2,0,3.9-1.8,3.9-3.9c0-0.8-0.3-1.6-0.7-2.2c5.6-0.6,10.6-2.8,14.8-6.1c0.1,0.8,0.5,1.5,1.1,2.1
				c1.5,1.5,4,1.5,5.5,0s1.5-4,0-5.5c-0.6-0.6-1.3-0.9-2.1-1.1c3.3-4.1,5.5-9.2,6.1-14.8c0.6,0.4,1.4,0.7,2.2,0.7
				c2.2,0,3.9-1.8,3.9-3.9C915.2,644.7,913.5,643,911.3,643z M899.7,663.4l-12.2-11.6c0.7-1,1.2-2.1,1.4-3.4l16.8,0.4
				C905.3,654.4,903.1,659.4,899.7,663.4z M882.5,672.2l-0.4-16.8c1.2-0.2,2.4-0.7,3.4-1.4l11.6,12.2
				C893,669.5,888,671.7,882.5,672.2z M864,666.2l11.6-12.2c1,0.7,2.1,1.2,3.4,1.4l-0.4,16.8C873,671.7,868,669.6,864,666.2z
				 M855.2,648.9l16.8-0.4c0.2,1.2,0.7,2.4,1.4,3.4l-12.2,11.6C857.9,659.4,855.7,654.4,855.2,648.9z M861.2,630.5l12.2,11.6
				c-0.7,1-1.2,2.1-1.4,3.4l-16.8-0.4C855.7,639.5,857.8,634.4,861.2,630.5z M878.5,621.7l0.4,16.8c-1.2,0.2-2.4,0.7-3.4,1.4
				L864,627.7C868,624.3,873,622.1,878.5,621.7z M896.9,627.7l-11.6,12.2c-1-0.7-2.1-1.2-3.4-1.4l0.4-16.8
				C887.9,622.1,893,624.3,896.9,627.7z M905.7,644.9l-16.8,0.4c-0.2-1.2-0.7-2.4-1.4-3.4l12.2-11.6
				C903.1,634.4,905.3,639.4,905.7,644.9z"/>
			<path class="st10" d="M797.3,643c-0.8,0-1.6,0.3-2.2,0.7c-0.6-5.6-2.8-10.6-6.1-14.8c0.8-0.1,1.5-0.5,2.1-1.1
				c1.5-1.5,1.5-4,0-5.5s-4-1.5-5.5,0c-0.6,0.6-0.9,1.3-1.1,2.1c-4.1-3.3-9.2-5.5-14.8-6.1c0.4-0.6,0.7-1.4,0.7-2.2
				c0-2.2-1.8-3.9-3.9-3.9c-2.2,0-3.9,1.8-3.9,3.9c0,0.8,0.3,1.6,0.7,2.2c-5.6,0.6-10.6,2.8-14.8,6.1c-0.1-0.8-0.5-1.5-1.1-2.1
				c-1.5-1.5-4-1.5-5.5,0s-1.5,4,0,5.5c0.6,0.6,1.3,0.9,2.1,1.1c-3.3,4.1-5.5,9.2-6.1,14.8c-0.6-0.4-1.4-0.7-2.2-0.7
				c-2.2,0-3.9,1.8-3.9,3.9s1.8,3.9,3.9,3.9c0.8,0,1.6-0.3,2.2-0.7c0.6,5.6,2.8,10.6,6.1,14.8c-0.8,0.1-1.5,0.5-2.1,1.1
				c-1.5,1.5-1.5,4,0,5.5s4,1.5,5.5,0c0.6-0.6,0.9-1.3,1.1-2.1c4.1,3.3,9.2,5.5,14.8,6.1c-0.4,0.6-0.7,1.4-0.7,2.2
				c0,2.2,1.8,3.9,3.9,3.9c2.2,0,3.9-1.8,3.9-3.9c0-0.8-0.3-1.6-0.7-2.2c5.6-0.6,10.6-2.8,14.8-6.1c0.1,0.8,0.5,1.5,1.1,2.1
				c1.5,1.5,4,1.5,5.5,0s1.5-4,0-5.5c-0.6-0.6-1.3-0.9-2.1-1.1c3.3-4.1,5.5-9.2,6.1-14.8c0.6,0.4,1.4,0.7,2.2,0.7
				c2.2,0,3.9-1.8,3.9-3.9C801.2,644.7,799.5,643,797.3,643z M785.7,663.4l-12.2-11.6c0.7-1,1.2-2.1,1.4-3.4l16.8,0.4
				C791.3,654.4,789.1,659.4,785.7,663.4z M768.5,672.2l-0.4-16.8c1.2-0.2,2.4-0.7,3.4-1.4l11.6,12.2
				C779,669.5,774,671.7,768.5,672.2z M750,666.2l11.6-12.2c1,0.7,2.1,1.2,3.4,1.4l-0.4,16.8C759.1,671.7,754,669.6,750,666.2z
				 M741.3,648.9l16.8-0.4c0.2,1.2,0.7,2.4,1.4,3.4l-12.2,11.6C743.9,659.4,741.7,654.4,741.3,648.9z M747.3,630.5l12.2,11.6
				c-0.7,1-1.2,2.1-1.4,3.4l-16.8-0.4C741.7,639.5,743.9,634.4,747.3,630.5z M764.5,621.7l0.4,16.8c-1.2,0.2-2.4,0.7-3.4,1.4
				L750,627.7C754,624.3,759,622.1,764.5,621.7z M783,627.7l-11.6,12.2c-1-0.7-2.1-1.2-3.4-1.4l0.4-16.8
				C774,622.1,779,624.3,783,627.7z M791.7,644.9l-16.8,0.4c-0.2-1.2-0.7-2.4-1.4-3.4l12.2-11.6
				C789.1,634.4,791.3,639.4,791.7,644.9z"/>
		</g>
	</g>
	<g>
		<path class="st10" d="M694.7,766.4h257.6c5.7,0,10.3-4.6,10.3-10.3v-5.3c0-5.7-4.6-10.3-10.3-10.3H694.7
			c-5.7,0-10.3,4.6-10.3,10.3v5.3C684.5,761.8,689,766.4,694.7,766.4z"/>
		<g>
			<path class="st10" d="M911.3,749.6c-0.8,0-1.6,0.3-2.2,0.7c-0.6-5.6-2.8-10.6-6.1-14.8c0.8-0.1,1.5-0.5,2.1-1.1
				c1.5-1.5,1.5-4,0-5.5s-4-1.5-5.5,0c-0.6,0.6-0.9,1.3-1.1,2.1c-4.1-3.3-9.2-5.5-14.8-6.1c0.4-0.6,0.7-1.4,0.7-2.2
				c0-2.2-1.8-3.9-3.9-3.9c-2.2,0-3.9,1.8-3.9,3.9c0,0.8,0.3,1.6,0.7,2.2c-5.6,0.6-10.6,2.8-14.8,6.1c-0.1-0.8-0.5-1.5-1.1-2.1
				c-1.5-1.5-4-1.5-5.5,0s-1.5,4,0,5.5c0.6,0.6,1.3,0.9,2.1,1.1c-3.3,4.1-5.5,9.2-6.1,14.8c-0.6-0.4-1.4-0.7-2.2-0.7
				c-2.2,0-3.9,1.8-3.9,3.9c0,2.2,1.8,3.9,3.9,3.9c0.8,0,1.6-0.3,2.2-0.7c0.6,5.6,2.8,10.6,6.1,14.8c-0.8,0.1-1.5,0.5-2.1,1.1
				c-1.5,1.5-1.5,4,0,5.5s4,1.5,5.5,0c0.6-0.6,0.9-1.3,1.1-2.1c4.1,3.3,9.2,5.5,14.8,6.1c-0.4,0.6-0.7,1.4-0.7,2.2
				c0,2.2,1.8,3.9,3.9,3.9c2.2,0,3.9-1.8,3.9-3.9c0-0.8-0.3-1.6-0.7-2.2c5.6-0.6,10.6-2.8,14.8-6.1c0.1,0.8,0.5,1.5,1.1,2.1
				c1.5,1.5,4,1.5,5.5,0s1.5-4,0-5.5c-0.6-0.6-1.3-0.9-2.1-1.1c3.3-4.1,5.5-9.2,6.1-14.8c0.6,0.4,1.4,0.7,2.2,0.7
				c2.2,0,3.9-1.8,3.9-3.9C915.2,751.3,913.5,749.6,911.3,749.6z M899.7,770l-12.2-11.6c0.7-1,1.2-2.1,1.4-3.4l16.8,0.4
				C905.3,760.9,903.1,766,899.7,770z M882.5,778.7l-0.4-16.8c1.2-0.2,2.4-0.7,3.4-1.4l11.6,12.2C893,776.1,888,778.3,882.5,778.7z
				 M864,772.7l11.6-12.2c1,0.7,2.1,1.2,3.4,1.4l-0.4,16.8C873,778.3,868,776.1,864,772.7z M855.2,755.5l16.8-0.4
				c0.2,1.2,0.7,2.4,1.4,3.4L861.3,770C857.9,766,855.7,761,855.2,755.5z M861.2,737l12.2,11.6c-0.7,1-1.2,2.1-1.4,3.4l-16.8-0.4
				C855.7,746,857.8,741,861.2,737z M878.5,728.3l0.4,16.8c-1.2,0.2-2.4,0.7-3.4,1.4L864,734.3C868,730.9,873,728.7,878.5,728.3z
				 M896.9,734.3l-11.6,12.2c-1-0.7-2.1-1.2-3.4-1.4l0.4-16.8C887.9,728.7,893,730.9,896.9,734.3z M905.7,751.5l-16.8,0.4
				c-0.2-1.2-0.7-2.4-1.4-3.4l12.2-11.6C903.1,741,905.3,746,905.7,751.5z"/>
			<path class="st10" d="M797.3,749.6c-0.8,0-1.6,0.3-2.2,0.7c-0.6-5.6-2.8-10.6-6.1-14.8c0.8-0.1,1.5-0.5,2.1-1.1
				c1.5-1.5,1.5-4,0-5.5s-4-1.5-5.5,0c-0.6,0.6-0.9,1.3-1.1,2.1c-4.1-3.3-9.2-5.5-14.8-6.1c0.4-0.6,0.7-1.4,0.7-2.2
				c0-2.2-1.8-3.9-3.9-3.9c-2.2,0-3.9,1.8-3.9,3.9c0,0.8,0.3,1.6,0.7,2.2c-5.6,0.6-10.6,2.8-14.8,6.1c-0.1-0.8-0.5-1.5-1.1-2.1
				c-1.5-1.5-4-1.5-5.5,0s-1.5,4,0,5.5c0.6,0.6,1.3,0.9,2.1,1.1c-3.3,4.1-5.5,9.2-6.1,14.8c-0.6-0.4-1.4-0.7-2.2-0.7
				c-2.2,0-3.9,1.8-3.9,3.9c0,2.2,1.8,3.9,3.9,3.9c0.8,0,1.6-0.3,2.2-0.7c0.6,5.6,2.8,10.6,6.1,14.8c-0.8,0.1-1.5,0.5-2.1,1.1
				c-1.5,1.5-1.5,4,0,5.5s4,1.5,5.5,0c0.6-0.6,0.9-1.3,1.1-2.1c4.1,3.3,9.2,5.5,14.8,6.1c-0.4,0.6-0.7,1.4-0.7,2.2
				c0,2.2,1.8,3.9,3.9,3.9s3.9-1.8,3.9-3.9c0-0.8-0.3-1.6-0.7-2.2c5.6-0.6,10.6-2.8,14.8-6.1c0.1,0.8,0.5,1.5,1.1,2.1
				c1.5,1.5,4,1.5,5.5,0s1.5-4,0-5.5c-0.6-0.6-1.3-0.9-2.1-1.1c3.3-4.1,5.5-9.2,6.1-14.8c0.6,0.4,1.4,0.7,2.2,0.7
				c2.2,0,3.9-1.8,3.9-3.9S799.5,749.6,797.3,749.6z M785.7,770l-12.2-11.6c0.7-1,1.2-2.1,1.4-3.4l16.8,0.4
				C791.3,760.9,789.1,766,785.7,770z M768.5,778.7l-0.4-16.8c1.2-0.2,2.4-0.7,3.4-1.4l11.6,12.2C779,776.1,774,778.3,768.5,778.7z
				 M750,772.7l11.6-12.2c1,0.7,2.1,1.2,3.4,1.4l-0.4,16.8C759.1,778.3,754,776.1,750,772.7z M741.3,755.5l16.8-0.4
				c0.2,1.2,0.7,2.4,1.4,3.4L747.3,770C743.9,766,741.7,761,741.3,755.5z M747.3,737l12.2,11.6c-0.7,1-1.2,2.1-1.4,3.4l-16.8-0.4
				C741.7,746,743.9,741,747.3,737z M764.5,728.3l0.4,16.8c-1.2,0.2-2.4,0.7-3.4,1.4L750,734.3C754,730.9,759,728.7,764.5,728.3z
				 M783,734.3l-11.6,12.2c-1-0.7-2.1-1.2-3.4-1.4l0.4-16.8C774,728.7,779,730.9,783,734.3z M791.7,751.5l-16.8,0.4
				c-0.2-1.2-0.7-2.4-1.4-3.4l12.2-11.6C789.1,741,791.3,746,791.7,751.5z"/>
		</g>
	</g>
</g>
<g id="图层_4">
	<g>
		<g>
			<g>
				<g>
					<path class="st11" d="M969.5,46.6h-12.2c-1.4,0-2.6-0.5-3.5-1.4s-1.5-2.2-1.5-3.6V29.4c0-1.4,0.6-2.7,1.5-3.6s2.2-1.5,3.6-1.5
						h12.2c1.4,0,2.7,0.6,3.6,1.5c0.9,0.9,1.5,2.2,1.5,3.6v12.2c0,1.4-0.6,2.7-1.5,3.6C972.2,46,970.9,46.6,969.5,46.6z"/>
					<path class="st9" d="M969.5,46.9h-12.2c-1.4,0-2.7-0.5-3.7-1.5c-1.1-1-1.6-2.4-1.6-3.9V29.4c0-1.4,0.6-2.8,1.6-3.8
						s2.4-1.6,3.8-1.6h12.2c1.4,0,2.8,0.6,3.8,1.6s1.6,2.4,1.6,3.8v12.2c0,1.4-0.6,2.8-1.6,3.8C972.3,46.4,971,46.9,969.5,46.9z
						 M957.4,24.6c-1.3,0-2.5,0.5-3.4,1.4s-1.4,2.1-1.4,3.4v12.2c0,1.3,0.5,2.5,1.4,3.4s2.1,1.3,3.3,1.3h12.2c1.3,0,2.5-0.5,3.4-1.4
						s1.4-2.1,1.4-3.4V29.4c0-1.3-0.5-2.5-1.4-3.4s-2.1-1.4-3.4-1.4H957.4z"/>
				</g>
				<path class="st9" d="M957.5,29.5v11.9h11.9V29.5H957.5z M968.3,36.9c-0.2-0.1-0.4-0.2-0.7-0.2c-0.6,0-1.3,0.4-1.6,0.4
					c-0.4,0-0.7-0.4-1.3-0.4c-0.5,0-1.1,0.4-1.4,0.4c-0.3,0-1-0.4-1.4-0.4s-1.3,0.4-1.5,0.4s-1-0.4-1.5-0.4c-0.2,0-0.3,0-0.5,0.1
					v-0.6c0.3-0.1,0.6-0.2,0.9-0.2c0.5,0,0.9,0.3,1.3,0.3s1-0.3,1.5-0.3c0.4,0,0.9,0.3,1.3,0.3c0.4,0,1.1-0.3,1.5-0.3s1,0.3,1.4,0.3
					s1.2-0.4,1.4-0.4c0.1,0,0.4,0.1,0.7,0.2v0.8C968.4,36.9,968.3,36.9,968.3,36.9z M959.4,37.7c0.5,0,0.8,0.3,1.3,0.3
					c0.4,0,1-0.3,1.5-0.3c0.4,0,0.9,0.3,1.3,0.3c0.4,0,1.1-0.3,1.5-0.3s1,0.3,1.4,0.3s1.2-0.4,1.4-0.4c0.1,0,0.4,0.1,0.7,0.2v0.8
					c-0.2-0.1-0.4-0.2-0.7-0.2c-0.6,0-1.3,0.4-1.6,0.4c-0.4,0-0.7-0.4-1.3-0.4c-0.5,0-1.1,0.4-1.4,0.4c-0.3,0-1-0.4-1.4-0.4
					s-1.3,0.4-1.5,0.4s-1-0.4-1.5-0.4c-0.2,0-0.3,0-0.5,0.1v-0.6C958.8,37.8,959.1,37.7,959.4,37.7z M968.3,30.5v4.7
					c-0.2-0.1-0.4-0.2-0.7-0.2c-0.6,0-1.3,0.4-1.6,0.4c-0.4,0-0.7-0.4-1.3-0.4c-0.5,0-1.1,0.4-1.4,0.4c-0.3,0-1-0.4-1.4-0.4
					s-1.3,0.4-1.5,0.4s-1-0.4-1.5-0.4c-0.2,0-0.3,0-0.5,0.1v-4.6C958.4,30.5,968.3,30.5,968.3,30.5z M958.5,40.4v-0.8
					c0.3-0.1,0.6-0.2,0.9-0.2c0.5,0,0.8,0.3,1.3,0.3c0.4,0,1-0.3,1.5-0.3c0.4,0,0.9,0.3,1.3,0.3c0.4,0,1.1-0.3,1.5-0.3
					s1,0.3,1.4,0.3s1.2-0.4,1.4-0.4c0.1,0,0.4,0.1,0.7,0.2v1L958.5,40.4L958.5,40.4z"/>
			</g>
			<g>
				<g class="st8">
					<path class="st12" d="M984.9,31.7v1.7c-0.6,3.2-2.1,5.7-4.3,7.7c-0.3-0.8-0.7-1.4-1-1.9c1.7-1.4,2.8-3.3,3.5-5.6h-3v-1.8h4.8
						V31.7z M993,31.8c-1,1-2.2,2.1-3.5,3.1c1,1.6,2.3,2.8,3.8,3.8c-0.4,0.5-0.7,1.1-1.1,1.9c-1.9-1.4-3.4-3.3-4.6-5.9v4.9
						c0,0.6-0.1,1.1-0.4,1.5c-0.3,0.4-0.7,0.6-1.2,0.7c-0.5,0.1-1.4,0.1-2.7,0.1c-0.1-0.8-0.3-1.5-0.5-2.1c0.7,0.1,1.3,0.1,2,0.1
						c0.6,0,0.9-0.4,0.9-1.1v-10h1.9v2.3c0.3,0.8,0.6,1.6,1,2.3c1.1-1,2.1-2,2.9-2.9L993,31.8z"/>
					<path class="st12" d="M994.8,32.4c0.7,0.5,1.4,1.1,2.2,1.7l-1.2,1.5c-0.3-0.3-1-0.9-2.1-1.9L994.8,32.4z M995.3,36.4
						c0.6,0.2,1.2,0.5,1.8,0.6c-0.4,1.6-0.8,3.2-1.3,5c-0.6-0.2-1.2-0.4-1.8-0.6C994.5,39.8,994.9,38.1,995.3,36.4z M995.2,28.8
						c0.8,0.5,1.6,1.1,2.4,1.7l-1.4,1.4c-0.7-0.7-1.5-1.3-2.2-2L995.2,28.8z M997.2,37.3v-2.6h9.8v2.6h-1.3V38
						c-0.5,0.7-1.2,1.4-1.9,1.9c1,0.3,2.2,0.5,3.5,0.5c-0.2,0.7-0.5,1.3-0.6,1.7c-1.8-0.2-3.3-0.6-4.6-1.2c-1.2,0.6-2.6,1-4.3,1.4
						c-0.2-0.5-0.5-1-0.8-1.6c1.4-0.2,2.5-0.4,3.5-0.7c-0.5-0.4-1-0.9-1.4-1.4l0.9-0.5h-1.4v-0.7h-1.4V37.3z M997.8,33h6.7v-0.5
						h-6.2v-1.3h6.2v-0.5H998v-1.3h8.4v4.9h-8.5V33H997.8z M1005.2,36h-6.3v0.6h6.3V36z M1002,39.2c0.7-0.4,1.2-0.8,1.6-1.2h-3.3
						C1000.9,38.5,1001.4,38.9,1002,39.2z"/>
					<path class="st12" d="M1023.5,37.7c0.8,0.3,1.5,0.5,1.9,0.7c-0.2,1.1-0.4,1.9-0.6,2.3c-0.2,0.4-0.5,0.7-0.8,0.9
						c-0.4,0.2-0.9,0.3-1.5,0.3h-1.7c-1.5,0-2.2-0.7-2.2-2v-3.6c-0.7,2.4-2.4,4.3-5.2,5.9c-0.5-0.5-1-1-1.6-1.5
						c2.9-1.6,4.6-3.4,5.1-5.4h-4.9v-1.8h5.3c0.1-0.6,0.1-1.4,0.2-2.2h-4.6v-1.8h11.6v1.8h-4.9c0,0.8-0.1,1.5-0.2,2.2h6v1.8h-6.3
						c-0.1,0.3-0.1,0.6-0.2,0.9h1.9v3c0,0.6,0.3,1,1,1h0.4c0.2,0,0.5,0,0.7-0.1s0.4-0.3,0.5-0.7S1023.5,38.4,1023.5,37.7z"/>
				</g>
			</g>
		</g>
		<g>
			<g>
				<g>
					<path class="st13" d="M1061.6,46.6h-12.2c-1.4,0-2.6-0.5-3.5-1.4s-1.5-2.2-1.5-3.6V29.4c0-1.4,0.6-2.7,1.5-3.6s2.2-1.5,3.6-1.5
						h12.2c1.4,0,2.7,0.6,3.6,1.5s1.5,2.2,1.5,3.6v12.2c0,1.4-0.6,2.7-1.5,3.6C1064.2,46,1063,46.6,1061.6,46.6z"/>
					<path class="st9" d="M1061.6,46.9h-12.2c-1.4,0-2.7-0.5-3.7-1.5c-1.1-1-1.6-2.4-1.6-3.9V29.4c0-1.4,0.6-2.8,1.6-3.8
						s2.4-1.6,3.8-1.6h12.2c1.4,0,2.8,0.6,3.8,1.6s1.6,2.4,1.6,3.8v12.2c0,1.4-0.6,2.8-1.6,3.8C1064.3,46.4,1063,46.9,1061.6,46.9z
						 M1049.4,24.6c-1.3,0-2.5,0.5-3.4,1.4s-1.4,2.1-1.4,3.4v12.2c0,1.3,0.5,2.5,1.4,3.4s2.1,1.3,3.3,1.3h12.2
						c1.3,0,2.5-0.5,3.4-1.4s1.4-2.1,1.4-3.4V29.4c0-1.3-0.5-2.5-1.4-3.4s-2.1-1.4-3.4-1.4H1049.4z"/>
				</g>
				<path class="st9" d="M1049.5,29.5v11.9h11.9V29.5H1049.5z M1060.4,36.9c-0.2-0.1-0.4-0.2-0.7-0.2c-0.6,0-1.3,0.4-1.6,0.4
					c-0.4,0-0.7-0.4-1.3-0.4c-0.5,0-1.1,0.4-1.4,0.4s-1-0.4-1.4-0.4s-1.3,0.4-1.5,0.4s-1-0.4-1.5-0.4c-0.2,0-0.3,0-0.5,0.1v-0.6
					c0.3-0.1,0.6-0.2,0.9-0.2c0.5,0,0.9,0.3,1.3,0.3s1-0.3,1.5-0.3c0.4,0,0.9,0.3,1.3,0.3s1.1-0.3,1.5-0.3s1,0.3,1.4,0.3
					s1.2-0.4,1.4-0.4c0.1,0,0.4,0.1,0.7,0.2v0.8C1060.5,36.9,1060.4,36.9,1060.4,36.9z M1051.4,37.7c0.5,0,0.8,0.3,1.3,0.3
					c0.4,0,1-0.3,1.5-0.3c0.4,0,0.9,0.3,1.3,0.3s1.1-0.3,1.5-0.3s1,0.3,1.4,0.3s1.2-0.4,1.4-0.4c0.1,0,0.4,0.1,0.7,0.2v0.8
					c-0.2-0.1-0.4-0.2-0.7-0.2c-0.6,0-1.3,0.4-1.6,0.4c-0.4,0-0.7-0.4-1.3-0.4c-0.5,0-1.1,0.4-1.4,0.4s-1-0.4-1.4-0.4
					s-1.3,0.4-1.5,0.4s-1-0.4-1.5-0.4c-0.2,0-0.3,0-0.5,0.1v-0.6C1050.8,37.8,1051.2,37.7,1051.4,37.7z M1060.4,30.5v4.7
					c-0.2-0.1-0.4-0.2-0.7-0.2c-0.6,0-1.3,0.4-1.6,0.4c-0.4,0-0.7-0.4-1.3-0.4c-0.5,0-1.1,0.4-1.4,0.4s-1-0.4-1.4-0.4
					s-1.3,0.4-1.5,0.4s-1-0.4-1.5-0.4c-0.2,0-0.3,0-0.5,0.1v-4.6C1050.5,30.5,1060.4,30.5,1060.4,30.5z M1050.6,40.4v-0.8
					c0.3-0.1,0.6-0.2,0.9-0.2c0.5,0,0.8,0.3,1.3,0.3c0.4,0,1-0.3,1.5-0.3c0.4,0,0.9,0.3,1.3,0.3s1.1-0.3,1.5-0.3s1,0.3,1.4,0.3
					s1.2-0.4,1.4-0.4c0.1,0,0.4,0.1,0.7,0.2v1L1050.6,40.4L1050.6,40.4z"/>
			</g>
			<g>
				<g class="st8">
					<path class="st12" d="M1077,31.7v1.7c-0.6,3.2-2.1,5.7-4.3,7.7c-0.3-0.8-0.7-1.4-1-1.9c1.7-1.4,2.8-3.3,3.5-5.6h-3v-1.8h4.8
						V31.7z M1085,31.8c-1,1-2.2,2.1-3.5,3.1c1,1.6,2.3,2.8,3.8,3.8c-0.4,0.5-0.7,1.1-1.1,1.9c-1.9-1.4-3.4-3.3-4.6-5.9v4.9
						c0,0.6-0.1,1.1-0.4,1.5s-0.7,0.6-1.2,0.7c-0.5,0.1-1.4,0.1-2.7,0.1c-0.1-0.8-0.3-1.5-0.5-2.1c0.7,0.1,1.3,0.1,2,0.1
						c0.6,0,0.9-0.4,0.9-1.1v-10h1.9v2.3c0.3,0.8,0.6,1.6,1,2.3c1.1-1,2.1-2,2.9-2.9L1085,31.8z"/>
					<path class="st12" d="M1086.9,32.4c0.7,0.5,1.4,1.1,2.2,1.7l-1.2,1.5c-0.3-0.3-1-0.9-2.1-1.9L1086.9,32.4z M1087.3,36.4
						c0.6,0.2,1.2,0.5,1.8,0.6c-0.4,1.6-0.8,3.2-1.3,5c-0.6-0.2-1.2-0.4-1.8-0.6C1086.5,39.8,1086.9,38.1,1087.3,36.4z M1087.3,28.8
						c0.8,0.5,1.6,1.1,2.4,1.7l-1.4,1.4c-0.7-0.7-1.5-1.3-2.2-2L1087.3,28.8z M1089.2,37.3v-2.6h9.8v2.6h-1.3V38
						c-0.5,0.7-1.2,1.4-1.9,1.9c1,0.3,2.2,0.5,3.5,0.5c-0.2,0.7-0.5,1.3-0.6,1.7c-1.8-0.2-3.3-0.6-4.6-1.2c-1.2,0.6-2.6,1-4.3,1.4
						c-0.2-0.5-0.5-1-0.8-1.6c1.4-0.2,2.5-0.4,3.5-0.7c-0.5-0.4-1-0.9-1.4-1.4l0.9-0.5h-1.4v-0.7h-1.4V37.3z M1089.8,33h6.7v-0.5
						h-6.2v-1.3h6.2v-0.5h-6.5v-1.3h8.4v4.9h-8.5L1089.8,33L1089.8,33z M1097.3,36h-6.3v0.6h6.3V36z M1094.1,39.2
						c0.7-0.4,1.2-0.8,1.6-1.2h-3.3C1092.9,38.5,1093.5,38.9,1094.1,39.2z"/>
					<path class="st12" d="M1108.3,42.2h-2v-6c-0.6,0.6-1.3,1.2-1.9,1.8c-0.1-0.7-0.3-1.4-0.5-2.1c1.4-1.2,2.5-2.5,3.3-3.9h-3.2
						v-1.7h4c0.2-0.5,0.4-1,0.5-1.5l2.2,0.3c-0.2,0.4-0.3,0.8-0.5,1.2h7.1V32h-7.9c-0.2,0.3-0.4,0.7-0.6,1h7.2v7.4
						c0,0.6-0.1,1-0.4,1.3s-0.7,0.5-1.1,0.5c-0.5,0-1.4,0.1-2.8,0.1c-0.1-0.6-0.3-1.2-0.5-1.9c0.8,0,1.5,0.1,2.2,0.1
						c0.5,0,0.8-0.3,0.8-0.8v-0.2h-5.8L1108.3,42.2L1108.3,42.2z M1114.1,34.5h-5.8v1h5.8V34.5z M1108.3,37.9h5.8v-1h-5.8V37.9z"/>
				</g>
			</g>
		</g>
		<g>
			<g>
				<g>
					<path class="st13" d="M877.5,46.6h-12.2c-1.4,0-2.7-0.6-3.6-1.5c-0.9-0.9-1.5-2.2-1.5-3.6V29.3c0-1.5,0.6-2.8,1.6-3.7
						c0.9-0.8,2.1-1.3,3.4-1.3h12.2c1.4,0,2.7,0.6,3.6,1.5c0.9,0.9,1.5,2.2,1.5,3.6v12.2c0,1.3-0.5,2.4-1.2,3.3
						C880.4,45.9,879,46.6,877.5,46.6z"/>
					<path class="st9" d="M877.5,46.9h-12.2c-3,0-5.4-2.4-5.4-5.4V29.3c0-3,2.4-5.4,5.4-5.4h12.2c3,0,5.4,2.4,5.4,5.4v12.2
						C882.9,44.5,880.5,46.9,877.5,46.9z M865.3,24.6c-2.6,0-4.8,2.1-4.8,4.8v12.2c0,2.6,2.1,4.8,4.8,4.8h12.2
						c2.6,0,4.8-2.1,4.8-4.8V29.3c0-2.6-2.1-4.8-4.8-4.8h-12.2V24.6z"/>
				</g>
				<g>
					<g transform="scale(0.1953125, 0.1953125)">
						<path class="st9" d="M4493.5,192.4v10.4h-63.7v-10.4h5.3l0.1-20.1c1.1-10,12.5-17.9,26.4-17.9s25.3,7.9,26.4,17.9l0.1,20.1
							H4493.5L4493.5,192.4z M4449.8,172.3h-7.4v20h7.4V172.3z M4465.1,172.3h-7.4v20h7.4V172.3L4465.1,172.3z M4480.4,172.3h-7.4
							v20h7.4V172.3z"/>
					</g>
				</g>
			</g>
			<g>
				<g class="st8">
					<path class="st12" d="M891.8,30.7l0.6,0.6V29h8.4v12.9h-1.6v-0.7H894v0.7h-1.6v-2.6l-1,0.8c-0.3-0.5-0.6-1.1-0.9-1.6
						c-0.4,1.3-0.9,2.4-1.6,3.3c-0.4-0.5-0.8-1-1.3-1.5c0.9-1.1,1.5-2.9,1.7-5.3l-1.2,0.2c-0.1-1.4-0.3-2.8-0.5-4.3l1.2-0.2l0.6,3.9
						c0-0.6,0.1-1.2,0.1-1.8v-4.5h1.5v3.4C891.3,31.5,891.6,31.1,891.8,30.7z M890.9,36.6c0.6,0.6,1.1,1.2,1.5,1.8v-6
						c-0.5,0.5-0.9,1-1.3,1.5C891,34.8,891,35.8,890.9,36.6z M895.8,31h1.6c0,0.5,0,1,0,1.4h1.4V34h-1.5c0,0.3-0.1,0.7-0.2,1
						l0.6-0.2c0.4,0.9,0.9,1.9,1.5,3.2v-7.4H894v7.3c0.8-0.9,1.4-2.2,1.6-3.8h-1.2v-1.6h1.4C895.8,32,895.8,31.5,895.8,31z
						 M896.8,36.2c-0.4,1.2-0.9,2.2-1.7,3c-0.4-0.5-0.8-0.9-1.1-1.2v1.6h5.2v-1.3l-1.3,0.6C897.5,38.1,897.2,37.2,896.8,36.2z"/>
					<path class="st12" d="M902.9,29.7h6.9c0-0.4,0-0.8,0-1.2h1.7c0,0.4,0,0.8,0,1.2h1c-0.2-0.3-0.3-0.5-0.4-0.8l1.5-0.4
						c0.3,0.5,0.5,0.9,0.7,1.2h0.9v1.6h-3.5c0.1,0.9,0.2,1.8,0.4,2.4c0.4-0.6,0.8-1.2,1.1-1.9l1.4,0.8c-0.6,1.1-1.2,2.1-1.9,2.9
						c0.2,0.4,0.4,0.6,0.6,0.6c0.2,0,0.3-0.2,0.4-0.5c0.1-0.3,0.2-0.7,0.3-1.3c0.5,0.3,1,0.6,1.5,0.8c-0.2,1-0.5,1.7-0.7,2.1
						c-0.2,0.4-0.5,0.6-0.9,0.7c0.5,0.7,1.1,1.5,1.5,2.2l-1.5,0.9c-0.5-0.9-1-1.8-1.6-2.6l0.9-0.5c-0.7,0-1.3-0.4-1.8-1.1
						c-0.3,0.3-0.6,0.6-1,0.9c-0.3-0.4-0.6-0.7-0.8-1V37h-0.8c0.5,0.6,0.9,1.1,1.4,1.7l-1.4,1c-0.4-0.6-0.9-1.3-1.5-2.1l0.9-0.6H905
						v-3.4h4.5v2.7c0.4-0.3,0.7-0.6,1.1-1c-0.3-1-0.6-2.3-0.7-4.1h-5.2V33c0,1.9-0.3,3.5-1,4.6l1.2,0.4c-0.4,1.1-0.9,2.2-1.5,3.3
						l-1.6-0.8c0.5-0.9,0.9-1.7,1.1-2.5c-0.4-0.4-0.8-0.8-1.2-1.1c0.8-0.9,1.2-2.4,1.2-4.3L902.9,29.7L902.9,29.7z M909.5,33.1H905
						v-1.2h4.6L909.5,33.1L909.5,33.1z M910.8,38.4c0.6,0.4,1.2,0.6,1.8,0.9c-0.4,1.2-0.8,1.9-1.2,2.1c-0.4,0.2-0.9,0.4-1.5,0.4H907
						c-1.4,0-2-0.6-2-1.7v-2.2h1.8v1.7c0,0.4,0.3,0.6,0.8,0.6h1.8c0.5,0,0.8-0.1,1-0.3S910.7,39.2,910.8,38.4z M908,35.8v-0.9h-1.5
						v0.9H908z"/>
					<path class="st12" d="M924.2,41.9h-2v-6c-0.6,0.6-1.3,1.2-1.9,1.8c-0.1-0.7-0.3-1.4-0.5-2.1c1.4-1.2,2.5-2.5,3.3-3.9H920V30h4
						c0.2-0.5,0.4-1,0.5-1.5l2.2,0.3c-0.2,0.4-0.3,0.8-0.5,1.2h7.1v1.7h-7.9c-0.2,0.3-0.4,0.7-0.6,1h7.2V40c0,0.6-0.1,1-0.4,1.3
						c-0.3,0.3-0.7,0.5-1.1,0.5s-1.4,0.1-2.9,0.1c-0.1-0.6-0.3-1.2-0.5-1.9c0.8,0,1.5,0.1,2.2,0.1c0.5,0,0.8-0.3,0.8-0.8v-0.2h-5.8
						L924.2,41.9L924.2,41.9z M930.1,34.2h-5.8v1h5.8V34.2z M924.2,37.6h5.8v-1h-5.8V37.6z"/>
				</g>
			</g>
		</g>
		<g>
			<g>
				<g>
					<path class="st11" d="M785.5,46.6h-12.2c-1.4,0-2.7-0.6-3.6-1.5c-0.9-0.9-1.5-2.2-1.5-3.6V29.3c0-1.5,0.6-2.8,1.6-3.7
						c0.9-0.8,2.1-1.3,3.4-1.3h12.2c1.4,0,2.7,0.6,3.6,1.5c0.9,0.9,1.5,2.2,1.5,3.6v12.2c0,1.3-0.5,2.4-1.2,3.3
						C788.4,45.9,787,46.6,785.5,46.6z"/>
					<path class="st9" d="M785.5,46.9h-12.2c-3,0-5.4-2.4-5.4-5.4V29.3c0-3,2.4-5.4,5.4-5.4h12.2c3,0,5.4,2.4,5.4,5.4v12.2
						C790.9,44.5,788.4,46.9,785.5,46.9z M773.3,24.6c-2.6,0-4.8,2.1-4.8,4.8v12.2c0,2.6,2.1,4.8,4.8,4.8h12.2
						c2.6,0,4.8-2.1,4.8-4.8V29.3c0-2.6-2.1-4.8-4.8-4.8h-12.2V24.6z"/>
				</g>
				<g>
					<g transform="scale(0.1953125, 0.1953125)">
						<path class="st9" d="M4022.3,192.4v10.4h-63.7v-10.4h5.3l0.1-20.1c1.1-10,12.5-17.9,26.4-17.9s25.3,7.9,26.4,17.9l0.1,20.1
							H4022.3L4022.3,192.4z M3978.6,172.3h-7.4v20h7.4V172.3z M3993.9,172.3h-7.4v20h7.4V172.3L3993.9,172.3z M4009.2,172.3h-7.4
							v20h7.4V172.3z"/>
					</g>
				</g>
			</g>
			<g>
				<g class="st8">
					<path class="st12" d="M799.8,30.7l0.6,0.6V29h8.4v12.9h-1.6v-0.7H802v0.7h-1.6v-2.6l-1,0.8c-0.3-0.5-0.6-1.1-0.9-1.6
						c-0.4,1.3-0.9,2.4-1.6,3.3c-0.4-0.5-0.8-1-1.3-1.5c0.9-1.1,1.5-2.9,1.7-5.3l-1.2,0.2c-0.1-1.4-0.3-2.8-0.5-4.3l1.2-0.2l0.6,3.9
						c0-0.6,0.1-1.2,0.1-1.8v-4.5h1.5v3.4C799.3,31.5,799.5,31.1,799.8,30.7z M798.8,36.6c0.6,0.6,1.1,1.2,1.5,1.8v-6
						c-0.5,0.5-0.9,1-1.3,1.5C799,34.8,798.9,35.8,798.8,36.6z M803.7,31h1.6c0,0.5,0,1,0,1.4h1.4V34h-1.5c0,0.3-0.1,0.7-0.2,1
						l0.6-0.2c0.4,0.9,0.9,1.9,1.5,3.2v-7.4H802v7.3c0.8-0.9,1.4-2.2,1.6-3.8h-1.2v-1.6h1.4C803.7,32,803.7,31.5,803.7,31z
						 M804.7,36.2c-0.4,1.2-0.9,2.2-1.7,3c-0.4-0.5-0.8-0.9-1.1-1.2v1.6h5.2v-1.3l-1.3,0.6C805.5,38.1,805.1,37.2,804.7,36.2z"/>
					<path class="st12" d="M810.8,29.7h6.9c0-0.4,0-0.8,0-1.2h1.7c0,0.4,0,0.8,0,1.2h1c-0.2-0.3-0.3-0.5-0.4-0.8l1.5-0.4
						c0.3,0.5,0.5,0.9,0.7,1.2h0.9v1.6h-3.5c0.1,0.9,0.2,1.8,0.4,2.4c0.4-0.6,0.8-1.2,1.1-1.9l1.4,0.8c-0.6,1.1-1.2,2.1-1.9,2.9
						c0.2,0.4,0.4,0.6,0.6,0.6c0.2,0,0.3-0.2,0.4-0.5c0.1-0.3,0.2-0.7,0.3-1.3c0.5,0.3,1,0.6,1.5,0.8c-0.2,1-0.5,1.7-0.7,2.1
						c-0.2,0.4-0.5,0.6-0.9,0.7c0.5,0.7,1.1,1.5,1.5,2.2l-1.5,0.9c-0.5-0.9-1-1.8-1.6-2.6l0.9-0.5c-0.7,0-1.3-0.4-1.8-1.1
						c-0.3,0.3-0.6,0.6-1,0.9c-0.3-0.4-0.6-0.7-0.8-1V37h-0.8c0.5,0.6,0.9,1.1,1.4,1.7l-1.4,1c-0.4-0.6-0.9-1.3-1.5-2.1l0.9-0.6H813
						v-3.4h4.5v2.7c0.4-0.3,0.7-0.6,1.1-1c-0.3-1-0.6-2.3-0.7-4.1h-5.2V33c0,1.9-0.3,3.5-1,4.6l1.2,0.4c-0.4,1.1-0.9,2.2-1.5,3.3
						l-1.6-0.8c0.5-0.9,0.9-1.7,1.1-2.5c-0.4-0.4-0.8-0.8-1.2-1.1c0.8-0.9,1.2-2.4,1.2-4.3L810.8,29.7L810.8,29.7z M817.5,33.1H813
						v-1.2h4.6L817.5,33.1L817.5,33.1z M818.7,38.4c0.6,0.4,1.2,0.6,1.8,0.9c-0.4,1.2-0.8,1.9-1.2,2.1c-0.4,0.2-0.9,0.4-1.5,0.4H815
						c-1.4,0-2-0.6-2-1.7v-2.2h1.8v1.7c0,0.4,0.3,0.6,0.8,0.6h1.8c0.5,0,0.8-0.1,1-0.3S818.6,39.2,818.7,38.4z M816,35.8v-0.9h-1.5
						v0.9H816z"/>
					<path class="st12" d="M839.5,37.5c0.8,0.3,1.5,0.5,1.9,0.7c-0.2,1.1-0.4,1.9-0.6,2.3c-0.2,0.4-0.5,0.7-0.8,0.9
						c-0.4,0.2-0.9,0.3-1.5,0.3h-1.7c-1.5,0-2.2-0.7-2.2-2V36c-0.7,2.4-2.4,4.3-5.2,5.9c-0.5-0.5-1-1-1.6-1.5
						c2.9-1.6,4.6-3.4,5.1-5.4H828v-1.8h5.3c0.1-0.6,0.1-1.4,0.2-2.2h-4.6v-1.8h11.6V31h-4.9c0,0.8-0.1,1.5-0.2,2.2h6V35H835
						c-0.1,0.3-0.1,0.6-0.2,0.9h1.9v3c0,0.6,0.3,1,1,1h0.4c0.2,0,0.5,0,0.7-0.1s0.4-0.3,0.5-0.7S839.4,38.1,839.5,37.5z"/>
				</g>
			</g>
		</g>
		<g>
			<g>
				<g>
					<path class="st11" d="M1153.7,46.6h-12.2c-1.4,0-2.7-0.6-3.6-1.5s-1.5-2.2-1.5-3.6V29.4c0-1.3,0.5-2.5,1.3-3.4
						c0.9-1,2.2-1.6,3.7-1.6h12.2c1.4,0,2.7,0.6,3.6,1.5s1.5,2.2,1.5,3.6v12.2c0,1.3-0.5,2.6-1.4,3.5
						C1156.4,46,1155.1,46.6,1153.7,46.6z"/>
					<path class="st9" d="M1153.7,46.9h-12.2c-1.4,0-2.8-0.6-3.8-1.6s-1.6-2.4-1.6-3.8V29.4c0-1.4,0.5-2.7,1.4-3.7
						c1-1.1,2.5-1.7,3.9-1.7h12.2c1.4,0,2.8,0.6,3.8,1.6s1.6,2.4,1.6,3.8v12.2c0,1.4-0.5,2.7-1.5,3.7S1155.1,46.9,1153.7,46.9z
						 M1141.5,24.6c-1.3,0-2.6,0.6-3.5,1.5c-0.8,0.9-1.3,2-1.3,3.2v12.2c0,1.3,0.5,2.5,1.4,3.4s2.1,1.4,3.4,1.4h12.2
						c1.3,0,2.5-0.5,3.4-1.5c0.8-0.9,1.3-2,1.3-3.3V29.4c0-1.3-0.5-2.5-1.4-3.4s-2.1-1.4-3.4-1.4H1141.5z"/>
				</g>
				<g>
					<path class="st9" d="M1148.3,36.8v-4.9c0-0.3-0.4-0.6-0.8-0.6s-0.8,0.3-0.8,0.6v4.9c-1,0.4-1.5,1.6-1,2.6s1.6,1.5,2.6,1
						c1-0.4,1.5-1.6,1-2.6C1149.1,37.4,1148.7,37,1148.3,36.8L1148.3,36.8z"/>
					<path class="st9" d="M1150.2,35.8v-5.3c0-0.6-0.3-1.2-0.8-1.6s-1.2-0.6-1.8-0.6c-0.7,0-1.3,0.2-1.8,0.6s-0.8,1-0.8,1.6v5.3
						c-1.6,1.5-1.7,4-0.2,5.6s4,1.7,5.6,0.2s1.7-4,0.2-5.6C1150.3,35.9,1150.2,35.8,1150.2,35.8L1150.2,35.8L1150.2,35.8z
						 M1147.5,41.5c-1.6,0-2.9-1.3-2.9-2.9c0-0.9,0.4-1.7,1-2.2l0.2-0.2v-5.8c0-0.6,0.8-1.1,1.6-1.1s1.6,0.5,1.6,1.1v5.8l0.2,0.2
						c1.2,1,1.4,2.8,0.4,4C1149.1,41.1,1148.3,41.5,1147.5,41.5L1147.5,41.5z"/>
					<path class="st9" d="M1150.7,31h0.6c0.1,0,0.3-0.1,0.3-0.3s-0.1-0.3-0.3-0.3h-0.6c-0.1,0-0.3,0.1-0.3,0.3S1150.5,31,1150.7,31
						L1150.7,31z"/>
					<path class="st9" d="M1151.3,31.3h-0.6c-0.1,0-0.3,0.1-0.3,0.3c0,0.1,0.1,0.3,0.3,0.3h0.6c0.1,0,0.3-0.1,0.3-0.3
						C1151.6,31.4,1151.5,31.3,1151.3,31.3L1151.3,31.3z"/>
					<path class="st9" d="M1151.3,32.1h-0.6c-0.1,0-0.3,0.1-0.3,0.3s0.1,0.3,0.3,0.3h0.6c0.1,0,0.3-0.1,0.3-0.3
						S1151.5,32.1,1151.3,32.1L1151.3,32.1z"/>
					<path class="st9" d="M1151.3,32.9h-0.6c-0.1,0-0.3,0.1-0.3,0.3s0.1,0.3,0.3,0.3h0.6c0.1,0,0.3-0.1,0.3-0.3
						S1151.5,32.9,1151.3,32.9L1151.3,32.9z"/>
					<path class="st9" d="M1151.3,33.7h-0.6c-0.1,0-0.3,0.1-0.3,0.3c0,0.1,0.1,0.3,0.3,0.3h0.6c0.1,0,0.3-0.1,0.3-0.3
						C1151.6,33.8,1151.5,33.7,1151.3,33.7L1151.3,33.7z"/>
					<path class="st9" d="M1151.3,34.5h-0.6c-0.1,0-0.3,0.1-0.3,0.3s0.1,0.3,0.3,0.3h0.6c0.1,0,0.3-0.1,0.3-0.3
						S1151.5,34.5,1151.3,34.5L1151.3,34.5z"/>
				</g>
			</g>
			<g>
				<g class="st8">
					<path class="st12" d="M1166,32.7c0.9,0.6,1.6,1.2,2.2,1.7l-1.2,1.5c-0.7-0.7-1.4-1.3-2.1-1.9L1166,32.7z M1166.2,36.6
						c0.6,0.2,1.2,0.4,1.7,0.6l-1.1,5.4c-0.6-0.2-1.2-0.4-1.8-0.5C1165.4,40.3,1165.8,38.5,1166.2,36.6z M1166.4,29.2
						c0.7,0.5,1.5,1.1,2.2,1.7l-1.3,1.4c-0.7-0.6-1.4-1.3-2.1-1.9L1166.4,29.2z M1167.6,40.5h1v-4.2h9.1v4.2h0.8v1.4h-10.9V40.5z
						 M1169.2,29.6h7.9v5.9h-7.9V29.6z M1170.3,40.5h1v-2.8h-1V40.5z M1175.4,31h-4.6v0.9h4.6V31z M1175.4,34.1v-0.9h-4.6v0.9
						H1175.4z M1172.7,40.5h1v-2.8h-1V40.5z M1176,37.7h-1v2.8h1V37.7z"/>
					<path class="st12" d="M1181.6,35.2c0,3.4-0.4,5.9-1.4,7.4c-0.5-0.5-1-0.9-1.5-1.3c0.8-1.4,1.1-3.6,1.1-6.3v-4.8h5.4
						c-0.1-0.3-0.2-0.6-0.4-1l2.3-0.3c0.2,0.4,0.3,0.8,0.5,1.3h4.7v1.5h-10.8v3.5H1181.6z M1191,36.9v1.5c-0.7,0.8-1.5,1.5-2.2,2
						c1,0.2,2.2,0.3,3.6,0.4c-0.3,0.5-0.5,1.1-0.8,1.7c-2-0.2-3.6-0.6-4.9-1c-1.3,0.4-2.9,0.8-4.9,1.1c-0.2-0.5-0.5-1-0.9-1.5
						c1.5-0.1,2.8-0.3,3.9-0.6c-0.8-0.5-1.4-1.2-2.1-2.1h-0.9v-1.5C1181.8,36.9,1191,36.9,1191,36.9z M1181.9,32.6h1.5V32h1.8v0.6
						h3.4V32h1.8v0.6h1.9v1.5h-1.9v2.2h-6.9v-2.2h-1.5v-1.5H1181.9z M1186.9,39.8c0.8-0.4,1.5-0.9,2.1-1.4h-4.2
						C1185.4,39,1186.1,39.5,1186.9,39.8z M1188.5,34.9v-0.8h-3.4v0.8H1188.5z"/>
				</g>
			</g>
		</g>
		<g>
			<g>
				<g>
					<path class="st11" d="M1229.2,46.6H1217c-1.4,0-2.7-0.6-3.6-1.5s-1.5-2.2-1.5-3.6V29.4c0-1.4,0.6-2.7,1.5-3.6s2.2-1.5,3.6-1.5
						h12.2c1.3,0,2.5,0.5,3.4,1.3c1,0.9,1.6,2.3,1.6,3.7v12.2c0,1.4-0.6,2.7-1.5,3.6S1230.6,46.6,1229.2,46.6z"/>
					<path class="st9" d="M1229.2,46.9H1217c-1.4,0-2.8-0.6-3.8-1.6s-1.6-2.4-1.6-3.8V29.4c0-1.4,0.6-2.8,1.6-3.8s2.4-1.6,3.8-1.6
						h12.2c1.4,0,2.6,0.5,3.6,1.4c1.1,1,1.7,2.5,1.7,4v12.2c0,1.4-0.6,2.8-1.6,3.8S1230.6,46.9,1229.2,46.9z M1217,24.6
						c-1.3,0-2.5,0.5-3.4,1.4s-1.4,2.1-1.4,3.4v12.2c0,1.3,0.5,2.5,1.4,3.4s2.1,1.4,3.4,1.4h12.2c1.3,0,2.5-0.5,3.4-1.4
						s1.4-2.1,1.4-3.4V29.4c0-1.3-0.6-2.6-1.5-3.5c-0.9-0.8-2-1.3-3.2-1.3H1217z"/>
				</g>
				<g>
					<path class="st9" d="M1227.6,37.6L1227.6,37.6c0-0.1,0-0.1,0-0.2v-0.1l0,0c-0.1-0.2-0.2-0.5-0.3-0.7l-3.8-7.8
						c-0.6-1-1.1,0-1.1,0l-3.7,7.9c-0.1,0.2-0.2,0.5-0.2,0.8c-0.4,2.5,1.4,4.8,3.9,5.2s4.8-1.4,5.2-3.9c0-0.2,0-0.4,0-0.7
						C1227.7,37.9,1227.6,37.7,1227.6,37.6L1227.6,37.6z M1223.1,37.7c-1.4-1.2-2.7-1.1-3.6-0.8l3.6-7.4l3.4,7.3
						c0.2,0.4,0.3,0.8,0.3,1.3C1225.9,38.7,1224.6,39.1,1223.1,37.7L1223.1,37.7z"/>
				</g>
			</g>
			<g>
				<g class="st8">
					<path class="st12" d="M1240.6,32.5c0.8,0.6,1.6,1.2,2.2,1.8l-1.3,1.4c-0.6-0.6-1.3-1.2-2.1-1.9L1240.6,32.5z M1240.8,36.2
						c0.7,0.3,1.3,0.5,1.8,0.6l-1.2,5.3c-0.7-0.2-1.3-0.4-1.9-0.5C1240,40,1240.4,38.2,1240.8,36.2z M1240.7,28.9
						c0.7,0.5,1.5,1.1,2.2,1.8l-1.2,1.4c-0.8-0.8-1.5-1.4-2.1-1.9L1240.7,28.9z M1242.6,40.1h2.8V39l-1.1,0.6l-1.6-3l1.3-0.7
						l1.4,2.4v-2.8h1.7v4.7h1.1v-4.7h1.7v3c0.4-0.6,0.9-1.4,1.4-2.5l1.3,0.7c-0.6,1.1-1.2,2.1-1.8,3.1l-1-0.6v1h2.9v1.6h-10.3v-1.7
						H1242.6z M1243.3,29.3h8.7v5.9h-8.7V29.3z M1250.3,30.8h-5.2v0.9h5.2V30.8z M1250.3,33.7v-0.9h-5.2v0.9H1250.3z"/>
					<path class="st12" d="M1256.1,34.9c0,3.4-0.4,5.9-1.4,7.4c-0.5-0.5-1-0.9-1.5-1.3c0.8-1.4,1.1-3.6,1.1-6.3v-4.8h5.4
						c-0.1-0.3-0.2-0.6-0.4-1l2.3-0.3c0.2,0.4,0.3,0.8,0.5,1.3h4.7v1.5H1256v3.5H1256.1z M1265.6,36.6v1.5c-0.7,0.8-1.5,1.5-2.2,2
						c1,0.2,2.2,0.3,3.6,0.4c-0.3,0.5-0.5,1.1-0.8,1.7c-2-0.2-3.6-0.6-4.9-1c-1.3,0.4-2.9,0.8-4.9,1.1c-0.2-0.5-0.5-1-0.9-1.5
						c1.5-0.1,2.8-0.3,3.9-0.6c-0.8-0.5-1.4-1.2-2.1-2.1h-0.9v-1.5C1256.4,36.6,1265.6,36.6,1265.6,36.6z M1256.4,32.3h1.5v-0.6h1.8
						v0.6h3.4v-0.6h1.8v0.6h1.9v1.5h-1.9V36h-6.9v-2.2h-1.5v-1.5H1256.4z M1261.4,39.5c0.8-0.4,1.5-0.9,2.1-1.4h-4.2
						C1260,38.7,1260.6,39.2,1261.4,39.5z M1263,34.6v-0.8h-3.4v0.8H1263z"/>
				</g>
			</g>
		</g>
		<g>
			<g>
				<g class="st8">
					<path class="st12" d="M1317.7,39.6h2v-6.8h2v6.8h2.4v-8.3h-5.8v-1.9h12.4v1.9h-4.5v3h4v1.9h-4v3.4h4.9v1.9h-13.4V39.6z"/>
					<path class="st12" d="M1337.5,28.7h1.8v2h1.6l-0.4-0.4c0.6-0.5,1.2-1.1,1.7-1.6l1.3,0.9c-0.4,0.3-0.7,0.7-1.2,1.1h2.5v3h-1.7
						v-1.6h-9.5v1.6h-1.7v-3h2.5c-0.3-0.4-0.7-0.7-1-1.1l1.2-0.9c0.5,0.5,1.1,1,1.6,1.6l-0.5,0.4h1.8L1337.5,28.7L1337.5,28.7z
						 M1334.5,41.4h-1.8V37h4.8v-0.8h-3.3v-3.4h8.6v3.4h-3.3V37h4.9v2.7c0,0.3-0.1,0.6-0.2,0.9c-0.1,0.2-0.3,0.4-0.5,0.6
						c-0.2,0.1-0.4,0.2-0.7,0.3c-0.2,0-0.9,0-2,0c-0.1-0.5-0.2-1-0.4-1.5c0.5,0,0.9,0,1.3,0s0.6-0.2,0.6-0.7v-0.7h-3.1v3.7h-1.9
						v-3.7h-3V41.4z M1335.8,35h5.2v-0.8h-5.2V35z"/>
				</g>
			</g>
			<g>
				<g class="st8">
					<path class="st12" d="M1396.7,34.4h13.2v2h-13.2V34.4z"/>
					<path class="st12" d="M1423.6,34.4V36c-0.5,1.2-1.1,2.3-2,3.2c0.8,0.5,1.6,0.9,2.6,1.2c-0.4,0.7-0.7,1.2-1,1.7
						c-1.1-0.4-2-1-2.9-1.7c-0.9,0.7-1.8,1.2-2.9,1.7c-0.2-0.4-0.5-0.9-0.9-1.4c-0.1,0.4-0.2,0.6-0.5,0.8c-0.2,0.2-0.5,0.3-0.9,0.4
						c-0.4,0-0.8,0.1-1.4,0.1c-0.1-0.5-0.3-1.1-0.5-1.8c0.4,0,0.7,0.1,0.9,0.1c0.5,0,0.7-0.3,0.7-0.8v-0.9l-1.2,0.6
						c-0.3-0.5-0.5-1-0.8-1.6c-0.1,1.9-0.5,3.5-1.2,4.7c-0.4-0.6-0.9-1.2-1.3-1.6c0.5-1.1,0.8-2.5,0.8-4.3h-0.7v-1.6h0.7
						c0-0.3,0-1.8,0-4.7h1.6c0.2-0.5,0.3-1,0.4-1.4l1.7,0.2c-0.2,0.4-0.3,0.8-0.5,1.2h2.1v3c0.4-0.2,0.7-0.5,0.8-1s0.3-1.4,0.3-2.9
						h5.1v2.2c0,0.4,0.2,0.6,0.6,0.6h0.8c-0.1,0.5-0.2,1.1-0.3,1.7h-1.4c-0.9,0-1.4-0.5-1.4-1.5V31h-1.8c0,1.5-0.5,2.6-1.4,3.3
						c-0.4-0.4-0.8-0.7-1.3-1.1v7.3c0.9-0.3,1.7-0.7,2.4-1.1c-0.7-0.7-1.3-1.4-1.8-2.3l1.3-0.9c0.5,0.8,1.1,1.5,1.8,2.1
						c0.6-0.6,1.1-1.4,1.4-2.2h-4.8v-1.7C1416.7,34.4,1423.6,34.4,1423.6,34.4z M1414,36.8c0.3,0.6,0.6,1.1,0.9,1.6v-2.1h-1.9
						c0,0.3,0,0.7,0,1L1414,36.8z M1414,32c0.3,0.4,0.6,0.9,0.9,1.4v-1.8h-1.9v0.9L1414,32z M1413,32.8v1.9h1.9v-0.9l-1.1,0.6
						C1413.6,33.8,1413.3,33.3,1413,32.8z"/>
				</g>
			</g>
			<g>
				<g class="st8">
					<path class="st12" d="M1473.3,33.5h1.6c-0.4-0.3-0.9-0.5-1.4-0.8c0.9-1.2,1.6-2.5,2.1-3.9l1.8,0.5c-0.1,0.4-0.3,0.7-0.4,1.1
						h2.2v-1.8h2v1.8h4.7V32h-4.7v1.5h5.5v1.6h-13.4L1473.3,33.5L1473.3,33.5z M1474.8,42.2v-6h10.4v6h-1.9v-0.7h-6.6v0.7H1474.8z
						 M1475.3,33.5h3.9V32h-3C1475.9,32.6,1475.6,33.1,1475.3,33.5z M1483.4,37.8h-6.6v1.9h6.6V37.8z"/>
					<path class="st12" d="M1487.4,35.2h6.2c0-0.1-0.1-0.3-0.1-0.5c-0.2,0.1-0.5,0.1-0.8,0.1h-1.1c0-0.1-0.1-0.3-0.1-0.4h-1.8v0.2
						h-1.1v-1.7c-0.2,0.2-0.3,0.4-0.5,0.6c-0.2-0.3-0.5-0.7-0.8-1c0.6-0.6,1.1-1.3,1.4-2h0.4v-0.3h-1.7v-1h1.7v-0.6h1.5v0.6h1.2
						v-0.6h1.5v0.6h1.8v1h-1.8v0.4h-1.5v-0.4h-1.2v0.4h-0.5c0,0.1-0.1,0.2-0.2,0.3h4.4c0,0.8,0,1.7-0.1,2.6c0,0.4-0.1,0.7-0.3,0.9
						l1-0.1c0.1,0.3,0.1,0.6,0.2,0.9h5.5v1.1h-13.2V35.2z M1488.9,36.9h10.1v0.7h-10.1V36.9z M1488.9,38.2h10.1v0.7h-10.1V38.2z
						 M1488.9,39.5h10.1v2.8h-1.8v-0.4h-6.6v0.4h-1.8v-2.8H1488.9z M1489,32.4h3.1v1.4c0.1,0,0.2,0,0.3,0c0.3,0,0.5-0.1,0.5-0.4
						c0-0.4,0-0.9,0-1.4h-3.6C1489.2,32.1,1489.1,32.3,1489,32.4z M1489.6,33.7h1.4v-0.5h-1.4V33.7z M1497.2,40.2h-6.6v0.6h6.6V40.2
						z M1494.4,31.5c0.7-0.9,1.2-1.8,1.5-2.9l1.5,0.1c-0.1,0.3-0.2,0.6-0.3,0.9h3.5v1.3h-0.8c-0.2,0.8-0.6,1.5-1.1,2.1
						c0.6,0.3,1.2,0.5,2,0.7c-0.3,0.5-0.6,0.9-0.8,1.3c-0.9-0.3-1.6-0.6-2.2-1c-0.6,0.4-1.3,0.8-2,1.1c-0.3-0.4-0.6-0.8-0.9-1.3
						c0.7-0.2,1.3-0.4,1.8-0.8c-0.2-0.3-0.5-0.6-0.7-1c-0.2,0.3-0.4,0.5-0.6,0.8C1494.9,32.2,1494.6,31.8,1494.4,31.5z M1497.6,32.2
						c0.4-0.4,0.7-0.8,0.9-1.4h-1.8C1496.9,31.4,1497.2,31.9,1497.6,32.2z"/>
				</g>
			</g>
			<path class="st14" d="M1459.8,46.9h-12.9c-2.8,0-5-2.2-5-5V29c0-2.8,2.2-5,5-5h12.9c2.8,0,5,2.2,5,5v12.9
				C1464.8,44.7,1462.6,46.9,1459.8,46.9z"/>
			<g>
				<g class="st8">
					<path class="st12" d="M1549.7,33.5h1.6c-0.4-0.3-0.9-0.5-1.4-0.8c0.9-1.2,1.6-2.5,2.1-3.9l1.8,0.5c-0.1,0.4-0.3,0.7-0.4,1.1
						h2.2v-1.8h2v1.8h4.7V32h-4.7v1.5h5.5v1.6h-13.4L1549.7,33.5L1549.7,33.5z M1551.2,42.2v-6h10.4v6h-1.9v-0.7h-6.6v0.7H1551.2z
						 M1551.6,33.5h3.9V32h-3C1552.3,32.6,1552,33.1,1551.6,33.5z M1559.7,37.8h-6.6v1.9h6.6V37.8z"/>
					<path class="st12" d="M1563.8,35.2h6.2c0-0.1-0.1-0.3-0.1-0.5c-0.2,0.1-0.5,0.1-0.8,0.1h-1.1c0-0.1-0.1-0.3-0.1-0.4h-1.8v0.2
						h-1.1v-1.7c-0.2,0.2-0.3,0.4-0.5,0.6c-0.2-0.3-0.5-0.7-0.8-1c0.6-0.6,1.1-1.3,1.4-2h0.4v-0.3h-1.7v-1h1.7v-0.6h1.5v0.6h1.2
						v-0.6h1.5v0.6h1.8v1h-1.8v0.4h-1.5v-0.4h-1.2v0.4h-0.5c0,0.1-0.1,0.2-0.2,0.3h4.4c0,0.8,0,1.7-0.1,2.6c0,0.4-0.1,0.7-0.3,0.9
						l1-0.1c0.1,0.3,0.1,0.6,0.2,0.9h5.5v1.1h-13.2V35.2z M1565.2,36.9h10.1v0.7h-10.1V36.9z M1565.2,38.2h10.1v0.7h-10.1V38.2z
						 M1565.2,39.5h10.1v2.8h-1.8v-0.4h-6.6v0.4h-1.8v-2.8H1565.2z M1565.3,32.4h3.1v1.4c0.1,0,0.2,0,0.3,0c0.3,0,0.5-0.1,0.5-0.4
						c0-0.4,0-0.9,0-1.4h-3.6C1565.5,32.1,1565.4,32.3,1565.3,32.4z M1566,33.7h1.4v-0.5h-1.4V33.7z M1573.5,40.2h-6.6v0.6h6.6V40.2
						z M1570.7,31.5c0.7-0.9,1.2-1.8,1.5-2.9l1.5,0.1c-0.1,0.3-0.2,0.6-0.3,0.9h3.5v1.3h-0.8c-0.2,0.8-0.6,1.5-1.1,2.1
						c0.6,0.3,1.2,0.5,2,0.7c-0.3,0.5-0.6,0.9-0.8,1.3c-0.9-0.3-1.6-0.6-2.2-1c-0.6,0.4-1.3,0.8-2,1.1c-0.3-0.4-0.6-0.8-0.9-1.3
						c0.7-0.2,1.3-0.4,1.8-0.8c-0.2-0.3-0.5-0.6-0.7-1c-0.2,0.3-0.4,0.5-0.6,0.8C1571.2,32.2,1570.9,31.8,1570.7,31.5z M1573.9,32.2
						c0.4-0.4,0.7-0.8,0.9-1.4h-1.8C1573.2,31.4,1573.5,31.9,1573.9,32.2z"/>
				</g>
			</g>
			<path class="st15" d="M1536.2,46.9h-12.9c-2.8,0-5-2.2-5-5V29c0-2.8,2.2-5,5-5h12.9c2.8,0,5,2.2,5,5v12.9
				C1541.2,44.7,1538.9,46.9,1536.2,46.9z"/>
			<path class="st16" d="M1307.1,46.9h-12.9c-2.8,0-5-2.2-5-5V29c0-2.8,2.2-5,5-5h12.9c2.8,0,5,2.2,5,5v12.9
				C1312.1,44.7,1309.8,46.9,1307.1,46.9z"/>
			<path class="st17" d="M1383.4,46.9h-12.9c-2.8,0-5-2.2-5-5V29c0-2.8,2.2-5,5-5h12.9c2.8,0,5,2.2,5,5v12.9
				C1388.4,44.7,1386.2,46.9,1383.4,46.9z"/>
		</g>
		<g>
			<g>
				<g>
					<path class="st13" d="M692.6,46.7h-12.2c-1.4,0-2.7-0.6-3.6-1.5c-0.9-0.9-1.5-2.2-1.5-3.6V29.5c0-1.3,0.5-2.5,1.3-3.4
						c0.9-1,2.2-1.6,3.7-1.6h12.2c1.4,0,2.7,0.6,3.6,1.5c0.9,0.9,1.5,2.2,1.5,3.6v12.2c0,1.3-0.5,2.6-1.4,3.5
						C695.3,46.1,694,46.7,692.6,46.7z"/>
					<path class="st9" d="M692.6,47h-12.2c-1.4,0-2.8-0.6-3.8-1.6S675,43,675,41.6V29.5c0-1.4,0.5-2.7,1.4-3.7
						c1-1.1,2.5-1.7,3.9-1.7h12.2c1.4,0,2.8,0.6,3.8,1.6s1.6,2.4,1.6,3.8v12.2c0,1.4-0.5,2.7-1.5,3.7C695.5,46.4,694.1,47,692.6,47z
						 M680.4,24.8c-1.3,0-2.6,0.6-3.5,1.5c-0.8,0.9-1.3,2-1.3,3.2v12.2c0,1.3,0.5,2.5,1.4,3.4s2.1,1.4,3.4,1.4h12.2
						c1.3,0,2.5-0.5,3.4-1.5c0.8-0.9,1.3-2,1.3-3.3V29.5c0-1.3-0.5-2.5-1.4-3.4s-2.1-1.4-3.4-1.4L680.4,24.8L680.4,24.8z"/>
				</g>
				<g>
					<path class="st9" d="M688.8,30.6V40l3.3,1.6V29.1L688.8,30.6z M691.3,35.2c-0.2,0-0.4-0.2-0.4-0.5s0.2-0.5,0.4-0.5
						s0.4,0.2,0.4,0.5S691.5,35.2,691.3,35.2z"/>
					<polygon class="st9" points="689.9,41.5 688.8,41 688.8,41.4 682.7,41.4 682.7,29.3 688.8,29.3 688.8,29.7 689.9,29.2 
						689.9,28.1 681.6,28.1 681.6,42.1 680.9,42.1 680.9,43.1 690.6,43.1 690.6,42.1 689.9,42.1 					"/>
				</g>
			</g>
			<g>
				<g class="st8">
					<path class="st12" d="M705.1,30.9h2v11.4h-2V30.9z M706.9,29.5l1.7-0.6c0.5,0.8,1,1.8,1.5,2.9l-1.9,0.7
						C707.7,31.4,707.3,30.4,706.9,29.5z M717.4,39.8c0,0.8-0.2,1.4-0.5,1.8c-0.3,0.4-0.8,0.6-1.4,0.7s-1.7,0.1-3.3,0.1
						c-0.1-0.6-0.3-1.3-0.5-2c0.8,0,1.6,0.1,2.4,0.1c0.9,0,1.4-0.4,1.4-1.2v-7.6h-5v-1.8h6.9L717.4,39.8L717.4,39.8z"/>
					<path class="st12" d="M718.6,30.2h4.7v1h2c-0.4-0.6-0.7-1.1-0.9-1.5l1.3-0.8c0.3,0.3,0.7,0.9,1.3,1.7l-1.1,0.6h1.9
						c0.6-0.8,1.1-1.6,1.5-2.3l1.7,1c-0.4,0.4-0.8,0.9-1.1,1.3h2.2V33h-2c-0.4,1-0.8,2-1.2,2.9c0.2,0,0.4,0,0.7-0.1
						c0.2-0.5,0.5-1.1,0.7-1.7l1.5,0.5c-0.6,1.2-1.2,2.5-1.8,3.7l1.2-0.3c0.2,0.8,0.5,2.1,0.9,4l-1.4,0.3c-0.1-0.3-0.1-0.6-0.2-0.9
						c-0.9,0.1-1.8,0.1-2.6,0.2l-0.5-1.4c0.4-0.3,1-1.4,1.6-3.1c-0.6,0.1-1.1,0.1-1.4,0.2l-0.5-1.2c0.4-0.5,0.8-1.5,1.3-3.1H726
						c-0.5,1-1,2-1.4,2.7c0.2,0,0.5,0,0.7,0c0.2-0.5,0.5-1.1,0.8-1.8l1.6,0.5c-0.6,1.2-1.2,2.6-2,4l1.3-0.2c0.1,0.3,0.3,1.6,0.6,3.9
						l-1.4,0.2c0-0.3-0.1-0.6-0.1-0.8c-1.1,0.1-1.9,0.3-2.5,0.4l-0.5-1.7c0.4-0.2,1-1.2,1.8-3c-0.6,0.1-1,0.1-1.4,0.2l-0.5-1.2v6
						h-1.4v-0.6h-0.9v0.8h-1.4v-4.7c-0.1,0.2-0.3,0.5-0.4,0.7c-0.1-1.3-0.2-2.2-0.3-2.6c0.5-0.9,0.9-2.1,1.4-3.6h-1.2v-2H718.6z
						 M721.5,39.9v-4.1h-0.9v4.1H721.5z M724.6,33h-1.4v-1h-1.7c-0.2,0.8-0.5,1.5-0.8,2.2h2.2v1.5C723.3,35.5,723.9,34.6,724.6,33z
						 M725.8,40c-0.1-0.5-0.1-1-0.2-1.4c-0.3,0.5-0.5,1-0.8,1.5C725.2,40.1,725.6,40.1,725.8,40z M729.9,38.6
						c-0.3,0.6-0.6,1.1-0.9,1.6c0.3,0,0.7-0.1,1.2-0.1C730.1,39.4,730,39,729.9,38.6z"/>
					<path class="st12" d="M736.7,34.9h3.2v-3.3h-2.4v-1.8h12.2v1.8h-2.2v3.3h2.8v1.8h-2.8v5.6h-2v-5.6h-3.7
						c-0.1,1.7-0.4,2.9-0.9,3.7s-1.3,1.5-2.4,2.1c-0.5-0.4-1.1-0.9-1.7-1.4c0.8-0.5,1.5-1,2.1-1.6s0.9-1.6,1-2.9h-3.1L736.7,34.9
						L736.7,34.9z M741.8,34.9h3.6v-3.3h-3.6V34.9z"/>
				</g>
			</g>
		</g>
		<g>
			<g>
				<g>
					<path class="st11" d="M600.9,46.8h-12.2c-1.4,0-2.7-0.6-3.6-1.5c-0.9-0.9-1.5-2.2-1.5-3.6V29.6c0-1.3,0.5-2.5,1.3-3.4
						c0.9-1,2.2-1.6,3.7-1.6h12.2c1.4,0,2.7,0.6,3.6,1.5c0.9,0.9,1.5,2.2,1.5,3.6v12.2c0,1.3-0.5,2.6-1.4,3.5
						C603.6,46.2,602.3,46.8,600.9,46.8z"/>
					<path class="st9" d="M600.9,47.2h-12.2c-1.4,0-2.8-0.6-3.8-1.6s-1.6-2.4-1.6-3.8V29.6c0-1.4,0.5-2.7,1.4-3.7
						c1-1.1,2.5-1.7,3.9-1.7h12.2c1.4,0,2.8,0.6,3.8,1.6s1.6,2.4,1.6,3.8v12.2c0,1.4-0.5,2.7-1.5,3.7
						C603.8,46.6,602.4,47.2,600.9,47.2z M588.7,24.9c-1.3,0-2.6,0.6-3.5,1.5c-0.8,0.9-1.3,2-1.3,3.2v12.2c0,1.3,0.5,2.5,1.4,3.4
						s2.1,1.4,3.4,1.4h12.2c1.3,0,2.5-0.5,3.4-1.5c0.8-0.9,1.3-2,1.3-3.3V29.6c0-1.3-0.5-2.5-1.4-3.4s-2.1-1.4-3.4-1.4L588.7,24.9
						L588.7,24.9z"/>
				</g>
				<g>
					<g>
						<rect x="592.6" y="30.3" class="st18" width="4.4" height="10.2"/>
						<path class="st9" d="M599,42.2v-14h-8.3v14.1H590v0.9h9.7v-0.9H599V42.2z M591.7,29.4h6.1v12.1h-6.1V29.4z"/>
					</g>
					<path class="st9" d="M597,30.3h-4.4v10.2h4.4V30.3z M593.7,35.3c-0.3,0-0.5-0.2-0.5-0.5s0.2-0.5,0.5-0.5s0.5,0.2,0.5,0.5
						S593.9,35.3,593.7,35.3z"/>
				</g>
			</g>
			<g>
				<g class="st8">
					<path class="st12" d="M612.7,30.9h2v11.4h-2V30.9z M614.5,29.5l1.7-0.6c0.5,0.8,1,1.8,1.5,2.9l-1.9,0.7
						C615.4,31.4,614.9,30.4,614.5,29.5z M625.1,39.8c0,0.8-0.2,1.4-0.5,1.8c-0.3,0.4-0.8,0.6-1.4,0.7s-1.7,0.1-3.3,0.1
						c-0.1-0.6-0.3-1.3-0.5-2c0.8,0,1.6,0.1,2.4,0.1c0.9,0,1.4-0.4,1.4-1.2v-7.6h-5v-1.8h6.9L625.1,39.8L625.1,39.8z"/>
					<path class="st12" d="M626.2,30.2h4.7v1h2c-0.4-0.6-0.7-1.1-0.9-1.5l1.3-0.8c0.3,0.3,0.7,0.9,1.3,1.7l-1.1,0.6h1.9
						c0.6-0.8,1.1-1.6,1.5-2.3l1.7,1c-0.4,0.4-0.8,0.9-1.1,1.3h2.2V33h-2c-0.4,1-0.8,2-1.2,2.9c0.2,0,0.4,0,0.7-0.1
						c0.2-0.5,0.5-1.1,0.7-1.7l1.5,0.5c-0.6,1.2-1.2,2.5-1.8,3.7l1.2-0.3c0.2,0.8,0.5,2.1,0.9,4l-1.4,0.3c-0.1-0.3-0.1-0.6-0.2-0.9
						c-0.9,0.1-1.8,0.1-2.6,0.2l-0.5-1.4c0.4-0.3,1-1.4,1.6-3.1c-0.6,0.1-1.1,0.1-1.4,0.2l-0.5-1.2c0.4-0.5,0.8-1.5,1.3-3.1h-2.4
						c-0.5,1-1,2-1.4,2.7c0.2,0,0.5,0,0.7,0c0.2-0.5,0.5-1.1,0.8-1.8l1.6,0.5c-0.6,1.2-1.2,2.6-2,4l1.3-0.2c0.1,0.3,0.3,1.6,0.6,3.9
						l-1.4,0.2c0-0.3-0.1-0.6-0.1-0.8c-1.1,0.1-1.9,0.3-2.5,0.4l-0.5-1.7c0.4-0.2,1-1.2,1.8-3c-0.6,0.1-1,0.1-1.4,0.2l-0.5-1.2v6
						h-1.4v-0.6h-0.9v0.8h-1.4v-4.7c-0.1,0.2-0.3,0.5-0.4,0.7c-0.1-1.3-0.2-2.2-0.3-2.6c0.5-0.9,0.9-2.1,1.4-3.6h-1.2v-2H626.2z
						 M629.1,39.9v-4.1h-0.9v4.1H629.1z M632.2,33h-1.4v-1h-1.7c-0.2,0.8-0.5,1.5-0.8,2.2h2.2v1.5C630.9,35.5,631.5,34.6,632.2,33z
						 M633.4,40c-0.1-0.5-0.1-1-0.2-1.4c-0.3,0.5-0.5,1-0.8,1.5C632.8,40.1,633.2,40.1,633.4,40z M637.5,38.6
						c-0.3,0.6-0.6,1.1-0.9,1.6c0.3,0,0.7-0.1,1.2-0.1C637.7,39.4,637.6,39,637.5,38.6z"/>
					<path class="st12" d="M644.4,35.3h5.6c0,0,0-0.6,0-1.8h-4.9v-1.8h3c-0.5-0.7-1-1.3-1.3-1.7l1.5-1.1c0.4,0.4,1,1.1,1.9,2.2
						l-0.9,0.6h2.4c0.7-1,1.3-1.9,1.8-2.8l2,1l-1.5,1.8h3v1.8h-5c0,0.4,0,1,0,1.8h5.7V37h-5.3c0.9,1.8,2.7,2.9,5.4,3.5
						c-0.6,0.8-1.1,1.5-1.4,1.9c-2.6-0.7-4.4-2.1-5.4-4c-0.9,1.7-2.6,3.1-5.3,4.1c-0.4-0.5-0.9-1.1-1.5-1.7c2.9-0.9,4.7-2.2,5.4-3.8
						h-5.2V35.3z"/>
				</g>
			</g>
		</g>
	</g>
	<g class="st8">
		<path d="M324.5,639.9h-5.2v-1h2V632l-2.1,0.6v-1.1l3.2-0.9v8.3h2v1H324.5z"/>
		<path d="M332.6,633.3l-0.1,0.7h-1.6l-0.4,1.9h1.7l-0.1,0.7h-1.7l-0.5,2.5h-0.8l0.5-2.5H328l-0.5,2.5h-0.8l0.5-2.5h-1.6l0.1-0.7
			h1.6l0.4-1.9H326l0.1-0.7h1.7l0.5-2.5h0.8l-0.5,2.5h1.6l0.5-2.5h0.8l-0.5,2.5H332.6z M330,634.1h-1.6L328,636h1.6L330,634.1z"/>
		<path d="M336.6,633.8l0.6-0.7c0.7,0.5,1.4,1,2,1.5c-0.3,0.3-0.5,0.6-0.7,0.8C337.8,634.8,337.1,634.2,336.6,633.8z M337,641
			c0.5-1.5,0.9-3,1.2-4.5c0.3,0.1,0.7,0.3,0.9,0.4c-0.4,1.5-0.8,2.9-1.1,4.5L337,641z M337,630.7l0.6-0.6c0.5,0.4,1.2,0.9,2,1.7
			c-0.3,0.3-0.5,0.5-0.7,0.7C338.1,631.7,337.5,631.1,337,630.7z M339.6,634h3.9v-0.8h-3.1v-0.7h3.1v-0.8H340V631h3.5v-1.1h0.9v1.1
			h3.7v0.7h-3.7v0.8h3.3v0.7h-3.3v0.8h3.9v0.7h-8.6L339.6,634L339.6,634z M341.4,641.4h-0.9v-5.9h6.9v4.6c0,0.8-0.4,1.2-1.3,1.2
			h-1.9c0-0.2-0.1-0.6-0.2-0.9c0.7,0,1.3,0.1,1.8,0.1s0.7-0.2,0.7-0.6v-0.6h-5.1V641.4z M346.5,636.2h-5.1v0.8h5.1V636.2z
			 M341.4,638.5h5.1v-0.8h-5.1V638.5z"/>
		<path d="M348.9,633.7v-0.9h4v0.9c-0.7,2.6-1.9,4.8-3.6,6.6c-0.3-0.3-0.5-0.5-0.7-0.7c1.8-1.9,2.9-3.8,3.4-5.8L348.9,633.7
			L348.9,633.7z M353.9,630h0.9v1.9c0.3,0.9,0.7,1.8,1.2,2.5c0.9-0.7,1.7-1.6,2.6-2.6l0.8,0.7c-0.9,1-1.9,1.8-2.9,2.7
			c1,1.6,2.3,3,3.8,4c-0.3,0.3-0.6,0.6-0.8,0.9c-2.1-1.6-3.6-3.6-4.6-6v5.5c0,1.2-0.6,1.7-1.7,1.7c-0.3,0-0.9,0-1.5,0
			c0-0.3-0.1-0.6-0.2-1.1c0.6,0.1,1.1,0.1,1.5,0.1c0.6,0,0.9-0.3,0.9-0.9L353.9,630L353.9,630z"/>
		<path d="M361.2,637.6v-0.8h3.9v0.8c-0.8,1.3-2.1,2.4-4,3.4c-0.1-0.3-0.3-0.5-0.6-0.8c1.6-0.7,2.8-1.5,3.6-2.6L361.2,637.6
			L361.2,637.6z M360.7,634c1.2-0.7,2.3-1.6,3.2-2.7h-3.1v-0.8h11.1v0.8H365c-0.3,0.4-0.6,0.8-1,1.1h6.6v3.4h-0.9v-0.4H367v0.5
			c0.4,0.7,0.9,1.3,1.4,1.8c0.9-0.5,1.8-1,2.5-1.5l0.6,0.7c-0.8,0.5-1.6,0.9-2.4,1.3c0.8,0.6,1.9,1.2,3.2,1.6
			c-0.2,0.2-0.4,0.5-0.7,0.8c-2.1-0.8-3.6-2-4.6-3.5v2.7c0,0.9-0.4,1.3-1.3,1.3c-0.4,0-0.9,0-1.6,0c-0.1-0.4-0.1-0.7-0.2-0.9
			c0.5,0,1,0.1,1.4,0.1s0.7-0.2,0.7-0.7v-4.2h-2.4v0.4h-0.9v-2.3c-0.5,0.4-1,0.8-1.6,1.2C361.1,634.5,360.9,634.3,360.7,634z
			 M369.8,633.3h-6v1.5h6V633.3z"/>
	</g>
	<g class="st8">
		<path d="M324.3,731.2h-5.5v-1l2.6-2.6c0.7-0.7,1.2-1.3,1.5-1.7s0.4-0.9,0.4-1.3c0-0.5-0.1-0.9-0.4-1.2s-0.7-0.4-1.3-0.4
			c-0.8,0-1.6,0.3-2.3,1v-1.2c0.7-0.6,1.5-0.8,2.5-0.8c0.8,0,1.5,0.2,1.9,0.7s0.7,1,0.7,1.8c0,0.6-0.2,1.1-0.5,1.7s-0.9,1.2-1.7,2.1
			l-2.1,2l0,0h4.2L324.3,731.2L324.3,731.2z"/>
		<path d="M332.6,724.7l-0.1,0.7h-1.6l-0.4,1.9h1.7L332,728h-1.7l-0.5,2.5H329l0.5-2.5h-1.6l-0.5,2.5h-0.8l0.5-2.5h-1.6l0.1-0.7h1.6
			l0.4-1.9h-1.7l0.1-0.7h1.7l0.5-2.5h0.8l-0.5,2.5h1.6l0.5-2.5h0.8l-0.5,2.5L332.6,724.7L332.6,724.7z M330,725.4h-1.6l-0.4,1.9h1.6
			L330,725.4z"/>
		<path d="M336.6,725.1l0.6-0.7c0.7,0.5,1.4,1,2,1.5c-0.3,0.3-0.5,0.6-0.7,0.8C337.8,726.1,337.1,725.6,336.6,725.1z M337,732.4
			c0.5-1.5,0.9-3,1.2-4.5c0.3,0.1,0.7,0.3,0.9,0.4c-0.4,1.5-0.8,2.9-1.1,4.5L337,732.4z M337,722.1l0.6-0.6c0.5,0.4,1.2,0.9,2,1.7
			c-0.3,0.3-0.5,0.5-0.7,0.7C338.1,723,337.5,722.5,337,722.1z M339.6,725.3h3.9v-0.8h-3.1v-0.7h3.1V723H340v-0.7h3.5v-1.1h0.9v1.1
			h3.7v0.7h-3.7v0.8h3.3v0.7h-3.3v0.8h3.9v0.7h-8.6L339.6,725.3L339.6,725.3z M341.4,732.7h-0.9v-5.9h6.9v4.6c0,0.8-0.4,1.2-1.3,1.2
			h-1.9c0-0.2-0.1-0.6-0.2-0.9c0.7,0,1.3,0.1,1.8,0.1s0.7-0.2,0.7-0.6v-0.6h-5.1V732.7z M346.5,727.5h-5.1v0.8h5.1V727.5z
			 M341.4,729.9h5.1v-0.8h-5.1V729.9z"/>
		<path d="M348.9,725v-0.9h4v0.9c-0.7,2.6-1.9,4.8-3.6,6.6c-0.3-0.3-0.5-0.5-0.7-0.7c1.8-1.9,2.9-3.8,3.4-5.8L348.9,725L348.9,725z
			 M353.9,721.3h0.9v1.9c0.3,0.9,0.7,1.8,1.2,2.5c0.9-0.7,1.7-1.6,2.6-2.6l0.8,0.7c-0.9,1-1.9,1.8-2.9,2.7c1,1.6,2.3,3,3.8,4
			c-0.3,0.3-0.6,0.6-0.8,0.9c-2.1-1.6-3.6-3.6-4.6-6v5.5c0,1.2-0.6,1.7-1.7,1.7c-0.3,0-0.9,0-1.5,0c0-0.3-0.1-0.6-0.2-1.1
			c0.6,0.1,1.1,0.1,1.5,0.1c0.6,0,0.9-0.3,0.9-0.9L353.9,721.3L353.9,721.3z"/>
		<path d="M361.2,729v-0.8h3.9v0.8c-0.8,1.3-2.1,2.4-4,3.4c-0.1-0.3-0.3-0.5-0.6-0.8c1.6-0.7,2.8-1.5,3.6-2.6L361.2,729L361.2,729z
			 M360.7,725.4c1.2-0.7,2.3-1.6,3.2-2.7h-3.1v-0.8h11.1v0.8H365c-0.3,0.4-0.6,0.8-1,1.1h6.6v3.4h-0.9v-0.4H367v0.5
			c0.4,0.7,0.9,1.3,1.4,1.8c0.9-0.5,1.8-1,2.5-1.5l0.6,0.7c-0.8,0.5-1.6,0.9-2.4,1.3c0.8,0.6,1.9,1.2,3.2,1.6
			c-0.2,0.2-0.4,0.5-0.7,0.8c-2.1-0.8-3.6-2-4.6-3.5v2.7c0,0.9-0.4,1.3-1.3,1.3c-0.4,0-0.9,0-1.6,0c-0.1-0.4-0.1-0.7-0.2-0.9
			c0.5,0,1,0.1,1.4,0.1s0.7-0.2,0.7-0.7v-4.2h-2.4v0.4h-0.9V725c-0.5,0.4-1,0.8-1.6,1.2C361.1,725.9,360.9,725.6,360.7,725.4z
			 M369.8,724.6h-6v1.5h6V724.6z"/>
	</g>
	<g class="st8">
		<path d="M801.6,694.9h-5.2v-1h2V687l-2.1,0.6v-1.1l3.2-0.9v8.3h2L801.6,694.9L801.6,694.9z"/>
		<path d="M809.7,688.4l-0.1,0.7H808l-0.4,1.9h1.7l-0.1,0.7h-1.7l-0.5,2.5h-1l0.5-2.5H805l-0.5,2.5h-0.8l0.5-2.5h-1.6l0.1-0.7h1.6
			l0.4-1.9H803l0.1-0.7h1.7l0.5-2.5h0.8l-0.5,2.5h1.6l0.5-2.5h0.8l-0.5,2.5H809.7z M807.1,689.1h-1.6l-0.4,1.9h1.6L807.1,689.1z"/>
		<path d="M817.2,687.7h2.1c0.1-0.4,0.3-0.8,0.4-1.2h-3.8v3.2c0,1.8-0.1,3.1-0.3,4s-0.6,1.9-1.3,2.8c-0.2-0.3-0.4-0.5-0.7-0.8
			c0.5-0.8,0.9-1.6,1.1-2.4c0.2-0.7,0.3-1.9,0.3-3.4v-4.3h10.2v0.9h-4.4c-0.2,0.4-0.3,0.8-0.5,1.2h4v4.8h-0.9v-0.2h-2.2v2.6
			c0,1-0.4,1.5-1.3,1.5c-0.3,0-0.8,0-1.5,0c0-0.3-0.1-0.6-0.2-1c0.6,0.1,1.1,0.1,1.4,0.1c0.4,0,0.6-0.2,0.6-0.7v-2.5H818v0.2h-0.9
			v-4.8H817.2z M818.2,692.8l0.8,0.5c-0.8,1.1-1.6,2.1-2.4,3c-0.2-0.2-0.5-0.4-0.8-0.6C816.6,695,817.4,694,818.2,692.8z
			 M823.4,688.5H818v1.1h5.3v-1.1H823.4z M818,691.5h5.3v-1.1H818V691.5z M822.7,692.8c1,1,1.9,1.9,2.6,2.7l-0.8,0.7
			c-0.8-1-1.6-1.9-2.5-2.8L822.7,692.8z"/>
		<path d="M826,688.8v-0.9h4v0.9c-0.7,2.6-1.9,4.8-3.6,6.6c-0.3-0.3-0.5-0.5-0.7-0.7c1.8-1.9,2.9-3.8,3.4-5.8L826,688.8L826,688.8z
			 M831,685h0.9v1.9c0.3,0.9,0.7,1.8,1.2,2.5c0.9-0.7,1.7-1.6,2.6-2.6l0.8,0.7c-0.9,1-1.9,1.8-2.9,2.7c1,1.6,2.3,3,3.8,4
			c-0.3,0.3-0.6,0.6-0.8,0.9c-2.1-1.6-3.6-3.6-4.6-6v5.5c0,1.2-0.6,1.7-1.7,1.7c-0.3,0-0.9,0-1.5,0c0-0.3-0.1-0.6-0.2-1.1
			c0.6,0.1,1.1,0.1,1.5,0.1c0.6,0,0.9-0.3,0.9-0.9V685z"/>
		<path d="M838.3,692.7v-0.8h3.9v0.8c-0.8,1.3-2.1,2.4-4,3.4c-0.1-0.3-0.3-0.5-0.6-0.8c1.6-0.7,2.8-1.5,3.6-2.6L838.3,692.7
			L838.3,692.7z M837.8,689.1c1.2-0.7,2.3-1.6,3.2-2.7h-3v-0.8h11v0.8h-6.9c-0.3,0.4-0.6,0.8-1,1.1h6.6v3.4h-0.9v-0.4h-2.7v0.5
			c0.4,0.7,0.9,1.3,1.4,1.8c0.9-0.5,1.8-1,2.5-1.5l0.6,0.7c-0.8,0.5-1.6,0.9-2.4,1.3c0.8,0.6,1.9,1.2,3.2,1.6
			c-0.2,0.2-0.4,0.5-0.7,0.8c-2.1-0.8-3.6-2-4.6-3.5v2.7c0,0.9-0.4,1.3-1.3,1.3c-0.4,0-0.9,0-1.6,0c-0.1-0.4-0.1-0.7-0.2-0.9
			c0.5,0,1,0.1,1.4,0.1s0.7-0.2,0.7-0.7v-4.2h-2.4v0.4H840v-2.3c-0.5,0.4-1,0.8-1.6,1.2C838.2,689.6,838,689.3,837.8,689.1z
			 M846.9,688.4h-6v1.5h6V688.4z"/>
	</g>
	<g class="st8">
		<path d="M801.4,800.5h-5.5v-1l2.6-2.6c0.7-0.7,1.2-1.3,1.5-1.7c0.2-0.4,0.4-0.9,0.4-1.3c0-0.5-0.1-0.9-0.4-1.2
			c-0.3-0.3-0.7-0.4-1.3-0.4c-0.8,0-1.6,0.3-2.3,1v-1.2c0.7-0.6,1.5-0.8,2.5-0.8c0.8,0,1.5,0.2,1.9,0.7s0.7,1,0.7,1.8
			c0,0.6-0.2,1.1-0.5,1.7s-0.9,1.2-1.7,2.1l-2.1,2l0,0h4.2L801.4,800.5L801.4,800.5z"/>
		<path d="M809.7,793.9l-0.1,0.7H808l-0.4,1.9h1.7l-0.1,0.7h-1.7l-0.5,2.5h-1l0.5-2.5H805l-0.5,2.5h-0.8l0.5-2.5h-1.6l0.1-0.7h1.6
			l0.4-1.9H803l0.1-0.7h1.7l0.5-2.5h0.8l-0.5,2.5h1.6l0.5-2.5h0.8l-0.5,2.5H809.7z M807.1,794.6h-1.6l-0.4,1.9h1.6L807.1,794.6z"/>
		<path d="M817.2,793.2h2.1c0.1-0.4,0.3-0.8,0.4-1.2h-3.8v3.2c0,1.8-0.1,3.1-0.3,4s-0.6,1.9-1.3,2.8c-0.2-0.3-0.4-0.5-0.7-0.8
			c0.5-0.8,0.9-1.6,1.1-2.4c0.2-0.7,0.3-1.9,0.3-3.4v-4.3h10.2v0.9h-4.4c-0.2,0.4-0.3,0.8-0.5,1.2h4v4.8h-0.9v-0.2h-2.2v2.6
			c0,1-0.4,1.5-1.3,1.5c-0.3,0-0.8,0-1.5,0c0-0.3-0.1-0.6-0.2-1c0.6,0.1,1.1,0.1,1.4,0.1c0.4,0,0.6-0.2,0.6-0.7v-2.5H818v0.2h-0.9
			v-4.8H817.2z M818.2,798.3l0.8,0.5c-0.8,1.1-1.6,2.1-2.4,3c-0.2-0.2-0.5-0.4-0.8-0.6C816.6,800.5,817.4,799.5,818.2,798.3z
			 M823.4,794H818v1.1h5.3V794H823.4z M818,797h5.3v-1.1H818V797z M822.7,798.3c1,1,1.9,1.9,2.6,2.7l-0.8,0.7
			c-0.8-1-1.6-1.9-2.5-2.8L822.7,798.3z"/>
		<path d="M826,794.3v-0.9h4v0.9c-0.7,2.6-1.9,4.8-3.6,6.6c-0.3-0.3-0.5-0.5-0.7-0.7c1.8-1.9,2.9-3.8,3.4-5.8L826,794.3L826,794.3z
			 M831,790.5h0.9v1.9c0.3,0.9,0.7,1.8,1.2,2.5c0.9-0.7,1.7-1.6,2.6-2.6l0.8,0.7c-0.9,1-1.9,1.8-2.9,2.7c1,1.6,2.3,3,3.8,4
			c-0.3,0.3-0.6,0.6-0.8,0.9c-2.1-1.6-3.6-3.6-4.6-6v5.5c0,1.2-0.6,1.7-1.7,1.7c-0.3,0-0.9,0-1.5,0c0-0.3-0.1-0.6-0.2-1.1
			c0.6,0.1,1.1,0.1,1.5,0.1c0.6,0,0.9-0.3,0.9-0.9V790.5z"/>
		<path d="M838.3,798.2v-0.8h3.9v0.8c-0.8,1.3-2.1,2.4-4,3.4c-0.1-0.3-0.3-0.5-0.6-0.8c1.6-0.7,2.8-1.5,3.6-2.6L838.3,798.2
			L838.3,798.2z M837.8,794.6c1.2-0.7,2.3-1.6,3.2-2.7h-3v-0.8h11v0.8h-6.9c-0.3,0.4-0.6,0.8-1,1.1h6.6v3.4h-0.9V796h-2.7v0.5
			c0.4,0.7,0.9,1.3,1.4,1.8c0.9-0.5,1.8-1,2.5-1.5l0.6,0.7c-0.8,0.5-1.6,0.9-2.4,1.3c0.8,0.6,1.9,1.2,3.2,1.6
			c-0.2,0.2-0.4,0.5-0.7,0.8c-2.1-0.8-3.6-2-4.6-3.5v2.7c0,0.9-0.4,1.3-1.3,1.3c-0.4,0-0.9,0-1.6,0c-0.1-0.4-0.1-0.7-0.2-0.9
			c0.5,0,1,0.1,1.4,0.1s0.7-0.2,0.7-0.7V796h-2.4v0.4H840v-2.3c-0.5,0.4-1,0.8-1.6,1.2C838.2,795.1,838,794.8,837.8,794.6z
			 M846.9,793.9h-6v1.5h6V793.9z"/>
	</g>
	<g class="st8">
		<path d="M319,821c0.6,0.5,1.3,0.7,2.1,0.7c0.6,0,1.1-0.2,1.5-0.5s0.5-0.7,0.5-1.2c0-1.1-0.8-1.7-2.5-1.7h-0.8v-0.9h0.7
			c1.5,0,2.2-0.5,2.2-1.6c0-1-0.6-1.5-1.7-1.5c-0.6,0-1.2,0.2-1.8,0.6v-1.1c0.6-0.3,1.3-0.5,2.1-0.5c0.8,0,1.4,0.2,1.9,0.6
			s0.7,0.9,0.7,1.6c0,1.2-0.6,2-1.8,2.3l0,0c0.7,0.1,1.2,0.3,1.6,0.7s0.6,0.9,0.6,1.5c0,0.8-0.3,1.5-0.9,2s-1.4,0.8-2.3,0.8
			s-1.6-0.2-2.1-0.5L319,821L319,821z"/>
		<path d="M332.6,816l-0.1,0.7h-1.6l-0.4,1.9h1.7l-0.1,0.7h-1.7l-0.5,2.5h-0.8l0.5-2.5H328l-0.5,2.5h-0.8l0.5-2.5h-1.6l0.1-0.7h1.6
			l0.4-1.9H326l0.1-0.7h1.7l0.5-2.5h0.8l-0.5,2.5h1.6l0.5-2.5h0.8L331,816H332.6z M330,816.7h-1.6l-0.4,1.9h1.6L330,816.7z"/>
		<path d="M336.6,816.5l0.6-0.7c0.7,0.5,1.4,1,2,1.5c-0.3,0.3-0.5,0.6-0.7,0.8C337.8,817.4,337.1,816.9,336.6,816.5z M337,823.7
			c0.5-1.5,0.9-3,1.2-4.5c0.3,0.1,0.7,0.3,0.9,0.4c-0.4,1.5-0.8,2.9-1.1,4.5L337,823.7z M337,813.4l0.6-0.6c0.5,0.4,1.2,0.9,2,1.7
			c-0.3,0.3-0.5,0.5-0.7,0.7C338.1,814.4,337.5,813.8,337,813.4z M339.6,816.6h3.9v-0.8h-3.1v-0.7h3.1v-0.8H340v-0.7h3.5v-1.1h0.9
			v1.1h3.7v0.7h-3.7v0.8h3.3v0.7h-3.3v0.8h3.9v0.7h-8.6L339.6,816.6L339.6,816.6z M341.4,824h-0.9v-5.9h6.9v4.6
			c0,0.8-0.4,1.2-1.3,1.2h-1.9c0-0.2-0.1-0.6-0.2-0.9c0.7,0,1.3,0.1,1.8,0.1s0.7-0.2,0.7-0.6v-0.6h-5.1V824z M346.5,818.8h-5.1v0.8
			h5.1V818.8z M341.4,821.2h5.1v-0.8h-5.1V821.2z"/>
		<path d="M348.9,816.4v-0.9h4v0.9c-0.7,2.6-1.9,4.8-3.6,6.6c-0.3-0.3-0.5-0.5-0.7-0.7c1.8-1.9,2.9-3.8,3.4-5.8L348.9,816.4
			L348.9,816.4z M353.9,812.6h0.9v1.9c0.3,0.9,0.7,1.8,1.2,2.5c0.9-0.7,1.7-1.6,2.6-2.6l0.8,0.7c-0.9,1-1.9,1.8-2.9,2.7
			c1,1.6,2.3,3,3.8,4c-0.3,0.3-0.6,0.6-0.8,0.9c-2.1-1.6-3.6-3.6-4.6-6v5.5c0,1.2-0.6,1.7-1.7,1.7c-0.3,0-0.9,0-1.5,0
			c0-0.3-0.1-0.6-0.2-1.1c0.6,0.1,1.1,0.1,1.5,0.1c0.6,0,0.9-0.3,0.9-0.9L353.9,812.6L353.9,812.6z"/>
		<path d="M361.2,820.3v-0.8h3.9v0.8c-0.8,1.3-2.1,2.4-4,3.4c-0.1-0.3-0.3-0.5-0.6-0.8c1.6-0.7,2.8-1.5,3.6-2.6L361.2,820.3
			L361.2,820.3z M360.7,816.7c1.2-0.7,2.3-1.6,3.2-2.7h-3.1v-0.8h11.1v0.8H365c-0.3,0.4-0.6,0.8-1,1.1h6.6v3.4h-0.9v-0.4H367v0.5
			c0.4,0.7,0.9,1.3,1.4,1.8c0.9-0.5,1.8-1,2.5-1.5l0.6,0.7c-0.8,0.5-1.6,0.9-2.4,1.3c0.8,0.6,1.9,1.2,3.2,1.6
			c-0.2,0.2-0.4,0.5-0.7,0.8c-2.1-0.8-3.6-2-4.6-3.5v2.7c0,0.9-0.4,1.3-1.3,1.3c-0.4,0-0.9,0-1.6,0c-0.1-0.4-0.1-0.7-0.2-0.9
			c0.5,0,1,0.1,1.4,0.1s0.7-0.2,0.7-0.7v-4.2h-2.4v0.4h-0.9v-2.3c-0.5,0.4-1,0.8-1.6,1.2C361.1,817.2,360.9,816.9,360.7,816.7z
			 M369.8,816h-6v1.5h6V816z"/>
	</g>
</g>
<g id="图层_5">
</g>
</svg>
