<?xml version="1.0" encoding="utf-8"?>
<!-- Generator: Adobe Illustrator 19.2.1, SVG Export Plug-In . SVG Version: 6.00 Build 0)  -->
<svg version="1.1" id="图层_1" xmlns="http://www.w3.org/2000/svg" xmlns:xlink="http://www.w3.org/1999/xlink" x="0px" y="0px"
	 viewBox="0 0 32 32" style="enable-background:new 0 0 32 32;" xml:space="preserve">
<style type="text/css">
	.st0{fill:#FFFFFF;}
</style>
<g>
	<path class="st0" d="M26.1,20.7L26.1,20.7c0-0.2,0-0.3-0.1-0.4c0-0.1,0-0.2,0-0.3l0,0c-0.2-0.6-0.4-1.1-0.6-1.6L17,1
		c-1.3-2.2-2.4,0-2.4,0L6.3,18.7c-0.2,0.5-0.3,1.1-0.4,1.7C5.1,25.9,9,31.1,14.6,31.9c5.6,0.8,10.7-3.1,11.5-8.7
		c0.1-0.5,0.1-1,0.1-1.5C26.2,21.4,26.2,21.1,26.1,20.7L26.1,20.7z M16,21c-3.1-2.8-6-2.5-8-1.8l8-16.6l7.7,16.3
		c0.4,0.9,0.7,1.9,0.7,2.9C22.4,23.2,19.3,24,16,21L16,21z"/>
</g>
</svg>
