<?xml version="1.0" encoding="utf-8"?>
<!-- Generator: Adobe Illustrator 19.2.1, SVG Export Plug-In . SVG Version: 6.00 Build 0)  -->
<svg version="1.1" id="图层_1" xmlns="http://www.w3.org/2000/svg" xmlns:xlink="http://www.w3.org/1999/xlink" x="0px" y="0px"
	 viewBox="0 0 24 24" style="enable-background:new 0 0 24 24;" xml:space="preserve">
<style type="text/css">
	.st0{fill:#FFFFFF;}
</style>
<g>
	<g transform="scale(0.1953125, 0.1953125)">
		<path class="st0" d="M86.7,34.1V21.7c0-2.1-0.8-2.5-2.7-3.8c-3.8-2.7-4.6-4.3-4.6-8.6V0h7.3v9.6c0,2.7,1.4,3.1,3.3,4.5
			c2.9,2.2,4,4,4,7.3v12.7H86.7L86.7,34.1z M57.1,34.1V21.7c0-2.1-0.8-2.5-2.7-3.8c-3.8-2.7-4.6-4.3-4.6-8.6V0h7.3v9.6
			c0,2.7,1.4,3.1,3.3,4.5c2.9,2.2,4,4,4,7.3v12.7H57.1L57.1,34.1z M27.5,9.6c0,2.7,1.4,3.1,3.3,4.5c2.9,2.2,4,4,4,7.3v12.7h-7.3
			V21.7c0-2.1-0.8-2.5-2.7-3.8c-3.8-2.7-4.6-4.3-4.6-8.6V0h7.3"/>
	</g>
</g>
<g>
	<g transform="scale(0.1953125, 0.1953125)">
		<path class="st0" d="M115.4,105.2v17.6H7.5v-17.6h9l0.1-34c1.8-17,21.1-30.4,44.6-30.4s42.8,13.4,44.6,30.4l0.1,34L115.4,105.2
			L115.4,105.2z M41.5,71.2H28.9v33.9h12.5L41.5,71.2z M67.4,71.2H54.8v33.9h12.5L67.4,71.2L67.4,71.2z M93.3,71.2H80.7v33.9h12.5
			V71.2z"/>
	</g>
</g>
</svg>
