<?xml version="1.0" encoding="utf-8"?>
<!-- Generator: Adobe Illustrator 19.2.1, SVG Export Plug-In . SVG Version: 6.00 Build 0)  -->
<svg version="1.1" id="图层_1" xmlns="http://www.w3.org/2000/svg" xmlns:xlink="http://www.w3.org/1999/xlink" x="0px" y="0px"
	 viewBox="0 0 162 112" style="enable-background:new 0 0 162 112;" xml:space="preserve">
<style type="text/css">
	.st0{opacity:0.5;}
	.st1{fill:#FFFFFF;}
</style>
<g class="st0">
	<g>
		<g>
			<g>
				<path class="st1" d="M23.1,112h115.8c5.9,0,10.7-4.8,10.7-10.7V90H12.4v11.3C12.4,107.2,17.2,112,23.1,112z"/>
			</g>
			<g>
				<path class="st1" d="M149.6,22V10.7c0-5.9-4.8-10.7-10.7-10.7H23.1c-5.9,0-10.7,4.8-10.7,10.7V22L149.6,22z"/>
			</g>
		</g>
		<g>
			<polygon class="st1" points="113.4,73.1 149.6,68 149.6,63.3 113.4,68.4 			"/>
			<polygon class="st1" points="113.4,82.6 149.6,82.6 149.6,75.4 113.4,80.6 			"/>
			<polygon class="st1" points="113.4,61 149.6,55.8 149.6,51.2 113.4,56.3 			"/>
			<polygon class="st1" points="113.4,48.8 149.6,43.7 149.6,39.1 113.4,44.2 			"/>
			<polygon class="st1" points="149.6,29.4 113.4,29.4 113.4,36.7 149.6,31.6 			"/>
			<path class="st1" d="M161.1,85.1h-11.5h-36.2h-2.3c-0.5,0-0.9,0.4-0.9,0.9v0.5c0,0.5,0.4,0.9,0.9,0.9h2.3h36.2h11.5
				c0.5,0,0.9-0.4,0.9-0.9v-0.5C162,85.6,161.6,85.1,161.1,85.1z"/>
			<path class="st1" d="M110.4,77.5c0.1,0.5,0.5,0.8,0.9,0.8c0,0,0.1,0,0.1,0l1.9-0.3l36.2-5.1l3.2-0.5c0.5-0.1,0.9-0.6,0.8-1.1
				l-0.1-0.5c-0.1-0.5-0.5-0.8-0.9-0.8c0,0-0.1,0-0.1,0l-2.9,0.4l-36.2,5.1l-2.2,0.3c-0.5,0.1-0.9,0.6-0.8,1.1L110.4,77.5z"/>
			<path class="st1" d="M110.4,65.4c0.1,0.5,0.5,0.8,0.9,0.8c0,0,0.1,0,0.1,0l1.9-0.3l36.2-5.1l3.2-0.5c0.5-0.1,0.9-0.6,0.8-1.1
				l-0.1-0.5c-0.1-0.5-0.5-0.8-0.9-0.8c0,0-0.1,0-0.1,0l-2.9,0.4l-36.2,5.1l-2.2,0.3c-0.5,0.1-0.9,0.6-0.8,1.1L110.4,65.4z"/>
			<path class="st1" d="M110.4,53.2c0.1,0.5,0.5,0.8,0.9,0.8c0,0,0.1,0,0.1,0l1.9-0.3l36.2-5.1l3.2-0.5c0.5-0.1,0.9-0.6,0.8-1.1
				l-0.1-0.5c-0.1-0.5-0.5-0.8-0.9-0.8c0,0-0.1,0-0.1,0l-2.9,0.4l-36.2,5.1l-2.2,0.3c-0.5,0.1-0.9,0.6-0.8,1.1L110.4,53.2z"/>
			<path class="st1" d="M111.2,39.6c-0.5,0.1-0.9,0.6-0.8,1.1l0.1,0.5c0.1,0.5,0.5,0.8,0.9,0.8c0,0,0.1,0,0.1,0l1.9-0.3l36.2-5.1
				l3.2-0.5c0.5-0.1,0.9-0.6,0.8-1.1l-0.1-0.5c-0.1-0.5-0.5-0.8-0.9-0.8c0,0-0.1,0-0.1,0l-2.9,0.4l-36.2,5.1L111.2,39.6z"/>
			<path class="st1" d="M161.1,24.5h-11.5h-36.2h-2.3c-0.5,0-0.9,0.4-0.9,0.9v0.5c0,0.5,0.4,0.9,0.9,0.9h2.3h36.2h11.5
				c0.5,0,0.9-0.4,0.9-0.9v-0.5C162,24.9,161.6,24.5,161.1,24.5z"/>
		</g>
		<g>
			<polygon class="st1" points="48.6,73.1 12.4,68 12.4,63.3 48.6,68.4 			"/>
			<polygon class="st1" points="48.6,82.6 12.4,82.6 12.4,75.4 48.6,80.6 			"/>
			<polygon class="st1" points="48.6,61 12.4,55.8 12.4,51.2 48.6,56.3 			"/>
			<polygon class="st1" points="48.6,48.8 12.4,43.7 12.4,39.1 48.6,44.2 			"/>
			<polygon class="st1" points="12.4,29.4 48.6,29.4 48.6,36.7 12.4,31.6 			"/>
			<path class="st1" d="M0.9,85.1h11.5h36.2h2.3c0.5,0,0.9,0.4,0.9,0.9v0.5c0,0.5-0.4,0.9-0.9,0.9h-2.3H12.4H0.9
				c-0.5,0-0.9-0.4-0.9-0.9l0-0.5C0,85.6,0.4,85.1,0.9,85.1z"/>
			<path class="st1" d="M51.6,77.5c-0.1,0.5-0.5,0.8-0.9,0.8c0,0-0.1,0-0.1,0L48.6,78l-36.2-5.1l-3.2-0.5c-0.5-0.1-0.9-0.6-0.8-1.1
				l0.1-0.5c0.1-0.5,0.5-0.8,0.9-0.8c0,0,0.1,0,0.1,0l2.9,0.4l36.2,5.1l2.2,0.3c0.5,0.1,0.9,0.6,0.8,1.1L51.6,77.5z"/>
			<path class="st1" d="M51.6,65.4c-0.1,0.5-0.5,0.8-0.9,0.8c0,0-0.1,0-0.1,0l-1.9-0.3l-36.2-5.1l-3.2-0.5c-0.5-0.1-0.9-0.6-0.8-1.1
				l0.1-0.5C8.5,58.3,8.9,58,9.4,58c0,0,0.1,0,0.1,0l2.9,0.4l36.2,5.1l2.2,0.3c0.5,0.1,0.9,0.6,0.8,1.1L51.6,65.4z"/>
			<path class="st1" d="M51.6,53.2c-0.1,0.5-0.5,0.8-0.9,0.8c0,0-0.1,0-0.1,0l-1.9-0.3l-36.2-5.1l-3.2-0.5c-0.5-0.1-0.9-0.6-0.8-1.1
				l0.1-0.5c0.1-0.5,0.5-0.8,0.9-0.8c0,0,0.1,0,0.1,0l2.9,0.4l36.2,5.1l2.2,0.3c0.5,0.1,0.9,0.6,0.8,1.1L51.6,53.2z"/>
			<path class="st1" d="M50.8,39.6c0.5,0.1,0.9,0.6,0.8,1.1l-0.1,0.5c-0.1,0.5-0.5,0.8-0.9,0.8c0,0-0.1,0-0.1,0l-1.9-0.3l-36.2-5.1
				L9.2,36C8.7,36,8.3,35.5,8.4,35l0.1-0.5c0.1-0.5,0.5-0.8,0.9-0.8c0,0,0.1,0,0.1,0l2.9,0.4l36.2,5.1L50.8,39.6z"/>
			<path class="st1" d="M0.9,24.5h11.5h36.2h2.3c0.5,0,0.9,0.4,0.9,0.9v0.5c0,0.5-0.4,0.9-0.9,0.9h-2.3H12.4H0.9
				c-0.5,0-0.9-0.4-0.9-0.9l0-0.5C0,24.9,0.4,24.5,0.9,24.5z"/>
		</g>
	</g>
</g>
</svg>
