<?xml version="1.0" encoding="utf-8"?>
<!-- Generator: Adobe Illustrator 19.2.1, SVG Export Plug-In . SVG Version: 6.00 Build 0)  -->
<svg version="1.1" id="图层_1" xmlns="http://www.w3.org/2000/svg" xmlns:xlink="http://www.w3.org/1999/xlink" x="0px" y="0px"
	 viewBox="0 0 24 24" style="enable-background:new 0 0 24 24;" xml:space="preserve">
<style type="text/css">
	.st0{fill:#FFFFFF;}
</style>
<path class="st0" d="M2,2v20h20V2H2z M20.2,14.4c-0.3-0.2-0.7-0.3-1.2-0.3c-1,0-2.1,0.6-2.7,0.6c-0.6,0-1.3-0.7-2.1-0.6
	c-0.9,0.1-1.9,0.7-2.4,0.6c-0.5,0-1.6-0.6-2.3-0.6c-0.7,0-2.2,0.7-2.5,0.6c-0.3,0-1.7-0.6-2.5-0.6c-0.3,0-0.6,0.1-0.8,0.2v-1
	c0.5-0.1,1-0.3,1.5-0.3c0.9-0.1,1.4,0.5,2.1,0.5c0.7,0,1.7-0.6,2.5-0.6s1.5,0.5,2.2,0.6c0.6,0.1,1.8-0.6,2.5-0.6
	c0.6,0,1.6,0.5,2.3,0.5c0.7,0,2-0.7,2.4-0.7c0.2,0,0.7,0.2,1.1,0.3V14.4z M5.2,15.7c0.9-0.1,1.4,0.5,2.1,0.6
	c0.7,0.1,1.7-0.6,2.5-0.6s1.5,0.5,2.2,0.6c0.6,0.1,1.8-0.6,2.5-0.6c0.6,0,1.6,0.5,2.3,0.5c0.7,0,2-0.7,2.4-0.7
	c0.2,0,0.7,0.2,1.1,0.3v1.4c-0.3-0.2-0.7-0.3-1.2-0.3c-1,0-2.1,0.6-2.7,0.6c-0.6,0-1.3-0.7-2.1-0.6c-0.9,0.1-1.9,0.7-2.4,0.6
	c-0.5-0.1-1.6-0.6-2.3-0.6c-0.7,0-2.2,0.7-2.5,0.6c-0.3-0.1-1.7-0.6-2.5-0.6c-0.3,0-0.6,0.1-0.8,0.2v-1C4.2,15.9,4.8,15.7,5.2,15.7z
	 M20.2,3.8v7.8c-0.3-0.1-0.7-0.3-1.2-0.3c-1,0.1-2.1,0.6-2.7,0.6c-0.6,0-1.3-0.7-2.1-0.6c-0.9,0.1-1.9,0.7-2.4,0.6
	c-0.5,0-1.6-0.6-2.3-0.6c-0.7,0-2.2,0.7-2.5,0.6c-0.3,0-1.7-0.6-2.5-0.6c-0.3,0-0.6,0.1-0.8,0.2V3.8H20.2z M3.8,20.2v-1.4
	c0.5-0.1,1-0.3,1.5-0.3c0.9-0.1,1.4,0.5,2.1,0.6c0.7,0.1,1.7-0.6,2.5-0.6s1.5,0.5,2.2,0.6c0.6,0.1,1.8-0.6,2.5-0.6s1.6,0.5,2.3,0.5
	c0.7,0,2-0.7,2.4-0.7c0.2,0,0.7,0.2,1.1,0.3v1.6H3.8z"/>
</svg>
