<?xml version="1.0" encoding="utf-8"?>
<!-- Generator: Adobe Illustrator 19.2.1, SVG Export Plug-In . SVG Version: 6.00 Build 0)  -->
<svg version="1.1" id="图层_1" xmlns="http://www.w3.org/2000/svg" xmlns:xlink="http://www.w3.org/1999/xlink" x="0px" y="0px"
	 viewBox="0 0 24 24" style="enable-background:new 0 0 24 24;" xml:space="preserve">
<style type="text/css">
	.st0{fill:#FFFFFF;}
</style>
<g>
	<path class="st0" d="M15.4,12.1L12,6l-3.4,6.1l0,0.1c-0.3,0.6-0.5,1.2-0.5,1.9c0,2.2,1.8,3.9,3.9,3.9s3.9-1.8,3.9-3.9
		C15.9,13.4,15.8,12.7,15.4,12.1L15.4,12.1z"/>
	<g>
		<path class="st0" d="M2,2v20h20V2H2z M20.2,11.6c-0.3-0.1-0.7-0.3-1.2-0.3c-0.7,0-1.5,0.3-2.1,0.5c0.2,0.4,0.3,0.9,0.4,1.3
			c0.7-0.2,1.4-0.6,1.8-0.6c0.2,0,0.7,0.2,1.1,0.3v1.5c-0.3-0.2-0.7-0.3-1.2-0.3c-0.6,0-1.1,0.2-1.6,0.4c0,0.6-0.2,1.1-0.4,1.7
			c0.7-0.1,1.7-0.7,2.1-0.7c0.2,0,0.7,0.2,1.1,0.3v1.4c-0.3-0.2-0.7-0.3-1.2-0.3c-1,0-2.1,0.6-2.7,0.6c0,0-0.1,0-0.1,0
			c-0.3,0.4-0.7,0.8-1.2,1.1c0.6,0.1,1.2,0.4,1.7,0.4c0.7,0,2-0.7,2.4-0.7c0.2,0,0.7,0.2,1.1,0.3v1.6H3.8v-1.4
			c0.5-0.1,1-0.3,1.5-0.3c0.9-0.1,1.4,0.5,2.1,0.6c0.5,0,1.2-0.3,1.7-0.4c-0.5-0.3-1-0.8-1.4-1.3c-0.3,0.1-0.5,0.2-0.6,0.1
			c-0.3-0.1-1.7-0.6-2.5-0.6c-0.3,0-0.6,0.1-0.8,0.2v-1c0.5-0.1,1-0.3,1.5-0.3C6,15.6,6.5,16,7,16.2c-0.2-0.5-0.4-1-0.4-1.6
			c-0.6-0.2-1.4-0.5-2-0.5c-0.3,0-0.6,0.1-0.8,0.2v-1c0.5-0.1,1-0.3,1.5-0.3c0.6,0,1,0.1,1.4,0.3C6.7,12.8,6.8,12.4,7,12
			c-0.4-0.1-1.7-0.6-2.4-0.6c-0.3,0-0.6,0.1-0.8,0.2V3.8h16.4V11.6z"/>
	</g>
</g>
</svg>
