<?xml version="1.0" encoding="utf-8"?>
<!-- Generator: Adobe Illustrator 19.2.1, SVG Export Plug-In . SVG Version: 6.00 Build 0)  -->
<svg version="1.1" id="图层_1" xmlns="http://www.w3.org/2000/svg" xmlns:xlink="http://www.w3.org/1999/xlink" x="0px" y="0px"
	 viewBox="0 0 32 32" style="enable-background:new 0 0 32 32;" xml:space="preserve">
<style type="text/css">
	.st0{fill:#FFFFFF;}
</style>
<g>
	<path class="st0" d="M17.6,19.1V8.1c0-0.8-0.8-1.4-1.8-1.4S14,7.4,14,8.1v10.9c-2.3,1-3.3,3.7-2.3,5.9c1,2.3,3.7,3.3,5.9,2.3
		s3.3-3.7,2.3-5.9C19.4,20.3,18.6,19.5,17.6,19.1L17.6,19.1z"/>
	<path class="st0" d="M21.8,16.8V4.9c0-1.4-0.7-2.7-1.9-3.6C18.7,0.4,17.3,0,15.8,0c-1.5,0-2.9,0.4-4.1,1.3
		c-1.2,0.8-1.9,2.1-1.9,3.6v11.9C6.2,20.1,6,25.7,9.4,29.2c3.3,3.5,8.9,3.7,12.5,0.4s3.7-8.9,0.4-12.5C22.1,17,22,16.9,21.8,16.8
		L21.8,16.8L21.8,16.8z M15.8,29.6c-3.6,0-6.4-2.9-6.5-6.4c0-1.9,0.9-3.8,2.3-5l0.4-0.4v-13c0-1.4,1.7-2.5,3.7-2.5s3.7,1.1,3.7,2.5
		v13l0.4,0.4c2.7,2.3,3.1,6.3,0.9,9.1C19.5,28.8,17.7,29.6,15.8,29.6L15.8,29.6z"/>
	<path class="st0" d="M23,6.1h1.4c0.3,0,0.6-0.3,0.6-0.6S24.7,5,24.4,5H23c-0.3,0-0.6,0.3-0.6,0.6S22.7,6.1,23,6.1L23,6.1z"/>
	<path class="st0" d="M24.4,6.8H23c-0.3,0-0.6,0.3-0.6,0.6s0.3,0.6,0.6,0.6h1.4c0.3,0,0.6-0.3,0.6-0.6S24.7,6.8,24.4,6.8L24.4,6.8z"
		/>
	<path class="st0" d="M24.4,8.6H23c-0.3,0-0.6,0.3-0.6,0.6c0,0.3,0.3,0.6,0.6,0.6h1.4c0.3,0,0.6-0.3,0.6-0.6
		C25,8.8,24.7,8.6,24.4,8.6L24.4,8.6z"/>
	<path class="st0" d="M24.4,10.3H23c-0.3,0-0.6,0.3-0.6,0.6s0.3,0.6,0.6,0.6h1.4c0.3,0,0.6-0.3,0.6-0.6S24.7,10.3,24.4,10.3
		L24.4,10.3z"/>
	<path class="st0" d="M24.4,12.1H23c-0.3,0-0.6,0.3-0.6,0.6s0.3,0.6,0.6,0.6h1.4c0.3,0,0.6-0.3,0.6-0.6S24.7,12.1,24.4,12.1
		L24.4,12.1z"/>
	<path class="st0" d="M24.4,13.9H23c-0.3,0-0.6,0.3-0.6,0.6s0.3,0.6,0.6,0.6h1.4c0.3,0,0.6-0.3,0.6-0.6S24.7,13.9,24.4,13.9
		L24.4,13.9z"/>
</g>
</svg>
