<?xml version="1.0" encoding="utf-8"?>
<!-- Generator: Adobe Illustrator 19.2.1, SVG Export Plug-In . SVG Version: 6.00 Build 0)  -->
<svg version="1.1" id="图层_1" xmlns="http://www.w3.org/2000/svg" xmlns:xlink="http://www.w3.org/1999/xlink" x="0px" y="0px"
	 viewBox="0 0 1600 900" style="enable-background:new 0 0 1600 900;" xml:space="preserve">
<style type="text/css">
	.st0{fill:#DDDDDD;stroke:#FFFFFF;stroke-width:3;stroke-miterlimit:10;}
	.st1{fill:#EFEFEF;}
	.st2{clip-path:url(#SVGID_2_);}
	.st3{opacity:0.6;}
	.st4{fill:none;stroke:#B5B5B6;stroke-width:0.25;stroke-miterlimit:10;}
	.st5{fill:#AAAAAA;}
	.st6{fill:none;stroke:#AAAAAA;stroke-width:0.5;stroke-miterlimit:10;}
	.st7{clip-path:url(#SVGID_4_);}
	.st8{fill:#6B6B6B;stroke:#FFFFFF;stroke-miterlimit:10;}
	.st9{enable-background:new    ;}
	.st10{fill:#FFFFFF;}
</style>
<g>
	<rect x="65.6" y="138.1" class="st0" width="1069.8" height="651.8"/>
	<rect x="79.9" y="155" class="st1" width="1041.2" height="617.9"/>
	<g>
		<g>
			<defs>
				<rect id="SVGID_1_" x="79.9" y="155" width="1041.2" height="618.5"/>
			</defs>
			<clipPath id="SVGID_2_">
				<use xlink:href="#SVGID_1_"  style="overflow:visible;"/>
			</clipPath>
			<g class="st2">
				<g class="st3">
					<line class="st4" x1="95.8" y1="154.7" x2="95.4" y2="790.7"/>
					<line class="st4" x1="117.6" y1="154.7" x2="117.2" y2="790.7"/>
					<line class="st4" x1="74" y1="154.7" x2="73.6" y2="790.7"/>
					<line class="st4" x1="52.3" y1="154.7" x2="51.8" y2="790.7"/>
					<line class="st4" x1="139.4" y1="154.8" x2="138.9" y2="790.8"/>
					<line class="st4" x1="161.2" y1="154.8" x2="160.7" y2="790.8"/>
					<line class="st4" x1="183" y1="154.8" x2="182.5" y2="790.8"/>
					<line class="st4" x1="204.8" y1="154.8" x2="204.3" y2="790.8"/>
					<line class="st4" x1="226.6" y1="154.8" x2="226.1" y2="790.8"/>
					<line class="st4" x1="248.4" y1="154.8" x2="247.9" y2="790.8"/>
					<line class="st4" x1="270.2" y1="154.8" x2="269.7" y2="790.8"/>
					<line class="st4" x1="292" y1="154.8" x2="291.5" y2="790.9"/>
					<line class="st4" x1="313.7" y1="154.9" x2="313.3" y2="790.9"/>
					<line class="st4" x1="335.5" y1="154.9" x2="335.1" y2="790.9"/>
					<line class="st4" x1="357.3" y1="154.9" x2="356.9" y2="790.9"/>
					<line class="st4" x1="379.1" y1="154.9" x2="378.6" y2="790.9"/>
					<line class="st4" x1="400.9" y1="154.9" x2="400.4" y2="790.9"/>
					<line class="st4" x1="422.7" y1="154.9" x2="422.2" y2="790.9"/>
					<line class="st4" x1="444.5" y1="154.9" x2="444" y2="790.9"/>
					<line class="st4" x1="466.3" y1="155" x2="465.8" y2="791"/>
					<line class="st4" x1="771.3" y1="155.1" x2="770.9" y2="791.1"/>
					<line class="st4" x1="793.1" y1="155.1" x2="792.7" y2="791.1"/>
					<line class="st4" x1="749.6" y1="155.1" x2="749.1" y2="791.1"/>
					<line class="st4" x1="727.8" y1="155.1" x2="727.3" y2="791.1"/>
					<line class="st4" x1="706" y1="155.1" x2="705.5" y2="791.1"/>
					<line class="st4" x1="684.2" y1="155.1" x2="683.7" y2="791.1"/>
					<line class="st4" x1="662.4" y1="155.1" x2="661.9" y2="791.1"/>
					<line class="st4" x1="640.6" y1="155.1" x2="640.1" y2="791.1"/>
					<line class="st4" x1="618.8" y1="155" x2="618.3" y2="791"/>
					<line class="st4" x1="597" y1="155" x2="596.6" y2="791"/>
					<line class="st4" x1="575.2" y1="155" x2="574.8" y2="791"/>
					<line class="st4" x1="553.4" y1="155" x2="553" y2="791"/>
					<line class="st4" x1="531.7" y1="155" x2="531.2" y2="791"/>
					<line class="st4" x1="509.9" y1="155" x2="509.4" y2="791"/>
					<line class="st4" x1="488.1" y1="155" x2="487.6" y2="791"/>
					<line class="st4" x1="814.9" y1="155.2" x2="814.5" y2="791.2"/>
					<line class="st4" x1="836.7" y1="155.2" x2="836.2" y2="791.2"/>
					<line class="st4" x1="858.5" y1="155.2" x2="858" y2="791.2"/>
					<line class="st4" x1="880.3" y1="155.2" x2="879.8" y2="791.2"/>
					<line class="st4" x1="902.1" y1="155.2" x2="901.6" y2="791.2"/>
					<line class="st4" x1="923.9" y1="155.2" x2="923.4" y2="791.2"/>
					<line class="st4" x1="945.7" y1="155.2" x2="945.2" y2="791.2"/>
					<line class="st4" x1="967.5" y1="155.2" x2="967" y2="791.2"/>
					<line class="st4" x1="989.3" y1="155.3" x2="988.8" y2="791.3"/>
					<line class="st4" x1="1011" y1="155.3" x2="1010.6" y2="791.3"/>
					<line class="st4" x1="1032.8" y1="155.3" x2="1032.4" y2="791.3"/>
					<line class="st4" x1="1054.6" y1="155.3" x2="1054.2" y2="791.3"/>
					<line class="st4" x1="1076.4" y1="155.3" x2="1075.9" y2="791.3"/>
					<line class="st4" x1="1098.2" y1="155.3" x2="1097.7" y2="791.3"/>
					<line class="st4" x1="1120" y1="155.3" x2="1119.5" y2="791.3"/>
					<line class="st4" x1="1141.8" y1="155.3" x2="1141.3" y2="791.3"/>
					<line class="st4" x1="1207.2" y1="155.4" x2="1206.7" y2="791.4"/>
					<line class="st4" x1="1185.4" y1="155.4" x2="1184.9" y2="791.4"/>
					<line class="st4" x1="1163.6" y1="155.4" x2="1163.1" y2="791.4"/>
				</g>
				<g class="st3">
					<line class="st4" x1="1205.3" y1="266.5" x2="40.8" y2="265.5"/>
					<line class="st4" x1="1205.3" y1="287.1" x2="40.8" y2="286.1"/>
					<line class="st4" x1="1205.4" y1="245.9" x2="40.8" y2="244.9"/>
					<line class="st4" x1="1205.4" y1="225.3" x2="40.8" y2="224.3"/>
					<line class="st4" x1="1205.4" y1="204.8" x2="40.8" y2="203.7"/>
					<line class="st4" x1="1205.4" y1="184.2" x2="40.8" y2="183.1"/>
					<line class="st4" x1="1205.4" y1="163.6" x2="40.8" y2="162.5"/>
					<line class="st4" x1="1205.3" y1="307.7" x2="40.7" y2="306.7"/>
					<line class="st4" x1="1205.3" y1="328.3" x2="40.7" y2="327.3"/>
					<line class="st4" x1="1205.3" y1="348.9" x2="40.7" y2="347.9"/>
					<line class="st4" x1="1205.3" y1="369.5" x2="40.7" y2="368.5"/>
					<line class="st4" x1="1205.3" y1="390.1" x2="40.7" y2="389.1"/>
					<line class="st4" x1="1205.3" y1="410.7" x2="40.7" y2="409.6"/>
					<line class="st4" x1="1205.3" y1="431.3" x2="40.7" y2="430.2"/>
					<line class="st4" x1="1205.2" y1="451.9" x2="40.7" y2="450.8"/>
					<line class="st4" x1="1205.2" y1="472.5" x2="40.7" y2="471.4"/>
					<line class="st4" x1="1205.2" y1="493.1" x2="40.7" y2="492"/>
					<line class="st4" x1="1205.2" y1="513.7" x2="40.6" y2="512.6"/>
					<line class="st4" x1="1205.2" y1="534.3" x2="40.6" y2="533.2"/>
					<line class="st4" x1="1205.2" y1="554.9" x2="40.6" y2="553.8"/>
					<line class="st4" x1="1205.2" y1="575.5" x2="40.6" y2="574.4"/>
					<line class="st4" x1="1205.2" y1="596.1" x2="40.6" y2="595"/>
					<line class="st4" x1="1205.2" y1="616.7" x2="40.6" y2="615.6"/>
					<line class="st4" x1="1205.1" y1="781.4" x2="40.5" y2="780.4"/>
					<line class="st4" x1="1205.1" y1="760.8" x2="40.5" y2="759.8"/>
					<line class="st4" x1="1205.1" y1="740.2" x2="40.5" y2="739.2"/>
					<line class="st4" x1="1205.1" y1="719.7" x2="40.5" y2="718.6"/>
					<line class="st4" x1="1205.1" y1="699.1" x2="40.5" y2="698"/>
					<line class="st4" x1="1205.1" y1="678.5" x2="40.6" y2="677.4"/>
					<line class="st4" x1="1205.1" y1="657.9" x2="40.6" y2="656.8"/>
					<line class="st4" x1="1205.2" y1="637.3" x2="40.6" y2="636.2"/>
				</g>
			</g>
		</g>
	</g>
	<g>
		<rect x="80" y="155.7" class="st5" width="96.4" height="12.4"/>
		<rect x="254" y="155.7" class="st5" width="140.9" height="12.4"/>
		<g>
			<rect x="394.8" y="155.7" class="st6" width="154.2" height="12.4"/>
			<rect x="390" y="159.5" class="st5" width="160.8" height="0.5"/>
			<rect x="389.9" y="163.7" class="st5" width="160.8" height="0.5"/>
		</g>
		<rect x="549" y="155.7" class="st5" width="87.3" height="12.4"/>
		<rect x="80" y="156.8" class="st5" width="12.4" height="78.9"/>
		<rect x="88.2" y="164.2" class="st5" width="10" height="17"/>
		<rect x="274.2" y="167.4" class="st5" width="27.1" height="13.5"/>
		<rect x="334.6" y="167.4" class="st5" width="18.3" height="13.5"/>
		<rect x="591.7" y="168.1" class="st5" width="18.3" height="13.5"/>
		<g>
			<rect x="80" y="235.4" class="st6" width="12.4" height="154.8"/>
			<rect x="88.1" y="230.5" class="st5" width="0.5" height="161.4"/>
			<rect x="83.9" y="230.5" class="st5" width="0.5" height="161.4"/>
		</g>
		<rect x="79.9" y="390.5" class="st5" width="12.4" height="147.5"/>
		<g>
			<rect x="79.9" y="538.3" class="st6" width="12.4" height="154.8"/>
			<rect x="88" y="533.4" class="st5" width="0.5" height="161.4"/>
			<rect x="83.8" y="533.4" class="st5" width="0.5" height="161.4"/>
		</g>
		<rect x="79.9" y="693.1" class="st5" width="12.4" height="79.9"/>
		<rect x="821.6" y="155.7" class="st5" width="87.5" height="12.4"/>
		<rect x="960.6" y="155.7" class="st5" width="51.5" height="12.4"/>
		<rect x="1063.6" y="155.7" class="st5" width="57.3" height="12.4"/>
		<rect x="848.5" y="168.1" class="st5" width="18.3" height="13.5"/>
		<rect x="1102.6" y="168.1" class="st5" width="18.3" height="13.5"/>
		<g>
			<rect x="909.2" y="155.7" class="st6" width="51" height="12.4"/>
			<rect x="907.5" y="159.4" class="st5" width="53.2" height="0.5"/>
			<rect x="907.5" y="163.7" class="st5" width="53.2" height="0.5"/>
		</g>
		<rect x="1108.5" y="235.4" class="st6" width="12.4" height="154.2"/>
		<rect x="1116.6" y="230.4" class="st5" width="0.5" height="160.8"/>
		<rect x="1112.4" y="230.4" class="st5" width="0.5" height="160.8"/>
		<rect x="1120.7" y="570.9" class="st5" width="0.5" height="160.8"/>
		<rect x="1108.5" y="155.8" class="st5" width="12.4" height="79.5"/>
		<rect x="1108.5" y="389.6" class="st5" width="12.4" height="187.3"/>
		<rect x="851.4" y="458.1" class="st5" width="12.4" height="288.4"/>
		<rect x="1108.5" y="653.7" class="st5" width="12.4" height="102.8"/>
		<rect x="851.4" y="458.1" class="st5" width="265.1" height="12.4"/>
		<rect x="336.3" y="180.9" class="st5" width="14.9" height="6.9"/>
		<rect x="337.2" y="238.6" class="st5" width="12.4" height="231.9"/>
		<rect x="92.3" y="458.2" class="st5" width="246.2" height="12.4"/>
		<rect x="86.1" y="746.6" class="st5" width="12" height="26.4"/>
		<rect x="80" y="760.7" class="st5" width="57.8" height="12.4"/>
		<g>
			<rect x="137.4" y="760.7" class="st6" width="154.8" height="12.4"/>
			<rect x="135.6" y="768.9" class="st5" width="161.4" height="0.5"/>
			<rect x="135.6" y="764.6" class="st5" width="161.4" height="0.5"/>
		</g>
		<rect x="292.1" y="760.7" class="st5" width="102.7" height="12.4"/>
		<rect x="334.7" y="746.6" class="st5" width="18.1" height="22.5"/>
		<rect x="591.9" y="747" class="st5" width="18.1" height="22.5"/>
		<rect x="848.6" y="747" class="st5" width="18.1" height="22.5"/>
		<rect x="1102.8" y="747" class="st5" width="18.1" height="21.2"/>
		<rect x="549.7" y="760.7" class="st5" width="102.3" height="12.4"/>
		<rect x="806.5" y="760.7" class="st5" width="102.3" height="12.4"/>
		<rect x="1063.6" y="760.7" class="st5" width="57.3" height="12.4"/>
		<g>
			<rect x="137.4" y="760.7" class="st6" width="154.8" height="12.4"/>
			<rect x="135.6" y="768.9" class="st5" width="161.4" height="0.5"/>
			<rect x="135.6" y="764.6" class="st5" width="161.4" height="0.5"/>
		</g>
		<g>
			<rect x="393.4" y="761.1" class="st6" width="154.8" height="12.4"/>
			<rect x="391.7" y="769.3" class="st5" width="161.4" height="0.5"/>
			<rect x="391.7" y="765.1" class="st5" width="161.4" height="0.5"/>
		</g>
		<g>
			<rect x="650.6" y="760.2" class="st6" width="154.8" height="12.4"/>
			<rect x="648.9" y="768.3" class="st5" width="161.4" height="0.5"/>
			<rect x="648.9" y="764.1" class="st5" width="161.4" height="0.5"/>
		</g>
		<g>
			<rect x="908.9" y="760.2" class="st6" width="154.8" height="12.4"/>
			<rect x="907.2" y="768.3" class="st5" width="161.4" height="0.5"/>
			<rect x="907.2" y="764.1" class="st5" width="161.4" height="0.5"/>
		</g>
		<line class="st6" x1="167.9" y1="156.8" x2="343.5" y2="156.8"/>
		<line class="st6" x1="627" y1="156" x2="832" y2="156"/>
		<line class="st6" x1="1007" y1="156" x2="1069.9" y2="156"/>
	</g>
</g>
<g>
	<polygon class="st0" points="1554.4,138.1 1554.4,787.6 1342.9,787.6 1342.5,338.5 1158.6,338.5 1158.6,138.1 	"/>
	<polygon class="st1" points="1544.1,146.8 1544.1,779 1352.9,779 1353.4,329.5 1168.9,328.7 1168.9,146.8 	"/>
	<g>
		<g>
			<defs>
				<polygon id="SVGID_3_" points="1544.4,146.8 1544.4,779 1360.4,779 1361.4,321.4 1168.9,321.2 1168.9,146.8 				"/>
			</defs>
			<clipPath id="SVGID_4_">
				<use xlink:href="#SVGID_3_"  style="overflow:visible;"/>
			</clipPath>
			<g class="st7">
				<g class="st3">
					<line class="st4" x1="1168.7" y1="769.3" x2="1554.9" y2="769.6"/>
					<line class="st4" x1="1168.7" y1="756.1" x2="1554.9" y2="756.4"/>
					<line class="st4" x1="1168.7" y1="782.5" x2="1554.9" y2="782.8"/>
					<line class="st4" x1="1168.7" y1="795.8" x2="1554.8" y2="796.1"/>
					<line class="st4" x1="1168.7" y1="742.9" x2="1554.9" y2="743.1"/>
					<line class="st4" x1="1168.7" y1="729.6" x2="1554.9" y2="729.9"/>
					<line class="st4" x1="1168.7" y1="716.4" x2="1554.9" y2="716.7"/>
					<line class="st4" x1="1168.7" y1="703.2" x2="1554.9" y2="703.5"/>
					<line class="st4" x1="1168.7" y1="689.9" x2="1554.9" y2="690.2"/>
					<line class="st4" x1="1168.8" y1="676.7" x2="1554.9" y2="677"/>
					<line class="st4" x1="1168.8" y1="663.5" x2="1554.9" y2="663.8"/>
					<line class="st4" x1="1168.8" y1="650.2" x2="1554.9" y2="650.5"/>
					<line class="st4" x1="1168.8" y1="637" x2="1554.9" y2="637.3"/>
					<line class="st4" x1="1168.8" y1="623.8" x2="1554.9" y2="624.1"/>
					<line class="st4" x1="1168.8" y1="610.5" x2="1555" y2="610.8"/>
					<line class="st4" x1="1168.8" y1="597.3" x2="1555" y2="597.6"/>
					<line class="st4" x1="1168.8" y1="584.1" x2="1555" y2="584.4"/>
					<line class="st4" x1="1168.8" y1="570.9" x2="1555" y2="571.1"/>
					<line class="st4" x1="1168.8" y1="557.6" x2="1555" y2="557.9"/>
					<line class="st4" x1="1168.8" y1="544.4" x2="1555" y2="544.7"/>
					<line class="st4" x1="1168.9" y1="359.2" x2="1555.1" y2="359.5"/>
					<line class="st4" x1="1168.9" y1="345.9" x2="1555.1" y2="346.2"/>
					<line class="st4" x1="1168.9" y1="372.4" x2="1555.1" y2="372.7"/>
					<line class="st4" x1="1168.9" y1="385.6" x2="1555.1" y2="385.9"/>
					<line class="st4" x1="1168.9" y1="398.9" x2="1555.1" y2="399.1"/>
					<line class="st4" x1="1168.9" y1="412.1" x2="1555.1" y2="412.4"/>
					<line class="st4" x1="1168.9" y1="425.3" x2="1555.1" y2="425.6"/>
					<line class="st4" x1="1168.9" y1="438.5" x2="1555.1" y2="438.8"/>
					<line class="st4" x1="1168.9" y1="451.8" x2="1555" y2="452.1"/>
					<line class="st4" x1="1168.9" y1="465" x2="1555" y2="465.3"/>
					<line class="st4" x1="1168.9" y1="478.2" x2="1555" y2="478.5"/>
					<line class="st4" x1="1168.9" y1="491.5" x2="1555" y2="491.8"/>
					<line class="st4" x1="1168.9" y1="504.7" x2="1555" y2="505"/>
					<line class="st4" x1="1168.8" y1="517.9" x2="1555" y2="518.2"/>
					<line class="st4" x1="1168.8" y1="531.2" x2="1555" y2="531.5"/>
					<line class="st4" x1="1169" y1="332.7" x2="1555.1" y2="333"/>
					<line class="st4" x1="1169" y1="319.5" x2="1555.1" y2="319.8"/>
					<line class="st4" x1="1169" y1="306.2" x2="1555.1" y2="306.5"/>
					<line class="st4" x1="1169" y1="293" x2="1555.1" y2="293.3"/>
					<line class="st4" x1="1169" y1="279.8" x2="1555.1" y2="280.1"/>
					<line class="st4" x1="1169" y1="266.6" x2="1555.2" y2="266.8"/>
					<line class="st4" x1="1169" y1="253.3" x2="1555.2" y2="253.6"/>
					<line class="st4" x1="1169" y1="240.1" x2="1555.2" y2="240.4"/>
					<line class="st4" x1="1169" y1="226.9" x2="1555.2" y2="227.1"/>
					<line class="st4" x1="1169" y1="213.6" x2="1555.2" y2="213.9"/>
					<line class="st4" x1="1169" y1="200.4" x2="1555.2" y2="200.7"/>
					<line class="st4" x1="1169" y1="187.2" x2="1555.2" y2="187.5"/>
					<line class="st4" x1="1169" y1="173.9" x2="1555.2" y2="174.2"/>
					<line class="st4" x1="1169.1" y1="160.7" x2="1555.2" y2="161"/>
					<line class="st4" x1="1169.1" y1="147.5" x2="1555.2" y2="147.8"/>
					<line class="st4" x1="1169.1" y1="134.2" x2="1555.2" y2="134.5"/>
					<line class="st4" x1="1169.1" y1="94.6" x2="1555.3" y2="94.8"/>
					<line class="st4" x1="1169.1" y1="107.8" x2="1555.2" y2="108.1"/>
					<line class="st4" x1="1169.1" y1="121" x2="1555.2" y2="121.3"/>
				</g>
				<g class="st3">
					<line class="st4" x1="1236.6" y1="95.7" x2="1235.9" y2="802.8"/>
					<line class="st4" x1="1249.1" y1="95.7" x2="1248.4" y2="802.8"/>
					<line class="st4" x1="1224.1" y1="95.6" x2="1223.4" y2="802.7"/>
					<line class="st4" x1="1211.6" y1="95.6" x2="1210.9" y2="802.7"/>
					<line class="st4" x1="1199.1" y1="95.6" x2="1198.4" y2="802.7"/>
					<line class="st4" x1="1186.6" y1="95.6" x2="1185.9" y2="802.7"/>
					<line class="st4" x1="1174.1" y1="95.6" x2="1173.4" y2="802.7"/>
					<line class="st4" x1="1261.6" y1="95.7" x2="1260.9" y2="802.8"/>
					<line class="st4" x1="1274.1" y1="95.7" x2="1273.5" y2="802.8"/>
					<line class="st4" x1="1286.6" y1="95.7" x2="1286" y2="802.8"/>
					<line class="st4" x1="1299.1" y1="95.7" x2="1298.5" y2="802.8"/>
					<line class="st4" x1="1311.6" y1="95.7" x2="1311" y2="802.8"/>
					<line class="st4" x1="1324.1" y1="95.7" x2="1323.5" y2="802.8"/>
					<line class="st4" x1="1336.6" y1="95.7" x2="1336" y2="802.8"/>
					<line class="st4" x1="1349.1" y1="95.7" x2="1348.5" y2="802.8"/>
					<line class="st4" x1="1361.6" y1="95.7" x2="1361" y2="802.8"/>
					<line class="st4" x1="1374.1" y1="95.7" x2="1373.5" y2="802.8"/>
					<line class="st4" x1="1386.6" y1="95.7" x2="1386" y2="802.8"/>
					<line class="st4" x1="1399.2" y1="95.7" x2="1398.5" y2="802.8"/>
					<line class="st4" x1="1411.7" y1="95.7" x2="1411" y2="802.8"/>
					<line class="st4" x1="1424.2" y1="95.8" x2="1423.5" y2="802.8"/>
					<line class="st4" x1="1436.7" y1="95.8" x2="1436" y2="802.9"/>
					<line class="st4" x1="1449.2" y1="95.8" x2="1448.5" y2="802.9"/>
					<line class="st4" x1="1549.2" y1="95.8" x2="1548.6" y2="802.9"/>
					<line class="st4" x1="1536.7" y1="95.8" x2="1536.1" y2="802.9"/>
					<line class="st4" x1="1524.2" y1="95.8" x2="1523.6" y2="802.9"/>
					<line class="st4" x1="1511.7" y1="95.8" x2="1511.1" y2="802.9"/>
					<line class="st4" x1="1499.2" y1="95.8" x2="1498.5" y2="802.9"/>
					<line class="st4" x1="1486.7" y1="95.8" x2="1486" y2="802.9"/>
					<line class="st4" x1="1474.2" y1="95.8" x2="1473.5" y2="802.9"/>
					<line class="st4" x1="1461.7" y1="95.8" x2="1461" y2="802.9"/>
				</g>
			</g>
		</g>
	</g>
	<g>
		<rect x="1352.9" y="771.5" class="st5" width="48.5" height="7.5"/>
		<g>
			<rect x="1401.6" y="771.5" class="st6" width="94" height="7.5"/>
			<rect x="1398.6" y="773.7" class="st5" width="98" height="0.3"/>
			<rect x="1398.6" y="776.3" class="st5" width="98" height="0.3"/>
		</g>
		<rect x="1495.6" y="771.5" class="st5" width="48.5" height="7.5"/>
		<rect x="1169.3" y="275.5" class="st5" width="7.5" height="53.2"/>
		<rect x="1169.3" y="213" class="st5" width="7.5" height="31.3"/>
		<rect x="1169.3" y="146.9" class="st5" width="7.5" height="34.8"/>
		<g>
			<rect x="1169.3" y="244.4" class="st6" width="7.5" height="31"/>
			<rect x="1171.6" y="244.2" class="st5" width="0.3" height="32.3"/>
			<rect x="1174.1" y="244.2" class="st5" width="0.3" height="32.3"/>
		</g>
		<rect x="1169.4" y="146.9" class="st5" width="374.8" height="7.5"/>
		<rect x="1173" y="321.2" class="st5" width="187.4" height="7.5"/>
		<rect x="1352.9" y="745.1" class="st5" width="7.5" height="26.3"/>
		<rect x="1528.1" y="767.9" class="st5" width="16" height="7.3"/>
		<rect x="1536.7" y="743.9" class="st5" width="7.5" height="35.1"/>
		<g>
			<rect x="1536.6" y="650.1" class="st6" width="7.5" height="94"/>
			<rect x="1541.6" y="647.2" class="st5" width="0.3" height="98"/>
			<rect x="1539.1" y="647.2" class="st5" width="0.3" height="98"/>
		</g>
		<rect x="1536.7" y="587.7" class="st5" width="7.5" height="62.4"/>
		<rect x="1528.1" y="613.3" class="st5" width="13.7" height="11"/>
		<rect x="1528.3" y="457.1" class="st5" width="13.7" height="11"/>
		<rect x="1528.2" y="301.3" class="st5" width="13.7" height="11"/>
		<rect x="1536.6" y="431.7" class="st5" width="7.5" height="62.1"/>
		<rect x="1352.9" y="587.8" class="st5" width="7.5" height="62.4"/>
		<rect x="1352.9" y="431.6" class="st5" width="7.5" height="62.1"/>
		<rect x="1536.7" y="275.8" class="st5" width="7.5" height="62.1"/>
		<rect x="1352.9" y="321.1" class="st5" width="7.5" height="16.7"/>
		<rect x="1536.7" y="146.9" class="st5" width="7.5" height="34.8"/>
		<g>
			<rect x="1536.6" y="650.1" class="st6" width="7.5" height="94"/>
			<rect x="1541.6" y="647.2" class="st5" width="0.3" height="98"/>
			<rect x="1539.1" y="647.2" class="st5" width="0.3" height="98"/>
		</g>
		<g>
			<rect x="1536.9" y="494.6" class="st6" width="7.5" height="94"/>
			<rect x="1541.8" y="491.7" class="st5" width="0.3" height="98"/>
			<rect x="1539.3" y="491.7" class="st5" width="0.3" height="98"/>
		</g>
		<g>
			<rect x="1536.3" y="338.4" class="st6" width="7.5" height="94"/>
			<rect x="1541.2" y="335.5" class="st5" width="0.3" height="98"/>
			<rect x="1538.7" y="335.5" class="st5" width="0.3" height="98"/>
		</g>
		<g>
			<rect x="1353" y="338.5" class="st6" width="7.5" height="94"/>
			<rect x="1357.9" y="335.5" class="st5" width="0.3" height="98"/>
			<rect x="1355.3" y="335.5" class="st5" width="0.3" height="98"/>
		</g>
		<g>
			<rect x="1352.9" y="494.7" class="st6" width="7.5" height="94"/>
			<rect x="1357.9" y="491.7" class="st5" width="0.3" height="98"/>
			<rect x="1355.3" y="491.7" class="st5" width="0.3" height="98"/>
		</g>
		<g>
			<rect x="1353" y="651.1" class="st6" width="7.5" height="94"/>
			<rect x="1357.9" y="648.1" class="st5" width="0.3" height="98"/>
			<rect x="1355.3" y="648.1" class="st5" width="0.3" height="98"/>
		</g>
		<g>
			<rect x="1536.3" y="181.6" class="st6" width="7.5" height="94"/>
			<rect x="1541.2" y="178.6" class="st5" width="0.3" height="98"/>
			<rect x="1538.7" y="178.6" class="st5" width="0.3" height="98"/>
		</g>
		<line class="st6" x1="1169.5" y1="216.1" x2="1169.5" y2="177.9"/>
	</g>
</g>
<g>
	<path class="st8" d="M190.1,219.2h-66.4c-9.7,0-17.6-7.9-17.6-17.6l0,0c0-9.7,7.9-17.6,17.6-17.6h66.4c9.7,0,17.6,7.9,17.6,17.6
		l0,0C207.7,211.3,199.8,219.2,190.1,219.2z"/>
	<g class="st9">
		<path class="st10" d="M130.7,196.8h1.5v-2.9h2v2.9h1.1v2.1h-1.1v2.5l1.2-0.3c-0.1,0.7-0.1,1.5-0.1,2.2l-1.2,0.3v4.3
			c0,0.5-0.1,1-0.3,1.3c-0.2,0.3-0.5,0.5-0.8,0.5s-1,0.1-2.1,0.1c-0.1-0.6-0.2-1.4-0.4-2.2c0.3,0,0.7,0,1.2,0c0.3,0,0.4-0.2,0.4-0.7
			v-2.9l-1.6,0.4l-0.1-2.4c0.5-0.1,1.1-0.2,1.7-0.4v-2.9h-1.5V196.8z M136.4,202.7h9.5v2h-3.7v2.5h4.6v2h-11.4v-2h4.7v-2.5h-3.7
			V202.7z M140.7,199.8l-3.8,2.8l-1.4-1.6c1.1-0.7,2.3-1.6,3.6-2.7L140.7,199.8z M136,195.6h4l-0.4-1.4l2.3-0.4
			c0.2,0.6,0.4,1.3,0.5,1.9h4.1v3.3h-2.1v-1.3h-6.4v1.3H136V195.6z M141.7,199.8l1.4-1.4c1,0.7,2.3,1.6,3.7,2.7l-1.4,1.6
			C144.9,202.3,143.7,201.3,141.7,199.8z"/>
		<path class="st10" d="M150.2,208.9h-2v-6.5h3.4v-1.3h-4v-1.9h4v-1.5h-1.8c-0.1,0.5-0.3,0.9-0.4,1.4c-0.5-0.2-1-0.4-1.7-0.7
			c0.5-1.3,0.8-2.7,1.1-4.3l1.8,0.4l-0.3,1.3h1.3v-2.3h2.2v2.3h3.3v1.9h-3.3v1.5h3.8v1.9h-3.8v1.3h3.4v4.5c0,0.6-0.1,1.1-0.4,1.4
			s-0.7,0.5-1.2,0.6c-0.6,0-1,0-1.2,0c-0.1-0.6-0.3-1.3-0.5-2.1c0.3,0,0.6,0,0.8,0c0.3,0,0.5-0.2,0.5-0.5v-2h-1.4v5.6h-2.2v-5.6
			h-1.4V208.9z M158.1,195h2v11h-2V195z M161,193.7h2.1v13.6c0,0.8-0.2,1.4-0.6,1.9c-0.4,0.4-0.9,0.6-1.6,0.7c-0.7,0-1.5,0-2.4,0
			c-0.1-0.6-0.2-1.4-0.4-2.3c0.9,0.1,1.5,0.1,2,0.1c0.6,0,0.9-0.3,0.9-1V193.7z"/>
		<path class="st10" d="M177.8,198v1.8h-1.4c1.1,0.6,2.3,1.4,3.8,2.3l-1.2,1.5c-0.4-0.2-0.7-0.5-1.1-0.7c-1.4,0-2.8,0.1-4.1,0.1v1.2
			h5.6v2h-5.6v1.1h6.6v2.1h-15.6v-2.1h6.6v-1.1h-5.6v-2h5.6v-1.1c-2.2,0-3.8,0.1-4.8,0.3l-0.8-1.7c0.9-0.4,1.9-1,3.2-1.9h-1.6V198
			H177.8z M164.9,199.1v-4h6.5c-0.2-0.5-0.4-0.9-0.5-1.2l2.9-0.3c0.2,0.4,0.4,0.9,0.6,1.5h6.1v4h-2V197h-11.5v2.1H164.9z M174,200.3
			l0.7-0.5h-2.5c-0.8,0.5-1.6,1.1-2.4,1.6c1.9,0,3.8-0.1,5.7-0.1C175,200.9,174.5,200.6,174,200.3z"/>
	</g>
</g>
<g>
	<path class="st8" d="M455.3,219.2h-66.4c-9.7,0-17.6-7.9-17.6-17.6l0,0c0-9.7,7.9-17.6,17.6-17.6h66.4c9.7,0,17.6,7.9,17.6,17.6
		l0,0C472.9,211.3,465.1,219.2,455.3,219.2z"/>
	<g class="st9">
		<path class="st10" d="M420.4,203.8c-1,0.6-2.1,1.1-3.3,1.7c1.1,0.8,2.4,1.3,3.7,1.7c-0.3,0.5-0.8,1.2-1.4,2.2
			c-2.3-0.9-4.1-2.2-5.5-4.1v2.3c0,1.5-0.7,2.3-2.1,2.3c-0.9,0-1.7,0.1-2.5,0.1c-0.1-0.7-0.3-1.4-0.5-2.1c0.8,0.1,1.4,0.1,1.8,0.1
			c0.7,0,1-0.3,1-0.9v-5.1h-2.4v0.4H407v-2.7c-0.6,0.4-1.1,0.8-1.7,1.1c-0.4-0.8-0.7-1.6-1.1-2.2c1.4-0.7,2.8-1.5,4-2.5h-3.5v-1.7
			h15.7v1.7H411c-0.4,0.4-0.7,0.8-1.1,1.1h9v4.8h-4.9v0.3c0.5,0.7,1,1.4,1.6,1.9c1.3-0.7,2.5-1.4,3.6-2.1L420.4,203.8z M404.9,204.7
			V203h5.9v1.7c-1.1,2.1-2.8,3.7-5.1,4.9c-0.3-0.5-0.8-1.2-1.4-2.1c1.8-0.7,3.3-1.6,4.2-2.8H404.9z M416.6,200.3v-1.5h-7.4v1.5
			H416.6z"/>
		<path class="st10" d="M437.6,203h-7.7c0,0.3,0,0.6-0.1,0.9h6.2c0,0.9-0.1,1.9-0.2,3c-0.1,1.1-0.3,1.8-0.7,2.2
			c-0.4,0.4-0.8,0.6-1.2,0.7c-0.4,0.1-1.5,0.1-3.3,0.1c-0.1-0.6-0.3-1.4-0.6-2.3c0.6,0.1,1.3,0.1,1.9,0.1c0.5,0,0.8,0,1-0.1
			c0.2-0.1,0.3-0.2,0.4-0.4c0.1-0.2,0.1-0.7,0.2-1.4h-4.2c-0.6,1.9-1.7,3.4-3.3,4.4c-0.4-0.4-0.9-1-1.7-1.7c1.9-1.1,3-2.8,3.1-5.3
			h-2.4c-0.2,2.9-0.9,5.2-2,6.8l-1.8-1.9c1.1-1.5,1.6-3.8,1.6-7v-6h5.8c-0.2-0.4-0.4-0.8-0.5-1.1l2.8-0.3c0.2,0.4,0.3,0.8,0.5,1.4
			h5.4v4.9h-4.9c0.1,0.4,0.3,0.8,0.5,1.3h5.2V203z M434.4,198.1v-1.3h-9.3v1.3H434.4z M429.1,200.2l1.9-0.3h-5.9v1.3h4.4
			C429.4,200.8,429.2,200.5,429.1,200.2z"/>
	</g>
</g>
<g>
	<path class="st8" d="M967.1,518.8h-66.4c-9.7,0-17.6-7.9-17.6-17.6l0,0c0-9.7,7.9-17.6,17.6-17.6h66.4c9.7,0,17.6,7.9,17.6,17.6
		l0,0C984.7,510.9,976.8,518.8,967.1,518.8z"/>
	<g class="st9">
		<path class="st10" d="M911.3,509.3c-0.2-0.8-0.4-1.6-0.6-2.5c0.7,0,1.2,0.1,1.7,0.1c0.3,0,0.5-0.1,0.6-0.2
			c0.1-0.1,0.2-0.3,0.3-0.5c0-0.2,0.1-1,0.1-2.5c0-1.5,0.1-3.3,0.1-5.5h-1.6c-0.1,5.2-1.1,9.1-3,11.5c-0.4-0.7-0.8-1.5-1.3-2.4
			c1.4-2,2.1-5,2.1-9.1h-1.9v-2.2h1.9c0-0.9,0-1.9,0-2.7h2.1l0,2.7h3.7l-0.1,6.7l-0.1,3.9c0,0.8-0.2,1.4-0.5,1.8
			c-0.3,0.4-0.7,0.7-1.1,0.8S912.6,509.3,911.3,509.3z M916.7,509.3v-14.6h6.7v14.5h-2.2v-1.4h-2.2v1.5H916.7z M921.1,496.9h-2.2
			v8.8h2.2V496.9z"/>
		<path class="st10" d="M927.4,500.4l1.2,0c0.4-0.5,0.8-1.1,1.2-1.7l1.9,1c-1.1,1.5-2.3,2.9-3.5,4.2c1.1-0.1,2.1-0.3,3-0.4
			c-0.1,0.8-0.2,1.4-0.3,2c-2.1,0.3-3.7,0.5-5,0.8l-0.6-1.9c0.4-0.2,1-0.9,1.9-1.9c-0.8,0.1-1.5,0.1-2,0.2l-0.6-1.7
			c0.6-0.3,1.7-1.6,3.1-4l1.9,0.8C928.9,498.5,928.2,499.5,927.4,500.4z M934.4,493.4h2.2v1.2h4.3v1.9h-4.3v0.9h-2.2v-0.9h-3.2v0.9
			H929v-0.9h-4.4v-1.9h4.4v-1.2h2.2v1.2h3.2V493.4z M925.1,507.2c1.9-0.3,4-0.6,6.4-1.1c-0.1,0.8-0.1,1.5-0.2,2.1
			c-1.8,0.3-3.7,0.6-5.7,1L925.1,507.2z M930.3,502.2c1.2-1.6,2.1-3.2,2.9-5l2,0.7c-0.1,0.3-0.3,0.6-0.4,0.8h5.5
			c0,2.8-0.1,5.4-0.2,7.9c-0.1,1.7-0.9,2.5-2.4,2.6c-0.8,0.1-2.1,0.1-3.8,0c-0.1-0.6-0.3-1.4-0.5-2.3c1.4,0.1,2.4,0.1,3.1,0.1
			c0.9,0,1.3-0.3,1.3-1c0.1-1.8,0.1-3.6,0.2-5.5h-4.2c-0.5,1-1.1,1.8-1.7,2.7C931.7,502.9,931.1,502.5,930.3,502.2z M932.8,502.7
			l1.3-1.2c0.9,0.9,1.7,1.9,2.6,2.8l-1.6,1.3C934.4,504.6,933.6,503.6,932.8,502.7z"/>
		<path class="st10" d="M942.1,495.5h2.3v14.1h-2.3V495.5z M944.1,494l2.2-0.8c0.5,0.8,1,1.7,1.6,2.7l-2.3,0.9
			C945,495.8,944.6,494.9,944.1,494z M945.9,497.4h7.4v8.7H948v0.9h-2.1V497.4z M951.2,499.3H948v1.6h3.2V499.3z M951.2,504.3v-1.6
			H948v1.6H951.2z M957.2,506.5c0,0.8-0.1,1.4-0.4,1.9c-0.3,0.5-0.7,0.8-1.3,0.9s-1.9,0.2-3.9,0.2c-0.1-0.8-0.3-1.6-0.5-2.3
			c0.7,0,1.6,0.1,2.7,0.1c0.7,0,1.1-0.3,1.1-1v-10.2h-6.5v-2h8.8V506.5z"/>
	</g>
</g>
<g>
	<path class="st8" d="M1280.1,205.5h-66.4c-9.7,0-17.6-7.9-17.6-17.6l0,0c0-9.7,7.9-17.6,17.6-17.6h66.4c9.7,0,17.6,7.9,17.6,17.6
		l0,0C1297.7,197.6,1289.8,205.5,1280.1,205.5z"/>
	<g class="st9">
		<path class="st10" d="M1239.2,180l-0.5,0.6c1.6,2.1,3.9,3.8,6.9,4.9c-0.5,0.7-1,1.4-1.5,2.1c-0.7-0.3-1.3-0.6-1.9-1
			c0,0.9-0.1,1.8-0.1,2.6c-0.1,1.9-0.9,2.9-2.4,2.9c-0.6,0.1-1.4,0.1-2.4,0c-0.2-0.8-0.3-1.6-0.5-2.2c1,0.1,1.7,0.1,2.1,0.1
			c0.7,0,1-0.3,1-0.9c0-0.4,0-0.7,0-0.9h-5.8v4.5c0,0.7,0.4,1.1,1.3,1.1h5.4c0.7,0,1.2-0.3,1.4-1c0.1-0.5,0.3-1.2,0.4-2
			c0.7,0.3,1.4,0.6,2.2,0.9c-0.2,1-0.5,1.8-0.7,2.4c-0.4,1.2-1.4,1.8-2.8,1.8h-6.7c-1.8,0-2.8-0.9-2.8-2.6V187
			c-0.4,0.3-0.9,0.5-1.4,0.7c-0.5-0.8-1-1.5-1.5-2.1c3.4-1.5,5.9-3.4,7.3-5.7H1239.2z M1237.3,182.3c-1,1.4-2.3,2.6-3.9,3.7h7.8
			C1239.7,185,1238.4,183.7,1237.3,182.3z"/>
		<path class="st10" d="M1253.3,180.3l2.7-0.3c0.2,0.4,0.3,0.9,0.6,1.5h5.6v1.9h-12.7v4c0,4-0.7,7-2,9c-0.5-0.7-1.1-1.4-1.7-2
			c1-1.6,1.4-3.9,1.4-7v-5.9h6.6L1253.3,180.3z M1249.4,191.8h5.8v-1.2h-4.8v-1.9c0.4-0.7,0.8-1.3,1.2-2.1h-1.7v-1.9h2.7
			c0.2-0.5,0.5-0.9,0.7-1.4l2.3,0.3l-0.5,1h6.7v1.9h-7.8l-1.2,2.1h2.3v-1.6h2.2v1.6h4.1v1.9h-4.1v1.2h4.9v1.9h-4.9v2.4h-2.2v-2.4
			h-5.8V191.8z"/>
	</g>
</g>
<g>
	<g>
		<path class="st6" d="M774.7,562.8c-0.7,0-1.3,0.2-1.8,0.6c-0.5-4.4-2.2-8.5-4.9-11.8c0.6-0.1,1.2-0.4,1.6-0.9
			c1.2-1.2,1.2-3.2,0-4.4s-3.2-1.2-4.4,0c-0.5,0.5-0.7,1-0.8,1.6c-3.3-2.6-7.3-4.4-11.8-4.9c0.4-0.5,0.6-1.1,0.6-1.8
			c0-1.7-1.4-3.1-3.1-3.1s-3.1,1.4-3.1,3.1c0,0.7,0.2,1.3,0.6,1.8c-4.4,0.5-8.5,2.2-11.8,4.9c-0.1-0.6-0.4-1.2-0.9-1.6
			c-1.2-1.2-3.2-1.2-4.4,0s-1.2,3.2,0,4.4c0.5,0.5,1,0.7,1.6,0.8c-2.6,3.3-4.4,7.3-4.9,11.8c-0.5-0.4-1.1-0.6-1.8-0.6
			c-1.7,0-3.1,1.4-3.1,3.1s1.4,3.1,3.1,3.1c0.7,0,1.3-0.2,1.8-0.6c0.5,4.4,2.2,8.5,4.9,11.8c-0.6,0.1-1.2,0.4-1.6,0.9
			c-1.2,1.2-1.2,3.2,0,4.4s3.2,1.2,4.4,0c0.5-0.5,0.7-1,0.8-1.6c3.3,2.6,7.3,4.4,11.8,4.9c-0.4,0.5-0.6,1.1-0.6,1.8
			c0,1.7,1.4,3.1,3.1,3.1c1.7,0,3.1-1.4,3.1-3.1c0-0.7-0.2-1.3-0.6-1.8c4.4-0.5,8.5-2.2,11.8-4.9c0.1,0.6,0.4,1.2,0.9,1.6
			c1.2,1.2,3.2,1.2,4.4,0s1.2-3.2,0-4.4c-0.5-0.5-1-0.7-1.6-0.8c2.6-3.3,4.4-7.3,4.9-11.8c0.5,0.4,1.1,0.6,1.8,0.6
			c1.7,0,3.1-1.4,3.1-3.1S776.5,562.8,774.7,562.8z M765.5,579l-9.7-9.2c0.5-0.8,0.9-1.7,1.1-2.7l13.4,0.3
			C770,571.9,768.2,575.9,765.5,579z M751.8,586l-0.4-13.4c1-0.2,1.9-0.6,2.7-1.1l9.2,9.7C760.2,583.9,756.2,585.7,751.8,586z
			 M737.1,581.3l9.2-9.7c0.8,0.5,1.7,0.9,2.7,1.1l-0.3,13.4C744.3,585.7,740.3,584,737.1,581.3z M730.1,567.5l13.4-0.4
			c0.2,1,0.6,1.9,1.1,2.7l-9.7,9.2C732.2,575.9,730.4,571.9,730.1,567.5z M734.9,552.8l9.7,9.2c-0.5,0.8-0.9,1.7-1.1,2.7l-13.4-0.3
			C730.4,560,732.2,556,734.9,552.8z M748.6,545.8l0.4,13.4c-1,0.2-1.9,0.6-2.7,1.1l-9.2-9.7C740.2,547.9,744.2,546.2,748.6,545.8z
			 M763.3,550.6l-9.2,9.7c-0.8-0.5-1.7-0.9-2.7-1.1l0.3-13.4C756.1,546.2,760.1,547.9,763.3,550.6z M770.3,564.4l-13.4,0.4
			c-0.2-1-0.6-1.9-1.1-2.7l9.7-9.2C768.2,556,770,560,770.3,564.4z"/>
		<path class="st6" d="M684,562.8c-0.7,0-1.3,0.2-1.8,0.6c-0.5-4.4-2.2-8.5-4.9-11.8c0.6-0.1,1.2-0.4,1.6-0.9c1.2-1.2,1.2-3.2,0-4.4
			s-3.2-1.2-4.4,0c-0.5,0.5-0.7,1-0.8,1.6c-3.3-2.6-7.3-4.4-11.8-4.9c0.4-0.5,0.6-1.1,0.6-1.8c0-1.7-1.4-3.1-3.1-3.1
			s-3.1,1.4-3.1,3.1c0,0.7,0.2,1.3,0.6,1.8c-4.4,0.5-8.5,2.2-11.8,4.9c-0.1-0.6-0.4-1.2-0.9-1.6c-1.2-1.2-3.2-1.2-4.4,0
			s-1.2,3.2,0,4.4c0.5,0.5,1,0.7,1.6,0.8c-2.6,3.3-4.4,7.3-4.9,11.8c-0.5-0.4-1.1-0.6-1.8-0.6c-1.7,0-3.1,1.4-3.1,3.1
			c0,1.7,1.4,3.1,3.1,3.1c0.7,0,1.3-0.2,1.8-0.6c0.5,4.4,2.2,8.5,4.9,11.8c-0.6,0.1-1.2,0.4-1.6,0.9c-1.2,1.2-1.2,3.2,0,4.4
			s3.2,1.2,4.4,0c0.5-0.5,0.7-1,0.8-1.6c3.3,2.6,7.3,4.4,11.8,4.9c-0.4,0.5-0.6,1.1-0.6,1.8c0,1.7,1.4,3.1,3.1,3.1
			c1.7,0,3.1-1.4,3.1-3.1c0-0.7-0.2-1.3-0.6-1.8c4.4-0.5,8.5-2.2,11.8-4.9c0.1,0.6,0.4,1.2,0.9,1.6c1.2,1.2,3.2,1.2,4.4,0
			s1.2-3.2,0-4.4c-0.5-0.5-1-0.7-1.6-0.8c2.6-3.3,4.4-7.3,4.9-11.8c0.5,0.4,1.1,0.6,1.8,0.6c1.7,0,3.1-1.4,3.1-3.1
			S685.7,562.8,684,562.8z M674.8,579l-9.7-9.2c0.5-0.8,0.9-1.7,1.1-2.7l13.4,0.3C679.2,571.9,677.5,575.9,674.8,579z M661,586
			l-0.4-13.4c1-0.2,1.9-0.6,2.7-1.1l9.2,9.7C669.4,583.9,665.4,585.7,661,586z M646.4,581.3l9.2-9.7c0.8,0.5,1.7,0.9,2.7,1.1
			l-0.3,13.4C653.5,585.7,649.5,584,646.4,581.3z M639.4,567.5l13.4-0.4c0.2,1,0.6,1.9,1.1,2.7l-9.7,9.2
			C641.5,575.9,639.7,571.9,639.4,567.5z M644.1,552.8l9.7,9.2c-0.5,0.8-0.9,1.7-1.1,2.7l-13.4-0.3C639.7,560,641.4,556,644.1,552.8
			z M657.9,545.8l0.4,13.4c-1,0.2-1.9,0.6-2.7,1.1l-9.2-9.7C649.5,547.9,653.5,546.2,657.9,545.8z M672.6,550.6l-9.2,9.7
			c-0.8-0.5-1.7-0.9-2.7-1.1l0.3-13.4C665.4,546.2,669.4,547.9,672.6,550.6z M679.6,564.4l-13.4,0.4c-0.2-1-0.6-1.9-1.1-2.7l9.7-9.2
			C677.5,556,679.2,560,679.6,564.4z"/>
	</g>
	<path class="st6" d="M604.4,576.2h200.9c5.7,0,10.3-4.6,10.3-10.3l0,0c0-5.7-4.6-10.3-10.3-10.3H604.4c-5.7,0-10.3,4.6-10.3,10.3
		l0,0C594.1,571.6,598.7,576.2,604.4,576.2z"/>
</g>
<g>
	<g>
		<path class="st6" d="M774.7,662.7c-0.7,0-1.3,0.2-1.8,0.6c-0.5-4.4-2.2-8.5-4.9-11.8c0.6-0.1,1.2-0.4,1.6-0.9
			c1.2-1.2,1.2-3.2,0-4.4s-3.2-1.2-4.4,0c-0.5,0.5-0.7,1-0.8,1.6c-3.3-2.6-7.3-4.4-11.8-4.9c0.4-0.5,0.6-1.1,0.6-1.8
			c0-1.7-1.4-3.1-3.1-3.1s-3.1,1.4-3.1,3.1c0,0.7,0.2,1.3,0.6,1.8c-4.4,0.5-8.5,2.2-11.8,4.9c-0.1-0.6-0.4-1.2-0.9-1.6
			c-1.2-1.2-3.2-1.2-4.4,0s-1.2,3.2,0,4.4c0.5,0.5,1,0.7,1.6,0.8c-2.6,3.3-4.4,7.3-4.9,11.8c-0.5-0.4-1.1-0.6-1.8-0.6
			c-1.7,0-3.1,1.4-3.1,3.1c0,1.7,1.4,3.1,3.1,3.1c0.7,0,1.3-0.2,1.8-0.6c0.5,4.4,2.2,8.5,4.9,11.8c-0.6,0.1-1.2,0.4-1.6,0.9
			c-1.2,1.2-1.2,3.2,0,4.4s3.2,1.2,4.4,0c0.5-0.5,0.7-1,0.8-1.6c3.3,2.6,7.3,4.4,11.8,4.9c-0.4,0.5-0.6,1.1-0.6,1.8
			c0,1.7,1.4,3.1,3.1,3.1s3.1-1.4,3.1-3.1c0-0.7-0.2-1.3-0.6-1.8c4.4-0.5,8.5-2.2,11.8-4.9c0.1,0.6,0.4,1.2,0.9,1.6
			c1.2,1.2,3.2,1.2,4.4,0s1.2-3.2,0-4.4c-0.5-0.5-1-0.7-1.6-0.8c2.6-3.3,4.4-7.3,4.9-11.8c0.5,0.4,1.1,0.6,1.8,0.6
			c1.7,0,3.1-1.4,3.1-3.1S776.5,662.7,774.7,662.7z M765.5,678.9l-9.7-9.2c0.5-0.8,0.9-1.7,1.1-2.7l13.4,0.3
			C770,671.7,768.2,675.7,765.5,678.9z M751.8,685.9l-0.4-13.4c1-0.2,1.9-0.6,2.7-1.1l9.2,9.7C760.2,683.8,756.2,685.6,751.8,685.9z
			 M737.1,681.1l9.2-9.7c0.8,0.5,1.7,0.9,2.7,1.1l-0.3,13.4C744.3,685.6,740.3,683.8,737.1,681.1z M730.1,667.4l13.4-0.4
			c0.2,1,0.6,1.9,1.1,2.7l-9.7,9.2C732.2,675.8,730.4,671.8,730.1,667.4z M734.9,652.7l9.7,9.2c-0.5,0.8-0.9,1.7-1.1,2.7l-13.4-0.3
			C730.4,659.9,732.2,655.9,734.9,652.7z M748.6,645.7l0.4,13.4c-1,0.2-1.9,0.6-2.7,1.1l-9.2-9.7C740.2,647.8,744.2,646,748.6,645.7
			z M763.3,650.5l-9.2,9.7c-0.8-0.5-1.7-0.9-2.7-1.1l0.3-13.4C756.1,646,760.1,647.8,763.3,650.5z M770.3,664.2l-13.4,0.4
			c-0.2-1-0.6-1.9-1.1-2.7l9.7-9.2C768.2,655.8,770,659.8,770.3,664.2z"/>
		<path class="st6" d="M684,662.7c-0.7,0-1.3,0.2-1.8,0.6c-0.5-4.4-2.2-8.5-4.9-11.8c0.6-0.1,1.2-0.4,1.6-0.9c1.2-1.2,1.2-3.2,0-4.4
			s-3.2-1.2-4.4,0c-0.5,0.5-0.7,1-0.8,1.6c-3.3-2.6-7.3-4.4-11.8-4.9c0.4-0.5,0.6-1.1,0.6-1.8c0-1.7-1.4-3.1-3.1-3.1
			s-3.1,1.4-3.1,3.1c0,0.7,0.2,1.3,0.6,1.8c-4.4,0.5-8.5,2.2-11.8,4.9c-0.1-0.6-0.4-1.2-0.9-1.6c-1.2-1.2-3.2-1.2-4.4,0
			s-1.2,3.2,0,4.4c0.5,0.5,1,0.7,1.6,0.8c-2.6,3.3-4.4,7.3-4.9,11.8c-0.5-0.4-1.1-0.6-1.8-0.6c-1.7,0-3.1,1.4-3.1,3.1
			c0,1.7,1.4,3.1,3.1,3.1c0.7,0,1.3-0.2,1.8-0.6c0.5,4.4,2.2,8.5,4.9,11.8c-0.6,0.1-1.2,0.4-1.6,0.9c-1.2,1.2-1.2,3.2,0,4.4
			s3.2,1.2,4.4,0c0.5-0.5,0.7-1,0.8-1.6c3.3,2.6,7.3,4.4,11.8,4.9c-0.4,0.5-0.6,1.1-0.6,1.8c0,1.7,1.4,3.1,3.1,3.1s3.1-1.4,3.1-3.1
			c0-0.7-0.2-1.3-0.6-1.8c4.4-0.5,8.5-2.2,11.8-4.9c0.1,0.6,0.4,1.2,0.9,1.6c1.2,1.2,3.2,1.2,4.4,0s1.2-3.2,0-4.4
			c-0.5-0.5-1-0.7-1.6-0.8c2.6-3.3,4.4-7.3,4.9-11.8c0.5,0.4,1.1,0.6,1.8,0.6c1.7,0,3.1-1.4,3.1-3.1
			C687.1,664.1,685.7,662.7,684,662.7z M674.8,678.9l-9.7-9.2c0.5-0.8,0.9-1.7,1.1-2.7l13.4,0.3
			C679.2,671.7,677.5,675.7,674.8,678.9z M661,685.9l-0.4-13.4c1-0.2,1.9-0.6,2.7-1.1l9.2,9.7C669.4,683.8,665.4,685.6,661,685.9z
			 M646.4,681.1l9.2-9.7c0.8,0.5,1.7,0.9,2.7,1.1l-0.3,13.4C653.5,685.6,649.5,683.8,646.4,681.1z M639.4,667.4l13.4-0.4
			c0.2,1,0.6,1.9,1.1,2.7l-9.7,9.2C641.5,675.8,639.7,671.8,639.4,667.4z M644.1,652.7l9.7,9.2c-0.5,0.8-0.9,1.7-1.1,2.7l-13.4-0.3
			C639.7,659.9,641.4,655.9,644.1,652.7z M657.9,645.7l0.4,13.4c-1,0.2-1.9,0.6-2.7,1.1l-9.2-9.7C649.5,647.8,653.5,646,657.9,645.7
			z M672.6,650.5l-9.2,9.7c-0.8-0.5-1.7-0.9-2.7-1.1l0.3-13.4C665.4,646,669.4,647.8,672.6,650.5z M679.6,664.2l-13.4,0.4
			c-0.2-1-0.6-1.9-1.1-2.7l9.7-9.2C677.5,655.8,679.2,659.8,679.6,664.2z"/>
	</g>
	<path class="st6" d="M604.4,676.1h200.9c5.7,0,10.3-4.6,10.3-10.3l0,0c0-5.7-4.6-10.3-10.3-10.3H604.4c-5.7,0-10.3,4.6-10.3,10.3
		l0,0C594.1,671.5,598.7,676.1,604.4,676.1z"/>
</g>
<g>
	<g>
		<path class="st6" d="M308.8,697.7c-0.7,0-1.3,0.2-1.8,0.6c-0.5-4.4-2.2-8.5-4.9-11.8c0.6-0.1,1.2-0.4,1.6-0.9
			c1.2-1.2,1.2-3.2,0-4.4s-3.2-1.2-4.4,0c-0.5,0.5-0.7,1-0.8,1.6c-3.3-2.6-7.3-4.4-11.8-4.9c0.4-0.5,0.6-1.1,0.6-1.8
			c0-1.7-1.4-3.1-3.1-3.1s-3.1,1.4-3.1,3.1c0,0.7,0.2,1.3,0.6,1.8c-4.4,0.5-8.5,2.2-11.8,4.9c-0.1-0.6-0.4-1.2-0.9-1.6
			c-1.2-1.2-3.2-1.2-4.4,0c-1.2,1.2-1.2,3.2,0,4.4c0.5,0.5,1,0.7,1.6,0.8c-2.6,3.3-4.4,7.3-4.9,11.8c-0.5-0.4-1.1-0.6-1.8-0.6
			c-1.7,0-3.1,1.4-3.1,3.1c0,1.7,1.4,3.1,3.1,3.1c0.7,0,1.3-0.2,1.8-0.6c0.5,4.4,2.2,8.5,4.9,11.8c-0.6,0.1-1.2,0.4-1.6,0.9
			c-1.2,1.2-1.2,3.2,0,4.4s3.2,1.2,4.4,0c0.5-0.5,0.7-1,0.8-1.6c3.3,2.6,7.3,4.4,11.8,4.9c-0.4,0.5-0.6,1.1-0.6,1.8
			c0,1.7,1.4,3.1,3.1,3.1s3.1-1.4,3.1-3.1c0-0.7-0.2-1.3-0.6-1.8c4.4-0.5,8.5-2.2,11.8-4.9c0.1,0.6,0.4,1.2,0.9,1.6
			c1.2,1.2,3.2,1.2,4.4,0c1.2-1.2,1.2-3.2,0-4.4c-0.5-0.5-1-0.7-1.6-0.8c2.6-3.3,4.4-7.3,4.9-11.8c0.5,0.4,1.1,0.6,1.8,0.6
			c1.7,0,3.1-1.4,3.1-3.1C311.9,699.1,310.6,697.7,308.8,697.7z M299.6,713.9l-9.7-9.2c0.5-0.8,0.9-1.7,1.1-2.7l13.4,0.3
			C304.1,706.8,302.3,710.8,299.6,713.9z M285.9,720.9l-0.4-13.4c1-0.2,1.9-0.6,2.7-1.1l9.2,9.7
			C294.3,718.8,290.3,720.6,285.9,720.9z M271.2,716.1l9.2-9.7c0.8,0.5,1.7,0.9,2.7,1.1l-0.3,13.4
			C278.4,720.6,274.4,718.9,271.2,716.1z M264.2,702.4l13.4-0.4c0.2,1,0.6,1.9,1.1,2.7L269,714C266.3,710.8,264.5,706.8,264.2,702.4
			z M269,687.7l9.7,9.2c-0.5,0.8-0.9,1.7-1.1,2.7l-13.4-0.3C264.5,694.9,266.3,690.9,269,687.7z M282.7,680.7l0.4,13.4
			c-1,0.2-1.9,0.6-2.7,1.1l-9.2-9.7C274.3,682.8,278.3,681.1,282.7,680.7z M297.4,685.5l-9.2,9.7c-0.8-0.5-1.7-0.9-2.7-1.1l0.3-13.4
			C290.2,681.1,294.2,682.8,297.4,685.5z M304.4,699.3l-13.4,0.4c-0.2-1-0.6-1.9-1.1-2.7l9.7-9.2
			C302.3,690.9,304.1,694.9,304.4,699.3z"/>
		<path class="st6" d="M218.1,697.7c-0.7,0-1.3,0.2-1.8,0.6c-0.5-4.4-2.2-8.5-4.9-11.8c0.6-0.1,1.2-0.4,1.6-0.9
			c1.2-1.2,1.2-3.2,0-4.4s-3.2-1.2-4.4,0c-0.5,0.5-0.7,1-0.8,1.6c-3.3-2.6-7.3-4.4-11.8-4.9c0.4-0.5,0.6-1.1,0.6-1.8
			c0-1.7-1.4-3.1-3.1-3.1c-1.7,0-3.1,1.4-3.1,3.1c0,0.7,0.2,1.3,0.6,1.8c-4.4,0.5-8.5,2.2-11.8,4.9c-0.1-0.6-0.4-1.2-0.9-1.6
			c-1.2-1.2-3.2-1.2-4.4,0s-1.2,3.2,0,4.4c0.5,0.5,1,0.7,1.6,0.8c-2.6,3.3-4.4,7.3-4.9,11.8c-0.5-0.4-1.1-0.6-1.8-0.6
			c-1.7,0-3.1,1.4-3.1,3.1s1.4,3.1,3.1,3.1c0.7,0,1.3-0.2,1.8-0.6c0.5,4.4,2.2,8.5,4.9,11.8c-0.6,0.1-1.2,0.4-1.6,0.9
			c-1.2,1.2-1.2,3.2,0,4.4s3.2,1.2,4.4,0c0.5-0.5,0.7-1,0.8-1.6c3.3,2.6,7.3,4.4,11.8,4.9c-0.4,0.5-0.6,1.1-0.6,1.8
			c0,1.7,1.4,3.1,3.1,3.1c1.7,0,3.1-1.4,3.1-3.1c0-0.7-0.2-1.3-0.6-1.8c4.4-0.5,8.5-2.2,11.8-4.9c0.1,0.6,0.4,1.2,0.9,1.6
			c1.2,1.2,3.2,1.2,4.4,0s1.2-3.2,0-4.4c-0.5-0.5-1-0.7-1.6-0.8c2.6-3.3,4.4-7.3,4.9-11.8c0.5,0.4,1.1,0.6,1.8,0.6
			c1.7,0,3.1-1.4,3.1-3.1C221.2,699.1,219.8,697.7,218.1,697.7z M208.9,713.9l-9.7-9.2c0.5-0.8,0.9-1.7,1.1-2.7l13.4,0.3
			C213.3,706.8,211.6,710.8,208.9,713.9z M195.1,720.9l-0.4-13.4c1-0.2,1.9-0.6,2.7-1.1l9.2,9.7
			C203.5,718.8,199.5,720.6,195.1,720.9z M180.5,716.1l9.2-9.7c0.8,0.5,1.7,0.9,2.7,1.1l-0.3,13.4
			C187.6,720.6,183.6,718.9,180.5,716.1z M173.5,702.4l13.4-0.4c0.2,1,0.6,1.9,1.1,2.7l-9.7,9.2
			C175.6,710.8,173.8,706.8,173.5,702.4z M178.2,687.7l9.7,9.2c-0.5,0.8-0.9,1.7-1.1,2.7l-13.4-0.3
			C173.8,694.9,175.5,690.9,178.2,687.7z M192,680.7l0.4,13.4c-1,0.2-1.9,0.6-2.7,1.1l-9.2-9.7C183.6,682.8,187.6,681.1,192,680.7z
			 M206.7,685.5l-9.2,9.7c-0.8-0.5-1.7-0.9-2.7-1.1l0.3-13.4C199.5,681.1,203.5,682.8,206.7,685.5z M213.7,699.3l-13.4,0.4
			c-0.2-1-0.6-1.9-1.1-2.7l9.7-9.2C211.6,690.9,213.3,694.9,213.7,699.3z"/>
	</g>
	<path class="st6" d="M138.5,711.1h200.9c5.7,0,10.3-4.6,10.3-10.3l0,0c0-5.7-4.6-10.3-10.3-10.3H138.5c-5.7,0-10.3,4.6-10.3,10.3
		l0,0C128.2,706.5,132.8,711.1,138.5,711.1z"/>
</g>
<g>
	<g>
		<path class="st6" d="M308.8,611c-0.7,0-1.3,0.2-1.8,0.6c-0.5-4.4-2.2-8.5-4.9-11.8c0.6-0.1,1.2-0.4,1.6-0.9c1.2-1.2,1.2-3.2,0-4.4
			s-3.2-1.2-4.4,0c-0.5,0.5-0.7,1-0.8,1.6c-3.3-2.6-7.3-4.4-11.8-4.9c0.4-0.5,0.6-1.1,0.6-1.8c0-1.7-1.4-3.1-3.1-3.1
			s-3.1,1.4-3.1,3.1c0,0.7,0.2,1.3,0.6,1.8c-4.4,0.5-8.5,2.2-11.8,4.9c-0.1-0.6-0.4-1.2-0.9-1.6c-1.2-1.2-3.2-1.2-4.4,0
			c-1.2,1.2-1.2,3.2,0,4.4c0.5,0.5,1,0.7,1.6,0.8c-2.6,3.3-4.4,7.3-4.9,11.8c-0.5-0.4-1.1-0.6-1.8-0.6c-1.7,0-3.1,1.4-3.1,3.1
			c0,1.7,1.4,3.1,3.1,3.1c0.7,0,1.3-0.2,1.8-0.6c0.5,4.4,2.2,8.5,4.9,11.8c-0.6,0.1-1.2,0.4-1.6,0.9c-1.2,1.2-1.2,3.2,0,4.4
			s3.2,1.2,4.4,0c0.5-0.5,0.7-1,0.8-1.6c3.3,2.6,7.3,4.4,11.8,4.9c-0.4,0.5-0.6,1.1-0.6,1.8c0,1.7,1.4,3.1,3.1,3.1s3.1-1.4,3.1-3.1
			c0-0.7-0.2-1.3-0.6-1.8c4.4-0.5,8.5-2.2,11.8-4.9c0.1,0.6,0.4,1.2,0.9,1.6c1.2,1.2,3.2,1.2,4.4,0c1.2-1.2,1.2-3.2,0-4.4
			c-0.5-0.5-1-0.7-1.6-0.8c2.6-3.3,4.4-7.3,4.9-11.8c0.5,0.4,1.1,0.6,1.8,0.6c1.7,0,3.1-1.4,3.1-3.1S310.6,611,308.8,611z
			 M299.6,627.2l-9.7-9.2c0.5-0.8,0.9-1.7,1.1-2.7l13.4,0.3C304.1,620,302.3,624,299.6,627.2z M285.9,634.2l-0.4-13.4
			c1-0.2,1.9-0.6,2.7-1.1l9.2,9.7C294.3,632.1,290.3,633.9,285.9,634.2z M271.2,629.4l9.2-9.7c0.8,0.5,1.7,0.9,2.7,1.1l-0.3,13.4
			C278.4,633.9,274.4,632.1,271.2,629.4z M264.2,615.7l13.4-0.4c0.2,1,0.6,1.9,1.1,2.7l-9.7,9.2
			C266.3,624.1,264.5,620.1,264.2,615.7z M269,601l9.7,9.2c-0.5,0.8-0.9,1.7-1.1,2.7l-13.4-0.3C264.5,608.2,266.3,604.2,269,601z
			 M282.7,594l0.4,13.4c-1,0.2-1.9,0.6-2.7,1.1l-9.2-9.7C274.3,596.1,278.3,594.3,282.7,594z M297.4,598.8l-9.2,9.7
			c-0.8-0.5-1.7-0.9-2.7-1.1l0.3-13.4C290.2,594.3,294.2,596.1,297.4,598.8z M304.4,612.5l-13.4,0.4c-0.2-1-0.6-1.9-1.1-2.7l9.7-9.2
			C302.3,604.1,304.1,608.1,304.4,612.5z"/>
		<path class="st6" d="M218.1,611c-0.7,0-1.3,0.2-1.8,0.6c-0.5-4.4-2.2-8.5-4.9-11.8c0.6-0.1,1.2-0.4,1.6-0.9c1.2-1.2,1.2-3.2,0-4.4
			s-3.2-1.2-4.4,0c-0.5,0.5-0.7,1-0.8,1.6c-3.3-2.6-7.3-4.4-11.8-4.9c0.4-0.5,0.6-1.1,0.6-1.8c0-1.7-1.4-3.1-3.1-3.1
			c-1.7,0-3.1,1.4-3.1,3.1c0,0.7,0.2,1.3,0.6,1.8c-4.4,0.5-8.5,2.2-11.8,4.9c-0.1-0.6-0.4-1.2-0.9-1.6c-1.2-1.2-3.2-1.2-4.4,0
			s-1.2,3.2,0,4.4c0.5,0.5,1,0.7,1.6,0.8c-2.6,3.3-4.4,7.3-4.9,11.8c-0.5-0.4-1.1-0.6-1.8-0.6c-1.7,0-3.1,1.4-3.1,3.1
			c0,1.7,1.4,3.1,3.1,3.1c0.7,0,1.3-0.2,1.8-0.6c0.5,4.4,2.2,8.5,4.9,11.8c-0.6,0.1-1.2,0.4-1.6,0.9c-1.2,1.2-1.2,3.2,0,4.4
			s3.2,1.2,4.4,0c0.5-0.5,0.7-1,0.8-1.6c3.3,2.6,7.3,4.4,11.8,4.9c-0.4,0.5-0.6,1.1-0.6,1.8c0,1.7,1.4,3.1,3.1,3.1
			c1.7,0,3.1-1.4,3.1-3.1c0-0.7-0.2-1.3-0.6-1.8c4.4-0.5,8.5-2.2,11.8-4.9c0.1,0.6,0.4,1.2,0.9,1.6c1.2,1.2,3.2,1.2,4.4,0
			s1.2-3.2,0-4.4c-0.5-0.5-1-0.7-1.6-0.8c2.6-3.3,4.4-7.3,4.9-11.8c0.5,0.4,1.1,0.6,1.8,0.6c1.7,0,3.1-1.4,3.1-3.1
			S219.8,611,218.1,611z M208.9,627.2l-9.7-9.2c0.5-0.8,0.9-1.7,1.1-2.7l13.4,0.3C213.3,620,211.6,624,208.9,627.2z M195.1,634.2
			l-0.4-13.4c1-0.2,1.9-0.6,2.7-1.1l9.2,9.7C203.5,632.1,199.5,633.9,195.1,634.2z M180.5,629.4l9.2-9.7c0.8,0.5,1.7,0.9,2.7,1.1
			l-0.3,13.4C187.6,633.9,183.6,632.1,180.5,629.4z M173.5,615.7l13.4-0.4c0.2,1,0.6,1.9,1.1,2.7l-9.7,9.2
			C175.6,624.1,173.8,620.1,173.5,615.7z M178.2,601l9.7,9.2c-0.5,0.8-0.9,1.7-1.1,2.7l-13.4-0.3C173.8,608.2,175.5,604.2,178.2,601
			z M192,594l0.4,13.4c-1,0.2-1.9,0.6-2.7,1.1l-9.2-9.7C183.6,596.1,187.6,594.3,192,594z M206.7,598.8l-9.2,9.7
			c-0.8-0.5-1.7-0.9-2.7-1.1l0.3-13.4C199.5,594.3,203.5,596.1,206.7,598.8z M213.7,612.5l-13.4,0.4c-0.2-1-0.6-1.9-1.1-2.7l9.7-9.2
			C211.6,604.1,213.3,608.1,213.7,612.5z"/>
	</g>
	<path class="st6" d="M138.5,624.4h200.9c5.7,0,10.3-4.6,10.3-10.3l0,0c0-5.7-4.6-10.3-10.3-10.3H138.5c-5.7,0-10.3,4.6-10.3,10.3
		l0,0C128.2,619.8,132.8,624.4,138.5,624.4z"/>
</g>
<g>
	<g>
		<path class="st6" d="M308.8,524.2c-0.7,0-1.3,0.2-1.8,0.6c-0.5-4.4-2.2-8.5-4.9-11.8c0.6-0.1,1.2-0.4,1.6-0.9
			c1.2-1.2,1.2-3.2,0-4.4c-1.2-1.2-3.2-1.2-4.4,0c-0.5,0.5-0.7,1-0.8,1.6c-3.3-2.6-7.3-4.4-11.8-4.9c0.4-0.5,0.6-1.1,0.6-1.8
			c0-1.7-1.4-3.1-3.1-3.1s-3.1,1.4-3.1,3.1c0,0.7,0.2,1.3,0.6,1.8c-4.4,0.5-8.5,2.2-11.8,4.9c-0.1-0.6-0.4-1.2-0.9-1.6
			c-1.2-1.2-3.2-1.2-4.4,0c-1.2,1.2-1.2,3.2,0,4.4c0.5,0.5,1,0.7,1.6,0.8c-2.6,3.3-4.4,7.3-4.9,11.8c-0.5-0.4-1.1-0.6-1.8-0.6
			c-1.7,0-3.1,1.4-3.1,3.1c0,1.7,1.4,3.1,3.1,3.1c0.7,0,1.3-0.2,1.8-0.6c0.5,4.4,2.2,8.5,4.9,11.8c-0.6,0.1-1.2,0.4-1.6,0.9
			c-1.2,1.2-1.2,3.2,0,4.4s3.2,1.2,4.4,0c0.5-0.5,0.7-1,0.8-1.6c3.3,2.6,7.3,4.4,11.8,4.9c-0.4,0.5-0.6,1.1-0.6,1.8
			c0,1.7,1.4,3.1,3.1,3.1s3.1-1.4,3.1-3.1c0-0.7-0.2-1.3-0.6-1.8c4.4-0.5,8.5-2.2,11.8-4.9c0.1,0.6,0.4,1.2,0.9,1.6
			c1.2,1.2,3.2,1.2,4.4,0c1.2-1.2,1.2-3.2,0-4.4c-0.5-0.5-1-0.7-1.6-0.8c2.6-3.3,4.4-7.3,4.9-11.8c0.5,0.4,1.1,0.6,1.8,0.6
			c1.7,0,3.1-1.4,3.1-3.1C311.9,525.6,310.6,524.2,308.8,524.2z M299.6,540.5l-9.7-9.2c0.5-0.8,0.9-1.7,1.1-2.7l13.4,0.3
			C304.1,533.3,302.3,537.3,299.6,540.5z M285.9,547.5l-0.4-13.4c1-0.2,1.9-0.6,2.7-1.1l9.2,9.7
			C294.3,545.4,290.3,547.1,285.9,547.5z M271.2,542.7l9.2-9.7c0.8,0.5,1.7,0.9,2.7,1.1l-0.3,13.4
			C278.4,547.1,274.4,545.4,271.2,542.7z M264.2,528.9l13.4-0.4c0.2,1,0.6,1.9,1.1,2.7l-9.7,9.2
			C266.3,537.3,264.5,533.3,264.2,528.9z M269,514.3l9.7,9.2c-0.5,0.8-0.9,1.7-1.1,2.7l-13.4-0.3C264.5,521.4,266.3,517.4,269,514.3
			z M282.7,507.3l0.4,13.4c-1,0.2-1.9,0.6-2.7,1.1l-9.2-9.7C274.3,509.4,278.3,507.6,282.7,507.3z M297.4,512l-9.2,9.7
			c-0.8-0.5-1.7-0.9-2.7-1.1l0.3-13.4C290.2,507.6,294.2,509.3,297.4,512z M304.4,525.8l-13.4,0.4c-0.2-1-0.6-1.9-1.1-2.7l9.7-9.2
			C302.3,517.4,304.1,521.4,304.4,525.8z"/>
		<path class="st6" d="M218.1,524.2c-0.7,0-1.3,0.2-1.8,0.6c-0.5-4.4-2.2-8.5-4.9-11.8c0.6-0.1,1.2-0.4,1.6-0.9
			c1.2-1.2,1.2-3.2,0-4.4c-1.2-1.2-3.2-1.2-4.4,0c-0.5,0.5-0.7,1-0.8,1.6c-3.3-2.6-7.3-4.4-11.8-4.9c0.4-0.5,0.6-1.1,0.6-1.8
			c0-1.7-1.4-3.1-3.1-3.1c-1.7,0-3.1,1.4-3.1,3.1c0,0.7,0.2,1.3,0.6,1.8c-4.4,0.5-8.5,2.2-11.8,4.9c-0.1-0.6-0.4-1.2-0.9-1.6
			c-1.2-1.2-3.2-1.2-4.4,0s-1.2,3.2,0,4.4c0.5,0.5,1,0.7,1.6,0.8c-2.6,3.3-4.4,7.3-4.9,11.8c-0.5-0.4-1.1-0.6-1.8-0.6
			c-1.7,0-3.1,1.4-3.1,3.1c0,1.7,1.4,3.1,3.1,3.1c0.7,0,1.3-0.2,1.8-0.6c0.5,4.4,2.2,8.5,4.9,11.8c-0.6,0.1-1.2,0.4-1.6,0.9
			c-1.2,1.2-1.2,3.2,0,4.4s3.2,1.2,4.4,0c0.5-0.5,0.7-1,0.8-1.6c3.3,2.6,7.3,4.4,11.8,4.9c-0.4,0.5-0.6,1.1-0.6,1.8
			c0,1.7,1.4,3.1,3.1,3.1c1.7,0,3.1-1.4,3.1-3.1c0-0.7-0.2-1.3-0.6-1.8c4.4-0.5,8.5-2.2,11.8-4.9c0.1,0.6,0.4,1.2,0.9,1.6
			c1.2,1.2,3.2,1.2,4.4,0s1.2-3.2,0-4.4c-0.5-0.5-1-0.7-1.6-0.8c2.6-3.3,4.4-7.3,4.9-11.8c0.5,0.4,1.1,0.6,1.8,0.6
			c1.7,0,3.1-1.4,3.1-3.1S219.8,524.2,218.1,524.2z M208.9,540.5l-9.7-9.2c0.5-0.8,0.9-1.7,1.1-2.7l13.4,0.3
			C213.3,533.3,211.6,537.3,208.9,540.5z M195.1,547.5l-0.4-13.4c1-0.2,1.9-0.6,2.7-1.1l9.2,9.7
			C203.5,545.4,199.5,547.1,195.1,547.5z M180.5,542.7l9.2-9.7c0.8,0.5,1.7,0.9,2.7,1.1l-0.3,13.4
			C187.6,547.1,183.6,545.4,180.5,542.7z M173.5,528.9l13.4-0.4c0.2,1,0.6,1.9,1.1,2.7l-9.7,9.2
			C175.6,537.3,173.8,533.3,173.5,528.9z M178.2,514.3l9.7,9.2c-0.5,0.8-0.9,1.7-1.1,2.7l-13.4-0.3
			C173.8,521.4,175.5,517.4,178.2,514.3z M192,507.3l0.4,13.4c-1,0.2-1.9,0.6-2.7,1.1l-9.2-9.7C183.6,509.4,187.6,507.6,192,507.3z
			 M206.7,512l-9.2,9.7c-0.8-0.5-1.7-0.9-2.7-1.1l0.3-13.4C199.5,507.6,203.5,509.3,206.7,512z M213.7,525.8l-13.4,0.4
			c-0.2-1-0.6-1.9-1.1-2.7l9.7-9.2C211.6,517.4,213.3,521.4,213.7,525.8z"/>
	</g>
	<path class="st6" d="M138.5,537.6h200.9c5.7,0,10.3-4.6,10.3-10.3l0,0c0-5.7-4.6-10.3-10.3-10.3H138.5c-5.7,0-10.3,4.6-10.3,10.3
		l0,0C128.2,533,132.8,537.6,138.5,537.6z"/>
</g>
</svg>
