<?xml version="1.0" encoding="utf-8"?>
<!-- Generator: Adobe Illustrator 19.2.1, SVG Export Plug-In . SVG Version: 6.00 Build 0)  -->
<svg version="1.1" id="图层_1" xmlns="http://www.w3.org/2000/svg" xmlns:xlink="http://www.w3.org/1999/xlink" x="0px" y="0px"
	 viewBox="0 0 1600 900" style="enable-background:new 0 0 1600 900;" xml:space="preserve">
<style type="text/css">
	.st0{fill:#DDDDDD;stroke:#FFFFFF;stroke-width:3;stroke-miterlimit:10;}
	.st1{fill:#EFEFEF;}
	.st2{clip-path:url(#SVGID_2_);}
	.st3{opacity:0.6;}
	.st4{fill:none;stroke:#B5B5B6;stroke-width:0.25;stroke-miterlimit:10;}
	.st5{fill:#AAAAAA;}
	.st6{fill:none;}
	.st7{fill:#FFFFFF;}
	.st8{fill:none;stroke:#AAAAAA;stroke-width:0.5;stroke-miterlimit:10;}
	.st9{clip-path:url(#SVGID_4_);}
	.st10{fill:#6B6B6B;stroke:#FFFFFF;stroke-miterlimit:10;}
	.st11{fill:#EFEFEF;stroke:#FFFFFF;stroke-width:3;stroke-miterlimit:10;}
	.st12{fill:none;stroke:#FFFFFF;stroke-width:3;stroke-miterlimit:10;}
</style>
<g>
	<g>
		<path class="st0" d="M1518.8,196.4V91.9h-29.6l-3.8,0v-26l-45.3,0v25.9H1415l-3.8,0v-26l-45.3,0v25.9h-37.1l-2.1,0v-26l-45.3,0
			v25.9h-43.1v23.7H890.9V93.4h-77.3v16.4c-24.3-10.2-55-15.8-87.2-15.8c-32.2,0-62.9,5.6-87.2,15.8V93.4h-77.3v22.3h-372v80.9H72
			v346.1h1175.8V519h248.5V354.8h31.8V196.4H1518.8z"/>
		<path class="st1" d="M1508.8,206.4v-98.7v-5.9h-5.9h-13.7v0.1h-13.8v-26h-25.3v0v26h-14.1v-0.1H1415v0.1h-13.8v-26h-25.3v0v26
			h-13.8v-0.1h-33.3v0.1h-12.1v-26h-25.3v0v26h-14v-0.1h-23.2h-5.9v5.9v17.8h-8.1h-7.6H880.9v-22.3h-57.3v22.4
			c-2.4-1.4-4.9-2.7-7.6-4c-24-11.5-55.8-17.9-89.6-17.9s-65.6,6.3-89.6,17.9c-2.7,1.3-5.2,2.6-7.6,4v-22.4h-57.3v22.3h-372v0.9v5
			v75h-12h-82.7H87.9H82v5.9v30.7V262v264.7v5.9h5.9h17.3h82.6h1041.3h2.8h5.9v-5.9v-18.1V365.5h10.5v53.4v5.9v78.3v5.9h5.9h18.4
			h41.1h18.9h5.9h18.6h41.1h18.6h5.9h57.8h5.9v-5.9v-78.3v-5.9v-74.2h25.9h5.9v-5.9V212.3V212v-5.6H1508.8z"/>
		<g>
			<defs>
				<path id="SVGID_1_" d="M1508.8,206.4v-98.7v-5.9h-5.9h-13.7v0.1h-13.8v-26h-25.3v0v26h-14.1v-0.1H1415v0.1h-13.8v-26h-25.3v0v26
					h-13.8v-0.1h-33.3v0.1h-12.1v-26h-25.3v0v26h-14v-0.1h-23.2h-5.9v5.9v17.8h-8.1h-7.6H880.9v-22.3h-57.3v22.4
					c-2.4-1.4-4.9-2.7-7.6-4c-24-11.5-55.8-17.9-89.6-17.9s-65.6,6.3-89.6,17.9c-2.7,1.3-5.2,2.6-7.6,4v-22.4h-57.3v22.3h-372v0.9v5
					v75h-12h-82.7H87.9H82v5.9v30.7V262v264.7v5.9h5.9h17.3h82.6h1041.3h2.8h5.9v-5.9v-18.1V365.5h10.5v53.4v5.9v78.3v5.9h5.9h18.4
					h41.1h18.9h5.9h18.6h41.1h18.6h5.9h57.8h5.9v-5.9v-78.3v-5.9v-74.2h25.9h5.9v-5.9V212.3V212v-5.6H1508.8z"/>
			</defs>
			<clipPath id="SVGID_2_">
				<use xlink:href="#SVGID_1_"  style="overflow:visible;"/>
			</clipPath>
			<g class="st2">
				<g class="st3">
					<line class="st4" x1="249.1" y1="-13.8" x2="249.1" y2="673.7"/>
					<line class="st4" x1="266.6" y1="-13.8" x2="266.6" y2="673.7"/>
					<line class="st4" x1="231.7" y1="-13.8" x2="231.7" y2="673.7"/>
					<line class="st4" x1="214.2" y1="-13.8" x2="214.2" y2="673.7"/>
					<line class="st4" x1="196.7" y1="-13.8" x2="196.7" y2="673.7"/>
					<line class="st4" x1="179.2" y1="-13.8" x2="179.2" y2="673.7"/>
					<line class="st4" x1="161.7" y1="-13.8" x2="161.7" y2="673.7"/>
					<line class="st4" x1="144.2" y1="-13.8" x2="144.2" y2="673.7"/>
					<line class="st4" x1="126.7" y1="-13.8" x2="126.7" y2="673.7"/>
					<line class="st4" x1="109.2" y1="-13.8" x2="109.2" y2="673.7"/>
					<line class="st4" x1="91.8" y1="-13.8" x2="91.8" y2="673.7"/>
					<line class="st4" x1="74.3" y1="-13.8" x2="74.3" y2="673.7"/>
					<line class="st4" x1="56.8" y1="-13.8" x2="56.8" y2="673.7"/>
					<line class="st4" x1="39.3" y1="-13.8" x2="39.3" y2="673.7"/>
					<line class="st4" x1="21.8" y1="-13.8" x2="21.8" y2="673.7"/>
					<line class="st4" x1="284.1" y1="-13.8" x2="284.1" y2="673.7"/>
					<line class="st4" x1="301.6" y1="-13.8" x2="301.6" y2="673.7"/>
					<line class="st4" x1="319.1" y1="-13.8" x2="319.1" y2="673.7"/>
					<line class="st4" x1="336.6" y1="-13.8" x2="336.6" y2="673.7"/>
					<line class="st4" x1="354.1" y1="-13.8" x2="354.1" y2="673.7"/>
					<line class="st4" x1="371.6" y1="-13.8" x2="371.6" y2="673.7"/>
					<line class="st4" x1="389" y1="-13.8" x2="389" y2="673.7"/>
					<line class="st4" x1="406.5" y1="-13.8" x2="406.5" y2="673.7"/>
					<line class="st4" x1="424" y1="-13.8" x2="424" y2="673.7"/>
					<line class="st4" x1="441.5" y1="-13.8" x2="441.5" y2="673.7"/>
					<line class="st4" x1="459" y1="-13.8" x2="459" y2="673.7"/>
					<line class="st4" x1="476.5" y1="-13.8" x2="476.5" y2="673.7"/>
					<line class="st4" x1="494" y1="-13.8" x2="494" y2="673.7"/>
					<line class="st4" x1="511.5" y1="-13.8" x2="511.5" y2="673.7"/>
					<line class="st4" x1="528.9" y1="-13.8" x2="528.9" y2="673.7"/>
					<line class="st4" x1="546.4" y1="-13.8" x2="546.4" y2="673.7"/>
					<line class="st4" x1="791.3" y1="-13.8" x2="791.3" y2="673.7"/>
					<line class="st4" x1="808.7" y1="-13.8" x2="808.7" y2="673.7"/>
					<line class="st4" x1="773.8" y1="-13.8" x2="773.8" y2="673.7"/>
					<line class="st4" x1="756.3" y1="-13.8" x2="756.3" y2="673.7"/>
					<line class="st4" x1="738.8" y1="-13.8" x2="738.8" y2="673.7"/>
					<line class="st4" x1="721.3" y1="-13.8" x2="721.3" y2="673.7"/>
					<line class="st4" x1="703.8" y1="-13.8" x2="703.8" y2="673.7"/>
					<line class="st4" x1="686.3" y1="-13.8" x2="686.3" y2="673.7"/>
					<line class="st4" x1="668.8" y1="-13.8" x2="668.8" y2="673.7"/>
					<line class="st4" x1="651.4" y1="-13.8" x2="651.4" y2="673.7"/>
					<line class="st4" x1="633.9" y1="-13.8" x2="633.9" y2="673.7"/>
					<line class="st4" x1="616.4" y1="-13.8" x2="616.4" y2="673.7"/>
					<line class="st4" x1="598.9" y1="-13.8" x2="598.9" y2="673.7"/>
					<line class="st4" x1="581.4" y1="-13.8" x2="581.4" y2="673.7"/>
					<line class="st4" x1="563.9" y1="-13.8" x2="563.9" y2="673.7"/>
					<line class="st4" x1="826.2" y1="-13.8" x2="826.2" y2="673.7"/>
					<line class="st4" x1="843.7" y1="-13.8" x2="843.7" y2="673.7"/>
					<line class="st4" x1="861.2" y1="-13.8" x2="861.2" y2="673.7"/>
					<line class="st4" x1="878.7" y1="-13.8" x2="878.7" y2="673.7"/>
					<line class="st4" x1="896.2" y1="-13.8" x2="896.2" y2="673.7"/>
					<line class="st4" x1="913.7" y1="-13.8" x2="913.7" y2="673.7"/>
					<line class="st4" x1="931.2" y1="-13.8" x2="931.2" y2="673.7"/>
					<line class="st4" x1="948.6" y1="-13.8" x2="948.6" y2="673.7"/>
					<line class="st4" x1="966.1" y1="-13.8" x2="966.1" y2="673.7"/>
					<line class="st4" x1="983.6" y1="-13.8" x2="983.6" y2="673.7"/>
					<line class="st4" x1="1001.1" y1="-13.8" x2="1001.1" y2="673.7"/>
					<line class="st4" x1="1018.6" y1="-13.8" x2="1018.6" y2="673.7"/>
					<line class="st4" x1="1036.1" y1="-13.8" x2="1036.1" y2="673.7"/>
					<line class="st4" x1="1053.6" y1="-13.8" x2="1053.6" y2="673.7"/>
					<line class="st4" x1="1071.1" y1="-13.8" x2="1071.1" y2="673.7"/>
					<line class="st4" x1="1088.5" y1="-13.8" x2="1088.5" y2="673.7"/>
					<line class="st4" x1="1333.4" y1="-13.8" x2="1333.4" y2="673.7"/>
					<line class="st4" x1="1350.9" y1="-13.8" x2="1350.9" y2="673.7"/>
					<line class="st4" x1="1315.9" y1="-13.8" x2="1315.9" y2="673.7"/>
					<line class="st4" x1="1298.4" y1="-13.8" x2="1298.4" y2="673.7"/>
					<line class="st4" x1="1280.9" y1="-13.8" x2="1280.9" y2="673.7"/>
					<line class="st4" x1="1263.4" y1="-13.8" x2="1263.4" y2="673.7"/>
					<line class="st4" x1="1245.9" y1="-13.8" x2="1245.9" y2="673.7"/>
					<line class="st4" x1="1228.4" y1="-13.8" x2="1228.4" y2="673.7"/>
					<line class="st4" x1="1211" y1="-13.8" x2="1211" y2="673.7"/>
					<line class="st4" x1="1193.5" y1="-13.8" x2="1193.5" y2="673.7"/>
					<line class="st4" x1="1176" y1="-13.8" x2="1176" y2="673.7"/>
					<line class="st4" x1="1158.5" y1="-13.8" x2="1158.5" y2="673.7"/>
					<line class="st4" x1="1141" y1="-13.8" x2="1141" y2="673.7"/>
					<line class="st4" x1="1123.5" y1="-13.8" x2="1123.5" y2="673.7"/>
					<line class="st4" x1="1106" y1="-13.8" x2="1106" y2="673.7"/>
					<line class="st4" x1="1368.4" y1="-13.8" x2="1368.4" y2="673.7"/>
					<line class="st4" x1="1385.8" y1="-13.8" x2="1385.8" y2="673.7"/>
					<line class="st4" x1="1403.3" y1="-13.8" x2="1403.3" y2="673.7"/>
					<line class="st4" x1="1420.8" y1="-13.8" x2="1420.8" y2="673.7"/>
					<line class="st4" x1="1438.3" y1="-13.8" x2="1438.3" y2="673.7"/>
					<line class="st4" x1="1455.8" y1="-13.8" x2="1455.8" y2="673.7"/>
					<line class="st4" x1="1473.3" y1="-13.8" x2="1473.3" y2="673.7"/>
					<line class="st4" x1="1490.8" y1="-13.8" x2="1490.8" y2="673.7"/>
					<line class="st4" x1="1508.3" y1="-13.8" x2="1508.3" y2="673.7"/>
					<line class="st4" x1="1525.7" y1="-13.8" x2="1525.7" y2="673.7"/>
					<line class="st4" x1="1543.2" y1="-13.8" x2="1543.2" y2="673.7"/>
					<line class="st4" x1="1560.7" y1="-13.8" x2="1560.7" y2="673.7"/>
					<line class="st4" x1="1578.2" y1="-13.8" x2="1578.2" y2="673.7"/>
					<line class="st4" x1="1595.7" y1="-13.8" x2="1595.7" y2="673.7"/>
					<line class="st4" x1="1613.2" y1="-13.8" x2="1613.2" y2="673.7"/>
					<line class="st4" x1="1630.7" y1="-13.8" x2="1630.7" y2="673.7"/>
				</g>
				<g class="st3">
					<line class="st4" x1="1542" y1="232.9" x2="71.1" y2="232.9"/>
					<line class="st4" x1="1542" y1="248.6" x2="71.1" y2="248.6"/>
					<line class="st4" x1="1542" y1="217.2" x2="71.1" y2="217.2"/>
					<line class="st4" x1="1542" y1="201.6" x2="71.1" y2="201.6"/>
					<line class="st4" x1="1542" y1="185.9" x2="71.1" y2="185.9"/>
					<line class="st4" x1="1542" y1="170.3" x2="71.1" y2="170.3"/>
					<line class="st4" x1="1542" y1="154.6" x2="71.1" y2="154.6"/>
					<line class="st4" x1="1542" y1="138.9" x2="71.1" y2="138.9"/>
					<line class="st4" x1="1542" y1="123.3" x2="71.1" y2="123.3"/>
					<line class="st4" x1="1542" y1="107.6" x2="71.1" y2="107.6"/>
					<line class="st4" x1="1542" y1="92" x2="71.1" y2="92"/>
					<line class="st4" x1="1542" y1="76.3" x2="71.1" y2="76.3"/>
					<line class="st4" x1="1542" y1="60.6" x2="71.1" y2="60.6"/>
					<line class="st4" x1="1542" y1="45" x2="71.1" y2="45"/>
					<line class="st4" x1="1542" y1="29.3" x2="71.1" y2="29.3"/>
					<line class="st4" x1="1542" y1="264.2" x2="71.1" y2="264.2"/>
					<line class="st4" x1="1542" y1="279.9" x2="71.1" y2="279.9"/>
					<line class="st4" x1="1542" y1="295.5" x2="71.1" y2="295.5"/>
					<line class="st4" x1="1542" y1="311.2" x2="71.1" y2="311.2"/>
					<line class="st4" x1="1542" y1="326.9" x2="71.1" y2="326.9"/>
					<line class="st4" x1="1542" y1="342.5" x2="71.1" y2="342.5"/>
					<line class="st4" x1="1542" y1="358.2" x2="71.1" y2="358.2"/>
					<line class="st4" x1="1542" y1="373.8" x2="71.1" y2="373.8"/>
					<line class="st4" x1="1542" y1="389.5" x2="71.1" y2="389.5"/>
					<line class="st4" x1="1542" y1="405.2" x2="71.1" y2="405.2"/>
					<line class="st4" x1="1542" y1="420.8" x2="71.1" y2="420.8"/>
					<line class="st4" x1="1542" y1="436.5" x2="71.1" y2="436.5"/>
					<line class="st4" x1="1542" y1="452.1" x2="71.1" y2="452.1"/>
					<line class="st4" x1="1542" y1="467.8" x2="71.1" y2="467.8"/>
					<line class="st4" x1="1542" y1="483.5" x2="71.1" y2="483.5"/>
					<line class="st4" x1="1542" y1="499.1" x2="71.1" y2="499.1"/>
					<line class="st4" x1="1542" y1="640.1" x2="71.1" y2="640.1"/>
					<line class="st4" x1="1542" y1="624.4" x2="71.1" y2="624.4"/>
					<line class="st4" x1="1542" y1="608.7" x2="71.1" y2="608.7"/>
					<line class="st4" x1="1542" y1="593.1" x2="71.1" y2="593.1"/>
					<line class="st4" x1="1542" y1="577.4" x2="71.1" y2="577.4"/>
					<line class="st4" x1="1542" y1="561.8" x2="71.1" y2="561.8"/>
					<line class="st4" x1="1542" y1="546.1" x2="71.1" y2="546.1"/>
					<line class="st4" x1="1542" y1="530.4" x2="71.1" y2="530.4"/>
					<line class="st4" x1="1542" y1="514.8" x2="71.1" y2="514.8"/>
				</g>
			</g>
		</g>
		<g>
			<rect x="82" y="206.6" class="st5" width="5.9" height="36.6"/>
			<rect x="1231.9" y="365.6" class="st5" width="5.9" height="167.1"/>
			
				<rect x="1257.5" y="494" transform="matrix(6.500394e-12 1 -1 6.500394e-12 1766.587 -754.2974)" class="st5" width="5.9" height="24.3"/>
			
				<rect x="1332.4" y="484.5" transform="matrix(1.114379e-11 1 -1 1.114379e-11 1841.4989 -829.2094)" class="st5" width="5.9" height="43.3"/>
			
				<rect x="1439.3" y="462.1" transform="matrix(2.228777e-11 1 -1 2.228777e-11 1948.3831 -936.0934)" class="st5" width="5.9" height="88.2"/>
			
				<rect x="1403" y="322.2" transform="matrix(6.810368e-12 1 -1 6.810368e-12 1743.1033 -1068.6736)" class="st5" width="5.9" height="30.1"/>
			<rect x="1234.1" y="365.6" class="st5" width="20.1" height="143.5"/>
			<rect x="1232.1" y="284.6" class="st5" width="22.1" height="62.5"/>
			<rect x="1231.9" y="284.6" class="st5" width="5.9" height="62.5"/>
			<rect x="1232.1" y="198.4" class="st5" width="22.1" height="60.5"/>
			<rect x="1512.3" y="212.1" class="st5" width="5.9" height="132.7"/>
			<rect x="1480.4" y="208.5" class="st5" width="5.9" height="50.4"/>
			<rect x="1503" y="101.9" class="st5" width="5.9" height="107.7"/>
			<rect x="1416.8" y="120.8" class="st5" width="5.9" height="88.9"/>
			<rect x="1332.3" y="120.8" class="st5" width="5.9" height="88.9"/>
			<rect x="1416.8" y="102.9" class="st5" width="5.9" height="6.9"/>
			<rect x="1332.3" y="102.9" class="st5" width="5.9" height="6.9"/>
			<rect x="1248.3" y="101.9" class="st5" width="5.9" height="75.6"/>
			
				<rect x="1259.9" y="90.3" transform="matrix(1.764437e-11 1 -1 1.764437e-11 1367.7582 -1157.9829)" class="st5" width="5.9" height="29.1"/>
			
				<rect x="1342.6" y="88.3" transform="matrix(2.043058e-11 1 -1 2.043058e-11 1450.3916 -1240.6163)" class="st5" width="5.9" height="33.3"/>
			
				<rect x="1496.1" y="95.1" transform="matrix(1.207194e-11 1 -1 1.207194e-11 1603.9333 -1394.1581)" class="st5" width="5.9" height="19.6"/>
			
				<rect x="1422.6" y="94.4" transform="matrix(1.207194e-11 1 -1 1.207194e-11 1530.4589 -1320.6836)" class="st5" width="5.9" height="21.1"/>
			<rect x="1232.6" y="125.7" class="st5" width="16.8" height="51.9"/>
			
				<rect x="1497.7" y="324.4" transform="matrix(2.724025e-11 1 -1 2.724025e-11 1842.4922 -1158.7164)" class="st5" width="5.9" height="35.1"/>
			
				<rect x="1380.6" y="74.9" transform="matrix(1.999714e-10 1 -1 1.999714e-10 1593.0104 -1174.1515)" class="st5" width="5.9" height="269.1"/>
			
				<rect x="1042" y="-66.7" transform="matrix(2.903613e-10 1 -1 2.903613e-10 1173.5537 -916.335)" class="st5" width="5.9" height="390.6"/>
			
				<rect x="825.3" y="124.1" transform="matrix(6.500394e-12 1 -1 6.500394e-12 956.8889 -699.6702)" class="st5" width="5.9" height="9.1"/>
			
				<rect x="621.6" y="124.1" transform="matrix(6.810368e-12 1 -1 6.810368e-12 753.1257 -495.907)" class="st5" width="5.9" height="9.1"/>
			
				<rect x="398.7" y="-73.1" transform="matrix(2.965528e-10 1 -1 2.965528e-10 530.2229 -273.0042)" class="st5" width="5.9" height="403.5"/>
			<rect x="1231.9" y="198.4" class="st5" width="5.9" height="60.5"/>
			<rect x="853.2" y="126.6" class="st5" width="5.9" height="71.8"/>
			<rect x="592.2" y="126.6" class="st5" width="5.9" height="71.8"/>
			<rect x="372.7" y="126.6" class="st5" width="5.9" height="82.3"/>
			<rect x="372.7" y="220.7" class="st5" width="5.9" height="7.5"/>
			<rect x="288.2" y="126.6" class="st5" width="5.9" height="102.5"/>
			
				<rect x="236.4" y="196.8" transform="matrix(8.172200e-11 1 -1 8.172200e-11 465.4555 -9.3695)" class="st5" width="2" height="62.5"/>
			
				<rect x="336.9" y="181.5" transform="matrix(1.216545e-10 1 -1 1.216545e-10 565.947 -109.8609)" class="st5" width="2" height="93.1"/>
			
				<rect x="726.5" y="-89.3" transform="matrix(8.302246e-10 1 -1 8.302246e-10 955.5416 -499.4556)" class="st5" width="2" height="634.6"/>
			<rect x="199.9" y="126.6" class="st5" width="5.9" height="82.3"/>
			<rect x="1416.8" y="334.3" class="st5" width="5.9" height="174.8"/>
			<rect x="1480.4" y="303.5" class="st5" width="5.9" height="205.5"/>
			
				<rect x="1354" y="313.3" transform="matrix(6.779270e-11 1 -1 6.779270e-11 1778.8214 -934.9816)" class="st5" width="5.9" height="217.2"/>
			
				<rect x="1479.7" y="418.2" transform="matrix(1.856997e-12 1 -1 1.856997e-12 1904.5178 -1060.678)" class="st5" width="5.9" height="7.4"/>
			
				<rect x="1302.2" y="280.4" transform="matrix(3.559801e-11 1 -1 3.559801e-11 1642.3428 -967.913)" class="st5" width="5.9" height="113.6"/>
			
				<rect x="1152.9" y="144.7" transform="matrix(1.560155e-10 1 -1 1.560155e-10 1381.885 -925.799)" class="st5" width="2" height="166.8"/>
			<rect x="1332.5" y="419" class="st5" width="5.9" height="90.1"/>
			<rect x="1229.1" y="508.7" class="st5" width="8.6" height="24"/>
			<rect x="82" y="262.1" class="st5" width="5.9" height="270.6"/>
			
				<rect x="90.7" y="197.9" transform="matrix(2.878834e-11 1 -1 2.878834e-11 303.1282 115.9055)" class="st5" width="5.9" height="23.2"/>
			
				<rect x="193.9" y="200.6" transform="matrix(2.197868e-11 1 -1 2.197868e-11 406.3371 12.6965)" class="st5" width="5.9" height="17.9"/>
			
				<rect x="90.7" y="518.2" transform="matrix(2.878834e-11 1 -1 2.878834e-11 623.3405 436.1178)" class="st5" width="5.9" height="23.2"/>
			
				<rect x="709.9" y="4.7" transform="matrix(1.292079e-09 1 -1 1.292079e-09 1242.5249 -183.0667)" class="st5" width="5.9" height="1050"/>
			<g>
				<path class="st6" d="M603.6,166.6c0,12.7,8.9,24.9,25.4,35v-70C612.5,141.7,603.6,153.9,603.6,166.6z"/>
				<path class="st6" d="M726.4,108.9c-33.1,0-64.2,6.2-87.5,17.4c-3.6,1.7-6.9,3.5-9.9,5.4v70c3,1.9,6.4,3.7,9.9,5.4
					c23.3,11.2,54.4,17.4,87.5,17.4s64.2-6.2,87.5-17.4c3.6-1.7,6.9-3.5,10-5.4v-69.9c-3.1-1.9-6.4-3.7-10-5.4
					C790.6,115.1,759.5,108.9,726.4,108.9z"/>
				<path class="st6" d="M849.2,166.6c0-12.7-8.9-24.9-25.3-35v69.9C840.3,191.5,849.2,179.4,849.2,166.6z"/>
				<path class="st5" d="M638.9,126.3c23.3-11.2,54.4-17.4,87.5-17.4s64.2,6.2,87.5,17.4c3.6,1.7,6.9,3.5,10,5.4V126
					c-2.5-1.4-5.1-2.8-7.8-4.1c-24-11.5-55.8-17.9-89.6-17.9s-65.6,6.3-89.6,17.9c-2.7,1.3-5.3,2.7-7.8,4.1v5.7
					C632.1,129.8,635.4,128,638.9,126.3z"/>
			</g>
			<g>
				
					<rect x="589.1" y="86.2" transform="matrix(4.481019e-11 1 -1 4.481019e-11 715.402 -485.7088)" class="st7" width="22.9" height="57.3"/>
				<g>
					<line class="st8" x1="629.2" y1="103.4" x2="571.9" y2="103.4"/>
					<line class="st8" x1="600.6" y1="103.4" x2="600.6" y2="126.3"/>
					<line class="st8" x1="594.7" y1="103.4" x2="594.7" y2="126.3"/>
					<line class="st8" x1="589.2" y1="103.4" x2="589.2" y2="126.3"/>
					<line class="st8" x1="583.3" y1="103.4" x2="583.3" y2="126.3"/>
					<line class="st8" x1="577.8" y1="103.4" x2="577.8" y2="126.3"/>
					<line class="st8" x1="571.9" y1="103.4" x2="571.9" y2="126.3"/>
					<line class="st8" x1="571.9" y1="126.3" x2="600.6" y2="126.3"/>
					<line class="st8" x1="629.3" y1="103.4" x2="629.3" y2="126.3"/>
				</g>
			</g>
			<g>
				
					<rect x="840.8" y="86.2" transform="matrix(-1.345092e-10 -1 1 -1.345092e-10 737.4042 967.0975)" class="st7" width="22.9" height="57.3"/>
				<g>
					<line class="st8" x1="852.3" y1="126.3" x2="880.9" y2="126.3"/>
					<line class="st8" x1="852.3" y1="126.3" x2="852.3" y2="103.4"/>
					<line class="st8" x1="823.7" y1="126.3" x2="823.7" y2="103.4"/>
					<line class="st8" x1="858.1" y1="126.3" x2="858.1" y2="103.4"/>
					<line class="st8" x1="863.7" y1="126.3" x2="863.7" y2="103.4"/>
					<line class="st8" x1="869.5" y1="126.3" x2="869.5" y2="103.4"/>
					<line class="st8" x1="875.1" y1="126.3" x2="875.1" y2="103.4"/>
					<line class="st8" x1="880.9" y1="126.3" x2="880.9" y2="103.4"/>
					<line class="st8" x1="880.9" y1="103.4" x2="823.6" y2="103.4"/>
				</g>
			</g>
			<g>
				
					<rect x="732" y="239.1" transform="matrix(-1.224948e-10 -1 1 -1.224948e-10 479.7421 1004.873)" class="st7" width="20.6" height="47"/>
				<g>
					<line class="st8" x1="718.8" y1="272.8" x2="765.8" y2="272.8"/>
					<line class="st8" x1="742.3" y1="272.8" x2="742.3" y2="252.3"/>
					<line class="st8" x1="718.9" y1="272.8" x2="718.9" y2="252.3"/>
					<line class="st8" x1="747.1" y1="272.8" x2="747.1" y2="252.3"/>
					<line class="st8" x1="751.7" y1="272.8" x2="751.7" y2="252.3"/>
					<line class="st8" x1="756.4" y1="272.8" x2="756.4" y2="252.3"/>
					<line class="st8" x1="761" y1="272.8" x2="761" y2="252.3"/>
					<line class="st8" x1="765.8" y1="272.8" x2="765.8" y2="252.3"/>
					<line class="st8" x1="765.8" y1="252.3" x2="742.3" y2="252.3"/>
				</g>
			</g>
			<g>
				
					<rect x="249.2" y="239.1" transform="matrix(-1.225837e-10 -1 1 -1.225837e-10 -3.0822 522.0488)" class="st7" width="20.6" height="47"/>
				<g>
					<line class="st8" x1="236" y1="272.8" x2="283" y2="272.8"/>
					<line class="st8" x1="259.5" y1="272.8" x2="259.5" y2="252.3"/>
					<line class="st8" x1="236.2" y1="272.8" x2="236.2" y2="252.3"/>
					<line class="st8" x1="264.3" y1="272.8" x2="264.3" y2="252.3"/>
					<line class="st8" x1="268.8" y1="272.8" x2="268.8" y2="252.3"/>
					<line class="st8" x1="273.6" y1="272.8" x2="273.6" y2="252.3"/>
					<line class="st8" x1="278.2" y1="272.8" x2="278.2" y2="252.3"/>
					<line class="st8" x1="283" y1="272.8" x2="283" y2="252.3"/>
					<line class="st8" x1="283" y1="252.3" x2="259.5" y2="252.3"/>
				</g>
			</g>
			<g>
				
					<rect x="1063" y="239.1" transform="matrix(-1.225837e-10 -1 1 -1.225837e-10 810.7656 1335.8966)" class="st7" width="20.6" height="47"/>
				<g>
					<line class="st8" x1="1049.8" y1="272.8" x2="1096.8" y2="272.8"/>
					<line class="st8" x1="1073.3" y1="272.8" x2="1073.3" y2="252.3"/>
					<line class="st8" x1="1050" y1="272.8" x2="1050" y2="252.3"/>
					<line class="st8" x1="1078.1" y1="272.8" x2="1078.1" y2="252.3"/>
					<line class="st8" x1="1082.7" y1="272.8" x2="1082.7" y2="252.3"/>
					<line class="st8" x1="1087.5" y1="272.8" x2="1087.5" y2="252.3"/>
					<line class="st8" x1="1092" y1="272.8" x2="1092" y2="252.3"/>
					<line class="st8" x1="1096.8" y1="272.8" x2="1096.8" y2="252.3"/>
					<line class="st8" x1="1096.8" y1="252.3" x2="1073.3" y2="252.3"/>
				</g>
			</g>
			<g>
				<rect x="347.8" y="403.3" class="st7" width="24.4" height="64.1"/>
				<polyline class="st8" points="372.2,467.4 347.8,467.4 347.8,403.3 372.2,403.3 372.2,467.4 				"/>
				<line class="st8" x1="347.8" y1="467.4" x2="372.2" y2="467.4"/>
				<line class="st8" x1="347.8" y1="459.3" x2="372.2" y2="459.3"/>
				<line class="st8" x1="347.8" y1="451.5" x2="372.2" y2="451.5"/>
				<line class="st8" x1="347.8" y1="443.3" x2="372.2" y2="443.3"/>
				<line class="st8" x1="347.8" y1="435.5" x2="372.2" y2="435.5"/>
				<line class="st8" x1="347.8" y1="427.4" x2="372.2" y2="427.4"/>
				<line class="st8" x1="347.8" y1="419.2" x2="372.2" y2="419.2"/>
				<line class="st8" x1="347.8" y1="411.4" x2="372.2" y2="411.4"/>
			</g>
			<g>
				<rect x="1079.1" y="403.3" class="st7" width="24.4" height="64.1"/>
				<polyline class="st8" points="1103.5,467.4 1079.1,467.4 1079.1,403.3 1103.5,403.3 1103.5,467.4 				"/>
				<line class="st8" x1="1079.1" y1="467.4" x2="1103.5" y2="467.4"/>
				<line class="st8" x1="1079.1" y1="459.3" x2="1103.5" y2="459.3"/>
				<line class="st8" x1="1079.1" y1="451.5" x2="1103.5" y2="451.5"/>
				<line class="st8" x1="1079.1" y1="443.3" x2="1103.5" y2="443.3"/>
				<line class="st8" x1="1079.1" y1="435.5" x2="1103.5" y2="435.5"/>
				<line class="st8" x1="1079.1" y1="427.4" x2="1103.5" y2="427.4"/>
				<line class="st8" x1="1079.1" y1="419.2" x2="1103.5" y2="419.2"/>
				<line class="st8" x1="1079.1" y1="411.4" x2="1103.5" y2="411.4"/>
			</g>
			<g>
				<rect x="1422.9" y="334.6" class="st7" width="25.3" height="57.5"/>
				<polyline class="st8" points="1448.2,392.1 1422.9,392.1 1422.9,334.6 1448.2,334.6 1448.2,392.1 				"/>
				<line class="st8" x1="1422.9" y1="392.1" x2="1448.2" y2="392.1"/>
				<line class="st8" x1="1422.9" y1="384.8" x2="1448.2" y2="384.8"/>
				<line class="st8" x1="1422.9" y1="377.8" x2="1448.2" y2="377.8"/>
				<line class="st8" x1="1422.9" y1="370.5" x2="1448.2" y2="370.5"/>
				<line class="st8" x1="1422.9" y1="363.5" x2="1448.2" y2="363.5"/>
				<line class="st8" x1="1422.9" y1="356.2" x2="1448.2" y2="356.2"/>
				<line class="st8" x1="1422.9" y1="348.9" x2="1448.2" y2="348.9"/>
				<line class="st8" x1="1422.9" y1="341.9" x2="1448.2" y2="341.9"/>
			</g>
			<g>
				<rect x="1291.5" y="76.7" class="st7" width="25.3" height="25.2"/>
				<polyline class="st8" points="1316.7,101.9 1291.5,101.9 1291.5,76.7 1316.7,76.7 1316.7,101.9 				"/>
				<line class="st8" x1="1291.5" y1="101.9" x2="1316.7" y2="101.9"/>
				<line class="st8" x1="1291.5" y1="95.5" x2="1316.7" y2="95.5"/>
				<line class="st8" x1="1291.5" y1="89.3" x2="1316.7" y2="89.3"/>
				<line class="st8" x1="1291.5" y1="82.8" x2="1316.7" y2="82.8"/>
			</g>
			<g>
				<rect x="1375.9" y="76.7" class="st7" width="25.3" height="25.2"/>
				<polyline class="st8" points="1401.2,101.9 1375.9,101.9 1375.9,76.7 1401.2,76.7 1401.2,101.9 				"/>
				<line class="st8" x1="1375.9" y1="101.9" x2="1401.2" y2="101.9"/>
				<line class="st8" x1="1375.9" y1="95.5" x2="1401.2" y2="95.5"/>
				<line class="st8" x1="1375.9" y1="89.3" x2="1401.2" y2="89.3"/>
				<line class="st8" x1="1375.9" y1="82.8" x2="1401.2" y2="82.8"/>
			</g>
			<g>
				<rect x="1450.2" y="76.7" class="st7" width="25.3" height="25.2"/>
				<polyline class="st8" points="1475.5,101.9 1450.2,101.9 1450.2,76.7 1475.5,76.7 1475.5,101.9 				"/>
				<line class="st8" x1="1450.2" y1="101.9" x2="1475.5" y2="101.9"/>
				<line class="st8" x1="1450.2" y1="95.5" x2="1475.5" y2="95.5"/>
				<line class="st8" x1="1450.2" y1="89.3" x2="1475.5" y2="89.3"/>
				<line class="st8" x1="1450.2" y1="82.8" x2="1475.5" y2="82.8"/>
			</g>
			<rect x="256.2" y="504.1" class="st8" width="30" height="23.7"/>
			<rect x="433.1" y="504.1" class="st8" width="30" height="23.7"/>
			<rect x="602.7" y="504.1" class="st8" width="30" height="23.7"/>
			<g>
				<path class="st5" d="M627.5,410.1v49.2h38.4v-49.2H627.5z M663.8,457h-34.2v-42.7h34.2V457z"/>
			</g>
			<rect x="752.2" y="504.1" class="st8" width="30" height="23.7"/>
			<rect x="937.7" y="504.1" class="st8" width="30" height="23.7"/>
			<rect x="1093.1" y="504.1" class="st8" width="30" height="23.7"/>
			<polyline class="st8" points="628.4,457.5 635.9,421 664.7,413.6 			"/>
			<g>
				<path class="st5" d="M785.8,410.1v49.2h38.4v-49.2H785.8z M822.1,457h-34.2v-42.7h34.2V457z"/>
			</g>
			<polyline class="st8" points="786.8,457.5 794.2,421 823,413.6 			"/>
			<polyline class="st8" points="1248.3,509.1 1486.3,509.1 1486.3,208.5 			"/>
			<polyline class="st8" points="187.9,206.6 82,206.6 82,532.7 1237.8,532.7 			"/>
			<polyline class="st8" points="205.8,212.5 205.8,252 1232,252 			"/>
			<line class="st8" x1="1231.3" y1="228.8" x2="206.1" y2="228.8"/>
			<line class="st8" x1="598.1" y1="198.4" x2="598.1" y2="228.8"/>
			<line class="st8" x1="853.2" y1="198.4" x2="853.2" y2="228.5"/>
			<line class="st8" x1="1361.9" y1="334.3" x2="1390.8" y2="334.3"/>
			<line class="st8" x1="1508.8" y1="101.9" x2="1248.3" y2="101.9"/>
			<circle class="st8" cx="299" cy="317.9" r="44.1"/>
			<circle class="st8" cx="299" cy="317.9" r="38.8"/>
			<circle class="st8" cx="299" cy="317.9" r="21.5"/>
			<circle class="st8" cx="471.3" cy="317.9" r="44.1"/>
			<circle class="st8" cx="471.3" cy="317.9" r="38.8"/>
			<circle class="st8" cx="471.3" cy="317.9" r="21.5"/>
			<circle class="st8" cx="640.4" cy="317.9" r="44.1"/>
			<circle class="st8" cx="640.4" cy="317.9" r="38.8"/>
			<circle class="st8" cx="640.4" cy="317.9" r="21.5"/>
			<circle class="st8" cx="809.2" cy="317.9" r="44.1"/>
			<circle class="st8" cx="809.2" cy="317.9" r="38.8"/>
			<circle class="st8" cx="809.2" cy="317.9" r="21.5"/>
			<circle class="st8" cx="809.2" cy="317.9" r="4.8"/>
			<circle class="st8" cx="979.9" cy="317.9" r="44.1"/>
			<circle class="st8" cx="979.9" cy="317.9" r="38.8"/>
			<circle class="st8" cx="979.9" cy="317.9" r="21.5"/>
			<circle class="st8" cx="979.9" cy="317.9" r="4.8"/>
			<circle class="st8" cx="1149.1" cy="317.9" r="44.1"/>
			<circle class="st8" cx="1149.1" cy="317.9" r="38.8"/>
			<circle class="st8" cx="1149.1" cy="317.9" r="21.5"/>
			<circle class="st8" cx="1149.1" cy="317.9" r="4.8"/>
		</g>
	</g>
	<g>
		<rect x="71.9" y="563.7" class="st0" width="869.7" height="270.3"/>
		<path class="st1" d="M931.2,573.5l-848.6-0.2v251.2h848.6L931.2,573.5z"/>
		<g>
			<defs>
				<path id="SVGID_3_" d="M929,574.5l-848.9,0.1v251.2h849L929,574.5z"/>
			</defs>
			<clipPath id="SVGID_4_">
				<use xlink:href="#SVGID_3_"  style="overflow:visible;"/>
			</clipPath>
			<g class="st9">
				<g class="st3">
					<line class="st4" x1="116" y1="374.1" x2="116" y2="942.4"/>
					<line class="st4" x1="130.5" y1="374.1" x2="130.5" y2="942.4"/>
					<line class="st4" x1="101.6" y1="374.1" x2="101.6" y2="942.4"/>
					<line class="st4" x1="87.1" y1="374.1" x2="87.1" y2="942.4"/>
					<line class="st4" x1="72.7" y1="374.1" x2="72.7" y2="942.4"/>
					<line class="st4" x1="58.2" y1="374.1" x2="58.2" y2="942.4"/>
					<line class="st4" x1="43.8" y1="374.1" x2="43.8" y2="942.4"/>
					<line class="st4" x1="29.3" y1="374.1" x2="29.3" y2="942.4"/>
					<line class="st4" x1="14.8" y1="374.1" x2="14.8" y2="942.4"/>
					<line class="st4" x1="0.4" y1="374.1" x2="0.4" y2="942.4"/>
					<line class="st4" x1="-14.1" y1="374.1" x2="-14.1" y2="942.4"/>
					<line class="st4" x1="-28.5" y1="374.1" x2="-28.5" y2="942.4"/>
					<line class="st4" x1="-43" y1="374.1" x2="-43" y2="942.4"/>
					<line class="st4" x1="-57.4" y1="374.1" x2="-57.4" y2="942.4"/>
					<line class="st4" x1="-71.9" y1="374.1" x2="-71.9" y2="942.4"/>
					<line class="st4" x1="144.9" y1="374.1" x2="144.9" y2="942.4"/>
					<line class="st4" x1="159.4" y1="374.1" x2="159.4" y2="942.4"/>
					<line class="st4" x1="173.9" y1="374.1" x2="173.9" y2="942.4"/>
					<line class="st4" x1="188.3" y1="374.1" x2="188.3" y2="942.4"/>
					<line class="st4" x1="202.8" y1="374.1" x2="202.8" y2="942.4"/>
					<line class="st4" x1="217.2" y1="374.1" x2="217.2" y2="942.4"/>
					<line class="st4" x1="231.7" y1="374.1" x2="231.7" y2="942.4"/>
					<line class="st4" x1="246.1" y1="374.1" x2="246.1" y2="942.4"/>
					<line class="st4" x1="260.6" y1="374.1" x2="260.6" y2="942.4"/>
					<line class="st4" x1="275" y1="374.1" x2="275" y2="942.4"/>
					<line class="st4" x1="289.5" y1="374.1" x2="289.5" y2="942.4"/>
					<line class="st4" x1="304" y1="374.1" x2="304" y2="942.4"/>
					<line class="st4" x1="318.4" y1="374.1" x2="318.4" y2="942.4"/>
					<line class="st4" x1="332.9" y1="374.1" x2="332.9" y2="942.4"/>
					<line class="st4" x1="347.3" y1="374.1" x2="347.3" y2="942.4"/>
					<line class="st4" x1="361.8" y1="374.1" x2="361.8" y2="942.4"/>
					<line class="st4" x1="564.2" y1="374.1" x2="564.2" y2="942.4"/>
					<line class="st4" x1="578.6" y1="374.1" x2="578.6" y2="942.4"/>
					<line class="st4" x1="549.7" y1="374.1" x2="549.7" y2="942.4"/>
					<line class="st4" x1="535.3" y1="374.1" x2="535.3" y2="942.4"/>
					<line class="st4" x1="520.8" y1="374.1" x2="520.8" y2="942.4"/>
					<line class="st4" x1="506.3" y1="374.1" x2="506.3" y2="942.4"/>
					<line class="st4" x1="491.9" y1="374.1" x2="491.9" y2="942.4"/>
					<line class="st4" x1="477.4" y1="374.1" x2="477.4" y2="942.4"/>
					<line class="st4" x1="463" y1="374.1" x2="463" y2="942.4"/>
					<line class="st4" x1="448.5" y1="374.1" x2="448.5" y2="942.4"/>
					<line class="st4" x1="434.1" y1="374.1" x2="434.1" y2="942.4"/>
					<line class="st4" x1="419.6" y1="374.1" x2="419.6" y2="942.4"/>
					<line class="st4" x1="405.2" y1="374.1" x2="405.2" y2="942.4"/>
					<line class="st4" x1="390.7" y1="374.1" x2="390.7" y2="942.4"/>
					<line class="st4" x1="376.2" y1="374.1" x2="376.2" y2="942.4"/>
					<line class="st4" x1="593.1" y1="374.1" x2="593.1" y2="942.4"/>
					<line class="st4" x1="607.5" y1="374.1" x2="607.5" y2="942.4"/>
					<line class="st4" x1="622" y1="374.1" x2="622" y2="942.4"/>
					<line class="st4" x1="636.4" y1="374.1" x2="636.4" y2="942.4"/>
					<line class="st4" x1="650.9" y1="374.1" x2="650.9" y2="942.4"/>
					<line class="st4" x1="665.4" y1="374.1" x2="665.4" y2="942.4"/>
					<line class="st4" x1="679.8" y1="374.1" x2="679.8" y2="942.4"/>
					<line class="st4" x1="694.3" y1="374.1" x2="694.3" y2="942.4"/>
					<line class="st4" x1="708.7" y1="374.1" x2="708.7" y2="942.4"/>
					<line class="st4" x1="723.2" y1="374.1" x2="723.2" y2="942.4"/>
					<line class="st4" x1="737.6" y1="374.1" x2="737.6" y2="942.4"/>
					<line class="st4" x1="752.1" y1="374.1" x2="752.1" y2="942.4"/>
					<line class="st4" x1="766.6" y1="374.1" x2="766.6" y2="942.4"/>
					<line class="st4" x1="781" y1="374.1" x2="781" y2="942.4"/>
					<line class="st4" x1="795.5" y1="374.1" x2="795.5" y2="942.4"/>
					<line class="st4" x1="809.9" y1="374.1" x2="809.9" y2="942.4"/>
					<line class="st4" x1="1012.3" y1="374.1" x2="1012.3" y2="942.4"/>
					<line class="st4" x1="1026.8" y1="374.1" x2="1026.8" y2="942.4"/>
					<line class="st4" x1="997.8" y1="374.1" x2="997.8" y2="942.4"/>
					<line class="st4" x1="983.4" y1="374.1" x2="983.4" y2="942.4"/>
					<line class="st4" x1="968.9" y1="374.1" x2="968.9" y2="942.4"/>
					<line class="st4" x1="954.5" y1="374.1" x2="954.5" y2="942.4"/>
					<line class="st4" x1="940" y1="374.1" x2="940" y2="942.4"/>
					<line class="st4" x1="925.6" y1="374.1" x2="925.6" y2="942.4"/>
					<line class="st4" x1="911.1" y1="374.1" x2="911.1" y2="942.4"/>
					<line class="st4" x1="896.7" y1="374.1" x2="896.7" y2="942.4"/>
					<line class="st4" x1="882.2" y1="374.1" x2="882.2" y2="942.4"/>
					<line class="st4" x1="867.7" y1="374.1" x2="867.7" y2="942.4"/>
					<line class="st4" x1="853.3" y1="374.1" x2="853.3" y2="942.4"/>
					<line class="st4" x1="838.8" y1="374.1" x2="838.8" y2="942.4"/>
					<line class="st4" x1="824.4" y1="374.1" x2="824.4" y2="942.4"/>
					<line class="st4" x1="1041.2" y1="374.1" x2="1041.2" y2="942.4"/>
					<line class="st4" x1="1055.7" y1="374.1" x2="1055.7" y2="942.4"/>
					<line class="st4" x1="1070.1" y1="374.1" x2="1070.1" y2="942.4"/>
					<line class="st4" x1="1084.6" y1="374.1" x2="1084.6" y2="942.4"/>
					<line class="st4" x1="1099" y1="374.1" x2="1099" y2="942.4"/>
					<line class="st4" x1="1113.5" y1="374.1" x2="1113.5" y2="942.4"/>
					<line class="st4" x1="1127.9" y1="374.1" x2="1127.9" y2="942.4"/>
					<line class="st4" x1="1142.4" y1="374.1" x2="1142.4" y2="942.4"/>
					<line class="st4" x1="1156.9" y1="374.1" x2="1156.9" y2="942.4"/>
					<line class="st4" x1="1171.3" y1="374.1" x2="1171.3" y2="942.4"/>
					<line class="st4" x1="1185.8" y1="374.1" x2="1185.8" y2="942.4"/>
					<line class="st4" x1="1200.2" y1="374.1" x2="1200.2" y2="942.4"/>
					<line class="st4" x1="1214.7" y1="374.1" x2="1214.7" y2="942.4"/>
					<line class="st4" x1="1229.1" y1="374.1" x2="1229.1" y2="942.4"/>
					<line class="st4" x1="1243.6" y1="374.1" x2="1243.6" y2="942.4"/>
					<line class="st4" x1="1258.1" y1="374.1" x2="1258.1" y2="942.4"/>
				</g>
				<g class="st3">
					<line class="st4" x1="1184.8" y1="578" x2="-31.1" y2="578"/>
					<line class="st4" x1="1184.8" y1="591" x2="-31.1" y2="591"/>
					<line class="st4" x1="1184.8" y1="565.1" x2="-31.1" y2="565.1"/>
					<line class="st4" x1="1184.8" y1="552.1" x2="-31.1" y2="552.1"/>
					<line class="st4" x1="1184.8" y1="539.2" x2="-31.1" y2="539.2"/>
					<line class="st4" x1="1184.8" y1="526.3" x2="-31.1" y2="526.3"/>
					<line class="st4" x1="1184.8" y1="513.3" x2="-31.1" y2="513.3"/>
					<line class="st4" x1="1184.8" y1="500.4" x2="-31.1" y2="500.4"/>
					<line class="st4" x1="1184.8" y1="487.4" x2="-31.1" y2="487.4"/>
					<line class="st4" x1="1184.8" y1="474.5" x2="-31.1" y2="474.5"/>
					<line class="st4" x1="1184.8" y1="461.5" x2="-31.1" y2="461.5"/>
					<line class="st4" x1="1184.8" y1="448.6" x2="-31.1" y2="448.6"/>
					<line class="st4" x1="1184.8" y1="435.6" x2="-31.1" y2="435.6"/>
					<line class="st4" x1="1184.8" y1="422.7" x2="-31.1" y2="422.7"/>
					<line class="st4" x1="1184.8" y1="409.7" x2="-31.1" y2="409.7"/>
					<line class="st4" x1="1184.8" y1="603.9" x2="-31.1" y2="603.9"/>
					<line class="st4" x1="1184.8" y1="616.9" x2="-31.1" y2="616.9"/>
					<line class="st4" x1="1184.8" y1="629.8" x2="-31.1" y2="629.8"/>
					<line class="st4" x1="1184.8" y1="642.8" x2="-31.1" y2="642.8"/>
					<line class="st4" x1="1184.8" y1="655.7" x2="-31.1" y2="655.7"/>
					<line class="st4" x1="1184.8" y1="668.7" x2="-31.1" y2="668.7"/>
					<line class="st4" x1="1184.8" y1="681.6" x2="-31.1" y2="681.6"/>
					<line class="st4" x1="1184.8" y1="694.5" x2="-31.1" y2="694.5"/>
					<line class="st4" x1="1184.8" y1="707.5" x2="-31.1" y2="707.5"/>
					<line class="st4" x1="1184.8" y1="720.4" x2="-31.1" y2="720.4"/>
					<line class="st4" x1="1184.8" y1="733.4" x2="-31.1" y2="733.4"/>
					<line class="st4" x1="1184.8" y1="746.3" x2="-31.1" y2="746.3"/>
					<line class="st4" x1="1184.8" y1="759.3" x2="-31.1" y2="759.3"/>
					<line class="st4" x1="1184.8" y1="772.2" x2="-31.1" y2="772.2"/>
					<line class="st4" x1="1184.8" y1="785.2" x2="-31.1" y2="785.2"/>
					<line class="st4" x1="1184.8" y1="798.1" x2="-31.1" y2="798.1"/>
					<line class="st4" x1="1184.8" y1="914.6" x2="-31.1" y2="914.6"/>
					<line class="st4" x1="1184.8" y1="901.7" x2="-31.1" y2="901.7"/>
					<line class="st4" x1="1184.8" y1="888.7" x2="-31.1" y2="888.7"/>
					<line class="st4" x1="1184.8" y1="875.8" x2="-31.1" y2="875.8"/>
					<line class="st4" x1="1184.8" y1="862.8" x2="-31.1" y2="862.8"/>
					<line class="st4" x1="1184.8" y1="849.9" x2="-31.1" y2="849.9"/>
					<line class="st4" x1="1184.8" y1="836.9" x2="-31.1" y2="836.9"/>
					<line class="st4" x1="1184.8" y1="824" x2="-31.1" y2="824"/>
					<line class="st4" x1="1184.8" y1="811" x2="-31.1" y2="811"/>
				</g>
			</g>
		</g>
		<g>
			<rect x="928.4" y="574.8" class="st5" width="4.9" height="251"/>
			
				<rect x="504.3" y="147.5" transform="matrix(4.501597e-10 1 -1 4.501597e-10 1080.752 67.2918)" class="st5" width="4.9" height="853.1"/>
			<rect x="926.1" y="806" class="st5" width="7.1" height="19.8"/>
			<rect x="80.2" y="572.4" class="st5" width="4.9" height="253.4"/>
			<rect x="228" y="572.4" class="st5" width="4.9" height="172.4"/>
			<rect x="368" y="572.4" class="st5" width="4.9" height="172.4"/>
			<rect x="507.9" y="572.4" class="st5" width="4.9" height="172.4"/>
			<rect x="647.9" y="572.4" class="st5" width="4.9" height="172.4"/>
			<rect x="787.9" y="572.4" class="st5" width="4.9" height="172.4"/>
			<rect x="228" y="771.9" class="st5" width="4.9" height="53.4"/>
			<rect x="368" y="771.9" class="st5" width="4.9" height="53.4"/>
			<rect x="507.9" y="771.9" class="st5" width="4.9" height="53.4"/>
			<rect x="647.9" y="771.9" class="st5" width="4.9" height="53.4"/>
			<rect x="787.9" y="771.9" class="st5" width="4.9" height="53.4"/>
			
				<rect x="504.3" y="396.9" transform="matrix(1.269845e-09 1 -1 1.269845e-09 1330.1361 316.6758)" class="st5" width="4.9" height="853.1"/>
			<g>
				
					<rect x="177.9" y="783.8" transform="matrix(-1.346975e-10 -1 1 -1.346975e-10 -622.3776 998.2733)" class="st7" width="20.2" height="53"/>
				<polyline class="st8" points="214.5,800.3 214.5,820.4 161.4,820.4 161.4,800.3 214.5,800.3 				"/>
				<line class="st8" x1="214.5" y1="820.4" x2="214.5" y2="800.3"/>
				<line class="st8" x1="194.5" y1="820.4" x2="194.5" y2="800.3"/>
				<line class="st8" x1="188.1" y1="820.4" x2="188.1" y2="800.3"/>
				<line class="st8" x1="181.4" y1="820.4" x2="181.4" y2="800.3"/>
				<line class="st8" x1="174.6" y1="820.4" x2="174.6" y2="800.3"/>
				<line class="st8" x1="168.2" y1="820.4" x2="168.2" y2="800.3"/>
			</g>
			<g>
				
					<rect x="827.3" y="783.8" transform="matrix(4.489901e-11 1 -1 4.489901e-11 1647.7578 -27.1071)" class="st7" width="20.2" height="53"/>
				<polyline class="st8" points="810.9,820.4 810.9,800.2 863.9,800.2 863.9,820.4 810.9,820.4 				"/>
				<line class="st8" x1="810.9" y1="800.2" x2="810.9" y2="820.4"/>
				<path class="st8" d="M817.7,820.4"/>
				<path class="st8" d="M817.7,800.2"/>
				<path class="st8" d="M824.1,820.4"/>
				<path class="st8" d="M824.1,800.2"/>
				<line class="st8" x1="830.8" y1="800.2" x2="830.8" y2="820.4"/>
				<line class="st8" x1="837.3" y1="800.2" x2="837.3" y2="820.4"/>
				<line class="st8" x1="844" y1="800.2" x2="844" y2="820.4"/>
				<line class="st8" x1="850.8" y1="800.2" x2="850.8" y2="820.4"/>
				<line class="st8" x1="857.2" y1="800.2" x2="857.2" y2="820.4"/>
			</g>
			<g>
				
					<rect x="810.9" y="767.2" transform="matrix(-1 8.979782e-11 -8.979782e-11 -1 1642.0166 1567.4027)" class="st7" width="20.2" height="33.1"/>
				<polyline class="st8" points="810.9,767.2 831.1,767.2 831.1,800.2 810.9,800.2 810.9,767.2 				"/>
				<line class="st8" x1="831.1" y1="767.2" x2="810.9" y2="767.2"/>
				<line class="st8" x1="831.1" y1="773.6" x2="810.9" y2="773.6"/>
				<line class="st8" x1="831.1" y1="780.3" x2="810.9" y2="780.3"/>
				<line class="st8" x1="831.1" y1="787.1" x2="810.9" y2="787.1"/>
				<line class="st8" x1="831.1" y1="793.5" x2="810.9" y2="793.5"/>
			</g>
			<g>
				
					<rect x="194.5" y="766.2" transform="matrix(-1 8.979782e-11 -8.979782e-11 -1 409.2504 1566.4027)" class="st7" width="20.2" height="34.1"/>
				<polyline class="st8" points="194.6,766.2 214.7,766.2 214.7,800.2 194.6,800.2 194.6,766.2 				"/>
				<line class="st8" x1="214.7" y1="766.2" x2="194.6" y2="766.2"/>
				<line class="st8" x1="214.7" y1="773.6" x2="194.6" y2="773.6"/>
				<line class="st8" x1="214.7" y1="780.3" x2="194.6" y2="780.3"/>
				<line class="st8" x1="214.7" y1="787.1" x2="194.6" y2="787.1"/>
				<line class="st8" x1="214.7" y1="793.5" x2="194.6" y2="793.5"/>
			</g>
			<circle class="st8" cx="157.2" cy="648.3" r="36.4"/>
			<circle class="st8" cx="157.2" cy="648.3" r="32"/>
			<circle class="st8" cx="157.2" cy="648.3" r="17.7"/>
			<circle class="st8" cx="299.7" cy="648.3" r="36.4"/>
			<circle class="st8" cx="299.7" cy="648.3" r="32"/>
			<circle class="st8" cx="299.7" cy="648.3" r="17.7"/>
			<circle class="st8" cx="439.5" cy="648.3" r="36.4"/>
			<circle class="st8" cx="439.5" cy="648.3" r="32"/>
			<circle class="st8" cx="439.5" cy="648.3" r="17.7"/>
			<circle class="st8" cx="579" cy="648.3" r="36.4"/>
			<circle class="st8" cx="579" cy="648.3" r="32"/>
			<circle class="st8" cx="579" cy="648.3" r="17.7"/>
			<circle class="st8" cx="579" cy="648.3" r="4"/>
			<circle class="st8" cx="720.1" cy="648.3" r="36.4"/>
			<circle class="st8" cx="720.1" cy="648.3" r="32"/>
			<circle class="st8" cx="720.1" cy="648.3" r="17.7"/>
			<circle class="st8" cx="720.1" cy="648.3" r="4"/>
			<circle class="st8" cx="860" cy="648.3" r="36.4"/>
			<circle class="st8" cx="860" cy="648.3" r="32"/>
			<circle class="st8" cx="860" cy="648.3" r="17.7"/>
			<circle class="st8" cx="860" cy="648.3" r="4"/>
		</g>
	</g>
	<g>
		<g>
			<path class="st10" d="M430.1,156.9H394c-5.3,0-9.6-4.3-9.6-9.6v0c0-5.3,4.3-9.6,9.6-9.6h36.1c5.3,0,9.6,4.3,9.6,9.6v0
				C439.7,152.6,435.4,156.9,430.1,156.9z"/>
			<g>
				<path class="st7" d="M404.1,151.8c0-0.4-0.1-0.7-0.2-1c-0.2,0.5-0.5,0.9-0.8,1.2c-0.1-0.1-0.3-0.3-0.8-0.7
					c-0.1,0.2-0.3,0.4-0.5,0.5c-0.2,0.1-0.6,0.1-1.2,0.1c0-0.3-0.1-0.6-0.2-0.9c-0.1,0.4-0.3,0.8-0.5,1.1c-0.2-0.4-0.5-0.8-0.7-1.2
					c0.2-0.3,0.3-0.7,0.5-1.1c0.1-0.4,0.2-0.8,0.2-1.3c0-0.4,0.1-1.2,0.1-2.2h-0.6v0.4c0,2.2-0.3,4-0.9,5.4
					c-0.2-0.4-0.5-0.8-0.8-1.3c0.4-1,0.6-2.4,0.6-4.3v-3h4.6v1.1h-3.5v0.6h3.2v1.1h-1.5c0,0.4,0,0.7,0,0.9h1.5c0,1.8-0.1,3-0.1,3.7
					c0.7-1,1.1-2.6,1.1-4.8H403v-1.2h0.6c0-0.5,0-1,0-1.7h1.1l0,1.7h1.7l0,3.5l0,2.1c0,0.4-0.1,0.7-0.3,0.9
					c-0.2,0.2-0.4,0.4-0.6,0.4C405.2,151.7,404.7,151.8,404.1,151.8z M400.6,150.7c0.1,0,0.2,0,0.4,0c0.2,0,0.4-0.1,0.4-0.3
					c0-0.2,0.1-0.9,0.1-2.3h-0.5C401,149.1,400.8,149.9,400.6,150.7z M404,150.5c0.2,0,0.4,0,0.7,0c0.1,0,0.2,0,0.3-0.1
					s0.1-0.2,0.1-0.3c0-0.1,0-0.6,0.1-1.3c0-0.7,0-1.7,0-2.8h-0.6C404.6,147.9,404.4,149.5,404,150.5z"/>
				<path class="st7" d="M407.1,143.9h3.1v0.6h1.3c-0.2-0.4-0.4-0.7-0.6-1l0.9-0.5c0.2,0.2,0.5,0.6,0.9,1.1l-0.7,0.4h1.2
					c0.4-0.5,0.7-1,1-1.5l1.1,0.6c-0.2,0.3-0.5,0.6-0.7,0.9h1.5v1.2h-1.3c-0.3,0.7-0.5,1.3-0.8,1.9c0.1,0,0.3,0,0.4,0
					c0.1-0.3,0.3-0.7,0.5-1.1l1,0.3c-0.4,0.8-0.8,1.6-1.2,2.4l0.8-0.2c0.1,0.5,0.3,1.4,0.6,2.6l-0.9,0.2c0-0.2-0.1-0.4-0.1-0.6
					c-0.6,0-1.2,0.1-1.7,0.2l-0.3-0.9c0.3-0.2,0.6-0.9,1.1-2c-0.4,0-0.7,0.1-0.9,0.1l-0.3-0.8c0.3-0.3,0.6-1,0.9-2H412
					c-0.3,0.7-0.6,1.3-0.9,1.8c0.2,0,0.3,0,0.4,0c0.2-0.4,0.3-0.7,0.5-1.2l1,0.4c-0.4,0.8-0.8,1.7-1.3,2.6l0.8-0.1
					c0,0.2,0.2,1.1,0.4,2.5l-0.9,0.1c0-0.2-0.1-0.4-0.1-0.6c-0.7,0.1-1.3,0.2-1.7,0.2l-0.4-1.1c0.2-0.1,0.6-0.8,1.2-2
					c-0.4,0-0.7,0.1-0.9,0.1l-0.3-0.8v4H409v-0.4h-0.6v0.5h-0.9v-3.1c-0.1,0.2-0.2,0.3-0.3,0.5c-0.1-0.9-0.2-1.4-0.2-1.7
					c0.3-0.6,0.6-1.4,0.9-2.4h-0.8V143.9z M409,150.2v-2.7h-0.6v2.7H409z M411,145.7h-0.9v-0.6H409c-0.2,0.5-0.3,1-0.5,1.5h1.4v1
					C410.2,147.3,410.6,146.7,411,145.7z M411.8,150.3c0-0.3-0.1-0.6-0.1-0.9c-0.2,0.3-0.4,0.7-0.5,1
					C411.4,150.4,411.7,150.3,411.8,150.3z M414.5,149.3c-0.2,0.4-0.4,0.7-0.6,1c0.2,0,0.4,0,0.8-0.1
					C414.6,149.9,414.6,149.6,414.5,149.3z"/>
				<path class="st7" d="M423.5,145.4v1h-0.8c0.6,0.4,1.3,0.8,2.1,1.3l-0.7,0.8c-0.2-0.1-0.4-0.3-0.6-0.4c-0.8,0-1.5,0-2.2,0.1v0.6
					h3v1.1h-3v0.6h3.6v1.1h-8.5v-1.1h3.6v-0.6h-3v-1.1h3v-0.6c-1.2,0-2.1,0.1-2.6,0.2l-0.4-0.9c0.5-0.2,1-0.6,1.7-1h-0.9v-1H423.5z
					 M416.4,146v-2.2h3.5c-0.1-0.3-0.2-0.5-0.3-0.7l1.6-0.2c0.1,0.2,0.2,0.5,0.3,0.8h3.3v2.2h-1.1v-1.1h-6.2v1.1H416.4z
					 M421.4,146.7l0.4-0.3h-1.4c-0.4,0.3-0.9,0.6-1.3,0.9c1,0,2-0.1,3.1-0.1C422,147,421.7,146.8,421.4,146.7z"/>
			</g>
		</g>
		<g>
			<path class="st10" d="M141.6,239.7h-36.1c-5.3,0-9.6-4.3-9.6-9.6v0c0-5.3,4.3-9.6,9.6-9.6h36.1c5.3,0,9.6,4.3,9.6,9.6v0
				C151.2,235.4,146.9,239.7,141.6,239.7z"/>
			<g>
				<path class="st7" d="M111.4,231.4c-0.6,0.3-1.2,0.6-1.8,0.9c0.6,0.4,1.3,0.7,2,0.9c-0.2,0.2-0.4,0.6-0.8,1.2
					c-1.2-0.5-2.2-1.2-3-2.2v1.3c0,0.8-0.4,1.2-1.1,1.3c-0.5,0-0.9,0-1.3,0c-0.1-0.4-0.2-0.7-0.3-1.1c0.4,0,0.7,0,1,0
					c0.4,0,0.5-0.2,0.5-0.5v-2.8h-1.3v0.2h-1.2v-1.5c-0.3,0.2-0.6,0.4-0.9,0.6c-0.2-0.4-0.4-0.8-0.6-1.2c0.8-0.4,1.5-0.8,2.2-1.3
					h-1.9v-1h8.5v1h-5.1c-0.2,0.2-0.4,0.4-0.6,0.6h4.9v2.6h-2.7v0.1c0.3,0.4,0.5,0.7,0.9,1.1c0.7-0.4,1.4-0.8,1.9-1.2L111.4,231.4z
					 M103,231.8v-0.9h3.2v0.9c-0.6,1.1-1.5,2-2.8,2.6c-0.1-0.3-0.4-0.6-0.8-1.1c1-0.4,1.8-0.9,2.3-1.5H103z M109.4,229.5v-0.8h-4
					v0.8H109.4z"/>
				<path class="st7" d="M120.8,230.9h-4.2c0,0.2,0,0.3,0,0.5h3.4c0,0.5,0,1-0.1,1.6c0,0.6-0.2,1-0.4,1.2c-0.2,0.2-0.4,0.3-0.6,0.4
					c-0.2,0-0.8,0.1-1.8,0.1c-0.1-0.4-0.2-0.8-0.3-1.2c0.3,0,0.7,0,1,0c0.3,0,0.4,0,0.5-0.1c0.1,0,0.2-0.1,0.2-0.2
					c0-0.1,0.1-0.4,0.1-0.7h-2.3c-0.3,1-0.9,1.8-1.8,2.4c-0.2-0.2-0.5-0.5-1-0.9c1-0.6,1.6-1.5,1.7-2.9H114
					c-0.1,1.6-0.5,2.8-1.1,3.7l-1-1c0.6-0.8,0.9-2.1,0.9-3.8v-3.3h3.1c-0.1-0.2-0.2-0.4-0.3-0.6l1.5-0.2c0.1,0.2,0.2,0.5,0.3,0.8
					h2.9v2.7h-2.7c0.1,0.2,0.2,0.4,0.3,0.7h2.8V230.9z M119.1,228.3v-0.7h-5v0.7H119.1z M116.2,229.4l1.1-0.2H114v0.7h2.4
					C116.3,229.7,116.2,229.6,116.2,229.4z"/>
				<path class="st7" d="M124.3,231.4h-2.6v-1h2.6V231.4z"/>
				<path class="st7" d="M125.2,233h3.3v-7.1h1.5v2.5h3.3v1.3H130v3.3h3.9v1.3h-8.7V233z"/>
				<path class="st7" d="M135.1,226.2h7.6v2.7h-6.4c0,0.9,0,1.7-0.1,2.3h6.9v1H141c0.8,0.7,1.5,1.3,2,1.8l-0.9,0.7l-0.5-0.5
					c-2.9,0.1-4.5,0.2-4.9,0.3l-0.5-1c0.5-0.3,1-0.8,1.5-1.4h-1.6c-0.1,0.8-0.4,1.6-0.9,2.4c-0.4-0.4-0.7-0.8-1-1.1
					c0.3-0.4,0.4-0.9,0.6-1.5c0.1-0.6,0.2-1.6,0.2-3V226.2z M141.4,227.9v-0.7h-5.1v0.7H141.4z M136.8,229.6h5.8v1h-5.8V229.6z
					 M140,232.7l0.6-0.5h-1.4c-0.4,0.5-0.7,0.8-1,1.2l2.5-0.1L140,232.7z"/>
			</g>
		</g>
		<g>
			<path class="st10" d="M141.6,605.7h-36.1c-5.3,0-9.6-4.3-9.6-9.6l0,0c0-5.3,4.3-9.6,9.6-9.6h36.1c5.3,0,9.6,4.3,9.6,9.6l0,0
				C151.2,601.4,146.9,605.7,141.6,605.7z"/>
			<g>
				<path class="st7" d="M111.4,597.3c-0.6,0.3-1.2,0.6-1.8,0.9c0.6,0.4,1.3,0.7,2,0.9c-0.2,0.2-0.4,0.6-0.8,1.2
					c-1.2-0.5-2.2-1.2-3-2.2v1.3c0,0.8-0.4,1.2-1.1,1.3c-0.5,0-0.9,0-1.3,0c-0.1-0.4-0.2-0.7-0.3-1.1c0.4,0,0.7,0,1,0
					c0.4,0,0.5-0.2,0.5-0.5v-2.8h-1.3v0.2h-1.2v-1.5c-0.3,0.2-0.6,0.4-0.9,0.6c-0.2-0.4-0.4-0.8-0.6-1.2c0.8-0.4,1.5-0.8,2.2-1.3
					h-1.9v-1h8.5v1h-5.1c-0.2,0.2-0.4,0.4-0.6,0.6h4.9v2.6h-2.7v0.1c0.3,0.4,0.5,0.7,0.9,1.1c0.7-0.4,1.4-0.8,1.9-1.2L111.4,597.3z
					 M103,597.8v-0.9h3.2v0.9c-0.6,1.1-1.5,2-2.8,2.6c-0.1-0.3-0.4-0.6-0.8-1.1c1-0.4,1.8-0.9,2.3-1.5H103z M109.4,595.4v-0.8h-4
					v0.8H109.4z"/>
				<path class="st7" d="M120.8,596.9h-4.2c0,0.2,0,0.3,0,0.5h3.4c0,0.5,0,1-0.1,1.6s-0.2,1-0.4,1.2c-0.2,0.2-0.4,0.3-0.6,0.4
					c-0.2,0-0.8,0.1-1.8,0.1c-0.1-0.4-0.2-0.8-0.3-1.2c0.3,0,0.7,0,1,0c0.3,0,0.4,0,0.5-0.1c0.1,0,0.2-0.1,0.2-0.2
					c0-0.1,0.1-0.4,0.1-0.7h-2.3c-0.3,1-0.9,1.8-1.8,2.4c-0.2-0.2-0.5-0.5-1-0.9c1-0.6,1.6-1.5,1.7-2.9H114
					c-0.1,1.6-0.5,2.8-1.1,3.7l-1-1c0.6-0.8,0.9-2.1,0.9-3.8v-3.3h3.1c-0.1-0.2-0.2-0.4-0.3-0.6l1.5-0.2c0.1,0.2,0.2,0.5,0.3,0.8
					h2.9v2.7h-2.7c0.1,0.2,0.2,0.4,0.3,0.7h2.8V596.9z M119.1,594.2v-0.7h-5v0.7H119.1z M116.2,595.4l1.1-0.2H114v0.7h2.4
					C116.3,595.7,116.2,595.6,116.2,595.4z"/>
				<path class="st7" d="M124.3,597.3h-2.6v-1h2.6V597.3z"/>
				<path class="st7" d="M130.7,594.7c1,0.7,1.9,1.4,2.9,2.2l-0.9,1.1c-1-0.9-1.9-1.6-2.8-2.2v5h-1.5v-7h-3.3v-1.3h8.7v1.3H130v1.8
					L130.7,594.7z"/>
				<path class="st7" d="M135.1,592.2h7.6v2.7h-6.4c0,0.9,0,1.6-0.1,2.3h6.9v1H141c0.8,0.7,1.5,1.3,2,1.8l-0.9,0.7l-0.5-0.5
					c-2.9,0.1-4.5,0.2-4.9,0.3l-0.5-1c0.5-0.3,1-0.8,1.5-1.4h-1.6c-0.1,0.8-0.4,1.6-0.9,2.4c-0.4-0.4-0.7-0.8-1-1.1
					c0.3-0.4,0.4-0.9,0.6-1.5c0.1-0.6,0.2-1.6,0.2-3V592.2z M141.4,593.9v-0.7h-5.1v0.7H141.4z M136.8,595.5h5.8v1h-5.8V595.5z
					 M140,598.7l0.6-0.5h-1.4c-0.4,0.5-0.7,0.8-1,1.2l2.5-0.1L140,598.7z"/>
			</g>
		</g>
		<g>
			<path class="st10" d="M652.3,156.9h-36.1c-5.3,0-9.6-4.3-9.6-9.6v0c0-5.3,4.3-9.6,9.6-9.6h36.1c5.3,0,9.6,4.3,9.6,9.6v0
				C661.9,152.6,657.6,156.9,652.3,156.9z"/>
			<g>
				<path class="st7" d="M620.1,144.7h0.8v-1.6h1.1v1.6h0.6v1.1H622v1.3l0.7-0.2c0,0.4-0.1,0.8,0,1.2l-0.6,0.2v2.3
					c0,0.3-0.1,0.5-0.2,0.7c-0.1,0.2-0.2,0.3-0.4,0.3c-0.2,0-0.6,0.1-1.1,0.1c0-0.4-0.1-0.7-0.2-1.2c0.2,0,0.4,0,0.6,0
					c0.2,0,0.2-0.1,0.2-0.4v-1.6l-0.9,0.2l-0.1-1.3c0.3-0.1,0.6-0.1,0.9-0.2v-1.6h-0.8V144.7z M623.2,148h5.2v1.1h-2v1.4h2.5v1.1
					h-6.2v-1.1h2.5v-1.4h-2V148z M625.5,146.4l-2,1.5l-0.7-0.8c0.6-0.4,1.2-0.9,2-1.4L625.5,146.4z M623,144.1h2.2l-0.2-0.8l1.3-0.2
					c0.1,0.3,0.2,0.7,0.3,1h2.2v1.8h-1.1v-0.7h-3.5v0.7H623V144.1z M626,146.4l0.8-0.8c0.6,0.4,1.2,0.9,2,1.5l-0.8,0.8
					C627.8,147.7,627.1,147.2,626,146.4z"/>
				<path class="st7" d="M630.7,151.3h-1.1v-3.5h1.8v-0.7h-2.2v-1h2.2v-0.8h-1c-0.1,0.3-0.2,0.5-0.2,0.7c-0.3-0.1-0.6-0.2-0.9-0.4
					c0.2-0.7,0.4-1.5,0.6-2.3l1,0.2l-0.2,0.7h0.7v-1.2h1.2v1.2h1.8v1h-1.8v0.8h2.1v1h-2.1v0.7h1.8v2.4c0,0.3-0.1,0.6-0.2,0.8
					c-0.1,0.2-0.4,0.3-0.7,0.3c-0.3,0-0.5,0-0.7,0c-0.1-0.3-0.1-0.7-0.3-1.1c0.2,0,0.3,0,0.4,0c0.2,0,0.3-0.1,0.3-0.3v-1.1h-0.8v3.1
					h-1.2v-3.1h-0.8V151.3z M634.9,143.8h1.1v6h-1.1V143.8z M636.5,143.1h1.1v7.4c0,0.4-0.1,0.8-0.3,1c-0.2,0.2-0.5,0.3-0.9,0.4
					c-0.4,0-0.8,0-1.3,0c0-0.4-0.1-0.8-0.2-1.3c0.5,0,0.8,0,1.1,0c0.3,0,0.5-0.2,0.5-0.6V143.1z"/>
				<path class="st7" d="M645.7,145.4v1h-0.8c0.6,0.4,1.3,0.8,2.1,1.3l-0.7,0.8c-0.2-0.1-0.4-0.3-0.6-0.4c-0.8,0-1.5,0-2.2,0.1v0.6
					h3v1.1h-3v0.6h3.6v1.1h-8.5v-1.1h3.6v-0.6h-3v-1.1h3v-0.6c-1.2,0-2.1,0.1-2.6,0.2l-0.4-0.9c0.5-0.2,1-0.6,1.7-1H640v-1H645.7z
					 M638.6,146v-2.2h3.5c-0.1-0.3-0.2-0.5-0.3-0.7l1.6-0.2c0.1,0.2,0.2,0.5,0.3,0.8h3.3v2.2H646v-1.1h-6.2v1.1H638.6z M643.6,146.7
					l0.4-0.3h-1.4c-0.4,0.3-0.9,0.6-1.3,0.9c1,0,2-0.1,3.1-0.1C644.2,147,643.9,146.8,643.6,146.7z"/>
			</g>
		</g>
		<g>
			<path class="st10" d="M915.2,156.9h-36.1c-5.3,0-9.6-4.3-9.6-9.6v0c0-5.3,4.3-9.6,9.6-9.6h36.1c5.3,0,9.6,4.3,9.6,9.6v0
				C924.7,152.6,920.4,156.9,915.2,156.9z"/>
			<g>
				<path class="st7" d="M883.4,147.5h3.3v-0.6h-3v-2.9h3v-0.8h1.3v0.8h2.9v2.9H888v0.6h3.3v3.5H890v-0.5H888v1.5h-1.3v-1.5h-2.1
					v0.5h-1.2V147.5z M884.6,149.4h2.1v-0.9h-2.1V149.4z M884.9,145.8h1.8V145h-1.8V145.8z M889.7,145H888v0.8h1.7V145z M890,148.5
					H888v0.9h2.1V148.5z"/>
				<path class="st7" d="M894.3,148c0,0.5,0,0.9,0.1,1.4c-0.4,0.3-0.8,0.8-1.4,1.5l-0.6-0.9c0.1-0.2,0.2-0.4,0.2-0.8v-2.4h-0.6v-1.2
					h1.7v2.9C893.9,148.5,894,148.3,894.3,148z M893.3,143.2c0.4,0.5,0.8,1.1,1.1,1.5c-0.3,0.2-0.6,0.4-1,0.6
					c-0.3-0.6-0.6-1.1-1-1.6L893.3,143.2z M899.4,144.5h-3.7v3.2c0,1.8-0.3,3.2-0.8,4.2c-0.4-0.3-0.8-0.5-1.2-0.7
					c0.6-0.8,0.9-1.9,0.9-3.4v-4.4h6v7.2c0,0.8-0.3,1.2-1,1.3c-0.3,0-0.7,0-1.3,0c-0.1-0.4-0.2-0.8-0.3-1.2c0.4,0,0.7,0,1,0
					c0.3,0,0.5-0.1,0.5-0.4V144.5z M895.9,146.6h1.1V146h-1v-0.8h1v-0.6h1.1v0.6h1v0.8h-1v0.5h1.1v0.8h-3.3V146.6z M896.1,150.8
					v-2.9h2.9v2.5H897v0.4H896.1z M898,148.7h-1v0.8h1V148.7z"/>
				<path class="st7" d="M908.5,145.4v1h-0.8c0.6,0.4,1.3,0.8,2.1,1.3l-0.7,0.8c-0.2-0.1-0.4-0.3-0.6-0.4c-0.8,0-1.5,0-2.2,0.1v0.6
					h3v1.1h-3v0.6h3.6v1.1h-8.5v-1.1h3.6v-0.6h-3v-1.1h3v-0.6c-1.2,0-2.1,0.1-2.6,0.2l-0.4-0.9c0.5-0.2,1-0.6,1.7-1h-0.9v-1H908.5z
					 M901.5,146v-2.2h3.5c-0.1-0.3-0.2-0.5-0.3-0.7l1.6-0.2c0.1,0.2,0.2,0.5,0.3,0.8h3.3v2.2h-1.1v-1.1h-6.2v1.1H901.5z
					 M906.4,146.7l0.4-0.3h-1.4c-0.4,0.3-0.9,0.6-1.3,0.9c1,0,2-0.1,3.1-0.1C907,147,906.7,146.8,906.4,146.7z"/>
			</g>
		</g>
		<g>
			<path class="st10" d="M1310.4,132.9h-36.1c-5.3,0-9.6-4.3-9.6-9.6v0c0-5.3,4.3-9.6,9.6-9.6h36.1c5.3,0,9.6,4.3,9.6,9.6v0
				C1320,128.6,1315.7,132.9,1310.4,132.9z"/>
			<g>
				<path class="st7" d="M1287,126.5c-0.2,0.5-0.3,0.9-0.4,1.2c-2,0-3.5,0-4.5,0s-1.8-0.3-2.3-0.8l-1,1.1l-0.5-1.4
					c0.3-0.3,0.6-0.5,0.9-0.8v-2.3h-0.8v-1.1h2v3.4c0.5,0.5,1.2,0.8,2.2,0.8C1285.4,126.6,1286.9,126.6,1287,126.5z M1279.3,119.2
					c0.5,0.6,0.9,1.1,1.2,1.6l-1,0.7c-0.4-0.6-0.7-1.2-1.1-1.8L1279.3,119.2z M1282.3,123.5h0.9c0.1-0.4,0.1-1,0.1-2h-2.4v-1h1.5
					c-0.3-0.3-0.5-0.6-0.8-0.9l0.8-0.6c0.3,0.3,0.7,0.7,1.2,1.1l-0.5,0.4h1.1c0.4-0.5,0.7-1,1-1.5l1.1,0.6c-0.2,0.3-0.5,0.6-0.8,1
					h1.5v1h-2.4c0,0.9,0,1.5-0.1,2h1v-1.6h1.2v3.1h-1.2v-0.5h-1.2c-0.3,0.9-0.9,1.5-1.7,2.1c-0.3-0.3-0.6-0.6-0.9-0.9
					c0.6-0.3,1-0.7,1.3-1.2h-1.7v-2.5h1.2V123.5z"/>
				<path class="st7" d="M1289.3,121.3l0.8,0.8c-0.7,0.5-1.4,1-2.1,1.5c-0.2-0.3-0.4-0.6-0.7-0.9
					C1288,122.2,1288.7,121.8,1289.3,121.3z M1294.8,123.4v1c-0.4,0.6-1,1.2-1.7,1.6c0.9,0.3,1.9,0.4,3.1,0.5
					c-0.1,0.2-0.3,0.6-0.7,1.3c-1.5-0.2-2.7-0.5-3.8-1c-1.1,0.5-2.3,0.9-3.8,1.1c-0.2-0.4-0.4-0.8-0.6-1.2c1.2-0.1,2.3-0.4,3.2-0.7
					c-0.6-0.4-1.1-1-1.4-1.6h-0.6v-1.1H1294.8z M1287.5,120.1h3.6l-0.3-0.7l1.3-0.3l0.5,1.1h3.5v1.1h-2.6v2.1h-1.1v-2.1h-1v2.1h-1.1
					v-2.1h-2.6V120.1z M1291.8,125.6c0.6-0.3,1.1-0.7,1.6-1.1h-3C1290.7,124.9,1291.2,125.3,1291.8,125.6z M1294.2,121.4
					c0.6,0.4,1.3,0.8,2,1.4l-0.8,0.9c-0.6-0.5-1.3-1-2-1.5L1294.2,121.4z"/>
				<path class="st7" d="M1303.8,121.4v1h-0.8c0.6,0.4,1.3,0.8,2.1,1.3l-0.7,0.8c-0.2-0.1-0.4-0.3-0.6-0.4c-0.8,0-1.5,0-2.2,0.1v0.6
					h3v1.1h-3v0.6h3.6v1.1h-8.5v-1.1h3.6v-0.6h-3v-1.1h3v-0.6c-1.2,0-2.1,0.1-2.6,0.2l-0.4-0.9c0.5-0.2,1-0.6,1.7-1h-0.9v-1H1303.8z
					 M1296.7,122v-2.2h3.5c-0.1-0.3-0.2-0.5-0.3-0.7l1.6-0.2c0.1,0.2,0.2,0.5,0.3,0.8h3.3v2.2h-1.1v-1.1h-6.2v1.1H1296.7z
					 M1301.7,122.7l0.4-0.3h-1.4c-0.4,0.3-0.9,0.6-1.3,0.9c1,0,2-0.1,3.1-0.1C1302.2,123,1302,122.8,1301.7,122.7z"/>
			</g>
		</g>
		<g>
			<path class="st10" d="M1309.8,368.3h-36.1c-5.3,0-9.6-4.3-9.6-9.6l0,0c0-5.3,4.3-9.6,9.6-9.6h36.1c5.3,0,9.6,4.3,9.6,9.6l0,0
				C1319.4,364.1,1315.1,368.3,1309.8,368.3z"/>
			<g>
				<path class="st7" d="M1279.3,354.5l1.1,0.4c-0.2,0.7-0.5,1.4-0.8,2v6.4h-1.2V359c-0.2,0.4-0.5,0.7-0.7,1
					c-0.1-0.5-0.2-1.1-0.3-1.7C1278.2,357.3,1278.8,356,1279.3,354.5z M1281.7,361.1c0.3-0.1,0.7-0.4,1.4-0.8c0,0.4,0.1,0.8,0.1,1.2
					c-0.1,0.1-0.3,0.1-0.4,0.3c0.2,0.3,0.5,0.7,0.7,1l-1,0.6c-0.2-0.4-0.4-0.8-0.7-1.1c-0.5,0.3-0.8,0.5-1.1,0.7l-0.6-1
					c0.3-0.2,0.4-0.6,0.4-1.1v-5.6c1.4-0.1,3.1-0.3,5.2-0.5c0.1,0.4,0.2,0.7,0.3,1.1c-0.5,0.1-1.1,0.1-1.8,0.2c0,0.5,0,1,0.1,1.7h2
					v1.1h-2c0.1,1.2,0.2,1.9,0.4,2.3c0.2,0.4,0.3,0.6,0.4,0.6c0.1,0,0.1-0.1,0.2-0.2c0.1-0.1,0.1-0.6,0.2-1.4
					c0.3,0.2,0.6,0.3,0.9,0.5c-0.1,1.1-0.2,1.8-0.4,2.1c-0.2,0.3-0.4,0.5-0.8,0.5c-1.2,0-1.9-1.4-2-4.3h-1.5V361.1z M1281.7,356.3
					v1.5h1.4l-0.1-1.6L1281.7,356.3z"/>
				<path class="st7" d="M1286.8,354.9h4.7v1h-1.3v0.8h1.2v6.5h-1v-0.6h-2.4v0.6h-1v-6.5h1.2V356h-1.4V354.9z M1287.8,359.3
					c0.2-0.3,0.3-0.9,0.3-1.7h-0.3V359.3z M1288.5,360.1c-0.2-0.2-0.3-0.3-0.5-0.4v0.6h2.4v-0.5h-0.2c-0.5,0-0.8-0.3-0.8-0.8v-1.3
					h-0.4C1289,358.8,1288.8,359.6,1288.5,360.1z M1288,361.8h2.4v-0.6h-2.4V361.8z M1289,356.7h0.4V356h-0.4V356.7z M1290.5,359
					L1290.5,359l0.1-1.3h-0.4v1C1290.2,358.9,1290.3,359,1290.5,359z M1294.5,360.2c0.3,0.1,0.6,0.3,1.1,0.4
					c-0.1,0.9-0.2,1.5-0.3,1.7c-0.1,0.3-0.2,0.5-0.4,0.6s-0.4,0.2-0.7,0.2h-1.2c-0.8,0-1.1-0.4-1.1-1.2v-4.1h2.1v-1.7h-2.2V355h3.4
					v4h-2.1v2.6c0,0.3,0.1,0.4,0.4,0.4h0.4c0.2,0,0.4-0.1,0.4-0.2C1294.4,361.6,1294.4,361.1,1294.5,360.2z"/>
				<path class="st7" d="M1303.2,356.8v1h-0.8c0.6,0.4,1.3,0.8,2.1,1.3l-0.7,0.8c-0.2-0.1-0.4-0.3-0.6-0.4c-0.8,0-1.5,0-2.2,0.1v0.6
					h3v1.1h-3v0.6h3.6v1.1h-8.5v-1.1h3.6v-0.6h-3v-1.1h3v-0.6c-1.2,0-2.1,0.1-2.6,0.2l-0.4-0.9c0.5-0.2,1-0.6,1.7-1h-0.9v-1H1303.2z
					 M1296.1,357.4v-2.2h3.5c-0.1-0.3-0.2-0.5-0.3-0.7l1.6-0.2c0.1,0.2,0.2,0.5,0.3,0.8h3.3v2.2h-1.1v-1.1h-6.2v1.1H1296.1z
					 M1301.1,358.1l0.4-0.3h-1.4c-0.4,0.3-0.9,0.6-1.3,0.9c1,0,2-0.1,3.1-0.1C1301.6,358.4,1301.4,358.3,1301.1,358.1z"/>
			</g>
		</g>
		<g>
			<path class="st10" d="M1309.8,453h-36.1c-5.3,0-9.6-4.3-9.6-9.6v0c0-5.3,4.3-9.6,9.6-9.6h36.1c5.3,0,9.6,4.3,9.6,9.6v0
				C1319.4,448.7,1315.1,453,1309.8,453z"/>
			<g>
				<path class="st7" d="M1278.6,439.6h7.8v1.3h-6.4v2.4c0,2-0.5,3.6-1.4,4.7c-0.4-0.5-0.8-0.9-1-1.1c0.7-0.8,1-2,1-3.7V439.6z"/>
				<path class="st7" d="M1288.7,441.4l0.8,0.8c-0.7,0.5-1.4,1-2.1,1.5c-0.2-0.3-0.4-0.6-0.7-0.9
					C1287.4,442.3,1288.1,441.9,1288.7,441.4z M1294.1,443.5v1c-0.4,0.6-1,1.2-1.7,1.6c0.9,0.3,1.9,0.4,3.1,0.5
					c-0.1,0.2-0.3,0.6-0.7,1.3c-1.5-0.2-2.7-0.5-3.8-1c-1.1,0.5-2.3,0.9-3.8,1.1c-0.2-0.4-0.4-0.8-0.6-1.2c1.2-0.1,2.3-0.4,3.2-0.7
					c-0.6-0.4-1.1-1-1.4-1.6h-0.6v-1.1H1294.1z M1286.9,440.2h3.6l-0.3-0.7l1.3-0.3l0.5,1.1h3.5v1.1h-2.6v2.1h-1.1v-2.1h-1v2.1h-1.1
					v-2.1h-2.6V440.2z M1291.2,445.7c0.6-0.3,1.1-0.7,1.6-1.1h-3C1290.1,445,1290.6,445.4,1291.2,445.7z M1293.5,441.4
					c0.6,0.4,1.3,0.8,2,1.4l-0.8,0.9c-0.6-0.5-1.3-1-2-1.5L1293.5,441.4z"/>
				<path class="st7" d="M1303.2,441.5v1h-0.8c0.6,0.4,1.3,0.8,2.1,1.3l-0.7,0.8c-0.2-0.1-0.4-0.3-0.6-0.4c-0.8,0-1.5,0-2.2,0.1v0.6
					h3v1.1h-3v0.6h3.6v1.1h-8.5v-1.1h3.6v-0.6h-3v-1.1h3v-0.6c-1.2,0-2.1,0.1-2.6,0.2l-0.4-0.9c0.5-0.2,1-0.6,1.7-1h-0.9v-1H1303.2z
					 M1296.1,442.1v-2.2h3.5c-0.1-0.3-0.2-0.5-0.3-0.7l1.6-0.2c0.1,0.2,0.2,0.5,0.3,0.8h3.3v2.2h-1.1V441h-6.2v1.1H1296.1z
					 M1301.1,442.7l0.4-0.3h-1.4c-0.4,0.3-0.9,0.6-1.3,0.9c1,0,2-0.1,3.1-0.1C1301.6,443.1,1301.4,442.9,1301.1,442.7z"/>
			</g>
		</g>
		<g>
			<path class="st10" d="M1395.6,453h-36.1c-5.3,0-9.6-4.3-9.6-9.6v0c0-5.3,4.3-9.6,9.6-9.6h36.1c5.3,0,9.6,4.3,9.6,9.6v0
				C1405.1,448.7,1400.9,453,1395.6,453z"/>
			<g>
				<path class="st7" d="M1364.3,439.6h7.8v1.3h-6.4v2.4c0,2-0.5,3.6-1.4,4.7c-0.4-0.5-0.8-0.9-1-1.1c0.7-0.8,1-2,1-3.7V439.6z"/>
				<path class="st7" d="M1374.5,441.4l0.8,0.8c-0.7,0.5-1.4,1-2.1,1.5c-0.2-0.3-0.4-0.6-0.7-0.9
					C1373.2,442.3,1373.8,441.9,1374.5,441.4z M1379.9,443.5v1c-0.4,0.6-1,1.2-1.7,1.6c0.9,0.3,1.9,0.4,3.1,0.5
					c-0.1,0.2-0.3,0.6-0.7,1.3c-1.5-0.2-2.7-0.5-3.8-1c-1.1,0.5-2.3,0.9-3.8,1.1c-0.2-0.4-0.4-0.8-0.6-1.2c1.2-0.1,2.3-0.4,3.2-0.7
					c-0.6-0.4-1.1-1-1.4-1.6h-0.6v-1.1H1379.9z M1372.7,440.2h3.6l-0.3-0.7l1.3-0.3l0.5,1.1h3.5v1.1h-2.6v2.1h-1.1v-2.1h-1v2.1h-1.1
					v-2.1h-2.6V440.2z M1376.9,445.7c0.6-0.3,1.1-0.7,1.6-1.1h-3C1375.9,445,1376.4,445.4,1376.9,445.7z M1379.3,441.4
					c0.6,0.4,1.3,0.8,2,1.4l-0.8,0.9c-0.6-0.5-1.3-1-2-1.5L1379.3,441.4z"/>
				<path class="st7" d="M1388.9,441.5v1h-0.8c0.6,0.4,1.3,0.8,2.1,1.3l-0.7,0.8c-0.2-0.1-0.4-0.3-0.6-0.4c-0.8,0-1.5,0-2.2,0.1v0.6
					h3v1.1h-3v0.6h3.6v1.1h-8.5v-1.1h3.6v-0.6h-3v-1.1h3v-0.6c-1.2,0-2.1,0.1-2.6,0.2l-0.4-0.9c0.5-0.2,1-0.6,1.7-1h-0.9v-1H1388.9z
					 M1381.9,442.1v-2.2h3.5c-0.1-0.3-0.2-0.5-0.3-0.7l1.6-0.2c0.1,0.2,0.2,0.5,0.3,0.8h3.3v2.2h-1.1V441h-6.2v1.1H1381.9z
					 M1386.9,442.7l0.4-0.3h-1.4c-0.4,0.3-0.9,0.6-1.3,0.9c1,0,2-0.1,3.1-0.1C1387.4,443.1,1387.1,442.9,1386.9,442.7z"/>
			</g>
		</g>
		<g>
			<path class="st10" d="M1396.2,132.9h-36.1c-5.3,0-9.6-4.3-9.6-9.6v0c0-5.3,4.3-9.6,9.6-9.6h36.1c5.3,0,9.6,4.3,9.6,9.6v0
				C1405.7,128.6,1401.5,132.9,1396.2,132.9z"/>
			<g>
				<path class="st7" d="M1372.8,126.5c-0.2,0.5-0.3,0.9-0.4,1.2c-2,0-3.5,0-4.5,0s-1.8-0.3-2.3-0.8l-1,1.1l-0.5-1.4
					c0.3-0.3,0.6-0.5,0.9-0.8v-2.3h-0.8v-1.1h2v3.4c0.5,0.5,1.2,0.8,2.2,0.8C1371.2,126.6,1372.7,126.6,1372.8,126.5z M1365.1,119.2
					c0.5,0.6,0.9,1.1,1.2,1.6l-1,0.7c-0.4-0.6-0.7-1.2-1.1-1.8L1365.1,119.2z M1368,123.5h0.9c0.1-0.4,0.1-1,0.1-2h-2.4v-1h1.5
					c-0.3-0.3-0.5-0.6-0.8-0.9l0.8-0.6c0.3,0.3,0.7,0.7,1.2,1.1l-0.5,0.4h1.1c0.4-0.5,0.7-1,1-1.5l1.1,0.6c-0.2,0.3-0.5,0.6-0.8,1
					h1.5v1h-2.4c0,0.9,0,1.5-0.1,2h1v-1.6h1.2v3.1h-1.2v-0.5h-1.2c-0.3,0.9-0.9,1.5-1.7,2.1c-0.3-0.3-0.6-0.6-0.9-0.9
					c0.6-0.3,1-0.7,1.3-1.2h-1.7v-2.5h1.2V123.5z"/>
				<path class="st7" d="M1375.1,121.3l0.8,0.8c-0.7,0.5-1.4,1-2.1,1.5c-0.2-0.3-0.4-0.6-0.7-0.9
					C1373.8,122.2,1374.4,121.8,1375.1,121.3z M1380.5,123.4v1c-0.4,0.6-1,1.2-1.7,1.6c0.9,0.3,1.9,0.4,3.1,0.5
					c-0.1,0.2-0.3,0.6-0.7,1.3c-1.5-0.2-2.7-0.5-3.8-1c-1.1,0.5-2.3,0.9-3.8,1.1c-0.2-0.4-0.4-0.8-0.6-1.2c1.2-0.1,2.3-0.4,3.2-0.7
					c-0.6-0.4-1.1-1-1.4-1.6h-0.6v-1.1H1380.5z M1373.3,120.1h3.6l-0.3-0.7l1.3-0.3l0.5,1.1h3.5v1.1h-2.6v2.1h-1.1v-2.1h-1v2.1h-1.1
					v-2.1h-2.6V120.1z M1377.5,125.6c0.6-0.3,1.1-0.7,1.6-1.1h-3C1376.5,124.9,1377,125.3,1377.5,125.6z M1379.9,121.4
					c0.6,0.4,1.3,0.8,2,1.4l-0.8,0.9c-0.6-0.5-1.3-1-2-1.5L1379.9,121.4z"/>
				<path class="st7" d="M1389.5,121.4v1h-0.8c0.6,0.4,1.3,0.8,2.1,1.3l-0.7,0.8c-0.2-0.1-0.4-0.3-0.6-0.4c-0.8,0-1.5,0-2.2,0.1v0.6
					h3v1.1h-3v0.6h3.6v1.1h-8.5v-1.1h3.6v-0.6h-3v-1.1h3v-0.6c-1.2,0-2.1,0.1-2.6,0.2l-0.4-0.9c0.5-0.2,1-0.6,1.7-1h-0.9v-1H1389.5z
					 M1382.5,122v-2.2h3.5c-0.1-0.3-0.2-0.5-0.3-0.7l1.6-0.2c0.1,0.2,0.2,0.5,0.3,0.8h3.3v2.2h-1.1v-1.1h-6.2v1.1H1382.5z
					 M1387.5,122.7l0.4-0.3h-1.4c-0.4,0.3-0.9,0.6-1.3,0.9c1,0,2-0.1,3.1-0.1C1388,123,1387.7,122.8,1387.5,122.7z"/>
			</g>
		</g>
		<g>
			<path class="st10" d="M1481.9,132.9h-36.1c-5.3,0-9.6-4.3-9.6-9.6v0c0-5.3,4.3-9.6,9.6-9.6h36.1c5.3,0,9.6,4.3,9.6,9.6v0
				C1491.5,128.6,1487.2,132.9,1481.9,132.9z"/>
			<g>
				<path class="st7" d="M1458.6,126.5c-0.2,0.5-0.3,0.9-0.4,1.2c-2,0-3.5,0-4.5,0s-1.8-0.3-2.3-0.8l-1,1.1l-0.5-1.4
					c0.3-0.3,0.6-0.5,0.9-0.8v-2.3h-0.8v-1.1h2v3.4c0.5,0.5,1.2,0.8,2.2,0.8C1457,126.6,1458.5,126.6,1458.6,126.5z M1450.9,119.2
					c0.5,0.6,0.9,1.1,1.2,1.6l-1,0.7c-0.4-0.6-0.7-1.2-1.1-1.8L1450.9,119.2z M1453.8,123.5h0.9c0.1-0.4,0.1-1,0.1-2h-2.4v-1h1.5
					c-0.3-0.3-0.5-0.6-0.8-0.9l0.8-0.6c0.3,0.3,0.7,0.7,1.2,1.1l-0.5,0.4h1.1c0.4-0.5,0.7-1,1-1.5l1.1,0.6c-0.2,0.3-0.5,0.6-0.8,1
					h1.5v1h-2.4c0,0.9,0,1.5-0.1,2h1v-1.6h1.2v3.1h-1.2v-0.5h-1.2c-0.3,0.9-0.9,1.5-1.7,2.1c-0.3-0.3-0.6-0.6-0.9-0.9
					c0.6-0.3,1-0.7,1.3-1.2h-1.7v-2.5h1.2V123.5z"/>
				<path class="st7" d="M1460.8,121.3l0.8,0.8c-0.7,0.5-1.4,1-2.1,1.5c-0.2-0.3-0.4-0.6-0.7-0.9
					C1459.5,122.2,1460.2,121.8,1460.8,121.3z M1466.3,123.4v1c-0.4,0.6-1,1.2-1.7,1.6c0.9,0.3,1.9,0.4,3.1,0.5
					c-0.1,0.2-0.3,0.6-0.7,1.3c-1.5-0.2-2.7-0.5-3.8-1c-1.1,0.5-2.3,0.9-3.8,1.1c-0.2-0.4-0.4-0.8-0.6-1.2c1.2-0.1,2.3-0.4,3.2-0.7
					c-0.6-0.4-1.1-1-1.4-1.6h-0.6v-1.1H1466.3z M1459,120.1h3.6l-0.3-0.7l1.3-0.3l0.5,1.1h3.5v1.1h-2.6v2.1h-1.1v-2.1h-1v2.1h-1.1
					v-2.1h-2.6V120.1z M1463.3,125.6c0.6-0.3,1.1-0.7,1.6-1.1h-3C1462.3,124.9,1462.8,125.3,1463.3,125.6z M1465.7,121.4
					c0.6,0.4,1.3,0.8,2,1.4l-0.8,0.9c-0.6-0.5-1.3-1-2-1.5L1465.7,121.4z"/>
				<path class="st7" d="M1475.3,121.4v1h-0.8c0.6,0.4,1.3,0.8,2.1,1.3l-0.7,0.8c-0.2-0.1-0.4-0.3-0.6-0.4c-0.8,0-1.5,0-2.2,0.1v0.6
					h3v1.1h-3v0.6h3.6v1.1h-8.5v-1.1h3.6v-0.6h-3v-1.1h3v-0.6c-1.2,0-2.1,0.1-2.6,0.2l-0.4-0.9c0.5-0.2,1-0.6,1.7-1h-0.9v-1H1475.3z
					 M1468.3,122v-2.2h3.5c-0.1-0.3-0.2-0.5-0.3-0.7l1.6-0.2c0.1,0.2,0.2,0.5,0.3,0.8h3.3v2.2h-1.1v-1.1h-6.2v1.1H1468.3z
					 M1473.2,122.7l0.4-0.3h-1.4c-0.4,0.3-0.9,0.6-1.3,0.9c1,0,2-0.1,3.1-0.1C1473.8,123,1473.5,122.8,1473.2,122.7z"/>
			</g>
		</g>
	</g>
	<g>
		<rect x="1162.9" y="580.5" class="st11" width="171.3" height="169.9"/>
	</g>
	<g>
		<rect x="1354.5" y="580.5" class="st11" width="171.3" height="169.9"/>
	</g>
	<g>
		<rect x="971.3" y="580.5" class="st11" width="171.3" height="169.9"/>
	</g>
	<polyline class="st12" points="1376.9,477.3 1376.9,542.6 1277.1,542.6 1277.1,580.5 	"/>
	<polyline class="st12" points="1054.9,580.5 1054.9,482.1 1290.7,482.1 	"/>
	<polyline class="st12" points="1338.4,404.1 1439.4,404.1 1439.4,580.5 	"/>
</g>
</svg>
