<?xml version="1.0" encoding="utf-8"?>
<!-- Generator: Adobe Illustrator 19.2.1, SVG Export Plug-In . SVG Version: 6.00 Build 0)  -->
<svg version="1.1" id="图层_1" xmlns="http://www.w3.org/2000/svg" xmlns:xlink="http://www.w3.org/1999/xlink" x="0px" y="0px"
	 viewBox="0 0 32 32" style="enable-background:new 0 0 32 32;" xml:space="preserve">
<g>
	<g transform="scale(0.1953125, 0.1953125)">
		<path d="M16.3,151.8c-5.8,0-11.6-0.2-14.8-6.1c-3.1-5.7-0.8-11,2.2-16c21.5-36.1,43-72.2,64.6-108.2c7.6-12.7,21.9-12.7,29.4-0.1
			c21,35.6,41.9,71.2,62.6,107c2.2,3.8,3.3,8.8,3.5,13.3c0.3,5.9-4,9.7-9.9,9.9 M92.3,71.9c0-6.9,0.1-13.8,0-20.7
			c-0.1-5.9-4.8-10.5-10.5-10.5c-5.6,0-9.9,4.5-10,10.4c-0.1,13.5-0.1,27,0,40.5c0,6.1,4.5,10.7,10.2,10.7c5.8,0,10.2-4.4,10.3-10.6
			C92.4,85.1,92.3,78.5,92.3,71.9z M92,121.9c0-5.8-4.3-10.1-10.1-10.1c-5.8,0-10.2,4.3-10.2,10.1c0,5.7,4.5,10.2,10.1,10.2
			C87.5,132.1,92,127.6,92,121.9z"/>
	</g>
</g>
</svg>
