<?xml version="1.0" encoding="utf-8"?>
<!-- Generator: Adobe Illustrator 19.2.1, SVG Export Plug-In . SVG Version: 6.00 Build 0)  -->
<svg version="1.1" id="图层_1" xmlns="http://www.w3.org/2000/svg" xmlns:xlink="http://www.w3.org/1999/xlink" x="0px" y="0px"
	 viewBox="0 0 32 32" style="enable-background:new 0 0 32 32;" xml:space="preserve">
<g>
	<g transform="scale(0.1953125, 0.1953125)">
		<path d="M155.6,64.4h-14.4c-1.4-2.9-3.3-9-5.7-13.3l10.2-9.9c3.2-3.2,3.2-8.3,0-11.5L134,18.1c-3.2-3.2-8.4-3.2-11.6,0l-9.6,10.2
			c-4.3-2.5-10.4-4.4-13.3-5.7V8.2c0-4.5-4.8-8.2-9.3-8.2H73.7c-4.5,0-9.3,3.7-9.3,8.2v14.4c-2.9,1.4-9,3.3-13.3,5.7l-9.9-10.2
			c-3.2-3.2-8.3-3.2-11.5,0L18.1,29.8c-3.2,3.2-3.2,8.4,0,11.6L28.3,51c-2.5,4.3-4.4,10.4-5.7,13.3H8.2c-4.5,0-8.2,4.8-8.2,9.3v16.4
			c0,4.5,3.7,9.3,8.2,9.3h14.4c1.4,2.9,3.3,9,5.7,13.3l-10.2,9.9c-3.2,3.2-3.2,8.3,0,11.5l11.6,11.5c3.2,3.2,8.4,3.2,11.6,0
			l9.6-10.2c4.3,2.5,10.4,4.4,13.3,5.7v14.4c0,4.5,4.8,8.2,9.3,8.2h16.4c4.5,0,9.3-3.7,9.3-8.2v-14.4c2.9-1.4,9-3.3,13.3-5.7
			l9.9,10.2c3.2,3.2,8.3,3.2,11.5,0l11.5-11.6c3.2-3.2,3.2-8.4,0-11.6l-10.2-9.6c2.5-4.3,4.4-10.4,5.7-13.3h14.4
			c4.5,0,8.2-4.8,8.2-9.3V73.7C163.8,69.2,160.2,64.4,155.6,64.4L155.6,64.4z M81.9,118.9c-20.4,0-36.9-16.5-36.9-36.9
			C45,61.5,61.5,45,81.9,45c20.4,0,36.9,16.5,36.9,36.9C118.9,102.3,102.3,118.9,81.9,118.9L81.9,118.9z"/>
	</g>
</g>
</svg>
