<?xml version="1.0" encoding="utf-8"?>
<!-- Generator: Adobe Illustrator 19.2.1, SVG Export Plug-In . SVG Version: 6.00 Build 0)  -->
<svg version="1.1" id="图层_1" xmlns="http://www.w3.org/2000/svg" xmlns:xlink="http://www.w3.org/1999/xlink" x="0px" y="0px"
	 viewBox="0 0 130 110" style="enable-background:new 0 0 130 110;" xml:space="preserve">
<style type="text/css">
	.st0{fill:#FFFFFF;}
	.st1{fill:#777777;}
	.st2{opacity:0.2;}
	.st3{fill:#4990FF;}
	.st4{fill:none;stroke:#B6B6B6;stroke-width:0.5;stroke-miterlimit:10;}
	.st5{fill:none;stroke:#B6B6B6;stroke-width:0.5;stroke-miterlimit:10;stroke-dasharray:2.0392,2.0392;}
</style>
<g>
	
		<image style="overflow:visible;opacity:0.3;" width="127" height="106" xlink:href="20DB58E7103D6044.png"  transform="matrix(1 0 0 1 2 2)">
	</image>
	<g>
		<g>
			<g>
				<circle class="st0" cx="63.9" cy="82" r="18"/>
			</g>
			<g>
				<polygon class="st0" points="63.9,50.3 50.7,50.3 63.9,58.7 77,50.3 				"/>
				<path class="st0" d="M117.9,51.8H9.9c-1.7,0-3-1.3-3-3V9.4c0-1.7,1.3-3,3-3h108c1.7,0,3,1.3,3,3v39.3
					C120.9,50.4,119.5,51.8,117.9,51.8z"/>
				<g>
					<path class="st1" d="M13.7,14.9c0,0.4,0.1,0.8,0.2,1.2c-0.7,0.6-1.3,1.2-1.6,1.5l-0.6-0.8c0.1-0.1,0.2-0.3,0.2-0.6v-2.3h-0.8
						v-1.1H13v2.8C13.1,15.4,13.4,15.2,13.7,14.9z M12.4,10.1c0.4,0.5,0.8,1,1.1,1.4l-1,0.7c-0.4-0.6-0.7-1.1-1-1.5L12.4,10.1z
						 M18.9,12c-0.1,0.4-0.2,0.7-0.2,1c-0.5,0-0.8,0-1.1,0c-0.6,0-0.9-0.3-0.9-0.8v-0.8h-1.3c0,0.7-0.4,1.4-1.1,2h4v0.9
						C18,15,17.5,15.6,17,16.2c0.6,0.3,1.2,0.5,2,0.6c-0.2,0.3-0.4,0.7-0.6,1.1c-0.8-0.2-1.6-0.5-2.3-0.9c-0.7,0.4-1.4,0.8-2.3,1
						c-0.1-0.3-0.3-0.7-0.6-1c0.8-0.2,1.4-0.4,2-0.7c-0.4-0.4-0.8-0.9-1.2-1.4l0.7-0.4h-0.8v-1h0.5c-0.2-0.2-0.5-0.5-0.8-0.8
						c0.6-0.4,0.8-0.9,0.8-1.6v-0.5h3.5v1.2c0,0.2,0.1,0.3,0.2,0.3S18.4,12,18.9,12z M16.1,15.6c0.4-0.4,0.8-0.8,1.1-1.3h-2.2
						C15.2,14.8,15.6,15.2,16.1,15.6z"/>
					<path class="st1" d="M26.2,10.8v0.8c-0.5,0.5-1,0.9-1.7,1.2c0.7,0.2,1.6,0.3,2.5,0.3c-0.2,0.4-0.3,0.7-0.5,1
						c-1.3-0.1-2.5-0.4-3.4-0.7c-0.8,0.3-1.8,0.5-2.9,0.7h5.9v3.7H25v-0.3h-3.8v0.3h-1.1v-3.7c-0.2,0-0.3,0.1-0.5,0.1
						c-0.1-0.3-0.3-0.6-0.4-0.9c1-0.1,1.9-0.3,2.7-0.5c-0.4-0.2-0.7-0.5-0.9-0.7c-0.3,0.3-0.7,0.5-1,0.7c-0.2-0.2-0.4-0.4-0.7-0.7
						c0.9-0.5,1.6-1.2,2.2-2l1.1,0.1c-0.1,0.2-0.2,0.3-0.4,0.5H26.2z M21.2,15.5h1.4v-0.6h-1.4V15.5z M21.2,16.8h1.4v-0.6h-1.4V16.8
						z M23.1,12.4c0.6-0.2,1.1-0.5,1.5-0.8h-2.9C22.1,11.9,22.5,12.2,23.1,12.4z M25,14.9h-1.4v0.6H25V14.9z M23.6,16.8H25v-0.6
						h-1.4V16.8z"/>
					<path class="st1" d="M27.3,12.9h0.9c-0.2-0.2-0.5-0.3-0.8-0.5c0.5-0.7,0.9-1.4,1.2-2.2l1,0.3c-0.1,0.2-0.2,0.4-0.2,0.6h1.3v-1
						h1.1v1h2.7v0.9h-2.7v0.9h3.1v0.9h-7.7V12.9z M28.1,17.9v-3.4h5.9v3.4H33v-0.4h-3.8v0.4H28.1z M28.4,12.9h2.2v-0.9h-1.7
						C28.8,12.4,28.6,12.7,28.4,12.9z M33,15.4h-3.8v1.1H33V15.4z"/>
					<path class="st1" d="M35.3,13.9h3.5c0-0.1-0.1-0.2-0.1-0.3c-0.1,0-0.3,0.1-0.5,0.1h-0.6c0-0.1,0-0.2,0-0.2h-1v0.1h-0.6v-1
						c-0.1,0.1-0.2,0.2-0.3,0.3c-0.1-0.2-0.3-0.4-0.4-0.6c0.3-0.3,0.6-0.7,0.8-1.2h0.2v-0.2h-1v-0.6h1v-0.4h0.9v0.4h0.7v-0.4h0.9
						v0.4h1v0.6h-1v0.2h-0.9v-0.2h-0.7v0.2h-0.3c0,0.1-0.1,0.1-0.1,0.2h2.5c0,0.5,0,1,0,1.5c0,0.2-0.1,0.4-0.2,0.5l0.6,0
						c0,0.2,0.1,0.3,0.1,0.5h3.1v0.6h-7.5V13.9z M36.2,14.9h5.8v0.4h-5.8V14.9z M36.2,15.6h5.8V16h-5.8V15.6z M36.2,16.3h5.8v1.6h-1
						v-0.2h-3.8v0.2h-1V16.3z M36.2,12.3H38v0.8c0,0,0.1,0,0.1,0c0.2,0,0.3-0.1,0.3-0.2c0-0.2,0-0.5,0-0.8h-2.1
						C36.3,12.1,36.3,12.2,36.2,12.3z M36.6,13h0.8v-0.3h-0.8V13z M40.9,16.8h-3.8v0.4h3.8V16.8z M39.3,11.8c0.4-0.5,0.7-1,0.9-1.7
						l0.9,0c-0.1,0.2-0.1,0.3-0.2,0.5h2v0.7h-0.5c-0.1,0.5-0.4,0.9-0.6,1.2c0.3,0.2,0.7,0.3,1.2,0.4c-0.2,0.3-0.3,0.5-0.5,0.7
						c-0.5-0.2-0.9-0.4-1.3-0.6c-0.3,0.2-0.7,0.4-1.2,0.6c-0.2-0.2-0.3-0.5-0.5-0.7c0.4-0.1,0.8-0.3,1-0.4c-0.1-0.2-0.3-0.4-0.4-0.6
						c-0.1,0.2-0.2,0.3-0.3,0.4C39.6,12.2,39.4,11.9,39.3,11.8z M41.1,12.2c0.2-0.2,0.4-0.5,0.5-0.8h-1.1
						C40.7,11.7,40.9,12,41.1,12.2z"/>
				</g>
				<g class="st2">
					<g>
						<g transform="scale(0.1953125, 0.1953125)">
							<path class="st3" d="M212.3,192.5c4.7,1.8,9.9-0.6,11.7-5.3c3.3-8.7,11.7-14.5,21-14.5c9.3,0,17.7,5.8,21,14.5
								c1.4,3.6,4.8,5.9,8.5,5.9c1.1,0,2.1-0.2,3.2-0.6c4.7-1.8,7-7,5.3-11.7c-2.9-7.6-7.9-14.1-14.6-18.8
								c-6.9-4.8-14.9-7.4-23.3-7.4c-8.4,0-16.5,2.5-23.3,7.4c-6.7,4.7-11.7,11.2-14.6,18.8C205.2,185.5,207.6,190.7,212.3,192.5
								L212.3,192.5z M211.2,182.4c3.9-10.2,12.3-18.3,22.7-21.6c2.4-0.8,4.9,0.5,5.7,2.9c0.8,2.4-0.6,4.9-2.9,5.7
								c-7.8,2.5-14.1,8.5-17,16.1c-0.7,1.8-2.4,2.9-4.2,2.9c-0.5,0-1.1-0.1-1.6-0.3C211.5,187.4,210.3,184.7,211.2,182.4
								L211.2,182.4z M248.8,193.4c0.3,0.6,0.4,1.2,0.4,1.8c0,2.4-1.9,4.3-4.3,4.3c-2.4,0-4.3-1.9-4.3-4.3V178
								c0-0.4,0.2-0.7,0.6-0.7c0.3-0.1,0.7,0.1,0.8,0.4L248.8,193.4L248.8,193.4z M289.8,133.6h-89.7c-4.8,0-8.8,3.9-8.8,8.8V232
								c0,4.8,3.9,8.8,8.8,8.8h89.7c4.8,0,8.8-3.9,8.8-8.8v-89.7C298.5,137.5,294.6,133.6,289.8,133.6L289.8,133.6z M237,230.9
								c-2.8,0-5-2.3-5-5c0-2.8,2.3-5,5-5c2.8,0,5,2.3,5,5C242,228.7,239.8,230.9,237,230.9L237,230.9z M252.8,230.9
								c-2.8,0-5-2.3-5-5c0-2.8,2.3-5,5-5c2.8,0,5,2.3,5,5C257.9,228.7,255.6,230.9,252.8,230.9L252.8,230.9z M289.5,211h-89.2
								v-68.4h89.2L289.5,211L289.5,211z"/>
						</g>
					</g>
				</g>
				<g class="st2">
					<g>
						<g transform="scale(0.1953125, 0.1953125)">
							<path class="st3" d="M586.1,188.9v-40.3c0-5.3-2.7-10.4-7.4-13.9c-4.2-3.2-9.8-5-15.6-5c-5.8,0-11.4,1.8-15.6,5
								c-4.7,3.5-7.4,8.6-7.4,13.9v40.3c-6.1,6.1-9.6,14.5-9.6,23.1c0,8.7,3.4,16.9,9.5,23c6.2,6.2,14.3,9.5,23,9.5
								c8.7,0,16.9-3.4,23-9.5c6.2-6.1,9.5-14.3,9.5-23C595.7,203.4,592.2,195,586.1,188.9z M580.2,193.9c5,4.7,7.8,11.3,7.8,18.1
								c0,6.7-2.6,12.9-7.3,17.6c-4.7,4.7-11,7.3-17.6,7.3c-6.7,0-12.9-2.6-17.6-7.3c-4.7-4.7-7.3-11-7.3-17.6
								c0-6.8,2.9-13.4,7.8-18.1l1.7-1.7v-43.5c0-2.9,1.6-5.7,4.3-7.8c2.9-2.2,6.8-3.4,11-3.4c4.2,0,8.1,1.2,11,3.4
								c2.8,2.1,4.3,4.9,4.3,7.8v43.5L580.2,193.9z M566.7,197v-45.4c0-1.1-1.6-2.1-3.6-2.1c-2,0-3.6,0.9-3.6,2.1V197
								c-6.8,1.7-11.7,7.9-11.7,14.9c0,8.5,6.9,15.3,15.3,15.3c8.5,0,15.3-6.9,15.3-15.3C578.4,204.8,573.5,198.6,566.7,197z
								 M571.1,211.9c0,4.5-3.7,8.1-8.1,8.1c-4.5,0-8.1-3.7-8.1-8.1c0-4.5,3.7-8.1,8.1-8.1C567.4,203.8,571.1,207.5,571.1,211.9z"/>
						</g>
					</g>
				</g>
				<g>
					<path class="st1" d="M75.2,13.2c0.6,0.9,1,1.8,1.4,2.5l-0.9,0.5c-0.4-0.8-0.8-1.6-1.2-2.4v4.1h-1.1v-3.6
						c-0.4,0.7-0.8,1.3-1.3,1.9c-0.1-0.1-0.3-0.2-0.4-0.4c0,0.2,0,0.5-0.1,0.9L69,17.2l-0.1-1.1l1-0.1v-1.7H69v-1h0.8v-1.5H69v-1
						h2.8v1h-0.9v1.5h0.8v1h-0.8v1.6l0.8-0.1c-0.1-0.1-0.3-0.2-0.4-0.3c1-1.2,1.7-2.4,2.1-3.8H72v-1h4.3v1h-1.9
						c-0.1,0.4-0.3,0.9-0.4,1.3h0.4v0.6L75.2,13.2z"/>
					<path class="st1" d="M77.1,17.2l-0.2-1.2l0.8-0.2v-2.8H77V12h0.7v-1.8h1V12h0.5v1.1h-0.5v2.5l0.7-0.2c0,0.2,0,0.4,0,0.5
						c0,0.2,0,0.4,0,0.6C78.6,16.7,77.9,16.9,77.1,17.2z M79.5,13.2h4.6v2.8H83v0.6c0,0.2,0.1,0.3,0.3,0.3c0.1,0,0.2,0,0.3-0.1
						c0.1-0.1,0.1-0.3,0.1-0.7c0.3,0.1,0.6,0.2,0.9,0.3c0,0.2-0.1,0.4-0.1,0.7c-0.1,0.2-0.2,0.4-0.4,0.5c-0.2,0.1-0.5,0.2-0.8,0.2
						H83c-0.6,0-1-0.3-1-0.9v-0.9h-0.5c-0.2,0.9-0.8,1.5-1.9,1.9c-0.2-0.2-0.4-0.5-0.7-0.9c0.8-0.2,1.4-0.5,1.5-1h-0.9V13.2z
						 M84.3,11.5H83l0.7,0.2c-0.1,0.1-0.2,0.3-0.3,0.4h1.1v0.8h-5.1v-0.8h0.9L80,11.7l0.7-0.2h-1.2v-0.8h1.7
						c-0.1-0.1-0.2-0.3-0.2-0.4l1.3-0.2c0.1,0.2,0.1,0.4,0.2,0.6h1.8V11.5z M83.1,13.9h-2.6v0.4h2.6V13.9z M83.1,15.3V15h-2.6v0.4
						H83.1z M81.6,12.1h0.6c0.1-0.2,0.2-0.4,0.3-0.6h-1.4C81.3,11.7,81.4,11.9,81.6,12.1z"/>
					<path class="st1" d="M84.9,12.9h0.9c-0.2-0.2-0.5-0.3-0.8-0.5c0.5-0.7,0.9-1.4,1.2-2.2l1,0.3c-0.1,0.2-0.2,0.4-0.2,0.6h1.3v-1
						h1.1v1h2.7v0.9h-2.7v0.9h3.1v0.9h-7.7V12.9z M85.8,17.9v-3.4h5.9v3.4h-1.1v-0.4h-3.8v0.4H85.8z M86.1,12.9h2.2v-0.9h-1.7
						C86.4,12.4,86.3,12.7,86.1,12.9z M90.7,15.4h-3.8v1.1h3.8V15.4z"/>
					<path class="st1" d="M93,13.9h3.5c0-0.1-0.1-0.2-0.1-0.3c-0.1,0-0.3,0.1-0.5,0.1h-0.6c0-0.1,0-0.2,0-0.2h-1v0.1h-0.6v-1
						c-0.1,0.1-0.2,0.2-0.3,0.3c-0.1-0.2-0.3-0.4-0.4-0.6c0.3-0.3,0.6-0.7,0.8-1.2h0.2v-0.2h-1v-0.6h1v-0.4h0.9v0.4h0.7v-0.4h0.9
						v0.4h1v0.6h-1v0.2h-0.9v-0.2h-0.7v0.2h-0.3c0,0.1-0.1,0.1-0.1,0.2h2.5c0,0.5,0,1,0,1.5c0,0.2-0.1,0.4-0.2,0.5l0.6,0
						c0,0.2,0.1,0.3,0.1,0.5h3.1v0.6H93V13.9z M93.8,14.9h5.8v0.4h-5.8V14.9z M93.8,15.6h5.8V16h-5.8V15.6z M93.8,16.3h5.8v1.6h-1
						v-0.2h-3.8v0.2h-1V16.3z M93.9,12.3h1.8v0.8c0,0,0.1,0,0.1,0c0.2,0,0.3-0.1,0.3-0.2c0-0.2,0-0.5,0-0.8h-2.1
						C94,12.1,94,12.2,93.9,12.3z M94.3,13H95v-0.3h-0.8V13z M98.6,16.8h-3.8v0.4h3.8V16.8z M97,11.8c0.4-0.5,0.7-1,0.9-1.7l0.9,0
						c-0.1,0.2-0.1,0.3-0.2,0.5h2v0.7h-0.5c-0.1,0.5-0.4,0.9-0.6,1.2c0.3,0.2,0.7,0.3,1.2,0.4c-0.2,0.3-0.3,0.5-0.5,0.7
						c-0.5-0.2-0.9-0.4-1.3-0.6c-0.3,0.2-0.7,0.4-1.2,0.6c-0.2-0.2-0.3-0.5-0.5-0.7c0.4-0.1,0.8-0.3,1-0.4c-0.1-0.2-0.3-0.4-0.4-0.6
						c-0.1,0.2-0.2,0.3-0.3,0.4C97.3,12.2,97.1,11.9,97,11.8z M98.8,12.2c0.2-0.2,0.4-0.5,0.5-0.8h-1.1C98.4,11.7,98.6,12,98.8,12.2
						z"/>
				</g>
				<g>
					<g>
						<line class="st4" x1="63.9" y1="10.8" x2="63.9" y2="11.8"/>
						<line class="st5" x1="63.9" y1="13.9" x2="63.9" y2="45.5"/>
						<line class="st4" x1="63.9" y1="46.5" x2="63.9" y2="47.5"/>
					</g>
				</g>
			</g>
		</g>
	</g>
</g>
</svg>
