<?xml version="1.0" encoding="utf-8"?>
<!-- Generator: Adobe Illustrator 19.2.1, SVG Export Plug-In . SVG Version: 6.00 Build 0)  -->
<svg version="1.1" id="图层_1" xmlns="http://www.w3.org/2000/svg" xmlns:xlink="http://www.w3.org/1999/xlink" x="0px" y="0px"
	 viewBox="0 0 32 32" style="enable-background:new 0 0 32 32;" xml:space="preserve">
<style type="text/css">
	.st0{fill:#FFFFFF;}
</style>
<g>
	<g transform="scale(0.1953125, 0.1953125)">
		<path class="st0" d="M163.8,75H0v15.5h163.8V75L163.8,75z M163.8,148.4H0v15.5h163.8V148.4L163.8,148.4z M6.8,95.7v47.1h9.5V95.7
			H6.8L6.8,95.7z M26.5,95.7v47.1H36V95.7H26.5L26.5,95.7z M46.3,95.7v47.1h9.5V95.7H46.3L46.3,95.7z M66,95.7v47.1h9.5V95.7H66
			L66,95.7z M85.7,95.7v47.1h9.5V95.7H85.7L85.7,95.7z M105.4,95.7v47.1h9.5V95.7H105.4L105.4,95.7z M125.1,95.7v47.1h9.5l0-47.1
			H125.1L125.1,95.7z M144.8,95.7v47.1h9.5V95.7H144.8L144.8,95.7z M129,59.3V48.2c0-3.2-1.3-3.7-4-5.7c-5.7-4.1-6.9-6.5-6.9-12.9
			v-6.4h-10.6L123.4,0l15.8,23.1H129v7c0,4,2,4.6,5,6.8c4.4,3.3,5.9,5.9,5.9,10.9v11.6H129L129,59.3z M84.8,59.3V48.2
			c0-3.2-1.3-3.7-4-5.7c-5.7-4.1-6.9-6.5-6.9-12.9v-6.4H63.3L79.2,0L95,23.1H84.8v7c0,4,2,4.6,5,6.8c4.3,3.3,5.9,5.9,5.9,10.9v11.6
			H84.8L84.8,59.3z M40.6,59.3V48.2c0-3.2-1.3-3.7-4-5.7c-5.7-4.1-6.9-6.5-6.9-12.9v-6.4H19.1L35,0l15.8,23.1H40.6v7
			c0,4,2,4.6,5,6.8c4.4,3.3,5.9,5.9,5.9,10.9v11.6H40.6z"/>
	</g>
</g>
</svg>
