<svg id="图层_1" data-name="图层 1" xmlns="http://www.w3.org/2000/svg" viewBox="0 0 24 24"><defs><style>.cls-1{fill:#fff;}</style></defs><title>icon_树图</title><path class="cls-1" d="M8.88,12.08H7.38A6.26,6.26,0,0,1,9,7.39c2.17-2.15,6.21-2.11,10.88-2.07H22v1.5H19.87c-4.34,0-8.08-.07-9.81,1.64A4.86,4.86,0,0,0,8.88,12.08Z"/><path class="cls-1" d="M17,6.69H15.5C15.5,0,21.9,0,24,0V1.5C19.09,1.5,17,3.05,17,6.69Z"/><path class="cls-1" d="M18.24,24c-5.38,0-9-.16-11.28-2.41-1.85-1.85-2.64-4.94-2.64-10.35h1.5c0,4.91.68,7.77,2.2,9.29,2,2,5.78,2,11.51,2H21V24H18.24Z"/><path class="cls-1" d="M22.5,18c-3.8,0-6.37,0-8.2-.8-2.14-.89-3.06-2.66-3.06-5.93h1.5c0,3,.85,4,2.13,4.54,1.66,0.69,4.47.7,8.35,0.68H24V18H22.5Z"/><rect class="cls-1" y="10.83" width="24" height="1.5"/></svg>