<svg id="图层_1" data-name="图层 1" xmlns="http://www.w3.org/2000/svg" viewBox="0 0 24 24"><defs><style>.cls-1{fill:#fff;}</style></defs><title>地图</title><path class="cls-1" d="M24,12a12,12,0,1,0-13.49,11.9,6,6,0,0,0,1.23.11l0.39,0A12,12,0,0,0,24,12h0Zm-1.71.17a11.73,11.73,0,0,0-.23-1.75c0-.2,0-0.4,0-0.58A10.35,10.35,0,0,1,22.29,12c0,0.06,0,.11,0,0.17h0ZM1.71,12a10.3,10.3,0,0,1,.22-2.12,1.09,1.09,0,0,0,1.75-.25c0.46,0.27,1.07.32,1.07,0.87,0,1.8.06,3.72,1.7,3.75a2.33,2.33,0,0,1,1.32,1.39c0.14,0.37.7,0,1.32,0,0.31,0,0,.52,0,1.64s2.41,2.84,2.41,2.84a12.91,12.91,0,0,0,.08,1.82,4.05,4.05,0,0,0-1.36.18A10.28,10.28,0,0,1,1.71,12h0ZM14.53,22c-0.05-.26-0.29-0.4-0.71-0.29,0.34-1.45.5-2.26,1.21-2.87A1,1,0,0,0,14.38,17c-0.61.09-.23-0.76-0.77-0.81s-1.27-1.14-2.06-1.51A3.57,3.57,0,0,0,10.07,14c-0.57,0-1.41.48-1.41,0.09a24.39,24.39,0,0,0-.15-2.51c0-.29-0.19-0.1.59-0.08,0.42,0,.21-0.85.63-0.88a8.15,8.15,0,0,0,1.63.22c0.23-.15,1.7,3.85,1.7.66a3.34,3.34,0,0,1,0-1.39,16.68,16.68,0,0,0,1.44-2.74,2.13,2.13,0,0,0-1.4,0c-0.2.07,0.06,0.39-.23,0.46-1.1.25-2.07-.3-1.73-0.81s1.61-.23,1.72-1.29C12.92,5.09,13,4.39,13,3.86c1.48,0.23,1.31-1.92-.88-2.15a10.29,10.29,0,0,1,9.6,6.91,0.42,0.42,0,0,0-.24-0.11c-0.66-1.66-2.28-.46-1.73,1-2.93,2.25-2.18,3.83-1.22,4.73a8.8,8.8,0,0,1,1.3,1.7c-0.34,1,1.26.6,2.05-1.1A10.3,10.3,0,0,1,14.53,22h0Zm0,0" transform="translate(0 0)"/></svg>