<svg id="图层_1" data-name="图层 1" xmlns="http://www.w3.org/2000/svg" viewBox="0 0 24 24"><defs><style>.cls-1{fill:#fff;}</style></defs><title>icon_setting</title><path class="cls-1" d="M24,12.85a1.6,1.6,0,0,1-1.59,1.6H21.3a0.8,0.8,0,0,0-.63.49l-0.52,1.15a0.81,0.81,0,0,0,.13.84l0,0L21,17.72A1.61,1.61,0,0,1,21,20l-1.13,1.13a1.59,1.59,0,0,1-2.26,0l-0.76-.76h0a0.8,0.8,0,0,0-.75-0.07l-1.18.44a0.81,0.81,0,0,0-.49.63h0v1c0,0.05,0,.1,0,0.15v0A1.6,1.6,0,0,1,12.8,24H11.21a1.6,1.6,0,0,1-1.6-1.61v-1l-0.13,0A0.81,0.81,0,0,0,9,20.8l-1.16-.53a0.8,0.8,0,0,0-.72,0l0,0L6.35,21a1.59,1.59,0,0,1-2.26,0L3,19.91a1.61,1.61,0,0,1,0-2.27l0.79-.79,0-.08a0.81,0.81,0,0,0,0-.64L3.27,15a0.8,0.8,0,0,0-.49-0.46l0-.14H1.59A1.6,1.6,0,0,1,0,12.75v-1.6a1.6,1.6,0,0,1,1.59-1.6H2.82l0-.06a0.81,0.81,0,0,0,.43-0.43L3.8,7.9a0.81,0.81,0,0,0,0-.65l0.06-.1L3,6.28A1.61,1.61,0,0,1,3,4L4.11,2.88a1.59,1.59,0,0,1,2.26,0L6.9,3.41a0.8,0.8,0,0,0,.29.29L7.26,3.77l0,0a0.8,0.8,0,0,0,.6,0l1.18-.44a0.8,0.8,0,0,0,.46-0.49l0.06,0V1.6s0,0,0,0l0-.28A1.6,1.6,0,0,1,11.2,0h1.59a1.6,1.6,0,0,1,1.6,1.61v0.8a0.8,0.8,0,0,0,.46,1L16,3.88a0.8,0.8,0,0,0,.81-0.12h0L17.6,3,18,2.7A1.59,1.59,0,0,1,19.91,3L21,4.09a1.61,1.61,0,0,1,0,2.27l-0.79.8v0a0.81,0.81,0,0,0-.09.77l0.44,1.18a0.8,0.8,0,0,0,.67.5v0h1.08l0.42,0A1.6,1.6,0,0,1,24,11.25v1.6h0ZM12,7.71A4.33,4.33,0,1,0,16.32,12,4.33,4.33,0,0,0,12,7.71h0Zm0,0" transform="translate(0 0)"/></svg>