<svg id="图层_1" data-name="图层 1" xmlns="http://www.w3.org/2000/svg" viewBox="0 0 24 23.93"><defs><style>.cls-1{fill:#fff;}</style></defs><title>力向图</title><path class="cls-1" d="M22.13,14.4h0a5,5,0,0,0-3.6-2.8A2.49,2.49,0,0,0,16.1,9.72l-0.23,0a4.58,4.58,0,0,1,2.37-3.66,1.87,1.87,0,1,0,0-1.86A7.64,7.64,0,0,0,12,5,7.34,7.34,0,0,0,9,8.62a3,3,0,0,0-.32,0A3,3,0,0,0,7.27,9,5.65,5.65,0,0,1,8.58,3.62a2.1,2.1,0,1,0-.34-0.54A6.27,6.27,0,0,0,6.73,9.36a3,3,0,0,0-1,2.23c0,0.08,0,.15,0,0.23A4.56,4.56,0,0,1,2.61,9.56,1.89,1.89,0,1,0,2,9.71a5.2,5.2,0,0,0,3.89,2.76,3,3,0,0,0,2.86,2.12h0.1A4.58,4.58,0,0,1,8.25,16a4.63,4.63,0,0,1-2.08,1.81,1.87,1.87,0,1,0-.25,1.74A8.38,8.38,0,0,0,9,20.16a7.2,7.2,0,0,0,3.4-.83A7.54,7.54,0,0,0,16,14.7H16.1a2.47,2.47,0,0,0,1.06-.24,5.65,5.65,0,0,1-1.27,6,2.16,2.16,0,1,0,.32.56,6.27,6.27,0,0,0,1.48-6.87,2.48,2.48,0,0,0,.9-1.87,4.45,4.45,0,0,1,2.89,2.27A1.86,1.86,0,1,0,22.13,14.4Zm-10,4.38a7,7,0,0,1-5.91.2,1.85,1.85,0,0,0,.08-0.53v0a5.18,5.18,0,0,0,3.18-3.93,3,3,0,0,0,.18-5.74,6.7,6.7,0,0,1,2.67-3.27A7,7,0,0,1,18,4.81a1.74,1.74,0,0,0,0,.69,5.16,5.16,0,0,0-2.77,4.38,2.48,2.48,0,0,0,.2,4.72A6.92,6.92,0,0,1,12.13,18.77Z" transform="translate(0 -0.04)"/></svg>