<svg id="图层_1" data-name="图层 1" xmlns="http://www.w3.org/2000/svg" viewBox="0 0 24 24.09"><defs><style>.cls-1{fill:#fff;}</style></defs><title>icon_折线</title><path class="cls-1" d="M3.71,13.69a2.7,2.7,0,0,1-1.07-.22A2.68,2.68,0,0,1,1.18,12,2.7,2.7,0,0,1,1,10.94a2.63,2.63,0,0,1,.22-1.06A2.71,2.71,0,0,1,2.64,8.42a2.7,2.7,0,0,1,1.07-.22H4.13L7.93,3.61a1.3,1.3,0,0,1-.12-0.43,4.26,4.26,0,0,1,0-.48A2.85,2.85,0,0,1,8,1.64,2.64,2.64,0,0,1,8.57.76a2.8,2.8,0,0,1,2-.8,2.7,2.7,0,0,1,1.07.22,2.73,2.73,0,0,1,.88.58,2.76,2.76,0,0,1,.58.88,2.65,2.65,0,0,1,.22,1.07,2.66,2.66,0,0,1-.15.88,4.19,4.19,0,0,1-.39.81L16,11.77l1.88-3.39a2.87,2.87,0,0,1-.35-0.72,2.62,2.62,0,0,1-.13-0.84,2.7,2.7,0,0,1,.22-1.07,2.68,2.68,0,0,1,1.46-1.46,2.75,2.75,0,0,1,2.15,0,2.88,2.88,0,0,1,.89.58,2.73,2.73,0,0,1,.82,2,2.68,2.68,0,0,1-.22,1.09,2.82,2.82,0,0,1-.6.88,2.86,2.86,0,0,1-.89.6,2.65,2.65,0,0,1-1.07.22H19.72L17.86,13a3.13,3.13,0,0,1,.67.93A2.62,2.62,0,0,1,18.79,15a2.85,2.85,0,0,1-.21,1.07A2.52,2.52,0,0,1,18,17a3.1,3.1,0,0,1-.88.6,2.6,2.6,0,0,1-1.07.22,2.68,2.68,0,0,1-2-.82,2.92,2.92,0,0,1-.58-0.89A2.65,2.65,0,0,1,13.28,15a2.73,2.73,0,0,1,.24-1.15A2.76,2.76,0,0,1,14.21,13L10.84,5.47l-0.32,0a2.35,2.35,0,0,1-.6-0.07A2.67,2.67,0,0,1,9.4,5.22L6.06,9.45a3.16,3.16,0,0,1,.32.7,2.58,2.58,0,0,1,.12.79A2.7,2.7,0,0,1,6.28,12a2.66,2.66,0,0,1-.6.88,3,3,0,0,1-.88.58,2.59,2.59,0,0,1-1.09.22h0ZM0,20.4H24V24H0V20.4Z" transform="translate(0 0.04)"/></svg>