<?xml version="1.0" encoding="utf-8"?>
<!-- Generator: Adobe Illustrator 19.2.1, SVG Export Plug-In . SVG Version: 6.00 Build 0)  -->
<svg version="1.1" id="图层_1" xmlns="http://www.w3.org/2000/svg" xmlns:xlink="http://www.w3.org/1999/xlink" x="0px" y="0px"
	 viewBox="0 0 128 128" style="enable-background:new 0 0 128 128;" xml:space="preserve">
<style type="text/css">
	.st0{fill:url(#SVGID_1_);}
	.st1{fill:url(#SVGID_2_);}
	.st2{fill:url(#SVGID_3_);}
	.st3{fill:url(#SVGID_4_);}
	.st4{fill:url(#SVGID_5_);}
	.st5{fill:url(#SVGID_6_);}
	.st6{fill:url(#SVGID_7_);}
	.st7{fill:url(#SVGID_8_);}
	.st8{fill:url(#SVGID_9_);}
	.st9{fill:url(#SVGID_10_);}
	.st10{fill:url(#SVGID_11_);}
	.st11{fill:url(#SVGID_12_);}
	.st12{fill:url(#SVGID_13_);}
	.st13{fill:url(#SVGID_14_);}
	.st14{fill:url(#SVGID_15_);}
	.st15{fill:url(#SVGID_16_);}
	.st16{fill:url(#SVGID_17_);}
	.st17{fill:url(#SVGID_18_);}
	.st18{fill:url(#SVGID_19_);}
	.st19{fill:url(#SVGID_20_);}
	.st20{fill:url(#SVGID_21_);}
	.st21{fill:url(#SVGID_22_);}
	.st22{fill:url(#SVGID_23_);}
	.st23{fill:url(#SVGID_24_);}
	.st24{fill:url(#SVGID_25_);}
	.st25{fill:url(#SVGID_26_);}
	.st26{fill:url(#SVGID_27_);}
</style>
<g>
	<g>
		
			<linearGradient id="SVGID_1_" gradientUnits="userSpaceOnUse" x1="279.6946" y1="-205.5078" x2="307.8807" y2="-205.5078" gradientTransform="matrix(4.489659e-11 1 -1 4.489659e-11 -198.8798 -201.6959)">
			<stop  offset="1.501031e-02" style="stop-color:#5B5B5B"/>
			<stop  offset="0.2893" style="stop-color:#C9C9C9"/>
			<stop  offset="0.5035" style="stop-color:#525252"/>
			<stop  offset="0.7827" style="stop-color:#8E8E8E"/>
			<stop  offset="1" style="stop-color:#535353"/>
		</linearGradient>
		<polygon class="st0" points="1.5,106.2 1.5,78 11.8,78 11.8,106.2 		"/>
		<g>
			
				<linearGradient id="SVGID_2_" gradientUnits="userSpaceOnUse" x1="279.6946" y1="-199.6185" x2="307.8807" y2="-199.6185" gradientTransform="matrix(4.489659e-11 1 -1 4.489659e-11 -198.8798 -201.6959)">
				<stop  offset="1.501031e-02" style="stop-color:#797979"/>
				<stop  offset="0.2893" style="stop-color:#D2D2D2"/>
				<stop  offset="0.5035" style="stop-color:#808080"/>
				<stop  offset="0.7827" style="stop-color:#A3A3A3"/>
				<stop  offset="1" style="stop-color:#757575"/>
			</linearGradient>
			<polygon class="st1" points="0,105.3 0,78.9 1.5,78 1.5,106.2 			"/>
			
				<linearGradient id="SVGID_3_" gradientUnits="userSpaceOnUse" x1="279.6946" y1="-200.1208" x2="307.8807" y2="-200.1208" gradientTransform="matrix(4.489659e-11 1 -1 4.489659e-11 -198.8798 -201.6959)">
				<stop  offset="1.501031e-02" style="stop-color:#797979"/>
				<stop  offset="0.2893" style="stop-color:#FFFFFF"/>
				<stop  offset="0.5035" style="stop-color:#ABABAB"/>
				<stop  offset="0.7827" style="stop-color:#A3A3A3"/>
				<stop  offset="1" style="stop-color:#757575"/>
			</linearGradient>
			<polygon class="st2" points="1,105.9 1,78.3 1.5,78 1.5,106.2 			"/>
		</g>
		<g>
			
				<linearGradient id="SVGID_4_" gradientUnits="userSpaceOnUse" x1="279.6946" y1="-45.6963" x2="307.8807" y2="-45.6963" gradientTransform="matrix(-4.489659e-11 1 1 4.489659e-11 58.2136 -201.6959)">
				<stop  offset="1.501031e-02" style="stop-color:#797979"/>
				<stop  offset="0.2893" style="stop-color:#D2D2D2"/>
				<stop  offset="0.5035" style="stop-color:#808080"/>
				<stop  offset="0.7827" style="stop-color:#A3A3A3"/>
				<stop  offset="1" style="stop-color:#757575"/>
			</linearGradient>
			<polygon class="st3" points="13.3,105.3 13.3,78.9 11.8,78 11.8,106.2 			"/>
			
				<linearGradient id="SVGID_5_" gradientUnits="userSpaceOnUse" x1="279.6946" y1="-46.1986" x2="307.8807" y2="-46.1986" gradientTransform="matrix(-4.489659e-11 1 1 4.489659e-11 58.2136 -201.6959)">
				<stop  offset="1.501031e-02" style="stop-color:#797979"/>
				<stop  offset="0.2893" style="stop-color:#FFFFFF"/>
				<stop  offset="0.5035" style="stop-color:#ABABAB"/>
				<stop  offset="0.7827" style="stop-color:#A3A3A3"/>
				<stop  offset="1" style="stop-color:#757575"/>
			</linearGradient>
			<polygon class="st4" points="12.3,105.9 12.3,78.3 11.8,78 11.8,106.2 			"/>
		</g>
	</g>
	<g>
		
			<linearGradient id="SVGID_6_" gradientUnits="userSpaceOnUse" x1="279.6946" y1="-320.2517" x2="307.8807" y2="-320.2517" gradientTransform="matrix(4.489659e-11 1 -1 4.489659e-11 -198.8798 -201.6959)">
			<stop  offset="1.501031e-02" style="stop-color:#5B5B5B"/>
			<stop  offset="0.2893" style="stop-color:#C9C9C9"/>
			<stop  offset="0.5035" style="stop-color:#525252"/>
			<stop  offset="0.7827" style="stop-color:#8E8E8E"/>
			<stop  offset="1" style="stop-color:#535353"/>
		</linearGradient>
		<polygon class="st5" points="116.2,106.2 116.2,78 126.5,78 126.5,106.2 		"/>
		<g>
			
				<linearGradient id="SVGID_7_" gradientUnits="userSpaceOnUse" x1="279.6946" y1="-314.3625" x2="307.8807" y2="-314.3625" gradientTransform="matrix(4.489659e-11 1 -1 4.489659e-11 -198.8798 -201.6959)">
				<stop  offset="1.501031e-02" style="stop-color:#797979"/>
				<stop  offset="0.2893" style="stop-color:#D2D2D2"/>
				<stop  offset="0.5035" style="stop-color:#808080"/>
				<stop  offset="0.7827" style="stop-color:#A3A3A3"/>
				<stop  offset="1" style="stop-color:#757575"/>
			</linearGradient>
			<polygon class="st6" points="114.7,105.3 114.7,78.9 116.2,78 116.2,106.2 			"/>
			
				<linearGradient id="SVGID_8_" gradientUnits="userSpaceOnUse" x1="279.6946" y1="-314.8647" x2="307.8807" y2="-314.8647" gradientTransform="matrix(4.489659e-11 1 -1 4.489659e-11 -198.8798 -201.6959)">
				<stop  offset="1.501031e-02" style="stop-color:#797979"/>
				<stop  offset="0.2893" style="stop-color:#FFFFFF"/>
				<stop  offset="0.5035" style="stop-color:#ABABAB"/>
				<stop  offset="0.7827" style="stop-color:#A3A3A3"/>
				<stop  offset="1" style="stop-color:#757575"/>
			</linearGradient>
			<polygon class="st7" points="115.7,105.9 115.7,78.3 116.2,78 116.2,106.2 			"/>
		</g>
		<g>
			
				<linearGradient id="SVGID_9_" gradientUnits="userSpaceOnUse" x1="279.6946" y1="69.0476" x2="307.8807" y2="69.0476" gradientTransform="matrix(-4.489659e-11 1 1 4.489659e-11 58.2136 -201.6959)">
				<stop  offset="1.501031e-02" style="stop-color:#797979"/>
				<stop  offset="0.2893" style="stop-color:#D2D2D2"/>
				<stop  offset="0.5035" style="stop-color:#808080"/>
				<stop  offset="0.7827" style="stop-color:#A3A3A3"/>
				<stop  offset="1" style="stop-color:#757575"/>
			</linearGradient>
			<polygon class="st8" points="128,105.3 128,78.9 126.5,78 126.5,106.2 			"/>
			
				<linearGradient id="SVGID_10_" gradientUnits="userSpaceOnUse" x1="279.6946" y1="68.5454" x2="307.8807" y2="68.5454" gradientTransform="matrix(-4.489659e-11 1 1 4.489659e-11 58.2136 -201.6959)">
				<stop  offset="1.501031e-02" style="stop-color:#797979"/>
				<stop  offset="0.2893" style="stop-color:#FFFFFF"/>
				<stop  offset="0.5035" style="stop-color:#ABABAB"/>
				<stop  offset="0.7827" style="stop-color:#A3A3A3"/>
				<stop  offset="1" style="stop-color:#757575"/>
			</linearGradient>
			<polygon class="st9" points="127,105.9 127,78.3 126.5,78 126.5,106.2 			"/>
		</g>
	</g>
	
		<linearGradient id="SVGID_11_" gradientUnits="userSpaceOnUse" x1="282.9947" y1="-262.8798" x2="304.5806" y2="-262.8798" gradientTransform="matrix(4.489659e-11 1 -1 4.489659e-11 -198.8798 -201.6959)">
		<stop  offset="1.501031e-02" style="stop-color:#5B5B5B"/>
		<stop  offset="0.2893" style="stop-color:#C9C9C9"/>
		<stop  offset="0.5035" style="stop-color:#525252"/>
		<stop  offset="0.7827" style="stop-color:#8E8E8E"/>
		<stop  offset="1" style="stop-color:#535353"/>
	</linearGradient>
	<polygon class="st10" points="13.3,102.9 13.3,81.3 114.7,81.3 114.7,102.9 	"/>
	<g>
		
			<linearGradient id="SVGID_12_" gradientUnits="userSpaceOnUse" x1="-106.8079" y1="-433.2832" x2="-72.2703" y2="-433.2832" gradientTransform="matrix(1 0 0 1 153.4915 518.2624)">
			<stop  offset="1.501031e-02" style="stop-color:#5B5B5B"/>
			<stop  offset="0.2893" style="stop-color:#C9C9C9"/>
			<stop  offset="0.5035" style="stop-color:#525252"/>
			<stop  offset="0.7827" style="stop-color:#8E8E8E"/>
			<stop  offset="1" style="stop-color:#535353"/>
		</linearGradient>
		<path class="st11" d="M64,98.6L64,98.6c-9.5,0-17.3-7.7-17.3-17.3v-9.9h34.5v9.9C81.2,90.8,73.5,98.6,64,98.6z"/>
	</g>
	<g>
		
			<linearGradient id="SVGID_13_" gradientUnits="userSpaceOnUse" x1="-103.6134" y1="-398.7415" x2="-52.5245" y2="-398.7415" gradientTransform="matrix(1 0 0 1 142.0213 467.8121)">
			<stop  offset="1.501031e-02" style="stop-color:#5B5B5B"/>
			<stop  offset="0.2893" style="stop-color:#C9C9C9"/>
			<stop  offset="0.5035" style="stop-color:#525252"/>
			<stop  offset="0.7827" style="stop-color:#8E8E8E"/>
			<stop  offset="1" style="stop-color:#535353"/>
		</linearGradient>
		<rect x="38.4" y="64.9" class="st12" width="51.1" height="8.3"/>
		<g>
			
				<linearGradient id="SVGID_14_" gradientUnits="userSpaceOnUse" x1="-103.6134" y1="-394.0132" x2="-52.5245" y2="-394.0132" gradientTransform="matrix(1 0 0 1 142.0213 467.8121)">
				<stop  offset="1.501031e-02" style="stop-color:#797979"/>
				<stop  offset="0.2893" style="stop-color:#D2D2D2"/>
				<stop  offset="0.5035" style="stop-color:#808080"/>
				<stop  offset="0.7827" style="stop-color:#A3A3A3"/>
				<stop  offset="1" style="stop-color:#757575"/>
			</linearGradient>
			<polygon class="st13" points="87.8,74.4 40.1,74.4 38.4,73.2 89.5,73.2 			"/>
			
				<linearGradient id="SVGID_15_" gradientUnits="userSpaceOnUse" x1="-103.6134" y1="-394.4165" x2="-52.5245" y2="-394.4165" gradientTransform="matrix(1 0 0 1 142.0213 467.8121)">
				<stop  offset="1.501031e-02" style="stop-color:#797979"/>
				<stop  offset="0.2893" style="stop-color:#FFFFFF"/>
				<stop  offset="0.5035" style="stop-color:#ABABAB"/>
				<stop  offset="0.7827" style="stop-color:#A3A3A3"/>
				<stop  offset="1" style="stop-color:#757575"/>
			</linearGradient>
			<polygon class="st14" points="89,73.6 38.9,73.6 38.4,73.2 89.5,73.2 			"/>
		</g>
		<g>
			
				<linearGradient id="SVGID_16_" gradientUnits="userSpaceOnUse" x1="-103.6134" y1="146.3763" x2="-52.5245" y2="146.3763" gradientTransform="matrix(1 0 0 -1 142.0213 210.7187)">
				<stop  offset="1.501031e-02" style="stop-color:#797979"/>
				<stop  offset="0.2893" style="stop-color:#D2D2D2"/>
				<stop  offset="0.5035" style="stop-color:#808080"/>
				<stop  offset="0.7827" style="stop-color:#A3A3A3"/>
				<stop  offset="1" style="stop-color:#757575"/>
			</linearGradient>
			<polygon class="st15" points="87.8,63.7 40.1,63.7 38.4,64.9 89.5,64.9 			"/>
			
				<linearGradient id="SVGID_17_" gradientUnits="userSpaceOnUse" x1="-103.6134" y1="145.9731" x2="-52.5245" y2="145.9731" gradientTransform="matrix(1 0 0 -1 142.0213 210.7187)">
				<stop  offset="1.501031e-02" style="stop-color:#797979"/>
				<stop  offset="0.2893" style="stop-color:#FFFFFF"/>
				<stop  offset="0.5035" style="stop-color:#ABABAB"/>
				<stop  offset="0.7827" style="stop-color:#A3A3A3"/>
				<stop  offset="1" style="stop-color:#757575"/>
			</linearGradient>
			<polygon class="st16" points="89,64.6 38.9,64.6 38.4,64.9 89.5,64.9 			"/>
		</g>
	</g>
	<g>
		
			<linearGradient id="SVGID_18_" gradientUnits="userSpaceOnUse" x1="-102.1298" y1="-425.017" x2="-54.0081" y2="-425.017" gradientTransform="matrix(1 0 0 1 142.0213 467.8121)">
			<stop  offset="1.501031e-02" style="stop-color:#5B5B5B"/>
			<stop  offset="0.2893" style="stop-color:#C9C9C9"/>
			<stop  offset="0.5035" style="stop-color:#525252"/>
			<stop  offset="0.7827" style="stop-color:#8E8E8E"/>
			<stop  offset="1" style="stop-color:#535353"/>
		</linearGradient>
		<path class="st17" d="M88,63.7H39.9V28.5c0-3.7,3-6.7,6.7-6.7h34.8c3.7,0,6.7,3,6.7,6.7V63.7z"/>
		<linearGradient id="SVGID_19_" gradientUnits="userSpaceOnUse" x1="43.1703" y1="22.4103" x2="84.7355" y2="22.4103">
			<stop  offset="1.501031e-02" style="stop-color:#797979"/>
			<stop  offset="0.2893" style="stop-color:#D2D2D2"/>
			<stop  offset="0.5035" style="stop-color:#808080"/>
			<stop  offset="0.7827" style="stop-color:#A3A3A3"/>
			<stop  offset="1" style="stop-color:#757575"/>
		</linearGradient>
		<path class="st18" d="M84.7,23L84.7,23c0-0.7-0.5-1.2-1.2-1.2H44.4c-0.7,0-1.2,0.5-1.2,1.2l0.4-0.4h1.9h37c0,0.1-0.1,0.4-0.1,0.4
			S84.7,23,84.7,23C84.7,23,84.7,23,84.7,23L84.7,23z"/>
		<g>
			
				<linearGradient id="SVGID_20_" gradientUnits="userSpaceOnUse" x1="-102.1298" y1="-404.0628" x2="-54.0081" y2="-404.0628" gradientTransform="matrix(1 0 0 1 142.0213 467.8121)">
				<stop  offset="1.501031e-02" style="stop-color:#797979"/>
				<stop  offset="0.2893" style="stop-color:#D2D2D2"/>
				<stop  offset="0.5035" style="stop-color:#808080"/>
				<stop  offset="0.7827" style="stop-color:#A3A3A3"/>
				<stop  offset="1" style="stop-color:#757575"/>
			</linearGradient>
			<line class="st19" x1="39.9" y1="63.7" x2="88" y2="63.7"/>
		</g>
		<g>
			
				<linearGradient id="SVGID_21_" gradientUnits="userSpaceOnUse" x1="-98.8521" y1="188.3104" x2="-57.2858" y2="188.3104" gradientTransform="matrix(1 0 0 -1 142.0213 210.7187)">
				<stop  offset="1.501031e-02" style="stop-color:#797979"/>
				<stop  offset="0.2893" style="stop-color:#D2D2D2"/>
				<stop  offset="0.5035" style="stop-color:#808080"/>
				<stop  offset="0.7827" style="stop-color:#A3A3A3"/>
				<stop  offset="1" style="stop-color:#757575"/>
			</linearGradient>
			<path class="st20" d="M43.2,23L43.2,23c0-0.7,0.5-1.2,1.2-1.2"/>
			
				<linearGradient id="SVGID_22_" gradientUnits="userSpaceOnUse" x1="-98.8521" y1="187.9072" x2="-57.2858" y2="187.9072" gradientTransform="matrix(1 0 0 -1 142.0213 210.7187)">
				<stop  offset="1.501031e-02" style="stop-color:#797979"/>
				<stop  offset="0.2893" style="stop-color:#D2D2D2"/>
				<stop  offset="0.5035" style="stop-color:#808080"/>
				<stop  offset="0.7827" style="stop-color:#A3A3A3"/>
				<stop  offset="1" style="stop-color:#757575"/>
			</linearGradient>
			<path class="st21" d="M84.3,22.6H45.5c0,0.1,0.1,0.2,0.1,0.4h39.2L84.3,22.6z"/>
			
				<linearGradient id="SVGID_23_" gradientUnits="userSpaceOnUse" x1="-98.8521" y1="187.9072" x2="-57.2858" y2="187.9072" gradientTransform="matrix(1 0 0 -1 142.0213 210.7187)">
				<stop  offset="1.501031e-02" style="stop-color:#797979"/>
				<stop  offset="0.2893" style="stop-color:#FFFFFF"/>
				<stop  offset="0.5035" style="stop-color:#ABABAB"/>
				<stop  offset="0.7827" style="stop-color:#A3A3A3"/>
				<stop  offset="1" style="stop-color:#757575"/>
			</linearGradient>
			<path class="st22" d="M84.3,22.6H45.5c0,0.1,0.1,0.2,0.1,0.4h39.2L84.3,22.6z"/>
			
				<linearGradient id="SVGID_24_" gradientUnits="userSpaceOnUse" x1="-98.8521" y1="187.7178" x2="-90.9496" y2="187.7178" gradientTransform="matrix(1 0 0 -1 142.0213 210.7187)">
				<stop  offset="1.501031e-02" style="stop-color:#797979"/>
				<stop  offset="0.2893" style="stop-color:#D2D2D2"/>
				<stop  offset="0.5035" style="stop-color:#808080"/>
				<stop  offset="0.7827" style="stop-color:#A3A3A3"/>
				<stop  offset="1" style="stop-color:#757575"/>
			</linearGradient>
			<polygon class="st23" points="43.2,23 43.2,23 43.2,23 			"/>
			
				<linearGradient id="SVGID_25_" gradientUnits="userSpaceOnUse" x1="-98.8521" y1="187.7178" x2="-90.9496" y2="187.7178" gradientTransform="matrix(1 0 0 -1 142.0213 210.7187)">
				<stop  offset="1.501031e-02" style="stop-color:#797979"/>
				<stop  offset="0.2893" style="stop-color:#FFFFFF"/>
				<stop  offset="0.5035" style="stop-color:#ABABAB"/>
				<stop  offset="0.7827" style="stop-color:#A3A3A3"/>
				<stop  offset="1" style="stop-color:#757575"/>
			</linearGradient>
			<polygon class="st24" points="43.2,23 43.2,23 43.2,23 			"/>
			
				<linearGradient id="SVGID_26_" gradientUnits="userSpaceOnUse" x1="-98.8513" y1="187.9072" x2="-57.2851" y2="187.9072" gradientTransform="matrix(1 0 0 -1 142.0213 210.7187)">
				<stop  offset="1.501031e-02" style="stop-color:#797979"/>
				<stop  offset="0.2893" style="stop-color:#D2D2D2"/>
				<stop  offset="0.5035" style="stop-color:#808080"/>
				<stop  offset="0.7827" style="stop-color:#A3A3A3"/>
				<stop  offset="1" style="stop-color:#757575"/>
			</linearGradient>
			<path class="st25" d="M43.6,22.6L43.2,23c0,0,0,0,0,0h2.4c0-0.1,0-0.3-0.1-0.4H43.6z"/>
			
				<linearGradient id="SVGID_27_" gradientUnits="userSpaceOnUse" x1="-98.8513" y1="187.9072" x2="-57.2851" y2="187.9072" gradientTransform="matrix(1 0 0 -1 142.0213 210.7187)">
				<stop  offset="1.501031e-02" style="stop-color:#797979"/>
				<stop  offset="0.2893" style="stop-color:#FFFFFF"/>
				<stop  offset="0.5035" style="stop-color:#ABABAB"/>
				<stop  offset="0.7827" style="stop-color:#A3A3A3"/>
				<stop  offset="1" style="stop-color:#757575"/>
			</linearGradient>
			<path class="st26" d="M43.6,22.6L43.2,23c0,0,0,0,0,0h2.4c0-0.1,0-0.3-0.1-0.4H43.6z"/>
		</g>
	</g>
	<g>
		<path d="M45.7,60.8h-0.3c-0.9,0-1.7-0.8-1.7-1.7V28.6c0-0.9,0.8-1.7,1.7-1.7h0.3c0.9,0,1.7,0.8,1.7,1.7v30.4
			C47.4,60,46.6,60.8,45.7,60.8z"/>
		<path d="M53,60.8h-0.3c-0.9,0-1.7-0.8-1.7-1.7V28.6c0-0.9,0.8-1.7,1.7-1.7H53c0.9,0,1.7,0.8,1.7,1.7v30.4C54.7,60,54,60.8,53,60.8
			z"/>
		<path d="M60.3,60.8h-0.3c-0.9,0-1.7-0.8-1.7-1.7V28.6c0-0.9,0.8-1.7,1.7-1.7h0.3c0.9,0,1.7,0.8,1.7,1.7v30.4
			C62.1,60,61.3,60.8,60.3,60.8z"/>
		<path d="M67.7,60.8h-0.3c-0.9,0-1.7-0.8-1.7-1.7V28.6c0-0.9,0.8-1.7,1.7-1.7h0.3c0.9,0,1.7,0.8,1.7,1.7v30.4
			C69.4,60,68.6,60.8,67.7,60.8z"/>
		<path d="M75,60.8h-0.3c-0.9,0-1.7-0.8-1.7-1.7V28.6c0-0.9,0.8-1.7,1.7-1.7H75c0.9,0,1.7,0.8,1.7,1.7v30.4C76.7,60,76,60.8,75,60.8
			z"/>
		<path d="M82.3,60.8h-0.3c-0.9,0-1.7-0.8-1.7-1.7V28.6c0-0.9,0.8-1.7,1.7-1.7h0.3c0.9,0,1.7,0.8,1.7,1.7v30.4
			C84.1,60,83.3,60.8,82.3,60.8z"/>
	</g>
</g>
</svg>
