<?xml version="1.0" encoding="utf-8"?>
<!-- Generator: Adobe Illustrator 19.2.1, SVG Export Plug-In . SVG Version: 6.00 Build 0)  -->
<svg version="1.1" id="图层_1" xmlns="http://www.w3.org/2000/svg" xmlns:xlink="http://www.w3.org/1999/xlink" x="0px" y="0px"
	 viewBox="0 0 64 64" style="enable-background:new 0 0 64 64;" xml:space="preserve">
<style type="text/css">
	.st0{fill:#0AADED;}
	.st1{fill:#FFFFFF;}
</style>
<g>
	<path class="st0" d="M32,0C14.3,0,0,14.3,0,32s14.3,32,32,32s32-14.3,32-32S49.7,0,32,0z"/>
</g>
<g>
	<g>
		<path class="st1" d="M32,60.4C16.3,60.4,3.6,47.7,3.6,32S16.3,3.6,32,3.6S60.4,16.3,60.4,32S47.7,60.4,32,60.4z M32,6.6
			C18,6.6,6.6,18,6.6,32S18,57.4,32,57.4S57.4,46,57.4,32S46,6.6,32,6.6z"/>
	</g>
</g>
<g>
	<polygon class="st1" points="22.7,43.9 22.7,43.9 22.7,43.9 	"/>
	<path class="st1" d="M47.2,46.5l-2.5-2.5h-3.4l0.9,1H21.9l0.9-1h-3.4l-2.5,2.5c-0.3,0.5-0.2,1,0.4,1H19c0.6,0,1-0.4,1.5-0.9
		l0.7-0.8h21.5l0.7,0.8c0.5,0.5,1,0.9,1.5,0.9h1.9C47.4,47.5,47.5,46.9,47.2,46.5z"/>
	<path class="st1" d="M19.7,42.2h1.4l0,0h3.2l0,0h15.4l0,0h3.2l0,0h1.2c0.6,0,1.5-0.8,1.5-1.4L45,20.3c0-0.8-0.7-1.5-1.5-1.8
		c0,0-3.5-1.4-7.4-2.2c-0.4-1.8-2.1-3.2-4.1-3.2c-2,0-3.7,1.4-4.1,3.2c-3.9,0.7-7.5,2.2-7.5,2.2c-0.8,0.3-1.5,1-1.5,1.8l-0.7,20.5
		C18.2,41.3,19.2,42.2,19.7,42.2z M24.2,39.9c-1.4,0-2.5-1.1-2.5-2.4c0-1.3,1.1-2.4,2.5-2.4s2.5,1.1,2.5,2.4
		C26.7,38.8,25.6,39.9,24.2,39.9z M39.6,39.9c-1.4,0-2.5-1.1-2.5-2.4c0-1.3,1.1-2.4,2.5-2.4c1.4,0,2.5,1.1,2.5,2.4
		C42.1,38.8,41,39.9,39.6,39.9z M31.9,15.5c1,0,1.8,0.8,1.8,1.7S32.9,19,31.9,19c-1,0-1.8-0.8-1.8-1.7C30.2,16.3,31,15.5,31.9,15.5z
		 M21.5,21.9c0-0.8,0.7-1.5,1.5-1.5c0,0,2.3-0.7,5.3-1.2c0.7,1.3,2.1,2.1,3.7,2.1c1.6,0,2.9-0.9,3.7-2.1c2.9,0.4,5.2,1.2,5.2,1.2
		c0.8,0,1.5,0.7,1.5,1.5l0.7,9.7c0,0.5-0.5,1-1,1H21.8c-0.6,0-1-0.4-1-1L21.5,21.9z"/>
</g>
</svg>
