<?xml version="1.0" encoding="utf-8"?>
<!-- Generator: Adobe Illustrator 15.0.0, SVG Export Plug-In . SVG Version: 6.00 Build 0)  -->
<!DOCTYPE svg PUBLIC "-//W3C//DTD SVG 1.1//EN" "http://www.w3.org/Graphics/SVG/1.1/DTD/svg11.dtd">
<svg version="1.1" id="Layer_1" xmlns="http://www.w3.org/2000/svg" xmlns:xlink="http://www.w3.org/1999/xlink" x="0px" y="0px"
	 width="716px" height="717px" viewBox="0 0 716 717" enable-background="new 0 0 716 717" xml:space="preserve">
<g>
	<defs>
		<rect id="SVGID_1_" width="716" height="717"/>
	</defs>
	<clipPath id="SVGID_2_">
		<use xlink:href="#SVGID_1_"  overflow="visible"/>
	</clipPath>
	<rect x="0.06" y="563.399" clip-path="url(#SVGID_2_)" fill="#272636" width="435.139" height="51.198"/>
	<rect x="588.801" y="563.399" clip-path="url(#SVGID_2_)" fill="#272636" width="127.299" height="51.198"/>
	<path clip-path="url(#SVGID_2_)" fill="#272636" d="M563.199,665.001c0,28.719-22.922,52-51.199,52s-51.199-23.281-51.199-52v-152
		c0-28.719,22.922-52,51.199-52s51.199,23.281,51.199,52V665.001z"/>
	<rect x="0.06" y="333.001" clip-path="url(#SVGID_2_)" fill="#272636" width="127.94" height="51.199"/>
	<rect x="281.602" y="333.001" clip-path="url(#SVGID_2_)" fill="#272636" width="434.498" height="51.199"/>
	<path clip-path="url(#SVGID_2_)" fill="#272636" d="M256,434.598c0,28.72-22.922,52-51.199,52c-28.278,0-51.199-23.28-51.199-52
		v-152c0-28.718,22.921-52,51.199-52c28.277,0,51.199,23.282,51.199,52V434.598z"/>
	<rect x="0.06" y="102.598" clip-path="url(#SVGID_2_)" fill="#272636" width="435.139" height="51.204"/>
	<rect x="588.801" y="102.598" clip-path="url(#SVGID_2_)" fill="#272636" width="127.299" height="51.204"/>
	<path clip-path="url(#SVGID_2_)" fill="#272636" d="M563.199,204.2c0,28.719-22.922,52-51.199,52s-51.199-23.281-51.199-52v-152
		c0-28.719,22.922-52,51.199-52s51.199,23.281,51.199,52V204.2z"/>
</g>
</svg>
