<?xml version="1.0" encoding="utf-8"?>
<!-- Generator: Adobe Illustrator 15.0.0, SVG Export Plug-In . SVG Version: 6.00 Build 0)  -->
<!DOCTYPE svg PUBLIC "-//W3C//DTD SVG 1.1//EN" "http://www.w3.org/Graphics/SVG/1.1/DTD/svg11.dtd">
<svg version="1.1" id="图层_1" xmlns="http://www.w3.org/2000/svg" xmlns:xlink="http://www.w3.org/1999/xlink" x="0px" y="0px"
	 width="595.279px" height="595.281px" viewBox="123.305 0 595.279 595.281" enable-background="new 123.305 0 595.279 595.281"
	 xml:space="preserve">
<g id="图层_1_1_">
	<g>
		<circle fill="#0AADED" cx="420.945" cy="313.452" r="19.533"/>
		<circle fill="#0AADED" cx="420.945" cy="395.303" r="10.231"/>
		<polygon fill="#0AADED" points="334.444,220.44 334.444,232.531 507.447,232.531 507.447,220.44 507.447,216.719 334.444,216.719 
					"/>
		<circle fill="#0AADED" cx="420.945" cy="365.54" r="10.231"/>
		<path fill="#0AADED" d="M334.444,257.644c0,3.721,3.72,6.512,6.511,6.512h159.981c3.72,0,6.511-3.721,6.511-6.512v-10.23H334.444
			V257.644z"/>
		<path fill="#0AADED" d="M420.945,52.087c-135.798,0-245.553,109.755-245.553,245.554c0,135.798,109.755,245.553,245.553,245.553
			S666.497,433.438,666.497,297.64C666.497,161.842,556.742,52.087,420.945,52.087z M526.979,442.74
			c0,10.231-8.371,17.672-17.672,17.672H332.583c-10.231,0-17.673-8.371-17.673-17.672V152.541c0-10.231,8.371-17.673,17.673-17.673
			h175.793c10.231,0,17.673,8.371,17.673,17.673L526.979,442.74L526.979,442.74z"/>
		<path fill="#0AADED" d="M500.936,153.47H340.954c-3.721,0-6.511,3.721-6.511,6.511v10.231h173.933v-10.231
			C507.447,156.261,504.656,153.47,500.936,153.47z"/>
		<polygon fill="#0AADED" points="334.444,194.396 334.444,200.907 334.444,201.838 507.447,201.838 507.447,200.907 
			507.447,194.396 507.447,184.165 334.444,184.165 		"/>
	</g>
</g>
<g id="图层_2">
</g>
<g id="图层_1_2_">
	<g>
		<path fill="#0AADED" d="M420.945,18.602c153.471,0,279.038,125.567,279.038,279.038S574.415,576.677,420.945,576.677
			S141.907,451.111,141.907,297.64S267.474,18.602,420.945,18.602 M420.945,0c-164.632,0-297.64,133.008-297.64,297.641
			c0,164.632,133.008,297.641,297.64,297.641s297.64-133.009,297.64-297.641C718.584,133.008,585.576,0,420.945,0L420.945,0z"/>
	</g>
</g>
<g id="图层_2_1_">
</g>
</svg>
