<?xml version="1.0" encoding="utf-8"?>
<!-- Generator: Adobe Illustrator 19.2.1, SVG Export Plug-In . SVG Version: 6.00 Build 0)  -->
<svg version="1.1" id="图层_1" xmlns="http://www.w3.org/2000/svg" xmlns:xlink="http://www.w3.org/1999/xlink" x="0px" y="0px"
	 viewBox="0 0 64 64" style="enable-background:new 0 0 64 64;" xml:space="preserve">
<style type="text/css">
	.st0{fill:#0AADED;}
</style>
<g id="图层_1_1_">
	<g>
		<circle class="st0" cx="32" cy="33.5" r="2.4"/>
		<circle class="st0" cx="32" cy="43.4" r="1.2"/>
		<polygon class="st0" points="21.4,22.1 21.4,23.6 42.6,23.6 42.6,22.1 42.6,21.6 21.4,21.6 		"/>
		<circle class="st0" cx="32" cy="39.8" r="1.2"/>
		<path class="st0" d="M21.4,26.6c0,0.5,0.4,0.8,0.8,0.8h19.5c0.5,0,0.8-0.4,0.8-0.8v-1.2H21.4V26.6z"/>
		<path class="st0" d="M32,0C14.3,0,0,14.3,0,32s14.3,32,32,32s32-14.3,32-32S49.7,0,32,0z M45,49.2c0,1.2-1,2.2-2.2,2.2H21.2
			c-1.3,0-2.2-1-2.2-2.2V13.8c0-1.2,1-2.2,2.2-2.2h21.5c1.2,0,2.2,1,2.2,2.2V49.2z"/>
		<path class="st0" d="M41.8,13.9H22.2c-0.5,0-0.8,0.4-0.8,0.8V16h21.2v-1.2C42.6,14.3,42.2,13.9,41.8,13.9z"/>
		<polygon class="st0" points="21.4,18.9 21.4,19.7 21.4,19.8 42.6,19.8 42.6,19.7 42.6,18.9 42.6,17.7 21.4,17.7 		"/>
	</g>
</g>
<g id="图层_2">
</g>
</svg>
