<?xml version="1.0" encoding="utf-8"?>
<!-- Generator: Adobe Illustrator 15.0.0, SVG Export Plug-In . SVG Version: 6.00 Build 0)  -->
<!DOCTYPE svg PUBLIC "-//W3C//DTD SVG 1.1//EN" "http://www.w3.org/Graphics/SVG/1.1/DTD/svg11.dtd">
<svg version="1.1" xmlns="http://www.w3.org/2000/svg" xmlns:xlink="http://www.w3.org/1999/xlink" x="0px" y="0px"
	 width="595.279px" height="595.281px" viewBox="0 0 595.279 595.281" enable-background="new 0 0 595.279 595.281"
	 xml:space="preserve">
<g id="Layer_2">
	<g id="图层_2">
	</g>
	<g id="图层_2_1_">
	</g>
	<circle fill="#FFFFFF" cx="297.103" cy="297.639" r="289.5"/>
</g>
<g id="图层_1">
	<g id="图层_1_1_">
		<g>
			<circle fill="#0AADED" cx="297.638" cy="313.451" r="19.533"/>
			<circle fill="#0AADED" cx="297.638" cy="395.302" r="10.231"/>
			<polygon fill="#0AADED" points="211.137,220.439 211.137,232.53 384.14,232.53 384.14,220.439 384.14,216.719 211.137,216.719 
							"/>
			<circle fill="#0AADED" cx="297.638" cy="365.539" r="10.231"/>
			<path fill="#0AADED" d="M211.137,257.643c0,3.721,3.72,6.512,6.511,6.512H377.63c3.72,0,6.511-3.721,6.511-6.512v-10.23H211.137
				V257.643z"/>
			<path fill="#0AADED" d="M297.638,52.086c-135.798,0-245.553,109.755-245.553,245.555c0,135.798,109.755,245.553,245.553,245.553
				S543.19,433.437,543.19,297.639C543.19,161.841,433.435,52.086,297.638,52.086z M403.673,442.739
				c0,10.231-8.371,17.672-17.672,17.672H209.276c-10.23,0-17.673-8.371-17.673-17.672V152.54c0-10.23,8.371-17.673,17.673-17.673
				h175.793c10.231,0,17.674,8.371,17.674,17.673L403.673,442.739L403.673,442.739z"/>
			<path fill="#0AADED" d="M377.63,153.469H217.647c-3.721,0-6.511,3.721-6.511,6.511v10.23H385.07v-10.23
				C384.14,156.26,381.349,153.469,377.63,153.469z"/>
			<polygon fill="#0AADED" points="211.137,194.395 211.137,200.906 211.137,201.837 384.14,201.837 384.14,200.906 384.14,194.395 
				384.14,184.164 211.137,184.164 			"/>
		</g>
	</g>
	<g id="图层_1_2_">
		<g>
			<path fill="#0AADED" d="M297.638,18.601c153.472,0,279.038,125.566,279.038,279.038c0,153.471-125.568,279.037-279.038,279.037
				S18.6,451.11,18.6,297.639C18.6,144.168,144.168,18.601,297.638,18.601 M297.638-0.001c-164.632,0-297.64,133.008-297.64,297.642
				c0,164.632,133.008,297.641,297.64,297.641S595.279,462.272,595.279,297.64C595.278,133.007,462.269-0.001,297.638-0.001
				L297.638-0.001z"/>
		</g>
	</g>
</g>
</svg>
