<?xml version="1.0" encoding="utf-8"?>
<!-- Generator: Adobe Illustrator 15.0.0, SVG Export Plug-In . SVG Version: 6.00 Build 0)  -->
<!DOCTYPE svg PUBLIC "-//W3C//DTD SVG 1.1//EN" "http://www.w3.org/Graphics/SVG/1.1/DTD/svg11.dtd">
<svg version="1.1" id="Layer_1" xmlns="http://www.w3.org/2000/svg" xmlns:xlink="http://www.w3.org/1999/xlink" x="0px" y="0px"
	 width="595.279px" height="595.281px" viewBox="0 0 595.279 595.281" enable-background="new 0 0 595.279 595.281"
	 xml:space="preserve">
<g id="Layer_2">
	<g id="图层_2_1_">
	</g>
	<circle fill="#FFFFFF" cx="297.279" cy="297.64" r="294"/>
</g>
<g id="图层_1">
	<g id="图层_1_1_">
		<g>
			<circle fill="#FF6700" cx="297.638" cy="313.452" r="19.533"/>
			<circle fill="#FF6700" cx="297.638" cy="395.303" r="10.231"/>
			<polygon fill="#FF6700" points="211.137,220.44 211.137,232.531 384.14,232.531 384.14,220.44 384.14,216.719 211.137,216.719 
							"/>
			<circle fill="#FF6700" cx="297.638" cy="365.54" r="10.231"/>
			<path fill="#FF6700" d="M211.137,257.644c0,3.721,3.72,6.512,6.511,6.512H377.63c3.721,0,6.512-3.721,6.512-6.512v-10.23H211.137
				V257.644z"/>
			<path fill="#FF6700" d="M297.638,52.087c-135.798,0-245.553,109.755-245.553,245.556c0,135.798,109.755,245.553,245.553,245.553
				c135.797,0,245.552-109.757,245.552-245.555C543.19,161.842,433.435,52.087,297.638,52.087z M403.673,442.74
				c0,10.231-8.371,17.672-17.672,17.672H209.276c-10.23,0-17.673-8.371-17.673-17.672V152.541c0-10.229,8.371-17.673,17.673-17.673
				h175.793c10.23,0,17.674,8.371,17.674,17.673L403.673,442.74L403.673,442.74z"/>
			<path fill="#FF6700" d="M377.63,153.47H217.647c-3.721,0-6.511,3.721-6.511,6.511v10.229h173.933v-10.229
				C384.14,156.261,381.349,153.47,377.63,153.47z"/>
			<polygon fill="#FF6700" points="211.137,194.396 211.137,200.907 211.137,201.838 384.14,201.838 384.14,200.907 384.14,194.396 
				384.14,184.165 211.137,184.165 			"/>
		</g>
	</g>
	<g id="图层_2">
	</g>
	<g id="图层_1_2_">
		<g>
			<path fill="#FF6700" d="M297.638,18.602c153.472,0,279.038,125.565,279.038,279.038c0,153.471-125.567,279.037-279.038,279.037
				S18.6,451.111,18.6,297.64C18.6,144.169,144.168,18.602,297.638,18.602 M297.638,0C133.007,0-0.001,133.008-0.001,297.641
				c0,164.632,133.008,297.641,297.64,297.641S595.28,462.273,595.28,297.641C595.278,133.008,462.269,0,297.638,0L297.638,0z"/>
		</g>
	</g>
</g>
</svg>
