<svg id="图层_1" data-name="图层 1" xmlns="http://www.w3.org/2000/svg" viewBox="0 0 24 24"><defs><style>.cls-1{fill:#fff;}</style></defs><title>icon_文本</title><path class="cls-1" d="M22.28,0H1.72A1.72,1.72,0,0,0,0,1.72V22.28A1.72,1.72,0,0,0,1.72,24H22.28A1.72,1.72,0,0,0,24,22.28V1.72A1.72,1.72,0,0,0,22.28,0Zm0,22.29H1.72V1.72H22.28V22.29Z" transform="translate(0 0)"/><path class="cls-1" d="M5.18,4.63H18.71V9.19h-0.6S17,6.4,15.62,6.16a7.08,7.08,0,0,0-2.28-.07l0,11.64a1.52,1.52,0,0,0,1,.84h1.37v0.8H8.21l0-.82,1.2,0a1.24,1.24,0,0,0,.9-0.94c0-.65,0-11.41,0-11.41a8.21,8.21,0,0,0-2.25,0,3.68,3.68,0,0,0-2.32,3l-0.6,0V4.63h0Z" transform="translate(0 0)"/></svg>