<?xml version="1.0" standalone="no"?><!DOCTYPE svg PUBLIC "-//W3C//DTD SVG 1.1//EN" "http://www.w3.org/Graphics/SVG/1.1/DTD/svg11.dtd"><svg t="1486627560341" class="icon" style="" viewBox="0 0 1024 1024" version="1.1" xmlns="http://www.w3.org/2000/svg" p-id="2102" xmlns:xlink="http://www.w3.org/1999/xlink" width="200" height="200"><defs><style type="text/css"></style></defs><path d="M587.7504 589.312l90.624-21.5616V456.4032l-90.624-21.632c-2.8736-8.192-5.9392-16.1216-9.5616-23.808l48.9344-80.1984-77.4976-78.7072-78.9696 49.664a224.4736 224.4736 0 0 0-23.4368-9.6704l-21.312-92.0384H316.3456l-21.248 92.1024c-8 2.8544-15.8144 5.9008-23.3408 9.6768l-78.9696-49.728-77.5936 78.7136 49.0304 80.1984a200.6912 200.6912 0 0 0-9.5296 23.808L64 456.4032v111.3216l90.688 21.5872c2.8096 8.128 5.8752 16.1152 9.5296 23.712l-48.9664 80.2368 77.5296 78.7264 78.9696-49.76c7.5328 3.7376 15.3408 6.7904 23.3408 9.6512l21.248 92.1024h109.5616l21.312-92.0384a237.7728 237.7728 0 0 0 23.3728-9.6128l78.9696 49.7728 77.4912-78.7264-48.8704-80.3264c3.6352-7.6096 6.7008-15.6096 9.5744-23.7376z m-216.5632 33.2032c-60.096 0-108.7808-49.4528-108.7808-110.5152 0-60.9664 48.7488-110.5088 108.7808-110.5088C431.2832 401.4912 480 451.0336 480 512c0 61.0624-48.7168 110.5152-108.8128 110.5152z m516.5632 53.248l19.5008-48.9984-60.8768-36.7488-32.128 43.8656c-6.688-1.1392-13.4976-2.0992-20.6528-2.0992-7.0016 0-13.8752 0.96-20.6528 2.0992l-32.0896-43.8656-60.9344 36.7488 19.5648 48.9984a128.8256 128.8256 0 0 0-23.2512 39.7376l-49.0624 6.7264v73.4976l49.0624 6.6624a125.1904 125.1904 0 0 0 23.2512 39.872l-19.5648 48.9856L740.864 928l32.064-43.9232c6.688 1.2224 13.6256 2.0736 20.6848 2.0736 7.0016 0 13.8752-0.928 20.6272-2.0736l32 43.9232 60.9344-36.7232-19.5008-48.9344a127.936 127.936 0 0 0 23.3152-39.9488l48.9984-6.6624v-73.4976l-48.9984-6.7136a127.6544 127.6544 0 0 0-23.2384-39.7568z m-94.1248 146.5088c-34.5024 0-62.4384-28.3136-62.4384-63.2896 0-35.0528 27.936-63.3472 62.4384-63.3472 34.3744 0 62.3744 28.3008 62.3744 63.3472 0 35.04-28 63.2896-62.3744 63.2896z m117.376-600.736a126.8736 126.8736 0 0 0-23.2512-39.8016l19.5008-49.0112L846.3744 96l-32.128 43.8656c-6.688-1.1776-13.4976-2.0608-20.6528-2.0608-7.0016 0-13.8752 0.9472-20.6528 2.0608L740.8768 96l-60.9344 36.7168 19.5648 49.0112a129.1776 129.1776 0 0 0-23.2512 39.7952l-49.0624 6.6624v73.536l49.0624 6.7008a125.12 125.12 0 0 0 23.2512 39.8272l-19.5712 49.0112 60.9344 36.7296 32.064-43.8656c6.688 1.1712 13.6256 2.0928 20.6656 2.0928 7.0272 0 13.8752-0.9856 20.6528-2.0928l32.128 43.8656 60.8768-36.7296-19.5008-48.9408c10.0032-11.7056 18.0032-25.0688 23.2512-39.8912L960 301.7216v-73.536l-48.9984-6.6496z m-117.376 106.752c-34.5024 0-62.4384-28.3456-62.4384-63.2832 0-35.04 27.936-63.3792 62.4384-63.3792 34.3744 0 62.3744 28.3392 62.3744 63.3792 0 34.944-28 63.2832-62.3744 63.2832z" p-id="2103"></path></svg>