<?xml version="1.0" encoding="utf-8"?>
<!-- Generator: Adobe Illustrator 19.2.1, SVG Export Plug-In . SVG Version: 6.00 Build 0)  -->
<svg version="1.1" id="图层_1" xmlns="http://www.w3.org/2000/svg" xmlns:xlink="http://www.w3.org/1999/xlink" x="0px" y="0px"
	 viewBox="0 0 60 60" style="enable-background:new 0 0 60 60;" xml:space="preserve">
<style type="text/css">
	.st0{fill:#FFFFFF;}
	.st1{fill:#DCDCDC;}
	.st2{fill:#FF5620;}
	.st3{fill:#34A4FF;}
	.st4{fill:#FFB83D;}
	.st5{fill:#34C08D;}
</style>
<g>
	<g>
		<path class="st0" d="M51.5,58.7H8.5c-4,0-7.2-3.2-7.2-7.2V8.5c0-4,3.2-7.2,7.2-7.2h43.1c4,0,7.2,3.2,7.2,7.2v43.1
			C58.7,55.5,55.5,58.7,51.5,58.7z"/>
		<path class="st1" d="M51.5,60H8.5C3.8,60,0,56.2,0,51.5V8.5C0,3.8,3.8,0,8.5,0h43.1C56.2,0,60,3.8,60,8.5v43.1
			C60,56.2,56.2,60,51.5,60z M8.5,2.5c-3.3,0-5.9,2.7-5.9,5.9v43.1c0,3.3,2.7,5.9,5.9,5.9h43.1c3.3,0,5.9-2.7,5.9-5.9V8.5
			c0-3.3-2.7-5.9-5.9-5.9H8.5z"/>
	</g>
	<g>
		<g>
			<g>
				<circle class="st0" cx="19.7" cy="20" r="7.9"/>
				<path class="st2" d="M19.7,28.7c-4.8,0-8.8-3.9-8.8-8.8s3.9-8.8,8.8-8.8s8.8,3.9,8.8,8.8S24.5,28.7,19.7,28.7z M19.7,13
					c-3.8,0-6.9,3.1-6.9,6.9s3.1,6.9,6.9,6.9s6.9-3.1,6.9-6.9S23.5,13,19.7,13z"/>
			</g>
			<g>
				<circle class="st0" cx="19.7" cy="40" r="7.9"/>
				<path class="st3" d="M19.7,48.8c-4.8,0-8.8-3.9-8.8-8.8s3.9-8.8,8.8-8.8s8.8,3.9,8.8,8.8S24.5,48.8,19.7,48.8z M19.7,33.1
					c-3.8,0-6.9,3.1-6.9,6.9s3.1,6.9,6.9,6.9s6.9-3.1,6.9-6.9S23.5,33.1,19.7,33.1z"/>
			</g>
			<g>
				<circle class="st0" cx="40.3" cy="40" r="7.9"/>
				<path class="st4" d="M40.3,48.8c-4.8,0-8.8-3.9-8.8-8.8s3.9-8.8,8.8-8.8s8.8,3.9,8.8,8.8S45.2,48.8,40.3,48.8z M40.3,33.1
					c-3.8,0-6.9,3.1-6.9,6.9s3.1,6.9,6.9,6.9s6.9-3.1,6.9-6.9S44.1,33.1,40.3,33.1z"/>
			</g>
			<g>
				<circle class="st0" cx="40.3" cy="20" r="7.9"/>
				<path class="st5" d="M40.3,28.7c-4.8,0-8.8-3.9-8.8-8.8s3.9-8.8,8.8-8.8s8.8,3.9,8.8,8.8S45.2,28.7,40.3,28.7z M40.3,13
					c-3.8,0-6.9,3.1-6.9,6.9s3.1,6.9,6.9,6.9s6.9-3.1,6.9-6.9S44.1,13,40.3,13z"/>
			</g>
		</g>
		<g>
			<g>
				<rect x="18.8" y="18.6" class="st2" width="1.8" height="6.2"/>
			</g>
			<g>
				<rect x="18.8" y="15.1" class="st2" width="1.8" height="2"/>
			</g>
		</g>
		<g>
			<g>
				<rect x="39.4" y="18.6" class="st5" width="1.8" height="6.2"/>
			</g>
			<g>
				<rect x="39.4" y="15.1" class="st5" width="1.8" height="2"/>
			</g>
		</g>
		<g>
			<g>
				<rect x="18.8" y="38.7" class="st3" width="1.8" height="6.2"/>
			</g>
			<g>
				<rect x="18.8" y="35.1" class="st3" width="1.8" height="2"/>
			</g>
		</g>
		<g>
			<g>
				<rect x="39.4" y="38.7" class="st4" width="1.8" height="6.2"/>
			</g>
			<g>
				<rect x="39.4" y="35.1" class="st4" width="1.8" height="2"/>
			</g>
		</g>
	</g>
</g>
</svg>
