<?xml version="1.0" encoding="utf-8"?>
<!-- Generator: Adobe Illustrator 19.0.0, SVG Export Plug-In . SVG Version: 6.00 Build 0)  -->
<svg version="1.1" id="图层_1" xmlns="http://www.w3.org/2000/svg" xmlns:xlink="http://www.w3.org/1999/xlink" x="0px" y="0px"
	 viewBox="0 0 1920 1080" style="enable-background:new 0 0 1920 1080;" xml:space="preserve">
<style type="text/css">
	.st0{opacity:0.45;fill:#EDEDED;stroke:#E0E0E0;stroke-miterlimit:10;}
	.st1{fill:url(#XMLID_40_);stroke:#E0E0E0;stroke-width:1.5;stroke-miterlimit:10;}
	.st2{fill:none;stroke:#E0E0E0;stroke-width:1.5;stroke-miterlimit:10;}
	.st3{fill:none;stroke:#A9A8A8;stroke-width:1.5;stroke-miterlimit:10;}
	.st4{fill:#C4C4C4;stroke:#B7B7B7;stroke-width:1.5;stroke-miterlimit:10;}
	.st5{fill:#C4C4C4;}
	.st6{opacity:0.74;fill:none;stroke:#E0E0E0;stroke-width:1.5;stroke-miterlimit:10;}
	.st7{opacity:0.74;fill:none;stroke:#E0E0E0;stroke-miterlimit:10;}
	.st8{fill:none;stroke:#B7B7B7;stroke-width:1.5;stroke-miterlimit:10;}
	.st9{fill:none;stroke:#E0E0E0;stroke-miterlimit:10;}
	.st10{opacity:0.6;fill:none;stroke:#E0E0E0;stroke-width:1.5;stroke-miterlimit:10;}
	.st11{fill:none;}
</style>
<g id="XMLID_28_">
	<polygon id="XMLID_30_" class="st0" points="191.9,287.4 191.9,499.5 997.5,973.1 997.1,654.5 	"/>
	<linearGradient id="XMLID_40_" gradientUnits="userSpaceOnUse" x1="1603.8169" y1="827.5609" x2="263.8432" y2="313.1932">
		<stop  offset="0" style="stop-color:#FFFFFF"/>
		<stop  offset="0.5102" style="stop-color:#FFFFFF"/>
		<stop  offset="1" style="stop-color:#B3B3B3"/>
	</linearGradient>
	<polygon id="XMLID_32_" class="st1" points="192.3,499.6 1067.4,292.6 1730.4,497.7 997.8,973.4 	"/>
	<line id="XMLID_25_" class="st2" x1="190.5" y1="390.8" x2="997" y2="816.5"/>
	<polygon id="XMLID_31_" class="st3" points="192.5,287.5 551.3,251 997.5,654.7 	"/>
	<polygon id="XMLID_29_" class="st4" points="997.6,654.5 1730,319.4 1730.5,497.7 998,972.3 	"/>
	<polygon id="XMLID_26_" class="st5" points="1368.1,119.1 1064.8,154.5 436.1,249.9 189.5,288.4 550.3,250.8 1470.4,106.6 	"/>
	<g id="XMLID_37_">
		<line id="XMLID_24_" class="st2" x1="191.3" y1="391.1" x2="1122.2" y2="208"/>
		<line id="XMLID_23_" class="st6" x1="439" y1="250.3" x2="438.8" y2="398.5"/>
		<line id="XMLID_22_" class="st7" x1="792.9" y1="195.6" x2="793.2" y2="357.4"/>
		<line id="XMLID_21_" class="st7" x1="954.7" y1="171.2" x2="954.7" y2="319.2"/>
		<line id="XMLID_20_" class="st7" x1="1065.8" y1="154.4" x2="1067.4" y2="292.6"/>
		<line id="XMLID_19_" class="st2" x1="1380.6" y1="120.8" x2="1380.6" y2="388.7"/>
		<line id="XMLID_18_" class="st2" x1="1200.7" y1="187.9" x2="1201.1" y2="333.9"/>
		<line id="XMLID_17_" class="st2" x1="351.1" y1="360.5" x2="351.4" y2="593.4"/>
		<line id="XMLID_16_" class="st2" x1="768.9" y1="550.2" x2="768.6" y2="838.9"/>
		<line id="XMLID_15_" class="st8" x1="1176.9" y1="573.3" x2="1176.9" y2="856.2"/>
		<line id="XMLID_14_" class="st8" x1="1331.6" y1="501" x2="1331.6" y2="757.4"/>
		<line id="XMLID_13_" class="st8" x1="1470.7" y1="438" x2="1471" y2="665.7"/>
		<line id="XMLID_12_" class="st8" x1="1597.7" y1="379.7" x2="1598.1" y2="584.1"/>
		<line id="XMLID_11_" class="st2" x1="550.9" y1="251.5" x2="550.9" y2="709.9"/>
		<line id="XMLID_10_" class="st6" x1="1066" y1="155.4" x2="1730" y2="318.7"/>
		<line id="XMLID_9_" class="st2" x1="1220.2" y1="145.8" x2="1597.5" y2="379.4"/>
		<line id="XMLID_8_" class="st9" x1="1550.3" y1="172" x2="1067.4" y2="292.6"/>
		<line id="XMLID_7_" class="st9" x1="843.7" y1="515.3" x2="1635.2" y2="240.9"/>
		<line id="XMLID_6_" class="st9" x1="733.5" y1="222" x2="1177.1" y2="573.3"/>
		<line id="XMLID_5_" class="st9" x1="888.9" y1="198.7" x2="1330.8" y2="500.3"/>
		<line id="XMLID_4_" class="st2" x1="1066.2" y1="170.2" x2="1470.3" y2="437.6"/>
		<line id="XMLID_3_" class="st2" x1="1201.4" y1="259.5" x2="1729.5" y2="419.5"/>
		<line id="XMLID_2_" class="st2" x1="1543.7" y1="272.8" x2="1546.8" y2="402.3"/>
		<line id="XMLID_27_" class="st8" x1="997" y1="816.5" x2="1729.5" y2="420"/>
		<line id="XMLID_33_" class="st10" x1="1067.4" y1="155" x2="1220.2" y2="145.8"/>
		<line id="XMLID_34_" class="st10" x1="793.4" y1="196.3" x2="954.7" y2="188"/>
		<line id="XMLID_35_" class="st10" x1="438.7" y1="250.1" x2="792.6" y2="212.8"/>
		<line id="XMLID_36_" class="st8" x1="1497.3" y1="425.6" x2="1728.8" y2="497.5"/>
	</g>
	<polygon id="XMLID_1_" class="st3" points="551.3,250.7 1470.4,106.6 1730,318.7 997.5,654.5 	"/>
</g>
<rect id="XMLID_38_" class="st11" width="1920" height="1080"/>
</svg>
