<?xml version="1.0" encoding="utf-8"?>
<!-- Generator: Adobe Illustrator 19.0.0, SVG Export Plug-In . SVG Version: 6.00 Build 0)  -->
<svg version="1.1" id="图层_1" xmlns="http://www.w3.org/2000/svg" xmlns:xlink="http://www.w3.org/1999/xlink" x="0px" y="0px"
	 viewBox="0 0 1920 1080" style="enable-background:new 0 0 1920 1080;" xml:space="preserve">
<style type="text/css">
	.st0{opacity:0.45;fill:#EDEDED;stroke:#E0E0E0;stroke-miterlimit:10;}
	.st1{fill:url(#XMLID_39_);stroke:#E0E0E0;stroke-width:1.5;stroke-miterlimit:10;}
	.st2{fill:none;stroke:#E0E0E0;stroke-width:1.5;stroke-miterlimit:10;}
	.st3{fill:none;stroke:#A9A8A8;stroke-width:1.5;stroke-miterlimit:10;}
	.st4{fill:#C4C4C4;stroke:#B7B7B7;stroke-width:1.5;stroke-miterlimit:10;}
	.st5{fill:#C4C4C4;}
	.st6{opacity:0.74;fill:none;stroke:#E0E0E0;stroke-width:1.5;stroke-miterlimit:10;}
	.st7{opacity:0.74;fill:none;stroke:#E0E0E0;stroke-miterlimit:10;}
	.st8{fill:none;stroke:#B7B7B7;stroke-width:1.5;stroke-miterlimit:10;}
	.st9{fill:none;stroke:#E0E0E0;stroke-miterlimit:10;}
	.st10{opacity:0.6;fill:none;stroke:#E0E0E0;stroke-width:1.5;stroke-miterlimit:10;}
</style>
<g id="XMLID_28_">
	<polygon id="XMLID_30_" class="st0" points="3,225.3 3,489.6 1006.7,1079.7 1006.3,682.6 	"/>
	<linearGradient id="XMLID_39_" gradientUnits="userSpaceOnUse" x1="1762.1713" y1="898.2899" x2="92.6154" y2="257.4074">
		<stop  offset="0" style="stop-color:#FFFFFF"/>
		<stop  offset="0.5102" style="stop-color:#FFFFFF"/>
		<stop  offset="1" style="stop-color:#B3B3B3"/>
	</linearGradient>
	<polygon id="XMLID_32_" class="st1" points="3.5,489.6 1093.8,231.8 1919.9,487.3 1007,1080 	"/>
	<line id="XMLID_25_" class="st2" x1="1.2" y1="354.1" x2="1006.1" y2="884.5"/>
	<polygon id="XMLID_31_" class="st3" points="3.7,225.4 450.7,180 1006.7,682.9 	"/>
	<polygon id="XMLID_29_" class="st4" points="1006.8,682.6 1919.4,265.1 1920,487.3 1007.3,1078.6 	"/>
	<polygon id="XMLID_26_" class="st5" points="1468.5,15.6 1090.5,59.7 307.3,178.6 0,226.6 449.6,179.7 1596,0 	"/>
	<g id="XMLID_37_">
		<line id="XMLID_24_" class="st2" x1="2.3" y1="354.5" x2="1162.1" y2="126.3"/>
		<line id="XMLID_23_" class="st6" x1="310.9" y1="179" x2="310.6" y2="363.7"/>
		<line id="XMLID_22_" class="st7" x1="751.8" y1="110.9" x2="752.2" y2="312.5"/>
		<line id="XMLID_21_" class="st7" x1="953.4" y1="80.5" x2="953.4" y2="264.9"/>
		<line id="XMLID_20_" class="st7" x1="1091.8" y1="59.6" x2="1093.8" y2="231.8"/>
		<line id="XMLID_19_" class="st2" x1="1484.1" y1="17.8" x2="1484.1" y2="351.5"/>
		<line id="XMLID_18_" class="st2" x1="1259.9" y1="101.4" x2="1260.4" y2="283.3"/>
		<line id="XMLID_17_" class="st2" x1="201.3" y1="316.4" x2="201.7" y2="606.5"/>
		<line id="XMLID_16_" class="st2" x1="721.9" y1="552.8" x2="721.6" y2="912.4"/>
		<line id="XMLID_15_" class="st8" x1="1230.3" y1="581.5" x2="1230.3" y2="934"/>
		<line id="XMLID_14_" class="st8" x1="1423" y1="491.3" x2="1423" y2="810.8"/>
		<line id="XMLID_13_" class="st8" x1="1596.4" y1="413" x2="1596.7" y2="696.6"/>
		<line id="XMLID_12_" class="st8" x1="1754.6" y1="340.3" x2="1755.1" y2="594.9"/>
		<line id="XMLID_11_" class="st2" x1="450.3" y1="180.5" x2="450.3" y2="751.7"/>
		<line id="XMLID_10_" class="st6" x1="1092.1" y1="60.8" x2="1919.3" y2="264.3"/>
		<line id="XMLID_9_" class="st2" x1="1284.2" y1="48.9" x2="1754.3" y2="339.9"/>
		<line id="XMLID_8_" class="st9" x1="1695.5" y1="81.5" x2="1093.8" y2="231.8"/>
		<line id="XMLID_7_" class="st9" x1="815.1" y1="509.3" x2="1801.3" y2="167.4"/>
		<line id="XMLID_6_" class="st9" x1="677.7" y1="143.8" x2="1230.6" y2="581.5"/>
		<line id="XMLID_5_" class="st9" x1="871.5" y1="114.8" x2="1422" y2="490.6"/>
		<line id="XMLID_4_" class="st2" x1="1092.3" y1="79.2" x2="1595.8" y2="412.4"/>
		<line id="XMLID_3_" class="st2" x1="1260.8" y1="190.5" x2="1918.8" y2="389.9"/>
		<line id="XMLID_2_" class="st2" x1="1687.3" y1="207" x2="1691.1" y2="368.4"/>
		<line id="XMLID_27_" class="st8" x1="1006.1" y1="884.5" x2="1918.8" y2="390.4"/>
		<line id="XMLID_33_" class="st10" x1="1093.9" y1="60.3" x2="1284.2" y2="48.9"/>
		<line id="XMLID_34_" class="st10" x1="752.4" y1="111.7" x2="953.4" y2="101.5"/>
		<line id="XMLID_35_" class="st10" x1="310.5" y1="178.8" x2="751.4" y2="132.3"/>
		<line id="XMLID_36_" class="st8" x1="1629.4" y1="397.5" x2="1917.9" y2="487"/>
	</g>
	<polygon id="XMLID_1_" class="st3" points="450.7,179.6 1596,0 1919.3,264.3 1006.8,682.7 	"/>
</g>
</svg>
