<svg id="图层_1" data-name="图层 1" xmlns="http://www.w3.org/2000/svg" xmlns:xlink="http://www.w3.org/1999/xlink" viewBox="0 0 1920 1080"><defs><style>.cls-1{fill:#ededec;opacity:0.45;}.cls-1,.cls-10,.cls-11,.cls-2,.cls-3,.cls-7,.cls-8{stroke:#e0e0df;}.cls-1,.cls-10,.cls-11,.cls-2,.cls-3,.cls-4,.cls-5,.cls-7,.cls-8,.cls-9{stroke-miterlimit:10;}.cls-11,.cls-2,.cls-3,.cls-4,.cls-5,.cls-7,.cls-9{stroke-width:1.5px;}.cls-2{fill:url(#未命名的渐变_37);}.cls-10,.cls-11,.cls-12,.cls-3,.cls-4,.cls-7,.cls-8,.cls-9{fill:none;}.cls-4{stroke:#a8a7a7;}.cls-5{fill:#c4c3c3;}.cls-5,.cls-9{stroke:#b7b6b6;}.cls-6{fill:#c3c3c3;}.cls-7,.cls-8{opacity:0.74;}.cls-11{opacity:0.6;}</style><linearGradient id="未命名的渐变_37" x1="709.9" y1="559.13" x2="64.94" y2="311.55" gradientUnits="userSpaceOnUse"><stop offset="0" stop-color="#fff"/><stop offset="0.51" stop-color="#fff"/><stop offset="1" stop-color="#b3b3b3"/></linearGradient></defs><title>大棚</title><polygon id="_路径_" data-name="&lt;路径&gt;" class="cls-1" points="1.59 289.82 1.59 476.02 446.59 768.61 446.39 503.14 1.59 289.82"/><polygon id="_路径_2" data-name="&lt;路径&gt;" class="cls-2" points="1.81 476.01 483.07 194 813.85 288.34 446.71 768.79 1.81 476.01"/><line id="_路径_3" data-name="&lt;路径&gt;" class="cls-3" x1="0.75" y1="380.76" x2="446.33" y2="638.18"/><polygon id="_路径_4" data-name="&lt;路径&gt;" class="cls-4" points="1.94 289.84 205.84 216.14 446.59 503.29 1.94 289.84"/><polygon id="_路径_5" data-name="&lt;路径&gt;" class="cls-5" points="446.61 503.1 813.63 146.41 813.87 288.34 446.84 767.86 446.61 503.1"/><polygon id="_路径_6" data-name="&lt;路径&gt;" class="cls-6" points="636.46 20.76 481.69 79.72 141.44 228.35 0.19 290.99 205.32 216.06 687.34 0.91 636.46 20.76"/><g id="_编组_" data-name="&lt;编组&gt;"><line id="_路径_7" data-name="&lt;路径&gt;" class="cls-3" x1="1.25" y1="380.89" x2="511.45" y2="118.12"/><line id="_路径_8" data-name="&lt;路径&gt;" class="cls-7" x1="143.08" y1="228.3" x2="142.94" y2="356.34"/><line id="_路径_9" data-name="&lt;路径&gt;" class="cls-8" x1="337.91" y1="142.39" x2="338.08" y2="278.88"/><line id="_路径_10" data-name="&lt;路径&gt;" class="cls-8" x1="424.07" y1="104.89" x2="424.07" y2="228.54"/><line id="_路径_11" data-name="&lt;路径&gt;" class="cls-8" x1="482.21" y1="79.52" x2="483.07" y2="194"/><line id="_路径_12" data-name="&lt;路径&gt;" class="cls-3" x1="642.71" y1="20.97" x2="642.71" y2="238.91"/><line id="_路径_13" data-name="&lt;路径&gt;" class="cls-3" x1="551.76" y1="93.56" x2="551.97" y2="213.62"/><line id="_路径_14" data-name="&lt;路径&gt;" class="cls-3" x1="93.26" y1="334.26" x2="93.44" y2="536.5"/><line id="_路径_15" data-name="&lt;路径&gt;" class="cls-3" x1="324.99" y1="444.75" x2="324.83" y2="688.8"/><line id="_路径_16" data-name="&lt;路径&gt;" class="cls-9" x1="539.59" y1="413.44" x2="539.59" y2="646.55"/><line id="_路径_17" data-name="&lt;路径&gt;" class="cls-9" x1="618.14" y1="335.83" x2="618.14" y2="545.05"/><line id="_路径_18" data-name="&lt;路径&gt;" class="cls-9" x1="687.49" y1="269.02" x2="687.63" y2="453.19"/><line id="_路径_19" data-name="&lt;路径&gt;" class="cls-9" x1="749.78" y1="208.31" x2="749.98" y2="372.3"/><line id="_路径_20" data-name="&lt;路径&gt;" class="cls-3" x1="205.65" y1="216.54" x2="205.65" y2="609.59"/><line id="_路径_21" data-name="&lt;路径&gt;" class="cls-7" x1="482.33" y1="80.3" x2="813.62" y2="145.85"/><line id="_路径_22" data-name="&lt;路径&gt;" class="cls-3" x1="561.71" y1="57" x2="749.66" y2="208.05"/><line id="_路径_23" data-name="&lt;路径&gt;" class="cls-10" x1="726.64" y1="46.1" x2="483.07" y2="194"/><line id="_路径_24" data-name="&lt;路径&gt;" class="cls-10" x1="365.17" y1="405.96" x2="767.98" y2="93.19"/><line id="_路径_25" data-name="&lt;路径&gt;" class="cls-10" x1="305.8" y1="171.13" x2="539.7" y2="413.44"/><line id="_路径_26" data-name="&lt;路径&gt;" class="cls-10" x1="389.26" y1="134.8" x2="617.73" y2="335.42"/><line id="_路径_27" data-name="&lt;路径&gt;" class="cls-3" x1="482.42" y1="92.56" x2="687.26" y2="268.69"/><line id="_路径_28" data-name="&lt;路径&gt;" class="cls-3" x1="552.11" y1="152.38" x2="813.42" y2="226.17"/><line id="_路径_29" data-name="&lt;路径&gt;" class="cls-3" x1="723.41" y1="127.89" x2="724.91" y2="231.89"/><line id="_路径_30" data-name="&lt;路径&gt;" class="cls-9" x1="446.33" y1="638.18" x2="813.42" y2="226.54"/><line id="_路径_31" data-name="&lt;路径&gt;" class="cls-11" x1="483.08" y1="79.8" x2="561.71" y2="57"/><line id="_路径_32" data-name="&lt;路径&gt;" class="cls-11" x1="338.16" y1="142.89" x2="424.08" y2="118.91"/><line id="_路径_33" data-name="&lt;路径&gt;" class="cls-11" x1="142.91" y1="228.22" x2="337.75" y2="156.89"/><line id="_路径_34" data-name="&lt;路径&gt;" class="cls-9" x1="700.58" y1="256.05" x2="813.08" y2="288.34"/></g><path id="_路径_35" data-name="&lt;路径&gt;" class="cls-12" d="M789.58,113.44" transform="translate(-92.42 -117.45)"/><polygon id="_路径_36" data-name="&lt;路径&gt;" class="cls-4" points="205.84 215.87 687.34 0.91 813.62 145.85 446.59 503.13 205.84 215.87"/></svg>