<?xml version="1.0" encoding="utf-8"?>
<!-- Generator: Adobe Illustrator 19.2.1, SVG Export Plug-In . SVG Version: 6.00 Build 0)  -->
<svg version="1.1" id="图层_1" xmlns="http://www.w3.org/2000/svg" xmlns:xlink="http://www.w3.org/1999/xlink" x="0px" y="0px"
	 viewBox="0 0 60 60" style="enable-background:new 0 0 60 60;" xml:space="preserve">
<style type="text/css">
	.st0{fill:#FFFFFF;}
	.st1{fill:#DCDCDC;}
	.st2{fill:#34A4FF;}
	.st3{fill:#34C08D;}
</style>
<g>
	<g>
		<path class="st0" d="M51.5,58.7H8.5c-4,0-7.2-3.2-7.2-7.2V8.5c0-4,3.2-7.2,7.2-7.2h43.1c4,0,7.2,3.2,7.2,7.2v43.1
			C58.7,55.5,55.5,58.7,51.5,58.7z"/>
		<path class="st1" d="M51.5,60H8.5C3.8,60,0,56.2,0,51.5V8.5C0,3.8,3.8,0,8.5,0h43.1C56.2,0,60,3.8,60,8.5v43.1
			C60,56.2,56.2,60,51.5,60z M8.5,2.5c-3.3,0-5.9,2.7-5.9,5.9v43.1c0,3.3,2.7,5.9,5.9,5.9h43.1c3.3,0,5.9-2.7,5.9-5.9V8.5
			c0-3.3-2.7-5.9-5.9-5.9H8.5z"/>
	</g>
	<g>
		<g>
			<path class="st2" d="M18.8,47.7c-4.4,0-7.9-3.5-7.9-7.9V20.2c0-4.4,3.5-7.9,7.9-7.9s7.9,3.5,7.9,7.9v19.6
				C26.7,44.1,23.2,47.7,18.8,47.7z M18.8,13.9c-3.5,0-6.3,2.8-6.3,6.3v19.6c0,3.5,2.8,6.3,6.3,6.3s6.3-2.8,6.3-6.3V20.2
				C25.1,16.8,22.3,13.9,18.8,13.9z"/>
		</g>
		<g>
			<path class="st3" d="M41.2,47.7c-4.4,0-7.9-3.5-7.9-7.9V20.2c0-4.4,3.5-7.9,7.9-7.9s7.9,3.5,7.9,7.9v19.6
				C49.1,44.1,45.5,47.7,41.2,47.7z M41.2,13.9c-3.5,0-6.3,2.8-6.3,6.3v19.6c0,3.5,2.8,6.3,6.3,6.3c3.5,0,6.3-2.8,6.3-6.3V20.2
				C47.4,16.8,44.6,13.9,41.2,13.9z"/>
		</g>
		<g>
			<circle class="st2" cx="18.8" cy="39.8" r="5.4"/>
		</g>
		<g>
			<circle class="st3" cx="41.2" cy="20.4" r="5.4"/>
		</g>
	</g>
</g>
</svg>
