<?xml version="1.0" encoding="utf-8"?>
<!-- Generator: Adobe Illustrator 19.2.1, SVG Export Plug-In . SVG Version: 6.00 Build 0)  -->
<svg version="1.1" id="图层_1" xmlns="http://www.w3.org/2000/svg" xmlns:xlink="http://www.w3.org/1999/xlink" x="0px" y="0px"
	 viewBox="0 0 24 24" style="enable-background:new 0 0 24 24;" xml:space="preserve">
<style type="text/css">
	.st0{fill:#FFFFFF;}
</style>
<title>空湿</title>
<path class="st0" d="M19.6,15.5L19.6,15.5c0-0.1,0-0.2,0-0.3s0-0.1,0-0.2l0,0c-0.1-0.4-0.3-0.8-0.4-1.2L12.7,0.7
	C12.5,0.2,12,0,11.5,0.1c-0.3,0.1-0.5,0.3-0.6,0.6L4.7,13.9c-0.2,0.4-0.3,0.8-0.3,1.3c-0.6,4.2,2.3,8.1,6.5,8.7s8.1-2.3,8.7-6.5
	c0.1-0.4,0.1-0.8,0.1-1.2C19.7,15.9,19.7,15.7,19.6,15.5L19.6,15.5L19.6,15.5z M12,15.7c-1.5-1.6-3.9-2.1-6-1.3l6-12.5l5.8,12.2
	c0.3,0.7,0.5,1.4,0.5,2.1C16.8,17.4,14.5,17.9,12,15.7L12,15.7z"/>
</svg>
