<?xml version="1.0" encoding="utf-8"?>
<!-- Generator: Adobe Illustrator 19.2.1, SVG Export Plug-In . SVG Version: 6.00 Build 0)  -->
<svg version="1.1" id="图层_1" xmlns="http://www.w3.org/2000/svg" xmlns:xlink="http://www.w3.org/1999/xlink" x="0px" y="0px"
	 viewBox="0 0 24 24" style="enable-background:new 0 0 24 24;" xml:space="preserve">
<style type="text/css">
	.st0{fill:#FFFFFF;}
</style>
<title>空温</title>
<path class="st0" d="M13.2,14.3V6.1c-0.1-0.6-0.7-1.1-1.4-1c-0.6-0.1-1.2,0.4-1.4,1v8.2C8.8,15.1,8,17,8.8,18.8
	c0.8,1.7,2.7,2.5,4.5,1.7s2.5-2.7,1.7-4.5C14.6,15.3,14,14.6,13.2,14.3L13.2,14.3L13.2,14.3z"/>
<path class="st0" d="M16.4,12.6V3.7c0-1.1-0.5-2-1.4-2.7s-2-1-3.1-1S9.7,0.3,8.7,1C7.9,1.6,7.3,2.6,7.3,3.7v8.9
	C4.6,15.1,4.5,19.3,7,22s6.7,2.8,9.4,0.3s2.8-6.7,0.3-9.4C16.6,12.8,16.5,12.7,16.4,12.6L16.4,12.6z M11.8,22.2
	C9.2,22.2,7,20,7,17.4c0-1.4,0.6-2.8,1.7-3.7L9,13.4V3.7c0-1,1.3-1.9,2.8-1.9s2.8,0.9,2.8,1.9v9.7l0.3,0.3c2.1,1.7,2.3,4.8,0.6,6.8
	C14.6,21.6,13.3,22.2,11.8,22.2L11.8,22.2z"/>
<path class="st0" d="M17.3,4.6h1.1c0.2,0,0.4-0.2,0.4-0.4s-0.2-0.4-0.4-0.4l0,0h-1.1c-0.2,0-0.4,0.2-0.4,0.4
	C16.9,4.4,17,4.6,17.3,4.6L17.3,4.6z"/>
<path class="st0" d="M18.3,5.1h-1.1c-0.2,0-0.4,0.2-0.4,0.4S17,6,17.3,6h1.1c0.2,0,0.4-0.2,0.4-0.4S18.6,5.1,18.3,5.1L18.3,5.1
	L18.3,5.1z"/>
<path class="st0" d="M18.3,6.4h-1.1c-0.2,0-0.4,0.2-0.4,0.4s0.2,0.4,0.4,0.4h1.1c0.2,0,0.4-0.2,0.4-0.4S18.6,6.4,18.3,6.4L18.3,6.4
	L18.3,6.4z"/>
<path class="st0" d="M18.3,7.8h-1.1c-0.2,0-0.4,0.2-0.4,0.4s0.2,0.4,0.4,0.4h1.1c0.2,0,0.4-0.2,0.4-0.4C18.8,8,18.6,7.8,18.3,7.8
	L18.3,7.8L18.3,7.8z"/>
<path class="st0" d="M18.3,9.1h-1.1c-0.2,0-0.4,0.2-0.4,0.4s0.2,0.4,0.4,0.4h1.1c0.2,0,0.4-0.2,0.4-0.4C18.8,9.3,18.6,9.1,18.3,9.1
	L18.3,9.1L18.3,9.1z"/>
<path class="st0" d="M18.3,10.4h-1.1c-0.2,0-0.4,0.2-0.4,0.4s0.2,0.4,0.4,0.4h1.1c0.2,0,0.4-0.2,0.4-0.4
	C18.8,10.6,18.6,10.4,18.3,10.4L18.3,10.4L18.3,10.4z"/>
</svg>
