<?xml version="1.0" encoding="utf-8"?>
<!-- Generator: Adobe Illustrator 19.2.1, SVG Export Plug-In . SVG Version: 6.00 Build 0)  -->
<svg version="1.1" id="图层_1" xmlns="http://www.w3.org/2000/svg" xmlns:xlink="http://www.w3.org/1999/xlink" x="0px" y="0px"
	 viewBox="0 0 54 54" style="enable-background:new 0 0 54 54;" xml:space="preserve">
<style type="text/css">
	.st0{fill:#FFFFFF;}
</style>
<g>
	<path class="st0" d="M42.5,20c5.2-0.3,6-0.7,9,2.2c4.9-2.3,2-10.7-3.6-8.9c0.3-3.9-7.1-10.8-12.6-2C35.6,11.4,42.4,13.7,42.5,20z
		 M35.4,11.3L35.4,11.3L35.4,11.3z"/>
	<path class="st0" d="M45.2,23.3l-5.9-0.2C37.1,7,14.8,4.2,10,25.8l-2.3,0.1c-12.2,5.9-7.4,19.1-1.9,21V47h39.7
		C54.9,44.5,56.9,28.4,45.2,23.3z M11.3,38.7c0.8,0.9,1.9,1.3,3.3,1.3c1.2,0,2.3-0.4,3.3-1.2V41v0.1c-1.1,0.6-2.3,0.9-3.8,0.9
		c-2,0-3.5-0.6-4.7-1.9c-1.2-1.3-1.8-2.9-1.8-4.9c0-2.2,0.7-4,2-5.4s3-2.1,5.2-2.1c1.3,0,2.3,0.2,3.2,0.6l0.1,2.4
		c-0.9-0.7-2-1.1-3.2-1.1c-1.4,0-2.5,0.5-3.4,1.4c-0.8,0.9-1.3,2.2-1.3,3.8S10.5,37.8,11.3,38.7z M31.8,40.1c-1.3,1.3-2.9,2-5,2
		c-2,0-3.6-0.6-4.9-1.9c-1.2-1.3-1.8-3-1.8-5.1V35c0-2.3,0.6-4,1.9-5.3c1.2-1.3,3-1.9,5.1-1.9s3.6,0.6,4.8,1.9s1.7,3,1.7,5.2
		C33.7,37,33.1,38.7,31.8,40.1z M45.2,42h-8.9c0.1-0.9,0.4-1.7,0.9-2.5s1.5-1.7,2.9-2.7c0.9-0.6,1.4-1.1,1.7-1.5
		c0.2-0.3,0.4-0.6,0.4-0.9c0-0.3-0.1-0.6-0.4-0.8c-0.2-0.2-0.5-0.3-0.9-0.3s-0.7,0.1-0.9,0.4c-0.2,0.2-0.4,0.7-0.5,1.3l-3-0.2
		c0.1-0.8,0.3-1.5,0.6-1.9c0.3-0.5,0.7-0.8,1.3-1.1c0.6-0.2,1.3-0.4,2.3-0.4s1.8,0.1,2.4,0.4c0.6,0.2,1,0.6,1.4,1.1
		c0.3,0.5,0.5,1,0.5,1.6s-0.2,1.3-0.6,1.9c-0.4,0.6-1.1,1.2-2.1,1.9c-0.6,0.4-1,0.7-1.2,0.9s-0.4,0.4-0.7,0.6H45V42H45.2z"/>
	<path class="st0" d="M27,29.8c-1.3,0-2.4,0.5-3.2,1.4c-0.8,0.9-1.2,2.2-1.2,3.8h0.1c0,1.6,0.4,2.8,1.2,3.7s1.8,1.4,3.2,1.4
		c1.4,0,2.4-0.4,3.2-1.3c0.7-0.9,1.1-2.2,1.1-3.8s-0.4-2.9-1.1-3.8C29.4,30.2,28.4,29.8,27,29.8z"/>
</g>
</svg>
