<?xml version="1.0" encoding="utf-8"?>
<!-- Generator: Adobe Illustrator 19.2.1, SVG Export Plug-In . SVG Version: 6.00 Build 0)  -->
<svg version="1.1" id="图层_1" xmlns="http://www.w3.org/2000/svg" xmlns:xlink="http://www.w3.org/1999/xlink" x="0px" y="0px"
	 viewBox="0 0 24 24" style="enable-background:new 0 0 24 24;" xml:space="preserve">
<style type="text/css">
	.st0{fill:#FFFFFF;}
</style>
<g>
	<path class="st0" d="M21.1,0H2.9C1.3,0,0,1.3,0,2.9v18.2C0,22.7,1.3,24,2.9,24h18.2c1.6,0,2.9-1.3,2.9-2.9V2.9
		C24,1.3,22.7,0,21.1,0z M22,19.8c0,1.2-1,2.2-2.2,2.2H4.2C3,22,2,21,2,19.8V4.2C2,3,3,2,4.2,2h15.6C21,2,22,3,22,4.2V19.8z"/>
</g>
<g>
	<circle class="st0" cx="5.7" cy="6.6" r="1"/>
	<circle class="st0" cx="5.7" cy="9.5" r="1"/>
	<circle class="st0" cx="8.9" cy="4.9" r="1"/>
	<circle class="st0" cx="8.9" cy="7.9" r="1"/>
	<circle class="st0" cx="5.7" cy="12.8" r="1"/>
	<circle class="st0" cx="8.9" cy="11.2" r="1"/>
	<circle class="st0" cx="12" cy="6.6" r="1"/>
	<circle class="st0" cx="12" cy="9.5" r="1"/>
	<circle class="st0" cx="15.1" cy="4.9" r="1"/>
	<circle class="st0" cx="15.1" cy="7.9" r="1"/>
	<circle class="st0" cx="12" cy="12.8" r="1"/>
	<circle class="st0" cx="18.3" cy="6.6" r="1"/>
	<circle class="st0" cx="18.3" cy="9.5" r="1"/>
	<circle class="st0" cx="18.3" cy="12.8" r="1"/>
	<circle class="st0" cx="15.1" cy="11.2" r="1"/>
</g>
<g>
	<path class="st0" d="M18.2,16.9H5.7c-0.5,0-0.9-0.4-0.9-0.9c0-0.5,0.4-0.9,0.9-0.9h12.6c0.5,0,0.9,0.4,0.9,0.9
		C19.2,16.5,18.7,16.9,18.2,16.9z"/>
</g>
<g>
	<path class="st0" d="M18.2,20H5.7c-0.5,0-0.9-0.4-0.9-0.9s0.4-0.9,0.9-0.9h12.6c0.5,0,0.9,0.4,0.9,0.9C19.2,19.6,18.7,20,18.2,20z"
		/>
</g>
</svg>
