<?xml version="1.0" encoding="utf-8"?>
<!-- Generator: Adobe Illustrator 19.2.1, SVG Export Plug-In . SVG Version: 6.00 Build 0)  -->
<svg version="1.1" id="图层_1" xmlns="http://www.w3.org/2000/svg" xmlns:xlink="http://www.w3.org/1999/xlink" x="0px" y="0px"
	 viewBox="0 0 54 54" style="enable-background:new 0 0 54 54;" xml:space="preserve">
<style type="text/css">
	.st0{fill:#FFFFFF;}
</style>
<g>
	<path class="st0" d="M42.1,40.5V16.3H31v-2.9c1.8-0.6,3.1-2.3,3.1-4.3c0-2.5-2-4.5-4.5-4.5s-4.5,2-4.5,4.5c0,2,1.3,3.7,3.1,4.3v2.9
		h-11c-2.3,0-4.3,1.6-5,3.7h-0.5c-2,0-3.6,1.6-3.6,3.6v2.9H1.9c-1,0-1.9,0.8-1.9,1.9c0,1,0.8,1.9,1.9,1.9h6.2v2.9
		c0,2,1.6,3.6,3.6,3.6h0.5c0.6,2.1,2.6,3.7,5,3.7h2.6l0,0H42.1z M12,34.4c-0.9-0.3-1.6-1.1-1.6-2.2v-7.7c0-1,0.7-1.9,1.6-2.2V34.4z
		 M27.5,9.1c0-1.2,0.9-2.1,2.1-2.1s2.1,0.9,2.1,2.1s-0.9,2.1-2.1,2.1C28.4,11.2,27.5,10.3,27.5,9.1z M17.6,19.5h20.8
		c0.7,0,1.3,0.6,1.3,1.3s-0.6,1.3-1.3,1.3H17.6c-0.7,0-1.3-0.6-1.3-1.3S16.8,19.5,17.6,19.5z M17.6,24.6h20.8c0.7,0,1.3,0.6,1.3,1.3
		s-0.6,1.3-1.3,1.3H17.6c-0.7,0-1.3-0.6-1.3-1.3S16.8,24.6,17.6,24.6z M17.6,29.6h20.8c0.7,0,1.3,0.6,1.3,1.3c0,0.7-0.6,1.3-1.3,1.3
		H17.6c-0.7,0-1.3-0.6-1.3-1.3C16.2,30.2,16.8,29.6,17.6,29.6z M16.2,36c0-0.7,0.6-1.3,1.3-1.3h20.8c0.7,0,1.3,0.6,1.3,1.3
		s-0.6,1.3-1.3,1.3H17.6C16.8,37.3,16.2,36.7,16.2,36z"/>
	<polygon class="st0" points="39.8,42.1 20.8,42.1 20.8,46.3 13.8,46.3 13.8,49.4 46.8,49.4 46.8,46.3 39.8,46.3 	"/>
	<path class="st0" d="M44.8,16.3v24.2c5.1-0.2,9.2-4.5,9.2-9.6V26C54,20.8,49.9,16.6,44.8,16.3z"/>
</g>
</svg>
