<?xml version="1.0" encoding="utf-8"?>
<!-- Generator: Adobe Illustrator 19.2.1, SVG Export Plug-In . SVG Version: 6.00 Build 0)  -->
<svg version="1.1" id="图层_1" xmlns="http://www.w3.org/2000/svg" xmlns:xlink="http://www.w3.org/1999/xlink" x="0px" y="0px"
	 viewBox="0 0 54 54" style="enable-background:new 0 0 54 54;" xml:space="preserve">
<style type="text/css">
	.st0{fill:#FFFFFF;}
</style>
<g>
	<path class="st0" d="M22.1,27c0-2.7,2.2-5.1,5.1-5.1c2.7,0,5.1,2.2,5.1,5.1c0,2.7-2.2,5.1-5.1,5.1C24.3,31.9,22.1,29.7,22.1,27
		L22.1,27L22.1,27z M44.5,7.6l-9.7,10c-1.6-1.4-3.8-2.4-6.2-2.7V0c-17,0-21,9.5-21,9.5l9.7,9.7c-1.6,1.9-2.4,4-2.7,6.8H0
		c0,16.9,9.4,21,9.4,21l9.7-10.3c1.9,1.4,4,2.4,6.5,2.7V54c17,0,21.1-9.4,21.1-9.4l-10-9.7c1.3-1.6,2.2-3.8,2.4-6.2H54
		C54,11.6,44.5,7.6,44.5,7.6L44.5,7.6z M27,34.6c-4,0-7.6-3.2-7.6-7.6c0-4,3.2-7.6,7.6-7.6c4,0,7.6,3.2,7.6,7.6
		C34.6,31,31.3,34.6,27,34.6L27,34.6z M39.4,31H41v5.4h-1.6V31L39.4,31z M42.7,30.2h1.9V37h-1.9V30.2L42.7,30.2z M46.4,29.4h2.4V38
		h-2.4V29.4L46.4,29.4z M50.8,29.2h2.7v9.2h-2.7V29.2L50.8,29.2z M17.5,39.4h5.4v1.9h-5.4V39.4L17.5,39.4z M16.7,42.7h6.8v1.9h-6.8
		V42.7L16.7,42.7z M15.9,46.4h8.6v2.4h-8.6V46.4L15.9,46.4z M15.7,50.8h9.2v2.7h-9.2V50.8L15.7,50.8z M12.7,17.6h1.6V23h-1.6V17.6
		L12.7,17.6L12.7,17.6z M9.2,16.7h1.9v6.8H9.2V16.7L9.2,16.7L9.2,16.7z M4.9,15.9h2.4v8.6H4.9V15.9L4.9,15.9z M0.3,15.7H3v9.2H0.3
		V15.7L0.3,15.7z M31.6,13.2H37v1.6h-5.4V13.2L31.6,13.2z M30.8,9.7h6.8v1.9h-6.8V9.7L30.8,9.7L30.8,9.7z M30,5.4h8.6v2.4H30V5.4
		L30,5.4L30,5.4z M29.7,1.1h9.2v2.7h-9.2V1.1L29.7,1.1L29.7,1.1z"/>
</g>
</svg>
