<?xml version="1.0" encoding="utf-8"?>
<!-- Generator: Adobe Illustrator 19.2.1, SVG Export Plug-In . SVG Version: 6.00 Build 0)  -->
<svg version="1.1" id="图层_1" xmlns="http://www.w3.org/2000/svg" xmlns:xlink="http://www.w3.org/1999/xlink" x="0px" y="0px"
	 viewBox="0 0 54 54" style="enable-background:new 0 0 54 54;" xml:space="preserve">
<style type="text/css">
	.st0{fill:#FFFFFF;}
</style>
<g>
	<path class="st0" d="M27.9,25.2c-1.3-0.5-2.8,0-3.3,1.3s0,2.8,1.3,3.3s2.8,0,3.3-1.3C29.6,27,29.1,25.7,27.9,25.2z M45.7,17.7
		l-0.8-1c-1.3-2-4-2.8-6-1.5l-5.8,4.5c-1.3,0.8-2,1.8-2.3,3c-1-1-2.5-1.5-4-1.5c-0.3,0-0.5,0-0.8,0c1-1.3,1-3.3,0-5l-2.8-6.8
		c-1.3-2-4-2.8-6-1.5l-1,0.8c-2,1.3-2.8,4-1.5,6l4.5,5.8c0.8,1.3,2,2.3,3.5,2.3c-1.3,1.3-2,2.8-2,4.5c0,0.5,0,1,0.3,1.3
		c-1.3-0.8-3-0.8-4.5,0.3l-6.8,2.8c-2,1.3-2.8,4-1.5,6l0.8,1c1.3,2,4,2.8,6,1.5l5.8-4.5c1.5-1,2.5-2.3,2.3-3.8c1,1,2.5,1.5,4.3,1.5
		h0.3c-0.8,1.3-0.5,3,0.3,4.5l2.8,6.8c1.3,2,4,2.8,6,1.5l1-0.8c2-1.3,2.8-4,1.5-6l-4.5-5.8c-0.8-1.3-1.8-2-3-2.3
		c1-1,1.8-2.5,1.8-4.3l0,0c0-0.3,0-0.3,0-0.5c1.3,0.8,3,0.5,4.3-0.3l6.8-2.8C46.2,22.5,46.9,19.7,45.7,17.7z M29.6,31.8
		c-0.3,0-0.5,0.3-0.8,0.3h-0.3c-0.5,0.3-1,0.3-1.8,0.3c-2.8,0-5-2.3-5-5s2.3-5,5-5c1.8,0,3.3,1,4.3,2.3c0,0.3,0.3,0.5,0.3,0.5
		l0.3,0.3l0,0c0.3,0.5,0.3,1.3,0.5,2l0,0C31.9,29.3,30.9,30.8,29.6,31.8z"/>
	<g>
		<path class="st0" d="M27,54C12.1,54,0,41.9,0,27S12.1,0,27,0s27,12.1,27,27S41.9,54,27,54z M27,3.9C14.3,3.9,3.9,14.3,3.9,27
			S14.3,50.1,27,50.1S50.1,39.7,50.1,27S39.7,3.9,27,3.9z"/>
	</g>
</g>
</svg>
