<?xml version="1.0" encoding="utf-8"?>
<!-- Generator: Adobe Illustrator 19.2.1, SVG Export Plug-In . SVG Version: 6.00 Build 0)  -->
<svg version="1.1" id="图层_1" xmlns="http://www.w3.org/2000/svg" xmlns:xlink="http://www.w3.org/1999/xlink" x="0px" y="0px"
	 viewBox="0 0 54 54" style="enable-background:new 0 0 54 54;" xml:space="preserve">
<style type="text/css">
	.st0{fill:#FFFFFF;}
</style>
<g>
	<g transform="scale(0.1953125, 0.1953125)">
		<path class="st0" d="M236.8,23.8C235.2,11,225,1.3,212.7,1.3s-22.5,9.8-24.1,22.5h-27.7c-1.8-8.4-8.8-15-17.2-15h-6.8
			c-8.4,0-15.4,6.4-16.9,15H84.6C82.9,11,72.8,1.3,60.4,1.3c-13.4,0-24.3,11.6-24.3,26c0,1.5,0.1,2.9,0.3,4.3v29.3h83.2v33.2h41.6
			V60.9H237V23.8H236.8L236.8,23.8z M276.5,134.8c-22.3,0-41.9,11.9-52.8,29.6h-23.6c-4.7-8.6-11-16.1-18.5-22.1v-29.6H98.7v29.6
			c-7.5,6-13.8,13.5-18.5,22.1H50c-10.4-17.8-28.9-29.6-50-29.6c1.4,0.7-0.3,127.2,0,125.7c14.3,0,27.5-5.5,37.7-14.6H85
			c12.6,17.8,32.6,29.3,54.9,29.3c22.6,0,42.7-11.5,55.3-29.3h43c10.5,8.3,23.8,13.2,38.2,13.2C276.5,258.1,275.1,135.6,276.5,134.8
			z"/>
	</g>
</g>
</svg>
