<?xml version="1.0" encoding="utf-8"?>
<!-- Generator: Adobe Illustrator 19.2.1, SVG Export Plug-In . SVG Version: 6.00 Build 0)  -->
<svg version="1.1" id="图层_1" xmlns="http://www.w3.org/2000/svg" xmlns:xlink="http://www.w3.org/1999/xlink" x="0px" y="0px"
	 viewBox="0 0 54 54" style="enable-background:new 0 0 54 54;" xml:space="preserve">
<style type="text/css">
	.st0{fill:#FFFFFF;}
</style>
<g>
	<path class="st0" d="M1.3,54h51.5c0,0-2.8-9.2-15-9.2C24.1,44.7,1.3,54,1.3,54z"/>
	<path class="st0" d="M33.2,28.1L33.2,28.1c0-0.2-0.1-0.4-0.1-0.6c0-0.1,0-0.3-0.1-0.4l0,0c-0.2-0.7-0.5-1.5-0.8-2.2L20.8,1.3
		c-1.7-3-3.2,0-3.2,0l-11.2,24c-0.3,0.7-0.5,1.5-0.6,2.3C4.7,35.2,10,42.2,17.5,43.3c7.6,1.1,14.6-4.2,15.6-11.8
		c0.1-0.7,0.1-1.3,0.1-2C33.3,29,33.3,28.6,33.2,28.1L33.2,28.1z M19.5,26.5c-3.3-3-6.4-2.7-8.6-1.9l8.6-17.9l8.3,17.5
		c0.5,1,0.7,2,0.8,3.1C26.4,28.9,23.1,29.7,19.5,26.5L19.5,26.5z"/>
</g>
</svg>
