<?xml version="1.0" encoding="utf-8"?>
<!-- Generator: Adobe Illustrator 19.2.1, SVG Export Plug-In . SVG Version: 6.00 Build 0)  -->
<svg version="1.1" id="图层_1" xmlns="http://www.w3.org/2000/svg" xmlns:xlink="http://www.w3.org/1999/xlink" x="0px" y="0px"
	 viewBox="0 0 54 54" style="enable-background:new 0 0 54 54;" xml:space="preserve">
<style type="text/css">
	.st0{fill:#FFFFFF;}
</style>
<g>
	<g>
		<path class="st0" d="M21,25.8V11c0-1-1.1-1.9-2.5-1.9S16,9.9,16,11v14.8c-3.1,1.4-4.5,5-3.1,8s5,4.5,8,3.1s4.5-5,3.1-8
			C23.5,27.6,22.4,26.5,21,25.8L21,25.8z"/>
		<path class="st0" d="M26.8,22.7V6.6c0-1.9-1-3.7-2.6-4.8C22.6,0.6,20.6,0,18.6,0s-4,0.6-5.6,1.8c-1.6,1.1-2.5,2.9-2.6,4.8v16.1
			c-4.8,4.5-5,12.1-0.5,16.9s12.1,5,16.9,0.5s5-12.1,0.5-16.9C27.1,23,27,22.9,26.8,22.7L26.8,22.7L26.8,22.7z M18.6,40.2
			c-4.8,0-8.7-3.9-8.7-8.7c0-2.6,1.2-5.1,3.2-6.7l0.6-0.5V6.6c0-1.8,2.3-3.4,5-3.4s5,1.5,5,3.4v17.6l0.6,0.5
			c3.7,3.1,4.2,8.6,1.2,12.3C23.6,39,21.2,40.2,18.6,40.2L18.6,40.2z"/>
		<path class="st0" d="M28.3,8.3h1.9c0.4,0,0.8-0.4,0.8-0.8s-0.4-0.8-0.8-0.8h-1.9c-0.4,0-0.8,0.4-0.8,0.8C27.5,8,27.9,8.3,28.3,8.3
			L28.3,8.3z"/>
		<path class="st0" d="M30.3,9.2h-1.9c-0.4,0-0.8,0.4-0.8,0.8c0,0.4,0.4,0.8,0.8,0.8h1.9c0.4,0,0.8-0.4,0.8-0.8
			C31.1,9.5,30.7,9.2,30.3,9.2L30.3,9.2z"/>
		<path class="st0" d="M30.3,11.6h-1.9c-0.4,0-0.8,0.4-0.8,0.8s0.4,0.8,0.8,0.8h1.9c0.4,0,0.8-0.4,0.8-0.8S30.7,11.6,30.3,11.6
			L30.3,11.6z"/>
		<path class="st0" d="M30.3,14h-1.9c-0.4,0-0.8,0.4-0.8,0.8c0,0.4,0.4,0.8,0.8,0.8h1.9c0.4,0,0.8-0.4,0.8-0.8
			C31.1,14.4,30.7,14,30.3,14L30.3,14z"/>
		<path class="st0" d="M30.3,16.5h-1.9c-0.4,0-0.8,0.4-0.8,0.8s0.4,0.8,0.8,0.8h1.9c0.4,0,0.8-0.4,0.8-0.8S30.7,16.5,30.3,16.5
			L30.3,16.5z"/>
		<path class="st0" d="M30.3,18.9h-1.9c-0.4,0-0.8,0.4-0.8,0.8s0.4,0.8,0.8,0.8h1.9c0.4,0,0.8-0.4,0.8-0.8
			C31.1,19.2,30.7,18.9,30.3,18.9L30.3,18.9z"/>
	</g>
	<path class="st0" d="M1.2,54h51.6c0,0-2.8-9.2-15-9.2C24.1,44.7,1.2,54,1.2,54z"/>
</g>
</svg>
