<?xml version="1.0" encoding="utf-8"?>
<!-- Generator: Adobe Illustrator 19.2.1, SVG Export Plug-In . SVG Version: 6.00 Build 0)  -->
<svg version="1.1" id="图层_1" xmlns="http://www.w3.org/2000/svg" xmlns:xlink="http://www.w3.org/1999/xlink" x="0px" y="0px"
	 viewBox="0 0 54 54" style="enable-background:new 0 0 54 54;" xml:space="preserve">
<style type="text/css">
	.st0{fill:#FFFFFF;}
</style>
<g>
	<g transform="scale(0.1953125, 0.1953125)">
		<path class="st0" d="M0.4,93.1c0,12.1,9.4,22,20.8,22h234.5c11.6,0,20.8-9.9,20.8-22s-9.4-22-20.8-22H21.2
			C9.9,71.5,0.4,81.3,0.4,93.1L0.4,93.1z M103.5,75.3v-8.7c0-4.8,3.8-8.7,8.4-8.7h50.2c4.6,0,8.4,3.9,8.4,8.7v8.7h16.7v-8.7
			c0-14.4-11.3-26.2-25.1-26.2h-50.2c-14,0-25.1,11.8-25.1,26.2v8.7H103.5L103.5,75.3z M150.2,43V14.3C150.2,6.5,144,0,136.4,0
			s-13.7,6.5-13.7,14.3V43c0,7.9,6.2,14.3,13.7,14.3S150.2,50.9,150.2,43L150.2,43z M78.4,153.7L69.2,188c-1.2,4.4,1.3,9,5.5,10.2
			s8.6-1.4,9.8-5.8l9.2-34.3c1.2-4.4-1.3-9-5.5-10.2C84,146.7,79.6,149.3,78.4,153.7L78.4,153.7z M60.6,220.5l-9.2,34.3
			c-1.2,4.4,1.3,9,5.5,10.2s8.6-1.4,9.8-5.8l9.2-34.3c1.2-4.4-1.3-9-5.5-10.2C66.2,213.5,61.8,216.1,60.6,220.5L60.6,220.5z
			 M48.2,140.7l-16,31.4c-2,4-0.6,9.1,3.3,11.2s8.7,0.6,10.8-3.4l16-31.4c2-4,0.6-9.1-3.3-11.2C55.1,135.1,50.2,136.7,48.2,140.7
			L48.2,140.7z M17,201.9L1,233.3c-2,4-0.6,9.1,3.3,11.2c3.9,2.1,8.7,0.6,10.8-3.4l16-31.4c2-4,0.6-9.1-3.3-11.2
			C23.9,196.3,19,197.8,17,201.9L17,201.9z M112.6,163.1l-4.5,35.3c-0.6,4.5,2.5,8.7,6.8,9.3c4.3,0.6,8.4-2.6,8.9-7.1l4.5-35.3
			c0.6-4.5-2.5-8.7-6.8-9.3C117.2,155.4,113.2,158.6,112.6,163.1L112.6,163.1z M103.8,231.8l-4.5,35.3c-0.6,4.5,2.5,8.7,6.8,9.3
			c4.3,0.6,8.4-2.6,8.9-7.1l4.5-35.3c0.6-4.5-2.5-8.7-6.8-9.3C108.4,224,104.3,227.3,103.8,231.8L103.8,231.8z M198.1,153.7
			c-1.2-4.4-5.6-7-9.8-5.8c-4.2,1.2-6.7,5.8-5.5,10.2l9.2,34.3c1.2,4.4,5.6,7,9.8,5.8s6.7-5.8,5.5-10.2L198.1,153.7L198.1,153.7z
			 M215.9,220.5c-1.2-4.4-5.6-7-9.8-5.8c-4.2,1.2-6.7,5.8-5.5,10.2l9.2,34.3c1.2,4.4,5.6,7,9.8,5.8s6.7-5.8,5.5-10.2L215.9,220.5
			L215.9,220.5z M228.3,140.7c-2-4-6.9-5.6-10.8-3.4c-3.9,2.1-5.3,7.2-3.3,11.2l16,31.4c2,4,6.9,5.6,10.8,3.4
			c3.9-2.1,5.3-7.2,3.3-11.2L228.3,140.7L228.3,140.7z M259.5,201.9c-2-4-6.9-5.6-10.8-3.4c-3.9,2.1-5.3,7.2-3.3,11.2l16,31.4
			c2,4,6.9,5.6,10.8,3.4c3.9-2.1,5.3-7.2,3.3-11.2L259.5,201.9L259.5,201.9z M163.9,163.1c-0.6-4.5-4.6-7.7-8.9-7.1
			c-4.3,0.6-7.4,4.8-6.8,9.3l4.5,35.3c0.6,4.5,4.6,7.7,8.9,7.1c4.3-0.6,7.4-4.8,6.8-9.3L163.9,163.1L163.9,163.1z M172.7,231.8
			c-0.6-4.5-4.6-7.7-8.9-7.1c-4.3,0.6-7.4,4.8-6.8,9.3l4.5,35.3c0.6,4.5,4.6,7.7,8.9,7.1s7.4-4.8,6.8-9.3L172.7,231.8L172.7,231.8z"
			/>
	</g>
</g>
</svg>
