<?xml version="1.0" encoding="utf-8"?>
<!-- Generator: Adobe Illustrator 19.2.1, SVG Export Plug-In . SVG Version: 6.00 Build 0)  -->
<svg version="1.1" id="图层_1" xmlns="http://www.w3.org/2000/svg" xmlns:xlink="http://www.w3.org/1999/xlink" x="0px" y="0px"
	 viewBox="0 0 24 24" style="enable-background:new 0 0 24 24;" xml:space="preserve">
<style type="text/css">
	.st0{fill:#FFFFFF;}
</style>
<g id="XMLID_7_">
	<circle id="XMLID_16_" class="st0" cx="12" cy="12" r="4.4"/>
	<path id="XMLID_28_" class="st0" d="M11.6,6h0.7c0.2,0,0.4-0.2,0.4-0.4V0.4c0-0.2-0.2-0.4-0.4-0.4h-0.7c-0.2,0-0.4,0.2-0.4,0.4v5.3
		C11.3,5.9,11.4,6,11.6,6z"/>
	<path id="XMLID_29_" class="st0" d="M12.4,18h-0.7c-0.2,0-0.4,0.2-0.4,0.4v5.3c0,0.2,0.2,0.4,0.4,0.4h0.7c0.2,0,0.4-0.2,0.4-0.4
		v-5.3C12.7,18.2,12.6,18,12.4,18z"/>
	<path id="XMLID_30_" class="st0" d="M8.2,6.9C8.3,7,8.5,7.1,8.7,7l0.6-0.4c0.2-0.1,0.2-0.3,0.1-0.5L6.8,1.6
		C6.7,1.4,6.5,1.3,6.3,1.4L5.7,1.8C5.5,1.9,5.4,2.1,5.5,2.3L8.2,6.9z"/>
	<path id="XMLID_31_" class="st0" d="M15.8,17.2c-0.1-0.2-0.3-0.2-0.5-0.1l-0.6,0.4c-0.2,0.1-0.2,0.3-0.1,0.5l2.6,4.6
		c0.1,0.2,0.3,0.2,0.5,0.1l0.6-0.4c0.2-0.1,0.2-0.3,0.1-0.5L15.8,17.2z"/>
	<path id="XMLID_32_" class="st0" d="M1.6,6.8l4.6,2.6c0.2,0.1,0.4,0,0.5-0.1L7,8.7c0.1-0.2,0-0.4-0.1-0.5L2.3,5.6
		c-0.2-0.1-0.4,0-0.5,0.1L1.4,6.3C1.3,6.5,1.4,6.7,1.6,6.8z"/>
	<path id="XMLID_33_" class="st0" d="M22.4,17.2l-4.6-2.6c-0.2-0.1-0.4,0-0.5,0.1L17,15.3c-0.1,0.2,0,0.4,0.1,0.5l4.6,2.6
		c0.2,0.1,0.4,0,0.5-0.1l0.4-0.6C22.7,17.5,22.6,17.3,22.4,17.2z"/>
	<path id="XMLID_34_" class="st0" d="M6,12.4v-0.7c0-0.2-0.2-0.4-0.4-0.4H0.4c-0.2,0-0.4,0.2-0.4,0.4v0.7c0,0.2,0.2,0.4,0.4,0.4h5.3
		C5.8,12.7,6,12.6,6,12.4z"/>
	<path id="XMLID_35_" class="st0" d="M23.6,11.3h-5.3c-0.2,0-0.4,0.2-0.4,0.4v0.7c0,0.2,0.2,0.4,0.4,0.4h5.3c0.2,0,0.4-0.2,0.4-0.4
		v-0.7C24,11.4,23.8,11.3,23.6,11.3z"/>
	<path id="XMLID_36_" class="st0" d="M7,15.3l-0.4-0.6c-0.1-0.2-0.3-0.2-0.5-0.1l-4.6,2.6c-0.2,0.1-0.2,0.3-0.1,0.5l0.4,0.6
		c0.1,0.2,0.3,0.2,0.5,0.1l4.6-2.6C7,15.7,7.1,15.5,7,15.3z"/>
	<path id="XMLID_37_" class="st0" d="M17,8.7l0.4,0.6c0.1,0.2,0.3,0.2,0.5,0.1l4.6-2.6c0.2-0.1,0.2-0.3,0.1-0.5l-0.4-0.6
		c-0.1-0.2-0.3-0.2-0.5-0.1l-4.6,2.6C17,8.3,16.9,8.5,17,8.7z"/>
	<path id="XMLID_38_" class="st0" d="M9.3,17.4L8.7,17c-0.2-0.1-0.4,0-0.5,0.1l-2.6,4.6c-0.1,0.2,0,0.4,0.1,0.5l0.6,0.4
		c0.2,0.1,0.4,0,0.5-0.1l2.6-4.6C9.6,17.7,9.5,17.5,9.3,17.4z"/>
	<path id="XMLID_39_" class="st0" d="M14.7,6.6L15.3,7c0.2,0.1,0.4,0,0.5-0.1l2.6-4.6c0.1-0.2,0-0.4-0.1-0.5l-0.6-0.4
		c-0.2-0.1-0.4,0-0.5,0.1l-2.6,4.6C14.4,6.3,14.5,6.5,14.7,6.6z"/>
</g>
</svg>
