<?xml version="1.0" encoding="utf-8"?>
<!-- Generator: Adobe Illustrator 19.2.1, SVG Export Plug-In . SVG Version: 6.00 Build 0)  -->
<svg version="1.1" id="图层_1" xmlns="http://www.w3.org/2000/svg" xmlns:xlink="http://www.w3.org/1999/xlink" x="0px" y="0px"
	 viewBox="0 0 24 24" style="enable-background:new 0 0 24 24;" xml:space="preserve">
<style type="text/css">
	.st0{fill:#FFFFFF;}
</style>
<g id="XMLID_3_">
	<path id="XMLID_7_" class="st0" d="M7.3,6.1h4.9V8h2.4V6.1h4.5V4l0,0l0,0c-0.1-0.7-0.7-1.3-1.4-1.3S16.3,3.3,16.2,4h-1.6
		c-0.1-0.5-0.5-0.8-1-0.8h-0.4c-0.5,0-0.9,0.4-1,0.8h-2.1C10,3.3,9.4,2.8,8.7,2.8c-0.8,0-1.4,0.7-1.4,1.5c0,0.1,0,0.2,0,0.2L7.3,6.1
		z"/>
	<path id="XMLID_8_" class="st0" d="M23.6,11.9h-1.3c0-1.2,0-2.1,0-2.1c-1.3,0-2.5,0.6-3.1,1.6h-2.3c-0.3-0.5-0.6-0.9-1.1-1.2V8.7
		h-4.9v1.6c-0.4,0.3-0.8,0.7-1.1,1.2H7.1c-0.6-0.9-1.7-1.6-2.9-1.6c0,0,0,1,0,2.1H0.5C0.2,12,0,12.2,0,12.5v0.1l0,0v9.6
		c0,0.2,0.2,0.5,0.5,0.5h1.3c0.2,0,0.5-0.2,0.5-0.5v-7.8h2c0,1.2,0,2.2,0,2.2c0.8,0,1.6-0.3,2.2-0.8h3.7c0.7,0.9,1.9,1.5,3.2,1.5
		s2.5-0.6,3.3-1.5H20c0.6,0.4,1.4,0.7,2.2,0.7c0,0,0-1,0-2.2h1.3c0.2,0,0.4-0.2,0.4-0.4v-1.5C24,12.1,23.8,11.9,23.6,11.9z"/>
</g>
</svg>
