<?xml version="1.0" encoding="utf-8"?>
<!-- Generator: Adobe Illustrator 19.2.1, SVG Export Plug-In . SVG Version: 6.00 Build 0)  -->
<svg version="1.1" id="图层_1" xmlns="http://www.w3.org/2000/svg" xmlns:xlink="http://www.w3.org/1999/xlink" x="0px" y="0px"
	 viewBox="0 0 32 32" style="enable-background:new 0 0 32 32;" xml:space="preserve">
<g>
	<g transform="scale(0.1953125, 0.1953125)">
		<path d="M35.1,99.5c0-3.2-1.1-6-3.4-8.3c-2.3-2.3-5-3.4-8.3-3.4s-6,1.1-8.3,3.4c-2.3,2.3-3.4,5-3.4,8.3c0,3.2,1.1,6,3.4,8.3
			c2.3,2.3,5,3.4,8.3,3.4s6-1.1,8.3-3.4C34,105.5,35.1,102.7,35.1,99.5z M52.7,58.5c0-3.2-1.1-6-3.4-8.3c-2.3-2.3-5-3.4-8.3-3.4
			c-3.2,0-6,1.1-8.3,3.4c-2.3,2.3-3.4,5-3.4,8.3c0,3.2,1.1,6,3.4,8.3c2.3,2.3,5,3.4,8.3,3.4c3.2,0,6-1.1,8.3-3.4
			C51.5,64.5,52.7,61.7,52.7,58.5z M91.8,102.5l9.2-34.9c0.4-1.6,0.1-3.1-0.7-4.4c-0.8-1.4-2-2.3-3.5-2.7s-3-0.2-4.4,0.6
			c-1.4,0.8-2.3,2-2.7,3.6l-9.2,34.9c-3.7,0.3-6.9,1.6-9.8,4c-2.9,2.3-4.8,5.4-5.8,9c-1.2,4.7-0.6,9.1,1.8,13.3
			c2.4,4.2,6,6.9,10.7,8.1c4.7,1.2,9.1,0.6,13.3-1.8c4.2-2.4,6.9-6,8.1-10.7c1-3.7,0.8-7.2-0.6-10.7C97,107.3,94.8,104.6,91.8,102.5
			L91.8,102.5z M152.1,99.5c0-3.2-1.1-6-3.4-8.3c-2.3-2.3-5-3.4-8.3-3.4s-6,1.1-8.3,3.4c-2.3,2.3-3.4,5-3.4,8.3c0,3.2,1.1,6,3.4,8.3
			c2.3,2.3,5,3.4,8.3,3.4s6-1.1,8.3-3.4C151,105.5,152.1,102.7,152.1,99.5z M93.6,41c0-3.2-1.1-6-3.4-8.3c-2.3-2.3-5-3.4-8.3-3.4
			c-3.2,0-6,1.1-8.3,3.4c-2.3,2.3-3.4,5-3.4,8.3c0,3.2,1.1,6,3.4,8.3s5,3.4,8.3,3.4c3.2,0,6-1.1,8.3-3.4
			C92.5,46.9,93.6,44.2,93.6,41z M134.6,58.5c0-3.2-1.1-6-3.4-8.3c-2.3-2.3-5-3.4-8.3-3.4c-3.2,0-6,1.1-8.3,3.4
			c-2.3,2.3-3.4,5-3.4,8.3c0,3.2,1.1,6,3.4,8.3s5,3.4,8.3,3.4c3.2,0,6-1.1,8.3-3.4S134.6,61.7,134.6,58.5z M163.8,99.5
			c0,15.9-4.3,30.6-12.9,44.2c-1.2,1.8-2.8,2.7-4.9,2.7H17.8c-2.1,0-3.8-0.9-4.9-2.7C4.3,130.2,0,115.4,0,99.5
			c0-11.1,2.2-21.7,6.5-31.8c4.3-10.1,10.1-18.8,17.5-26.2S40,28.4,50.1,24s20.7-6.5,31.8-6.5s21.7,2.2,31.8,6.5
			c10.1,4.3,18.8,10.2,26.2,17.5c7.3,7.3,13.1,16,17.5,26.2S163.8,88.4,163.8,99.5L163.8,99.5z"/>
	</g>
</g>
</svg>
