<?xml version="1.0" encoding="utf-8"?>
<!-- Generator: Adobe Illustrator 19.2.1, SVG Export Plug-In . SVG Version: 6.00 Build 0)  -->
<svg version="1.1" id="图层_1" xmlns="http://www.w3.org/2000/svg" xmlns:xlink="http://www.w3.org/1999/xlink" x="0px" y="0px"
	 viewBox="0 0 32 32" style="enable-background:new 0 0 32 32;" xml:space="preserve">
<g>
	<g transform="scale(0.1953125, 0.1953125)">
		<path d="M81.9,0C36.7,0,0,36.7,0,81.9s36.7,81.9,81.9,81.9s81.9-36.7,81.9-81.9S127.1,0,81.9,0z M81.9,24.1
			c8.7,0,15.7,7,15.7,15.7s-7,15.7-15.7,15.7s-15.7-7-15.7-15.7S73.2,24.1,81.9,24.1z M109,137.3c0,1.3-1.1,2.5-2.5,2.5h-48
			c-1.3,0-2.5-1.1-2.5-2.5V126c0-1.3,1.1-2.5,2.5-2.5h12V85.4H59.3c-4.3,0-6.1-5.6-2.6-8l22.1-15.9c6.6-4.8,15.9,0,15.9,8.2v54.1
			h11.8c1.3,0,2.5,1.1,2.5,2.5L109,137.3z"/>
	</g>
</g>
</svg>
