<?xml version="1.0" encoding="utf-8"?>
<!-- Generator: Adobe Illustrator 19.0.0, SVG Export Plug-In . SVG Version: 6.00 Build 0)  -->
<svg version="1.1" id="图层_1" xmlns="http://www.w3.org/2000/svg" xmlns:xlink="http://www.w3.org/1999/xlink" x="0px" y="0px"
	 viewBox="0 0 132 54" style="enable-background:new 0 0 132 54;" xml:space="preserve">
<style type="text/css">
	.st0{fill:#1D95D4;}
	.st1{fill:url(#XMLID_2_);}
	.st2{fill:url(#XMLID_3_);}
	.st3{fill:url(#XMLID_4_);}
	.st4{fill:url(#XMLID_5_);}
	.st5{fill:url(#XMLID_6_);}
	.st6{fill:url(#XMLID_7_);}
	.st7{fill:url(#XMLID_8_);}
	.st8{fill:url(#XMLID_9_);}
	.st9{fill:url(#XMLID_10_);}
	.st10{fill:url(#XMLID_11_);}
	.st11{fill:url(#XMLID_12_);}
	.st12{fill:url(#XMLID_13_);}
	.st13{fill:#38B27C;}
</style>
<g id="XMLID_118_">
	<g id="XMLID_122_">
		<path id="XMLID_63_" class="st0" d="M55.1,23.6c-0.2-2.4-0.8-4.6-1.5-6.8c-0.2-0.6-0.8-1.1-1.5-1.2l-4.5-0.7
			c-0.5-0.1-1-0.4-1.3-0.8c-0.8-1.2-1.7-2.3-2.7-3.3c-0.4-0.4-0.6-0.9-0.5-1.4l0.3-4.5c0-0.7-0.3-1.3-0.8-1.7c-1.9-1.3-4-2.3-6.3-3
			C35.7-0.1,35,0,34.5,0.5l-3.3,3.1c-0.4,0.4-0.9,0.5-1.5,0.5C29,4,28.2,4,27.5,4c-0.7,0-1.4,0-2.1,0.1c-0.5,0.1-1.1-0.1-1.5-0.5
			l-3.3-3.1c-0.5-0.5-1.2-0.6-1.9-0.4c-2.2,0.7-4.3,1.8-6.3,3c-0.6,0.4-0.9,1-0.8,1.7L12,9.4c0,0.5-0.2,1.1-0.5,1.4
			c-1,1-1.9,2.1-2.7,3.3c-0.3,0.4-0.8,0.8-1.3,0.8L3,15.6c-0.7,0.1-1.2,0.6-1.5,1.2C0.8,19,0.2,21.3,0,23.6
			c-0.1,0.7,0.2,1.3,0.8,1.7l3.7,2.6c0.4,0.3,0.7,0.8,0.8,1.3c0.2,1.4,0.5,2.8,0.9,4.1c0.2,0.5,0.1,1.1-0.1,1.5l-2.3,3.9
			c-0.3,0.6-0.3,1.3,0,1.9c1.2,2,2.7,3.8,4.3,5.4c0.5,0.5,1.2,0.7,1.8,0.5l4.3-1.3c0.5-0.2,1.1-0.1,1.5,0.2c1.2,0.7,2.5,1.3,3.8,1.8
			c0.5,0.2,0.9,0.6,1.1,1.1l1.7,4.2c0.3,0.6,0.8,1.1,1.5,1.2c1.1,0.1,2.3,0.2,3.5,0.2c1.2,0,2.3-0.1,3.5-0.2
			c0.7-0.1,1.3-0.5,1.5-1.2l1.7-4.2c0.2-0.5,0.6-0.9,1.1-1.1c1.3-0.5,2.6-1.1,3.8-1.8c0.5-0.3,1-0.4,1.5-0.2l4.3,1.3
			c0.7,0.2,1.4,0,1.8-0.5c1.7-1.6,3.1-3.4,4.3-5.4c0.4-0.6,0.4-1.3,0-1.9L49.5,36c-0.3,0.5-0.6,1-1,1.5c-3.9,4.5-11.3,7.3-18,7.3
			c-11.7,0-21.1-7.2-21.1-19.9l0,0c0-4.6,2.2-9.2,5.8-9.2c0-5.4,5.8-8.9,12-8.9c6.2,0,12,3.5,12,8.9c3.7,0,5.8,4.1,5.8,7.9
			c0,4.7-3.8,11.5-12.9,11.5c-7.4,0-11.3-5.1-11.4-8.5c-0.2-5.3,3.1-8.9,7.8-8.7c1.5,0.1,3.4,1.3,3.5,3.5c0.1,1.9-1.6,4-5,4.5
			c-0.6,0.1-1.7,0.4-1.7,1.6c0,0.6,0.3,1.3,1.8,1.4c3.5,0.1,9.3-1.9,9.2-7.7c-0.1-2.9-2.3-7.3-8.4-7.3c-5.5,0-11.7,4.6-11.8,11.9
			c0,4.6,1.8,8.2,5,10.8c2.4,2,6.6,3.7,11.5,3.6c5.1-0.1,10.5-1.2,15.6-6.8c0.3-0.3,0.7-1.3,1.1-3.2c0.1-0.3,0.1-0.6,0.1-1
			c0.1-0.5,0.4-1,0.8-1.3l3.7-2.6C54.8,25,55.1,24.3,55.1,23.6z"/>
	</g>
	<g id="XMLID_119_">
		<linearGradient id="XMLID_2_" gradientUnits="userSpaceOnUse" x1="5.3112" y1="-5.6087" x2="33.4394" y2="34.8635">
			<stop  offset="0.3724" style="stop-color:#FFFFFF;stop-opacity:0"/>
			<stop  offset="1" style="stop-color:#FFFFFF;stop-opacity:0.2"/>
		</linearGradient>
		<path id="XMLID_62_" class="st1" d="M36.5,21.1c-0.1-2.9-2.3-7.3-8.4-7.3c-5.5,0-11.7,4.6-11.8,11.9c0,3.9,1.3,6.9,3.5,9.4
			c1.1-1.2,2.3-2.3,3.6-3.4c-1.7-1.6-2.5-3.6-2.6-5.2c-0.2-5.3,3.1-8.9,7.8-8.7c1.5,0.1,3.4,1.3,3.5,3.5c0.1,1.9-1.6,4-5,4.5
			c-0.6,0.1-1.7,0.4-1.7,1.6c0,0.6,0.3,1.3,1.8,1.4c0,0,0,0,0,0c2.6-1.8,5.5-3.3,8.5-4.5C36.3,23.4,36.5,22.4,36.5,21.1z"/>
		<linearGradient id="XMLID_3_" gradientUnits="userSpaceOnUse" x1="4.9801" y1="-5.3786" x2="33.1083" y2="35.0936">
			<stop  offset="0.3724" style="stop-color:#FFFFFF;stop-opacity:0"/>
			<stop  offset="1" style="stop-color:#FFFFFF;stop-opacity:0.2"/>
		</linearGradient>
		<path id="XMLID_61_" class="st2" d="M9.4,24.9L9.4,24.9c0-4.6,2.2-9.2,5.8-9.2c0-5.4,5.8-8.9,12-8.9c6.2,0,12,3.5,12,8.9
			c3.1,0,5.1,2.9,5.7,6.1c2.7-0.5,5.5-0.7,8.4-0.7c0.4,0,0.9,0,1.3,0c-0.3-1.4-0.7-2.8-1.2-4.2c-0.2-0.6-0.8-1.1-1.5-1.2l-4.5-0.7
			c-0.5-0.1-1-0.4-1.3-0.8c-0.8-1.2-1.7-2.3-2.7-3.3c-0.4-0.4-0.6-0.9-0.5-1.4l0.3-4.5c0-0.7-0.3-1.3-0.8-1.7c-1.9-1.3-4-2.3-6.3-3
			C35.7-0.1,35,0,34.5,0.5l-3.3,3.1c-0.4,0.4-0.9,0.5-1.5,0.5C29,4,28.2,4,27.5,4c-0.7,0-1.4,0-2.1,0.1c-0.5,0.1-1.1-0.1-1.5-0.5
			l-3.3-3.1c-0.5-0.5-1.2-0.6-1.9-0.4c-2.2,0.7-4.3,1.8-6.3,3c-0.6,0.4-0.9,1-0.8,1.7L12,9.4c0,0.5-0.2,1.1-0.5,1.4
			c-1,1-1.9,2.1-2.7,3.3c-0.3,0.4-0.8,0.8-1.3,0.8L3,15.6c-0.7,0.1-1.2,0.6-1.5,1.2C0.8,19,0.2,21.3,0,23.6
			c-0.1,0.7,0.2,1.3,0.8,1.7l3.7,2.6c0.4,0.3,0.7,0.8,0.8,1.3c0.2,1.4,0.5,2.8,0.9,4.1c0.2,0.5,0.1,1.1-0.1,1.5l-2.3,3.9
			c-0.3,0.6-0.3,1.3,0,1.9c1.2,2,2.7,3.8,4.3,5.4c0.5,0.5,1.2,0.7,1.8,0.5l2.3-0.7c1-2.1,2.2-4.1,3.5-6C11.9,36.5,9.4,31.4,9.4,24.9
			z"/>
	</g>
</g>
<g id="XMLID_27_">
	<g id="XMLID_88_">
		<g id="XMLID_104_">
			<path id="XMLID_111_" class="st0" d="M66.7,7.4l-1.9-1.5h6l1.8,1.5h13.3l2.2-1.7h6.2l-1.9,1.7H96l-1.5,3.4H86v6.8h10l-1.5,3.5
				H63.2v-3.5h9.6v-6.8h-9V7.4H66.7z M68.8,12l3.4,4.4l-5.1,0L63.8,12H68.8z M64.5,22h29.7l0,10.4l-5.7,3.5l-24,0V22z M70.2,25.3v2
				h17.9l-1.4,3.3H70.2v2.1h18.3l0-7.3H70.2z M78.1,10.7V18h2.6v-7.2H78.1z M90.2,12h5.1l-3.4,4.4l-5.1,0L90.2,12z"/>
			<g id="XMLID_105_">
				<linearGradient id="XMLID_4_" gradientUnits="userSpaceOnUse" x1="57.9893" y1="10.36" x2="67.0837" y2="24.9848">
					<stop  offset="0.3724" style="stop-color:#FFFFFF;stop-opacity:0"/>
					<stop  offset="1" style="stop-color:#FFFFFF;stop-opacity:0.2"/>
				</linearGradient>
				<path id="XMLID_54_" class="st3" d="M69.2,22h-4.7v5C65.7,25.2,67.2,23.5,69.2,22z"/>
				<linearGradient id="XMLID_5_" gradientUnits="userSpaceOnUse" x1="71.8398" y1="1.747" x2="80.9343" y2="16.3718">
					<stop  offset="0.3724" style="stop-color:#FFFFFF;stop-opacity:0"/>
					<stop  offset="1" style="stop-color:#FFFFFF;stop-opacity:0.2"/>
				</linearGradient>
				<path id="XMLID_53_" class="st4" d="M78.1,10.7h2.6V17c1.7-0.3,3.5-0.5,5.3-0.6v-5.7h8.5L96,7.4h-3.6l1.9-1.7h-6.2l-2.2,1.7
					H72.6l-1.8-1.5h-6l1.9,1.5h-3v3.4h9v6.8h-9.6v3.5h7.4c2.2-1.5,4.8-2.6,7.6-3.4V10.7z"/>
				<linearGradient id="XMLID_6_" gradientUnits="userSpaceOnUse" x1="82.1305" y1="-4.6522" x2="91.225" y2="9.9726">
					<stop  offset="0.3724" style="stop-color:#FFFFFF;stop-opacity:0"/>
					<stop  offset="1" style="stop-color:#FFFFFF;stop-opacity:0.2"/>
				</linearGradient>
				<path id="XMLID_52_" class="st5" d="M96,17.6h-0.1C95.9,17.6,96,17.6,96,17.6L96,17.6z"/>
				<linearGradient id="XMLID_7_" gradientUnits="userSpaceOnUse" x1="63.4992" y1="6.9336" x2="72.5936" y2="21.5585">
					<stop  offset="0.3724" style="stop-color:#FFFFFF;stop-opacity:0"/>
					<stop  offset="1" style="stop-color:#FFFFFF;stop-opacity:0.2"/>
				</linearGradient>
				<polygon id="XMLID_51_" class="st6" points="68.8,12 63.8,12 67.1,16.4 72.3,16.4 				"/>
				<linearGradient id="XMLID_8_" gradientUnits="userSpaceOnUse" x1="80.0938" y1="-3.3857" x2="89.1882" y2="11.2391">
					<stop  offset="0.3724" style="stop-color:#FFFFFF;stop-opacity:0"/>
					<stop  offset="1" style="stop-color:#FFFFFF;stop-opacity:0.2"/>
				</linearGradient>
				<polygon id="XMLID_50_" class="st7" points="86.8,16.4 91.9,16.4 95.3,12 90.2,12 				"/>
			</g>
		</g>
		<g id="XMLID_89_">
			<path id="XMLID_96_" class="st0" d="M112.2,27.6v-1.4h6.7v1.4h12.8l-2.1,3.1h-8.1l10.6,5.6l-10,0l-6.4-3.8l-6.8,3.8l-9.6,0
				l10.2-5.7h-9.3v-3.1H112.2z M106.9,10.2v14.5l-5.8,2.1V7.1h4.9l0.6-1h7.4l-0.5,1h17.3v17.6l-5.8,2V10.2H106.9z M108.5,14.5
				l-1-3.1h4l1.1,3.1L108.5,14.5z M112.7,19.1l-0.9,4.9h-4.3l1.1-4.9H112.7z M118.3,18.3v5.4l-5.3,1.7v-7.1h-5.5v-3l5.5,0v-4.2h5.3
				v4.2h6.1l-2.2,3H118.3z M118.8,14.5l1.2-3.2h4l-1.1,3.2H118.8z M119,19.1h4.1l1.1,4.9h-4.3L119,19.1z"/>
			<g id="XMLID_90_">
				<linearGradient id="XMLID_9_" gradientUnits="userSpaceOnUse" x1="113.6657" y1="-2.1655" x2="121.8589" y2="13.7293">
					<stop  offset="0.3724" style="stop-color:#FFFFFF;stop-opacity:0"/>
					<stop  offset="1" style="stop-color:#FFFFFF;stop-opacity:0.2"/>
				</linearGradient>
				<polygon id="XMLID_42_" class="st8" points="118.8,14.5 122.9,14.5 124,11.3 120,11.3 				"/>
				<linearGradient id="XMLID_10_" gradientUnits="userSpaceOnUse" x1="107.7927" y1="0.8618" x2="115.9859" y2="16.7566">
					<stop  offset="0.3724" style="stop-color:#FFFFFF;stop-opacity:0"/>
					<stop  offset="1" style="stop-color:#FFFFFF;stop-opacity:0.2"/>
				</linearGradient>
				<path id="XMLID_41_" class="st9" d="M118.3,15.3v-4.2h-5.3v4.2l-5.5,0v3h4.4c3.3-1.2,7.1-1.9,11-1.9c0.2,0,0.4,0,0.5,0l0.8-1.1
					H118.3z"/>
				<linearGradient id="XMLID_11_" gradientUnits="userSpaceOnUse" x1="104.5965" y1="2.5094" x2="112.7896" y2="18.4041">
					<stop  offset="0.3724" style="stop-color:#FFFFFF;stop-opacity:0"/>
					<stop  offset="1" style="stop-color:#FFFFFF;stop-opacity:0.2"/>
				</linearGradient>
				<polygon id="XMLID_40_" class="st10" points="107.5,11.4 108.5,14.5 112.6,14.5 111.5,11.4 				"/>
				<linearGradient id="XMLID_12_" gradientUnits="userSpaceOnUse" x1="101.2894" y1="4.214" x2="109.4826" y2="20.1088">
					<stop  offset="0.3724" style="stop-color:#FFFFFF;stop-opacity:0"/>
					<stop  offset="1" style="stop-color:#FFFFFF;stop-opacity:0.2"/>
				</linearGradient>
				<path id="XMLID_39_" class="st11" d="M108.4,19.9c0.5-0.3,1-0.5,1.5-0.7h-1.3L108.4,19.9z"/>
				<linearGradient id="XMLID_13_" gradientUnits="userSpaceOnUse" x1="107.8037" y1="0.8561" x2="115.9969" y2="16.7509">
					<stop  offset="0.3724" style="stop-color:#FFFFFF;stop-opacity:0"/>
					<stop  offset="1" style="stop-color:#FFFFFF;stop-opacity:0.2"/>
				</linearGradient>
				<path id="XMLID_38_" class="st12" d="M106.9,20.8V10.2h18v6.2c2,0.1,3.9,0.4,5.8,0.8V7.1h-17.3l0.5-1h-7.4l-0.6,1h-4.9v19
					C102.6,24,104.5,22.2,106.9,20.8z"/>
			</g>
		</g>
	</g>
	<g id="XMLID_28_">
		<path id="XMLID_86_" class="st13" d="M69.3,43c0,0.5-0.1,1-0.3,1.4c-0.3,0.6-0.8,0.8-1.4,0.8h-2.2v-0.7h1.4c0.4,0,0.7-0.2,0.9-0.6
			c0.1-0.3,0.2-0.6,0.2-1c0-0.4-0.1-0.7-0.2-1c-0.2-0.4-0.5-0.6-0.9-0.6h-2v7.1h-1.5v-7.7h4.4c0.6,0,1.1,0.3,1.4,0.9
			C69.2,42,69.3,42.5,69.3,43z"/>
		<path id="XMLID_84_" class="st13" d="M73.9,42.8h-0.8c-0.6,0-1,0.1-1.2,0.3c-0.1,0.1-0.2,0.5-0.2,1v4.2h-1.5V44
			c0-1.2,0.9-1.8,2.7-1.8h1V42.8z"/>
		<path id="XMLID_81_" class="st13" d="M81.6,46.4c0,0.6-0.1,1.1-0.3,1.4c-0.3,0.4-0.8,0.6-1.6,0.6H77c-0.8,0-1.3-0.2-1.6-0.6
			c-0.2-0.3-0.3-0.7-0.3-1.4v-2.3c0-0.6,0.1-1.1,0.3-1.4c0.3-0.4,0.8-0.6,1.6-0.6h2.7c0.8,0,1.3,0.2,1.6,0.6
			c0.2,0.3,0.3,0.7,0.3,1.4V46.4z M80.1,44.2c0-0.4,0-0.7-0.1-0.8c-0.1-0.3-0.4-0.4-0.9-0.4h-1.4c-0.4,0-0.7,0.1-0.9,0.4
			c-0.1,0.2-0.1,0.5-0.1,0.8v2.2c0,0.3,0.1,0.6,0.3,0.9c0.2,0.3,0.6,0.5,1,0.5h0.9c0.5,0,0.9-0.1,1.1-0.3c0.1-0.2,0.2-0.5,0.2-0.9
			V44.2z"/>
		<path id="XMLID_79_" class="st13" d="M89.6,48.4h-4.3c-0.8,0-1.3-0.2-1.6-0.5c-0.2-0.2-0.3-0.7-0.3-1.3v-4.3h1.5v4.1
			c0,0.4,0,0.7,0.1,0.9c0.1,0.3,0.4,0.5,0.9,0.5h2.2v-5.5h1.5V48.4z"/>
		<path id="XMLID_77_" class="st13" d="M96.9,48.4h-4.1c-0.8,0-1.3-0.2-1.6-0.6c-0.2-0.3-0.3-0.8-0.3-1.4v-2c0-0.6,0.1-1.1,0.3-1.4
			c0.3-0.4,0.8-0.6,1.6-0.6h1.8v0.6h-1.2c-0.4,0-0.7,0.1-0.9,0.4c-0.1,0.2-0.1,0.5-0.1,0.8v1.5c0,0.7,0.1,1.2,0.2,1.5
			c0.2,0.3,0.7,0.5,1.4,0.5c0.2,0,0.4,0,0.6,0c0.3,0,0.5,0,0.6,0v-7.1h1.5V48.4z"/>
		<path id="XMLID_75_" class="st13" d="M103.9,46.7c0,0.4-0.1,0.7-0.2,1.1c-0.2,0.4-0.6,0.6-1,0.6h-4.1v-0.6h3.3
			c0.2,0,0.4-0.1,0.6-0.4c0.1-0.2,0.1-0.4,0.1-0.6c0-0.2,0-0.4-0.1-0.6c-0.1-0.3-0.3-0.4-0.6-0.4h-2.4c-0.5,0-0.8-0.2-1.1-0.7
			c-0.2-0.3-0.3-0.7-0.3-1.1c0-0.4,0.1-0.8,0.3-1.1c0.3-0.4,0.6-0.6,1.2-0.6h3.4v0.7h-2.9c-0.2,0-0.4,0.1-0.5,0.4
			c-0.1,0.2-0.1,0.4-0.1,0.6c0,0.2,0,0.4,0.1,0.6c0.1,0.2,0.3,0.4,0.5,0.4h2.6c0.4,0,0.8,0.2,1,0.7
			C103.8,45.9,103.9,46.3,103.9,46.7z"/>
		<path id="XMLID_73_" class="st13" d="M114.7,48.4h-1.5v-4.1c0-0.4,0-0.7-0.1-0.9c-0.1-0.3-0.4-0.5-0.9-0.5h-1.6v5.5h-1.5v-5.5
			h-2.6v5.5h-1.5v-6.1h7.9c0.8,0,1.3,0.2,1.6,0.5c0.2,0.2,0.3,0.7,0.3,1.3V48.4z"/>
		<path id="XMLID_71_" class="st13" d="M122.2,48.4h-4.3c-0.5,0-1-0.2-1.3-0.6c-0.2-0.3-0.4-0.7-0.4-1.2c0-0.5,0.1-0.9,0.4-1.2
			c0.3-0.4,0.7-0.6,1.3-0.6h2.1v0.6c-0.1,0-0.3,0-0.6,0c-0.2,0-0.4,0-0.5,0c-0.4,0-0.7,0.1-0.9,0.2c-0.2,0.2-0.3,0.5-0.3,0.9
			c0,0.3,0,0.5,0.1,0.7c0.1,0.3,0.3,0.5,0.6,0.5h2.2v-3.8c0-0.3-0.1-0.6-0.2-0.7c-0.2-0.2-0.4-0.3-0.8-0.3h-2v-0.6h2.6
			c0.8,0,1.3,0.2,1.6,0.5c0.2,0.2,0.3,0.7,0.3,1.3V48.4z"/>
		<path id="XMLID_69_" class="st13" d="M127.7,42.8h-0.8c-0.6,0-1,0.1-1.2,0.3c-0.1,0.1-0.2,0.5-0.2,1v4.2H124V44
			c0-1.2,0.9-1.8,2.7-1.8h1V42.8z"/>
		<path id="XMLID_67_" class="st13" d="M132,42.9h-2v3.7c0,0.5,0.1,0.8,0.3,0.9c0.2,0.1,0.5,0.2,1.2,0.2v0.6h-1.1
			c-0.8,0-1.3-0.1-1.5-0.3c-0.2-0.2-0.3-0.6-0.3-1.2v-6.2h1.5v1.6h2V42.9z"/>
	</g>
</g>
</svg>
