<?xml version="1.0" encoding="utf-8"?>
<!-- Generator: Adobe Illustrator 19.2.0, SVG Export Plug-In . SVG Version: 6.00 Build 0)  -->
<svg version="1.1" id="图层_1" xmlns="http://www.w3.org/2000/svg" xmlns:xlink="http://www.w3.org/1999/xlink" x="0px" y="0px"
	 viewBox="0 0 598.1 208" style="enable-background:new 0 0 598.1 208;" xml:space="preserve">
<style type="text/css">
	.st0{fill:#FFFFFF;}
</style>
<g>
	<g>
		<g>
			<path class="st0" d="M266.3,155.5c0,2.7-0.6,5.1-1.7,7.3c-1.5,2.8-3.9,4.2-6.9,4.2h-11.2v-3.3h7c2,0,3.5-1.1,4.5-3.2
				c0.7-1.5,1-3.2,1-5.1c0-1.9-0.4-3.7-1.1-5.3c-1-2.2-2.5-3.2-4.5-3.2h-10v35.7h-7.7v-39h21.9c3,0,5.3,1.5,6.9,4.5
				C265.7,150.3,266.3,152.8,266.3,155.5z"/>
			<path class="st0" d="M289.5,154.5h-3.9c-3.2,0-5.2,0.5-6.1,1.6c-0.6,0.7-0.8,2.5-0.8,5.2v21.2H271v-22c0-6.2,4.4-9.3,13.3-9.3
				h5.2V154.5z"/>
			<path class="st0" d="M328,172.8c0,3.2-0.5,5.5-1.5,6.9c-1.4,1.9-4,2.8-7.9,2.8h-13.5c-3.9,0-6.5-0.9-7.9-2.8
				c-1-1.4-1.5-3.7-1.5-6.9v-11.4c0-3.2,0.5-5.5,1.5-6.8c1.4-1.9,4-2.8,7.9-2.8h13.5c3.9,0,6.5,0.9,7.9,2.8c1,1.4,1.5,3.6,1.5,6.8
				V172.8z M320.3,161.4c0-2-0.2-3.4-0.6-4.2c-0.7-1.4-2.1-2.1-4.3-2.1h-7.1c-2.1,0-3.5,0.7-4.3,2.1c-0.5,0.9-0.7,2.3-0.7,4.2v11
				c0,1.7,0.5,3.2,1.5,4.5c1.2,1.6,2.8,2.4,4.8,2.4h4.4c2.7,0,4.5-0.6,5.3-1.8c0.6-0.8,0.9-2.3,0.9-4.6V161.4z"/>
			<path class="st0" d="M368,182.6h-21.6c-3.9,0-6.5-0.8-7.9-2.4c-1-1.3-1.5-3.5-1.5-6.6v-21.8h7.5v20.7c0,2.1,0.2,3.6,0.6,4.5
				c0.7,1.6,2.1,2.4,4.3,2.4h10.8v-27.5h7.7V182.6z"/>
			<path class="st0" d="M404,182.6h-20.4c-3.9,0-6.5-1.1-7.9-3.2c-1-1.5-1.5-3.9-1.5-7.1v-10.1c0-3.3,0.5-5.7,1.5-7.2
				c1.4-2.1,4-3.2,7.9-3.2h8.9v3.2h-5.8c-2.1,0-3.5,0.7-4.3,2.2c-0.4,0.9-0.6,2.3-0.6,4.2v7.8c0,3.7,0.3,6.2,1,7.4
				c1.1,1.8,3.5,2.6,7.2,2.6c0.8,0,1.8,0,3.1,0c1.5,0,2.5,0,3.1,0v-35.7h7.7V182.6z"/>
			<path class="st0" d="M456.5,170.8c0,2.7-0.6,5.2-1.9,7.4c-1.6,2.9-4,4.3-7,4.3h-18.7v-3.2h14.5c2,0,3.5-0.9,4.6-2.8
				c0.8-1.5,1.2-3.1,1.2-4.8c0-2.8-0.7-4.7-2.2-5.7c-1.1-0.7-3.1-1.1-6-1.1c-0.5,0-1.3,0-2.5,0s-2.1,0-2.8,0c-3,0-5.2-1.2-6.8-3.7
				c-1.2-1.9-1.8-4.2-1.8-6.8c0-2.6,0.6-4.8,1.8-6.9c1.6-2.6,3.9-3.9,6.8-3.9h16.9v3.3h-12.7c-1.9,0-3.4,0.8-4.4,2.4
				c-0.8,1.3-1.2,2.7-1.2,4.3c0,1.7,0.4,3.1,1.2,4.3c1,1.6,2.5,2.4,4.4,2.4h8.2c2.9,0,5.1,1.3,6.6,3.8
				C455.9,166.1,456.5,168.3,456.5,170.8z"/>
			<path class="st0" d="M510.5,182.6h-7.6v-20.7c0-2.1-0.2-3.6-0.5-4.4c-0.7-1.6-2.1-2.4-4.3-2.4h-8.1v27.5h-7.7V155h-12.9v27.5
				h-7.7v-30.8h39.5c3.9,0,6.5,0.8,7.9,2.4c1,1.2,1.5,3.4,1.5,6.6V182.6z"/>
			<path class="st0" d="M547.8,182.6h-21.4c-2.7,0-4.8-1.1-6.2-3.2c-1.2-1.7-1.8-3.7-1.8-5.9c0-2.3,0.6-4.3,1.8-6.1
				c1.4-2.2,3.5-3.2,6.2-3.2h10.3v3.2c-0.7,0-1.6,0-2.8,0c-1.1,0-1.9,0-2.3,0c-2.2,0-3.7,0.3-4.5,0.9c-1,0.8-1.5,2.3-1.5,4.7
				c0,1.3,0.2,2.6,0.7,3.7c0.7,1.7,1.6,2.6,2.9,2.6h10.8v-19.1c0-1.7-0.3-2.9-0.8-3.6c-0.8-1-2.1-1.5-4.1-1.5h-9.7v-3.2h13
				c3.9,0,6.5,0.8,7.9,2.4c1,1.2,1.5,3.4,1.5,6.6V182.6z"/>
			<path class="st0" d="M575.3,154.5h-3.9c-3.2,0-5.2,0.5-6.1,1.6c-0.6,0.7-0.8,2.5-0.8,5.2v21.2h-7.7v-22c0-6.2,4.4-9.3,13.3-9.3
				h5.2V154.5z"/>
			<path class="st0" d="M596.8,155h-9.9v18.8c0,2.4,0.5,4,1.5,4.6c0.8,0.6,2.7,0.8,5.8,0.8v3.2h-5.6c-4,0-6.5-0.5-7.7-1.5
				c-1.2-1-1.7-3.1-1.7-6.1v-31.3h7.7v8.2h9.9V155z"/>
		</g>
		<g>
			<g>
				<path class="st0" d="M246.3,32.8l-6.5-5.3h20.7l6.1,5.3h45.6l7.7-5.9h21.4l-6.5,5.9H347l-5,11.6h-29.2v23.5H347l-5,12H234v-12
					h33V44.4h-30.9V32.8H246.3z M253.5,48.7l11.8,15.1l-17.7,0.1L236,48.7H253.5z M238.5,83.2h102.2l0.1,35.7L321,131l-82.5-0.1
					V83.2z M258.1,94.6v6.8h61.5l-5,11.3h-56.5v7.1H321l0.1-25.1H258.1z M285.5,44.4v24.9h8.8V44.4H285.5z M327,48.7h17.4
					l-11.6,15.1l-17.7-0.1L327,48.7z"/>
				<path class="st0" d="M402.7,102.3v-5h23.1v5h43.9l-7.3,10.8h-28l36.3,19.4l-34.3,0.1l-22.1-12.9L391,132.7l-33-0.1l35.1-19.5
					h-32v-10.8H402.7z M384.3,42.7v49.9l-20,7.1V31.7h16.8l2-3.5h25.4l-1.7,3.5h59.4v60.5l-19.9,7V42.7H384.3z M389.9,57.4
					l-3.4-10.8h13.7l3.9,10.7L389.9,57.4z M404.3,73.3l-3,16.9h-14.9l3.8-16.9H404.3z M423.7,70.4V89l-18.1,5.8V70.4h-18.8V60
					l18.8-0.1V45.5h18.1V60h20.9l-7.6,10.4H423.7z M425.5,57.4l4.1-10.9h13.8l-3.8,10.9H425.5z M426.1,73.3h14.1l3.8,16.9h-14.9
					L426.1,73.3z"/>
				<path class="st0" d="M485.4,29h113.1L591,43.1H485.4V29z M573.4,116.7l-8.6-31.6h20.3l13,46.3h-20.8l-2.6-9.6l-3.2,8.8
					l-85.3-0.1v-12.4l20.5-40h-21.3v-14h112.7l-7.3,14h-62.9l-18.9,38.5H573.4z"/>
			</g>
			<g>
				<path class="st0" d="M347,67.9h-0.4c0.1,0,0.3,0.1,0.4,0.1L347,67.9z"/>
			</g>
			<g>
				<path class="st0" d="M565.6,63.8c-3.1,0-6.2,0.1-9.2,0.4h18.4C571.8,64,568.7,63.8,565.6,63.8z"/>
			</g>
		</g>
	</g>
	<g>
		<path class="st0" d="M207.9,92c-0.9-8.9-2.9-17.5-5.8-25.6c-0.9-2.4-3-4.2-5.5-4.6l-17-2.6c-2-0.3-3.7-1.5-4.8-3.1
			c-2.9-4.5-6.3-8.7-10-12.5c-1.4-1.4-2.1-3.4-2-5.4l1.2-17.1c0.2-2.6-1-5-3.2-6.4c-7.3-4.7-15.3-8.6-23.7-11.4
			c-2.4-0.8-5.1-0.3-7,1.5l-12.6,11.7c-1.5,1.4-3.5,2-5.5,1.8c-2.6-0.3-5.3-0.4-8-0.4c-2.7,0-5.4,0.1-8,0.4c-2,0.2-4-0.5-5.5-1.8
			L77.8,4.6c-1.9-1.7-4.6-2.3-7-1.5c-8.4,2.8-16.4,6.7-23.7,11.4c-2.2,1.4-3.4,3.8-3.2,6.4l1.2,17.1c0.1,2-0.6,4-2,5.4
			c-3.7,3.8-7.1,8-10,12.5c-1.1,1.7-2.8,2.8-4.8,3.1l-17,2.6c-2.5,0.4-4.7,2.1-5.5,4.6C2.8,74.4,0.8,83,0,92c-0.2,2.6,0.9,5.1,3,6.5
			l14.2,9.7c1.7,1.1,2.7,2.9,3,4.9c0.7,5.4,1.9,10.6,3.6,15.7c0.6,1.9,0.4,4-0.6,5.8l-8.5,14.9c-1.3,2.2-1.2,5,0.1,7.2
			c4.6,7.5,10.1,14.4,16.4,20.5c1.8,1.8,4.5,2.5,7,1.7l16.4-5c1.9-0.6,4-0.3,5.7,0.7c4.6,2.8,9.4,5.1,14.4,7c1.9,0.7,3.4,2.1,4.1,4
			l6.3,15.9c0.9,2.4,3.1,4.1,5.7,4.4c4.3,0.5,8.7,0.8,13.2,0.8c4.5,0,8.8-0.3,13.2-0.8c2.6-0.3,4.7-2,5.7-4.4l6.3-15.9
			c0.7-1.9,2.3-3.3,4.1-4c5.1-1.9,9.9-4.2,14.4-7c1.7-1,3.8-1.3,5.7-0.7l16.4,5c2.5,0.8,5.1,0.1,7-1.7c6.3-6.1,11.8-13,16.4-20.5
			c1.3-2.2,1.4-4.9,0.1-7.2l-6.2-10.8c-1,1.9-2.2,3.8-3.7,5.5c-14.6,16.9-42.9,27.7-68.1,27.7c-44.1,0-79.8-27.1-79.8-75l0,0
			c0-17.6,8.2-34.8,22.1-34.8c0-20.3,22-33.7,45.4-33.7c23.4,0,45.4,13.4,45.4,33.7c13.9,0,22.1,15.6,22.1,29.8
			c0,17.7-14.4,43.4-48.6,43.4c-28.1,0-42.6-19.1-43.1-32.3c-0.8-20.1,11.7-33.5,29.5-32.7c5.6,0.2,12.8,4.8,13.3,13.1
			c0.4,7.1-6.1,15-18.8,17.1c-2.2,0.4-6.3,1.4-6.4,5.9c0,2.3,1.2,5,6.8,5.3c13.3,0.5,35.2-7,34.6-29.1c-0.3-11-8.7-27.5-31.7-27.5
			c-20.6,0-44.2,17.3-44.5,45.1c-0.2,17.6,7,30.8,19,40.8c9,7.5,25.1,14,43.5,13.7c19.2-0.3,39.7-4.6,59.1-25.6
			c1.1-1.2,2.8-4.8,4.2-12.3c0.2-1.2,0.4-2.4,0.5-3.6c0.3-2,1.3-3.8,3-4.9l14.2-9.7C207,97,208.1,94.5,207.9,92z"/>
	</g>
</g>
</svg>
