<?xml version="1.0" encoding="utf-8"?>
<!-- Generator: Adobe Illustrator 15.0.0, SVG Export Plug-In . SVG Version: 6.00 Build 0)  -->
<!DOCTYPE svg PUBLIC "-//W3C//DTD SVG 1.1//EN" "http://www.w3.org/Graphics/SVG/1.1/DTD/svg11.dtd">
<svg version="1.1" id="图层_1" xmlns="http://www.w3.org/2000/svg" xmlns:xlink="http://www.w3.org/1999/xlink" x="0px" y="0px"
	 width="277.8px" height="277.8px" viewBox="144.565 0 277.8 277.8" enable-background="new 144.565 0 277.8 277.8"
	 xml:space="preserve">
<g>
	<path fill="#0AADED" d="M283.465,0c-76.829,0-138.9,62.071-138.9,138.9s62.071,138.9,138.9,138.9s138.9-62.071,138.9-138.9
		S360.294,0,283.465,0z"/>
</g>
<g>
	<g>
		<path fill="#FFFFFF" d="M283.465,262.173c-68.148,0-123.273-55.125-123.273-123.273c0-68.148,55.125-123.273,123.273-123.273
			c68.148,0,123.273,55.125,123.273,123.273C406.738,207.048,351.613,262.173,283.465,262.173z M283.465,28.648
			c-60.769,0-110.252,49.483-110.252,110.252s49.483,110.252,110.252,110.252S393.717,199.668,393.717,138.9
			S344.233,28.648,283.465,28.648z"/>
	</g>
</g>
<g>
	<g>
		<path fill="#FFFFFF" d="M293.448,115.46v-13.456c0-4.34-0.868-7.813-3.038-9.983c-2.17-2.17-4.341-3.472-6.511-3.906h-0.434
			h-0.434h-0.434c0,0,0,0-0.434,0c-2.604,0-5.208,1.302-7.379,3.038c-2.17,1.736-3.473,4.341-3.473,7.813v72.922
			c0,5.643,1.302,9.984,3.473,13.022s4.774,4.774,7.379,5.208c0.434,0,0.434,0,0.868,0s0.434,0,0.868,0h0.434h0.435
			c2.17-0.434,4.34-1.302,6.076-3.472c1.736-2.171,2.604-4.341,2.604-7.38v-19.532h-13.022v-28.214h46.011v82.906h-29.951v-11.721
			c-0.434,0.435-0.434,0.869-0.867,1.303c-0.435,0.434-0.435,0.868-0.869,1.303c-1.736,3.038-3.906,5.208-6.944,7.379
			c-3.038,2.17-8.682,3.038-16.929,3.038c-9.115,0-16.06-2.604-20.835-7.379c-4.774-4.774-8.247-10.418-10.417-16.061
			c-1.302-3.038-1.736-5.643-2.17-8.681c-0.434-3.039-0.434-5.209-0.434-7.38v-75.526c0-13.022,4.775-23.005,13.89-29.517
			c9.115-6.945,19.533-10.417,30.818-10.852c0.434,0,0.868,0,0.868,0c0.434,0,0.434,0,0.868,0c9.983,0,19.533,2.604,28.214,8.248
			c8.682,5.643,13.456,13.89,14.759,24.741v22.137H293.448z"/>
	</g>
</g>
</svg>
