<?xml version="1.0" encoding="utf-8"?>
<!-- Generator: Adobe Illustrator 15.0.0, SVG Export Plug-In . SVG Version: 6.00 Build 0)  -->
<!DOCTYPE svg PUBLIC "-//W3C//DTD SVG 1.1//EN" "http://www.w3.org/Graphics/SVG/1.1/DTD/svg11.dtd">
<svg version="1.1" id="图层_1" xmlns="http://www.w3.org/2000/svg" xmlns:xlink="http://www.w3.org/1999/xlink" x="0px" y="0px"
	 width="277.8px" height="277.8px" viewBox="0 0 277.8 277.8" enable-background="new 0 0 277.8 277.8" xml:space="preserve">
<g>
	<path fill="#ED9700" d="M138.9,0C62.072,0,0,62.071,0,138.9S62.072,277.8,138.9,277.8c76.83,0,138.9-62.071,138.9-138.9
		S215.73,0,138.9,0z"/>
</g>
<g>
	<g>
		<path fill="#FFFFFF" d="M138.9,262.173c-68.147,0-123.272-55.125-123.272-123.273c0-68.148,55.125-123.273,123.272-123.273
			c68.148,0,123.273,55.125,123.273,123.273C262.173,207.048,207.048,262.173,138.9,262.173z M138.9,28.648
			c-60.769,0-110.252,49.483-110.252,110.252c0,60.77,49.483,110.252,110.252,110.252c60.771,0,110.252-49.484,110.252-110.252
			C249.152,78.132,199.667,28.648,138.9,28.648z"/>
	</g>
</g>
<g>
	<g>
		<path fill="#FFFFFF" d="M148.884,115.46v-13.456c0-4.34-0.869-7.813-3.039-9.983s-4.342-3.472-6.511-3.906H138.9h-0.434h-0.434
			c0,0,0,0-0.434,0c-2.604,0-5.209,1.302-7.379,3.038c-2.17,1.736-3.474,4.341-3.474,7.813v72.922c0,5.643,1.302,9.984,3.474,13.021
			c2.17,3.037,4.773,4.773,7.379,5.209c0.434,0,0.434,0,0.867,0s0.434,0,0.868,0h0.435h0.435c2.17-0.436,4.34-1.304,6.076-3.474
			c1.735-2.171,2.604-4.341,2.604-7.38v-19.532h-13.022V131.52h46.011v82.905h-29.951v-11.721c-0.434,0.436-0.434,0.869-0.867,1.303
			c-0.436,0.435-0.436,0.869-0.869,1.304c-1.735,3.038-3.905,5.208-6.942,7.379c-3.039,2.17-8.683,3.038-16.931,3.038
			c-9.114,0-16.06-2.604-20.834-7.379c-4.774-4.773-8.248-10.418-10.418-16.061c-1.301-3.039-1.735-5.645-2.17-8.683
			c-0.434-3.039-0.434-5.209-0.434-7.38V100.7c0-13.022,4.775-23.005,13.891-29.517c9.115-6.945,19.533-10.417,30.817-10.852
			c0.435,0,0.868,0,0.868,0c0.434,0,0.434,0,0.868,0c9.983,0,19.532,2.604,28.214,8.248c8.682,5.643,13.455,13.89,14.758,24.741
			v22.137h-32.988V115.46L148.884,115.46z"/>
	</g>
</g>
</svg>
