<?xml version="1.0" encoding="utf-8"?>
<!-- Generator: Adobe Illustrator 19.2.1, SVG Export Plug-In . SVG Version: 6.00 Build 0)  -->
<svg version="1.1" id="图层_1" xmlns="http://www.w3.org/2000/svg" xmlns:xlink="http://www.w3.org/1999/xlink" x="0px" y="0px"
	 viewBox="0 0 200 50" style="enable-background:new 0 0 200 50;" xml:space="preserve">
<style type="text/css">
	.st0{fill:#FFFFFF;}
</style>
<g>
	<path class="st0" d="M46.8,21.2c0-0.1,0-0.1,0-0.2c-0.1-0.3-0.1-0.7-0.2-1c0-0.1-0.1-0.2-0.1-0.3c-0.1-0.4-0.2-0.8-0.4-1.2
		c-0.1-0.4-0.5-0.7-0.9-0.8l-2.8-0.4c-0.3-0.1-0.6-0.2-0.8-0.5c-0.5-0.7-1.1-1.4-1.7-2.1c-0.2-0.2-0.4-0.6-0.3-0.9l0.2-2.9
		c0-0.4-0.2-0.8-0.5-1.1c-1.2-0.8-2.5-1.4-4-1.9c-0.4-0.1-0.9,0-1.2,0.2L32,10.2c-0.2,0.2-0.6,0.3-0.9,0.3c-0.4,0-0.9-0.1-1.3-0.1
		c-0.5,0-0.9,0-1.3,0.1c-0.3,0-0.7-0.1-0.9-0.3l-2.1-1.9C25.2,8.2,25,8.1,24.8,8c-0.1,0-0.2,0-0.3,0c-0.1,0-0.2,0-0.3,0.1
		c-0.4,0.1-0.7,0.2-1,0.4c-1,0.4-2,0.9-2.9,1.5c-0.4,0.2-0.6,0.6-0.5,1.1l0.2,2.9c0,0.3-0.1,0.7-0.3,0.9c-0.6,0.6-1.2,1.3-1.7,2.1
		c-0.2,0.3-0.5,0.5-0.8,0.5l-2.8,0.4c-0.4,0.1-0.8,0.4-0.9,0.8c-0.5,1.4-0.8,2.8-1,4.3c0,0.1,0,0.2,0,0.3c0.1,0.3,0.2,0.6,0.5,0.8
		l2.4,1.6c0.3,0.2,0.5,0.5,0.5,0.8c0.1,0.9,0.3,1.8,0.6,2.6c0.1,0.3,0.1,0.7-0.1,1l-1.4,2.5c-0.2,0.4-0.2,0.8,0,1.2
		c0.8,1.3,1.7,2.4,2.7,3.4c0.3,0.3,0.8,0.4,1.2,0.3l2.7-0.8c0.3-0.1,0.7-0.1,1,0.1c0.8,0.5,1.6,0.9,2.4,1.2c0.3,0.1,0.6,0.4,0.7,0.7
		l1.1,2.7c0.2,0.4,0.5,0.7,0.9,0.7C28.3,42,29,42,29.7,42c0.7,0,1.5,0,2.2-0.1c0.4-0.1,0.8-0.3,0.9-0.7l1.1-2.7
		c0.1-0.3,0.4-0.6,0.7-0.7c0.8-0.3,1.7-0.7,2.4-1.2c0.3-0.2,0.6-0.2,1-0.1l2.7,0.8c0.4,0.1,0.9,0,1.2-0.3c1-1,2-2.2,2.7-3.4
		c0.2-0.4,0.2-0.8,0-1.2l-1-1.8c-0.2,0.3-0.4,0.6-0.6,0.9c-2.4,2.8-7.1,4.6-11.4,4.6c-3.6,0-6.9-1.1-9.3-3.2
		c-0.2-0.2-0.3-0.3-0.5-0.5c-0.1-0.1-0.2-0.2-0.4-0.4c-0.2-0.2-0.3-0.4-0.5-0.5c-0.1-0.1-0.2-0.3-0.3-0.4c-0.1-0.2-0.3-0.4-0.4-0.6
		c-0.1-0.1-0.2-0.3-0.3-0.4c-0.1-0.2-0.2-0.4-0.3-0.7c-0.1-0.2-0.2-0.3-0.2-0.5c-0.1-0.2-0.2-0.5-0.3-0.7c-0.1-0.2-0.1-0.3-0.2-0.5
		c-0.1-0.3-0.1-0.5-0.2-0.8c0-0.2-0.1-0.3-0.1-0.5c-0.1-0.3-0.1-0.6-0.1-0.9c0-0.2-0.1-0.3-0.1-0.5c0-0.5-0.1-1-0.1-1.5l0,0
		c0-2.9,1.4-5.8,3.7-5.8c0-3.4,3.7-5.6,7.6-5.6s7.6,2.2,7.6,5.6c0.2,0,0.4,0,0.6,0.1c0,0,0.1,0,0.1,0c0.2,0,0.4,0.1,0.5,0.2
		c0,0,0.1,0,0.1,0.1c0.2,0.1,0.3,0.2,0.5,0.3c0,0,0,0,0,0c0.2,0.1,0.3,0.3,0.4,0.4c0,0,0,0.1,0.1,0.1c0.1,0.2,0.3,0.3,0.4,0.5
		c0,0,0,0.1,0.1,0.1c0.1,0.2,0.2,0.4,0.3,0.6c0,0,0,0,0,0c0.1,0.2,0.2,0.4,0.2,0.6c0,0,0,0.1,0,0.1c0.1,0.2,0.1,0.4,0.2,0.7
		c0.1,0.4,0.1,0.8,0.1,1.2c0,2.9-2.4,7.2-8.1,7.2c-2.5,0-4.4-0.9-5.6-2.1c-0.2-0.2-0.4-0.5-0.6-0.7c0,0,0-0.1-0.1-0.1
		c-0.2-0.2-0.3-0.5-0.4-0.7c0,0,0-0.1,0-0.1c-0.1-0.3-0.2-0.5-0.3-0.8c0,0,0,0,0-0.1c-0.1-0.3-0.1-0.5-0.1-0.8
		c-0.1-3.4,1.9-5.6,4.9-5.5c0.9,0,2.1,0.8,2.2,2.2c0,0.4-0.1,0.9-0.4,1.3c-0.4,0.6-1.1,1.1-2,1.3c-0.2,0.1-0.5,0.1-0.7,0.2
		c-0.4,0.1-1.1,0.2-1.1,1c0,0.4,0.2,0.8,1.1,0.9c0,0,0,0,0,0c0,0,0,0,0,0c1.7,0.1,4.4-0.7,5.4-2.8c0,0,0,0,0,0c0,0,0-0.1,0-0.1
		c0-0.1,0.1-0.1,0.1-0.2c0-0.1,0.1-0.2,0.1-0.3c0-0.1,0-0.1,0.1-0.2c0-0.1,0-0.2,0.1-0.4c0-0.1,0-0.1,0-0.2c0-0.2,0-0.4,0-0.6
		c0-1.8-1.5-4.6-5.3-4.6c-3.4,0-7.4,2.9-7.4,7.5c0,0.3,0,0.7,0,1c0,0.1,0,0.2,0,0.3c0,0.2,0.1,0.4,0.1,0.6c0,0.1,0,0.2,0.1,0.3
		c0,0.2,0.1,0.4,0.2,0.6c0,0.1,0.1,0.2,0.1,0.3c0.1,0.2,0.1,0.4,0.2,0.5c0,0.1,0.1,0.2,0.1,0.3c0.1,0.3,0.3,0.5,0.4,0.7
		c0,0,0.1,0.1,0.1,0.1c0.1,0.2,0.3,0.4,0.4,0.6c0.1,0.1,0.1,0.2,0.2,0.2c0.1,0.1,0.2,0.2,0.2,0.3c0,0,0,0,0,0
		c0.3,0.3,0.6,0.6,0.9,0.9c1.5,1.2,4.2,2.3,7.3,2.3c3.2,0,6.6-0.8,9.9-4.3c0.2-0.2,0.5-0.8,0.7-2c0-0.2,0.1-0.4,0.1-0.6
		c0-0.3,0.2-0.6,0.5-0.8l2.4-1.6c0.4-0.2,0.5-0.7,0.5-1.1C47,22.3,46.9,21.8,46.8,21.2C46.8,21.2,46.8,21.2,46.8,21.2z"/>
	<path class="st0" d="M62.1,34.8h-2.9c-0.4,0-0.8,0.3-0.8,0.8v2c0,0.4,0.3,0.8,0.8,0.8h2.9c0.4,0,0.8-0.3,0.8-0.8v-2
		C62.9,35.2,62.6,34.8,62.1,34.8z M61.6,37.7c0,0.1-0.1,0.2-0.2,0.2H60c-0.1,0-0.2-0.1-0.2-0.2v-2.2c0-0.1,0.1-0.2,0.2-0.2h1.3
		c0.1,0,0.2,0.1,0.2,0.2V37.7z"/>
	<path class="st0" d="M57.9,34.8h-1.3c-0.4,0-0.8,0.3-0.8,0.8v2.6c0,0.1,0.1,0.2,0.2,0.2H57c0.1,0,0.2-0.1,0.2-0.2v-2.7
		c0-0.1,0.1-0.2,0.2-0.2h0.5c0.1,0,0.2-0.1,0.2-0.2v0C58.2,34.9,58.1,34.8,57.9,34.8z"/>
	<path class="st0" d="M91.9,34.8h-1.3c-0.4,0-0.8,0.3-0.8,0.8v2.6c0,0.1,0.1,0.2,0.2,0.2h0.9c0.1,0,0.2-0.1,0.2-0.2v-2.7
		c0-0.1,0.1-0.2,0.2-0.2h0.5c0.1,0,0.2-0.1,0.2-0.2v0C92.1,34.9,92,34.8,91.9,34.8z"/>
	<path class="st0" d="M67.7,34.8h-0.9c-0.1,0-0.2,0.1-0.2,0.2l0,2.7c0,0.1-0.1,0.2-0.2,0.2H65c-0.1,0-0.2-0.1-0.2-0.2v-2.7
		c0-0.1-0.1-0.2-0.2-0.2h-0.9c-0.1,0-0.2,0.1-0.2,0.2v2.6c0,0.4,0.3,0.8,0.8,0.8h3.4c0.1,0,0.2-0.1,0.2-0.2c0-0.6,0-2.5,0-3.1
		C67.9,34.9,67.8,34.8,67.7,34.8z"/>
	<path class="st0" d="M83.7,34.8h-5.1c-0.1,0-0.2,0.1-0.2,0.2l0,3.1c0,0.1,0.1,0.2,0.2,0.2h0.9c0.1,0,0.2-0.1,0.2-0.2l0-2.7
		c0-0.1,0.1-0.2,0.2-0.2h0.6c0.1,0,0.2,0.1,0.2,0.2c0,0.9,0,2.2,0,2.7c0,0.1,0.1,0.2,0.2,0.2h0.9c0.1,0,0.2-0.1,0.2-0.2l0-2.7
		c0-0.1,0.1-0.2,0.2-0.2h0.6c0.1,0,0.2,0.1,0.2,0.2v2.7c0,0.1,0.1,0.2,0.2,0.2h0.9c0.1,0,0.2-0.1,0.2-0.2c0-0.3,0-1.7,0-2.6
		C84.5,35.2,84.2,34.8,83.7,34.8z"/>
	<path class="st0" d="M72.7,33.8h-0.9c-0.1,0-0.2,0.1-0.2,0.2v3.7c0,0.1-0.1,0.2-0.2,0.2H70c-0.1,0-0.2-0.1-0.2-0.2v-2.2
		c0-0.1,0.1-0.2,0.2-0.2h1c0.1,0,0.2-0.1,0.2-0.2v0c0-0.1-0.1-0.2-0.2-0.2h-1.8c-0.4,0-0.8,0.3-0.8,0.8v2c0,0.4,0.3,0.8,0.8,0.8h3.4
		c0.1,0,0.2-0.1,0.2-0.2V34C72.9,33.9,72.8,33.8,72.7,33.8z"/>
	<path class="st0" d="M54.7,33.8h-3.4c-0.1,0-0.2,0.1-0.2,0.2v4.1c0,0.1,0.1,0.2,0.2,0.2h0.9c0.1,0,0.2-0.1,0.2-0.2v-3.7
		c0-0.1,0.1-0.2,0.2-0.2h1.3c0.1,0,0.2,0.1,0.2,0.2v1.4c0,0.1-0.1,0.2-0.2,0.2h-1c-0.1,0-0.2,0.1-0.2,0.2v0c0,0.1,0.1,0.2,0.2,0.2
		h1.8c0.4,0,0.8-0.3,0.8-0.8v-1.2C55.5,34.2,55.1,33.8,54.7,33.8z"/>
	<path class="st0" d="M89,34.8H86c-0.1,0-0.2,0.1-0.2,0.2v0c0,0.1,0.1,0.2,0.2,0.2h1.8c0.1,0,0.2,0.1,0.2,0.2v2.2
		c0,0.1-0.1,0.2-0.2,0.2h-1.3c-0.1,0-0.2-0.1-0.2-0.2v-1.1c0-0.1,0.1-0.2,0.2-0.2h1c0.1,0,0.2-0.1,0.2-0.2v0c0-0.1-0.1-0.2-0.2-0.2
		h-1.8c-0.4,0-0.8,0.3-0.8,0.8v0.9c0,0.4,0.3,0.8,0.8,0.8H89c0.1,0,0.2-0.1,0.2-0.2v-3.1C89.3,34.9,89.2,34.8,89,34.8z"/>
	<path class="st0" d="M94.7,34.8H94c-0.1,0-0.2-0.1-0.2-0.2V34c0-0.1-0.1-0.2-0.2-0.2h-0.9c-0.1,0-0.2,0.1-0.2,0.2v3.6
		c0,0.4,0.3,0.8,0.8,0.8h1.3c0.1,0,0.2-0.1,0.2-0.2v0c0-0.1-0.1-0.2-0.2-0.2H94c-0.1,0-0.2-0.1-0.2-0.2v-2.2c0-0.1,0.1-0.2,0.2-0.2
		h0.7c0.1,0,0.2-0.1,0.2-0.2v0C94.9,34.9,94.8,34.8,94.7,34.8z"/>
	<path class="st0" d="M77.1,36.4H75c-0.1,0-0.2-0.1-0.2-0.2v-0.7c0-0.1,0.1-0.2,0.2-0.2h2.2c0.1,0,0.2-0.1,0.2-0.2v0
		c0-0.1-0.1-0.2-0.2-0.2h-3c-0.4,0-0.8,0.3-0.8,0.8v0.5c0,0.4,0.3,0.8,0.8,0.8h2.1c0.1,0,0.2,0.1,0.2,0.2v0.6c0,0.1-0.1,0.2-0.2,0.2
		h-2.4c-0.1,0-0.2,0.1-0.2,0.2v0c0,0.1,0.1,0.2,0.2,0.2h3.2c0.4,0,0.8-0.3,0.8-0.8v-0.4C77.9,36.8,77.5,36.4,77.1,36.4z"/>
	<path class="st0" d="M77.9,25.3V23v-8.3h12.7v2.9v7.6H94l0-7.6h0V15c0-1.3-1-2.3-2.3-2.3H81.6l1-1.1h-4l-1,1.1h-0.9
		c-1.3,0-2.3,1-2.3,2.3v10.3h1.3H77.9z"/>
	<path class="st0" d="M72.4,21.2v-2h-2.3l0.3-1.5l0,0l0.3-1.9l0,0v0h-2.5l-0.6,3.4h-1.4v-1.3v-3.1h5.7v0v-2h-2.4l1-1.1h-4l-1,1.1
		h-7.6l-1-1.1h0h-4l1,1.1h-2.5v2v0h5.8v4.4h-1.4l-0.6-3.4h-2.5v0l0,0l0.6,3.4H51v2h6.7H72.4z M60.7,14.7h2v4v0.4h-1.2h-0.8V14.7z"/>
	<rect x="87.1" y="22.7" class="st0" width="2.3" height="2.2"/>
	<rect x="79" y="22.7" class="st0" width="2.3" height="2.2"/>
	<polygon class="st0" points="89.9,19.4 85.9,19.4 85.9,18.5 85.9,15.7 82.5,15.7 82.5,19.4 78.6,19.4 78.6,21.4 79.9,21.4 
		82.5,21.4 82.5,25.1 85.9,25.1 85.9,21.4 89.9,21.4 	"/>
	<path class="st0" d="M94.9,26.4h-9v-0.5h-3.4v0.5h-7.7h-1.3v2v0.1h6.9l-2.9,1.7c-0.2,0.1-0.4,0.1-0.6,0.1h-5.2v-5.4
		c0-1.3-1-2.3-2.3-2.3H55.9h-4.1v4.6v2.8c0,1.3,1,2.3,2.3,2.3h12.4l0-5.8H57v2h6v1.8h-7.8v-5.6h13.1v7.7h10.2c0.6,0,1.2-0.2,1.7-0.4
		l4.1-2.3l4.1,2.3c0.5,0.3,1.1,0.4,1.7,0.4h4.8h0.1v-2h-3.3c-0.2,0-0.4-0.1-0.6-0.1l-2.9-1.7h6.8V26.4z"/>
	<rect x="79" y="16" class="st0" width="2.3" height="2.2"/>
	<polygon class="st0" points="89.4,16 87.1,16 87.1,18.2 87.1,18.2 89.4,18.2 89.4,17.7 	"/>
</g>
</svg>
