<svg id="图层_1" data-name="图层 1" xmlns="http://www.w3.org/2000/svg" viewBox="0 0 24 24"><defs><style>.cls-1{fill:#fff;}</style></defs><title>icon_仪表盘</title><path class="cls-1" d="M12,4.9a0.75,0.75,0,1,0-.75-0.75A0.75,0.75,0,0,0,12,4.9Z"/><path class="cls-1" d="M19,9.27a0.75,0.75,0,1,0-.75-0.75A0.75,0.75,0,0,0,19,9.27Z"/><path class="cls-1" d="M18.44,15.51a0.75,0.75,0,1,0,.75.75A0.75,0.75,0,0,0,18.44,15.51Z"/><path class="cls-1" d="M15.72,4.94a0.75,0.75,0,1,0,1,.17A0.75,0.75,0,0,0,15.72,4.94Z"/><path class="cls-1" d="M19.31,12a0.75,0.75,0,1,0,1,.17A0.75,0.75,0,0,0,19.31,12Z"/><path class="cls-1" d="M5.76,8.52A0.75,0.75,0,1,0,5,9.27,0.75,0.75,0,0,0,5.76,8.52Z"/><path class="cls-1" d="M4.77,16.26a0.75,0.75,0,1,0,.75-0.75A0.75,0.75,0,0,0,4.77,16.26Z"/><path class="cls-1" d="M7.19,5.11a0.75,0.75,0,1,0,1-.17A0.75,0.75,0,0,0,7.19,5.11Z"/><path class="cls-1" d="M3.6,12.16a0.75,0.75,0,1,0,1-.17A0.75,0.75,0,0,0,3.6,12.16Z"/><path class="cls-1" d="M13.46,12.22a1.5,1.5,0,0,0-1.92-1.59L8.81,8.2A0.66,0.66,0,0,0,8,8.44a0.66,0.66,0,0,0-.14.88l2.71,2.42a1.43,1.43,0,0,0-.05.17A1.5,1.5,0,0,0,13.46,12.22Z"/><path class="cls-1" d="M12,0A12,12,0,1,0,24,12,12,12,0,0,0,12,0Zm5.27,20A6.56,6.56,0,0,0,6.73,20,9.63,9.63,0,1,1,17.27,20Z"/></svg>