<svg id="图层_1" data-name="图层 1" xmlns="http://www.w3.org/2000/svg" viewBox="0 0 24 24"><defs><style>.cls-1{fill:#fff;}</style></defs><title>icon_换行</title><path class="cls-1" d="M22.28,0H1.72A1.72,1.72,0,0,0,0,1.72V22.28A1.72,1.72,0,0,0,1.72,24H22.28A1.72,1.72,0,0,0,24,22.28V1.72A1.72,1.72,0,0,0,22.28,0Zm0,22.29H1.72V1.72H22.28V22.29Z" transform="translate(0 0)"/><polygon class="cls-1" points="16.86 9.69 16.86 13.92 12.05 13.92 12.05 11.62 4.51 15 12.05 18.39 12.05 16.09 19.03 16.09 19.03 9.69 16.86 9.69"/></svg>