<svg id="图层_1" data-name="图层 1" xmlns="http://www.w3.org/2000/svg" viewBox="0 0 24 24.02"><defs><style>.cls-1{fill:#fff;}</style></defs><title>icon_事件河流图</title><path class="cls-1" d="M0,20.42H24V24H0v-3.6Z" transform="translate(0 0)"/><path class="cls-1" d="M13.5,9.43c0,1.31-1,2.37-4.75,2.37S0,9.43,0,9.43,5,7.06,8.75,7.06,13.5,8.12,13.5,9.43Z" transform="translate(0 0)"/><path class="cls-1" d="M14.9,1.94C14.9,3,14.07,3.87,11,3.87S3.88,1.94,3.88,1.94,8,0,11,0,14.9,0.87,14.9,1.94Z" transform="translate(0 0)"/><path class="cls-1" d="M24,13.54c0,0.94-.73,1.7-3.41,1.7a18.57,18.57,0,0,1-6.28-1.7,18.57,18.57,0,0,1,6.28-1.7C23.27,11.84,24,12.6,24,13.54Z" transform="translate(0 0)"/><path class="cls-1" d="M22.39,5.66c0,0.78-.61,1.4-2.82,1.4a15.34,15.34,0,0,1-5.19-1.4,15.34,15.34,0,0,1,5.19-1.4C21.79,4.25,22.39,4.88,22.39,5.66Z" transform="translate(0 0)"/><path class="cls-1" d="M11.08,16.34c0,0.78-.61,1.4-2.82,1.4a15.34,15.34,0,0,1-5.19-1.4,15.34,15.34,0,0,1,5.19-1.4C10.47,14.94,11.08,15.56,11.08,16.34Z" transform="translate(0 0)"/></svg>