<svg id="图层_1" data-name="图层 1" xmlns="http://www.w3.org/2000/svg" viewBox="0 0 24 24"><defs><style>.cls-1{fill:#fff;}</style></defs><title>icon_和弦图</title><path class="cls-1" d="M12,0A12,12,0,1,0,24,12,12,12,0,0,0,12,0Zm1.22,2.08a1.71,1.71,0,0,0-.59,2.09A11.85,11.85,0,0,0,15.1,19a1.7,1.7,0,0,0,1.19,2,9.9,9.9,0,0,1-2.33.78,1.71,1.71,0,0,0-1.53-2.72A7.88,7.88,0,0,0,6.3,16.51a1.71,1.71,0,0,0-3,.45,9.92,9.92,0,0,1-1.05-2.68,1.72,1.72,0,0,0,2.92-.84,7.57,7.57,0,0,0,4.79-7A7.55,7.55,0,0,0,9.86,5.1a1.71,1.71,0,0,0-.53-2.73A9.57,9.57,0,0,1,13.22,2.08ZM5.15,19.25a1.71,1.71,0,0,0,1.48-1.43,6.56,6.56,0,0,1,4.59,1.92,1.71,1.71,0,0,0,.1,2.22,10,10,0,0,1-6.19-2.72h0ZM7,3.35a1.7,1.7,0,0,0,1.6,2.3A6.15,6.15,0,0,1,4.91,12.1a1.71,1.71,0,0,0-2.9.16c0-.09,0-0.18,0-0.27A10,10,0,0,1,7,3.35ZM18.47,19.62a1.7,1.7,0,0,0,0-.23,1.71,1.71,0,0,0-2.61-1.46A10.52,10.52,0,0,1,13.63,5.1a1.71,1.71,0,0,0,2.12-2.37A10,10,0,0,1,18.47,19.62Z"/></svg>